  0
SECTION
  2
BLOCKS
  0
ENDSEC
  0
SECTION
  2
ENTITIES
  0
LINE
  8
0
 10
72.67
 20
19.3815
 11
60.337
 21
19.3815
  0
LINE
  8
0
 10
60.337
 20
19.3815
 11
60.069
 21
18.7815
  0
LINE
  8
0
 10
60.069
 20
18.7815
 11
72.8995
 21
18.7815
  0
LINE
  8
0
 10
72.8995
 20
18.7815
 11
72.67
 21
19.3815
  0
LINE
  8
0
 10
11.4725
 20
1.38158
 11
11.8545
 21
1.72574
  0
LINE
  8
0
 10
11.8545
 20
1.72574
 11
12.0795
 21
2.28252
  0
LINE
  8
0
 10
12.0795
 20
2.28252
 11
12.1534
 21
3.03906
  0
LINE
  8
0
 10
12.1534
 20
3.03906
 11
12.0835
 21
3.80423
  0
LINE
  8
0
 10
12.0835
 20
3.80423
 11
11.8703
 21
4.35938
  0
LINE
  8
0
 10
11.8703
 20
4.35938
 11
11.4966
 21
4.69872
  0
LINE
  8
0
 10
11.4966
 20
4.69872
 11
10.9614
 21
4.81058
  0
LINE
  8
0
 10
10.9614
 20
4.81058
 11
10.5727
 21
4.76355
  0
LINE
  8
0
 10
10.5727
 20
4.76355
 11
10.265
 21
4.62094
  0
LINE
  8
0
 10
10.265
 20
4.62094
 11
10.0328
 21
4.37808
  0
LINE
  8
0
 10
10.0328
 20
4.37808
 11
9.86961
 21
4.03569
  0
LINE
  8
0
 10
9.86961
 20
4.03569
 11
9.77321
 21
3.59126
  0
LINE
  8
0
 10
9.77321
 20
3.59126
 11
9.74113
 21
3.03514
  0
LINE
  8
0
 10
9.74113
 20
3.03514
 11
10.035
 21
1.71457
  0
LINE
  8
0
 10
10.035
 20
1.71457
 11
10.9335
 21
1.26591
  0
LINE
  8
0
 10
10.9335
 20
1.26591
 11
11.4725
 21
1.38158
  0
LINE
  8
0
 10
10.7945
 20
1.91843
 11
10.6892
 21
1.98965
  0
LINE
  8
0
 10
10.6892
 20
1.98965
 11
10.6111
 21
2.12213
  0
LINE
  8
0
 10
10.6111
 20
2.12213
 11
10.5539
 21
2.33307
  0
LINE
  8
0
 10
10.5539
 20
2.33307
 11
10.5199
 21
2.63486
  0
LINE
  8
0
 10
10.5199
 20
2.63486
 11
10.5084
 21
3.03902
  0
LINE
  8
0
 10
10.5084
 20
3.03902
 11
10.5193
 21
3.44687
  0
LINE
  8
0
 10
10.5193
 20
3.44687
 11
10.5516
 21
3.74802
  0
LINE
  8
0
 10
10.5516
 20
3.74802
 11
10.6075
 21
3.95705
  0
LINE
  8
0
 10
10.6075
 20
3.95705
 11
10.6866
 21
4.08966
  0
LINE
  8
0
 10
10.6866
 20
4.08966
 11
10.7959
 21
4.16191
  0
LINE
  8
0
 10
10.7959
 20
4.16191
 11
10.9543
 21
4.18712
  0
LINE
  8
0
 10
10.9543
 20
4.18712
 11
11.1026
 21
4.1624
  0
LINE
  8
0
 10
11.1026
 20
4.1624
 11
11.2064
 21
4.09134
  0
LINE
  8
0
 10
11.2064
 20
4.09134
 11
11.2834
 21
3.95912
  0
LINE
  8
0
 10
11.2834
 20
3.95912
 11
11.3395
 21
3.74911
  0
LINE
  8
0
 10
11.3395
 20
3.74911
 11
11.3727
 21
3.44708
  0
LINE
  8
0
 10
11.3727
 20
3.44708
 11
11.3839
 21
3.03903
  0
LINE
  8
0
 10
11.3839
 20
3.03903
 11
11.3724
 21
2.64536
  0
LINE
  8
0
 10
11.3724
 20
2.64536
 11
11.3383
 21
2.34608
  0
LINE
  8
0
 10
11.3383
 20
2.34608
 11
11.2805
 21
2.13269
  0
LINE
  8
0
 10
11.2805
 20
2.13269
 11
11.2003
 21
1.99507
  0
LINE
  8
0
 10
11.2003
 20
1.99507
 11
11.0935
 21
1.91971
  0
LINE
  8
0
 10
11.0935
 20
1.91971
 11
10.9447
 21
1.89371
  0
LINE
  8
0
 10
10.9447
 20
1.89371
 11
10.7945
 21
1.91843
  0
LINE
  8
0
 10
14.7981
 20
1.96422
 11
13.2812
 21
1.96422
  0
LINE
  8
0
 10
13.2812
 20
1.96422
 11
13.321
 21
2.03503
  0
LINE
  8
0
 10
13.321
 20
2.03503
 11
13.4351
 21
2.16928
  0
LINE
  8
0
 10
13.4351
 20
2.16928
 11
13.5757
 21
2.30095
  0
LINE
  8
0
 10
13.5757
 20
2.30095
 11
13.7332
 21
2.43333
  0
LINE
  8
0
 10
13.7332
 20
2.43333
 11
13.9014
 21
2.56758
  0
LINE
  8
0
 10
13.9014
 20
2.56758
 11
14.0762
 21
2.70634
  0
LINE
  8
0
 10
14.0762
 20
2.70634
 11
14.2473
 21
2.85342
  0
LINE
  8
0
 10
14.2473
 20
2.85342
 11
14.4035
 21
3.01202
  0
LINE
  8
0
 10
14.4035
 20
3.01202
 11
14.5392
 21
3.18466
  0
LINE
  8
0
 10
14.5392
 20
3.18466
 11
14.649
 21
3.37436
  0
LINE
  8
0
 10
14.649
 20
3.37436
 11
14.7219
 21
3.58549
  0
LINE
  8
0
 10
14.7219
 20
3.58549
 11
14.7463
 21
3.82201
  0
LINE
  8
0
 10
14.7463
 20
3.82201
 11
14.6706
 21
4.23671
  0
LINE
  8
0
 10
14.6706
 20
4.23671
 11
14.4398
 21
4.55197
  0
LINE
  8
0
 10
14.4398
 20
4.55197
 11
14.0691
 21
4.74669
  0
LINE
  8
0
 10
14.0691
 20
4.74669
 11
13.5754
 21
4.81038
  0
LINE
  8
0
 10
13.5754
 20
4.81038
 11
13.1117
 21
4.74716
  0
LINE
  8
0
 10
13.1117
 20
4.74716
 11
12.7511
 21
4.55455
  0
LINE
  8
0
 10
12.7511
 20
4.55455
 11
12.5063
 21
4.23877
  0
LINE
  8
0
 10
12.5063
 20
4.23877
 11
12.3713
 21
3.75941
  0
LINE
  8
0
 10
12.3713
 20
3.75941
 11
13.1459
 21
3.71561
  0
LINE
  8
0
 10
13.1459
 20
3.71561
 11
13.2074
 21
3.94884
  0
LINE
  8
0
 10
13.2074
 20
3.94884
 11
13.29
 21
4.07671
  0
LINE
  8
0
 10
13.29
 20
4.07671
 11
13.4097
 21
4.15166
  0
LINE
  8
0
 10
13.4097
 20
4.15166
 11
13.576
 21
4.17706
  0
LINE
  8
0
 10
13.576
 20
4.17706
 11
13.8702
 21
4.07953
  0
LINE
  8
0
 10
13.8702
 20
4.07953
 11
13.9678
 21
3.78821
  0
LINE
  8
0
 10
13.9678
 20
3.78821
 11
13.9366
 21
3.62958
  0
LINE
  8
0
 10
13.9366
 20
3.62958
 11
13.8377
 21
3.45831
  0
LINE
  8
0
 10
13.8377
 20
3.45831
 11
13.6495
 21
3.25427
  0
LINE
  8
0
 10
13.6495
 20
3.25427
 11
13.3529
 21
2.99623
  0
LINE
  8
0
 10
13.3529
 20
2.99623
 11
13.017
 21
2.70416
  0
LINE
  8
0
 10
13.017
 20
2.70416
 11
12.7415
 21
2.42172
  0
LINE
  8
0
 10
12.7415
 20
2.42172
 11
12.5241
 21
2.13998
  0
LINE
  8
0
 10
12.5241
 20
2.13998
 11
12.3579
 21
1.84175
  0
LINE
  8
0
 10
12.3579
 20
1.84175
 11
12.3579
 21
1.31595
  0
LINE
  8
0
 10
12.3579
 20
1.31595
 11
14.7981
 21
1.31595
  0
LINE
  8
0
 10
14.7981
 20
1.31595
 11
14.7981
 21
1.96422
  0
LINE
  8
0
 10
5.61806
 20
1.912
 11
4.85144
 21
1.912
  0
LINE
  8
0
 10
4.85144
 20
1.912
 11
4.85144
 21
4.76012
  0
LINE
  8
0
 10
4.85144
 20
4.76012
 11
4.1553
 21
4.76012
  0
LINE
  8
0
 10
4.1553
 20
4.76012
 11
3.28227
 21
4.19376
  0
LINE
  8
0
 10
3.28227
 20
4.19376
 11
3.28227
 21
3.55188
  0
LINE
  8
0
 10
3.28227
 20
3.55188
 11
4.08447
 21
4.0527
  0
LINE
  8
0
 10
4.08447
 20
4.0527
 11
4.08447
 21
1.912
  0
LINE
  8
0
 10
4.08447
 20
1.912
 11
3.25616
 21
1.912
  0
LINE
  8
0
 10
3.25616
 20
1.912
 11
3.25616
 21
1.31595
  0
LINE
  8
0
 10
3.25616
 20
1.31595
 11
5.61806
 21
1.31595
  0
LINE
  8
0
 10
5.61806
 20
1.31595
 11
5.61806
 21
1.912
  0
LINE
  8
0
 10
17.1757
 20
2.17039
 11
18.3791
 21
2.17039
  0
LINE
  8
0
 10
18.3791
 20
2.17039
 11
18.6758
 21
1.31595
  0
LINE
  8
0
 10
18.6758
 20
1.31595
 11
19.4758
 21
1.31595
  0
LINE
  8
0
 10
19.4758
 20
1.31595
 11
18.2242
 21
4.76012
  0
LINE
  8
0
 10
18.2242
 20
4.76012
 11
17.3282
 21
4.76012
  0
LINE
  8
0
 10
17.3282
 20
4.76012
 11
16.0718
 21
1.31595
  0
LINE
  8
0
 10
16.0718
 20
1.31595
 11
16.879
 21
1.31595
  0
LINE
  8
0
 10
16.879
 20
1.31595
 11
17.1757
 21
2.17039
  0
LINE
  8
0
 10
17.3667
 20
2.79729
 11
17.6337
 21
3.57739
  0
LINE
  8
0
 10
17.6337
 20
3.57739
 11
17.7527
 21
3.93314
  0
LINE
  8
0
 10
17.7527
 20
3.93314
 11
17.778
 21
4.01767
  0
LINE
  8
0
 10
17.778
 20
4.01767
 11
17.8806
 21
3.69286
  0
LINE
  8
0
 10
17.8806
 20
3.69286
 11
18.188
 21
2.79729
  0
LINE
  8
0
 10
18.188
 20
2.79729
 11
17.3667
 21
2.79729
  0
LINE
  8
0
 10
8.8208
 20
1.34917
 11
9.23129
 21
1.59583
  0
LINE
  8
0
 10
9.23129
 20
1.59583
 11
9.49178
 21
1.98265
  0
LINE
  8
0
 10
9.49178
 20
1.98265
 11
9.57779
 21
2.47867
  0
LINE
  8
0
 10
9.57779
 20
2.47867
 11
9.50346
 21
2.95358
  0
LINE
  8
0
 10
9.50346
 20
2.95358
 11
9.27797
 21
3.32153
  0
LINE
  8
0
 10
9.27797
 20
3.32153
 11
8.92628
 21
3.55602
  0
LINE
  8
0
 10
8.92628
 20
3.55602
 11
8.47836
 21
3.63341
  0
LINE
  8
0
 10
8.47836
 20
3.63341
 11
8.12796
 21
3.57721
  0
LINE
  8
0
 10
8.12796
 20
3.57721
 11
7.92882
 21
3.46005
  0
LINE
  8
0
 10
7.92882
 20
3.46005
 11
7.97432
 21
4.16405
  0
LINE
  8
0
 10
7.97432
 20
4.16405
 11
9.38252
 21
4.16405
  0
LINE
  8
0
 10
9.38252
 20
4.16405
 11
9.38252
 21
4.76012
  0
LINE
  8
0
 10
9.38252
 20
4.76012
 11
7.27518
 21
4.76012
  0
LINE
  8
0
 10
7.27518
 20
4.76012
 11
7.15274
 21
2.778
  0
LINE
  8
0
 10
7.15274
 20
2.778
 11
7.87384
 21
2.778
  0
LINE
  8
0
 10
7.87384
 20
2.778
 11
8.07945
 21
2.94356
  0
LINE
  8
0
 10
8.07945
 20
2.94356
 11
8.31046
 21
2.993
  0
LINE
  8
0
 10
8.31046
 20
2.993
 11
8.51355
 21
2.95717
  0
LINE
  8
0
 10
8.51355
 20
2.95717
 11
8.66322
 21
2.85165
  0
LINE
  8
0
 10
8.66322
 20
2.85165
 11
8.75809
 21
2.68527
  0
LINE
  8
0
 10
8.75809
 20
2.68527
 11
8.79066
 21
2.46465
  0
LINE
  8
0
 10
8.79066
 20
2.46465
 11
8.75594
 21
2.21732
  0
LINE
  8
0
 10
8.75594
 20
2.21732
 11
8.65515
 21
2.04152
  0
LINE
  8
0
 10
8.65515
 20
2.04152
 11
8.49988
 21
1.93484
  0
LINE
  8
0
 10
8.49988
 20
1.93484
 11
8.29419
 21
1.89833
  0
LINE
  8
0
 10
8.29419
 20
1.89833
 11
8.12529
 21
1.92061
  0
LINE
  8
0
 10
8.12529
 20
1.92061
 11
7.99138
 21
1.98569
  0
LINE
  8
0
 10
7.99138
 20
1.98569
 11
7.89117
 21
2.09805
  0
LINE
  8
0
 10
7.89117
 20
2.09805
 11
7.80852
 21
2.30887
  0
LINE
  8
0
 10
7.80852
 20
2.30887
 11
7.04056
 21
2.246
  0
LINE
  8
0
 10
7.04056
 20
2.246
 11
7.19356
 21
1.79695
  0
LINE
  8
0
 10
7.19356
 20
1.79695
 11
7.45161
 21
1.5045
  0
LINE
  8
0
 10
7.45161
 20
1.5045
 11
7.82083
 21
1.32655
  0
LINE
  8
0
 10
7.82083
 20
1.32655
 11
8.28886
 21
1.26801
  0
LINE
  8
0
 10
8.28886
 20
1.26801
 11
8.8208
 21
1.34917
  0
LINE
  8
0
 10
6.70598
 20
2.13985
 11
5.92004
 21
2.13985
  0
LINE
  8
0
 10
5.92004
 20
2.13985
 11
5.92004
 21
1.31595
  0
LINE
  8
0
 10
5.92004
 20
1.31595
 11
6.70598
 21
1.31595
  0
LINE
  8
0
 10
6.70598
 20
1.31595
 11
6.70598
 21
2.13985
  0
ENDSEC
  0
SECTION
  2
OBJECTS
  0
DICTIONARY
  0
ENDSEC
  0
EOF
