  0
SECTION
  2
BLOCKS
  0
ENDSEC
  0
SECTION
  2
ENTITIES
  0
LINE
  8
0
 10
103.735
 20
8.54073
 11
101.702
 21
8.72063
  0
LINE
  8
0
 10
101.702
 20
8.72063
 11
99.6706
 21
8.93939
  0
LINE
  8
0
 10
99.6706
 20
8.93939
 11
97.6399
 21
9.23592
  0
LINE
  8
0
 10
97.6399
 20
9.23592
 11
95.6105
 21
9.64603
  0
LINE
  8
0
 10
95.6105
 20
9.64603
 11
93.5829
 21
10.2023
  0
LINE
  8
0
 10
93.5829
 20
10.2023
 11
91.5586
 21
10.9846
  0
LINE
  8
0
 10
91.5586
 20
10.9846
 11
89.539
 21
12.2119
  0
LINE
  8
0
 10
89.539
 20
12.2119
 11
87.5186
 21
14.3457
  0
LINE
  8
0
 10
87.5186
 20
14.3457
 11
85.4918
 21
17.9869
  0
LINE
  8
0
 10
85.4918
 20
17.9869
 11
83.4602
 21
23.2819
  0
LINE
  8
0
 10
83.4602
 20
23.2819
 11
81.4246
 21
29.0498
  0
LINE
  8
0
 10
81.4246
 20
29.0498
 11
79.3599
 21
32.7836
  0
LINE
  8
0
 10
79.3599
 20
32.7836
 11
77.2353
 21
32.2602
  0
LINE
  8
0
 10
77.2353
 20
32.2602
 11
75.1847
 21
27.8654
  0
LINE
  8
0
 10
75.1847
 20
27.8654
 11
73.1504
 21
22.1041
  0
LINE
  8
0
 10
73.1504
 20
22.1041
 11
71.12
 21
17.2975
  0
LINE
  8
0
 10
71.12
 20
17.2975
 11
69.0959
 21
14.2403
  0
LINE
  8
0
 10
69.0959
 20
14.2403
 11
67.0768
 21
12.5249
  0
LINE
  8
0
 10
67.0768
 20
12.5249
 11
65.0547
 21
11.4959
  0
LINE
  8
0
 10
65.0547
 20
11.4959
 11
63.0278
 21
10.7574
  0
LINE
  8
0
 10
63.0278
 20
10.7574
 11
60.9982
 21
10.1767
  0
LINE
  8
0
 10
60.9982
 20
10.1767
 11
58.9684
 21
9.72156
  0
LINE
  8
0
 10
58.9684
 20
9.72156
 11
56.9375
 21
9.36508
  0
LINE
  8
0
 10
56.9375
 20
9.36508
 11
54.9049
 21
9.06828
  0
LINE
  8
0
 10
54.9049
 20
9.06828
 11
52.8713
 21
8.79231
  0
LINE
  8
0
 10
52.8713
 20
8.79231
 11
50.8388
 21
8.5405
  0
LINE
  8
0
 10
50.8388
 20
8.5405
 11
48.8064
 21
8.32166
  0
LINE
  8
0
 10
48.8064
 20
8.32166
 11
46.774
 21
8.15079
  0
LINE
  8
0
 10
46.774
 20
8.15079
 11
44.742
 21
8.02789
  0
LINE
  8
0
 10
44.742
 20
8.02789
 11
42.7083
 21
7.93491
  0
LINE
  8
0
 10
42.7083
 20
7.93491
 11
40.6738
 21
7.83289
  0
LINE
  8
0
 10
40.6738
 20
7.83289
 11
38.6392
 21
7.70984
  0
LINE
  8
0
 10
38.6392
 20
7.70984
 11
36.6052
 21
7.56882
  0
LINE
  8
0
 10
36.6052
 20
7.56882
 11
34.5715
 21
7.43384
  0
LINE
  8
0
 10
34.5715
 20
7.43384
 11
32.5391
 21
7.31992
  0
LINE
  8
0
 10
32.5391
 20
7.31992
 11
30.5071
 21
7.25099
  0
LINE
  8
0
 10
30.5071
 20
7.25099
 11
28.4743
 21
7.23
  0
LINE
  8
0
 10
28.4743
 20
7.23
 11
26.4418
 21
7.245
  0
LINE
  8
0
 10
26.4418
 20
7.245
 11
24.4078
 21
7.27499
  0
LINE
  8
0
 10
24.4078
 20
7.27499
 11
22.3735
 21
7.299
  0
LINE
  8
0
 10
22.3735
 20
7.299
 11
20.3392
 21
7.31099
  0
LINE
  8
0
 10
20.3392
 20
7.31099
 11
18.3049
 21
7.31099
  0
LINE
  8
0
 10
18.3049
 20
7.31099
 11
16.2705
 21
7.299
  0
LINE
  8
0
 10
16.2705
 20
7.299
 11
14.2359
 21
7.27499
  0
LINE
  8
0
 10
14.2359
 20
7.27499
 11
12.2012
 21
7.22696
  0
LINE
  8
0
 10
12.2012
 20
7.22696
 11
10.1669
 21
7.15794
  0
LINE
  8
0
 10
10.1669
 20
7.15794
 11
8.13316
 21
7.08595
  0
LINE
  8
0
 10
8.13316
 20
7.08595
 11
6.09909
 21
7.01994
  0
LINE
  8
0
 10
6.09909
 20
7.01994
 11
4.06415
 21
6.94492
  0
LINE
  8
0
 10
4.06415
 20
6.94492
 11
2.02811
 21
6.82178
  0
LINE
  8
0
 10
2.02811
 20
6.82178
 11
-0.0749969
 21
6.62325
  0
LINE
  8
0
 10
-0.0749969
 20
6.62325
 11
-0.0749969
 21
-0.0749969
  0
LINE
  8
0
 10
-0.0749969
 20
-0.0749969
 11
17.925
 21
-0.0749969
  0
LINE
  8
0
 10
17.925
 20
-0.0749969
 11
17.925
 21
-3.075
  0
LINE
  8
0
 10
17.925
 20
-3.075
 11
30.075
 21
-3.075
  0
LINE
  8
0
 10
30.075
 20
-3.075
 11
30.075
 21
-0.0749969
  0
LINE
  8
0
 10
30.075
 20
-0.0749969
 11
89.925
 21
-0.0749969
  0
LINE
  8
0
 10
89.925
 20
-0.0749969
 11
89.925
 21
-3.075
  0
LINE
  8
0
 10
89.925
 20
-3.075
 11
102.075
 21
-3.075
  0
LINE
  8
0
 10
102.075
 20
-3.075
 11
102.075
 21
-0.0749969
  0
LINE
  8
0
 10
102.075
 20
-0.0749969
 11
120.075
 21
-0.0749969
  0
LINE
  8
0
 10
120.075
 20
-0.0749969
 11
120.075
 21
6.99107
  0
LINE
  8
0
 10
120.075
 20
6.99107
 11
117.976
 21
7.32233
  0
LINE
  8
0
 10
117.976
 20
7.32233
 11
115.939
 21
7.55365
  0
LINE
  8
0
 10
115.939
 20
7.55365
 11
113.904
 21
7.71878
  0
LINE
  8
0
 10
113.904
 20
7.71878
 11
111.87
 21
7.86877
  0
LINE
  8
0
 10
111.87
 20
7.86877
 11
109.837
 21
8.02475
  0
LINE
  8
0
 10
109.837
 20
8.02475
 11
107.803
 21
8.19275
  0
LINE
  8
0
 10
107.803
 20
8.19275
 11
105.769
 21
8.36972
  0
LINE
  8
0
 10
105.769
 20
8.36972
 11
103.735
 21
8.54073
  0
ENDSEC
  0
SECTION
  2
OBJECTS
  0
DICTIONARY
  0
ENDSEC
  0
EOF
