  0
SECTION
  2
BLOCKS
  0
ENDSEC
  0
SECTION
  2
ENTITIES
  0
LINE
  8
0
 10
-7.0159
 20
65.6992
 11
-7.7168
 21
65.6992
  0
LINE
  8
0
 10
-7.7168
 20
65.6992
 11
-7.7168
 21
68.3032
  0
LINE
  8
0
 10
-7.7168
 20
68.3032
 11
-8.35881
 21
68.3032
  0
LINE
  8
0
 10
-8.35881
 20
68.3032
 11
-9.16003
 21
67.7834
  0
LINE
  8
0
 10
-9.16003
 20
67.7834
 11
-9.16003
 21
67.1865
  0
LINE
  8
0
 10
-9.16003
 20
67.1865
 11
-8.42659
 21
67.6444
  0
LINE
  8
0
 10
-8.42659
 20
67.6444
 11
-8.42659
 21
65.6992
  0
LINE
  8
0
 10
-8.42659
 20
65.6992
 11
-9.1839
 21
65.6992
  0
LINE
  8
0
 10
-9.1839
 20
65.6992
 11
-9.1839
 21
65.1457
  0
LINE
  8
0
 10
-9.1839
 20
65.1457
 11
-7.0159
 21
65.1457
  0
LINE
  8
0
 10
-7.0159
 20
65.1457
 11
-7.0159
 21
65.6992
  0
LINE
  8
0
 10
-10.124
 20
65.1762
 11
-9.74721
 21
65.4026
  0
LINE
  8
0
 10
-9.74721
 20
65.4026
 11
-9.50798
 21
65.7579
  0
LINE
  8
0
 10
-9.50798
 20
65.7579
 11
-9.42906
 21
66.213
  0
LINE
  8
0
 10
-9.42906
 20
66.213
 11
-9.49727
 21
66.6487
  0
LINE
  8
0
 10
-9.49727
 20
66.6487
 11
-9.70436
 21
66.9867
  0
LINE
  8
0
 10
-9.70436
 20
66.9867
 11
-10.0275
 21
67.2021
  0
LINE
  8
0
 10
-10.0275
 20
67.2021
 11
-10.4386
 21
67.2731
  0
LINE
  8
0
 10
-10.4386
 20
67.2731
 11
-10.7604
 21
67.2215
  0
LINE
  8
0
 10
-10.7604
 20
67.2215
 11
-10.9362
 21
67.1181
  0
LINE
  8
0
 10
-10.9362
 20
67.1181
 11
-10.8954
 21
67.7496
  0
LINE
  8
0
 10
-10.8954
 20
67.7496
 11
-9.60767
 21
67.7496
  0
LINE
  8
0
 10
-9.60767
 20
67.7496
 11
-9.60767
 21
68.3032
  0
LINE
  8
0
 10
-9.60767
 20
68.3032
 11
-11.5427
 21
68.3032
  0
LINE
  8
0
 10
-11.5427
 20
68.3032
 11
-11.6552
 21
66.4824
  0
LINE
  8
0
 10
-11.6552
 20
66.4824
 11
-10.9898
 21
66.4824
  0
LINE
  8
0
 10
-10.9898
 20
66.4824
 11
-10.8014
 21
66.6341
  0
LINE
  8
0
 10
-10.8014
 20
66.6341
 11
-10.592
 21
66.6789
  0
LINE
  8
0
 10
-10.592
 20
66.6789
 11
-10.4081
 21
66.6464
  0
LINE
  8
0
 10
-10.4081
 20
66.6464
 11
-10.2728
 21
66.5511
  0
LINE
  8
0
 10
-10.2728
 20
66.5511
 11
-10.187
 21
66.4005
  0
LINE
  8
0
 10
-10.187
 20
66.4005
 11
-10.1574
 21
66.2002
  0
LINE
  8
0
 10
-10.1574
 20
66.2002
 11
-10.1889
 21
65.9755
  0
LINE
  8
0
 10
-10.1889
 20
65.9755
 11
-10.2802
 21
65.8163
  0
LINE
  8
0
 10
-10.2802
 20
65.8163
 11
-10.4206
 21
65.7198
  0
LINE
  8
0
 10
-10.4206
 20
65.7198
 11
-10.6071
 21
65.6868
  0
LINE
  8
0
 10
-10.6071
 20
65.6868
 11
-10.7601
 21
65.7069
  0
LINE
  8
0
 10
-10.7601
 20
65.7069
 11
-10.8812
 21
65.7658
  0
LINE
  8
0
 10
-10.8812
 20
65.7658
 11
-10.9718
 21
65.8673
  0
LINE
  8
0
 10
-10.9718
 20
65.8673
 11
-11.0482
 21
66.0623
  0
LINE
  8
0
 10
-11.0482
 20
66.0623
 11
-11.759
 21
66.0041
  0
LINE
  8
0
 10
-11.759
 20
66.0041
 11
-11.6171
 21
65.5875
  0
LINE
  8
0
 10
-11.6171
 20
65.5875
 11
-11.38
 21
65.3188
  0
LINE
  8
0
 10
-11.38
 20
65.3188
 11
-11.041
 21
65.1555
  0
LINE
  8
0
 10
-11.041
 20
65.1555
 11
-10.6118
 21
65.1018
  0
LINE
  8
0
 10
-10.6118
 20
65.1018
 11
-10.124
 21
65.1762
  0
LINE
  8
0
 10
-13.0495
 20
65.6992
 11
-13.7504
 21
65.6992
  0
LINE
  8
0
 10
-13.7504
 20
65.6992
 11
-13.7504
 21
68.3032
  0
LINE
  8
0
 10
-13.7504
 20
68.3032
 11
-14.3924
 21
68.3032
  0
LINE
  8
0
 10
-14.3924
 20
68.3032
 11
-15.1936
 21
67.7834
  0
LINE
  8
0
 10
-15.1936
 20
67.7834
 11
-15.1936
 21
67.1865
  0
LINE
  8
0
 10
-15.1936
 20
67.1865
 11
-14.4602
 21
67.6444
  0
LINE
  8
0
 10
-14.4602
 20
67.6444
 11
-14.4602
 21
65.6992
  0
LINE
  8
0
 10
-14.4602
 20
65.6992
 11
-15.2175
 21
65.6992
  0
LINE
  8
0
 10
-15.2175
 20
65.6992
 11
-15.2175
 21
65.1457
  0
LINE
  8
0
 10
-15.2175
 20
65.1457
 11
-13.0495
 21
65.1457
  0
LINE
  8
0
 10
-13.0495
 20
65.1457
 11
-13.0495
 21
65.6992
  0
LINE
  8
0
 10
-1
 20
67.1667
 11
-6
 21
67.1667
  0
LINE
  8
0
 10
-6
 20
67.1667
 11
-6
 21
66.1667
  0
LINE
  8
0
 10
-6
 20
66.1667
 11
-1
 21
66.1667
  0
LINE
  8
0
 10
-1
 20
66.1667
 11
-1
 21
67.1667
  0
LINE
  8
0
 10
-12.0548
 20
65.9075
 11
-12.7819
 21
65.9075
  0
LINE
  8
0
 10
-12.7819
 20
65.9075
 11
-12.7819
 21
65.1457
  0
LINE
  8
0
 10
-12.7819
 20
65.1457
 11
-12.0548
 21
65.1457
  0
LINE
  8
0
 10
-12.0548
 20
65.1457
 11
-12.0548
 21
65.9075
  0
LINE
  8
0
 10
-20.4846
 20
60.7702
 11
-20.0314
 21
60.9569
  0
LINE
  8
0
 10
-20.0314
 20
60.9569
 11
-19.5538
 21
61.065
  0
LINE
  8
0
 10
-19.5538
 20
61.065
 11
-19.0263
 21
61.1011
  0
LINE
  8
0
 10
-19.0263
 20
61.1011
 11
-18.5019
 21
61.0657
  0
LINE
  8
0
 10
-18.5019
 20
61.0657
 11
-18.0293
 21
60.9599
  0
LINE
  8
0
 10
-18.0293
 20
60.9599
 11
-17.5766
 21
60.774
  0
LINE
  8
0
 10
-17.5766
 20
60.774
 11
-17.0335
 21
60.4509
  0
LINE
  8
0
 10
-17.0335
 20
60.4509
 11
-17.0335
 21
61.1389
  0
LINE
  8
0
 10
-17.0335
 20
61.1389
 11
-17.5235
 21
61.4318
  0
LINE
  8
0
 10
-17.5235
 20
61.4318
 11
-17.9902
 21
61.6213
  0
LINE
  8
0
 10
-17.9902
 20
61.6213
 11
-18.4828
 21
61.729
  0
LINE
  8
0
 10
-18.4828
 20
61.729
 11
-19.0284
 21
61.7648
  0
LINE
  8
0
 10
-19.0284
 20
61.7648
 11
-19.571
 21
61.729
  0
LINE
  8
0
 10
-19.571
 20
61.729
 11
-20.0625
 21
61.6213
  0
LINE
  8
0
 10
-20.0625
 20
61.6213
 11
-20.5287
 21
61.4318
  0
LINE
  8
0
 10
-20.5287
 20
61.4318
 11
-21.0171
 21
61.1388
  0
LINE
  8
0
 10
-21.0171
 20
61.1388
 11
-21.0171
 21
60.4505
  0
LINE
  8
0
 10
-21.0171
 20
60.4505
 11
-20.4846
 21
60.7702
  0
LINE
  8
0
 10
-17.8981
 20
58.3357
 11
-18.6305
 21
58.59
  0
LINE
  8
0
 10
-18.6305
 20
58.59
 11
-18.6305
 21
59.6114
  0
LINE
  8
0
 10
-18.6305
 20
59.6114
 11
-17.8981
 21
59.8657
  0
LINE
  8
0
 10
-17.8981
 20
59.8657
 11
-17.8981
 21
60.5666
  0
LINE
  8
0
 10
-17.8981
 20
60.5666
 11
-20.8646
 21
59.4887
  0
LINE
  8
0
 10
-20.8646
 20
59.4887
 11
-20.8646
 21
58.7107
  0
LINE
  8
0
 10
-20.8646
 20
58.7107
 11
-17.8981
 21
57.6286
  0
LINE
  8
0
 10
-17.8981
 20
57.6286
 11
-17.8981
 21
58.3357
  0
LINE
  8
0
 10
-19.8414
 20
58.9843
 11
-20.1464
 21
59.0863
  0
LINE
  8
0
 10
-20.1464
 20
59.0863
 11
-20.1967
 21
59.1013
  0
LINE
  8
0
 10
-20.1967
 20
59.1013
 11
-19.9404
 21
59.1824
  0
LINE
  8
0
 10
-19.9404
 20
59.1824
 11
-19.1821
 21
59.4426
  0
LINE
  8
0
 10
-19.1821
 20
59.4426
 11
-19.1821
 21
58.7587
  0
LINE
  8
0
 10
-19.1821
 20
58.7587
 11
-19.8414
 21
58.9843
  0
LINE
  8
0
 10
-18.4797
 20
56.4347
 11
-17.9861
 21
56.5433
  0
LINE
  8
0
 10
-17.9861
 20
56.5433
 11
-17.5204
 21
56.733
  0
LINE
  8
0
 10
-17.5204
 20
56.733
 11
-17.0335
 21
57.0246
  0
LINE
  8
0
 10
-17.0335
 20
57.0246
 11
-17.0335
 21
57.7125
  0
LINE
  8
0
 10
-17.0335
 20
57.7125
 11
-17.5756
 21
57.3908
  0
LINE
  8
0
 10
-17.5756
 20
57.3908
 11
-18.0293
 21
57.2046
  0
LINE
  8
0
 10
-18.0293
 20
57.2046
 11
-18.5029
 21
57.098
  0
LINE
  8
0
 10
-18.5029
 20
57.098
 11
-19.0263
 21
57.0624
  0
LINE
  8
0
 10
-19.0263
 20
57.0624
 11
-19.5521
 21
57.0983
  0
LINE
  8
0
 10
-19.5521
 20
57.0983
 11
-20.0284
 21
57.2056
  0
LINE
  8
0
 10
-20.0284
 20
57.2056
 11
-20.4819
 21
57.3921
  0
LINE
  8
0
 10
-20.4819
 20
57.3921
 11
-21.0171
 21
57.7129
  0
LINE
  8
0
 10
-21.0171
 20
57.7129
 11
-21.0171
 21
57.0247
  0
LINE
  8
0
 10
-21.0171
 20
57.0247
 11
-20.5321
 21
56.733
  0
LINE
  8
0
 10
-20.5321
 20
56.733
 11
-20.0676
 21
56.5433
  0
LINE
  8
0
 10
-20.0676
 20
56.5433
 11
-19.5753
 21
56.4348
  0
LINE
  8
0
 10
-19.5753
 20
56.4348
 11
-19.0284
 21
56.3987
  0
LINE
  8
0
 10
-19.0284
 20
56.3987
 11
-18.4797
 21
56.4347
  0
LINE
  8
0
 10
-20.3007
 20
53.5477
 11
-17.8981
 21
53.5477
  0
LINE
  8
0
 10
-17.8981
 20
53.5477
 11
-17.8981
 21
54.2478
  0
LINE
  8
0
 10
-17.8981
 20
54.2478
 11
-20.3007
 21
54.2478
  0
LINE
  8
0
 10
-20.3007
 20
54.2478
 11
-20.3007
 21
55.1755
  0
LINE
  8
0
 10
-20.3007
 20
55.1755
 11
-20.8646
 21
55.1755
  0
LINE
  8
0
 10
-20.8646
 20
55.1755
 11
-20.8646
 21
52.622
  0
LINE
  8
0
 10
-20.8646
 20
52.622
 11
-20.3007
 21
52.622
  0
LINE
  8
0
 10
-20.3007
 20
52.622
 11
-20.3007
 21
53.5477
  0
LINE
  8
0
 10
-17.8981
 20
50.5484
 11
-19.6397
 21
50.5484
  0
LINE
  8
0
 10
-19.6397
 20
50.5484
 11
-19.8689
 21
50.5392
  0
LINE
  8
0
 10
-19.8689
 20
50.5392
 11
-19.9269
 21
50.5337
  0
LINE
  8
0
 10
-19.9269
 20
50.5337
 11
-17.8981
 21
51.6818
  0
LINE
  8
0
 10
-17.8981
 20
51.6818
 11
-17.8981
 21
52.4649
  0
LINE
  8
0
 10
-17.8981
 20
52.4649
 11
-20.8646
 21
52.4649
  0
LINE
  8
0
 10
-20.8646
 20
52.4649
 11
-20.8646
 21
51.8318
  0
LINE
  8
0
 10
-20.8646
 20
51.8318
 11
-19.1475
 21
51.8318
  0
LINE
  8
0
 10
-19.1475
 20
51.8318
 11
-18.8792
 21
51.8411
  0
LINE
  8
0
 10
-18.8792
 20
51.8411
 11
-18.8154
 21
51.847
  0
LINE
  8
0
 10
-18.8154
 20
51.847
 11
-20.8646
 21
50.6801
  0
LINE
  8
0
 10
-20.8646
 20
50.6801
 11
-20.8646
 21
49.9154
  0
LINE
  8
0
 10
-20.8646
 20
49.9154
 11
-17.8981
 21
49.9154
  0
LINE
  8
0
 10
-17.8981
 20
49.9154
 11
-17.8981
 21
50.5484
  0
LINE
  8
0
 10
-17.8981
 20
49.6389
 11
-18.462
 21
49.6389
  0
LINE
  8
0
 10
-18.462
 20
49.6389
 11
-18.462
 21
47.9016
  0
LINE
  8
0
 10
-18.462
 20
47.9016
 11
-19.1167
 21
47.9016
  0
LINE
  8
0
 10
-19.1167
 20
47.9016
 11
-19.1167
 21
49.4314
  0
LINE
  8
0
 10
-19.1167
 20
49.4314
 11
-19.6806
 21
49.4314
  0
LINE
  8
0
 10
-19.6806
 20
49.4314
 11
-19.6806
 21
47.9016
  0
LINE
  8
0
 10
-19.6806
 20
47.9016
 11
-20.3007
 21
47.9016
  0
LINE
  8
0
 10
-20.3007
 20
47.9016
 11
-20.3007
 21
49.5555
  0
LINE
  8
0
 10
-20.3007
 20
49.5555
 11
-20.8646
 21
49.5555
  0
LINE
  8
0
 10
-20.8646
 20
49.5555
 11
-20.8646
 21
47.2014
  0
LINE
  8
0
 10
-20.8646
 20
47.2014
 11
-17.8981
 21
47.2014
  0
LINE
  8
0
 10
-17.8981
 20
47.2014
 11
-17.8981
 21
49.6389
  0
LINE
  8
0
 10
-17.8981
 20
44.9631
 11
-18.9865
 21
44.9631
  0
LINE
  8
0
 10
-18.9865
 20
44.9631
 11
-18.9865
 21
45.5889
  0
LINE
  8
0
 10
-18.9865
 20
45.5889
 11
-17.8981
 21
46.2542
  0
LINE
  8
0
 10
-17.8981
 20
46.2542
 11
-17.8981
 21
47.0493
  0
LINE
  8
0
 10
-17.8981
 20
47.0493
 11
-19.1289
 21
46.2571
  0
LINE
  8
0
 10
-19.1289
 20
46.2571
 11
-19.216
 21
46.4704
  0
LINE
  8
0
 10
-19.216
 20
46.4704
 11
-19.409
 21
46.6843
  0
LINE
  8
0
 10
-19.409
 20
46.6843
 11
-19.6636
 21
46.8206
  0
LINE
  8
0
 10
-19.6636
 20
46.8206
 11
-19.9611
 21
46.866
  0
LINE
  8
0
 10
-19.9611
 20
46.866
 11
-20.3462
 21
46.7924
  0
LINE
  8
0
 10
-20.3462
 20
46.7924
 11
-20.6336
 21
46.5689
  0
LINE
  8
0
 10
-20.6336
 20
46.5689
 11
-20.808
 21
46.2137
  0
LINE
  8
0
 10
-20.808
 20
46.2137
 11
-20.8646
 21
45.7482
  0
LINE
  8
0
 10
-20.8646
 20
45.7482
 11
-20.8646
 21
44.2629
  0
LINE
  8
0
 10
-20.8646
 20
44.2629
 11
-17.8981
 21
44.2629
  0
LINE
  8
0
 10
-17.8981
 20
44.2629
 11
-17.8981
 21
44.9631
  0
LINE
  8
0
 10
-20.2987
 20
44.9631
 11
-20.2987
 21
45.6757
  0
LINE
  8
0
 10
-20.2987
 20
45.6757
 11
-20.2032
 21
46.0424
  0
LINE
  8
0
 10
-20.2032
 20
46.0424
 11
-19.9298
 21
46.1591
  0
LINE
  8
0
 10
-19.9298
 20
46.1591
 11
-19.773
 21
46.1312
  0
LINE
  8
0
 10
-19.773
 20
46.1312
 11
-19.6549
 21
46.0469
  0
LINE
  8
0
 10
-19.6549
 20
46.0469
 11
-19.5793
 21
45.9047
  0
LINE
  8
0
 10
-19.5793
 20
45.9047
 11
-19.5524
 21
45.6952
  0
LINE
  8
0
 10
-19.5524
 20
45.6952
 11
-19.5524
 21
44.9631
  0
LINE
  8
0
 10
-19.5524
 20
44.9631
 11
-20.2987
 21
44.9631
  0
LINE
  8
0
 10
-17.8981
 20
42.0246
 11
-18.9865
 21
42.0246
  0
LINE
  8
0
 10
-18.9865
 20
42.0246
 11
-18.9865
 21
42.6504
  0
LINE
  8
0
 10
-18.9865
 20
42.6504
 11
-17.8981
 21
43.3157
  0
LINE
  8
0
 10
-17.8981
 20
43.3157
 11
-17.8981
 21
44.1108
  0
LINE
  8
0
 10
-17.8981
 20
44.1108
 11
-19.1289
 21
43.3186
  0
LINE
  8
0
 10
-19.1289
 20
43.3186
 11
-19.216
 21
43.5319
  0
LINE
  8
0
 10
-19.216
 20
43.5319
 11
-19.409
 21
43.7458
  0
LINE
  8
0
 10
-19.409
 20
43.7458
 11
-19.6636
 21
43.8821
  0
LINE
  8
0
 10
-19.6636
 20
43.8821
 11
-19.9611
 21
43.9274
  0
LINE
  8
0
 10
-19.9611
 20
43.9274
 11
-20.3462
 21
43.8539
  0
LINE
  8
0
 10
-20.3462
 20
43.8539
 11
-20.6336
 21
43.6304
  0
LINE
  8
0
 10
-20.6336
 20
43.6304
 11
-20.808
 21
43.2752
  0
LINE
  8
0
 10
-20.808
 20
43.2752
 11
-20.8646
 21
42.8096
  0
LINE
  8
0
 10
-20.8646
 20
42.8096
 11
-20.8646
 21
41.3244
  0
LINE
  8
0
 10
-20.8646
 20
41.3244
 11
-17.8981
 21
41.3244
  0
LINE
  8
0
 10
-17.8981
 20
41.3244
 11
-17.8981
 21
42.0246
  0
LINE
  8
0
 10
-20.2987
 20
42.0246
 11
-20.2987
 21
42.7372
  0
LINE
  8
0
 10
-20.2987
 20
42.7372
 11
-20.2032
 21
43.1039
  0
LINE
  8
0
 10
-20.2032
 20
43.1039
 11
-19.9298
 21
43.2206
  0
LINE
  8
0
 10
-19.9298
 20
43.2206
 11
-19.773
 21
43.1927
  0
LINE
  8
0
 10
-19.773
 20
43.1927
 11
-19.6549
 21
43.1084
  0
LINE
  8
0
 10
-19.6549
 20
43.1084
 11
-19.5793
 21
42.9662
  0
LINE
  8
0
 10
-19.5793
 20
42.9662
 11
-19.5524
 21
42.7567
  0
LINE
  8
0
 10
-19.5524
 20
42.7567
 11
-19.5524
 21
42.0246
  0
LINE
  8
0
 10
-19.5524
 20
42.0246
 11
-20.2987
 21
42.0246
  0
LINE
  8
0
 10
-7.71019
 20
38.5096
 11
-7.33334
 21
38.736
  0
LINE
  8
0
 10
-7.33334
 20
38.736
 11
-7.09415
 21
39.0912
  0
LINE
  8
0
 10
-7.09415
 20
39.0912
 11
-7.01523
 21
39.5463
  0
LINE
  8
0
 10
-7.01523
 20
39.5463
 11
-7.08342
 21
39.9821
  0
LINE
  8
0
 10
-7.08342
 20
39.9821
 11
-7.29053
 21
40.32
  0
LINE
  8
0
 10
-7.29053
 20
40.32
 11
-7.61362
 21
40.5354
  0
LINE
  8
0
 10
-7.61362
 20
40.5354
 11
-8.02473
 21
40.6065
  0
LINE
  8
0
 10
-8.02473
 20
40.6065
 11
-8.3466
 21
40.5548
  0
LINE
  8
0
 10
-8.3466
 20
40.5548
 11
-8.5224
 21
40.4514
  0
LINE
  8
0
 10
-8.5224
 20
40.4514
 11
-8.48158
 21
41.083
  0
LINE
  8
0
 10
-8.48158
 20
41.083
 11
-7.19382
 21
41.083
  0
LINE
  8
0
 10
-7.19382
 20
41.083
 11
-7.19382
 21
41.6365
  0
LINE
  8
0
 10
-7.19382
 20
41.6365
 11
-9.12885
 21
41.6365
  0
LINE
  8
0
 10
-9.12885
 20
41.6365
 11
-9.24132
 21
39.8157
  0
LINE
  8
0
 10
-9.24132
 20
39.8157
 11
-8.57596
 21
39.8157
  0
LINE
  8
0
 10
-8.57596
 20
39.8157
 11
-8.38759
 21
39.9674
  0
LINE
  8
0
 10
-8.38759
 20
39.9674
 11
-8.17821
 21
40.0122
  0
LINE
  8
0
 10
-8.17821
 20
40.0122
 11
-7.99428
 21
39.9798
  0
LINE
  8
0
 10
-7.99428
 20
39.9798
 11
-7.85901
 21
39.8844
  0
LINE
  8
0
 10
-7.85901
 20
39.8844
 11
-7.77313
 21
39.7338
  0
LINE
  8
0
 10
-7.77313
 20
39.7338
 11
-7.74356
 21
39.5335
  0
LINE
  8
0
 10
-7.74356
 20
39.5335
 11
-7.77512
 21
39.3088
  0
LINE
  8
0
 10
-7.77512
 20
39.3088
 11
-7.86636
 21
39.1497
  0
LINE
  8
0
 10
-7.86636
 20
39.1497
 11
-8.00676
 21
39.0532
  0
LINE
  8
0
 10
-8.00676
 20
39.0532
 11
-8.19324
 21
39.0201
  0
LINE
  8
0
 10
-8.19324
 20
39.0201
 11
-8.34628
 21
39.0403
  0
LINE
  8
0
 10
-8.34628
 20
39.0403
 11
-8.46738
 21
39.0991
  0
LINE
  8
0
 10
-8.46738
 20
39.0991
 11
-8.55791
 21
39.2006
  0
LINE
  8
0
 10
-8.55791
 20
39.2006
 11
-8.63437
 21
39.3956
  0
LINE
  8
0
 10
-8.63437
 20
39.3956
 11
-9.34515
 21
39.3374
  0
LINE
  8
0
 10
-9.34515
 20
39.3374
 11
-9.20322
 21
38.9209
  0
LINE
  8
0
 10
-9.20322
 20
38.9209
 11
-8.96614
 21
38.6522
  0
LINE
  8
0
 10
-8.96614
 20
38.6522
 11
-8.62715
 21
38.4888
  0
LINE
  8
0
 10
-8.62715
 20
38.4888
 11
-8.19795
 21
38.4351
  0
LINE
  8
0
 10
-8.19795
 20
38.4351
 11
-7.71019
 21
38.5096
  0
LINE
  8
0
 10
-10.6356
 20
39.0325
 11
-11.3365
 21
39.0325
  0
LINE
  8
0
 10
-11.3365
 20
39.0325
 11
-11.3365
 21
41.6365
  0
LINE
  8
0
 10
-11.3365
 20
41.6365
 11
-11.9785
 21
41.6365
  0
LINE
  8
0
 10
-11.9785
 20
41.6365
 11
-12.7798
 21
41.1168
  0
LINE
  8
0
 10
-12.7798
 20
41.1168
 11
-12.7798
 21
40.5199
  0
LINE
  8
0
 10
-12.7798
 20
40.5199
 11
-12.0463
 21
40.9777
  0
LINE
  8
0
 10
-12.0463
 20
40.9777
 11
-12.0463
 21
39.0325
  0
LINE
  8
0
 10
-12.0463
 20
39.0325
 11
-12.8036
 21
39.0325
  0
LINE
  8
0
 10
-12.8036
 20
39.0325
 11
-12.8036
 21
38.479
  0
LINE
  8
0
 10
-12.8036
 20
38.479
 11
-10.6356
 21
38.479
  0
LINE
  8
0
 10
-10.6356
 20
38.479
 11
-10.6356
 21
39.0325
  0
LINE
  8
0
 10
-18.5284
 20
38.4385
 11
-18.1586
 21
38.6869
  0
LINE
  8
0
 10
-18.1586
 20
38.6869
 11
-17.9315
 21
39.0892
  0
LINE
  8
0
 10
-17.9315
 20
39.0892
 11
-17.857
 21
39.6281
  0
LINE
  8
0
 10
-17.857
 20
39.6281
 11
-17.9342
 21
40.1861
  0
LINE
  8
0
 10
-17.9342
 20
40.1861
 11
-18.1694
 21
40.6095
  0
LINE
  8
0
 10
-18.1694
 20
40.6095
 11
-18.5493
 21
40.8749
  0
LINE
  8
0
 10
-18.5493
 20
40.8749
 11
-19.0485
 21
40.9618
  0
LINE
  8
0
 10
-19.0485
 20
40.9618
 11
-20.8646
 21
40.9618
  0
LINE
  8
0
 10
-20.8646
 20
40.9618
 11
-20.8646
 21
40.2616
  0
LINE
  8
0
 10
-20.8646
 20
40.2616
 11
-19.0929
 21
40.2616
  0
LINE
  8
0
 10
-19.0929
 20
40.2616
 11
-18.8022
 21
40.2202
  0
LINE
  8
0
 10
-18.8022
 20
40.2202
 11
-18.5968
 21
40.1013
  0
LINE
  8
0
 10
-18.5968
 20
40.1013
 11
-18.4711
 21
39.9101
  0
LINE
  8
0
 10
-18.4711
 20
39.9101
 11
-18.428
 21
39.6443
  0
LINE
  8
0
 10
-18.428
 20
39.6443
 11
-18.469
 21
39.3875
  0
LINE
  8
0
 10
-18.469
 20
39.3875
 11
-18.5884
 21
39.2071
  0
LINE
  8
0
 10
-18.5884
 20
39.2071
 11
-18.7864
 21
39.0963
  0
LINE
  8
0
 10
-18.7864
 20
39.0963
 11
-19.0724
 21
39.0576
  0
LINE
  8
0
 10
-19.0724
 20
39.0576
 11
-20.8646
 21
39.0576
  0
LINE
  8
0
 10
-20.8646
 20
39.0576
 11
-20.8646
 21
38.3575
  0
LINE
  8
0
 10
-20.8646
 20
38.3575
 11
-19.0182
 21
38.3575
  0
LINE
  8
0
 10
-19.0182
 20
38.3575
 11
-18.5284
 21
38.4385
  0
LINE
  8
0
 10
-1
 20
40.5
 11
-6
 21
40.5
  0
LINE
  8
0
 10
-6
 20
40.5
 11
-6
 21
39.5
  0
LINE
  8
0
 10
-6
 20
39.5
 11
-1
 21
39.5
  0
LINE
  8
0
 10
-1
 20
39.5
 11
-1
 21
40.5
  0
LINE
  8
0
 10
-9.64095
 20
39.2409
 11
-10.3681
 21
39.2409
  0
LINE
  8
0
 10
-10.3681
 20
39.2409
 11
-10.3681
 21
38.479
  0
LINE
  8
0
 10
-10.3681
 20
38.479
 11
-9.64095
 21
38.479
  0
LINE
  8
0
 10
-9.64095
 20
38.479
 11
-9.64095
 21
39.2409
  0
LINE
  8
0
 10
-18.7515
 20
35.436
 11
-18.2633
 21
35.7301
  0
LINE
  8
0
 10
-18.2633
 20
35.7301
 11
-17.9576
 21
36.2047
  0
LINE
  8
0
 10
-17.9576
 20
36.2047
 11
-17.857
 21
36.8351
  0
LINE
  8
0
 10
-17.857
 20
36.8351
 11
-17.9092
 21
37.2724
  0
LINE
  8
0
 10
-17.9092
 20
37.2724
 11
-18.067
 21
37.6454
  0
LINE
  8
0
 10
-18.067
 20
37.6454
 11
-18.3335
 21
37.9447
  0
LINE
  8
0
 10
-18.3335
 20
37.9447
 11
-18.7533
 21
38.1863
  0
LINE
  8
0
 10
-18.7533
 20
38.1863
 11
-18.9849
 21
37.5726
  0
LINE
  8
0
 10
-18.9849
 20
37.5726
 11
-18.5588
 21
37.2657
  0
LINE
  8
0
 10
-18.5588
 20
37.2657
 11
-18.4307
 21
36.8333
  0
LINE
  8
0
 10
-18.4307
 20
36.8333
 11
-18.4917
 21
36.4955
  0
LINE
  8
0
 10
-18.4917
 20
36.4955
 11
-18.673
 21
36.2497
  0
LINE
  8
0
 10
-18.673
 20
36.2497
 11
-18.9736
 21
36.0965
  0
LINE
  8
0
 10
-18.9736
 20
36.0965
 11
-19.3946
 21
36.0442
  0
LINE
  8
0
 10
-19.3946
 20
36.0442
 11
-19.8075
 21
36.095
  0
LINE
  8
0
 10
-19.8075
 20
36.095
 11
-20.0997
 21
36.2435
  0
LINE
  8
0
 10
-20.0997
 20
36.2435
 11
-20.275
 21
36.4841
  0
LINE
  8
0
 10
-20.275
 20
36.4841
 11
-20.3347
 21
36.823
  0
LINE
  8
0
 10
-20.3347
 20
36.823
 11
-20.3048
 21
37.0571
  0
LINE
  8
0
 10
-20.3048
 20
37.0571
 11
-20.2157
 21
37.257
  0
LINE
  8
0
 10
-20.2157
 20
37.257
 11
-20.078
 21
37.4083
  0
LINE
  8
0
 10
-20.078
 20
37.4083
 11
-19.8565
 21
37.5221
  0
LINE
  8
0
 10
-19.8565
 20
37.5221
 11
-20.0277
 21
38.1494
  0
LINE
  8
0
 10
-20.0277
 20
38.1494
 11
-20.4355
 21
37.9421
  0
LINE
  8
0
 10
-20.4355
 20
37.9421
 11
-20.6976
 21
37.6589
  0
LINE
  8
0
 10
-20.6976
 20
37.6589
 11
-20.8556
 21
37.28
  0
LINE
  8
0
 10
-20.8556
 20
37.28
 11
-20.9077
 21
36.8085
  0
LINE
  8
0
 10
-20.9077
 20
36.8085
 11
-20.8105
 21
36.1818
  0
LINE
  8
0
 10
-20.8105
 20
36.1818
 11
-20.5147
 21
35.7168
  0
LINE
  8
0
 10
-20.5147
 20
35.7168
 11
-20.0356
 21
35.4326
  0
LINE
  8
0
 10
-20.0356
 20
35.4326
 11
-19.3944
 21
35.3391
  0
LINE
  8
0
 10
-19.3944
 20
35.3391
 11
-18.7515
 21
35.436
  0
LINE
  8
0
 10
-17.8981
 20
34.143
 11
-18.462
 21
34.143
  0
LINE
  8
0
 10
-18.462
 20
34.143
 11
-18.462
 21
32.6051
  0
LINE
  8
0
 10
-18.462
 20
32.6051
 11
-20.8646
 21
32.6051
  0
LINE
  8
0
 10
-20.8646
 20
32.6051
 11
-20.8646
 21
31.9049
  0
LINE
  8
0
 10
-20.8646
 20
31.9049
 11
-17.8981
 21
31.9049
  0
LINE
  8
0
 10
-17.8981
 20
31.9049
 11
-17.8981
 21
34.143
  0
LINE
  8
0
 10
-17.8981
 20
31.4745
 11
-20.8646
 21
31.4745
  0
LINE
  8
0
 10
-20.8646
 20
31.4745
 11
-20.8646
 21
30.7744
  0
LINE
  8
0
 10
-20.8646
 20
30.7744
 11
-17.8981
 21
30.7744
  0
LINE
  8
0
 10
-17.8981
 20
30.7744
 11
-17.8981
 21
31.4745
  0
LINE
  8
0
 10
-18.7588
 20
27.5996
 11
-18.2695
 21
27.8983
  0
LINE
  8
0
 10
-18.2695
 20
27.8983
 11
-17.9593
 21
28.373
  0
LINE
  8
0
 10
-17.9593
 20
28.373
 11
-17.857
 21
28.9926
  0
LINE
  8
0
 10
-17.857
 20
28.9926
 11
-17.9034
 21
29.4177
  0
LINE
  8
0
 10
-17.9034
 20
29.4177
 11
-18.0432
 21
29.7873
  0
LINE
  8
0
 10
-18.0432
 20
29.7873
 11
-18.2721
 21
30.0906
  0
LINE
  8
0
 10
-18.2721
 20
30.0906
 11
-18.5837
 21
30.3141
  0
LINE
  8
0
 10
-18.5837
 20
30.3141
 11
-18.9627
 21
30.4513
  0
LINE
  8
0
 10
-18.9627
 20
30.4513
 11
-19.3959
 21
30.4969
  0
LINE
  8
0
 10
-19.3959
 20
30.4969
 11
-20.0211
 21
30.3984
  0
LINE
  8
0
 10
-20.0211
 20
30.3984
 11
-20.5027
 21
30.0995
  0
LINE
  8
0
 10
-20.5027
 20
30.0995
 11
-20.8073
 21
29.6232
  0
LINE
  8
0
 10
-20.8073
 20
29.6232
 11
-20.9079
 21
28.9981
  0
LINE
  8
0
 10
-20.9079
 20
28.9981
 11
-20.8084
 21
28.3732
  0
LINE
  8
0
 10
-20.8084
 20
28.3732
 11
-20.5068
 21
27.8976
  0
LINE
  8
0
 10
-20.5068
 20
27.8976
 11
-20.0262
 21
27.5994
  0
LINE
  8
0
 10
-20.0262
 20
27.5994
 11
-19.3946
 21
27.501
  0
LINE
  8
0
 10
-19.3946
 20
27.501
 11
-18.7588
 21
27.5996
  0
LINE
  8
0
 10
-19.7955
 20
28.2592
 11
-20.0904
 21
28.4144
  0
LINE
  8
0
 10
-20.0904
 20
28.4144
 11
-20.2728
 21
28.6614
  0
LINE
  8
0
 10
-20.2728
 20
28.6614
 11
-20.3344
 21
28.9979
  0
LINE
  8
0
 10
-20.3344
 20
28.9979
 11
-20.2724
 21
29.3298
  0
LINE
  8
0
 10
-20.2724
 20
29.3298
 11
-20.0886
 21
29.5754
  0
LINE
  8
0
 10
-20.0886
 20
29.5754
 11
-19.7929
 21
29.7309
  0
LINE
  8
0
 10
-19.7929
 20
29.7309
 11
-19.3944
 21
29.7838
  0
LINE
  8
0
 10
-19.3944
 20
29.7838
 11
-18.9788
 21
29.731
  0
LINE
  8
0
 10
-18.9788
 20
29.731
 11
-18.677
 21
29.5762
  0
LINE
  8
0
 10
-18.677
 20
29.5762
 11
-18.4926
 21
29.3301
  0
LINE
  8
0
 10
-18.4926
 20
29.3301
 11
-18.4303
 21
28.9942
  0
LINE
  8
0
 10
-18.4303
 20
28.9942
 11
-18.4941
 21
28.6674
  0
LINE
  8
0
 10
-18.4941
 20
28.6674
 11
-18.684
 21
28.4198
  0
LINE
  8
0
 10
-18.684
 20
28.4198
 11
-18.9881
 21
28.2604
  0
LINE
  8
0
 10
-18.9881
 20
28.2604
 11
-19.3946
 21
28.2063
  0
LINE
  8
0
 10
-19.3946
 20
28.2063
 11
-19.7955
 21
28.2592
  0
LINE
  8
0
 10
-18.7515
 20
24.6595
 11
-18.2633
 21
24.9536
  0
LINE
  8
0
 10
-18.2633
 20
24.9536
 11
-17.9576
 21
25.4282
  0
LINE
  8
0
 10
-17.9576
 20
25.4282
 11
-17.857
 21
26.0585
  0
LINE
  8
0
 10
-17.857
 20
26.0585
 11
-17.9092
 21
26.4959
  0
LINE
  8
0
 10
-17.9092
 20
26.4959
 11
-18.067
 21
26.8688
  0
LINE
  8
0
 10
-18.067
 20
26.8688
 11
-18.3335
 21
27.1681
  0
LINE
  8
0
 10
-18.3335
 20
27.1681
 11
-18.7533
 21
27.4098
  0
LINE
  8
0
 10
-18.7533
 20
27.4098
 11
-18.9849
 21
26.7961
  0
LINE
  8
0
 10
-18.9849
 20
26.7961
 11
-18.5588
 21
26.4892
  0
LINE
  8
0
 10
-18.5588
 20
26.4892
 11
-18.4307
 21
26.0567
  0
LINE
  8
0
 10
-18.4307
 20
26.0567
 11
-18.4917
 21
25.719
  0
LINE
  8
0
 10
-18.4917
 20
25.719
 11
-18.673
 21
25.4732
  0
LINE
  8
0
 10
-18.673
 20
25.4732
 11
-18.9736
 21
25.32
  0
LINE
  8
0
 10
-18.9736
 20
25.32
 11
-19.3946
 21
25.2677
  0
LINE
  8
0
 10
-19.3946
 20
25.2677
 11
-19.8075
 21
25.3185
  0
LINE
  8
0
 10
-19.8075
 20
25.3185
 11
-20.0997
 21
25.467
  0
LINE
  8
0
 10
-20.0997
 20
25.467
 11
-20.275
 21
25.7076
  0
LINE
  8
0
 10
-20.275
 20
25.7076
 11
-20.3347
 21
26.0465
  0
LINE
  8
0
 10
-20.3347
 20
26.0465
 11
-20.3048
 21
26.2806
  0
LINE
  8
0
 10
-20.3048
 20
26.2806
 11
-20.2157
 21
26.4804
  0
LINE
  8
0
 10
-20.2157
 20
26.4804
 11
-20.078
 21
26.6318
  0
LINE
  8
0
 10
-20.078
 20
26.6318
 11
-19.8565
 21
26.7456
  0
LINE
  8
0
 10
-19.8565
 20
26.7456
 11
-20.0277
 21
27.3729
  0
LINE
  8
0
 10
-20.0277
 20
27.3729
 11
-20.4355
 21
27.1655
  0
LINE
  8
0
 10
-20.4355
 20
27.1655
 11
-20.6976
 21
26.8824
  0
LINE
  8
0
 10
-20.6976
 20
26.8824
 11
-20.8556
 21
26.5034
  0
LINE
  8
0
 10
-20.8556
 20
26.5034
 11
-20.9077
 21
26.032
  0
LINE
  8
0
 10
-20.9077
 20
26.032
 11
-20.8105
 21
25.4053
  0
LINE
  8
0
 10
-20.8105
 20
25.4053
 11
-20.5147
 21
24.9403
  0
LINE
  8
0
 10
-20.5147
 20
24.9403
 11
-20.0356
 21
24.6561
  0
LINE
  8
0
 10
-20.0356
 20
24.6561
 11
-19.3944
 21
24.5625
  0
LINE
  8
0
 10
-19.3944
 20
24.5625
 11
-18.7515
 21
24.6595
  0
LINE
  8
0
 10
-18.2421
 20
21.416
 11
-17.8549
 21
22.1915
  0
LINE
  8
0
 10
-17.8549
 20
22.1915
 11
-17.955
 21
22.6578
  0
LINE
  8
0
 10
-17.955
 20
22.6578
 11
-18.2523
 21
22.9878
  0
LINE
  8
0
 10
-18.2523
 20
22.9878
 11
-18.732
 21
23.1817
  0
LINE
  8
0
 10
-18.732
 20
23.1817
 11
-19.3822
 21
23.2452
  0
LINE
  8
0
 10
-19.3822
 20
23.2452
 11
-20.0397
 21
23.1851
  0
LINE
  8
0
 10
-20.0397
 20
23.1851
 11
-20.5181
 21
23.0014
  0
LINE
  8
0
 10
-20.5181
 20
23.0014
 11
-20.8114
 21
22.6784
  0
LINE
  8
0
 10
-20.8114
 20
22.6784
 11
-20.9079
 21
22.2166
  0
LINE
  8
0
 10
-20.9079
 20
22.2166
 11
-20.8673
 21
21.8811
  0
LINE
  8
0
 10
-20.8673
 20
21.8811
 11
-20.744
 21
21.6152
  0
LINE
  8
0
 10
-20.744
 20
21.6152
 11
-20.5341
 21
21.4144
  0
LINE
  8
0
 10
-20.5341
 20
21.4144
 11
-20.2388
 21
21.2737
  0
LINE
  8
0
 10
-20.2388
 20
21.2737
 11
-19.8565
 21
21.1908
  0
LINE
  8
0
 10
-19.8565
 20
21.1908
 11
-19.3783
 21
21.1632
  0
LINE
  8
0
 10
-19.3783
 20
21.1632
 11
-18.2421
 21
21.416
  0
LINE
  8
0
 10
-19.7313
 20
21.8445
 11
-19.9886
 21
21.8721
  0
LINE
  8
0
 10
-19.9886
 20
21.8721
 11
-20.1663
 21
21.9196
  0
LINE
  8
0
 10
-20.1663
 20
21.9196
 11
-20.2777
 21
21.986
  0
LINE
  8
0
 10
-20.2777
 20
21.986
 11
-20.3379
 21
22.0771
  0
LINE
  8
0
 10
-20.3379
 20
22.0771
 11
-20.3591
 21
22.2102
  0
LINE
  8
0
 10
-20.3591
 20
22.2102
 11
-20.3383
 21
22.3346
  0
LINE
  8
0
 10
-20.3383
 20
22.3346
 11
-20.2792
 21
22.421
  0
LINE
  8
0
 10
-20.2792
 20
22.421
 11
-20.1681
 21
22.4857
  0
LINE
  8
0
 10
-20.1681
 20
22.4857
 11
-19.9895
 21
22.5333
  0
LINE
  8
0
 10
-19.9895
 20
22.5333
 11
-19.7315
 21
22.5617
  0
LINE
  8
0
 10
-19.7315
 20
22.5617
 11
-19.3822
 21
22.5713
  0
LINE
  8
0
 10
-19.3822
 20
22.5713
 11
-19.0453
 21
22.5614
  0
LINE
  8
0
 10
-19.0453
 20
22.5614
 11
-18.7896
 21
22.5323
  0
LINE
  8
0
 10
-18.7896
 20
22.5323
 11
-18.6081
 21
22.4832
  0
LINE
  8
0
 10
-18.6081
 20
22.4832
 11
-18.4923
 21
22.4157
  0
LINE
  8
0
 10
-18.4923
 20
22.4157
 11
-18.4296
 21
22.3268
  0
LINE
  8
0
 10
-18.4296
 20
22.3268
 11
-18.4077
 21
22.2019
  0
LINE
  8
0
 10
-18.4077
 20
22.2019
 11
-18.4285
 21
22.076
  0
LINE
  8
0
 10
-18.4285
 20
22.076
 11
-18.4877
 21
21.9883
  0
LINE
  8
0
 10
-18.4877
 20
21.9883
 11
-18.5991
 21
21.9227
  0
LINE
  8
0
 10
-18.5991
 20
21.9227
 11
-18.7785
 21
21.8741
  0
LINE
  8
0
 10
-18.7785
 20
21.8741
 11
-19.0363
 21
21.845
  0
LINE
  8
0
 10
-19.0363
 20
21.845
 11
-19.3822
 21
21.8352
  0
LINE
  8
0
 10
-19.3822
 20
21.8352
 11
-19.7313
 21
21.8445
  0
LINE
  8
0
 10
-17.8981
 20
19.826
 11
-17.9528
 21
20.3006
  0
LINE
  8
0
 10
-17.9528
 20
20.3006
 11
-18.1209
 21
20.6678
  0
LINE
  8
0
 10
-18.1209
 20
20.6678
 11
-18.3968
 21
20.9029
  0
LINE
  8
0
 10
-18.3968
 20
20.9029
 11
-18.765
 21
20.9807
  0
LINE
  8
0
 10
-18.765
 20
20.9807
 11
-19.049
 21
20.9318
  0
LINE
  8
0
 10
-19.049
 20
20.9318
 11
-19.2733
 21
20.7837
  0
LINE
  8
0
 10
-19.2733
 20
20.7837
 11
-19.4272
 21
20.5443
  0
LINE
  8
0
 10
-19.4272
 20
20.5443
 11
-19.4645
 21
20.3915
  0
LINE
  8
0
 10
-19.4645
 20
20.3915
 11
-19.4977
 21
20.4842
  0
LINE
  8
0
 10
-19.4977
 20
20.4842
 11
-19.65
 21
20.6691
  0
LINE
  8
0
 10
-19.65
 20
20.6691
 11
-19.8532
 21
20.7794
  0
LINE
  8
0
 10
-19.8532
 20
20.7794
 11
-20.096
 21
20.8159
  0
LINE
  8
0
 10
-20.096
 20
20.8159
 11
-20.4304
 21
20.7437
  0
LINE
  8
0
 10
-20.4304
 20
20.7437
 11
-20.6744
 21
20.5251
  0
LINE
  8
0
 10
-20.6744
 20
20.5251
 11
-20.8181
 21
20.1743
  0
LINE
  8
0
 10
-20.8181
 20
20.1743
 11
-20.8646
 21
19.7035
  0
LINE
  8
0
 10
-20.8646
 20
19.7035
 11
-20.8646
 21
18.3389
  0
LINE
  8
0
 10
-20.8646
 20
18.3389
 11
-17.8981
 21
18.3389
  0
LINE
  8
0
 10
-17.8981
 20
18.3389
 11
-17.8981
 21
19.826
  0
LINE
  8
0
 10
-19.1655
 20
19.0391
 11
-19.1655
 21
19.7442
  0
LINE
  8
0
 10
-19.1655
 20
19.7442
 11
-19.0715
 21
20.1485
  0
LINE
  8
0
 10
-19.0715
 20
20.1485
 11
-18.8058
 21
20.2756
  0
LINE
  8
0
 10
-18.8058
 20
20.2756
 11
-18.6502
 21
20.2473
  0
LINE
  8
0
 10
-18.6502
 20
20.2473
 11
-18.5387
 21
20.1623
  0
LINE
  8
0
 10
-18.5387
 20
20.1623
 11
-18.4687
 21
20.0089
  0
LINE
  8
0
 10
-18.4687
 20
20.0089
 11
-18.4437
 21
19.7697
  0
LINE
  8
0
 10
-18.4437
 20
19.7697
 11
-18.4437
 21
19.0391
  0
LINE
  8
0
 10
-18.4437
 20
19.0391
 11
-19.1655
 21
19.0391
  0
LINE
  8
0
 10
-20.319
 20
19.0391
 11
-20.319
 21
19.6702
  0
LINE
  8
0
 10
-20.319
 20
19.6702
 11
-20.2996
 21
19.8731
  0
LINE
  8
0
 10
-20.2996
 20
19.8731
 11
-20.2458
 21
20.0076
  0
LINE
  8
0
 10
-20.2458
 20
20.0076
 11
-20.1561
 21
20.0834
  0
LINE
  8
0
 10
-20.1561
 20
20.0834
 11
-20.013
 21
20.11
  0
LINE
  8
0
 10
-20.013
 20
20.11
 11
-19.8793
 21
20.0852
  0
LINE
  8
0
 10
-19.8793
 20
20.0852
 11
-19.7881
 21
20.0142
  0
LINE
  8
0
 10
-19.7881
 20
20.0142
 11
-19.7301
 21
19.8831
  0
LINE
  8
0
 10
-19.7301
 20
19.8831
 11
-19.709
 21
19.6742
  0
LINE
  8
0
 10
-19.709
 20
19.6742
 11
-19.709
 21
19.0391
  0
LINE
  8
0
 10
-19.709
 20
19.0391
 11
-20.319
 21
19.0391
  0
LINE
  8
0
 10
-7.74155
 20
11.8505
 11
-7.36336
 21
12.1688
  0
LINE
  8
0
 10
-7.36336
 20
12.1688
 11
-7.13252
 21
12.6927
  0
LINE
  8
0
 10
-7.13252
 20
12.6927
 11
-7.05685
 21
13.4168
  0
LINE
  8
0
 10
-7.05685
 20
13.4168
 11
-7.12512
 21
14.0975
  0
LINE
  8
0
 10
-7.12512
 20
14.0975
 11
-7.33371
 21
14.5921
  0
LINE
  8
0
 10
-7.33371
 20
14.5921
 11
-7.69098
 21
14.8937
  0
LINE
  8
0
 10
-7.69098
 20
14.8937
 11
-8.19093
 21
14.9932
  0
LINE
  8
0
 10
-8.19093
 20
14.9932
 11
-8.66159
 21
14.9226
  0
LINE
  8
0
 10
-8.66159
 20
14.9226
 11
-9.01665
 21
14.708
  0
LINE
  8
0
 10
-9.01665
 20
14.708
 11
-9.23773
 21
14.3656
  0
LINE
  8
0
 10
-9.23773
 20
14.3656
 11
-9.31032
 21
13.9187
  0
LINE
  8
0
 10
-9.31032
 20
13.9187
 11
-9.24858
 21
13.4819
  0
LINE
  8
0
 10
-9.24858
 20
13.4819
 11
-9.06065
 21
13.1412
  0
LINE
  8
0
 10
-9.06065
 20
13.1412
 11
-8.76353
 21
12.9221
  0
LINE
  8
0
 10
-8.76353
 20
12.9221
 11
-8.38287
 21
12.8499
  0
LINE
  8
0
 10
-8.38287
 20
12.8499
 11
-8.15999
 21
12.8744
  0
LINE
  8
0
 10
-8.15999
 20
12.8744
 11
-7.95341
 21
12.9477
  0
LINE
  8
0
 10
-7.95341
 20
12.9477
 11
-7.7798
 21
13.0659
  0
LINE
  8
0
 10
-7.7798
 20
13.0659
 11
-7.77147
 21
13.077
  0
LINE
  8
0
 10
-7.77147
 20
13.077
 11
-7.79301
 21
12.8355
  0
LINE
  8
0
 10
-7.79301
 20
12.8355
 11
-7.89211
 21
12.5467
  0
LINE
  8
0
 10
-7.89211
 20
12.5467
 11
-8.04266
 21
12.3813
  0
LINE
  8
0
 10
-8.04266
 20
12.3813
 11
-8.24091
 21
12.3276
  0
LINE
  8
0
 10
-8.24091
 20
12.3276
 11
-8.4592
 21
12.3971
  0
LINE
  8
0
 10
-8.4592
 20
12.3971
 11
-8.60637
 21
12.6487
  0
LINE
  8
0
 10
-8.60637
 20
12.6487
 11
-9.27557
 21
12.5549
  0
LINE
  8
0
 10
-9.27557
 20
12.5549
 11
-9.11993
 21
12.1646
  0
LINE
  8
0
 10
-9.11993
 20
12.1646
 11
-8.91187
 21
11.9277
  0
LINE
  8
0
 10
-8.91187
 20
11.9277
 11
-8.62256
 21
11.7904
  0
LINE
  8
0
 10
-8.62256
 20
11.7904
 11
-8.24637
 21
11.7453
  0
LINE
  8
0
 10
-8.24637
 20
11.7453
 11
-7.74155
 21
11.8505
  0
LINE
  8
0
 10
-8.3661
 20
13.4386
 11
-8.48604
 21
13.5385
  0
LINE
  8
0
 10
-8.48604
 20
13.5385
 11
-8.564
 21
13.6996
  0
LINE
  8
0
 10
-8.564
 20
13.6996
 11
-8.59093
 21
13.9138
  0
LINE
  8
0
 10
-8.59093
 20
13.9138
 11
-8.56377
 21
14.1294
  0
LINE
  8
0
 10
-8.56377
 20
14.1294
 11
-8.4854
 21
14.2864
  0
LINE
  8
0
 10
-8.4854
 20
14.2864
 11
-8.36592
 21
14.3818
  0
LINE
  8
0
 10
-8.36592
 20
14.3818
 11
-8.20789
 21
14.4139
  0
LINE
  8
0
 10
-8.20789
 20
14.4139
 11
-8.04483
 21
14.377
  0
LINE
  8
0
 10
-8.04483
 20
14.377
 11
-7.91707
 21
14.2659
  0
LINE
  8
0
 10
-7.91707
 20
14.2659
 11
-7.83148
 21
14.0856
  0
LINE
  8
0
 10
-7.83148
 20
14.0856
 11
-7.80212
 21
13.8453
  0
LINE
  8
0
 10
-7.80212
 20
13.8453
 11
-7.83167
 21
13.6613
  0
LINE
  8
0
 10
-7.83167
 20
13.6613
 11
-7.91769
 21
13.5227
  0
LINE
  8
0
 10
-7.91769
 20
13.5227
 11
-8.04599
 21
13.4345
  0
LINE
  8
0
 10
-8.04599
 20
13.4345
 11
-8.20459
 21
13.4049
  0
LINE
  8
0
 10
-8.20459
 20
13.4049
 11
-8.3661
 21
13.4386
  0
LINE
  8
0
 10
-13.0495
 20
12.3429
 11
-13.7504
 21
12.3429
  0
LINE
  8
0
 10
-13.7504
 20
12.3429
 11
-13.7504
 21
14.9469
  0
LINE
  8
0
 10
-13.7504
 20
14.9469
 11
-14.3924
 21
14.9469
  0
LINE
  8
0
 10
-14.3924
 20
14.9469
 11
-15.1936
 21
14.4271
  0
LINE
  8
0
 10
-15.1936
 20
14.4271
 11
-15.1936
 21
13.8302
  0
LINE
  8
0
 10
-15.1936
 20
13.8302
 11
-14.4602
 21
14.2881
  0
LINE
  8
0
 10
-14.4602
 20
14.2881
 11
-14.4602
 21
12.3429
  0
LINE
  8
0
 10
-14.4602
 20
12.3429
 11
-15.2175
 21
12.3429
  0
LINE
  8
0
 10
-15.2175
 20
12.3429
 11
-15.2175
 21
11.7893
  0
LINE
  8
0
 10
-15.2175
 20
11.7893
 11
-13.0495
 21
11.7893
  0
LINE
  8
0
 10
-13.0495
 20
11.7893
 11
-13.0495
 21
12.3429
  0
LINE
  8
0
 10
-9.73787
 20
12.4121
 11
-9.3299
 21
12.4121
  0
LINE
  8
0
 10
-9.3299
 20
12.4121
 11
-9.3299
 21
12.9657
  0
LINE
  8
0
 10
-9.3299
 20
12.9657
 11
-9.73787
 21
12.9657
  0
LINE
  8
0
 10
-9.73787
 20
12.9657
 11
-9.73787
 21
14.9469
  0
LINE
  8
0
 10
-9.73787
 20
14.9469
 11
-10.4963
 21
14.9469
  0
LINE
  8
0
 10
-10.4963
 20
14.9469
 11
-11.8104
 21
12.9349
  0
LINE
  8
0
 10
-11.8104
 20
12.9349
 11
-11.8104
 21
12.4121
  0
LINE
  8
0
 10
-11.8104
 20
12.4121
 11
-10.4194
 21
12.4121
  0
LINE
  8
0
 10
-10.4194
 20
12.4121
 11
-10.4194
 21
11.7893
  0
LINE
  8
0
 10
-10.4194
 20
11.7893
 11
-9.73787
 21
11.7893
  0
LINE
  8
0
 10
-9.73787
 20
11.7893
 11
-9.73787
 21
12.4121
  0
LINE
  8
0
 10
-11.1707
 20
12.9657
 11
-10.5117
 21
13.9673
  0
LINE
  8
0
 10
-10.5117
 20
13.9673
 11
-10.4138
 21
14.1265
  0
LINE
  8
0
 10
-10.4138
 20
14.1265
 11
-10.4175
 21
14.0395
  0
LINE
  8
0
 10
-10.4175
 20
14.0395
 11
-10.4194
 21
13.9164
  0
LINE
  8
0
 10
-10.4194
 20
13.9164
 11
-10.4194
 21
12.9657
  0
LINE
  8
0
 10
-10.4194
 20
12.9657
 11
-11.1707
 21
12.9657
  0
LINE
  8
0
 10
-1
 20
13.8333
 11
-6
 21
13.8333
  0
LINE
  8
0
 10
-6
 20
13.8333
 11
-6
 21
12.8333
  0
LINE
  8
0
 10
-6
 20
12.8333
 11
-1
 21
12.8333
  0
LINE
  8
0
 10
-1
 20
12.8333
 11
-1
 21
13.8333
  0
LINE
  8
0
 10
-12.0548
 20
12.5512
 11
-12.7819
 21
12.5512
  0
LINE
  8
0
 10
-12.7819
 20
12.5512
 11
-12.7819
 21
11.7893
  0
LINE
  8
0
 10
-12.7819
 20
11.7893
 11
-12.0548
 21
11.7893
  0
LINE
  8
0
 10
-12.0548
 20
11.7893
 11
-12.0548
 21
12.5512
  0
LINE
  8
0
 10
44.8722
 20
-1
 11
43.8722
 21
-1
  0
LINE
  8
0
 10
43.8722
 20
-1
 11
43.8722
 21
-6
  0
LINE
  8
0
 10
43.8722
 20
-6
 11
44.8722
 21
-6
  0
LINE
  8
0
 10
44.8722
 20
-6
 11
44.8722
 21
-1
  0
LINE
  8
0
 10
28.2689
 20
-1
 11
27.2689
 21
-1
  0
LINE
  8
0
 10
27.2689
 20
-1
 11
27.2689
 21
-6
  0
LINE
  8
0
 10
27.2689
 20
-6
 11
28.2689
 21
-6
  0
LINE
  8
0
 10
28.2689
 20
-6
 11
28.2689
 21
-1
  0
LINE
  8
0
 10
61.4754
 20
-1
 11
60.4754
 21
-1
  0
LINE
  8
0
 10
60.4754
 20
-1
 11
60.4754
 21
-6
  0
LINE
  8
0
 10
60.4754
 20
-6
 11
61.4754
 21
-6
  0
LINE
  8
0
 10
61.4754
 20
-6
 11
61.4754
 21
-1
  0
LINE
  8
0
 10
78.0787
 20
-1
 11
77.0787
 21
-1
  0
LINE
  8
0
 10
77.0787
 20
-1
 11
77.0787
 21
-6
  0
LINE
  8
0
 10
77.0787
 20
-6
 11
78.0787
 21
-6
  0
LINE
  8
0
 10
78.0787
 20
-6
 11
78.0787
 21
-1
  0
LINE
  8
0
 10
94.6819
 20
-1
 11
93.6819
 21
-1
  0
LINE
  8
0
 10
93.6819
 20
-1
 11
93.6819
 21
-6
  0
LINE
  8
0
 10
93.6819
 20
-6
 11
94.6819
 21
-6
  0
LINE
  8
0
 10
94.6819
 20
-6
 11
94.6819
 21
-1
  0
LINE
  8
0
 10
111.285
 20
-1
 11
110.285
 21
-1
  0
LINE
  8
0
 10
110.285
 20
-1
 11
110.285
 21
-6
  0
LINE
  8
0
 10
110.285
 20
-6
 11
111.285
 21
-6
  0
LINE
  8
0
 10
111.285
 20
-6
 11
111.285
 21
-1
  0
LINE
  8
0
 10
11.6657
 20
-1
 11
10.6657
 21
-1
  0
LINE
  8
0
 10
10.6657
 20
-1
 11
10.6657
 21
-6
  0
LINE
  8
0
 10
10.6657
 20
-6
 11
11.6657
 21
-6
  0
LINE
  8
0
 10
11.6657
 20
-6
 11
11.6657
 21
-1
  0
LINE
  8
0
 10
27.1459
 20
-10.5156
 11
27.4896
 21
-10.2956
  0
LINE
  8
0
 10
27.4896
 20
-10.2956
 11
27.706
 21
-9.94701
  0
LINE
  8
0
 10
27.706
 20
-9.94701
 11
27.7771
 21
-9.4938
  0
LINE
  8
0
 10
27.7771
 20
-9.4938
 11
27.7149
 21
-9.07639
  0
LINE
  8
0
 10
27.7149
 20
-9.07639
 11
27.5255
 21
-8.75146
  0
LINE
  8
0
 10
27.5255
 20
-8.75146
 11
27.2258
 21
-8.54361
  0
LINE
  8
0
 10
27.2258
 20
-8.54361
 11
26.8408
 21
-8.47536
  0
LINE
  8
0
 10
26.8408
 20
-8.47536
 11
26.6202
 21
-8.4984
  0
LINE
  8
0
 10
26.6202
 20
-8.4984
 11
26.4234
 21
-8.56764
  0
LINE
  8
0
 10
26.4234
 20
-8.56764
 11
26.2574
 21
-8.68126
  0
LINE
  8
0
 10
26.2574
 20
-8.68126
 11
26.2377
 21
-8.70549
  0
LINE
  8
0
 10
26.2377
 20
-8.70549
 11
26.2593
 21
-8.43674
  0
LINE
  8
0
 10
26.2593
 20
-8.43674
 11
26.359
 21
-8.14375
  0
LINE
  8
0
 10
26.359
 20
-8.14375
 11
26.5087
 21
-7.97816
  0
LINE
  8
0
 10
26.5087
 20
-7.97816
 11
26.6992
 21
-7.92482
  0
LINE
  8
0
 10
26.6992
 20
-7.92482
 11
26.9022
 21
-7.98985
  0
LINE
  8
0
 10
26.9022
 20
-7.98985
 11
27.0429
 21
-8.22841
  0
LINE
  8
0
 10
27.0429
 20
-8.22841
 11
27.7144
 21
-8.13464
  0
LINE
  8
0
 10
27.7144
 20
-8.13464
 11
27.5612
 21
-7.75436
  0
LINE
  8
0
 10
27.5612
 20
-7.75436
 11
27.3571
 21
-7.52174
  0
LINE
  8
0
 10
27.3571
 20
-7.52174
 11
27.075
 21
-7.38515
  0
LINE
  8
0
 10
27.075
 20
-7.38515
 11
26.7109
 21
-7.34024
  0
LINE
  8
0
 10
26.7109
 20
-7.34024
 11
26.2065
 21
-7.44806
  0
LINE
  8
0
 10
26.2065
 20
-7.44806
 11
25.8308
 21
-7.77406
  0
LINE
  8
0
 10
25.8308
 20
-7.77406
 11
25.6028
 21
-8.30618
  0
LINE
  8
0
 10
25.6028
 20
-8.30618
 11
25.528
 21
-9.03596
  0
LINE
  8
0
 10
25.528
 20
-9.03596
 11
25.6019
 21
-9.70226
  0
LINE
  8
0
 10
25.6019
 20
-9.70226
 11
25.8275
 21
-10.1903
  0
LINE
  8
0
 10
25.8275
 20
-10.1903
 11
26.1985
 21
-10.4894
  0
LINE
  8
0
 10
26.1985
 20
-10.4894
 11
26.6971
 21
-10.5882
  0
LINE
  8
0
 10
26.6971
 20
-10.5882
 11
27.1459
 21
-10.5156
  0
LINE
  8
0
 10
26.5159
 20
-9.9727
 11
26.3861
 21
-9.85681
  0
LINE
  8
0
 10
26.3861
 20
-9.85681
 11
26.2987
 21
-9.67528
  0
LINE
  8
0
 10
26.2987
 20
-9.67528
 11
26.2689
 21
-9.44659
  0
LINE
  8
0
 10
26.2689
 20
-9.44659
 11
26.2966
 21
-9.27168
  0
LINE
  8
0
 10
26.2966
 20
-9.27168
 11
26.3771
 21
-9.1393
  0
LINE
  8
0
 10
26.3771
 20
-9.1393
 11
26.5009
 21
-9.0546
  0
LINE
  8
0
 10
26.5009
 20
-9.0546
 11
26.6631
 21
-9.0258
  0
LINE
  8
0
 10
26.6631
 20
-9.0258
 11
26.8311
 21
-9.05656
  0
LINE
  8
0
 10
26.8311
 20
-9.05656
 11
26.9555
 21
-9.14653
  0
LINE
  8
0
 10
26.9555
 20
-9.14653
 11
27.0361
 21
-9.2968
  0
LINE
  8
0
 10
27.0361
 20
-9.2968
 11
27.0642
 21
-9.51111
  0
LINE
  8
0
 10
27.0642
 20
-9.51111
 11
27.0373
 21
-9.72672
  0
LINE
  8
0
 10
27.0373
 20
-9.72672
 11
26.9597
 21
-9.88354
  0
LINE
  8
0
 10
26.9597
 20
-9.88354
 11
26.8401
 21
-9.9789
  0
LINE
  8
0
 10
26.8401
 20
-9.9789
 11
26.6793
 21
-10.011
  0
LINE
  8
0
 10
26.6793
 20
-10.011
 11
26.5159
 21
-9.9727
  0
LINE
  8
0
 10
31.958
 20
-10.4836
 11
32.3087
 21
-10.1676
  0
LINE
  8
0
 10
32.3087
 20
-10.1676
 11
32.5151
 21
-9.65701
  0
LINE
  8
0
 10
32.5151
 20
-9.65701
 11
32.5827
 21
-8.96431
  0
LINE
  8
0
 10
32.5827
 20
-8.96431
 11
32.5188
 21
-8.26372
  0
LINE
  8
0
 10
32.5188
 20
-8.26372
 11
32.3232
 21
-7.75465
  0
LINE
  8
0
 10
32.3232
 20
-7.75465
 11
31.9799
 21
-7.44293
  0
LINE
  8
0
 10
31.9799
 20
-7.44293
 11
31.4888
 21
-7.34027
  0
LINE
  8
0
 10
31.4888
 20
-7.34027
 11
31.132
 21
-7.38344
  0
LINE
  8
0
 10
31.132
 20
-7.38344
 11
30.8494
 21
-7.51445
  0
LINE
  8
0
 10
30.8494
 20
-7.51445
 11
30.636
 21
-7.73758
  0
LINE
  8
0
 10
30.636
 20
-7.73758
 11
30.4863
 21
-8.0517
  0
LINE
  8
0
 10
30.4863
 20
-8.0517
 11
30.398
 21
-8.45883
  0
LINE
  8
0
 10
30.398
 20
-8.45883
 11
30.3686
 21
-8.96823
  0
LINE
  8
0
 10
30.3686
 20
-8.96823
 11
30.6379
 21
-10.1782
  0
LINE
  8
0
 10
30.6379
 20
-10.1782
 11
31.4626
 21
-10.59
  0
LINE
  8
0
 10
31.4626
 20
-10.59
 11
31.958
 21
-10.4836
  0
LINE
  8
0
 10
31.3376
 20
-9.98479
 11
31.2429
 21
-9.92073
  0
LINE
  8
0
 10
31.2429
 20
-9.92073
 11
31.1723
 21
-9.80095
  0
LINE
  8
0
 10
31.1723
 20
-9.80095
 11
31.1203
 21
-9.60893
  0
LINE
  8
0
 10
31.1203
 20
-9.60893
 11
31.0892
 21
-9.33354
  0
LINE
  8
0
 10
31.0892
 20
-9.33354
 11
31.0787
 21
-8.96434
  0
LINE
  8
0
 10
31.0787
 20
-8.96434
 11
31.0887
 21
-8.59172
  0
LINE
  8
0
 10
31.0887
 20
-8.59172
 11
31.1181
 21
-8.31689
  0
LINE
  8
0
 10
31.1181
 20
-8.31689
 11
31.1691
 21
-8.12668
  0
LINE
  8
0
 10
31.1691
 20
-8.12668
 11
31.2405
 21
-8.00679
  0
LINE
  8
0
 10
31.2405
 20
-8.00679
 11
31.3389
 21
-7.94176
  0
LINE
  8
0
 10
31.3389
 20
-7.94176
 11
31.4821
 21
-7.91898
  0
LINE
  8
0
 10
31.4821
 20
-7.91898
 11
31.6161
 21
-7.94131
  0
LINE
  8
0
 10
31.6161
 20
-7.94131
 11
31.7094
 21
-8.00519
  0
LINE
  8
0
 10
31.7094
 20
-8.00519
 11
31.7791
 21
-8.12476
  0
LINE
  8
0
 10
31.7791
 20
-8.12476
 11
31.83
 21
-8.31589
  0
LINE
  8
0
 10
31.83
 20
-8.31589
 11
31.8603
 21
-8.59152
  0
LINE
  8
0
 10
31.8603
 20
-8.59152
 11
31.8706
 21
-8.96434
  0
LINE
  8
0
 10
31.8706
 20
-8.96434
 11
31.8601
 21
-9.32393
  0
LINE
  8
0
 10
31.8601
 20
-9.32393
 11
31.829
 21
-9.59706
  0
LINE
  8
0
 10
31.829
 20
-9.59706
 11
31.7764
 21
-9.79131
  0
LINE
  8
0
 10
31.7764
 20
-9.79131
 11
31.7038
 21
-9.91583
  0
LINE
  8
0
 10
31.7038
 20
-9.91583
 11
31.6077
 21
-9.98364
  0
LINE
  8
0
 10
31.6077
 20
-9.98364
 11
31.4733
 21
-10.0071
  0
LINE
  8
0
 10
31.4733
 20
-10.0071
 11
31.3376
 21
-9.98479
  0
LINE
  8
0
 10
46.1474
 20
-10.4836
 11
46.4981
 21
-10.1676
  0
LINE
  8
0
 10
46.4981
 20
-10.1676
 11
46.7045
 21
-9.65701
  0
LINE
  8
0
 10
46.7045
 20
-9.65701
 11
46.7721
 21
-8.96431
  0
LINE
  8
0
 10
46.7721
 20
-8.96431
 11
46.7082
 21
-8.26372
  0
LINE
  8
0
 10
46.7082
 20
-8.26372
 11
46.5126
 21
-7.75465
  0
LINE
  8
0
 10
46.5126
 20
-7.75465
 11
46.1693
 21
-7.44293
  0
LINE
  8
0
 10
46.1693
 20
-7.44293
 11
45.6782
 21
-7.34027
  0
LINE
  8
0
 10
45.6782
 20
-7.34027
 11
45.3214
 21
-7.38344
  0
LINE
  8
0
 10
45.3214
 20
-7.38344
 11
45.0388
 21
-7.51445
  0
LINE
  8
0
 10
45.0388
 20
-7.51445
 11
44.8254
 21
-7.73758
  0
LINE
  8
0
 10
44.8254
 20
-7.73758
 11
44.6757
 21
-8.0517
  0
LINE
  8
0
 10
44.6757
 20
-8.0517
 11
44.5874
 21
-8.45883
  0
LINE
  8
0
 10
44.5874
 20
-8.45883
 11
44.558
 21
-8.96823
  0
LINE
  8
0
 10
44.558
 20
-8.96823
 11
44.8273
 21
-10.1782
  0
LINE
  8
0
 10
44.8273
 20
-10.1782
 11
45.652
 21
-10.59
  0
LINE
  8
0
 10
45.652
 20
-10.59
 11
46.1474
 21
-10.4836
  0
LINE
  8
0
 10
45.527
 20
-9.98479
 11
45.4323
 21
-9.92073
  0
LINE
  8
0
 10
45.4323
 20
-9.92073
 11
45.3617
 21
-9.80095
  0
LINE
  8
0
 10
45.3617
 20
-9.80095
 11
45.3097
 21
-9.60893
  0
LINE
  8
0
 10
45.3097
 20
-9.60893
 11
45.2786
 21
-9.33354
  0
LINE
  8
0
 10
45.2786
 20
-9.33354
 11
45.2681
 21
-8.96436
  0
LINE
  8
0
 10
45.2681
 20
-8.96436
 11
45.2781
 21
-8.59172
  0
LINE
  8
0
 10
45.2781
 20
-8.59172
 11
45.3075
 21
-8.31689
  0
LINE
  8
0
 10
45.3075
 20
-8.31689
 11
45.3585
 21
-8.12669
  0
LINE
  8
0
 10
45.3585
 20
-8.12669
 11
45.4299
 21
-8.00679
  0
LINE
  8
0
 10
45.4299
 20
-8.00679
 11
45.5283
 21
-7.94174
  0
LINE
  8
0
 10
45.5283
 20
-7.94174
 11
45.6715
 21
-7.91898
  0
LINE
  8
0
 10
45.6715
 20
-7.91898
 11
45.8055
 21
-7.94131
  0
LINE
  8
0
 10
45.8055
 20
-7.94131
 11
45.8988
 21
-8.00519
  0
LINE
  8
0
 10
45.8988
 20
-8.00519
 11
45.9685
 21
-8.12476
  0
LINE
  8
0
 10
45.9685
 20
-8.12476
 11
46.0195
 21
-8.31589
  0
LINE
  8
0
 10
46.0195
 20
-8.31589
 11
46.0497
 21
-8.59152
  0
LINE
  8
0
 10
46.0497
 20
-8.59152
 11
46.06
 21
-8.96434
  0
LINE
  8
0
 10
46.06
 20
-8.96434
 11
46.0495
 21
-9.32393
  0
LINE
  8
0
 10
46.0495
 20
-9.32393
 11
46.0184
 21
-9.59706
  0
LINE
  8
0
 10
46.0184
 20
-9.59706
 11
45.9658
 21
-9.79131
  0
LINE
  8
0
 10
45.9658
 20
-9.79131
 11
45.8932
 21
-9.91583
  0
LINE
  8
0
 10
45.8932
 20
-9.91583
 11
45.7971
 21
-9.98364
  0
LINE
  8
0
 10
45.7971
 20
-9.98364
 11
45.6627
 21
-10.0071
  0
LINE
  8
0
 10
45.6627
 20
-10.0071
 11
45.527
 21
-9.98479
  0
LINE
  8
0
 10
48.5612
 20
-10.4836
 11
48.912
 21
-10.1676
  0
LINE
  8
0
 10
48.912
 20
-10.1676
 11
49.1184
 21
-9.65701
  0
LINE
  8
0
 10
49.1184
 20
-9.65701
 11
49.186
 21
-8.96431
  0
LINE
  8
0
 10
49.186
 20
-8.96431
 11
49.122
 21
-8.26372
  0
LINE
  8
0
 10
49.122
 20
-8.26372
 11
48.9265
 21
-7.75465
  0
LINE
  8
0
 10
48.9265
 20
-7.75465
 11
48.5832
 21
-7.44293
  0
LINE
  8
0
 10
48.5832
 20
-7.44293
 11
48.092
 21
-7.34027
  0
LINE
  8
0
 10
48.092
 20
-7.34027
 11
47.7353
 21
-7.38344
  0
LINE
  8
0
 10
47.7353
 20
-7.38344
 11
47.4526
 21
-7.51445
  0
LINE
  8
0
 10
47.4526
 20
-7.51445
 11
47.2393
 21
-7.73758
  0
LINE
  8
0
 10
47.2393
 20
-7.73758
 11
47.0896
 21
-8.0517
  0
LINE
  8
0
 10
47.0896
 20
-8.0517
 11
47.0013
 21
-8.45883
  0
LINE
  8
0
 10
47.0013
 20
-8.45883
 11
46.9719
 21
-8.96823
  0
LINE
  8
0
 10
46.9719
 20
-8.96823
 11
47.2411
 21
-10.1782
  0
LINE
  8
0
 10
47.2411
 20
-10.1782
 11
48.0658
 21
-10.59
  0
LINE
  8
0
 10
48.0658
 20
-10.59
 11
48.5612
 21
-10.4836
  0
LINE
  8
0
 10
47.9409
 20
-9.98479
 11
47.8462
 21
-9.92073
  0
LINE
  8
0
 10
47.8462
 20
-9.92073
 11
47.7756
 21
-9.80095
  0
LINE
  8
0
 10
47.7756
 20
-9.80095
 11
47.7235
 21
-9.60893
  0
LINE
  8
0
 10
47.7235
 20
-9.60893
 11
47.6924
 21
-9.33354
  0
LINE
  8
0
 10
47.6924
 20
-9.33354
 11
47.682
 21
-8.96434
  0
LINE
  8
0
 10
47.682
 20
-8.96434
 11
47.6919
 21
-8.59172
  0
LINE
  8
0
 10
47.6919
 20
-8.59172
 11
47.7214
 21
-8.31689
  0
LINE
  8
0
 10
47.7214
 20
-8.31689
 11
47.7723
 21
-8.12668
  0
LINE
  8
0
 10
47.7723
 20
-8.12668
 11
47.8438
 21
-8.00679
  0
LINE
  8
0
 10
47.8438
 20
-8.00679
 11
47.9421
 21
-7.94176
  0
LINE
  8
0
 10
47.9421
 20
-7.94176
 11
48.0853
 21
-7.91898
  0
LINE
  8
0
 10
48.0853
 20
-7.91898
 11
48.2194
 21
-7.94131
  0
LINE
  8
0
 10
48.2194
 20
-7.94131
 11
48.3127
 21
-8.00519
  0
LINE
  8
0
 10
48.3127
 20
-8.00519
 11
48.3823
 21
-8.12476
  0
LINE
  8
0
 10
48.3823
 20
-8.12476
 11
48.4333
 21
-8.31589
  0
LINE
  8
0
 10
48.4333
 20
-8.31589
 11
48.4636
 21
-8.59152
  0
LINE
  8
0
 10
48.4636
 20
-8.59152
 11
48.4738
 21
-8.96434
  0
LINE
  8
0
 10
48.4738
 20
-8.96434
 11
48.4633
 21
-9.32393
  0
LINE
  8
0
 10
48.4633
 20
-9.32393
 11
48.4322
 21
-9.59706
  0
LINE
  8
0
 10
48.4322
 20
-9.59706
 11
48.3796
 21
-9.79131
  0
LINE
  8
0
 10
48.3796
 20
-9.79131
 11
48.3071
 21
-9.91583
  0
LINE
  8
0
 10
48.3071
 20
-9.91583
 11
48.211
 21
-9.98364
  0
LINE
  8
0
 10
48.211
 20
-9.98364
 11
48.0766
 21
-10.0071
  0
LINE
  8
0
 10
48.0766
 20
-10.0071
 11
47.9409
 21
-9.98479
  0
LINE
  8
0
 10
114.974
 20
-10.4836
 11
115.325
 21
-10.1676
  0
LINE
  8
0
 10
115.325
 20
-10.1676
 11
115.531
 21
-9.65701
  0
LINE
  8
0
 10
115.531
 20
-9.65701
 11
115.599
 21
-8.96431
  0
LINE
  8
0
 10
115.599
 20
-8.96431
 11
115.535
 21
-8.26372
  0
LINE
  8
0
 10
115.535
 20
-8.26372
 11
115.339
 21
-7.75465
  0
LINE
  8
0
 10
115.339
 20
-7.75465
 11
114.996
 21
-7.44293
  0
LINE
  8
0
 10
114.996
 20
-7.44293
 11
114.505
 21
-7.34027
  0
LINE
  8
0
 10
114.505
 20
-7.34027
 11
114.148
 21
-7.38344
  0
LINE
  8
0
 10
114.148
 20
-7.38344
 11
113.866
 21
-7.51445
  0
LINE
  8
0
 10
113.866
 20
-7.51445
 11
113.652
 21
-7.73758
  0
LINE
  8
0
 10
113.652
 20
-7.73758
 11
113.503
 21
-8.0517
  0
LINE
  8
0
 10
113.503
 20
-8.0517
 11
113.414
 21
-8.45883
  0
LINE
  8
0
 10
113.414
 20
-8.45883
 11
113.385
 21
-8.96823
  0
LINE
  8
0
 10
113.385
 20
-8.96823
 11
113.654
 21
-10.1782
  0
LINE
  8
0
 10
113.654
 20
-10.1782
 11
114.479
 21
-10.59
  0
LINE
  8
0
 10
114.479
 20
-10.59
 11
114.974
 21
-10.4836
  0
LINE
  8
0
 10
114.354
 20
-9.98479
 11
114.259
 21
-9.92073
  0
LINE
  8
0
 10
114.259
 20
-9.92073
 11
114.189
 21
-9.80095
  0
LINE
  8
0
 10
114.189
 20
-9.80095
 11
114.137
 21
-9.60893
  0
LINE
  8
0
 10
114.137
 20
-9.60893
 11
114.105
 21
-9.33354
  0
LINE
  8
0
 10
114.105
 20
-9.33354
 11
114.095
 21
-8.96434
  0
LINE
  8
0
 10
114.095
 20
-8.96434
 11
114.105
 21
-8.59172
  0
LINE
  8
0
 10
114.105
 20
-8.59172
 11
114.134
 21
-8.31689
  0
LINE
  8
0
 10
114.134
 20
-8.31689
 11
114.185
 21
-8.12668
  0
LINE
  8
0
 10
114.185
 20
-8.12668
 11
114.257
 21
-8.00679
  0
LINE
  8
0
 10
114.257
 20
-8.00679
 11
114.355
 21
-7.94176
  0
LINE
  8
0
 10
114.355
 20
-7.94176
 11
114.498
 21
-7.91898
  0
LINE
  8
0
 10
114.498
 20
-7.91898
 11
114.632
 21
-7.94131
  0
LINE
  8
0
 10
114.632
 20
-7.94131
 11
114.726
 21
-8.00519
  0
LINE
  8
0
 10
114.726
 20
-8.00519
 11
114.795
 21
-8.12476
  0
LINE
  8
0
 10
114.795
 20
-8.12476
 11
114.846
 21
-8.31589
  0
LINE
  8
0
 10
114.846
 20
-8.31589
 11
114.877
 21
-8.59152
  0
LINE
  8
0
 10
114.877
 20
-8.59152
 11
114.887
 21
-8.96434
  0
LINE
  8
0
 10
114.887
 20
-8.96434
 11
114.876
 21
-9.32393
  0
LINE
  8
0
 10
114.876
 20
-9.32393
 11
114.845
 21
-9.59706
  0
LINE
  8
0
 10
114.845
 20
-9.59706
 11
114.793
 21
-9.79131
  0
LINE
  8
0
 10
114.793
 20
-9.79131
 11
114.72
 21
-9.91583
  0
LINE
  8
0
 10
114.72
 20
-9.91583
 11
114.624
 21
-9.98364
  0
LINE
  8
0
 10
114.624
 20
-9.98364
 11
114.49
 21
-10.0071
  0
LINE
  8
0
 10
114.49
 20
-10.0071
 11
114.354
 21
-9.98479
  0
LINE
  8
0
 10
65.1645
 20
-10.4836
 11
65.5152
 21
-10.1676
  0
LINE
  8
0
 10
65.5152
 20
-10.1676
 11
65.7216
 21
-9.65701
  0
LINE
  8
0
 10
65.7216
 20
-9.65701
 11
65.7892
 21
-8.96431
  0
LINE
  8
0
 10
65.7892
 20
-8.96431
 11
65.7253
 21
-8.26372
  0
LINE
  8
0
 10
65.7253
 20
-8.26372
 11
65.5297
 21
-7.75465
  0
LINE
  8
0
 10
65.5297
 20
-7.75465
 11
65.1864
 21
-7.44293
  0
LINE
  8
0
 10
65.1864
 20
-7.44293
 11
64.6953
 21
-7.34027
  0
LINE
  8
0
 10
64.6953
 20
-7.34027
 11
64.3385
 21
-7.38344
  0
LINE
  8
0
 10
64.3385
 20
-7.38344
 11
64.0559
 21
-7.51445
  0
LINE
  8
0
 10
64.0559
 20
-7.51445
 11
63.8425
 21
-7.73758
  0
LINE
  8
0
 10
63.8425
 20
-7.73758
 11
63.6928
 21
-8.0517
  0
LINE
  8
0
 10
63.6928
 20
-8.0517
 11
63.6045
 21
-8.45883
  0
LINE
  8
0
 10
63.6045
 20
-8.45883
 11
63.5751
 21
-8.96823
  0
LINE
  8
0
 10
63.5751
 20
-8.96823
 11
63.8444
 21
-10.1782
  0
LINE
  8
0
 10
63.8444
 20
-10.1782
 11
64.6691
 21
-10.59
  0
LINE
  8
0
 10
64.6691
 20
-10.59
 11
65.1645
 21
-10.4836
  0
LINE
  8
0
 10
64.5441
 20
-9.98479
 11
64.4494
 21
-9.92073
  0
LINE
  8
0
 10
64.4494
 20
-9.92073
 11
64.3788
 21
-9.80095
  0
LINE
  8
0
 10
64.3788
 20
-9.80095
 11
64.3268
 21
-9.60893
  0
LINE
  8
0
 10
64.3268
 20
-9.60893
 11
64.2957
 21
-9.33354
  0
LINE
  8
0
 10
64.2957
 20
-9.33354
 11
64.2852
 21
-8.96434
  0
LINE
  8
0
 10
64.2852
 20
-8.96434
 11
64.2952
 21
-8.59172
  0
LINE
  8
0
 10
64.2952
 20
-8.59172
 11
64.3246
 21
-8.31689
  0
LINE
  8
0
 10
64.3246
 20
-8.31689
 11
64.3755
 21
-8.12668
  0
LINE
  8
0
 10
64.3755
 20
-8.12668
 11
64.447
 21
-8.00679
  0
LINE
  8
0
 10
64.447
 20
-8.00679
 11
64.5454
 21
-7.94176
  0
LINE
  8
0
 10
64.5454
 20
-7.94176
 11
64.6886
 21
-7.91898
  0
LINE
  8
0
 10
64.6886
 20
-7.91898
 11
64.8226
 21
-7.94131
  0
LINE
  8
0
 10
64.8226
 20
-7.94131
 11
64.9159
 21
-8.00519
  0
LINE
  8
0
 10
64.9159
 20
-8.00519
 11
64.9855
 21
-8.12476
  0
LINE
  8
0
 10
64.9855
 20
-8.12476
 11
65.0365
 21
-8.31589
  0
LINE
  8
0
 10
65.0365
 20
-8.31589
 11
65.0668
 21
-8.59152
  0
LINE
  8
0
 10
65.0668
 20
-8.59152
 11
65.0771
 21
-8.96434
  0
LINE
  8
0
 10
65.0771
 20
-8.96434
 11
65.0666
 21
-9.32393
  0
LINE
  8
0
 10
65.0666
 20
-9.32393
 11
65.0355
 21
-9.59706
  0
LINE
  8
0
 10
65.0355
 20
-9.59706
 11
64.9829
 21
-9.79131
  0
LINE
  8
0
 10
64.9829
 20
-9.79131
 11
64.9103
 21
-9.91583
  0
LINE
  8
0
 10
64.9103
 20
-9.91583
 11
64.8142
 21
-9.98364
  0
LINE
  8
0
 10
64.8142
 20
-9.98364
 11
64.6798
 21
-10.0071
  0
LINE
  8
0
 10
64.6798
 20
-10.0071
 11
64.5441
 21
-9.98479
  0
LINE
  8
0
 10
62.7506
 20
-10.4836
 11
63.1014
 21
-10.1676
  0
LINE
  8
0
 10
63.1014
 20
-10.1676
 11
63.3078
 21
-9.65701
  0
LINE
  8
0
 10
63.3078
 20
-9.65701
 11
63.3754
 21
-8.96431
  0
LINE
  8
0
 10
63.3754
 20
-8.96431
 11
63.3114
 21
-8.26372
  0
LINE
  8
0
 10
63.3114
 20
-8.26372
 11
63.1159
 21
-7.75465
  0
LINE
  8
0
 10
63.1159
 20
-7.75465
 11
62.7726
 21
-7.44293
  0
LINE
  8
0
 10
62.7726
 20
-7.44293
 11
62.2814
 21
-7.34027
  0
LINE
  8
0
 10
62.2814
 20
-7.34027
 11
61.9247
 21
-7.38344
  0
LINE
  8
0
 10
61.9247
 20
-7.38344
 11
61.642
 21
-7.51445
  0
LINE
  8
0
 10
61.642
 20
-7.51445
 11
61.4287
 21
-7.73758
  0
LINE
  8
0
 10
61.4287
 20
-7.73758
 11
61.279
 21
-8.0517
  0
LINE
  8
0
 10
61.279
 20
-8.0517
 11
61.1907
 21
-8.45883
  0
LINE
  8
0
 10
61.1907
 20
-8.45883
 11
61.1613
 21
-8.96823
  0
LINE
  8
0
 10
61.1613
 20
-8.96823
 11
61.4305
 21
-10.1782
  0
LINE
  8
0
 10
61.4305
 20
-10.1782
 11
62.2552
 21
-10.59
  0
LINE
  8
0
 10
62.2552
 20
-10.59
 11
62.7506
 21
-10.4836
  0
LINE
  8
0
 10
62.1303
 20
-9.98479
 11
62.0356
 21
-9.92073
  0
LINE
  8
0
 10
62.0356
 20
-9.92073
 11
61.965
 21
-9.80095
  0
LINE
  8
0
 10
61.965
 20
-9.80095
 11
61.9129
 21
-9.60893
  0
LINE
  8
0
 10
61.9129
 20
-9.60893
 11
61.8819
 21
-9.33354
  0
LINE
  8
0
 10
61.8819
 20
-9.33354
 11
61.8714
 21
-8.96436
  0
LINE
  8
0
 10
61.8714
 20
-8.96436
 11
61.8813
 21
-8.59172
  0
LINE
  8
0
 10
61.8813
 20
-8.59172
 11
61.9108
 21
-8.31689
  0
LINE
  8
0
 10
61.9108
 20
-8.31689
 11
61.9617
 21
-8.12669
  0
LINE
  8
0
 10
61.9617
 20
-8.12669
 11
62.0332
 21
-8.00679
  0
LINE
  8
0
 10
62.0332
 20
-8.00679
 11
62.1315
 21
-7.94174
  0
LINE
  8
0
 10
62.1315
 20
-7.94174
 11
62.2747
 21
-7.91898
  0
LINE
  8
0
 10
62.2747
 20
-7.91898
 11
62.4088
 21
-7.94131
  0
LINE
  8
0
 10
62.4088
 20
-7.94131
 11
62.5021
 21
-8.00519
  0
LINE
  8
0
 10
62.5021
 20
-8.00519
 11
62.5717
 21
-8.12476
  0
LINE
  8
0
 10
62.5717
 20
-8.12476
 11
62.6227
 21
-8.31589
  0
LINE
  8
0
 10
62.6227
 20
-8.31589
 11
62.653
 21
-8.59152
  0
LINE
  8
0
 10
62.653
 20
-8.59152
 11
62.6632
 21
-8.96434
  0
LINE
  8
0
 10
62.6632
 20
-8.96434
 11
62.6527
 21
-9.32393
  0
LINE
  8
0
 10
62.6527
 20
-9.32393
 11
62.6216
 21
-9.59706
  0
LINE
  8
0
 10
62.6216
 20
-9.59706
 11
62.569
 21
-9.79131
  0
LINE
  8
0
 10
62.569
 20
-9.79131
 11
62.4965
 21
-9.91583
  0
LINE
  8
0
 10
62.4965
 20
-9.91583
 11
62.4004
 21
-9.98364
  0
LINE
  8
0
 10
62.4004
 20
-9.98364
 11
62.266
 21
-10.0071
  0
LINE
  8
0
 10
62.266
 20
-10.0071
 11
62.1303
 21
-9.98479
  0
LINE
  8
0
 10
112.56
 20
-10.4836
 11
112.911
 21
-10.1676
  0
LINE
  8
0
 10
112.911
 20
-10.1676
 11
113.118
 21
-9.65701
  0
LINE
  8
0
 10
113.118
 20
-9.65701
 11
113.185
 21
-8.96431
  0
LINE
  8
0
 10
113.185
 20
-8.96431
 11
113.121
 21
-8.26372
  0
LINE
  8
0
 10
113.121
 20
-8.26372
 11
112.926
 21
-7.75465
  0
LINE
  8
0
 10
112.926
 20
-7.75465
 11
112.582
 21
-7.44293
  0
LINE
  8
0
 10
112.582
 20
-7.44293
 11
112.091
 21
-7.34027
  0
LINE
  8
0
 10
112.091
 20
-7.34027
 11
111.734
 21
-7.38344
  0
LINE
  8
0
 10
111.734
 20
-7.38344
 11
111.452
 21
-7.51445
  0
LINE
  8
0
 10
111.452
 20
-7.51445
 11
111.238
 21
-7.73758
  0
LINE
  8
0
 10
111.238
 20
-7.73758
 11
111.089
 21
-8.0517
  0
LINE
  8
0
 10
111.089
 20
-8.0517
 11
111
 21
-8.45883
  0
LINE
  8
0
 10
111
 20
-8.45883
 11
110.971
 21
-8.96823
  0
LINE
  8
0
 10
110.971
 20
-8.96823
 11
111.24
 21
-10.1782
  0
LINE
  8
0
 10
111.24
 20
-10.1782
 11
112.065
 21
-10.59
  0
LINE
  8
0
 10
112.065
 20
-10.59
 11
112.56
 21
-10.4836
  0
LINE
  8
0
 10
111.94
 20
-9.98479
 11
111.845
 21
-9.92073
  0
LINE
  8
0
 10
111.845
 20
-9.92073
 11
111.775
 21
-9.80095
  0
LINE
  8
0
 10
111.775
 20
-9.80095
 11
111.723
 21
-9.60893
  0
LINE
  8
0
 10
111.723
 20
-9.60893
 11
111.692
 21
-9.33354
  0
LINE
  8
0
 10
111.692
 20
-9.33354
 11
111.681
 21
-8.96436
  0
LINE
  8
0
 10
111.681
 20
-8.96436
 11
111.691
 21
-8.59172
  0
LINE
  8
0
 10
111.691
 20
-8.59172
 11
111.721
 21
-8.31689
  0
LINE
  8
0
 10
111.721
 20
-8.31689
 11
111.771
 21
-8.12669
  0
LINE
  8
0
 10
111.771
 20
-8.12669
 11
111.843
 21
-8.00679
  0
LINE
  8
0
 10
111.843
 20
-8.00679
 11
111.941
 21
-7.94174
  0
LINE
  8
0
 10
111.941
 20
-7.94174
 11
112.084
 21
-7.91898
  0
LINE
  8
0
 10
112.084
 20
-7.91898
 11
112.219
 21
-7.94131
  0
LINE
  8
0
 10
112.219
 20
-7.94131
 11
112.312
 21
-8.00519
  0
LINE
  8
0
 10
112.312
 20
-8.00519
 11
112.381
 21
-8.12476
  0
LINE
  8
0
 10
112.381
 20
-8.12476
 11
112.432
 21
-8.31589
  0
LINE
  8
0
 10
112.432
 20
-8.31589
 11
112.463
 21
-8.59152
  0
LINE
  8
0
 10
112.463
 20
-8.59152
 11
112.473
 21
-8.96434
  0
LINE
  8
0
 10
112.473
 20
-8.96434
 11
112.462
 21
-9.32393
  0
LINE
  8
0
 10
112.462
 20
-9.32393
 11
112.431
 21
-9.59706
  0
LINE
  8
0
 10
112.431
 20
-9.59706
 11
112.379
 21
-9.79131
  0
LINE
  8
0
 10
112.379
 20
-9.79131
 11
112.306
 21
-9.91583
  0
LINE
  8
0
 10
112.306
 20
-9.91583
 11
112.21
 21
-9.98364
  0
LINE
  8
0
 10
112.21
 20
-9.98364
 11
112.076
 21
-10.0071
  0
LINE
  8
0
 10
112.076
 20
-10.0071
 11
111.94
 21
-9.98479
  0
LINE
  8
0
 10
15.3547
 20
-10.4836
 11
15.7055
 21
-10.1676
  0
LINE
  8
0
 10
15.7055
 20
-10.1676
 11
15.9119
 21
-9.65701
  0
LINE
  8
0
 10
15.9119
 20
-9.65701
 11
15.9795
 21
-8.96431
  0
LINE
  8
0
 10
15.9795
 20
-8.96431
 11
15.9155
 21
-8.26372
  0
LINE
  8
0
 10
15.9155
 20
-8.26372
 11
15.72
 21
-7.75465
  0
LINE
  8
0
 10
15.72
 20
-7.75465
 11
15.3767
 21
-7.44293
  0
LINE
  8
0
 10
15.3767
 20
-7.44293
 11
14.8855
 21
-7.34027
  0
LINE
  8
0
 10
14.8855
 20
-7.34027
 11
14.5288
 21
-7.38344
  0
LINE
  8
0
 10
14.5288
 20
-7.38344
 11
14.2461
 21
-7.51445
  0
LINE
  8
0
 10
14.2461
 20
-7.51445
 11
14.0328
 21
-7.73758
  0
LINE
  8
0
 10
14.0328
 20
-7.73758
 11
13.8831
 21
-8.0517
  0
LINE
  8
0
 10
13.8831
 20
-8.0517
 11
13.7948
 21
-8.45883
  0
LINE
  8
0
 10
13.7948
 20
-8.45883
 11
13.7654
 21
-8.96823
  0
LINE
  8
0
 10
13.7654
 20
-8.96823
 11
14.0346
 21
-10.1782
  0
LINE
  8
0
 10
14.0346
 20
-10.1782
 11
14.8593
 21
-10.59
  0
LINE
  8
0
 10
14.8593
 20
-10.59
 11
15.3547
 21
-10.4836
  0
LINE
  8
0
 10
14.7344
 20
-9.98479
 11
14.6397
 21
-9.92073
  0
LINE
  8
0
 10
14.6397
 20
-9.92073
 11
14.5691
 21
-9.80095
  0
LINE
  8
0
 10
14.5691
 20
-9.80095
 11
14.517
 21
-9.60893
  0
LINE
  8
0
 10
14.517
 20
-9.60893
 11
14.4859
 21
-9.33354
  0
LINE
  8
0
 10
14.4859
 20
-9.33354
 11
14.4755
 21
-8.96434
  0
LINE
  8
0
 10
14.4755
 20
-8.96434
 11
14.4854
 21
-8.59172
  0
LINE
  8
0
 10
14.4854
 20
-8.59172
 11
14.5149
 21
-8.31689
  0
LINE
  8
0
 10
14.5149
 20
-8.31689
 11
14.5658
 21
-8.12668
  0
LINE
  8
0
 10
14.5658
 20
-8.12668
 11
14.6373
 21
-8.00679
  0
LINE
  8
0
 10
14.6373
 20
-8.00679
 11
14.7356
 21
-7.94176
  0
LINE
  8
0
 10
14.7356
 20
-7.94176
 11
14.8788
 21
-7.91898
  0
LINE
  8
0
 10
14.8788
 20
-7.91898
 11
15.0129
 21
-7.94131
  0
LINE
  8
0
 10
15.0129
 20
-7.94131
 11
15.1062
 21
-8.00519
  0
LINE
  8
0
 10
15.1062
 20
-8.00519
 11
15.1758
 21
-8.12476
  0
LINE
  8
0
 10
15.1758
 20
-8.12476
 11
15.2268
 21
-8.31589
  0
LINE
  8
0
 10
15.2268
 20
-8.31589
 11
15.2571
 21
-8.59152
  0
LINE
  8
0
 10
15.2571
 20
-8.59152
 11
15.2673
 21
-8.96434
  0
LINE
  8
0
 10
15.2673
 20
-8.96434
 11
15.2568
 21
-9.32393
  0
LINE
  8
0
 10
15.2568
 20
-9.32393
 11
15.2257
 21
-9.59706
  0
LINE
  8
0
 10
15.2257
 20
-9.59706
 11
15.1731
 21
-9.79131
  0
LINE
  8
0
 10
15.1731
 20
-9.79131
 11
15.1006
 21
-9.91583
  0
LINE
  8
0
 10
15.1006
 20
-9.91583
 11
15.0045
 21
-9.98364
  0
LINE
  8
0
 10
15.0045
 20
-9.98364
 11
14.8701
 21
-10.0071
  0
LINE
  8
0
 10
14.8701
 20
-10.0071
 11
14.7344
 21
-9.98479
  0
LINE
  8
0
 10
12.9409
 20
-10.4836
 11
13.2916
 21
-10.1676
  0
LINE
  8
0
 10
13.2916
 20
-10.1676
 11
13.498
 21
-9.65701
  0
LINE
  8
0
 10
13.498
 20
-9.65701
 11
13.5656
 21
-8.96431
  0
LINE
  8
0
 10
13.5656
 20
-8.96431
 11
13.5017
 21
-8.26372
  0
LINE
  8
0
 10
13.5017
 20
-8.26372
 11
13.3061
 21
-7.75465
  0
LINE
  8
0
 10
13.3061
 20
-7.75465
 11
12.9628
 21
-7.44293
  0
LINE
  8
0
 10
12.9628
 20
-7.44293
 11
12.4717
 21
-7.34027
  0
LINE
  8
0
 10
12.4717
 20
-7.34027
 11
12.1149
 21
-7.38344
  0
LINE
  8
0
 10
12.1149
 20
-7.38344
 11
11.8323
 21
-7.51445
  0
LINE
  8
0
 10
11.8323
 20
-7.51445
 11
11.6189
 21
-7.73758
  0
LINE
  8
0
 10
11.6189
 20
-7.73758
 11
11.4692
 21
-8.0517
  0
LINE
  8
0
 10
11.4692
 20
-8.0517
 11
11.3809
 21
-8.45883
  0
LINE
  8
0
 10
11.3809
 20
-8.45883
 11
11.3515
 21
-8.96823
  0
LINE
  8
0
 10
11.3515
 20
-8.96823
 11
11.6208
 21
-10.1782
  0
LINE
  8
0
 10
11.6208
 20
-10.1782
 11
12.4455
 21
-10.59
  0
LINE
  8
0
 10
12.4455
 20
-10.59
 11
12.9409
 21
-10.4836
  0
LINE
  8
0
 10
12.3205
 20
-9.98479
 11
12.2258
 21
-9.92073
  0
LINE
  8
0
 10
12.2258
 20
-9.92073
 11
12.1552
 21
-9.80095
  0
LINE
  8
0
 10
12.1552
 20
-9.80095
 11
12.1032
 21
-9.60893
  0
LINE
  8
0
 10
12.1032
 20
-9.60893
 11
12.0721
 21
-9.33354
  0
LINE
  8
0
 10
12.0721
 20
-9.33354
 11
12.0616
 21
-8.96436
  0
LINE
  8
0
 10
12.0616
 20
-8.96436
 11
12.0716
 21
-8.59172
  0
LINE
  8
0
 10
12.0716
 20
-8.59172
 11
12.101
 21
-8.31689
  0
LINE
  8
0
 10
12.101
 20
-8.31689
 11
12.152
 21
-8.12669
  0
LINE
  8
0
 10
12.152
 20
-8.12669
 11
12.2234
 21
-8.00679
  0
LINE
  8
0
 10
12.2234
 20
-8.00679
 11
12.3218
 21
-7.94174
  0
LINE
  8
0
 10
12.3218
 20
-7.94174
 11
12.465
 21
-7.91898
  0
LINE
  8
0
 10
12.465
 20
-7.91898
 11
12.599
 21
-7.94131
  0
LINE
  8
0
 10
12.599
 20
-7.94131
 11
12.6923
 21
-8.00519
  0
LINE
  8
0
 10
12.6923
 20
-8.00519
 11
12.762
 21
-8.12476
  0
LINE
  8
0
 10
12.762
 20
-8.12476
 11
12.813
 21
-8.31589
  0
LINE
  8
0
 10
12.813
 20
-8.31589
 11
12.8432
 21
-8.59152
  0
LINE
  8
0
 10
12.8432
 20
-8.59152
 11
12.8535
 21
-8.96434
  0
LINE
  8
0
 10
12.8535
 20
-8.96434
 11
12.843
 21
-9.32393
  0
LINE
  8
0
 10
12.843
 20
-9.32393
 11
12.8119
 21
-9.59706
  0
LINE
  8
0
 10
12.8119
 20
-9.59706
 11
12.7593
 21
-9.79131
  0
LINE
  8
0
 10
12.7593
 20
-9.79131
 11
12.6867
 21
-9.91583
  0
LINE
  8
0
 10
12.6867
 20
-9.91583
 11
12.5906
 21
-9.98364
  0
LINE
  8
0
 10
12.5906
 20
-9.98364
 11
12.4562
 21
-10.0071
  0
LINE
  8
0
 10
12.4562
 20
-10.0071
 11
12.3205
 21
-9.98479
  0
LINE
  8
0
 10
78.0865
 20
-10.4836
 11
78.4373
 21
-10.1676
  0
LINE
  8
0
 10
78.4373
 20
-10.1676
 11
78.6437
 21
-9.65701
  0
LINE
  8
0
 10
78.6437
 20
-9.65701
 11
78.7113
 21
-8.96431
  0
LINE
  8
0
 10
78.7113
 20
-8.96431
 11
78.6473
 21
-8.26372
  0
LINE
  8
0
 10
78.6473
 20
-8.26372
 11
78.4518
 21
-7.75465
  0
LINE
  8
0
 10
78.4518
 20
-7.75465
 11
78.1085
 21
-7.44293
  0
LINE
  8
0
 10
78.1085
 20
-7.44293
 11
77.6174
 21
-7.34027
  0
LINE
  8
0
 10
77.6174
 20
-7.34027
 11
77.2606
 21
-7.38344
  0
LINE
  8
0
 10
77.2606
 20
-7.38344
 11
76.978
 21
-7.51445
  0
LINE
  8
0
 10
76.978
 20
-7.51445
 11
76.7646
 21
-7.73758
  0
LINE
  8
0
 10
76.7646
 20
-7.73758
 11
76.6149
 21
-8.0517
  0
LINE
  8
0
 10
76.6149
 20
-8.0517
 11
76.5266
 21
-8.45883
  0
LINE
  8
0
 10
76.5266
 20
-8.45883
 11
76.4972
 21
-8.96823
  0
LINE
  8
0
 10
76.4972
 20
-8.96823
 11
76.7665
 21
-10.1782
  0
LINE
  8
0
 10
76.7665
 20
-10.1782
 11
77.5912
 21
-10.59
  0
LINE
  8
0
 10
77.5912
 20
-10.59
 11
78.0865
 21
-10.4836
  0
LINE
  8
0
 10
77.4662
 20
-9.98479
 11
77.3715
 21
-9.92073
  0
LINE
  8
0
 10
77.3715
 20
-9.92073
 11
77.3009
 21
-9.80095
  0
LINE
  8
0
 10
77.3009
 20
-9.80095
 11
77.2489
 21
-9.60893
  0
LINE
  8
0
 10
77.2489
 20
-9.60893
 11
77.2178
 21
-9.33354
  0
LINE
  8
0
 10
77.2178
 20
-9.33354
 11
77.2073
 21
-8.96434
  0
LINE
  8
0
 10
77.2073
 20
-8.96434
 11
77.2173
 21
-8.59172
  0
LINE
  8
0
 10
77.2173
 20
-8.59172
 11
77.2467
 21
-8.31689
  0
LINE
  8
0
 10
77.2467
 20
-8.31689
 11
77.2977
 21
-8.12669
  0
LINE
  8
0
 10
77.2977
 20
-8.12669
 11
77.3691
 21
-8.00679
  0
LINE
  8
0
 10
77.3691
 20
-8.00679
 11
77.4675
 21
-7.94174
  0
LINE
  8
0
 10
77.4675
 20
-7.94174
 11
77.6106
 21
-7.91898
  0
LINE
  8
0
 10
77.6106
 20
-7.91898
 11
77.7447
 21
-7.94131
  0
LINE
  8
0
 10
77.7447
 20
-7.94131
 11
77.838
 21
-8.00519
  0
LINE
  8
0
 10
77.838
 20
-8.00519
 11
77.9076
 21
-8.12476
  0
LINE
  8
0
 10
77.9076
 20
-8.12476
 11
77.9586
 21
-8.31589
  0
LINE
  8
0
 10
77.9586
 20
-8.31589
 11
77.9889
 21
-8.59152
  0
LINE
  8
0
 10
77.9889
 20
-8.59152
 11
77.9991
 21
-8.96434
  0
LINE
  8
0
 10
77.9991
 20
-8.96434
 11
77.9887
 21
-9.32393
  0
LINE
  8
0
 10
77.9887
 20
-9.32393
 11
77.9576
 21
-9.59706
  0
LINE
  8
0
 10
77.9576
 20
-9.59706
 11
77.905
 21
-9.79131
  0
LINE
  8
0
 10
77.905
 20
-9.79131
 11
77.8324
 21
-9.91583
  0
LINE
  8
0
 10
77.8324
 20
-9.91583
 11
77.7363
 21
-9.98364
  0
LINE
  8
0
 10
77.7363
 20
-9.98364
 11
77.6019
 21
-10.0071
  0
LINE
  8
0
 10
77.6019
 20
-10.0071
 11
77.4662
 21
-9.98479
  0
LINE
  8
0
 10
98.371
 20
-10.4836
 11
98.7217
 21
-10.1676
  0
LINE
  8
0
 10
98.7217
 20
-10.1676
 11
98.9281
 21
-9.65701
  0
LINE
  8
0
 10
98.9281
 20
-9.65701
 11
98.9957
 21
-8.96431
  0
LINE
  8
0
 10
98.9957
 20
-8.96431
 11
98.9317
 21
-8.26372
  0
LINE
  8
0
 10
98.9317
 20
-8.26372
 11
98.7362
 21
-7.75465
  0
LINE
  8
0
 10
98.7362
 20
-7.75465
 11
98.3929
 21
-7.44293
  0
LINE
  8
0
 10
98.3929
 20
-7.44293
 11
97.9018
 21
-7.34027
  0
LINE
  8
0
 10
97.9018
 20
-7.34027
 11
97.545
 21
-7.38344
  0
LINE
  8
0
 10
97.545
 20
-7.38344
 11
97.2624
 21
-7.51445
  0
LINE
  8
0
 10
97.2624
 20
-7.51445
 11
97.049
 21
-7.73758
  0
LINE
  8
0
 10
97.049
 20
-7.73758
 11
96.8993
 21
-8.0517
  0
LINE
  8
0
 10
96.8993
 20
-8.0517
 11
96.811
 21
-8.45883
  0
LINE
  8
0
 10
96.811
 20
-8.45883
 11
96.7816
 21
-8.96823
  0
LINE
  8
0
 10
96.7816
 20
-8.96823
 11
97.0509
 21
-10.1782
  0
LINE
  8
0
 10
97.0509
 20
-10.1782
 11
97.8756
 21
-10.59
  0
LINE
  8
0
 10
97.8756
 20
-10.59
 11
98.371
 21
-10.4836
  0
LINE
  8
0
 10
97.7506
 20
-9.98479
 11
97.6559
 21
-9.92073
  0
LINE
  8
0
 10
97.6559
 20
-9.92073
 11
97.5853
 21
-9.80095
  0
LINE
  8
0
 10
97.5853
 20
-9.80095
 11
97.5332
 21
-9.60893
  0
LINE
  8
0
 10
97.5332
 20
-9.60893
 11
97.5022
 21
-9.33354
  0
LINE
  8
0
 10
97.5022
 20
-9.33354
 11
97.4917
 21
-8.96434
  0
LINE
  8
0
 10
97.4917
 20
-8.96434
 11
97.5017
 21
-8.59172
  0
LINE
  8
0
 10
97.5017
 20
-8.59172
 11
97.5311
 21
-8.31689
  0
LINE
  8
0
 10
97.5311
 20
-8.31689
 11
97.582
 21
-8.12668
  0
LINE
  8
0
 10
97.582
 20
-8.12668
 11
97.6535
 21
-8.00679
  0
LINE
  8
0
 10
97.6535
 20
-8.00679
 11
97.7519
 21
-7.94176
  0
LINE
  8
0
 10
97.7519
 20
-7.94176
 11
97.8951
 21
-7.91898
  0
LINE
  8
0
 10
97.8951
 20
-7.91898
 11
98.0291
 21
-7.94131
  0
LINE
  8
0
 10
98.0291
 20
-7.94131
 11
98.1224
 21
-8.00519
  0
LINE
  8
0
 10
98.1224
 20
-8.00519
 11
98.192
 21
-8.12476
  0
LINE
  8
0
 10
98.192
 20
-8.12476
 11
98.243
 21
-8.31589
  0
LINE
  8
0
 10
98.243
 20
-8.31589
 11
98.2733
 21
-8.59152
  0
LINE
  8
0
 10
98.2733
 20
-8.59152
 11
98.2836
 21
-8.96434
  0
LINE
  8
0
 10
98.2836
 20
-8.96434
 11
98.2731
 21
-9.32393
  0
LINE
  8
0
 10
98.2731
 20
-9.32393
 11
98.242
 21
-9.59706
  0
LINE
  8
0
 10
98.242
 20
-9.59706
 11
98.1894
 21
-9.79131
  0
LINE
  8
0
 10
98.1894
 20
-9.79131
 11
98.1168
 21
-9.91583
  0
LINE
  8
0
 10
98.1168
 20
-9.91583
 11
98.0207
 21
-9.98364
  0
LINE
  8
0
 10
98.0207
 20
-9.98364
 11
97.8863
 21
-10.0071
  0
LINE
  8
0
 10
97.8863
 20
-10.0071
 11
97.7506
 21
-9.98479
  0
LINE
  8
0
 10
95.9571
 20
-10.4836
 11
96.3079
 21
-10.1676
  0
LINE
  8
0
 10
96.3079
 20
-10.1676
 11
96.5143
 21
-9.65701
  0
LINE
  8
0
 10
96.5143
 20
-9.65701
 11
96.5819
 21
-8.96431
  0
LINE
  8
0
 10
96.5819
 20
-8.96431
 11
96.5179
 21
-8.26372
  0
LINE
  8
0
 10
96.5179
 20
-8.26372
 11
96.3224
 21
-7.75465
  0
LINE
  8
0
 10
96.3224
 20
-7.75465
 11
95.9791
 21
-7.44293
  0
LINE
  8
0
 10
95.9791
 20
-7.44293
 11
95.4879
 21
-7.34027
  0
LINE
  8
0
 10
95.4879
 20
-7.34027
 11
95.1312
 21
-7.38344
  0
LINE
  8
0
 10
95.1312
 20
-7.38344
 11
94.8485
 21
-7.51445
  0
LINE
  8
0
 10
94.8485
 20
-7.51445
 11
94.6352
 21
-7.73758
  0
LINE
  8
0
 10
94.6352
 20
-7.73758
 11
94.4855
 21
-8.0517
  0
LINE
  8
0
 10
94.4855
 20
-8.0517
 11
94.3972
 21
-8.45883
  0
LINE
  8
0
 10
94.3972
 20
-8.45883
 11
94.3678
 21
-8.96823
  0
LINE
  8
0
 10
94.3678
 20
-8.96823
 11
94.637
 21
-10.1782
  0
LINE
  8
0
 10
94.637
 20
-10.1782
 11
95.4617
 21
-10.59
  0
LINE
  8
0
 10
95.4617
 20
-10.59
 11
95.9571
 21
-10.4836
  0
LINE
  8
0
 10
95.3368
 20
-9.98479
 11
95.2421
 21
-9.92073
  0
LINE
  8
0
 10
95.2421
 20
-9.92073
 11
95.1715
 21
-9.80095
  0
LINE
  8
0
 10
95.1715
 20
-9.80095
 11
95.1194
 21
-9.60893
  0
LINE
  8
0
 10
95.1194
 20
-9.60893
 11
95.0883
 21
-9.33354
  0
LINE
  8
0
 10
95.0883
 20
-9.33354
 11
95.0779
 21
-8.96436
  0
LINE
  8
0
 10
95.0779
 20
-8.96436
 11
95.0878
 21
-8.59172
  0
LINE
  8
0
 10
95.0878
 20
-8.59172
 11
95.1173
 21
-8.31689
  0
LINE
  8
0
 10
95.1173
 20
-8.31689
 11
95.1682
 21
-8.12669
  0
LINE
  8
0
 10
95.1682
 20
-8.12669
 11
95.2397
 21
-8.00679
  0
LINE
  8
0
 10
95.2397
 20
-8.00679
 11
95.338
 21
-7.94174
  0
LINE
  8
0
 10
95.338
 20
-7.94174
 11
95.4812
 21
-7.91898
  0
LINE
  8
0
 10
95.4812
 20
-7.91898
 11
95.6153
 21
-7.94131
  0
LINE
  8
0
 10
95.6153
 20
-7.94131
 11
95.7086
 21
-8.00519
  0
LINE
  8
0
 10
95.7086
 20
-8.00519
 11
95.7782
 21
-8.12476
  0
LINE
  8
0
 10
95.7782
 20
-8.12476
 11
95.8292
 21
-8.31589
  0
LINE
  8
0
 10
95.8292
 20
-8.31589
 11
95.8595
 21
-8.59152
  0
LINE
  8
0
 10
95.8595
 20
-8.59152
 11
95.8697
 21
-8.96434
  0
LINE
  8
0
 10
95.8697
 20
-8.96434
 11
95.8592
 21
-9.32393
  0
LINE
  8
0
 10
95.8592
 20
-9.32393
 11
95.8281
 21
-9.59706
  0
LINE
  8
0
 10
95.8281
 20
-9.59706
 11
95.7755
 21
-9.79131
  0
LINE
  8
0
 10
95.7755
 20
-9.79131
 11
95.703
 21
-9.91583
  0
LINE
  8
0
 10
95.703
 20
-9.91583
 11
95.6069
 21
-9.98364
  0
LINE
  8
0
 10
95.6069
 20
-9.98364
 11
95.4725
 21
-10.0071
  0
LINE
  8
0
 10
95.4725
 20
-10.0071
 11
95.3368
 21
-9.98479
  0
LINE
  8
0
 10
29.5441
 20
-10.4836
 11
29.8949
 21
-10.1676
  0
LINE
  8
0
 10
29.8949
 20
-10.1676
 11
30.1013
 21
-9.65701
  0
LINE
  8
0
 10
30.1013
 20
-9.65701
 11
30.1689
 21
-8.96431
  0
LINE
  8
0
 10
30.1689
 20
-8.96431
 11
30.1049
 21
-8.26372
  0
LINE
  8
0
 10
30.1049
 20
-8.26372
 11
29.9094
 21
-7.75465
  0
LINE
  8
0
 10
29.9094
 20
-7.75465
 11
29.5661
 21
-7.44293
  0
LINE
  8
0
 10
29.5661
 20
-7.44293
 11
29.0749
 21
-7.34027
  0
LINE
  8
0
 10
29.0749
 20
-7.34027
 11
28.7182
 21
-7.38344
  0
LINE
  8
0
 10
28.7182
 20
-7.38344
 11
28.4355
 21
-7.51445
  0
LINE
  8
0
 10
28.4355
 20
-7.51445
 11
28.2222
 21
-7.73758
  0
LINE
  8
0
 10
28.2222
 20
-7.73758
 11
28.0725
 21
-8.0517
  0
LINE
  8
0
 10
28.0725
 20
-8.0517
 11
27.9842
 21
-8.45883
  0
LINE
  8
0
 10
27.9842
 20
-8.45883
 11
27.9548
 21
-8.96823
  0
LINE
  8
0
 10
27.9548
 20
-8.96823
 11
28.224
 21
-10.1782
  0
LINE
  8
0
 10
28.224
 20
-10.1782
 11
29.0487
 21
-10.59
  0
LINE
  8
0
 10
29.0487
 20
-10.59
 11
29.5441
 21
-10.4836
  0
LINE
  8
0
 10
28.9238
 20
-9.98479
 11
28.8291
 21
-9.92073
  0
LINE
  8
0
 10
28.8291
 20
-9.92073
 11
28.7585
 21
-9.80095
  0
LINE
  8
0
 10
28.7585
 20
-9.80095
 11
28.7064
 21
-9.60893
  0
LINE
  8
0
 10
28.7064
 20
-9.60893
 11
28.6754
 21
-9.33354
  0
LINE
  8
0
 10
28.6754
 20
-9.33354
 11
28.6649
 21
-8.96436
  0
LINE
  8
0
 10
28.6649
 20
-8.96436
 11
28.6749
 21
-8.59172
  0
LINE
  8
0
 10
28.6749
 20
-8.59172
 11
28.7043
 21
-8.31689
  0
LINE
  8
0
 10
28.7043
 20
-8.31689
 11
28.7552
 21
-8.12669
  0
LINE
  8
0
 10
28.7552
 20
-8.12669
 11
28.8267
 21
-8.00679
  0
LINE
  8
0
 10
28.8267
 20
-8.00679
 11
28.925
 21
-7.94174
  0
LINE
  8
0
 10
28.925
 20
-7.94174
 11
29.0682
 21
-7.91898
  0
LINE
  8
0
 10
29.0682
 20
-7.91898
 11
29.2023
 21
-7.94131
  0
LINE
  8
0
 10
29.2023
 20
-7.94131
 11
29.2956
 21
-8.00519
  0
LINE
  8
0
 10
29.2956
 20
-8.00519
 11
29.3652
 21
-8.12476
  0
LINE
  8
0
 10
29.3652
 20
-8.12476
 11
29.4162
 21
-8.31589
  0
LINE
  8
0
 10
29.4162
 20
-8.31589
 11
29.4465
 21
-8.59152
  0
LINE
  8
0
 10
29.4465
 20
-8.59152
 11
29.4567
 21
-8.96434
  0
LINE
  8
0
 10
29.4567
 20
-8.96434
 11
29.4462
 21
-9.32393
  0
LINE
  8
0
 10
29.4462
 20
-9.32393
 11
29.4151
 21
-9.59706
  0
LINE
  8
0
 10
29.4151
 20
-9.59706
 11
29.3625
 21
-9.79131
  0
LINE
  8
0
 10
29.3625
 20
-9.79131
 11
29.29
 21
-9.91583
  0
LINE
  8
0
 10
29.29
 20
-9.91583
 11
29.1939
 21
-9.98364
  0
LINE
  8
0
 10
29.1939
 20
-9.98364
 11
29.0595
 21
-10.0071
  0
LINE
  8
0
 10
29.0595
 20
-10.0071
 11
28.9238
 21
-9.98479
  0
LINE
  8
0
 10
94.1722
 20
-9.9427
 11
92.7884
 21
-9.9427
  0
LINE
  8
0
 10
92.7884
 20
-9.9427
 11
92.821
 21
-9.88472
  0
LINE
  8
0
 10
92.821
 20
-9.88472
 11
92.9248
 21
-9.76248
  0
LINE
  8
0
 10
92.9248
 20
-9.76248
 11
93.0532
 21
-9.64235
  0
LINE
  8
0
 10
93.0532
 20
-9.64235
 11
93.197
 21
-9.52139
  0
LINE
  8
0
 10
93.197
 20
-9.52139
 11
93.3507
 21
-9.39871
  0
LINE
  8
0
 10
93.3507
 20
-9.39871
 11
93.5106
 21
-9.27179
  0
LINE
  8
0
 10
93.5106
 20
-9.27179
 11
93.6673
 21
-9.13715
  0
LINE
  8
0
 10
93.6673
 20
-9.13715
 11
93.8104
 21
-8.99184
  0
LINE
  8
0
 10
93.8104
 20
-8.99184
 11
93.9348
 21
-8.83357
  0
LINE
  8
0
 10
93.9348
 20
-8.83357
 11
94.0355
 21
-8.65952
  0
LINE
  8
0
 10
94.0355
 20
-8.65952
 11
94.1024
 21
-8.46562
  0
LINE
  8
0
 10
94.1024
 20
-8.46562
 11
94.1249
 21
-8.24828
  0
LINE
  8
0
 10
94.1249
 20
-8.24828
 11
94.0554
 21
-7.86755
  0
LINE
  8
0
 10
94.0554
 20
-7.86755
 11
93.8432
 21
-7.57771
  0
LINE
  8
0
 10
93.8432
 20
-7.57771
 11
93.5028
 21
-7.39888
  0
LINE
  8
0
 10
93.5028
 20
-7.39888
 11
93.05
 21
-7.34047
  0
LINE
  8
0
 10
93.05
 20
-7.34047
 11
92.6247
 21
-7.39845
  0
LINE
  8
0
 10
92.6247
 20
-7.39845
 11
92.2935
 21
-7.57535
  0
LINE
  8
0
 10
92.2935
 20
-7.57535
 11
92.0686
 21
-7.86545
  0
LINE
  8
0
 10
92.0686
 20
-7.86545
 11
91.9436
 21
-8.30966
  0
LINE
  8
0
 10
91.9436
 20
-8.30966
 11
92.6606
 21
-8.3502
  0
LINE
  8
0
 10
92.6606
 20
-8.3502
 11
92.7176
 21
-8.13423
  0
LINE
  8
0
 10
92.7176
 20
-8.13423
 11
92.7921
 21
-8.01874
  0
LINE
  8
0
 10
92.7921
 20
-8.01874
 11
92.9001
 21
-7.95114
  0
LINE
  8
0
 10
92.9001
 20
-7.95114
 11
93.0502
 21
-7.92822
  0
LINE
  8
0
 10
93.0502
 20
-7.92822
 11
93.3162
 21
-8.01639
  0
LINE
  8
0
 10
93.3162
 20
-8.01639
 11
93.4044
 21
-8.27963
  0
LINE
  8
0
 10
93.4044
 20
-8.27963
 11
93.3763
 21
-8.42287
  0
LINE
  8
0
 10
93.3763
 20
-8.42287
 11
93.2864
 21
-8.57841
  0
LINE
  8
0
 10
93.2864
 20
-8.57841
 11
93.1148
 21
-8.76445
  0
LINE
  8
0
 10
93.1148
 20
-8.76445
 11
92.8438
 21
-9.00021
  0
LINE
  8
0
 10
92.8438
 20
-9.00021
 11
92.5365
 21
-9.26736
  0
LINE
  8
0
 10
92.5365
 20
-9.26736
 11
92.2843
 21
-9.52589
  0
LINE
  8
0
 10
92.2843
 20
-9.52589
 11
92.0853
 21
-9.78394
  0
LINE
  8
0
 10
92.0853
 20
-9.78394
 11
91.9326
 21
-10.0579
  0
LINE
  8
0
 10
91.9326
 20
-10.0579
 11
91.9326
 21
-10.544
  0
LINE
  8
0
 10
91.9326
 20
-10.544
 11
94.1722
 21
-10.544
  0
LINE
  8
0
 10
94.1722
 20
-10.544
 11
94.1722
 21
-9.9427
  0
LINE
  8
0
 10
60.9657
 20
-9.9427
 11
59.5819
 21
-9.9427
  0
LINE
  8
0
 10
59.5819
 20
-9.9427
 11
59.6145
 21
-9.88472
  0
LINE
  8
0
 10
59.6145
 20
-9.88472
 11
59.7183
 21
-9.76248
  0
LINE
  8
0
 10
59.7183
 20
-9.76248
 11
59.8467
 21
-9.64235
  0
LINE
  8
0
 10
59.8467
 20
-9.64235
 11
59.9905
 21
-9.52139
  0
LINE
  8
0
 10
59.9905
 20
-9.52139
 11
60.1442
 21
-9.39871
  0
LINE
  8
0
 10
60.1442
 20
-9.39871
 11
60.3041
 21
-9.27179
  0
LINE
  8
0
 10
60.3041
 20
-9.27179
 11
60.4608
 21
-9.13715
  0
LINE
  8
0
 10
60.4608
 20
-9.13715
 11
60.6039
 21
-8.99184
  0
LINE
  8
0
 10
60.6039
 20
-8.99184
 11
60.7283
 21
-8.83357
  0
LINE
  8
0
 10
60.7283
 20
-8.83357
 11
60.829
 21
-8.65952
  0
LINE
  8
0
 10
60.829
 20
-8.65952
 11
60.896
 21
-8.46562
  0
LINE
  8
0
 10
60.896
 20
-8.46562
 11
60.9184
 21
-8.24828
  0
LINE
  8
0
 10
60.9184
 20
-8.24828
 11
60.8489
 21
-7.86755
  0
LINE
  8
0
 10
60.8489
 20
-7.86755
 11
60.6367
 21
-7.57771
  0
LINE
  8
0
 10
60.6367
 20
-7.57771
 11
60.2963
 21
-7.39888
  0
LINE
  8
0
 10
60.2963
 20
-7.39888
 11
59.8435
 21
-7.34047
  0
LINE
  8
0
 10
59.8435
 20
-7.34047
 11
59.4182
 21
-7.39845
  0
LINE
  8
0
 10
59.4182
 20
-7.39845
 11
59.0871
 21
-7.57535
  0
LINE
  8
0
 10
59.0871
 20
-7.57535
 11
58.8621
 21
-7.86545
  0
LINE
  8
0
 10
58.8621
 20
-7.86545
 11
58.7371
 21
-8.30966
  0
LINE
  8
0
 10
58.7371
 20
-8.30966
 11
59.4541
 21
-8.3502
  0
LINE
  8
0
 10
59.4541
 20
-8.3502
 11
59.5111
 21
-8.13423
  0
LINE
  8
0
 10
59.5111
 20
-8.13423
 11
59.5856
 21
-8.01874
  0
LINE
  8
0
 10
59.5856
 20
-8.01874
 11
59.6936
 21
-7.95114
  0
LINE
  8
0
 10
59.6936
 20
-7.95114
 11
59.8437
 21
-7.92822
  0
LINE
  8
0
 10
59.8437
 20
-7.92822
 11
60.1097
 21
-8.01639
  0
LINE
  8
0
 10
60.1097
 20
-8.01639
 11
60.1979
 21
-8.27963
  0
LINE
  8
0
 10
60.1979
 20
-8.27963
 11
60.1698
 21
-8.42287
  0
LINE
  8
0
 10
60.1698
 20
-8.42287
 11
60.0799
 21
-8.57841
  0
LINE
  8
0
 10
60.0799
 20
-8.57841
 11
59.9083
 21
-8.76445
  0
LINE
  8
0
 10
59.9083
 20
-8.76445
 11
59.6373
 21
-9.00021
  0
LINE
  8
0
 10
59.6373
 20
-9.00021
 11
59.33
 21
-9.26736
  0
LINE
  8
0
 10
59.33
 20
-9.26736
 11
59.0779
 21
-9.52589
  0
LINE
  8
0
 10
59.0779
 20
-9.52589
 11
58.8788
 21
-9.78394
  0
LINE
  8
0
 10
58.8788
 20
-9.78394
 11
58.7261
 21
-10.0579
  0
LINE
  8
0
 10
58.7261
 20
-10.0579
 11
58.7261
 21
-10.544
  0
LINE
  8
0
 10
58.7261
 20
-10.544
 11
60.9657
 21
-10.544
  0
LINE
  8
0
 10
60.9657
 20
-10.544
 11
60.9657
 21
-9.9427
  0
LINE
  8
0
 10
10.5329
 20
-10.5265
 11
10.896
 21
-10.3389
  0
LINE
  8
0
 10
10.896
 20
-10.3389
 11
11.1231
 21
-10.0347
  0
LINE
  8
0
 10
11.1231
 20
-10.0347
 11
11.1979
 21
-9.63336
  0
LINE
  8
0
 10
11.1979
 20
-9.63336
 11
11.1532
 21
-9.33784
  0
LINE
  8
0
 10
11.1532
 20
-9.33784
 11
11.0176
 21
-9.09912
  0
LINE
  8
0
 10
11.0176
 20
-9.09912
 11
10.8029
 21
-8.92987
  0
LINE
  8
0
 10
10.8029
 20
-8.92987
 11
10.6562
 21
-8.88289
  0
LINE
  8
0
 10
10.6562
 20
-8.88289
 11
10.7698
 21
-8.84077
  0
LINE
  8
0
 10
10.7698
 20
-8.84077
 11
10.9599
 21
-8.67491
  0
LINE
  8
0
 10
10.9599
 20
-8.67491
 11
11.0815
 21
-8.4556
  0
LINE
  8
0
 10
11.0815
 20
-8.4556
 11
11.122
 21
-8.2039
  0
LINE
  8
0
 10
11.122
 20
-8.2039
 11
11.0516
 21
-7.8376
  0
LINE
  8
0
 10
11.0516
 20
-7.8376
 11
10.8378
 21
-7.56268
  0
LINE
  8
0
 10
10.8378
 20
-7.56268
 11
10.4962
 21
-7.39517
  0
LINE
  8
0
 10
10.4962
 20
-7.39517
 11
10.0425
 21
-7.34052
  0
LINE
  8
0
 10
10.0425
 20
-7.34052
 11
9.59677
 21
-7.39664
  0
LINE
  8
0
 10
9.59677
 20
-7.39664
 11
9.25813
 21
-7.56841
  0
LINE
  8
0
 10
9.25813
 20
-7.56841
 11
9.04463
 21
-7.84319
  0
LINE
  8
0
 10
9.04463
 20
-7.84319
 11
8.97412
 21
-8.19943
  0
LINE
  8
0
 10
8.97412
 20
-8.19943
 11
9.01492
 21
-8.45181
  0
LINE
  8
0
 10
9.01492
 20
-8.45181
 11
9.13716
 21
-8.67252
  0
LINE
  8
0
 10
9.13716
 20
-8.67252
 11
9.32591
 21
-8.84085
  0
LINE
  8
0
 10
9.32591
 20
-8.84085
 11
9.44243
 21
-8.88693
  0
LINE
  8
0
 10
9.44243
 20
-8.88693
 11
9.29594
 21
-8.93623
  0
LINE
  8
0
 10
9.29594
 20
-8.93623
 11
9.08365
 21
-9.11041
  0
LINE
  8
0
 10
9.08365
 20
-9.11041
 11
8.94763
 21
-9.3502
  0
LINE
  8
0
 10
8.94763
 20
-9.3502
 11
8.90257
 21
-9.63763
  0
LINE
  8
0
 10
8.90257
 20
-9.63763
 11
8.97826
 21
-10.0374
  0
LINE
  8
0
 10
8.97826
 20
-10.0374
 11
9.20789
 21
-10.3402
  0
LINE
  8
0
 10
9.20789
 20
-10.3402
 11
9.5722
 21
-10.5267
  0
LINE
  8
0
 10
9.5722
 20
-10.5267
 11
10.0513
 21
-10.5878
  0
LINE
  8
0
 10
10.0513
 20
-10.5878
 11
10.5329
 21
-10.5265
  0
LINE
  8
0
 10
9.78812
 20
-8.52757
 11
9.70003
 21
-8.23749
  0
LINE
  8
0
 10
9.70003
 20
-8.23749
 11
9.78667
 21
-7.9619
  0
LINE
  8
0
 10
9.78667
 20
-7.9619
 11
10.0477
 21
-7.86963
  0
LINE
  8
0
 10
10.0477
 20
-7.86963
 11
10.2018
 21
-7.89169
  0
LINE
  8
0
 10
10.2018
 20
-7.89169
 11
10.3074
 21
-7.95546
  0
LINE
  8
0
 10
10.3074
 20
-7.95546
 11
10.3709
 21
-8.06564
  0
LINE
  8
0
 10
10.3709
 20
-8.06564
 11
10.3937
 21
-8.23747
  0
LINE
  8
0
 10
10.3937
 20
-8.23747
 11
10.371
 21
-8.42287
  0
LINE
  8
0
 10
10.371
 20
-8.42287
 11
10.3079
 21
-8.53793
  0
LINE
  8
0
 10
10.3079
 20
-8.53793
 11
10.2039
 21
-8.60208
  0
LINE
  8
0
 10
10.2039
 20
-8.60208
 11
10.0523
 21
-8.62424
  0
LINE
  8
0
 10
10.0523
 20
-8.62424
 11
9.78812
 21
-8.52757
  0
LINE
  8
0
 10
9.86334
 20
-10.0289
 11
9.73517
 21
-9.94858
  0
LINE
  8
0
 10
9.73517
 20
-9.94858
 11
9.65814
 21
-9.8083
  0
LINE
  8
0
 10
9.65814
 20
-9.8083
 11
9.63089
 21
-9.59164
  0
LINE
  8
0
 10
9.63089
 20
-9.59164
 11
9.65814
 21
-9.39902
  0
LINE
  8
0
 10
9.65814
 20
-9.39902
 11
9.73602
 21
-9.26419
  0
LINE
  8
0
 10
9.73602
 20
-9.26419
 11
9.86122
 21
-9.18214
  0
LINE
  8
0
 10
9.86122
 20
-9.18214
 11
10.0341
 21
-9.15433
  0
LINE
  8
0
 10
10.0341
 20
-9.15433
 11
10.3568
 21
-9.26239
  0
LINE
  8
0
 10
10.3568
 20
-9.26239
 11
10.4648
 21
-9.5878
  0
LINE
  8
0
 10
10.4648
 20
-9.5878
 11
10.4391
 21
-9.80698
  0
LINE
  8
0
 10
10.4391
 20
-9.80698
 11
10.3656
 21
-9.94931
  0
LINE
  8
0
 10
10.3656
 20
-9.94931
 11
10.2428
 21
-10.029
  0
LINE
  8
0
 10
10.2428
 20
-10.029
 11
10.0556
 21
-10.0572
  0
LINE
  8
0
 10
10.0556
 20
-10.0572
 11
9.86334
 21
-10.0289
  0
LINE
  8
0
 10
110.522
 20
-9.92122
 11
110.93
 21
-9.92122
  0
LINE
  8
0
 10
110.93
 20
-9.92122
 11
110.93
 21
-9.36768
  0
LINE
  8
0
 10
110.93
 20
-9.36768
 11
110.522
 21
-9.36768
  0
LINE
  8
0
 10
110.522
 20
-9.36768
 11
110.522
 21
-7.38647
  0
LINE
  8
0
 10
110.522
 20
-7.38647
 11
109.763
 21
-7.38647
  0
LINE
  8
0
 10
109.763
 20
-7.38647
 11
108.449
 21
-9.39844
  0
LINE
  8
0
 10
108.449
 20
-9.39844
 11
108.449
 21
-9.92122
  0
LINE
  8
0
 10
108.449
 20
-9.92122
 11
109.84
 21
-9.92122
  0
LINE
  8
0
 10
109.84
 20
-9.92122
 11
109.84
 21
-10.544
  0
LINE
  8
0
 10
109.84
 20
-10.544
 11
110.522
 21
-10.544
  0
LINE
  8
0
 10
110.522
 20
-10.544
 11
110.522
 21
-9.92122
  0
LINE
  8
0
 10
109.089
 20
-9.36768
 11
109.748
 21
-8.36603
  0
LINE
  8
0
 10
109.748
 20
-8.36603
 11
109.846
 21
-8.2068
  0
LINE
  8
0
 10
109.846
 20
-8.2068
 11
109.842
 21
-8.29379
  0
LINE
  8
0
 10
109.842
 20
-8.29379
 11
109.84
 21
-8.41692
  0
LINE
  8
0
 10
109.84
 20
-8.41692
 11
109.84
 21
-9.36768
  0
LINE
  8
0
 10
109.84
 20
-9.36768
 11
109.089
 21
-9.36768
  0
LINE
  8
0
 10
44.1086
 20
-9.92122
 11
44.5165
 21
-9.92122
  0
LINE
  8
0
 10
44.5165
 20
-9.92122
 11
44.5165
 21
-9.36768
  0
LINE
  8
0
 10
44.5165
 20
-9.36768
 11
44.1086
 21
-9.36768
  0
LINE
  8
0
 10
44.1086
 20
-9.36768
 11
44.1086
 21
-7.38647
  0
LINE
  8
0
 10
44.1086
 20
-7.38647
 11
43.3501
 21
-7.38647
  0
LINE
  8
0
 10
43.3501
 20
-7.38647
 11
42.036
 21
-9.39844
  0
LINE
  8
0
 10
42.036
 20
-9.39844
 11
42.036
 21
-9.92122
  0
LINE
  8
0
 10
42.036
 20
-9.92122
 11
43.427
 21
-9.92122
  0
LINE
  8
0
 10
43.427
 20
-9.92122
 11
43.427
 21
-10.544
  0
LINE
  8
0
 10
43.427
 20
-10.544
 11
44.1086
 21
-10.544
  0
LINE
  8
0
 10
44.1086
 20
-10.544
 11
44.1086
 21
-9.92122
  0
LINE
  8
0
 10
42.6757
 20
-9.36768
 11
43.3347
 21
-8.36603
  0
LINE
  8
0
 10
43.3347
 20
-8.36603
 11
43.4326
 21
-8.2068
  0
LINE
  8
0
 10
43.4326
 20
-8.2068
 11
43.4289
 21
-8.29379
  0
LINE
  8
0
 10
43.4289
 20
-8.29379
 11
43.427
 21
-8.41692
  0
LINE
  8
0
 10
43.427
 20
-8.41692
 11
43.427
 21
-9.36768
  0
LINE
  8
0
 10
43.427
 20
-9.36768
 11
42.6757
 21
-9.36768
  0
LINE
  8
0
 10
107.49
 20
-9.30928
 11
108.362
 21
-9.30928
  0
LINE
  8
0
 10
108.362
 20
-9.30928
 11
108.362
 21
-8.72321
  0
LINE
  8
0
 10
108.362
 20
-8.72321
 11
107.49
 21
-8.72321
  0
LINE
  8
0
 10
107.49
 20
-8.72321
 11
107.49
 21
-7.83783
  0
LINE
  8
0
 10
107.49
 20
-7.83783
 11
106.9
 21
-7.83783
  0
LINE
  8
0
 10
106.9
 20
-7.83783
 11
106.9
 21
-8.72321
  0
LINE
  8
0
 10
106.9
 20
-8.72321
 11
106.034
 21
-8.72321
  0
LINE
  8
0
 10
106.034
 20
-8.72321
 11
106.034
 21
-9.30928
  0
LINE
  8
0
 10
106.034
 20
-9.30928
 11
106.9
 21
-9.30928
  0
LINE
  8
0
 10
106.9
 20
-9.30928
 11
106.9
 21
-10.1946
  0
LINE
  8
0
 10
106.9
 20
-10.1946
 11
107.49
 21
-10.1946
  0
LINE
  8
0
 10
107.49
 20
-10.1946
 11
107.49
 21
-9.30928
  0
LINE
  8
0
 10
90.8867
 20
-9.30928
 11
91.759
 21
-9.30928
  0
LINE
  8
0
 10
91.759
 20
-9.30928
 11
91.759
 21
-8.72321
  0
LINE
  8
0
 10
91.759
 20
-8.72321
 11
90.8867
 21
-8.72321
  0
LINE
  8
0
 10
90.8867
 20
-8.72321
 11
90.8867
 21
-7.83783
  0
LINE
  8
0
 10
90.8867
 20
-7.83783
 11
90.2963
 21
-7.83783
  0
LINE
  8
0
 10
90.2963
 20
-7.83783
 11
90.2963
 21
-8.72321
  0
LINE
  8
0
 10
90.2963
 20
-8.72321
 11
89.4305
 21
-8.72321
  0
LINE
  8
0
 10
89.4305
 20
-8.72321
 11
89.4305
 21
-9.30928
  0
LINE
  8
0
 10
89.4305
 20
-9.30928
 11
90.2963
 21
-9.30928
  0
LINE
  8
0
 10
90.2963
 20
-9.30928
 11
90.2963
 21
-10.1946
  0
LINE
  8
0
 10
90.2963
 20
-10.1946
 11
90.8867
 21
-10.1946
  0
LINE
  8
0
 10
90.8867
 20
-10.1946
 11
90.8867
 21
-9.30928
  0
LINE
  8
0
 10
25.3439
 20
-8.72321
 11
23.0153
 21
-8.72321
  0
LINE
  8
0
 10
23.0153
 20
-8.72321
 11
23.0153
 21
-9.30928
  0
LINE
  8
0
 10
23.0153
 20
-9.30928
 11
25.3439
 21
-9.30928
  0
LINE
  8
0
 10
25.3439
 20
-9.30928
 11
25.3439
 21
-8.72321
  0
LINE
  8
0
 10
8.74065
 20
-8.72321
 11
6.41203
 21
-8.72321
  0
LINE
  8
0
 10
6.41203
 20
-8.72321
 11
6.41203
 21
-9.30928
  0
LINE
  8
0
 10
6.41203
 20
-9.30928
 11
8.74065
 21
-9.30928
  0
LINE
  8
0
 10
8.74065
 20
-9.30928
 11
8.74065
 21
-8.72321
  0
LINE
  8
0
 10
41.9471
 20
-8.72321
 11
39.6185
 21
-8.72321
  0
LINE
  8
0
 10
39.6185
 20
-8.72321
 11
39.6185
 21
-9.30928
  0
LINE
  8
0
 10
39.6185
 20
-9.30928
 11
41.9471
 21
-9.30928
  0
LINE
  8
0
 10
41.9471
 20
-9.30928
 11
41.9471
 21
-8.72321
  0
LINE
  8
0
 10
58.5504
 20
-8.72321
 11
56.2218
 21
-8.72321
  0
LINE
  8
0
 10
56.2218
 20
-8.72321
 11
56.2218
 21
-9.30928
  0
LINE
  8
0
 10
56.2218
 20
-9.30928
 11
58.5504
 21
-9.30928
  0
LINE
  8
0
 10
58.5504
 20
-9.30928
 11
58.5504
 21
-8.72321
  0
LINE
  8
0
 10
50.2204
 20
-13.1654
 11
50.6826
 21
-13.1654
  0
LINE
  8
0
 10
50.6826
 20
-13.1654
 11
50.6826
 21
-12.6531
  0
LINE
  8
0
 10
50.6826
 20
-12.6531
 11
50.2204
 21
-12.6531
  0
LINE
  8
0
 10
50.2204
 20
-12.6531
 11
50.2204
 21
-12.5216
  0
LINE
  8
0
 10
50.2204
 20
-12.5216
 11
50.2349
 21
-12.4018
  0
LINE
  8
0
 10
50.2349
 20
-12.4018
 11
50.2708
 21
-12.3378
  0
LINE
  8
0
 10
50.2708
 20
-12.3378
 11
50.3367
 21
-12.3027
  0
LINE
  8
0
 10
50.3367
 20
-12.3027
 11
50.4562
 21
-12.2888
  0
LINE
  8
0
 10
50.4562
 20
-12.2888
 11
50.5383
 21
-12.2933
  0
LINE
  8
0
 10
50.5383
 20
-12.2933
 11
50.6826
 21
-12.3171
  0
LINE
  8
0
 10
50.6826
 20
-12.3171
 11
50.6826
 21
-11.8214
  0
LINE
  8
0
 10
50.6826
 20
-11.8214
 11
50.433
 21
-11.7896
  0
LINE
  8
0
 10
50.433
 20
-11.7896
 11
50.2444
 21
-11.7806
  0
LINE
  8
0
 10
50.2444
 20
-11.7806
 11
49.9297
 21
-11.8208
  0
LINE
  8
0
 10
49.9297
 20
-11.8208
 11
49.6971
 21
-11.9469
  0
LINE
  8
0
 10
49.6971
 20
-11.9469
 11
49.5573
 21
-12.1619
  0
LINE
  8
0
 10
49.5573
 20
-12.1619
 11
49.5128
 21
-12.4541
  0
LINE
  8
0
 10
49.5128
 20
-12.4541
 11
49.5128
 21
-12.6531
  0
LINE
  8
0
 10
49.5128
 20
-12.6531
 11
49.17
 21
-12.6531
  0
LINE
  8
0
 10
49.17
 20
-12.6531
 11
49.17
 21
-13.1654
  0
LINE
  8
0
 10
49.17
 20
-13.1654
 11
49.5128
 21
-13.1654
  0
LINE
  8
0
 10
49.5128
 20
-13.1654
 11
49.5128
 21
-15.101
  0
LINE
  8
0
 10
49.5128
 20
-15.101
 11
50.2204
 21
-15.101
  0
LINE
  8
0
 10
50.2204
 20
-15.101
 11
50.2204
 21
-13.1654
  0
LINE
  8
0
 10
70.6181
 20
-14.1961
 11
70.8149
 21
-14.0595
  0
LINE
  8
0
 10
70.8149
 20
-14.0595
 11
71.4292
 21
-15.101
  0
LINE
  8
0
 10
71.4292
 20
-15.101
 11
72.2138
 21
-15.101
  0
LINE
  8
0
 10
72.2138
 20
-15.101
 11
71.2987
 21
-13.6244
  0
LINE
  8
0
 10
71.2987
 20
-13.6244
 11
72.1734
 21
-12.6531
  0
LINE
  8
0
 10
72.1734
 20
-12.6531
 11
71.3828
 21
-12.6531
  0
LINE
  8
0
 10
71.3828
 20
-12.6531
 11
70.6181
 21
-13.5406
  0
LINE
  8
0
 10
70.6181
 20
-13.5406
 11
70.6181
 21
-11.7807
  0
LINE
  8
0
 10
70.6181
 20
-11.7807
 11
69.9083
 21
-11.7807
  0
LINE
  8
0
 10
69.9083
 20
-11.7807
 11
69.9083
 21
-15.101
  0
LINE
  8
0
 10
69.9083
 20
-15.101
 11
70.6181
 21
-15.101
  0
LINE
  8
0
 10
70.6181
 20
-15.101
 11
70.6181
 21
-14.1961
  0
LINE
  8
0
 10
64.0809
 20
-15.0399
 11
64.4591
 21
-14.7215
  0
LINE
  8
0
 10
64.4591
 20
-14.7215
 11
64.6899
 21
-14.1976
  0
LINE
  8
0
 10
64.6899
 20
-14.1976
 11
64.7655
 21
-13.4735
  0
LINE
  8
0
 10
64.7655
 20
-13.4735
 11
64.6973
 21
-12.7928
  0
LINE
  8
0
 10
64.6973
 20
-12.7928
 11
64.4887
 21
-12.2983
  0
LINE
  8
0
 10
64.4887
 20
-12.2983
 11
64.1314
 21
-11.9966
  0
LINE
  8
0
 10
64.1314
 20
-11.9966
 11
63.6315
 21
-11.8972
  0
LINE
  8
0
 10
63.6315
 20
-11.8972
 11
63.1608
 21
-11.9678
  0
LINE
  8
0
 10
63.1608
 20
-11.9678
 11
62.8058
 21
-12.1823
  0
LINE
  8
0
 10
62.8058
 20
-12.1823
 11
62.5847
 21
-12.5247
  0
LINE
  8
0
 10
62.5847
 20
-12.5247
 11
62.5121
 21
-12.9716
  0
LINE
  8
0
 10
62.5121
 20
-12.9716
 11
62.5738
 21
-13.4084
  0
LINE
  8
0
 10
62.5738
 20
-13.4084
 11
62.7617
 21
-13.7491
  0
LINE
  8
0
 10
62.7617
 20
-13.7491
 11
63.0589
 21
-13.9682
  0
LINE
  8
0
 10
63.0589
 20
-13.9682
 11
63.4395
 21
-14.0404
  0
LINE
  8
0
 10
63.4395
 20
-14.0404
 11
63.6624
 21
-14.0159
  0
LINE
  8
0
 10
63.6624
 20
-14.0159
 11
63.869
 21
-13.9426
  0
LINE
  8
0
 10
63.869
 20
-13.9426
 11
64.0426
 21
-13.8244
  0
LINE
  8
0
 10
64.0426
 20
-13.8244
 11
64.0509
 21
-13.8134
  0
LINE
  8
0
 10
64.0509
 20
-13.8134
 11
64.0294
 21
-14.0548
  0
LINE
  8
0
 10
64.0294
 20
-14.0548
 11
63.9303
 21
-14.3436
  0
LINE
  8
0
 10
63.9303
 20
-14.3436
 11
63.7797
 21
-14.5091
  0
LINE
  8
0
 10
63.7797
 20
-14.5091
 11
63.5815
 21
-14.5627
  0
LINE
  8
0
 10
63.5815
 20
-14.5627
 11
63.3632
 21
-14.4932
  0
LINE
  8
0
 10
63.3632
 20
-14.4932
 11
63.216
 21
-14.2417
  0
LINE
  8
0
 10
63.216
 20
-14.2417
 11
62.5468
 21
-14.3354
  0
LINE
  8
0
 10
62.5468
 20
-14.3354
 11
62.7025
 21
-14.7257
  0
LINE
  8
0
 10
62.7025
 20
-14.7257
 11
62.9105
 21
-14.9626
  0
LINE
  8
0
 10
62.9105
 20
-14.9626
 11
63.1999
 21
-15.0999
  0
LINE
  8
0
 10
63.1999
 20
-15.0999
 11
63.576
 21
-15.145
  0
LINE
  8
0
 10
63.576
 20
-15.145
 11
64.0809
 21
-15.0399
  0
LINE
  8
0
 10
63.4563
 20
-13.4517
 11
63.3364
 21
-13.3519
  0
LINE
  8
0
 10
63.3364
 20
-13.3519
 11
63.2584
 21
-13.1907
  0
LINE
  8
0
 10
63.2584
 20
-13.1907
 11
63.2315
 21
-12.9765
  0
LINE
  8
0
 10
63.2315
 20
-12.9765
 11
63.2587
 21
-12.7609
  0
LINE
  8
0
 10
63.2587
 20
-12.7609
 11
63.337
 21
-12.604
  0
LINE
  8
0
 10
63.337
 20
-12.604
 11
63.4565
 21
-12.5085
  0
LINE
  8
0
 10
63.4565
 20
-12.5085
 11
63.6145
 21
-12.4764
  0
LINE
  8
0
 10
63.6145
 20
-12.4764
 11
63.7776
 21
-12.5134
  0
LINE
  8
0
 10
63.7776
 20
-12.5134
 11
63.9053
 21
-12.6244
  0
LINE
  8
0
 10
63.9053
 20
-12.6244
 11
63.9909
 21
-12.8048
  0
LINE
  8
0
 10
63.9909
 20
-12.8048
 11
64.0203
 21
-13.045
  0
LINE
  8
0
 10
64.0203
 20
-13.045
 11
63.9907
 21
-13.2291
  0
LINE
  8
0
 10
63.9907
 20
-13.2291
 11
63.9047
 21
-13.3676
  0
LINE
  8
0
 10
63.9047
 20
-13.3676
 11
63.7764
 21
-13.4558
  0
LINE
  8
0
 10
63.7764
 20
-13.4558
 11
63.6178
 21
-13.4854
  0
LINE
  8
0
 10
63.6178
 20
-13.4854
 11
63.4563
 21
-13.4517
  0
LINE
  8
0
 10
61.7154
 20
-15.0835
 11
62.0785
 21
-14.8959
  0
LINE
  8
0
 10
62.0785
 20
-14.8959
 11
62.3056
 21
-14.5917
  0
LINE
  8
0
 10
62.3056
 20
-14.5917
 11
62.3803
 21
-14.1904
  0
LINE
  8
0
 10
62.3803
 20
-14.1904
 11
62.3356
 21
-13.8948
  0
LINE
  8
0
 10
62.3356
 20
-13.8948
 11
62.2001
 21
-13.6561
  0
LINE
  8
0
 10
62.2001
 20
-13.6561
 11
61.9854
 21
-13.4869
  0
LINE
  8
0
 10
61.9854
 20
-13.4869
 11
61.8387
 21
-13.4399
  0
LINE
  8
0
 10
61.8387
 20
-13.4399
 11
61.9523
 21
-13.3978
  0
LINE
  8
0
 10
61.9523
 20
-13.3978
 11
62.1424
 21
-13.2319
  0
LINE
  8
0
 10
62.1424
 20
-13.2319
 11
62.264
 21
-13.0126
  0
LINE
  8
0
 10
62.264
 20
-13.0126
 11
62.3045
 21
-12.7609
  0
LINE
  8
0
 10
62.3045
 20
-12.7609
 11
62.2341
 21
-12.3946
  0
LINE
  8
0
 10
62.2341
 20
-12.3946
 11
62.0203
 21
-12.1197
  0
LINE
  8
0
 10
62.0203
 20
-12.1197
 11
61.6787
 21
-11.9522
  0
LINE
  8
0
 10
61.6787
 20
-11.9522
 11
61.225
 21
-11.8975
  0
LINE
  8
0
 10
61.225
 20
-11.8975
 11
60.7793
 21
-11.9536
  0
LINE
  8
0
 10
60.7793
 20
-11.9536
 11
60.4406
 21
-12.1254
  0
LINE
  8
0
 10
60.4406
 20
-12.1254
 11
60.2271
 21
-12.4002
  0
LINE
  8
0
 10
60.2271
 20
-12.4002
 11
60.1566
 21
-12.7564
  0
LINE
  8
0
 10
60.1566
 20
-12.7564
 11
60.1974
 21
-13.0088
  0
LINE
  8
0
 10
60.1974
 20
-13.0088
 11
60.3196
 21
-13.2295
  0
LINE
  8
0
 10
60.3196
 20
-13.2295
 11
60.5084
 21
-13.3979
  0
LINE
  8
0
 10
60.5084
 20
-13.3979
 11
60.6249
 21
-13.4439
  0
LINE
  8
0
 10
60.6249
 20
-13.4439
 11
60.4784
 21
-13.4932
  0
LINE
  8
0
 10
60.4784
 20
-13.4932
 11
60.2661
 21
-13.6674
  0
LINE
  8
0
 10
60.2661
 20
-13.6674
 11
60.1301
 21
-13.9072
  0
LINE
  8
0
 10
60.1301
 20
-13.9072
 11
60.0851
 21
-14.1946
  0
LINE
  8
0
 10
60.0851
 20
-14.1946
 11
60.1607
 21
-14.5944
  0
LINE
  8
0
 10
60.1607
 20
-14.5944
 11
60.3904
 21
-14.8972
  0
LINE
  8
0
 10
60.3904
 20
-14.8972
 11
60.7547
 21
-15.0838
  0
LINE
  8
0
 10
60.7547
 20
-15.0838
 11
61.2338
 21
-15.1448
  0
LINE
  8
0
 10
61.2338
 20
-15.1448
 11
61.7154
 21
-15.0835
  0
LINE
  8
0
 10
60.9706
 20
-13.0846
 11
60.8825
 21
-12.7945
  0
LINE
  8
0
 10
60.8825
 20
-12.7945
 11
60.9691
 21
-12.5189
  0
LINE
  8
0
 10
60.9691
 20
-12.5189
 11
61.2302
 21
-12.4266
  0
LINE
  8
0
 10
61.2302
 20
-12.4266
 11
61.3843
 21
-12.4487
  0
LINE
  8
0
 10
61.3843
 20
-12.4487
 11
61.4899
 21
-12.5125
  0
LINE
  8
0
 10
61.4899
 20
-12.5125
 11
61.5533
 21
-12.6227
  0
LINE
  8
0
 10
61.5533
 20
-12.6227
 11
61.5762
 21
-12.7945
  0
LINE
  8
0
 10
61.5762
 20
-12.7945
 11
61.5534
 21
-12.9798
  0
LINE
  8
0
 10
61.5534
 20
-12.9798
 11
61.4903
 21
-13.0949
  0
LINE
  8
0
 10
61.4903
 20
-13.0949
 11
61.3864
 21
-13.1591
  0
LINE
  8
0
 10
61.3864
 20
-13.1591
 11
61.2347
 21
-13.1812
  0
LINE
  8
0
 10
61.2347
 20
-13.1812
 11
60.9706
 21
-13.0846
  0
LINE
  8
0
 10
61.0458
 20
-14.5859
 11
60.9176
 21
-14.5056
  0
LINE
  8
0
 10
60.9176
 20
-14.5056
 11
60.8406
 21
-14.3653
  0
LINE
  8
0
 10
60.8406
 20
-14.3653
 11
60.8134
 21
-14.1486
  0
LINE
  8
0
 10
60.8134
 20
-14.1486
 11
60.8406
 21
-13.956
  0
LINE
  8
0
 10
60.8406
 20
-13.956
 11
60.9185
 21
-13.8212
  0
LINE
  8
0
 10
60.9185
 20
-13.8212
 11
61.0437
 21
-13.7392
  0
LINE
  8
0
 10
61.0437
 20
-13.7392
 11
61.2166
 21
-13.7113
  0
LINE
  8
0
 10
61.2166
 20
-13.7113
 11
61.5392
 21
-13.8194
  0
LINE
  8
0
 10
61.5392
 20
-13.8194
 11
61.6472
 21
-14.1448
  0
LINE
  8
0
 10
61.6472
 20
-14.1448
 11
61.6216
 21
-14.364
  0
LINE
  8
0
 10
61.6216
 20
-14.364
 11
61.5481
 21
-14.5063
  0
LINE
  8
0
 10
61.5481
 20
-14.5063
 11
61.4253
 21
-14.586
  0
LINE
  8
0
 10
61.4253
 20
-14.586
 11
61.2381
 21
-14.6142
  0
LINE
  8
0
 10
61.2381
 20
-14.6142
 11
61.0458
 21
-14.5859
  0
LINE
  8
0
 10
73.0493
 20
-13.7903
 11
74.2817
 21
-13.7903
  0
LINE
  8
0
 10
74.2817
 20
-13.7903
 11
74.2817
 21
-15.101
  0
LINE
  8
0
 10
74.2817
 20
-15.101
 11
75.0218
 21
-15.101
  0
LINE
  8
0
 10
75.0218
 20
-15.101
 11
75.0218
 21
-11.9435
  0
LINE
  8
0
 10
75.0218
 20
-11.9435
 11
74.2817
 21
-11.9435
  0
LINE
  8
0
 10
74.2817
 20
-11.9435
 11
74.2817
 21
-13.1608
  0
LINE
  8
0
 10
74.2817
 20
-13.1608
 11
73.0493
 21
-13.1608
  0
LINE
  8
0
 10
73.0493
 20
-13.1608
 11
73.0493
 21
-11.9435
  0
LINE
  8
0
 10
73.0493
 20
-11.9435
 11
72.3091
 21
-11.9435
  0
LINE
  8
0
 10
72.3091
 20
-11.9435
 11
72.3091
 21
-15.101
  0
LINE
  8
0
 10
72.3091
 20
-15.101
 11
73.0493
 21
-15.101
  0
LINE
  8
0
 10
73.0493
 20
-15.101
 11
73.0493
 21
-13.7903
  0
LINE
  8
0
 10
43.621
 20
-13.7903
 11
44.8534
 21
-13.7903
  0
LINE
  8
0
 10
44.8534
 20
-13.7903
 11
44.8534
 21
-15.101
  0
LINE
  8
0
 10
44.8534
 20
-15.101
 11
45.5936
 21
-15.101
  0
LINE
  8
0
 10
45.5936
 20
-15.101
 11
45.5936
 21
-11.9435
  0
LINE
  8
0
 10
45.5936
 20
-11.9435
 11
44.8534
 21
-11.9435
  0
LINE
  8
0
 10
44.8534
 20
-11.9435
 11
44.8534
 21
-13.1608
  0
LINE
  8
0
 10
44.8534
 20
-13.1608
 11
43.621
 21
-13.1608
  0
LINE
  8
0
 10
43.621
 20
-13.1608
 11
43.621
 21
-11.9435
  0
LINE
  8
0
 10
43.621
 20
-11.9435
 11
42.8809
 21
-11.9435
  0
LINE
  8
0
 10
42.8809
 20
-11.9435
 11
42.8809
 21
-15.101
  0
LINE
  8
0
 10
42.8809
 20
-15.101
 11
43.621
 21
-15.101
  0
LINE
  8
0
 10
43.621
 20
-15.101
 11
43.621
 21
-13.7903
  0
LINE
  8
0
 10
68.1181
 20
-14.4782
 11
68.5261
 21
-14.4782
  0
LINE
  8
0
 10
68.5261
 20
-14.4782
 11
68.5261
 21
-13.9247
  0
LINE
  8
0
 10
68.5261
 20
-13.9247
 11
68.1181
 21
-13.9247
  0
LINE
  8
0
 10
68.1181
 20
-13.9247
 11
68.1181
 21
-11.9435
  0
LINE
  8
0
 10
68.1181
 20
-11.9435
 11
67.3596
 21
-11.9435
  0
LINE
  8
0
 10
67.3596
 20
-11.9435
 11
66.0455
 21
-13.9554
  0
LINE
  8
0
 10
66.0455
 20
-13.9554
 11
66.0455
 21
-14.4782
  0
LINE
  8
0
 10
66.0455
 20
-14.4782
 11
67.4365
 21
-14.4782
  0
LINE
  8
0
 10
67.4365
 20
-14.4782
 11
67.4365
 21
-15.101
  0
LINE
  8
0
 10
67.4365
 20
-15.101
 11
68.1181
 21
-15.101
  0
LINE
  8
0
 10
68.1181
 20
-15.101
 11
68.1181
 21
-14.4782
  0
LINE
  8
0
 10
66.6852
 20
-13.9247
 11
67.3443
 21
-12.923
  0
LINE
  8
0
 10
67.3443
 20
-12.923
 11
67.4422
 21
-12.7638
  0
LINE
  8
0
 10
67.4422
 20
-12.7638
 11
67.4384
 21
-12.8508
  0
LINE
  8
0
 10
67.4384
 20
-12.8508
 11
67.4365
 21
-12.9739
  0
LINE
  8
0
 10
67.4365
 20
-12.9739
 11
67.4365
 21
-13.9247
  0
LINE
  8
0
 10
67.4365
 20
-13.9247
 11
66.6852
 21
-13.9247
  0
LINE
  8
0
 10
55.8997
 20
-13.795
 11
55.9277
 21
-13.5328
  0
LINE
  8
0
 10
55.9277
 20
-13.5328
 11
56.0087
 21
-13.3316
  0
LINE
  8
0
 10
56.0087
 20
-13.3316
 11
56.1259
 21
-13.2069
  0
LINE
  8
0
 10
56.1259
 20
-13.2069
 11
56.2596
 21
-13.1692
  0
LINE
  8
0
 10
56.2596
 20
-13.1692
 11
56.4885
 21
-13.3018
  0
LINE
  8
0
 10
56.4885
 20
-13.3018
 11
56.5723
 21
-13.7385
  0
LINE
  8
0
 10
56.5723
 20
-13.7385
 11
56.5723
 21
-15.101
  0
LINE
  8
0
 10
56.5723
 20
-15.101
 11
57.2777
 21
-15.101
  0
LINE
  8
0
 10
57.2777
 20
-15.101
 11
57.2777
 21
-13.7675
  0
LINE
  8
0
 10
57.2777
 20
-13.7675
 11
57.3129
 21
-13.5067
  0
LINE
  8
0
 10
57.3129
 20
-13.5067
 11
57.3946
 21
-13.3165
  0
LINE
  8
0
 10
57.3946
 20
-13.3165
 11
57.5082
 21
-13.2034
  0
LINE
  8
0
 10
57.5082
 20
-13.2034
 11
57.6372
 21
-13.169
  0
LINE
  8
0
 10
57.6372
 20
-13.169
 11
57.8664
 21
-13.3018
  0
LINE
  8
0
 10
57.8664
 20
-13.3018
 11
57.9502
 21
-13.7385
  0
LINE
  8
0
 10
57.9502
 20
-13.7385
 11
57.9502
 21
-15.101
  0
LINE
  8
0
 10
57.9502
 20
-15.101
 11
58.6556
 21
-15.101
  0
LINE
  8
0
 10
58.6556
 20
-15.101
 11
58.6556
 21
-13.5573
  0
LINE
  8
0
 10
58.6556
 20
-13.5573
 11
58.6093
 21
-13.1608
  0
LINE
  8
0
 10
58.6093
 20
-13.1608
 11
58.4657
 21
-12.8588
  0
LINE
  8
0
 10
58.4657
 20
-12.8588
 11
58.2262
 21
-12.669
  0
LINE
  8
0
 10
58.2262
 20
-12.669
 11
57.9042
 21
-12.6069
  0
LINE
  8
0
 10
57.9042
 20
-12.6069
 11
57.6529
 21
-12.6387
  0
LINE
  8
0
 10
57.6529
 20
-12.6387
 11
57.4478
 21
-12.7355
  0
LINE
  8
0
 10
57.4478
 20
-12.7355
 11
57.2817
 21
-12.9045
  0
LINE
  8
0
 10
57.2817
 20
-12.9045
 11
57.1838
 21
-13.0797
  0
LINE
  8
0
 10
57.1838
 20
-13.0797
 11
56.9903
 21
-12.7433
  0
LINE
  8
0
 10
56.9903
 20
-12.7433
 11
56.5284
 21
-12.6065
  0
LINE
  8
0
 10
56.5284
 20
-12.6065
 11
56.2919
 21
-12.6395
  0
LINE
  8
0
 10
56.2919
 20
-12.6395
 11
56.0923
 21
-12.738
  0
LINE
  8
0
 10
56.0923
 20
-12.738
 11
55.9271
 21
-12.9075
  0
LINE
  8
0
 10
55.9271
 20
-12.9075
 11
55.8758
 21
-13.0015
  0
LINE
  8
0
 10
55.8758
 20
-13.0015
 11
55.8714
 21
-12.9203
  0
LINE
  8
0
 10
55.8714
 20
-12.9203
 11
55.8616
 21
-12.7746
  0
LINE
  8
0
 10
55.8616
 20
-12.7746
 11
55.8494
 21
-12.6531
  0
LINE
  8
0
 10
55.8494
 20
-12.6531
 11
55.1695
 21
-12.6531
  0
LINE
  8
0
 10
55.1695
 20
-12.6531
 11
55.1789
 21
-12.8078
  0
LINE
  8
0
 10
55.1789
 20
-12.8078
 11
55.1846
 21
-12.9215
  0
LINE
  8
0
 10
55.1846
 20
-12.9215
 11
55.1886
 21
-13.057
  0
LINE
  8
0
 10
55.1886
 20
-13.057
 11
55.19
 21
-13.2286
  0
LINE
  8
0
 10
55.19
 20
-13.2286
 11
55.19
 21
-15.101
  0
LINE
  8
0
 10
55.19
 20
-15.101
 11
55.8997
 21
-15.101
  0
LINE
  8
0
 10
55.8997
 20
-15.101
 11
55.8997
 21
-13.795
  0
LINE
  8
0
 10
51.5595
 20
-13.9013
 11
51.5902
 21
-13.5932
  0
LINE
  8
0
 10
51.5902
 20
-13.5932
 11
51.6783
 21
-13.3814
  0
LINE
  8
0
 10
51.6783
 20
-13.3814
 11
51.8125
 21
-13.2594
  0
LINE
  8
0
 10
51.8125
 20
-13.2594
 11
51.9952
 21
-13.2178
  0
LINE
  8
0
 10
51.9952
 20
-13.2178
 11
52.1067
 21
-13.2253
  0
LINE
  8
0
 10
52.1067
 20
-13.2253
 11
52.3016
 21
-13.2596
  0
LINE
  8
0
 10
52.3016
 20
-13.2596
 11
52.3016
 21
-12.6526
  0
LINE
  8
0
 10
52.3016
 20
-12.6526
 11
52.1777
 21
-12.6162
  0
LINE
  8
0
 10
52.1777
 20
-12.6162
 11
52.0624
 21
-12.6073
  0
LINE
  8
0
 10
52.0624
 20
-12.6073
 11
51.921
 21
-12.6205
  0
LINE
  8
0
 10
51.921
 20
-12.6205
 11
51.8013
 21
-12.6613
  0
LINE
  8
0
 10
51.8013
 20
-12.6613
 11
51.7014
 21
-12.7307
  0
LINE
  8
0
 10
51.7014
 20
-12.7307
 11
51.6178
 21
-12.8275
  0
LINE
  8
0
 10
51.6178
 20
-12.8275
 11
51.5395
 21
-12.9724
  0
LINE
  8
0
 10
51.5395
 20
-12.9724
 11
51.5336
 21
-12.9872
  0
LINE
  8
0
 10
51.5336
 20
-12.9872
 11
51.5312
 21
-12.9379
  0
LINE
  8
0
 10
51.5312
 20
-12.9379
 11
51.5213
 21
-12.7781
  0
LINE
  8
0
 10
51.5213
 20
-12.7781
 11
51.5093
 21
-12.6531
  0
LINE
  8
0
 10
51.5093
 20
-12.6531
 11
50.8293
 21
-12.6531
  0
LINE
  8
0
 10
50.8293
 20
-12.6531
 11
50.8386
 21
-12.8131
  0
LINE
  8
0
 10
50.8386
 20
-12.8131
 11
50.8443
 21
-12.9343
  0
LINE
  8
0
 10
50.8443
 20
-12.9343
 11
50.8483
 21
-13.0775
  0
LINE
  8
0
 10
50.8483
 20
-13.0775
 11
50.8497
 21
-13.2546
  0
LINE
  8
0
 10
50.8497
 20
-13.2546
 11
50.8497
 21
-15.101
  0
LINE
  8
0
 10
50.8497
 20
-15.101
 11
51.5595
 21
-15.101
  0
LINE
  8
0
 10
51.5595
 20
-15.101
 11
51.5595
 21
-13.9013
  0
LINE
  8
0
 10
54.1434
 20
-15.061
 11
54.5393
 21
-14.8058
  0
LINE
  8
0
 10
54.5393
 20
-14.8058
 11
54.7881
 21
-14.4016
  0
LINE
  8
0
 10
54.7881
 20
-14.4016
 11
54.8701
 21
-13.8751
  0
LINE
  8
0
 10
54.8701
 20
-13.8751
 11
54.7919
 21
-13.3384
  0
LINE
  8
0
 10
54.7919
 20
-13.3384
 11
54.5536
 21
-12.9374
  0
LINE
  8
0
 10
54.5536
 20
-12.9374
 11
54.1639
 21
-12.6902
  0
LINE
  8
0
 10
54.1639
 20
-12.6902
 11
53.6388
 21
-12.6091
  0
LINE
  8
0
 10
53.6388
 20
-12.6091
 11
53.121
 21
-12.6931
  0
LINE
  8
0
 10
53.121
 20
-12.6931
 11
52.7277
 21
-12.9484
  0
LINE
  8
0
 10
52.7277
 20
-12.9484
 11
52.4823
 21
-13.3515
  0
LINE
  8
0
 10
52.4823
 20
-13.3515
 11
52.4014
 21
-13.8748
  0
LINE
  8
0
 10
52.4014
 20
-13.8748
 11
52.4822
 21
-14.4001
  0
LINE
  8
0
 10
52.4822
 20
-14.4001
 11
52.7276
 21
-14.8045
  0
LINE
  8
0
 10
52.7276
 20
-14.8045
 11
53.1175
 21
-15.0606
  0
LINE
  8
0
 10
53.1175
 20
-15.0606
 11
53.6259
 21
-15.1451
  0
LINE
  8
0
 10
53.6259
 20
-15.1451
 11
54.1434
 21
-15.061
  0
LINE
  8
0
 10
53.4177
 20
-14.5807
 11
53.27
 21
-14.4436
  0
LINE
  8
0
 10
53.27
 20
-14.4436
 11
53.1752
 21
-14.2086
  0
LINE
  8
0
 10
53.1752
 20
-14.2086
 11
53.1428
 21
-13.8782
  0
LINE
  8
0
 10
53.1428
 20
-13.8782
 11
53.2743
 21
-13.3123
  0
LINE
  8
0
 10
53.2743
 20
-13.3123
 11
53.6541
 21
-13.1308
  0
LINE
  8
0
 10
53.6541
 20
-13.1308
 11
53.8546
 21
-13.1721
  0
LINE
  8
0
 10
53.8546
 20
-13.1721
 11
54.0033
 21
-13.2977
  0
LINE
  8
0
 10
54.0033
 20
-13.2977
 11
54.0983
 21
-13.5258
  0
LINE
  8
0
 10
54.0983
 20
-13.5258
 11
54.131
 21
-13.8714
  0
LINE
  8
0
 10
54.131
 20
-13.8714
 11
53.9978
 21
-14.4422
  0
LINE
  8
0
 10
53.9978
 20
-14.4422
 11
53.6137
 21
-14.6252
  0
LINE
  8
0
 10
53.6137
 20
-14.6252
 11
53.4177
 21
-14.5807
  0
LINE
  8
0
 10
77.3078
 20
-14.5561
 11
76.1533
 21
-14.5561
  0
LINE
  8
0
 10
76.1533
 20
-14.5561
 11
77.2014
 21
-13.1559
  0
LINE
  8
0
 10
77.2014
 20
-13.1559
 11
77.2014
 21
-12.6531
  0
LINE
  8
0
 10
77.2014
 20
-12.6531
 11
75.4132
 21
-12.6531
  0
LINE
  8
0
 10
75.4132
 20
-12.6531
 11
75.4132
 21
-13.1936
  0
LINE
  8
0
 10
75.4132
 20
-13.1936
 11
76.3788
 21
-13.1936
  0
LINE
  8
0
 10
76.3788
 20
-13.1936
 11
75.3242
 21
-14.6025
  0
LINE
  8
0
 10
75.3242
 20
-14.6025
 11
75.3242
 21
-15.101
  0
LINE
  8
0
 10
75.3242
 20
-15.101
 11
77.3078
 21
-15.101
  0
LINE
  8
0
 10
77.3078
 20
-15.101
 11
77.3078
 21
-14.5561
  0
LINE
  8
0
 10
47.8795
 20
-14.5561
 11
46.725
 21
-14.5561
  0
LINE
  8
0
 10
46.725
 20
-14.5561
 11
47.7732
 21
-13.1559
  0
LINE
  8
0
 10
47.7732
 20
-13.1559
 11
47.7732
 21
-12.6531
  0
LINE
  8
0
 10
47.7732
 20
-12.6531
 11
45.9849
 21
-12.6531
  0
LINE
  8
0
 10
45.9849
 20
-12.6531
 11
45.9849
 21
-13.1936
  0
LINE
  8
0
 10
45.9849
 20
-13.1936
 11
46.9506
 21
-13.1936
  0
LINE
  8
0
 10
46.9506
 20
-13.1936
 11
45.8959
 21
-14.6025
  0
LINE
  8
0
 10
45.8959
 20
-14.6025
 11
45.8959
 21
-15.101
  0
LINE
  8
0
 10
45.8959
 20
-15.101
 11
47.8795
 21
-15.101
  0
LINE
  8
0
 10
47.8795
 20
-15.101
 11
47.8795
 21
-14.5561
  0
LINE
  8
0
 10
65.8012
 20
-14.3391
 11
65.074
 21
-14.3391
  0
LINE
  8
0
 10
65.074
 20
-14.3391
 11
65.074
 21
-15.101
  0
LINE
  8
0
 10
65.074
 20
-15.101
 11
65.8012
 21
-15.101
  0
LINE
  8
0
 10
65.8012
 20
-15.101
 11
65.8012
 21
-14.3391
  0
ENDSEC
  0
SECTION
  2
OBJECTS
  0
DICTIONARY
  0
ENDSEC
  0
EOF
