  0
SECTION
  2
BLOCKS
  0
ENDSEC
  0
SECTION
  2
ENTITIES
  0
LINE
  8
0
 10
17.35
 20
16.7893
 11
22.65
 21
16.7893
  0
LINE
  8
0
 10
22.65
 20
16.7893
 11
22.65
 21
-0.449997
  0
LINE
  8
0
 10
22.65
 20
-0.449997
 11
339.35
 21
-0.449997
  0
LINE
  8
0
 10
339.35
 20
-0.449997
 11
339.35
 21
16.7893
  0
LINE
  8
0
 10
339.35
 20
16.7893
 11
344.65
 21
16.7893
  0
LINE
  8
0
 10
344.65
 20
16.7893
 11
344.65
 21
-0.449997
  0
LINE
  8
0
 10
344.65
 20
-0.449997
 11
362.45
 21
-0.449997
  0
LINE
  8
0
 10
362.45
 20
-0.449997
 11
362.45
 21
54.9285
  0
LINE
  8
0
 10
362.45
 20
54.9285
 11
302.05
 21
54.9285
  0
LINE
  8
0
 10
302.05
 20
54.9285
 11
302.05
 21
34.9285
  0
LINE
  8
0
 10
302.05
 20
34.9285
 11
259.95
 21
34.9285
  0
LINE
  8
0
 10
259.95
 20
34.9285
 11
259.95
 21
54.9285
  0
LINE
  8
0
 10
259.95
 20
54.9285
 11
102.05
 21
54.9285
  0
LINE
  8
0
 10
102.05
 20
54.9285
 11
102.05
 21
34.9285
  0
LINE
  8
0
 10
102.05
 20
34.9285
 11
59.95
 21
34.9285
  0
LINE
  8
0
 10
59.95
 20
34.9285
 11
59.95
 21
54.9285
  0
LINE
  8
0
 10
59.95
 20
54.9285
 11
-0.449997
 21
54.9285
  0
LINE
  8
0
 10
-0.449997
 20
54.9285
 11
-0.449997
 21
-0.449997
  0
LINE
  8
0
 10
-0.449997
 20
-0.449997
 11
17.35
 21
-0.449997
  0
LINE
  8
0
 10
17.35
 20
-0.449997
 11
17.35
 21
16.7893
  0
ENDSEC
  0
SECTION
  2
OBJECTS
  0
DICTIONARY
  0
ENDSEC
  0
EOF
