  0
SECTION
  2
BLOCKS
  0
ENDSEC
  0
SECTION
  2
ENTITIES
  0
LINE
  8
0
 10
166.725
 20
-70.475
 11
135.375
 21
-70.475
  0
LINE
  8
0
 10
135.375
 20
-70.475
 11
135.375
 21
-103.825
  0
LINE
  8
0
 10
135.375
 20
-103.825
 11
166.725
 21
-103.825
  0
LINE
  8
0
 10
166.725
 20
-103.825
 11
166.725
 21
-70.475
  0
LINE
  8
0
 10
137.125
 20
-102.075
 11
137.125
 21
-72.225
  0
LINE
  8
0
 10
137.125
 20
-72.225
 11
164.975
 21
-72.225
  0
LINE
  8
0
 10
164.975
 20
-72.225
 11
164.975
 21
-102.075
  0
LINE
  8
0
 10
164.975
 20
-102.075
 11
137.125
 21
-102.075
  0
ENDSEC
  0
SECTION
  2
OBJECTS
  0
DICTIONARY
  0
ENDSEC
  0
EOF
