  0
SECTION
  2
BLOCKS
  0
ENDSEC
  0
SECTION
  2
ENTITIES
  0
LINE
  8
0
 10
63.0636
 20
8.99593
 11
61.0309
 21
9.36169
  0
LINE
  8
0
 10
61.0309
 20
9.36169
 11
59.0005
 21
9.78995
  0
LINE
  8
0
 10
59.0005
 20
9.78995
 11
56.9716
 21
10.3167
  0
LINE
  8
0
 10
56.9716
 20
10.3167
 11
54.9487
 21
11.0716
  0
LINE
  8
0
 10
54.9487
 20
11.0716
 11
52.9305
 21
12.3427
  0
LINE
  8
0
 10
52.9305
 20
12.3427
 11
50.9097
 21
14.6348
  0
LINE
  8
0
 10
50.9097
 20
14.6348
 11
48.8822
 21
18.5225
  0
LINE
  8
0
 10
48.8822
 20
18.5225
 11
46.8499
 21
23.9752
  0
LINE
  8
0
 10
46.8499
 20
23.9752
 11
44.8129
 21
29.5097
  0
LINE
  8
0
 10
44.8129
 20
29.5097
 11
42.7321
 21
32.539
  0
LINE
  8
0
 10
42.7321
 20
32.539
 11
40.6178
 21
31.1482
  0
LINE
  8
0
 10
40.6178
 20
31.1482
 11
38.5742
 21
26.3374
  0
LINE
  8
0
 10
38.5742
 20
26.3374
 11
36.5407
 21
20.6893
  0
LINE
  8
0
 10
36.5407
 20
20.6893
 11
34.5113
 21
16.2534
  0
LINE
  8
0
 10
34.5113
 20
16.2534
 11
32.4888
 21
13.5356
  0
LINE
  8
0
 10
32.4888
 20
13.5356
 11
30.4706
 21
12.0383
  0
LINE
  8
0
 10
30.4706
 20
12.0383
 11
28.4483
 21
11.1524
  0
LINE
  8
0
 10
28.4483
 20
11.1524
 11
26.4206
 21
10.5213
  0
LINE
  8
0
 10
26.4206
 20
10.5213
 11
24.3906
 21
10.0243
  0
LINE
  8
0
 10
24.3906
 20
10.0243
 11
22.3592
 21
9.62276
  0
LINE
  8
0
 10
22.3592
 20
9.62276
 11
20.327
 21
9.28403
  0
LINE
  8
0
 10
20.327
 20
9.28403
 11
18.2951
 21
8.97833
  0
LINE
  8
0
 10
18.2951
 20
8.97833
 11
16.2614
 21
8.70537
  0
LINE
  8
0
 10
16.2614
 20
8.70537
 11
14.2303
 21
8.48067
  0
LINE
  8
0
 10
14.2303
 20
8.48067
 11
12.1971
 21
8.30972
  0
LINE
  8
0
 10
12.1971
 20
8.30972
 11
8.13007
 21
8.02779
  0
LINE
  8
0
 10
8.13007
 20
8.02779
 11
6.09491
 21
7.86868
  0
LINE
  8
0
 10
6.09491
 20
7.86868
 11
4.05873
 21
7.65846
  0
LINE
  8
0
 10
4.05873
 20
7.65846
 11
2.02209
 21
7.37308
  0
LINE
  8
0
 10
2.02209
 20
7.37308
 11
-0.0749969
 21
6.99879
  0
LINE
  8
0
 10
-0.0749969
 20
6.99879
 11
-0.0749969
 21
-0.0749969
  0
LINE
  8
0
 10
-0.0749969
 20
-0.0749969
 11
17.925
 21
-0.0749969
  0
LINE
  8
0
 10
17.925
 20
-0.0749969
 11
17.925
 21
-3.075
  0
LINE
  8
0
 10
17.925
 20
-3.075
 11
30.075
 21
-3.075
  0
LINE
  8
0
 10
30.075
 20
-3.075
 11
30.075
 21
-0.0749969
  0
LINE
  8
0
 10
30.075
 20
-0.0749969
 11
89.925
 21
-0.0749969
  0
LINE
  8
0
 10
89.925
 20
-0.0749969
 11
89.925
 21
-3.075
  0
LINE
  8
0
 10
89.925
 20
-3.075
 11
102.075
 21
-3.075
  0
LINE
  8
0
 10
102.075
 20
-3.075
 11
102.075
 21
-0.0749969
  0
LINE
  8
0
 10
102.075
 20
-0.0749969
 11
120.075
 21
-0.0749969
  0
LINE
  8
0
 10
120.075
 20
-0.0749969
 11
120.075
 21
6.65285
  0
LINE
  8
0
 10
120.075
 20
6.65285
 11
117.972
 21
6.86377
  0
LINE
  8
0
 10
117.972
 20
6.86377
 11
115.935
 21
6.98396
  0
LINE
  8
0
 10
115.935
 20
6.98396
 11
113.899
 21
7.02
  0
LINE
  8
0
 10
113.899
 20
7.02
 11
111.864
 21
7.00499
  0
LINE
  8
0
 10
111.864
 20
7.00499
 11
109.83
 21
6.98099
  0
LINE
  8
0
 10
109.83
 20
6.98099
 11
107.797
 21
6.97198
  0
LINE
  8
0
 10
107.797
 20
6.97198
 11
105.764
 21
6.99599
  0
LINE
  8
0
 10
105.764
 20
6.99599
 11
103.732
 21
7.06491
  0
LINE
  8
0
 10
103.732
 20
7.06491
 11
101.699
 21
7.17888
  0
LINE
  8
0
 10
101.699
 20
7.17888
 11
99.6644
 21
7.28992
  0
LINE
  8
0
 10
99.6644
 20
7.28992
 11
97.6292
 21
7.36195
  0
LINE
  8
0
 10
97.6292
 20
7.36195
 11
95.595
 21
7.40398
  0
LINE
  8
0
 10
95.595
 20
7.40398
 11
93.5613
 21
7.45198
  0
LINE
  8
0
 10
93.5613
 20
7.45198
 11
91.5275
 21
7.51495
  0
LINE
  8
0
 10
91.5275
 20
7.51495
 11
89.4927
 21
7.56299
  0
LINE
  8
0
 10
89.4927
 20
7.56299
 11
87.4579
 21
7.57799
  0
LINE
  8
0
 10
87.4579
 20
7.57799
 11
85.4241
 21
7.57799
  0
LINE
  8
0
 10
85.4241
 20
7.57799
 11
83.3908
 21
7.58699
  0
LINE
  8
0
 10
83.3908
 20
7.58699
 11
81.3571
 21
7.61398
  0
LINE
  8
0
 10
81.3571
 20
7.61398
 11
79.3232
 21
7.64697
  0
LINE
  8
0
 10
79.3232
 20
7.64697
 11
77.2897
 21
7.68297
  0
LINE
  8
0
 10
77.2897
 20
7.68297
 11
75.2574
 21
7.73692
  0
LINE
  8
0
 10
75.2574
 20
7.73692
 11
73.2254
 21
7.83884
  0
LINE
  8
0
 10
73.2254
 20
7.83884
 11
71.1931
 21
8.0007
  0
LINE
  8
0
 10
71.1931
 20
8.0007
 11
69.1609
 21
8.20753
  0
LINE
  8
0
 10
69.1609
 20
8.20753
 11
67.127
 21
8.43553
  0
LINE
  8
0
 10
67.127
 20
8.43553
 11
65.0947
 21
8.69034
  0
LINE
  8
0
 10
65.0947
 20
8.69034
 11
63.0636
 21
8.99593
  0
ENDSEC
  0
SECTION
  2
OBJECTS
  0
DICTIONARY
  0
ENDSEC
  0
EOF
