  0
SECTION
  2
BLOCKS
  0
ENDSEC
  0
SECTION
  2
ENTITIES
  0
LINE
  8
0
 10
0.697525
 20
-3.50665
 11
1.36823
 21
-3.30319
  0
LINE
  8
0
 10
1.36823
 20
-3.30319
 11
1.98636
 21
-2.97281
  0
LINE
  8
0
 10
1.98636
 20
-2.97281
 11
2.52815
 21
-2.52815
  0
LINE
  8
0
 10
2.52815
 20
-2.52815
 11
2.97281
 21
-1.98636
  0
LINE
  8
0
 10
2.97281
 20
-1.98636
 11
3.30319
 21
-1.36823
  0
LINE
  8
0
 10
3.30319
 20
-1.36823
 11
3.50665
 21
-0.697525
  0
LINE
  8
0
 10
3.50665
 20
-0.697525
 11
3.57536
 21
0
  0
LINE
  8
0
 10
3.57536
 20
0
 11
3.50665
 21
0.697525
  0
LINE
  8
0
 10
3.50665
 20
0.697525
 11
3.30319
 21
1.36823
  0
LINE
  8
0
 10
3.30319
 20
1.36823
 11
2.97281
 21
1.98636
  0
LINE
  8
0
 10
2.97281
 20
1.98636
 11
2.52815
 21
2.52815
  0
LINE
  8
0
 10
2.52815
 20
2.52815
 11
1.98636
 21
2.97281
  0
LINE
  8
0
 10
1.98636
 20
2.97281
 11
1.36823
 21
3.30319
  0
LINE
  8
0
 10
1.36823
 20
3.30319
 11
0.697525
 21
3.50665
  0
LINE
  8
0
 10
0.697525
 20
3.50665
 11
0
 21
3.57536
  0
LINE
  8
0
 10
0
 20
3.57536
 11
-0.697525
 21
3.50665
  0
LINE
  8
0
 10
-0.697525
 20
3.50665
 11
-1.36823
 21
3.30319
  0
LINE
  8
0
 10
-1.36823
 20
3.30319
 11
-1.98636
 21
2.97281
  0
LINE
  8
0
 10
-1.98636
 20
2.97281
 11
-2.52815
 21
2.52815
  0
LINE
  8
0
 10
-2.52815
 20
2.52815
 11
-2.97281
 21
1.98636
  0
LINE
  8
0
 10
-2.97281
 20
1.98636
 11
-3.30319
 21
1.36823
  0
LINE
  8
0
 10
-3.30319
 20
1.36823
 11
-3.50665
 21
0.697525
  0
LINE
  8
0
 10
-3.50665
 20
0.697525
 11
-3.57536
 21
0
  0
LINE
  8
0
 10
-3.57536
 20
0
 11
-3.50665
 21
-0.697525
  0
LINE
  8
0
 10
-3.50665
 20
-0.697525
 11
-3.30319
 21
-1.36823
  0
LINE
  8
0
 10
-3.30319
 20
-1.36823
 11
-2.97281
 21
-1.98636
  0
LINE
  8
0
 10
-2.97281
 20
-1.98636
 11
-2.52815
 21
-2.52815
  0
LINE
  8
0
 10
-2.52815
 20
-2.52815
 11
-1.98636
 21
-2.97281
  0
LINE
  8
0
 10
-1.98636
 20
-2.97281
 11
-1.36823
 21
-3.30319
  0
LINE
  8
0
 10
-1.36823
 20
-3.30319
 11
-0.697525
 21
-3.50665
  0
LINE
  8
0
 10
-0.697525
 20
-3.50665
 11
0
 21
-3.57536
  0
LINE
  8
0
 10
0
 20
-3.57536
 11
0.697525
 21
-3.50665
  0
LINE
  8
0
 10
-0.307175
 20
-1.54436
 11
-0.6026
 21
-1.45476
  0
LINE
  8
0
 10
-0.6026
 20
-1.45476
 11
-0.874863
 21
-1.30923
  0
LINE
  8
0
 10
-0.874863
 20
-1.30923
 11
-1.11343
 21
-1.11343
  0
LINE
  8
0
 10
-1.11343
 20
-1.11343
 11
-1.30923
 21
-0.874863
  0
LINE
  8
0
 10
-1.30923
 20
-0.874863
 11
-1.45476
 21
-0.6026
  0
LINE
  8
0
 10
-1.45476
 20
-0.6026
 11
-1.54436
 21
-0.307175
  0
LINE
  8
0
 10
-1.54436
 20
-0.307175
 11
-1.57463
 21
0
  0
LINE
  8
0
 10
-1.57463
 20
0
 11
-1.54436
 21
0.307175
  0
LINE
  8
0
 10
-1.54436
 20
0.307175
 11
-1.45476
 21
0.6026
  0
LINE
  8
0
 10
-1.45476
 20
0.6026
 11
-1.30923
 21
0.874863
  0
LINE
  8
0
 10
-1.30923
 20
0.874863
 11
-1.11343
 21
1.11343
  0
LINE
  8
0
 10
-1.11343
 20
1.11343
 11
-0.874863
 21
1.30923
  0
LINE
  8
0
 10
-0.874863
 20
1.30923
 11
-0.6026
 21
1.45476
  0
LINE
  8
0
 10
-0.6026
 20
1.45476
 11
-0.307175
 21
1.54436
  0
LINE
  8
0
 10
-0.307175
 20
1.54436
 11
0
 21
1.57463
  0
LINE
  8
0
 10
0
 20
1.57463
 11
0.307175
 21
1.54436
  0
LINE
  8
0
 10
0.307175
 20
1.54436
 11
0.6026
 21
1.45476
  0
LINE
  8
0
 10
0.6026
 20
1.45476
 11
0.874863
 21
1.30923
  0
LINE
  8
0
 10
0.874863
 20
1.30923
 11
1.11343
 21
1.11343
  0
LINE
  8
0
 10
1.11343
 20
1.11343
 11
1.30923
 21
0.874863
  0
LINE
  8
0
 10
1.30923
 20
0.874863
 11
1.45476
 21
0.6026
  0
LINE
  8
0
 10
1.45476
 20
0.6026
 11
1.54436
 21
0.307175
  0
LINE
  8
0
 10
1.54436
 20
0.307175
 11
1.57463
 21
0
  0
LINE
  8
0
 10
1.57463
 20
0
 11
1.54436
 21
-0.307175
  0
LINE
  8
0
 10
1.54436
 20
-0.307175
 11
1.45476
 21
-0.6026
  0
LINE
  8
0
 10
1.45476
 20
-0.6026
 11
1.30923
 21
-0.874863
  0
LINE
  8
0
 10
1.30923
 20
-0.874863
 11
1.11343
 21
-1.11343
  0
LINE
  8
0
 10
1.11343
 20
-1.11343
 11
0.874863
 21
-1.30923
  0
LINE
  8
0
 10
0.874863
 20
-1.30923
 11
0.6026
 21
-1.45476
  0
LINE
  8
0
 10
0.6026
 20
-1.45476
 11
0.307175
 21
-1.54436
  0
LINE
  8
0
 10
0.307175
 20
-1.54436
 11
0
 21
-1.57463
  0
LINE
  8
0
 10
0
 20
-1.57463
 11
-0.307175
 21
-1.54436
  0
ENDSEC
  0
SECTION
  2
OBJECTS
  0
DICTIONARY
  0
ENDSEC
  0
EOF
