  0
SECTION
  2
BLOCKS
  0
ENDSEC
  0
SECTION
  2
ENTITIES
  0
LINE
  8
0
 10
48.4312
 20
19.518
 11
36.0873
 21
19.518
  0
LINE
  8
0
 10
36.0873
 20
19.518
 11
35.8128
 21
18.918
  0
LINE
  8
0
 10
35.8128
 20
18.918
 11
48.6548
 21
18.918
  0
LINE
  8
0
 10
48.6548
 20
18.918
 11
48.4312
 21
19.518
  0
LINE
  8
0
 10
11.4261
 20
1.38248
 11
11.8381
 21
1.72916
  0
LINE
  8
0
 10
11.8381
 20
1.72916
 11
12.0898
 21
2.30055
  0
LINE
  8
0
 10
12.0898
 20
2.30055
 11
12.1724
 21
3.09132
  0
LINE
  8
0
 10
12.1724
 20
3.09132
 11
12.0979
 21
3.83463
  0
LINE
  8
0
 10
12.0979
 20
3.83463
 11
11.8705
 21
4.37389
  0
LINE
  8
0
 10
11.8705
 20
4.37389
 11
11.4815
 21
4.70235
  0
LINE
  8
0
 10
11.4815
 20
4.70235
 11
10.9366
 21
4.81068
  0
LINE
  8
0
 10
10.9366
 20
4.81068
 11
10.4236
 21
4.73373
  0
LINE
  8
0
 10
10.4236
 20
4.73373
 11
10.037
 21
4.50008
  0
LINE
  8
0
 10
10.037
 20
4.50008
 11
9.7963
 21
4.12737
  0
LINE
  8
0
 10
9.7963
 20
4.12737
 11
9.71716
 21
3.64018
  0
LINE
  8
0
 10
9.71716
 20
3.64018
 11
9.78448
 21
3.16402
  0
LINE
  8
0
 10
9.78448
 20
3.16402
 11
9.98911
 21
2.79305
  0
LINE
  8
0
 10
9.98911
 20
2.79305
 11
10.3124
 21
2.55461
  0
LINE
  8
0
 10
10.3124
 20
2.55461
 11
10.727
 21
2.47603
  0
LINE
  8
0
 10
10.727
 20
2.47603
 11
10.9695
 21
2.50269
  0
LINE
  8
0
 10
10.9695
 20
2.50269
 11
11.1944
 21
2.58244
  0
LINE
  8
0
 10
11.1944
 20
2.58244
 11
11.3831
 21
2.71092
  0
LINE
  8
0
 10
11.3831
 20
2.71092
 11
11.4017
 21
2.73563
  0
LINE
  8
0
 10
11.4017
 20
2.73563
 11
11.3766
 21
2.45451
  0
LINE
  8
0
 10
11.3766
 20
2.45451
 11
11.2677
 21
2.13722
  0
LINE
  8
0
 10
11.2677
 20
2.13722
 11
11.1014
 21
1.9545
  0
LINE
  8
0
 10
11.1014
 20
1.9545
 11
10.882
 21
1.89511
  0
LINE
  8
0
 10
10.882
 20
1.89511
 11
10.6402
 21
1.97206
  0
LINE
  8
0
 10
10.6402
 20
1.97206
 11
10.4799
 21
2.24608
  0
LINE
  8
0
 10
10.4799
 20
2.24608
 11
9.757
 21
2.14476
  0
LINE
  8
0
 10
9.757
 20
2.14476
 11
9.92471
 21
1.72423
  0
LINE
  8
0
 10
9.92471
 20
1.72423
 11
10.1511
 21
1.46643
  0
LINE
  8
0
 10
10.1511
 20
1.46643
 11
10.466
 21
1.31699
  0
LINE
  8
0
 10
10.466
 20
1.31699
 11
10.8759
 21
1.26787
  0
LINE
  8
0
 10
10.8759
 20
1.26787
 11
11.4261
 21
1.38248
  0
LINE
  8
0
 10
10.7431
 20
3.11082
 11
10.6102
 21
3.22144
  0
LINE
  8
0
 10
10.6102
 20
3.22144
 11
10.5242
 21
3.39923
  0
LINE
  8
0
 10
10.5242
 20
3.39923
 11
10.4945
 21
3.63493
  0
LINE
  8
0
 10
10.4945
 20
3.63493
 11
10.5244
 21
3.87209
  0
LINE
  8
0
 10
10.5244
 20
3.87209
 11
10.6109
 21
4.04538
  0
LINE
  8
0
 10
10.6109
 20
4.04538
 11
10.7433
 21
4.15112
  0
LINE
  8
0
 10
10.7433
 20
4.15112
 11
10.9183
 21
4.18665
  0
LINE
  8
0
 10
10.9183
 20
4.18665
 11
11.0987
 21
4.1458
  0
LINE
  8
0
 10
11.0987
 20
4.1458
 11
11.2401
 21
4.02293
  0
LINE
  8
0
 10
11.2401
 20
4.02293
 11
11.3345
 21
3.82407
  0
LINE
  8
0
 10
11.3345
 20
3.82407
 11
11.3667
 21
3.55991
  0
LINE
  8
0
 10
11.3667
 20
3.55991
 11
11.3342
 21
3.35699
  0
LINE
  8
0
 10
11.3342
 20
3.35699
 11
11.2391
 21
3.20383
  0
LINE
  8
0
 10
11.2391
 20
3.20383
 11
11.0971
 21
3.10626
  0
LINE
  8
0
 10
11.0971
 20
3.10626
 11
10.9218
 21
3.07355
  0
LINE
  8
0
 10
10.9218
 20
3.07355
 11
10.7431
 21
3.11082
  0
LINE
  8
0
 10
14.5204
 20
1.99712
 11
14.9666
 21
1.99712
  0
LINE
  8
0
 10
14.9666
 20
1.99712
 11
14.9666
 21
2.59317
  0
LINE
  8
0
 10
14.9666
 20
2.59317
 11
14.5204
 21
2.59317
  0
LINE
  8
0
 10
14.5204
 20
2.59317
 11
14.5204
 21
4.76012
  0
LINE
  8
0
 10
14.5204
 20
4.76012
 11
13.6981
 21
4.76012
  0
LINE
  8
0
 10
13.6981
 20
4.76012
 11
12.2629
 21
2.56281
  0
LINE
  8
0
 10
12.2629
 20
2.56281
 11
12.2629
 21
1.99712
  0
LINE
  8
0
 10
12.2629
 20
1.99712
 11
13.7843
 21
1.99712
  0
LINE
  8
0
 10
13.7843
 20
1.99712
 11
13.7843
 21
1.31595
  0
LINE
  8
0
 10
13.7843
 20
1.31595
 11
14.5204
 21
1.31595
  0
LINE
  8
0
 10
14.5204
 20
1.31595
 11
14.5204
 21
1.99712
  0
LINE
  8
0
 10
12.9492
 20
2.59317
 11
13.6747
 21
3.69592
  0
LINE
  8
0
 10
13.6747
 20
3.69592
 11
13.7913
 21
3.88541
  0
LINE
  8
0
 10
13.7913
 20
3.88541
 11
13.7864
 21
3.77228
  0
LINE
  8
0
 10
13.7864
 20
3.77228
 11
13.7843
 21
3.63771
  0
LINE
  8
0
 10
13.7843
 20
3.63771
 11
13.7843
 21
2.59317
  0
LINE
  8
0
 10
13.7843
 20
2.59317
 11
12.9492
 21
2.59317
  0
LINE
  8
0
 10
9.2401
 20
1.99712
 11
9.68633
 21
1.99712
  0
LINE
  8
0
 10
9.68633
 20
1.99712
 11
9.68633
 21
2.59317
  0
LINE
  8
0
 10
9.68633
 20
2.59317
 11
9.2401
 21
2.59317
  0
LINE
  8
0
 10
9.2401
 20
2.59317
 11
9.2401
 21
4.76012
  0
LINE
  8
0
 10
9.2401
 20
4.76012
 11
8.41777
 21
4.76012
  0
LINE
  8
0
 10
8.41777
 20
4.76012
 11
6.98262
 21
2.56281
  0
LINE
  8
0
 10
6.98262
 20
2.56281
 11
6.98262
 21
1.99712
  0
LINE
  8
0
 10
6.98262
 20
1.99712
 11
8.50401
 21
1.99712
  0
LINE
  8
0
 10
8.50401
 20
1.99712
 11
8.50401
 21
1.31595
  0
LINE
  8
0
 10
8.50401
 20
1.31595
 11
9.2401
 21
1.31595
  0
LINE
  8
0
 10
9.2401
 20
1.31595
 11
9.2401
 21
1.99712
  0
LINE
  8
0
 10
7.66888
 20
2.59317
 11
8.39445
 21
3.69592
  0
LINE
  8
0
 10
8.39445
 20
3.69592
 11
8.51097
 21
3.88539
  0
LINE
  8
0
 10
8.51097
 20
3.88539
 11
8.50609
 21
3.77228
  0
LINE
  8
0
 10
8.50609
 20
3.77228
 11
8.50401
 21
3.63771
  0
LINE
  8
0
 10
8.50401
 20
3.63771
 11
8.50401
 21
2.59317
  0
LINE
  8
0
 10
8.50401
 20
2.59317
 11
7.66888
 21
2.59317
  0
LINE
  8
0
 10
17.1757
 20
2.17039
 11
18.3791
 21
2.17039
  0
LINE
  8
0
 10
18.3791
 20
2.17039
 11
18.6758
 21
1.31595
  0
LINE
  8
0
 10
18.6758
 20
1.31595
 11
19.4758
 21
1.31595
  0
LINE
  8
0
 10
19.4758
 20
1.31595
 11
18.2242
 21
4.76012
  0
LINE
  8
0
 10
18.2242
 20
4.76012
 11
17.3282
 21
4.76012
  0
LINE
  8
0
 10
17.3282
 20
4.76012
 11
16.0718
 21
1.31595
  0
LINE
  8
0
 10
16.0718
 20
1.31595
 11
16.879
 21
1.31595
  0
LINE
  8
0
 10
16.879
 20
1.31595
 11
17.1757
 21
2.17039
  0
LINE
  8
0
 10
17.3667
 20
2.79729
 11
17.6337
 21
3.57739
  0
LINE
  8
0
 10
17.6337
 20
3.57739
 11
17.7527
 21
3.93314
  0
LINE
  8
0
 10
17.7527
 20
3.93314
 11
17.778
 21
4.01767
  0
LINE
  8
0
 10
17.778
 20
4.01767
 11
17.8806
 21
3.69286
  0
LINE
  8
0
 10
17.8806
 20
3.69286
 11
18.188
 21
2.79729
  0
LINE
  8
0
 10
18.188
 20
2.79729
 11
17.3667
 21
2.79729
  0
LINE
  8
0
 10
5.61806
 20
1.912
 11
4.85144
 21
1.912
  0
LINE
  8
0
 10
4.85144
 20
1.912
 11
4.85144
 21
4.76012
  0
LINE
  8
0
 10
4.85144
 20
4.76012
 11
4.1553
 21
4.76012
  0
LINE
  8
0
 10
4.1553
 20
4.76012
 11
3.28227
 21
4.19376
  0
LINE
  8
0
 10
3.28227
 20
4.19376
 11
3.28227
 21
3.55188
  0
LINE
  8
0
 10
3.28227
 20
3.55188
 11
4.08447
 21
4.0527
  0
LINE
  8
0
 10
4.08447
 20
4.0527
 11
4.08447
 21
1.912
  0
LINE
  8
0
 10
4.08447
 20
1.912
 11
3.25616
 21
1.912
  0
LINE
  8
0
 10
3.25616
 20
1.912
 11
3.25616
 21
1.31595
  0
LINE
  8
0
 10
3.25616
 20
1.31595
 11
5.61806
 21
1.31595
  0
LINE
  8
0
 10
5.61806
 20
1.31595
 11
5.61806
 21
1.912
  0
LINE
  8
0
 10
6.70598
 20
2.13985
 11
5.92004
 21
2.13985
  0
LINE
  8
0
 10
5.92004
 20
2.13985
 11
5.92004
 21
1.31595
  0
LINE
  8
0
 10
5.92004
 20
1.31595
 11
6.70598
 21
1.31595
  0
LINE
  8
0
 10
6.70598
 20
1.31595
 11
6.70598
 21
2.13985
  0
ENDSEC
  0
SECTION
  2
OBJECTS
  0
DICTIONARY
  0
ENDSEC
  0
EOF
