  0
SECTION
  2
BLOCKS
  0
ENDSEC
  0
SECTION
  2
ENTITIES
  0
LINE
  8
0
 10
179.892
 20
-117.474
 11
180.276
 21
-117.398
  0
LINE
  8
0
 10
180.276
 20
-117.398
 11
180.648
 21
-117.272
  0
LINE
  8
0
 10
180.648
 20
-117.272
 11
181
 21
-117.098
  0
LINE
  8
0
 10
181
 20
-117.098
 11
181.326
 21
-116.88
  0
LINE
  8
0
 10
181.326
 20
-116.88
 11
181.621
 21
-116.621
  0
LINE
  8
0
 10
181.621
 20
-116.621
 11
181.88
 21
-116.326
  0
LINE
  8
0
 10
181.88
 20
-116.326
 11
182.098
 21
-116
  0
LINE
  8
0
 10
182.098
 20
-116
 11
182.272
 21
-115.648
  0
LINE
  8
0
 10
182.272
 20
-115.648
 11
182.398
 21
-115.276
  0
LINE
  8
0
 10
182.398
 20
-115.276
 11
182.474
 21
-114.892
  0
LINE
  8
0
 10
182.474
 20
-114.892
 11
182.5
 21
-114.5
  0
LINE
  8
0
 10
182.5
 20
-114.5
 11
182.5
 21
-15.5
  0
LINE
  8
0
 10
182.5
 20
-15.5
 11
182.474
 21
-15.1084
  0
LINE
  8
0
 10
182.474
 20
-15.1084
 11
182.398
 21
-14.7235
  0
LINE
  8
0
 10
182.398
 20
-14.7235
 11
182.272
 21
-14.3519
  0
LINE
  8
0
 10
182.272
 20
-14.3519
 11
182.098
 21
-14
  0
LINE
  8
0
 10
182.098
 20
-14
 11
181.88
 21
-13.6737
  0
LINE
  8
0
 10
181.88
 20
-13.6737
 11
181.621
 21
-13.3787
  0
LINE
  8
0
 10
181.621
 20
-13.3787
 11
181.326
 21
-13.1199
  0
LINE
  8
0
 10
181.326
 20
-13.1199
 11
181
 21
-12.9019
  0
LINE
  8
0
 10
181
 20
-12.9019
 11
180.648
 21
-12.7283
  0
LINE
  8
0
 10
180.648
 20
-12.7283
 11
180.276
 21
-12.6022
  0
LINE
  8
0
 10
180.276
 20
-12.6022
 11
179.892
 21
-12.5257
  0
LINE
  8
0
 10
179.892
 20
-12.5257
 11
179.5
 21
-12.5
  0
LINE
  8
0
 10
179.5
 20
-12.5
 11
0.5
 21
-12.5
  0
LINE
  8
0
 10
0.5
 20
-12.5
 11
0.108414
 21
-12.5257
  0
LINE
  8
0
 10
0.108414
 20
-12.5257
 11
-0.276443
 21
-12.6022
  0
LINE
  8
0
 10
-0.276443
 20
-12.6022
 11
-0.648041
 21
-12.7283
  0
LINE
  8
0
 10
-0.648041
 20
-12.7283
 11
-1
 21
-12.9019
  0
LINE
  8
0
 10
-1
 20
-12.9019
 11
-1.32628
 21
-13.1199
  0
LINE
  8
0
 10
-1.32628
 20
-13.1199
 11
-1.62131
 21
-13.3787
  0
LINE
  8
0
 10
-1.62131
 20
-13.3787
 11
-1.88005
 21
-13.6737
  0
LINE
  8
0
 10
-1.88005
 20
-13.6737
 11
-2.09807
 21
-14
  0
LINE
  8
0
 10
-2.09807
 20
-14
 11
-2.27164
 21
-14.3519
  0
LINE
  8
0
 10
-2.27164
 20
-14.3519
 11
-2.39777
 21
-14.7235
  0
LINE
  8
0
 10
-2.39777
 20
-14.7235
 11
-2.47432
 21
-15.1084
  0
LINE
  8
0
 10
-2.47432
 20
-15.1084
 11
-2.5
 21
-15.5
  0
LINE
  8
0
 10
-2.5
 20
-15.5
 11
-2.5
 21
-114.5
  0
LINE
  8
0
 10
-2.5
 20
-114.5
 11
-2.47432
 21
-114.892
  0
LINE
  8
0
 10
-2.47432
 20
-114.892
 11
-2.39777
 21
-115.276
  0
LINE
  8
0
 10
-2.39777
 20
-115.276
 11
-2.27164
 21
-115.648
  0
LINE
  8
0
 10
-2.27164
 20
-115.648
 11
-2.09807
 21
-116
  0
LINE
  8
0
 10
-2.09807
 20
-116
 11
-1.88005
 21
-116.326
  0
LINE
  8
0
 10
-1.88005
 20
-116.326
 11
-1.62131
 21
-116.621
  0
LINE
  8
0
 10
-1.62131
 20
-116.621
 11
-1.32628
 21
-116.88
  0
LINE
  8
0
 10
-1.32628
 20
-116.88
 11
-1
 21
-117.098
  0
LINE
  8
0
 10
-1
 20
-117.098
 11
-0.648041
 21
-117.272
  0
LINE
  8
0
 10
-0.648041
 20
-117.272
 11
-0.276443
 21
-117.398
  0
LINE
  8
0
 10
-0.276443
 20
-117.398
 11
0.108414
 21
-117.474
  0
LINE
  8
0
 10
0.108414
 20
-117.474
 11
0.5
 21
-117.5
  0
LINE
  8
0
 10
0.5
 20
-117.5
 11
179.5
 21
-117.5
  0
LINE
  8
0
 10
179.5
 20
-117.5
 11
179.892
 21
-117.474
  0
LINE
  8
0
 10
7.78462
 20
-20.1359
 11
7.57294
 21
-20.0938
  0
LINE
  8
0
 10
7.57294
 20
-20.0938
 11
7.36856
 21
-20.0244
  0
LINE
  8
0
 10
7.36856
 20
-20.0244
 11
7.17499
 21
-19.9289
  0
LINE
  8
0
 10
7.17499
 20
-19.9289
 11
6.99553
 21
-19.809
  0
LINE
  8
0
 10
6.99553
 20
-19.809
 11
6.83327
 21
-19.6667
  0
LINE
  8
0
 10
6.83327
 20
-19.6667
 11
6.69096
 21
-19.5045
  0
LINE
  8
0
 10
6.69096
 20
-19.5045
 11
6.57104
 21
-19.325
  0
LINE
  8
0
 10
6.57104
 20
-19.325
 11
6.47559
 21
-19.1314
  0
LINE
  8
0
 10
6.47559
 20
-19.1314
 11
6.40622
 21
-18.927
  0
LINE
  8
0
 10
6.40622
 20
-18.927
 11
6.36411
 21
-18.7154
  0
LINE
  8
0
 10
6.36411
 20
-18.7154
 11
6.34999
 21
-18.5
  0
LINE
  8
0
 10
6.34999
 20
-18.5
 11
6.36411
 21
-18.2846
  0
LINE
  8
0
 10
6.36411
 20
-18.2846
 11
6.40622
 21
-18.0729
  0
LINE
  8
0
 10
6.40622
 20
-18.0729
 11
6.47559
 21
-17.8686
  0
LINE
  8
0
 10
6.47559
 20
-17.8686
 11
6.57104
 21
-17.675
  0
LINE
  8
0
 10
6.57104
 20
-17.675
 11
6.69096
 21
-17.4955
  0
LINE
  8
0
 10
6.69096
 20
-17.4955
 11
6.83327
 21
-17.3333
  0
LINE
  8
0
 10
6.83327
 20
-17.3333
 11
6.99553
 21
-17.191
  0
LINE
  8
0
 10
6.99553
 20
-17.191
 11
7.17499
 21
-17.071
  0
LINE
  8
0
 10
7.17499
 20
-17.071
 11
7.36856
 21
-16.9756
  0
LINE
  8
0
 10
7.36856
 20
-16.9756
 11
7.57294
 21
-16.9062
  0
LINE
  8
0
 10
7.57294
 20
-16.9062
 11
7.78462
 21
-16.8641
  0
LINE
  8
0
 10
7.78462
 20
-16.8641
 11
8
 21
-16.85
  0
LINE
  8
0
 10
8
 20
-16.85
 11
8.21536
 21
-16.8641
  0
LINE
  8
0
 10
8.21536
 20
-16.8641
 11
8.42705
 21
-16.9062
  0
LINE
  8
0
 10
8.42705
 20
-16.9062
 11
8.63142
 21
-16.9756
  0
LINE
  8
0
 10
8.63142
 20
-16.9756
 11
8.825
 21
-17.071
  0
LINE
  8
0
 10
8.825
 20
-17.071
 11
9.00446
 21
-17.191
  0
LINE
  8
0
 10
9.00446
 20
-17.191
 11
9.16672
 21
-17.3333
  0
LINE
  8
0
 10
9.16672
 20
-17.3333
 11
9.30902
 21
-17.4955
  0
LINE
  8
0
 10
9.30902
 20
-17.4955
 11
9.42894
 21
-17.675
  0
LINE
  8
0
 10
9.42894
 20
-17.675
 11
9.5244
 21
-17.8686
  0
LINE
  8
0
 10
9.5244
 20
-17.8686
 11
9.59377
 21
-18.0729
  0
LINE
  8
0
 10
9.59377
 20
-18.0729
 11
9.63588
 21
-18.2846
  0
LINE
  8
0
 10
9.63588
 20
-18.2846
 11
9.64999
 21
-18.5
  0
LINE
  8
0
 10
9.64999
 20
-18.5
 11
9.63588
 21
-18.7154
  0
LINE
  8
0
 10
9.63588
 20
-18.7154
 11
9.59377
 21
-18.927
  0
LINE
  8
0
 10
9.59377
 20
-18.927
 11
9.5244
 21
-19.1314
  0
LINE
  8
0
 10
9.5244
 20
-19.1314
 11
9.42894
 21
-19.325
  0
LINE
  8
0
 10
9.42894
 20
-19.325
 11
9.30902
 21
-19.5045
  0
LINE
  8
0
 10
9.30902
 20
-19.5045
 11
9.16672
 21
-19.6667
  0
LINE
  8
0
 10
9.16672
 20
-19.6667
 11
9.00446
 21
-19.809
  0
LINE
  8
0
 10
9.00446
 20
-19.809
 11
8.825
 21
-19.9289
  0
LINE
  8
0
 10
8.825
 20
-19.9289
 11
8.63142
 21
-20.0244
  0
LINE
  8
0
 10
8.63142
 20
-20.0244
 11
8.42705
 21
-20.0938
  0
LINE
  8
0
 10
8.42705
 20
-20.0938
 11
8.21536
 21
-20.1359
  0
LINE
  8
0
 10
8.21536
 20
-20.1359
 11
8
 21
-20.15
  0
LINE
  8
0
 10
8
 20
-20.15
 11
7.78462
 21
-20.1359
  0
LINE
  8
0
 10
59.7846
 20
-20.1359
 11
59.5729
 21
-20.0938
  0
LINE
  8
0
 10
59.5729
 20
-20.0938
 11
59.3686
 21
-20.0244
  0
LINE
  8
0
 10
59.3686
 20
-20.0244
 11
59.175
 21
-19.9289
  0
LINE
  8
0
 10
59.175
 20
-19.9289
 11
58.9955
 21
-19.809
  0
LINE
  8
0
 10
58.9955
 20
-19.809
 11
58.8333
 21
-19.6667
  0
LINE
  8
0
 10
58.8333
 20
-19.6667
 11
58.691
 21
-19.5045
  0
LINE
  8
0
 10
58.691
 20
-19.5045
 11
58.571
 21
-19.325
  0
LINE
  8
0
 10
58.571
 20
-19.325
 11
58.4756
 21
-19.1314
  0
LINE
  8
0
 10
58.4756
 20
-19.1314
 11
58.4062
 21
-18.927
  0
LINE
  8
0
 10
58.4062
 20
-18.927
 11
58.3641
 21
-18.7154
  0
LINE
  8
0
 10
58.3641
 20
-18.7154
 11
58.35
 21
-18.5
  0
LINE
  8
0
 10
58.35
 20
-18.5
 11
58.3641
 21
-18.2846
  0
LINE
  8
0
 10
58.3641
 20
-18.2846
 11
58.4062
 21
-18.0729
  0
LINE
  8
0
 10
58.4062
 20
-18.0729
 11
58.4756
 21
-17.8686
  0
LINE
  8
0
 10
58.4756
 20
-17.8686
 11
58.571
 21
-17.675
  0
LINE
  8
0
 10
58.571
 20
-17.675
 11
58.691
 21
-17.4955
  0
LINE
  8
0
 10
58.691
 20
-17.4955
 11
58.8333
 21
-17.3333
  0
LINE
  8
0
 10
58.8333
 20
-17.3333
 11
58.9955
 21
-17.191
  0
LINE
  8
0
 10
58.9955
 20
-17.191
 11
59.175
 21
-17.071
  0
LINE
  8
0
 10
59.175
 20
-17.071
 11
59.3686
 21
-16.9756
  0
LINE
  8
0
 10
59.3686
 20
-16.9756
 11
59.5729
 21
-16.9062
  0
LINE
  8
0
 10
59.5729
 20
-16.9062
 11
59.7846
 21
-16.8641
  0
LINE
  8
0
 10
59.7846
 20
-16.8641
 11
60
 21
-16.85
  0
LINE
  8
0
 10
60
 20
-16.85
 11
60.2154
 21
-16.8641
  0
LINE
  8
0
 10
60.2154
 20
-16.8641
 11
60.427
 21
-16.9062
  0
LINE
  8
0
 10
60.427
 20
-16.9062
 11
60.6314
 21
-16.9756
  0
LINE
  8
0
 10
60.6314
 20
-16.9756
 11
60.825
 21
-17.071
  0
LINE
  8
0
 10
60.825
 20
-17.071
 11
61.0045
 21
-17.191
  0
LINE
  8
0
 10
61.0045
 20
-17.191
 11
61.1667
 21
-17.3333
  0
LINE
  8
0
 10
61.1667
 20
-17.3333
 11
61.309
 21
-17.4955
  0
LINE
  8
0
 10
61.309
 20
-17.4955
 11
61.4289
 21
-17.675
  0
LINE
  8
0
 10
61.4289
 20
-17.675
 11
61.5244
 21
-17.8686
  0
LINE
  8
0
 10
61.5244
 20
-17.8686
 11
61.5938
 21
-18.0729
  0
LINE
  8
0
 10
61.5938
 20
-18.0729
 11
61.6359
 21
-18.2846
  0
LINE
  8
0
 10
61.6359
 20
-18.2846
 11
61.65
 21
-18.5
  0
LINE
  8
0
 10
61.65
 20
-18.5
 11
61.6359
 21
-18.7154
  0
LINE
  8
0
 10
61.6359
 20
-18.7154
 11
61.5938
 21
-18.927
  0
LINE
  8
0
 10
61.5938
 20
-18.927
 11
61.5244
 21
-19.1314
  0
LINE
  8
0
 10
61.5244
 20
-19.1314
 11
61.4289
 21
-19.325
  0
LINE
  8
0
 10
61.4289
 20
-19.325
 11
61.309
 21
-19.5045
  0
LINE
  8
0
 10
61.309
 20
-19.5045
 11
61.1667
 21
-19.6667
  0
LINE
  8
0
 10
61.1667
 20
-19.6667
 11
61.0045
 21
-19.809
  0
LINE
  8
0
 10
61.0045
 20
-19.809
 11
60.825
 21
-19.9289
  0
LINE
  8
0
 10
60.825
 20
-19.9289
 11
60.6314
 21
-20.0244
  0
LINE
  8
0
 10
60.6314
 20
-20.0244
 11
60.427
 21
-20.0938
  0
LINE
  8
0
 10
60.427
 20
-20.0938
 11
60.2154
 21
-20.1359
  0
LINE
  8
0
 10
60.2154
 20
-20.1359
 11
60
 21
-20.15
  0
LINE
  8
0
 10
60
 20
-20.15
 11
59.7846
 21
-20.1359
  0
LINE
  8
0
 10
174.285
 20
-20.1359
 11
174.073
 21
-20.0938
  0
LINE
  8
0
 10
174.073
 20
-20.0938
 11
173.869
 21
-20.0244
  0
LINE
  8
0
 10
173.869
 20
-20.0244
 11
173.675
 21
-19.9289
  0
LINE
  8
0
 10
173.675
 20
-19.9289
 11
173.496
 21
-19.809
  0
LINE
  8
0
 10
173.496
 20
-19.809
 11
173.333
 21
-19.6667
  0
LINE
  8
0
 10
173.333
 20
-19.6667
 11
173.191
 21
-19.5045
  0
LINE
  8
0
 10
173.191
 20
-19.5045
 11
173.071
 21
-19.325
  0
LINE
  8
0
 10
173.071
 20
-19.325
 11
172.976
 21
-19.1314
  0
LINE
  8
0
 10
172.976
 20
-19.1314
 11
172.906
 21
-18.927
  0
LINE
  8
0
 10
172.906
 20
-18.927
 11
172.864
 21
-18.7154
  0
LINE
  8
0
 10
172.864
 20
-18.7154
 11
172.85
 21
-18.5
  0
LINE
  8
0
 10
172.85
 20
-18.5
 11
172.864
 21
-18.2846
  0
LINE
  8
0
 10
172.864
 20
-18.2846
 11
172.906
 21
-18.0729
  0
LINE
  8
0
 10
172.906
 20
-18.0729
 11
172.976
 21
-17.8686
  0
LINE
  8
0
 10
172.976
 20
-17.8686
 11
173.071
 21
-17.675
  0
LINE
  8
0
 10
173.071
 20
-17.675
 11
173.191
 21
-17.4955
  0
LINE
  8
0
 10
173.191
 20
-17.4955
 11
173.333
 21
-17.3333
  0
LINE
  8
0
 10
173.333
 20
-17.3333
 11
173.496
 21
-17.191
  0
LINE
  8
0
 10
173.496
 20
-17.191
 11
173.675
 21
-17.071
  0
LINE
  8
0
 10
173.675
 20
-17.071
 11
173.869
 21
-16.9756
  0
LINE
  8
0
 10
173.869
 20
-16.9756
 11
174.073
 21
-16.9062
  0
LINE
  8
0
 10
174.073
 20
-16.9062
 11
174.285
 21
-16.8641
  0
LINE
  8
0
 10
174.285
 20
-16.8641
 11
174.5
 21
-16.85
  0
LINE
  8
0
 10
174.5
 20
-16.85
 11
174.715
 21
-16.8641
  0
LINE
  8
0
 10
174.715
 20
-16.8641
 11
174.927
 21
-16.9062
  0
LINE
  8
0
 10
174.927
 20
-16.9062
 11
175.131
 21
-16.9756
  0
LINE
  8
0
 10
175.131
 20
-16.9756
 11
175.325
 21
-17.071
  0
LINE
  8
0
 10
175.325
 20
-17.071
 11
175.504
 21
-17.191
  0
LINE
  8
0
 10
175.504
 20
-17.191
 11
175.667
 21
-17.3333
  0
LINE
  8
0
 10
175.667
 20
-17.3333
 11
175.809
 21
-17.4955
  0
LINE
  8
0
 10
175.809
 20
-17.4955
 11
175.929
 21
-17.675
  0
LINE
  8
0
 10
175.929
 20
-17.675
 11
176.024
 21
-17.8686
  0
LINE
  8
0
 10
176.024
 20
-17.8686
 11
176.094
 21
-18.0729
  0
LINE
  8
0
 10
176.094
 20
-18.0729
 11
176.136
 21
-18.2846
  0
LINE
  8
0
 10
176.136
 20
-18.2846
 11
176.15
 21
-18.5
  0
LINE
  8
0
 10
176.15
 20
-18.5
 11
176.136
 21
-18.7154
  0
LINE
  8
0
 10
176.136
 20
-18.7154
 11
176.094
 21
-18.927
  0
LINE
  8
0
 10
176.094
 20
-18.927
 11
176.024
 21
-19.1314
  0
LINE
  8
0
 10
176.024
 20
-19.1314
 11
175.929
 21
-19.325
  0
LINE
  8
0
 10
175.929
 20
-19.325
 11
175.809
 21
-19.5045
  0
LINE
  8
0
 10
175.809
 20
-19.5045
 11
175.667
 21
-19.6667
  0
LINE
  8
0
 10
175.667
 20
-19.6667
 11
175.504
 21
-19.809
  0
LINE
  8
0
 10
175.504
 20
-19.809
 11
175.325
 21
-19.9289
  0
LINE
  8
0
 10
175.325
 20
-19.9289
 11
175.131
 21
-20.0244
  0
LINE
  8
0
 10
175.131
 20
-20.0244
 11
174.927
 21
-20.0938
  0
LINE
  8
0
 10
174.927
 20
-20.0938
 11
174.715
 21
-20.1359
  0
LINE
  8
0
 10
174.715
 20
-20.1359
 11
174.5
 21
-20.15
  0
LINE
  8
0
 10
174.5
 20
-20.15
 11
174.285
 21
-20.1359
  0
LINE
  8
0
 10
132.299
 20
-22.1786
 11
131.978
 21
-22.1148
  0
LINE
  8
0
 10
131.978
 20
-22.1148
 11
131.668
 21
-22.0097
  0
LINE
  8
0
 10
131.668
 20
-22.0097
 11
131.375
 21
-21.8651
  0
LINE
  8
0
 10
131.375
 20
-21.8651
 11
131.103
 21
-21.6834
  0
LINE
  8
0
 10
131.103
 20
-21.6834
 11
130.857
 21
-21.4678
  0
LINE
  8
0
 10
130.857
 20
-21.4678
 11
130.642
 21
-21.2219
  0
LINE
  8
0
 10
130.642
 20
-21.2219
 11
130.46
 21
-20.95
  0
LINE
  8
0
 10
130.46
 20
-20.95
 11
130.315
 21
-20.6567
  0
LINE
  8
0
 10
130.315
 20
-20.6567
 11
130.21
 21
-20.347
  0
LINE
  8
0
 10
130.21
 20
-20.347
 11
130.146
 21
-20.0263
  0
LINE
  8
0
 10
130.146
 20
-20.0263
 11
130.125
 21
-19.7
  0
LINE
  8
0
 10
130.125
 20
-19.7
 11
130.146
 21
-19.3737
  0
LINE
  8
0
 10
130.146
 20
-19.3737
 11
130.21
 21
-19.0529
  0
LINE
  8
0
 10
130.21
 20
-19.0529
 11
130.315
 21
-18.7433
  0
LINE
  8
0
 10
130.315
 20
-18.7433
 11
130.46
 21
-18.45
  0
LINE
  8
0
 10
130.46
 20
-18.45
 11
130.642
 21
-18.1781
  0
LINE
  8
0
 10
130.642
 20
-18.1781
 11
130.857
 21
-17.9322
  0
LINE
  8
0
 10
130.857
 20
-17.9322
 11
131.103
 21
-17.7166
  0
LINE
  8
0
 10
131.103
 20
-17.7166
 11
131.375
 21
-17.5349
  0
LINE
  8
0
 10
131.375
 20
-17.5349
 11
131.668
 21
-17.3903
  0
LINE
  8
0
 10
131.668
 20
-17.3903
 11
131.978
 21
-17.2852
  0
LINE
  8
0
 10
131.978
 20
-17.2852
 11
132.299
 21
-17.2214
  0
LINE
  8
0
 10
132.299
 20
-17.2214
 11
132.625
 21
-17.2
  0
LINE
  8
0
 10
132.625
 20
-17.2
 11
132.951
 21
-17.2214
  0
LINE
  8
0
 10
132.951
 20
-17.2214
 11
133.272
 21
-17.2852
  0
LINE
  8
0
 10
133.272
 20
-17.2852
 11
133.582
 21
-17.3903
  0
LINE
  8
0
 10
133.582
 20
-17.3903
 11
133.875
 21
-17.5349
  0
LINE
  8
0
 10
133.875
 20
-17.5349
 11
134.147
 21
-17.7166
  0
LINE
  8
0
 10
134.147
 20
-17.7166
 11
134.393
 21
-17.9322
  0
LINE
  8
0
 10
134.393
 20
-17.9322
 11
134.608
 21
-18.1781
  0
LINE
  8
0
 10
134.608
 20
-18.1781
 11
134.79
 21
-18.45
  0
LINE
  8
0
 10
134.79
 20
-18.45
 11
134.935
 21
-18.7433
  0
LINE
  8
0
 10
134.935
 20
-18.7433
 11
135.04
 21
-19.0529
  0
LINE
  8
0
 10
135.04
 20
-19.0529
 11
135.104
 21
-19.3737
  0
LINE
  8
0
 10
135.104
 20
-19.3737
 11
135.125
 21
-19.7
  0
LINE
  8
0
 10
135.125
 20
-19.7
 11
135.104
 21
-20.0263
  0
LINE
  8
0
 10
135.104
 20
-20.0263
 11
135.04
 21
-20.347
  0
LINE
  8
0
 10
135.04
 20
-20.347
 11
134.935
 21
-20.6567
  0
LINE
  8
0
 10
134.935
 20
-20.6567
 11
134.79
 21
-20.95
  0
LINE
  8
0
 10
134.79
 20
-20.95
 11
134.608
 21
-21.2219
  0
LINE
  8
0
 10
134.608
 20
-21.2219
 11
134.393
 21
-21.4678
  0
LINE
  8
0
 10
134.393
 20
-21.4678
 11
134.147
 21
-21.6834
  0
LINE
  8
0
 10
134.147
 20
-21.6834
 11
133.875
 21
-21.8651
  0
LINE
  8
0
 10
133.875
 20
-21.8651
 11
133.582
 21
-22.0097
  0
LINE
  8
0
 10
133.582
 20
-22.0097
 11
133.272
 21
-22.1148
  0
LINE
  8
0
 10
133.272
 20
-22.1148
 11
132.951
 21
-22.1786
  0
LINE
  8
0
 10
132.951
 20
-22.1786
 11
132.625
 21
-22.2
  0
LINE
  8
0
 10
132.625
 20
-22.2
 11
132.299
 21
-22.1786
  0
LINE
  8
0
 10
127.299
 20
-22.1786
 11
126.978
 21
-22.1148
  0
LINE
  8
0
 10
126.978
 20
-22.1148
 11
126.668
 21
-22.0097
  0
LINE
  8
0
 10
126.668
 20
-22.0097
 11
126.375
 21
-21.8651
  0
LINE
  8
0
 10
126.375
 20
-21.8651
 11
126.103
 21
-21.6834
  0
LINE
  8
0
 10
126.103
 20
-21.6834
 11
125.857
 21
-21.4678
  0
LINE
  8
0
 10
125.857
 20
-21.4678
 11
125.642
 21
-21.2219
  0
LINE
  8
0
 10
125.642
 20
-21.2219
 11
125.46
 21
-20.95
  0
LINE
  8
0
 10
125.46
 20
-20.95
 11
125.315
 21
-20.6567
  0
LINE
  8
0
 10
125.315
 20
-20.6567
 11
125.21
 21
-20.347
  0
LINE
  8
0
 10
125.21
 20
-20.347
 11
125.146
 21
-20.0263
  0
LINE
  8
0
 10
125.146
 20
-20.0263
 11
125.125
 21
-19.7
  0
LINE
  8
0
 10
125.125
 20
-19.7
 11
125.146
 21
-19.3737
  0
LINE
  8
0
 10
125.146
 20
-19.3737
 11
125.21
 21
-19.0529
  0
LINE
  8
0
 10
125.21
 20
-19.0529
 11
125.315
 21
-18.7433
  0
LINE
  8
0
 10
125.315
 20
-18.7433
 11
125.46
 21
-18.45
  0
LINE
  8
0
 10
125.46
 20
-18.45
 11
125.642
 21
-18.1781
  0
LINE
  8
0
 10
125.642
 20
-18.1781
 11
125.857
 21
-17.9322
  0
LINE
  8
0
 10
125.857
 20
-17.9322
 11
126.103
 21
-17.7166
  0
LINE
  8
0
 10
126.103
 20
-17.7166
 11
126.375
 21
-17.5349
  0
LINE
  8
0
 10
126.375
 20
-17.5349
 11
126.668
 21
-17.3903
  0
LINE
  8
0
 10
126.668
 20
-17.3903
 11
126.978
 21
-17.2852
  0
LINE
  8
0
 10
126.978
 20
-17.2852
 11
127.299
 21
-17.2214
  0
LINE
  8
0
 10
127.299
 20
-17.2214
 11
127.625
 21
-17.2
  0
LINE
  8
0
 10
127.625
 20
-17.2
 11
127.951
 21
-17.2214
  0
LINE
  8
0
 10
127.951
 20
-17.2214
 11
128.272
 21
-17.2852
  0
LINE
  8
0
 10
128.272
 20
-17.2852
 11
128.582
 21
-17.3903
  0
LINE
  8
0
 10
128.582
 20
-17.3903
 11
128.875
 21
-17.5349
  0
LINE
  8
0
 10
128.875
 20
-17.5349
 11
129.147
 21
-17.7166
  0
LINE
  8
0
 10
129.147
 20
-17.7166
 11
129.393
 21
-17.9322
  0
LINE
  8
0
 10
129.393
 20
-17.9322
 11
129.608
 21
-18.1781
  0
LINE
  8
0
 10
129.608
 20
-18.1781
 11
129.79
 21
-18.45
  0
LINE
  8
0
 10
129.79
 20
-18.45
 11
129.935
 21
-18.7433
  0
LINE
  8
0
 10
129.935
 20
-18.7433
 11
130.04
 21
-19.0529
  0
LINE
  8
0
 10
130.04
 20
-19.0529
 11
130.104
 21
-19.3737
  0
LINE
  8
0
 10
130.104
 20
-19.3737
 11
130.125
 21
-19.7
  0
LINE
  8
0
 10
130.125
 20
-19.7
 11
130.104
 21
-20.0263
  0
LINE
  8
0
 10
130.104
 20
-20.0263
 11
130.04
 21
-20.347
  0
LINE
  8
0
 10
130.04
 20
-20.347
 11
129.935
 21
-20.6567
  0
LINE
  8
0
 10
129.935
 20
-20.6567
 11
129.79
 21
-20.95
  0
LINE
  8
0
 10
129.79
 20
-20.95
 11
129.608
 21
-21.2219
  0
LINE
  8
0
 10
129.608
 20
-21.2219
 11
129.393
 21
-21.4678
  0
LINE
  8
0
 10
129.393
 20
-21.4678
 11
129.147
 21
-21.6834
  0
LINE
  8
0
 10
129.147
 20
-21.6834
 11
128.875
 21
-21.8651
  0
LINE
  8
0
 10
128.875
 20
-21.8651
 11
128.582
 21
-22.0097
  0
LINE
  8
0
 10
128.582
 20
-22.0097
 11
128.272
 21
-22.1148
  0
LINE
  8
0
 10
128.272
 20
-22.1148
 11
127.951
 21
-22.1786
  0
LINE
  8
0
 10
127.951
 20
-22.1786
 11
127.625
 21
-22.2
  0
LINE
  8
0
 10
127.625
 20
-22.2
 11
127.299
 21
-22.1786
  0
LINE
  8
0
 10
117.899
 20
-22.1786
 11
117.578
 21
-22.1148
  0
LINE
  8
0
 10
117.578
 20
-22.1148
 11
117.268
 21
-22.0097
  0
LINE
  8
0
 10
117.268
 20
-22.0097
 11
116.975
 21
-21.8651
  0
LINE
  8
0
 10
116.975
 20
-21.8651
 11
116.703
 21
-21.6834
  0
LINE
  8
0
 10
116.703
 20
-21.6834
 11
116.457
 21
-21.4678
  0
LINE
  8
0
 10
116.457
 20
-21.4678
 11
116.242
 21
-21.2219
  0
LINE
  8
0
 10
116.242
 20
-21.2219
 11
116.06
 21
-20.95
  0
LINE
  8
0
 10
116.06
 20
-20.95
 11
115.915
 21
-20.6567
  0
LINE
  8
0
 10
115.915
 20
-20.6567
 11
115.81
 21
-20.347
  0
LINE
  8
0
 10
115.81
 20
-20.347
 11
115.746
 21
-20.0263
  0
LINE
  8
0
 10
115.746
 20
-20.0263
 11
115.725
 21
-19.7
  0
LINE
  8
0
 10
115.725
 20
-19.7
 11
115.746
 21
-19.3737
  0
LINE
  8
0
 10
115.746
 20
-19.3737
 11
115.81
 21
-19.0529
  0
LINE
  8
0
 10
115.81
 20
-19.0529
 11
115.915
 21
-18.7433
  0
LINE
  8
0
 10
115.915
 20
-18.7433
 11
116.06
 21
-18.45
  0
LINE
  8
0
 10
116.06
 20
-18.45
 11
116.242
 21
-18.1781
  0
LINE
  8
0
 10
116.242
 20
-18.1781
 11
116.457
 21
-17.9322
  0
LINE
  8
0
 10
116.457
 20
-17.9322
 11
116.703
 21
-17.7166
  0
LINE
  8
0
 10
116.703
 20
-17.7166
 11
116.975
 21
-17.5349
  0
LINE
  8
0
 10
116.975
 20
-17.5349
 11
117.268
 21
-17.3903
  0
LINE
  8
0
 10
117.268
 20
-17.3903
 11
117.578
 21
-17.2852
  0
LINE
  8
0
 10
117.578
 20
-17.2852
 11
117.899
 21
-17.2214
  0
LINE
  8
0
 10
117.899
 20
-17.2214
 11
118.225
 21
-17.2
  0
LINE
  8
0
 10
118.225
 20
-17.2
 11
118.551
 21
-17.2214
  0
LINE
  8
0
 10
118.551
 20
-17.2214
 11
118.872
 21
-17.2852
  0
LINE
  8
0
 10
118.872
 20
-17.2852
 11
119.182
 21
-17.3903
  0
LINE
  8
0
 10
119.182
 20
-17.3903
 11
119.475
 21
-17.5349
  0
LINE
  8
0
 10
119.475
 20
-17.5349
 11
119.747
 21
-17.7166
  0
LINE
  8
0
 10
119.747
 20
-17.7166
 11
119.993
 21
-17.9322
  0
LINE
  8
0
 10
119.993
 20
-17.9322
 11
120.208
 21
-18.1781
  0
LINE
  8
0
 10
120.208
 20
-18.1781
 11
120.39
 21
-18.45
  0
LINE
  8
0
 10
120.39
 20
-18.45
 11
120.535
 21
-18.7433
  0
LINE
  8
0
 10
120.535
 20
-18.7433
 11
120.64
 21
-19.0529
  0
LINE
  8
0
 10
120.64
 20
-19.0529
 11
120.704
 21
-19.3737
  0
LINE
  8
0
 10
120.704
 20
-19.3737
 11
120.725
 21
-19.7
  0
LINE
  8
0
 10
120.725
 20
-19.7
 11
120.704
 21
-20.0263
  0
LINE
  8
0
 10
120.704
 20
-20.0263
 11
120.64
 21
-20.347
  0
LINE
  8
0
 10
120.64
 20
-20.347
 11
120.535
 21
-20.6567
  0
LINE
  8
0
 10
120.535
 20
-20.6567
 11
120.39
 21
-20.95
  0
LINE
  8
0
 10
120.39
 20
-20.95
 11
120.208
 21
-21.2219
  0
LINE
  8
0
 10
120.208
 20
-21.2219
 11
119.993
 21
-21.4678
  0
LINE
  8
0
 10
119.993
 20
-21.4678
 11
119.747
 21
-21.6834
  0
LINE
  8
0
 10
119.747
 20
-21.6834
 11
119.475
 21
-21.8651
  0
LINE
  8
0
 10
119.475
 20
-21.8651
 11
119.182
 21
-22.0097
  0
LINE
  8
0
 10
119.182
 20
-22.0097
 11
118.872
 21
-22.1148
  0
LINE
  8
0
 10
118.872
 20
-22.1148
 11
118.551
 21
-22.1786
  0
LINE
  8
0
 10
118.551
 20
-22.1786
 11
118.225
 21
-22.2
  0
LINE
  8
0
 10
118.225
 20
-22.2
 11
117.899
 21
-22.1786
  0
LINE
  8
0
 10
112.899
 20
-22.1786
 11
112.578
 21
-22.1148
  0
LINE
  8
0
 10
112.578
 20
-22.1148
 11
112.268
 21
-22.0097
  0
LINE
  8
0
 10
112.268
 20
-22.0097
 11
111.975
 21
-21.8651
  0
LINE
  8
0
 10
111.975
 20
-21.8651
 11
111.703
 21
-21.6834
  0
LINE
  8
0
 10
111.703
 20
-21.6834
 11
111.457
 21
-21.4678
  0
LINE
  8
0
 10
111.457
 20
-21.4678
 11
111.242
 21
-21.2219
  0
LINE
  8
0
 10
111.242
 20
-21.2219
 11
111.06
 21
-20.95
  0
LINE
  8
0
 10
111.06
 20
-20.95
 11
110.915
 21
-20.6567
  0
LINE
  8
0
 10
110.915
 20
-20.6567
 11
110.81
 21
-20.347
  0
LINE
  8
0
 10
110.81
 20
-20.347
 11
110.746
 21
-20.0263
  0
LINE
  8
0
 10
110.746
 20
-20.0263
 11
110.725
 21
-19.7
  0
LINE
  8
0
 10
110.725
 20
-19.7
 11
110.746
 21
-19.3737
  0
LINE
  8
0
 10
110.746
 20
-19.3737
 11
110.81
 21
-19.0529
  0
LINE
  8
0
 10
110.81
 20
-19.0529
 11
110.915
 21
-18.7433
  0
LINE
  8
0
 10
110.915
 20
-18.7433
 11
111.06
 21
-18.45
  0
LINE
  8
0
 10
111.06
 20
-18.45
 11
111.242
 21
-18.1781
  0
LINE
  8
0
 10
111.242
 20
-18.1781
 11
111.457
 21
-17.9322
  0
LINE
  8
0
 10
111.457
 20
-17.9322
 11
111.703
 21
-17.7166
  0
LINE
  8
0
 10
111.703
 20
-17.7166
 11
111.975
 21
-17.5349
  0
LINE
  8
0
 10
111.975
 20
-17.5349
 11
112.268
 21
-17.3903
  0
LINE
  8
0
 10
112.268
 20
-17.3903
 11
112.578
 21
-17.2852
  0
LINE
  8
0
 10
112.578
 20
-17.2852
 11
112.899
 21
-17.2214
  0
LINE
  8
0
 10
112.899
 20
-17.2214
 11
113.225
 21
-17.2
  0
LINE
  8
0
 10
113.225
 20
-17.2
 11
113.551
 21
-17.2214
  0
LINE
  8
0
 10
113.551
 20
-17.2214
 11
113.872
 21
-17.2852
  0
LINE
  8
0
 10
113.872
 20
-17.2852
 11
114.182
 21
-17.3903
  0
LINE
  8
0
 10
114.182
 20
-17.3903
 11
114.475
 21
-17.5349
  0
LINE
  8
0
 10
114.475
 20
-17.5349
 11
114.747
 21
-17.7166
  0
LINE
  8
0
 10
114.747
 20
-17.7166
 11
114.993
 21
-17.9322
  0
LINE
  8
0
 10
114.993
 20
-17.9322
 11
115.208
 21
-18.1781
  0
LINE
  8
0
 10
115.208
 20
-18.1781
 11
115.39
 21
-18.45
  0
LINE
  8
0
 10
115.39
 20
-18.45
 11
115.535
 21
-18.7433
  0
LINE
  8
0
 10
115.535
 20
-18.7433
 11
115.64
 21
-19.0529
  0
LINE
  8
0
 10
115.64
 20
-19.0529
 11
115.704
 21
-19.3737
  0
LINE
  8
0
 10
115.704
 20
-19.3737
 11
115.725
 21
-19.7
  0
LINE
  8
0
 10
115.725
 20
-19.7
 11
115.704
 21
-20.0263
  0
LINE
  8
0
 10
115.704
 20
-20.0263
 11
115.64
 21
-20.347
  0
LINE
  8
0
 10
115.64
 20
-20.347
 11
115.535
 21
-20.6567
  0
LINE
  8
0
 10
115.535
 20
-20.6567
 11
115.39
 21
-20.95
  0
LINE
  8
0
 10
115.39
 20
-20.95
 11
115.208
 21
-21.2219
  0
LINE
  8
0
 10
115.208
 20
-21.2219
 11
114.993
 21
-21.4678
  0
LINE
  8
0
 10
114.993
 20
-21.4678
 11
114.747
 21
-21.6834
  0
LINE
  8
0
 10
114.747
 20
-21.6834
 11
114.475
 21
-21.8651
  0
LINE
  8
0
 10
114.475
 20
-21.8651
 11
114.182
 21
-22.0097
  0
LINE
  8
0
 10
114.182
 20
-22.0097
 11
113.872
 21
-22.1148
  0
LINE
  8
0
 10
113.872
 20
-22.1148
 11
113.551
 21
-22.1786
  0
LINE
  8
0
 10
113.551
 20
-22.1786
 11
113.225
 21
-22.2
  0
LINE
  8
0
 10
113.225
 20
-22.2
 11
112.899
 21
-22.1786
  0
LINE
  8
0
 10
104.774
 20
-22.1786
 11
104.453
 21
-22.1148
  0
LINE
  8
0
 10
104.453
 20
-22.1148
 11
104.143
 21
-22.0097
  0
LINE
  8
0
 10
104.143
 20
-22.0097
 11
103.85
 21
-21.8651
  0
LINE
  8
0
 10
103.85
 20
-21.8651
 11
103.578
 21
-21.6834
  0
LINE
  8
0
 10
103.578
 20
-21.6834
 11
103.332
 21
-21.4678
  0
LINE
  8
0
 10
103.332
 20
-21.4678
 11
103.117
 21
-21.2219
  0
LINE
  8
0
 10
103.117
 20
-21.2219
 11
102.935
 21
-20.95
  0
LINE
  8
0
 10
102.935
 20
-20.95
 11
102.79
 21
-20.6567
  0
LINE
  8
0
 10
102.79
 20
-20.6567
 11
102.685
 21
-20.347
  0
LINE
  8
0
 10
102.685
 20
-20.347
 11
102.621
 21
-20.0263
  0
LINE
  8
0
 10
102.621
 20
-20.0263
 11
102.6
 21
-19.7
  0
LINE
  8
0
 10
102.6
 20
-19.7
 11
102.621
 21
-19.3737
  0
LINE
  8
0
 10
102.621
 20
-19.3737
 11
102.685
 21
-19.0529
  0
LINE
  8
0
 10
102.685
 20
-19.0529
 11
102.79
 21
-18.7433
  0
LINE
  8
0
 10
102.79
 20
-18.7433
 11
102.935
 21
-18.45
  0
LINE
  8
0
 10
102.935
 20
-18.45
 11
103.117
 21
-18.1781
  0
LINE
  8
0
 10
103.117
 20
-18.1781
 11
103.332
 21
-17.9322
  0
LINE
  8
0
 10
103.332
 20
-17.9322
 11
103.578
 21
-17.7166
  0
LINE
  8
0
 10
103.578
 20
-17.7166
 11
103.85
 21
-17.5349
  0
LINE
  8
0
 10
103.85
 20
-17.5349
 11
104.143
 21
-17.3903
  0
LINE
  8
0
 10
104.143
 20
-17.3903
 11
104.453
 21
-17.2852
  0
LINE
  8
0
 10
104.453
 20
-17.2852
 11
104.774
 21
-17.2214
  0
LINE
  8
0
 10
104.774
 20
-17.2214
 11
105.1
 21
-17.2
  0
LINE
  8
0
 10
105.1
 20
-17.2
 11
105.426
 21
-17.2214
  0
LINE
  8
0
 10
105.426
 20
-17.2214
 11
105.747
 21
-17.2852
  0
LINE
  8
0
 10
105.747
 20
-17.2852
 11
106.057
 21
-17.3903
  0
LINE
  8
0
 10
106.057
 20
-17.3903
 11
106.35
 21
-17.5349
  0
LINE
  8
0
 10
106.35
 20
-17.5349
 11
106.622
 21
-17.7166
  0
LINE
  8
0
 10
106.622
 20
-17.7166
 11
106.868
 21
-17.9322
  0
LINE
  8
0
 10
106.868
 20
-17.9322
 11
107.083
 21
-18.1781
  0
LINE
  8
0
 10
107.083
 20
-18.1781
 11
107.265
 21
-18.45
  0
LINE
  8
0
 10
107.265
 20
-18.45
 11
107.41
 21
-18.7433
  0
LINE
  8
0
 10
107.41
 20
-18.7433
 11
107.515
 21
-19.0529
  0
LINE
  8
0
 10
107.515
 20
-19.0529
 11
107.579
 21
-19.3737
  0
LINE
  8
0
 10
107.579
 20
-19.3737
 11
107.6
 21
-19.7
  0
LINE
  8
0
 10
107.6
 20
-19.7
 11
107.579
 21
-20.0263
  0
LINE
  8
0
 10
107.579
 20
-20.0263
 11
107.515
 21
-20.347
  0
LINE
  8
0
 10
107.515
 20
-20.347
 11
107.41
 21
-20.6567
  0
LINE
  8
0
 10
107.41
 20
-20.6567
 11
107.265
 21
-20.95
  0
LINE
  8
0
 10
107.265
 20
-20.95
 11
107.083
 21
-21.2219
  0
LINE
  8
0
 10
107.083
 20
-21.2219
 11
106.868
 21
-21.4678
  0
LINE
  8
0
 10
106.868
 20
-21.4678
 11
106.622
 21
-21.6834
  0
LINE
  8
0
 10
106.622
 20
-21.6834
 11
106.35
 21
-21.8651
  0
LINE
  8
0
 10
106.35
 20
-21.8651
 11
106.057
 21
-22.0097
  0
LINE
  8
0
 10
106.057
 20
-22.0097
 11
105.747
 21
-22.1148
  0
LINE
  8
0
 10
105.747
 20
-22.1148
 11
105.426
 21
-22.1786
  0
LINE
  8
0
 10
105.426
 20
-22.1786
 11
105.1
 21
-22.2
  0
LINE
  8
0
 10
105.1
 20
-22.2
 11
104.774
 21
-22.1786
  0
LINE
  8
0
 10
99.7737
 20
-22.1786
 11
99.4529
 21
-22.1148
  0
LINE
  8
0
 10
99.4529
 20
-22.1148
 11
99.1433
 21
-22.0097
  0
LINE
  8
0
 10
99.1433
 20
-22.0097
 11
98.85
 21
-21.8651
  0
LINE
  8
0
 10
98.85
 20
-21.8651
 11
98.5781
 21
-21.6834
  0
LINE
  8
0
 10
98.5781
 20
-21.6834
 11
98.3322
 21
-21.4678
  0
LINE
  8
0
 10
98.3322
 20
-21.4678
 11
98.1166
 21
-21.2219
  0
LINE
  8
0
 10
98.1166
 20
-21.2219
 11
97.9349
 21
-20.95
  0
LINE
  8
0
 10
97.9349
 20
-20.95
 11
97.7903
 21
-20.6567
  0
LINE
  8
0
 10
97.7903
 20
-20.6567
 11
97.6852
 21
-20.347
  0
LINE
  8
0
 10
97.6852
 20
-20.347
 11
97.6214
 21
-20.0263
  0
LINE
  8
0
 10
97.6214
 20
-20.0263
 11
97.6
 21
-19.7
  0
LINE
  8
0
 10
97.6
 20
-19.7
 11
97.6214
 21
-19.3737
  0
LINE
  8
0
 10
97.6214
 20
-19.3737
 11
97.6852
 21
-19.0529
  0
LINE
  8
0
 10
97.6852
 20
-19.0529
 11
97.7903
 21
-18.7433
  0
LINE
  8
0
 10
97.7903
 20
-18.7433
 11
97.9349
 21
-18.45
  0
LINE
  8
0
 10
97.9349
 20
-18.45
 11
98.1166
 21
-18.1781
  0
LINE
  8
0
 10
98.1166
 20
-18.1781
 11
98.3322
 21
-17.9322
  0
LINE
  8
0
 10
98.3322
 20
-17.9322
 11
98.5781
 21
-17.7166
  0
LINE
  8
0
 10
98.5781
 20
-17.7166
 11
98.85
 21
-17.5349
  0
LINE
  8
0
 10
98.85
 20
-17.5349
 11
99.1433
 21
-17.3903
  0
LINE
  8
0
 10
99.1433
 20
-17.3903
 11
99.4529
 21
-17.2852
  0
LINE
  8
0
 10
99.4529
 20
-17.2852
 11
99.7737
 21
-17.2214
  0
LINE
  8
0
 10
99.7737
 20
-17.2214
 11
100.1
 21
-17.2
  0
LINE
  8
0
 10
100.1
 20
-17.2
 11
100.426
 21
-17.2214
  0
LINE
  8
0
 10
100.426
 20
-17.2214
 11
100.747
 21
-17.2852
  0
LINE
  8
0
 10
100.747
 20
-17.2852
 11
101.057
 21
-17.3903
  0
LINE
  8
0
 10
101.057
 20
-17.3903
 11
101.35
 21
-17.5349
  0
LINE
  8
0
 10
101.35
 20
-17.5349
 11
101.622
 21
-17.7166
  0
LINE
  8
0
 10
101.622
 20
-17.7166
 11
101.868
 21
-17.9322
  0
LINE
  8
0
 10
101.868
 20
-17.9322
 11
102.083
 21
-18.1781
  0
LINE
  8
0
 10
102.083
 20
-18.1781
 11
102.265
 21
-18.45
  0
LINE
  8
0
 10
102.265
 20
-18.45
 11
102.41
 21
-18.7433
  0
LINE
  8
0
 10
102.41
 20
-18.7433
 11
102.515
 21
-19.0529
  0
LINE
  8
0
 10
102.515
 20
-19.0529
 11
102.579
 21
-19.3737
  0
LINE
  8
0
 10
102.579
 20
-19.3737
 11
102.6
 21
-19.7
  0
LINE
  8
0
 10
102.6
 20
-19.7
 11
102.579
 21
-20.0263
  0
LINE
  8
0
 10
102.579
 20
-20.0263
 11
102.515
 21
-20.347
  0
LINE
  8
0
 10
102.515
 20
-20.347
 11
102.41
 21
-20.6567
  0
LINE
  8
0
 10
102.41
 20
-20.6567
 11
102.265
 21
-20.95
  0
LINE
  8
0
 10
102.265
 20
-20.95
 11
102.083
 21
-21.2219
  0
LINE
  8
0
 10
102.083
 20
-21.2219
 11
101.868
 21
-21.4678
  0
LINE
  8
0
 10
101.868
 20
-21.4678
 11
101.622
 21
-21.6834
  0
LINE
  8
0
 10
101.622
 20
-21.6834
 11
101.35
 21
-21.8651
  0
LINE
  8
0
 10
101.35
 20
-21.8651
 11
101.057
 21
-22.0097
  0
LINE
  8
0
 10
101.057
 20
-22.0097
 11
100.747
 21
-22.1148
  0
LINE
  8
0
 10
100.747
 20
-22.1148
 11
100.426
 21
-22.1786
  0
LINE
  8
0
 10
100.426
 20
-22.1786
 11
100.1
 21
-22.2
  0
LINE
  8
0
 10
100.1
 20
-22.2
 11
99.7737
 21
-22.1786
  0
LINE
  8
0
 10
94.7737
 20
-22.1786
 11
94.4529
 21
-22.1148
  0
LINE
  8
0
 10
94.4529
 20
-22.1148
 11
94.1433
 21
-22.0097
  0
LINE
  8
0
 10
94.1433
 20
-22.0097
 11
93.85
 21
-21.8651
  0
LINE
  8
0
 10
93.85
 20
-21.8651
 11
93.5781
 21
-21.6834
  0
LINE
  8
0
 10
93.5781
 20
-21.6834
 11
93.3322
 21
-21.4678
  0
LINE
  8
0
 10
93.3322
 20
-21.4678
 11
93.1166
 21
-21.2219
  0
LINE
  8
0
 10
93.1166
 20
-21.2219
 11
92.9349
 21
-20.95
  0
LINE
  8
0
 10
92.9349
 20
-20.95
 11
92.7903
 21
-20.6567
  0
LINE
  8
0
 10
92.7903
 20
-20.6567
 11
92.6852
 21
-20.347
  0
LINE
  8
0
 10
92.6852
 20
-20.347
 11
92.6214
 21
-20.0263
  0
LINE
  8
0
 10
92.6214
 20
-20.0263
 11
92.6
 21
-19.7
  0
LINE
  8
0
 10
92.6
 20
-19.7
 11
92.6214
 21
-19.3737
  0
LINE
  8
0
 10
92.6214
 20
-19.3737
 11
92.6852
 21
-19.0529
  0
LINE
  8
0
 10
92.6852
 20
-19.0529
 11
92.7903
 21
-18.7433
  0
LINE
  8
0
 10
92.7903
 20
-18.7433
 11
92.9349
 21
-18.45
  0
LINE
  8
0
 10
92.9349
 20
-18.45
 11
93.1166
 21
-18.1781
  0
LINE
  8
0
 10
93.1166
 20
-18.1781
 11
93.3322
 21
-17.9322
  0
LINE
  8
0
 10
93.3322
 20
-17.9322
 11
93.5781
 21
-17.7166
  0
LINE
  8
0
 10
93.5781
 20
-17.7166
 11
93.85
 21
-17.5349
  0
LINE
  8
0
 10
93.85
 20
-17.5349
 11
94.1433
 21
-17.3903
  0
LINE
  8
0
 10
94.1433
 20
-17.3903
 11
94.4529
 21
-17.2852
  0
LINE
  8
0
 10
94.4529
 20
-17.2852
 11
94.7737
 21
-17.2214
  0
LINE
  8
0
 10
94.7737
 20
-17.2214
 11
95.1
 21
-17.2
  0
LINE
  8
0
 10
95.1
 20
-17.2
 11
95.4263
 21
-17.2214
  0
LINE
  8
0
 10
95.4263
 20
-17.2214
 11
95.747
 21
-17.2852
  0
LINE
  8
0
 10
95.747
 20
-17.2852
 11
96.0567
 21
-17.3903
  0
LINE
  8
0
 10
96.0567
 20
-17.3903
 11
96.35
 21
-17.5349
  0
LINE
  8
0
 10
96.35
 20
-17.5349
 11
96.6219
 21
-17.7166
  0
LINE
  8
0
 10
96.6219
 20
-17.7166
 11
96.8678
 21
-17.9322
  0
LINE
  8
0
 10
96.8678
 20
-17.9322
 11
97.0834
 21
-18.1781
  0
LINE
  8
0
 10
97.0834
 20
-18.1781
 11
97.2651
 21
-18.45
  0
LINE
  8
0
 10
97.2651
 20
-18.45
 11
97.4097
 21
-18.7433
  0
LINE
  8
0
 10
97.4097
 20
-18.7433
 11
97.5148
 21
-19.0529
  0
LINE
  8
0
 10
97.5148
 20
-19.0529
 11
97.5786
 21
-19.3737
  0
LINE
  8
0
 10
97.5786
 20
-19.3737
 11
97.6
 21
-19.7
  0
LINE
  8
0
 10
97.6
 20
-19.7
 11
97.5786
 21
-20.0263
  0
LINE
  8
0
 10
97.5786
 20
-20.0263
 11
97.5148
 21
-20.347
  0
LINE
  8
0
 10
97.5148
 20
-20.347
 11
97.4097
 21
-20.6567
  0
LINE
  8
0
 10
97.4097
 20
-20.6567
 11
97.2651
 21
-20.95
  0
LINE
  8
0
 10
97.2651
 20
-20.95
 11
97.0834
 21
-21.2219
  0
LINE
  8
0
 10
97.0834
 20
-21.2219
 11
96.8678
 21
-21.4678
  0
LINE
  8
0
 10
96.8678
 20
-21.4678
 11
96.6219
 21
-21.6834
  0
LINE
  8
0
 10
96.6219
 20
-21.6834
 11
96.35
 21
-21.8651
  0
LINE
  8
0
 10
96.35
 20
-21.8651
 11
96.0567
 21
-22.0097
  0
LINE
  8
0
 10
96.0567
 20
-22.0097
 11
95.747
 21
-22.1148
  0
LINE
  8
0
 10
95.747
 20
-22.1148
 11
95.4263
 21
-22.1786
  0
LINE
  8
0
 10
95.4263
 20
-22.1786
 11
95.1
 21
-22.2
  0
LINE
  8
0
 10
95.1
 20
-22.2
 11
94.7737
 21
-22.1786
  0
LINE
  8
0
 10
3.28462
 20
-66.6359
 11
3.07294
 21
-66.5938
  0
LINE
  8
0
 10
3.07294
 20
-66.5938
 11
2.86856
 21
-66.5244
  0
LINE
  8
0
 10
2.86856
 20
-66.5244
 11
2.67499
 21
-66.4289
  0
LINE
  8
0
 10
2.67499
 20
-66.4289
 11
2.49553
 21
-66.309
  0
LINE
  8
0
 10
2.49553
 20
-66.309
 11
2.33327
 21
-66.1667
  0
LINE
  8
0
 10
2.33327
 20
-66.1667
 11
2.19096
 21
-66.0045
  0
LINE
  8
0
 10
2.19096
 20
-66.0045
 11
2.07104
 21
-65.825
  0
LINE
  8
0
 10
2.07104
 20
-65.825
 11
1.97559
 21
-65.6314
  0
LINE
  8
0
 10
1.97559
 20
-65.6314
 11
1.90622
 21
-65.427
  0
LINE
  8
0
 10
1.90622
 20
-65.427
 11
1.86411
 21
-65.2154
  0
LINE
  8
0
 10
1.86411
 20
-65.2154
 11
1.84999
 21
-65
  0
LINE
  8
0
 10
1.84999
 20
-65
 11
1.86411
 21
-64.7846
  0
LINE
  8
0
 10
1.86411
 20
-64.7846
 11
1.90622
 21
-64.5729
  0
LINE
  8
0
 10
1.90622
 20
-64.5729
 11
1.97559
 21
-64.3686
  0
LINE
  8
0
 10
1.97559
 20
-64.3686
 11
2.07104
 21
-64.175
  0
LINE
  8
0
 10
2.07104
 20
-64.175
 11
2.19096
 21
-63.9955
  0
LINE
  8
0
 10
2.19096
 20
-63.9955
 11
2.33327
 21
-63.8333
  0
LINE
  8
0
 10
2.33327
 20
-63.8333
 11
2.49553
 21
-63.691
  0
LINE
  8
0
 10
2.49553
 20
-63.691
 11
2.67499
 21
-63.571
  0
LINE
  8
0
 10
2.67499
 20
-63.571
 11
2.86856
 21
-63.4756
  0
LINE
  8
0
 10
2.86856
 20
-63.4756
 11
3.07294
 21
-63.4062
  0
LINE
  8
0
 10
3.07294
 20
-63.4062
 11
3.28462
 21
-63.3641
  0
LINE
  8
0
 10
3.28462
 20
-63.3641
 11
3.5
 21
-63.35
  0
LINE
  8
0
 10
3.5
 20
-63.35
 11
3.71536
 21
-63.3641
  0
LINE
  8
0
 10
3.71536
 20
-63.3641
 11
3.92705
 21
-63.4062
  0
LINE
  8
0
 10
3.92705
 20
-63.4062
 11
4.13142
 21
-63.4756
  0
LINE
  8
0
 10
4.13142
 20
-63.4756
 11
4.325
 21
-63.571
  0
LINE
  8
0
 10
4.325
 20
-63.571
 11
4.50446
 21
-63.691
  0
LINE
  8
0
 10
4.50446
 20
-63.691
 11
4.66672
 21
-63.8333
  0
LINE
  8
0
 10
4.66672
 20
-63.8333
 11
4.80902
 21
-63.9955
  0
LINE
  8
0
 10
4.80902
 20
-63.9955
 11
4.92894
 21
-64.175
  0
LINE
  8
0
 10
4.92894
 20
-64.175
 11
5.0244
 21
-64.3686
  0
LINE
  8
0
 10
5.0244
 20
-64.3686
 11
5.09377
 21
-64.5729
  0
LINE
  8
0
 10
5.09377
 20
-64.5729
 11
5.13588
 21
-64.7846
  0
LINE
  8
0
 10
5.13588
 20
-64.7846
 11
5.14999
 21
-65
  0
LINE
  8
0
 10
5.14999
 20
-65
 11
5.13588
 21
-65.2154
  0
LINE
  8
0
 10
5.13588
 20
-65.2154
 11
5.09377
 21
-65.427
  0
LINE
  8
0
 10
5.09377
 20
-65.427
 11
5.0244
 21
-65.6314
  0
LINE
  8
0
 10
5.0244
 20
-65.6314
 11
4.92894
 21
-65.825
  0
LINE
  8
0
 10
4.92894
 20
-65.825
 11
4.80902
 21
-66.0045
  0
LINE
  8
0
 10
4.80902
 20
-66.0045
 11
4.66672
 21
-66.1667
  0
LINE
  8
0
 10
4.66672
 20
-66.1667
 11
4.50446
 21
-66.309
  0
LINE
  8
0
 10
4.50446
 20
-66.309
 11
4.325
 21
-66.4289
  0
LINE
  8
0
 10
4.325
 20
-66.4289
 11
4.13142
 21
-66.5244
  0
LINE
  8
0
 10
4.13142
 20
-66.5244
 11
3.92705
 21
-66.5938
  0
LINE
  8
0
 10
3.92705
 20
-66.5938
 11
3.71536
 21
-66.6359
  0
LINE
  8
0
 10
3.71536
 20
-66.6359
 11
3.5
 21
-66.65
  0
LINE
  8
0
 10
3.5
 20
-66.65
 11
3.28462
 21
-66.6359
  0
LINE
  8
0
 10
176.285
 20
-66.6359
 11
176.073
 21
-66.5938
  0
LINE
  8
0
 10
176.073
 20
-66.5938
 11
175.869
 21
-66.5244
  0
LINE
  8
0
 10
175.869
 20
-66.5244
 11
175.675
 21
-66.4289
  0
LINE
  8
0
 10
175.675
 20
-66.4289
 11
175.496
 21
-66.309
  0
LINE
  8
0
 10
175.496
 20
-66.309
 11
175.333
 21
-66.1667
  0
LINE
  8
0
 10
175.333
 20
-66.1667
 11
175.191
 21
-66.0045
  0
LINE
  8
0
 10
175.191
 20
-66.0045
 11
175.071
 21
-65.825
  0
LINE
  8
0
 10
175.071
 20
-65.825
 11
174.976
 21
-65.6314
  0
LINE
  8
0
 10
174.976
 20
-65.6314
 11
174.906
 21
-65.427
  0
LINE
  8
0
 10
174.906
 20
-65.427
 11
174.864
 21
-65.2154
  0
LINE
  8
0
 10
174.864
 20
-65.2154
 11
174.85
 21
-65
  0
LINE
  8
0
 10
174.85
 20
-65
 11
174.864
 21
-64.7846
  0
LINE
  8
0
 10
174.864
 20
-64.7846
 11
174.906
 21
-64.5729
  0
LINE
  8
0
 10
174.906
 20
-64.5729
 11
174.976
 21
-64.3686
  0
LINE
  8
0
 10
174.976
 20
-64.3686
 11
175.071
 21
-64.175
  0
LINE
  8
0
 10
175.071
 20
-64.175
 11
175.191
 21
-63.9955
  0
LINE
  8
0
 10
175.191
 20
-63.9955
 11
175.333
 21
-63.8333
  0
LINE
  8
0
 10
175.333
 20
-63.8333
 11
175.496
 21
-63.691
  0
LINE
  8
0
 10
175.496
 20
-63.691
 11
175.675
 21
-63.571
  0
LINE
  8
0
 10
175.675
 20
-63.571
 11
175.869
 21
-63.4756
  0
LINE
  8
0
 10
175.869
 20
-63.4756
 11
176.073
 21
-63.4062
  0
LINE
  8
0
 10
176.073
 20
-63.4062
 11
176.285
 21
-63.3641
  0
LINE
  8
0
 10
176.285
 20
-63.3641
 11
176.5
 21
-63.35
  0
LINE
  8
0
 10
176.5
 20
-63.35
 11
176.715
 21
-63.3641
  0
LINE
  8
0
 10
176.715
 20
-63.3641
 11
176.927
 21
-63.4062
  0
LINE
  8
0
 10
176.927
 20
-63.4062
 11
177.131
 21
-63.4756
  0
LINE
  8
0
 10
177.131
 20
-63.4756
 11
177.325
 21
-63.571
  0
LINE
  8
0
 10
177.325
 20
-63.571
 11
177.504
 21
-63.691
  0
LINE
  8
0
 10
177.504
 20
-63.691
 11
177.667
 21
-63.8333
  0
LINE
  8
0
 10
177.667
 20
-63.8333
 11
177.809
 21
-63.9955
  0
LINE
  8
0
 10
177.809
 20
-63.9955
 11
177.929
 21
-64.175
  0
LINE
  8
0
 10
177.929
 20
-64.175
 11
178.024
 21
-64.3686
  0
LINE
  8
0
 10
178.024
 20
-64.3686
 11
178.094
 21
-64.5729
  0
LINE
  8
0
 10
178.094
 20
-64.5729
 11
178.136
 21
-64.7846
  0
LINE
  8
0
 10
178.136
 20
-64.7846
 11
178.15
 21
-65
  0
LINE
  8
0
 10
178.15
 20
-65
 11
178.136
 21
-65.2154
  0
LINE
  8
0
 10
178.136
 20
-65.2154
 11
178.094
 21
-65.427
  0
LINE
  8
0
 10
178.094
 20
-65.427
 11
178.024
 21
-65.6314
  0
LINE
  8
0
 10
178.024
 20
-65.6314
 11
177.929
 21
-65.825
  0
LINE
  8
0
 10
177.929
 20
-65.825
 11
177.809
 21
-66.0045
  0
LINE
  8
0
 10
177.809
 20
-66.0045
 11
177.667
 21
-66.1667
  0
LINE
  8
0
 10
177.667
 20
-66.1667
 11
177.504
 21
-66.309
  0
LINE
  8
0
 10
177.504
 20
-66.309
 11
177.325
 21
-66.4289
  0
LINE
  8
0
 10
177.325
 20
-66.4289
 11
177.131
 21
-66.5244
  0
LINE
  8
0
 10
177.131
 20
-66.5244
 11
176.927
 21
-66.5938
  0
LINE
  8
0
 10
176.927
 20
-66.5938
 11
176.715
 21
-66.6359
  0
LINE
  8
0
 10
176.715
 20
-66.6359
 11
176.5
 21
-66.65
  0
LINE
  8
0
 10
176.5
 20
-66.65
 11
176.285
 21
-66.6359
  0
LINE
  8
0
 10
7.78462
 20
-113.136
 11
7.57294
 21
-113.094
  0
LINE
  8
0
 10
7.57294
 20
-113.094
 11
7.36856
 21
-113.024
  0
LINE
  8
0
 10
7.36856
 20
-113.024
 11
7.17499
 21
-112.929
  0
LINE
  8
0
 10
7.17499
 20
-112.929
 11
6.99553
 21
-112.809
  0
LINE
  8
0
 10
6.99553
 20
-112.809
 11
6.83327
 21
-112.667
  0
LINE
  8
0
 10
6.83327
 20
-112.667
 11
6.69096
 21
-112.504
  0
LINE
  8
0
 10
6.69096
 20
-112.504
 11
6.57104
 21
-112.325
  0
LINE
  8
0
 10
6.57104
 20
-112.325
 11
6.47559
 21
-112.131
  0
LINE
  8
0
 10
6.47559
 20
-112.131
 11
6.40622
 21
-111.927
  0
LINE
  8
0
 10
6.40622
 20
-111.927
 11
6.36411
 21
-111.715
  0
LINE
  8
0
 10
6.36411
 20
-111.715
 11
6.34999
 21
-111.5
  0
LINE
  8
0
 10
6.34999
 20
-111.5
 11
6.36411
 21
-111.285
  0
LINE
  8
0
 10
6.36411
 20
-111.285
 11
6.40622
 21
-111.073
  0
LINE
  8
0
 10
6.40622
 20
-111.073
 11
6.47559
 21
-110.869
  0
LINE
  8
0
 10
6.47559
 20
-110.869
 11
6.57104
 21
-110.675
  0
LINE
  8
0
 10
6.57104
 20
-110.675
 11
6.69096
 21
-110.496
  0
LINE
  8
0
 10
6.69096
 20
-110.496
 11
6.83327
 21
-110.333
  0
LINE
  8
0
 10
6.83327
 20
-110.333
 11
6.99553
 21
-110.191
  0
LINE
  8
0
 10
6.99553
 20
-110.191
 11
7.17499
 21
-110.071
  0
LINE
  8
0
 10
7.17499
 20
-110.071
 11
7.36856
 21
-109.976
  0
LINE
  8
0
 10
7.36856
 20
-109.976
 11
7.57294
 21
-109.906
  0
LINE
  8
0
 10
7.57294
 20
-109.906
 11
7.78462
 21
-109.864
  0
LINE
  8
0
 10
7.78462
 20
-109.864
 11
8
 21
-109.85
  0
LINE
  8
0
 10
8
 20
-109.85
 11
8.21536
 21
-109.864
  0
LINE
  8
0
 10
8.21536
 20
-109.864
 11
8.42705
 21
-109.906
  0
LINE
  8
0
 10
8.42705
 20
-109.906
 11
8.63142
 21
-109.976
  0
LINE
  8
0
 10
8.63142
 20
-109.976
 11
8.825
 21
-110.071
  0
LINE
  8
0
 10
8.825
 20
-110.071
 11
9.00446
 21
-110.191
  0
LINE
  8
0
 10
9.00446
 20
-110.191
 11
9.16672
 21
-110.333
  0
LINE
  8
0
 10
9.16672
 20
-110.333
 11
9.30902
 21
-110.496
  0
LINE
  8
0
 10
9.30902
 20
-110.496
 11
9.42894
 21
-110.675
  0
LINE
  8
0
 10
9.42894
 20
-110.675
 11
9.5244
 21
-110.869
  0
LINE
  8
0
 10
9.5244
 20
-110.869
 11
9.59377
 21
-111.073
  0
LINE
  8
0
 10
9.59377
 20
-111.073
 11
9.63588
 21
-111.285
  0
LINE
  8
0
 10
9.63588
 20
-111.285
 11
9.64999
 21
-111.5
  0
LINE
  8
0
 10
9.64999
 20
-111.5
 11
9.63588
 21
-111.715
  0
LINE
  8
0
 10
9.63588
 20
-111.715
 11
9.59377
 21
-111.927
  0
LINE
  8
0
 10
9.59377
 20
-111.927
 11
9.5244
 21
-112.131
  0
LINE
  8
0
 10
9.5244
 20
-112.131
 11
9.42894
 21
-112.325
  0
LINE
  8
0
 10
9.42894
 20
-112.325
 11
9.30902
 21
-112.504
  0
LINE
  8
0
 10
9.30902
 20
-112.504
 11
9.16672
 21
-112.667
  0
LINE
  8
0
 10
9.16672
 20
-112.667
 11
9.00446
 21
-112.809
  0
LINE
  8
0
 10
9.00446
 20
-112.809
 11
8.825
 21
-112.929
  0
LINE
  8
0
 10
8.825
 20
-112.929
 11
8.63142
 21
-113.024
  0
LINE
  8
0
 10
8.63142
 20
-113.024
 11
8.42705
 21
-113.094
  0
LINE
  8
0
 10
8.42705
 20
-113.094
 11
8.21536
 21
-113.136
  0
LINE
  8
0
 10
8.21536
 20
-113.136
 11
8
 21
-113.15
  0
LINE
  8
0
 10
8
 20
-113.15
 11
7.78462
 21
-113.136
  0
LINE
  8
0
 10
89.7846
 20
-113.136
 11
89.5729
 21
-113.094
  0
LINE
  8
0
 10
89.5729
 20
-113.094
 11
89.3686
 21
-113.024
  0
LINE
  8
0
 10
89.3686
 20
-113.024
 11
89.175
 21
-112.929
  0
LINE
  8
0
 10
89.175
 20
-112.929
 11
88.9955
 21
-112.809
  0
LINE
  8
0
 10
88.9955
 20
-112.809
 11
88.8333
 21
-112.667
  0
LINE
  8
0
 10
88.8333
 20
-112.667
 11
88.691
 21
-112.504
  0
LINE
  8
0
 10
88.691
 20
-112.504
 11
88.571
 21
-112.325
  0
LINE
  8
0
 10
88.571
 20
-112.325
 11
88.4756
 21
-112.131
  0
LINE
  8
0
 10
88.4756
 20
-112.131
 11
88.4062
 21
-111.927
  0
LINE
  8
0
 10
88.4062
 20
-111.927
 11
88.3641
 21
-111.715
  0
LINE
  8
0
 10
88.3641
 20
-111.715
 11
88.35
 21
-111.5
  0
LINE
  8
0
 10
88.35
 20
-111.5
 11
88.3641
 21
-111.285
  0
LINE
  8
0
 10
88.3641
 20
-111.285
 11
88.4062
 21
-111.073
  0
LINE
  8
0
 10
88.4062
 20
-111.073
 11
88.4756
 21
-110.869
  0
LINE
  8
0
 10
88.4756
 20
-110.869
 11
88.571
 21
-110.675
  0
LINE
  8
0
 10
88.571
 20
-110.675
 11
88.691
 21
-110.496
  0
LINE
  8
0
 10
88.691
 20
-110.496
 11
88.8333
 21
-110.333
  0
LINE
  8
0
 10
88.8333
 20
-110.333
 11
88.9955
 21
-110.191
  0
LINE
  8
0
 10
88.9955
 20
-110.191
 11
89.175
 21
-110.071
  0
LINE
  8
0
 10
89.175
 20
-110.071
 11
89.3686
 21
-109.976
  0
LINE
  8
0
 10
89.3686
 20
-109.976
 11
89.5729
 21
-109.906
  0
LINE
  8
0
 10
89.5729
 20
-109.906
 11
89.7846
 21
-109.864
  0
LINE
  8
0
 10
89.7846
 20
-109.864
 11
90
 21
-109.85
  0
LINE
  8
0
 10
90
 20
-109.85
 11
90.2154
 21
-109.864
  0
LINE
  8
0
 10
90.2154
 20
-109.864
 11
90.427
 21
-109.906
  0
LINE
  8
0
 10
90.427
 20
-109.906
 11
90.6314
 21
-109.976
  0
LINE
  8
0
 10
90.6314
 20
-109.976
 11
90.825
 21
-110.071
  0
LINE
  8
0
 10
90.825
 20
-110.071
 11
91.0045
 21
-110.191
  0
LINE
  8
0
 10
91.0045
 20
-110.191
 11
91.1667
 21
-110.333
  0
LINE
  8
0
 10
91.1667
 20
-110.333
 11
91.309
 21
-110.496
  0
LINE
  8
0
 10
91.309
 20
-110.496
 11
91.4289
 21
-110.675
  0
LINE
  8
0
 10
91.4289
 20
-110.675
 11
91.5244
 21
-110.869
  0
LINE
  8
0
 10
91.5244
 20
-110.869
 11
91.5938
 21
-111.073
  0
LINE
  8
0
 10
91.5938
 20
-111.073
 11
91.6359
 21
-111.285
  0
LINE
  8
0
 10
91.6359
 20
-111.285
 11
91.65
 21
-111.5
  0
LINE
  8
0
 10
91.65
 20
-111.5
 11
91.6359
 21
-111.715
  0
LINE
  8
0
 10
91.6359
 20
-111.715
 11
91.5938
 21
-111.927
  0
LINE
  8
0
 10
91.5938
 20
-111.927
 11
91.5244
 21
-112.131
  0
LINE
  8
0
 10
91.5244
 20
-112.131
 11
91.4289
 21
-112.325
  0
LINE
  8
0
 10
91.4289
 20
-112.325
 11
91.309
 21
-112.504
  0
LINE
  8
0
 10
91.309
 20
-112.504
 11
91.1667
 21
-112.667
  0
LINE
  8
0
 10
91.1667
 20
-112.667
 11
91.0045
 21
-112.809
  0
LINE
  8
0
 10
91.0045
 20
-112.809
 11
90.825
 21
-112.929
  0
LINE
  8
0
 10
90.825
 20
-112.929
 11
90.6314
 21
-113.024
  0
LINE
  8
0
 10
90.6314
 20
-113.024
 11
90.427
 21
-113.094
  0
LINE
  8
0
 10
90.427
 20
-113.094
 11
90.2154
 21
-113.136
  0
LINE
  8
0
 10
90.2154
 20
-113.136
 11
90
 21
-113.15
  0
LINE
  8
0
 10
90
 20
-113.15
 11
89.7846
 21
-113.136
  0
LINE
  8
0
 10
174.285
 20
-113.136
 11
174.073
 21
-113.094
  0
LINE
  8
0
 10
174.073
 20
-113.094
 11
173.869
 21
-113.024
  0
LINE
  8
0
 10
173.869
 20
-113.024
 11
173.675
 21
-112.929
  0
LINE
  8
0
 10
173.675
 20
-112.929
 11
173.496
 21
-112.809
  0
LINE
  8
0
 10
173.496
 20
-112.809
 11
173.333
 21
-112.667
  0
LINE
  8
0
 10
173.333
 20
-112.667
 11
173.191
 21
-112.504
  0
LINE
  8
0
 10
173.191
 20
-112.504
 11
173.071
 21
-112.325
  0
LINE
  8
0
 10
173.071
 20
-112.325
 11
172.976
 21
-112.131
  0
LINE
  8
0
 10
172.976
 20
-112.131
 11
172.906
 21
-111.927
  0
LINE
  8
0
 10
172.906
 20
-111.927
 11
172.864
 21
-111.715
  0
LINE
  8
0
 10
172.864
 20
-111.715
 11
172.85
 21
-111.5
  0
LINE
  8
0
 10
172.85
 20
-111.5
 11
172.864
 21
-111.285
  0
LINE
  8
0
 10
172.864
 20
-111.285
 11
172.906
 21
-111.073
  0
LINE
  8
0
 10
172.906
 20
-111.073
 11
172.976
 21
-110.869
  0
LINE
  8
0
 10
172.976
 20
-110.869
 11
173.071
 21
-110.675
  0
LINE
  8
0
 10
173.071
 20
-110.675
 11
173.191
 21
-110.496
  0
LINE
  8
0
 10
173.191
 20
-110.496
 11
173.333
 21
-110.333
  0
LINE
  8
0
 10
173.333
 20
-110.333
 11
173.496
 21
-110.191
  0
LINE
  8
0
 10
173.496
 20
-110.191
 11
173.675
 21
-110.071
  0
LINE
  8
0
 10
173.675
 20
-110.071
 11
173.869
 21
-109.976
  0
LINE
  8
0
 10
173.869
 20
-109.976
 11
174.073
 21
-109.906
  0
LINE
  8
0
 10
174.073
 20
-109.906
 11
174.285
 21
-109.864
  0
LINE
  8
0
 10
174.285
 20
-109.864
 11
174.5
 21
-109.85
  0
LINE
  8
0
 10
174.5
 20
-109.85
 11
174.715
 21
-109.864
  0
LINE
  8
0
 10
174.715
 20
-109.864
 11
174.927
 21
-109.906
  0
LINE
  8
0
 10
174.927
 20
-109.906
 11
175.131
 21
-109.976
  0
LINE
  8
0
 10
175.131
 20
-109.976
 11
175.325
 21
-110.071
  0
LINE
  8
0
 10
175.325
 20
-110.071
 11
175.504
 21
-110.191
  0
LINE
  8
0
 10
175.504
 20
-110.191
 11
175.667
 21
-110.333
  0
LINE
  8
0
 10
175.667
 20
-110.333
 11
175.809
 21
-110.496
  0
LINE
  8
0
 10
175.809
 20
-110.496
 11
175.929
 21
-110.675
  0
LINE
  8
0
 10
175.929
 20
-110.675
 11
176.024
 21
-110.869
  0
LINE
  8
0
 10
176.024
 20
-110.869
 11
176.094
 21
-111.073
  0
LINE
  8
0
 10
176.094
 20
-111.073
 11
176.136
 21
-111.285
  0
LINE
  8
0
 10
176.136
 20
-111.285
 11
176.15
 21
-111.5
  0
LINE
  8
0
 10
176.15
 20
-111.5
 11
176.136
 21
-111.715
  0
LINE
  8
0
 10
176.136
 20
-111.715
 11
176.094
 21
-111.927
  0
LINE
  8
0
 10
176.094
 20
-111.927
 11
176.024
 21
-112.131
  0
LINE
  8
0
 10
176.024
 20
-112.131
 11
175.929
 21
-112.325
  0
LINE
  8
0
 10
175.929
 20
-112.325
 11
175.809
 21
-112.504
  0
LINE
  8
0
 10
175.809
 20
-112.504
 11
175.667
 21
-112.667
  0
LINE
  8
0
 10
175.667
 20
-112.667
 11
175.504
 21
-112.809
  0
LINE
  8
0
 10
175.504
 20
-112.809
 11
175.325
 21
-112.929
  0
LINE
  8
0
 10
175.325
 20
-112.929
 11
175.131
 21
-113.024
  0
LINE
  8
0
 10
175.131
 20
-113.024
 11
174.927
 21
-113.094
  0
LINE
  8
0
 10
174.927
 20
-113.094
 11
174.715
 21
-113.136
  0
LINE
  8
0
 10
174.715
 20
-113.136
 11
174.5
 21
-113.15
  0
LINE
  8
0
 10
174.5
 20
-113.15
 11
174.285
 21
-113.136
  0
ENDSEC
  0
SECTION
  2
OBJECTS
  0
DICTIONARY
  0
ENDSEC
  0
EOF
