  0
SECTION
  2
BLOCKS
  0
ENDSEC
  0
SECTION
  2
ENTITIES
  0
LINE
  8
0
 10
1.31232
 20
-25.0406
 11
2.62105
 21
-24.9377
  0
LINE
  8
0
 10
2.62105
 20
-24.9377
 11
3.92259
 21
-24.7663
  0
LINE
  8
0
 10
3.92259
 20
-24.7663
 11
5.21338
 21
-24.5271
  0
LINE
  8
0
 10
5.21338
 20
-24.5271
 11
6.4899
 21
-24.2206
  0
LINE
  8
0
 10
6.4899
 20
-24.2206
 11
7.7486
 21
-23.8477
  0
LINE
  8
0
 10
7.7486
 20
-23.8477
 11
8.98608
 21
-23.4095
  0
LINE
  8
0
 10
8.98608
 20
-23.4095
 11
10.1989
 21
-22.9072
  0
LINE
  8
0
 10
10.1989
 20
-22.9072
 11
11.3838
 21
-22.342
  0
LINE
  8
0
 10
11.3838
 20
-22.342
 11
12.5375
 21
-21.7156
  0
LINE
  8
0
 10
12.5375
 20
-21.7156
 11
13.6568
 21
-21.0297
  0
LINE
  8
0
 10
13.6568
 20
-21.0297
 11
14.7387
 21
-20.2861
  0
LINE
  8
0
 10
14.7387
 20
-20.2861
 11
15.7802
 21
-19.4869
  0
LINE
  8
0
 10
15.7802
 20
-19.4869
 11
16.7785
 21
-18.6344
  0
LINE
  8
0
 10
16.7785
 20
-18.6344
 11
17.7307
 21
-17.7307
  0
LINE
  8
0
 10
17.7307
 20
-17.7307
 11
18.6344
 21
-16.7785
  0
LINE
  8
0
 10
18.6344
 20
-16.7785
 11
19.4869
 21
-15.7802
  0
LINE
  8
0
 10
19.4869
 20
-15.7802
 11
20.2861
 21
-14.7387
  0
LINE
  8
0
 10
20.2861
 20
-14.7387
 11
21.0297
 21
-13.6568
  0
LINE
  8
0
 10
21.0297
 20
-13.6568
 11
21.7156
 21
-12.5375
  0
LINE
  8
0
 10
21.7156
 20
-12.5375
 11
22.342
 21
-11.3838
  0
LINE
  8
0
 10
22.342
 20
-11.3838
 11
22.9072
 21
-10.1989
  0
LINE
  8
0
 10
22.9072
 20
-10.1989
 11
23.4095
 21
-8.98608
  0
LINE
  8
0
 10
23.4095
 20
-8.98608
 11
23.8477
 21
-7.7486
  0
LINE
  8
0
 10
23.8477
 20
-7.7486
 11
24.2206
 21
-6.4899
  0
LINE
  8
0
 10
24.2206
 20
-6.4899
 11
24.5271
 21
-5.21338
  0
LINE
  8
0
 10
24.5271
 20
-5.21338
 11
24.7663
 21
-3.92259
  0
LINE
  8
0
 10
24.7663
 20
-3.92259
 11
24.8976
 21
-2.925
  0
LINE
  8
0
 10
24.8976
 20
-2.925
 11
17.575
 21
-2.925
  0
LINE
  8
0
 10
17.575
 20
-2.925
 11
17.575
 21
-0.722519
  0
LINE
  8
0
 10
17.575
 20
-0.722519
 11
17.3092
 21
-2.74142
  0
LINE
  8
0
 10
17.3092
 20
-2.74142
 11
17.142
 21
-3.64383
  0
LINE
  8
0
 10
17.142
 20
-3.64383
 11
16.9279
 21
-4.5356
  0
LINE
  8
0
 10
16.9279
 20
-4.5356
 11
16.6672
 21
-5.4156
  0
LINE
  8
0
 10
16.6672
 20
-5.4156
 11
16.361
 21
-6.28035
  0
LINE
  8
0
 10
16.361
 20
-6.28035
 11
16.0098
 21
-7.12813
  0
LINE
  8
0
 10
16.0098
 20
-7.12813
 11
15.6149
 21
-7.95601
  0
LINE
  8
0
 10
15.6149
 20
-7.95601
 11
15.177
 21
-8.76253
  0
LINE
  8
0
 10
15.177
 20
-8.76253
 11
14.6977
 21
-9.54472
  0
LINE
  8
0
 10
14.6977
 20
-9.54472
 11
14.1779
 21
-10.3011
  0
LINE
  8
0
 10
14.1779
 20
-10.3011
 11
13.6196
 21
-11.0287
  0
LINE
  8
0
 10
13.6196
 20
-11.0287
 11
13.0234
 21
-11.7267
  0
LINE
  8
0
 10
13.0234
 20
-11.7267
 11
12.392
 21
-12.392
  0
LINE
  8
0
 10
12.392
 20
-12.392
 11
11.7267
 21
-13.0234
  0
LINE
  8
0
 10
11.7267
 20
-13.0234
 11
11.0287
 21
-13.6196
  0
LINE
  8
0
 10
11.0287
 20
-13.6196
 11
10.3011
 21
-14.1779
  0
LINE
  8
0
 10
10.3011
 20
-14.1779
 11
9.54472
 21
-14.6977
  0
LINE
  8
0
 10
9.54472
 20
-14.6977
 11
8.76253
 21
-15.177
  0
LINE
  8
0
 10
8.76253
 20
-15.177
 11
7.95601
 21
-15.6149
  0
LINE
  8
0
 10
7.95601
 20
-15.6149
 11
7.12813
 21
-16.0098
  0
LINE
  8
0
 10
7.12813
 20
-16.0098
 11
6.28035
 21
-16.361
  0
LINE
  8
0
 10
6.28035
 20
-16.361
 11
5.4156
 21
-16.6672
  0
LINE
  8
0
 10
5.4156
 20
-16.6672
 11
4.5356
 21
-16.9279
  0
LINE
  8
0
 10
4.5356
 20
-16.9279
 11
3.64383
 21
-17.142
  0
LINE
  8
0
 10
3.64383
 20
-17.142
 11
2.74142
 21
-17.3092
  0
LINE
  8
0
 10
2.74142
 20
-17.3092
 11
1.83186
 21
-17.429
  0
LINE
  8
0
 10
1.83186
 20
-17.429
 11
0.917328
 21
-17.5009
  0
LINE
  8
0
 10
0.917328
 20
-17.5009
 11
0
 21
-17.525
  0
LINE
  8
0
 10
0
 20
-17.525
 11
-0.917328
 21
-17.5009
  0
LINE
  8
0
 10
-0.917328
 20
-17.5009
 11
-1.83186
 21
-17.429
  0
LINE
  8
0
 10
-1.83186
 20
-17.429
 11
-2.74142
 21
-17.3092
  0
LINE
  8
0
 10
-2.74142
 20
-17.3092
 11
-3.64383
 21
-17.142
  0
LINE
  8
0
 10
-3.64383
 20
-17.142
 11
-4.5356
 21
-16.9279
  0
LINE
  8
0
 10
-4.5356
 20
-16.9279
 11
-5.4156
 21
-16.6672
  0
LINE
  8
0
 10
-5.4156
 20
-16.6672
 11
-6.28035
 21
-16.361
  0
LINE
  8
0
 10
-6.28035
 20
-16.361
 11
-7.12813
 21
-16.0098
  0
LINE
  8
0
 10
-7.12813
 20
-16.0098
 11
-7.95601
 21
-15.6149
  0
LINE
  8
0
 10
-7.95601
 20
-15.6149
 11
-8.76253
 21
-15.177
  0
LINE
  8
0
 10
-8.76253
 20
-15.177
 11
-9.54472
 21
-14.6977
  0
LINE
  8
0
 10
-9.54472
 20
-14.6977
 11
-10.3011
 21
-14.1779
  0
LINE
  8
0
 10
-10.3011
 20
-14.1779
 11
-11.0287
 21
-13.6196
  0
LINE
  8
0
 10
-11.0287
 20
-13.6196
 11
-11.7267
 21
-13.0234
  0
LINE
  8
0
 10
-11.7267
 20
-13.0234
 11
-12.392
 21
-12.392
  0
LINE
  8
0
 10
-12.392
 20
-12.392
 11
-13.0234
 21
-11.7267
  0
LINE
  8
0
 10
-13.0234
 20
-11.7267
 11
-13.6196
 21
-11.0287
  0
LINE
  8
0
 10
-13.6196
 20
-11.0287
 11
-14.1779
 21
-10.3011
  0
LINE
  8
0
 10
-14.1779
 20
-10.3011
 11
-14.6977
 21
-9.54472
  0
LINE
  8
0
 10
-14.6977
 20
-9.54472
 11
-15.177
 21
-8.76253
  0
LINE
  8
0
 10
-15.177
 20
-8.76253
 11
-15.6149
 21
-7.95601
  0
LINE
  8
0
 10
-15.6149
 20
-7.95601
 11
-16.0098
 21
-7.12813
  0
LINE
  8
0
 10
-16.0098
 20
-7.12813
 11
-16.361
 21
-6.28035
  0
LINE
  8
0
 10
-16.361
 20
-6.28035
 11
-16.6672
 21
-5.4156
  0
LINE
  8
0
 10
-16.6672
 20
-5.4156
 11
-16.9279
 21
-4.5356
  0
LINE
  8
0
 10
-16.9279
 20
-4.5356
 11
-17.142
 21
-3.64383
  0
LINE
  8
0
 10
-17.142
 20
-3.64383
 11
-17.3092
 21
-2.74142
  0
LINE
  8
0
 10
-17.3092
 20
-2.74142
 11
-17.429
 21
-1.83186
  0
LINE
  8
0
 10
-17.429
 20
-1.83186
 11
-17.5009
 21
-0.917328
  0
LINE
  8
0
 10
-17.5009
 20
-0.917328
 11
-17.525
 21
0
  0
LINE
  8
0
 10
-17.525
 20
0
 11
-17.5009
 21
0.917328
  0
LINE
  8
0
 10
-17.5009
 20
0.917328
 11
-17.429
 21
1.83186
  0
LINE
  8
0
 10
-17.429
 20
1.83186
 11
-17.3092
 21
2.74142
  0
LINE
  8
0
 10
-17.3092
 20
2.74142
 11
-17.142
 21
3.64383
  0
LINE
  8
0
 10
-17.142
 20
3.64383
 11
-16.9279
 21
4.5356
  0
LINE
  8
0
 10
-16.9279
 20
4.5356
 11
-16.6672
 21
5.4156
  0
LINE
  8
0
 10
-16.6672
 20
5.4156
 11
-16.361
 21
6.28035
  0
LINE
  8
0
 10
-16.361
 20
6.28035
 11
-16.0098
 21
7.12813
  0
LINE
  8
0
 10
-16.0098
 20
7.12813
 11
-15.6149
 21
7.95601
  0
LINE
  8
0
 10
-15.6149
 20
7.95601
 11
-15.177
 21
8.76253
  0
LINE
  8
0
 10
-15.177
 20
8.76253
 11
-14.6977
 21
9.54472
  0
LINE
  8
0
 10
-14.6977
 20
9.54472
 11
-14.1779
 21
10.3011
  0
LINE
  8
0
 10
-14.1779
 20
10.3011
 11
-13.6196
 21
11.0287
  0
LINE
  8
0
 10
-13.6196
 20
11.0287
 11
-13.0234
 21
11.7267
  0
LINE
  8
0
 10
-13.0234
 20
11.7267
 11
-12.392
 21
12.392
  0
LINE
  8
0
 10
-12.392
 20
12.392
 11
-11.7267
 21
13.0234
  0
LINE
  8
0
 10
-11.7267
 20
13.0234
 11
-11.0287
 21
13.6196
  0
LINE
  8
0
 10
-11.0287
 20
13.6196
 11
-10.3011
 21
14.1779
  0
LINE
  8
0
 10
-10.3011
 20
14.1779
 11
-9.54472
 21
14.6977
  0
LINE
  8
0
 10
-9.54472
 20
14.6977
 11
-8.76253
 21
15.177
  0
LINE
  8
0
 10
-8.76253
 20
15.177
 11
-7.95601
 21
15.6149
  0
LINE
  8
0
 10
-7.95601
 20
15.6149
 11
-7.12813
 21
16.0098
  0
LINE
  8
0
 10
-7.12813
 20
16.0098
 11
-6.28035
 21
16.361
  0
LINE
  8
0
 10
-6.28035
 20
16.361
 11
-5.4156
 21
16.6672
  0
LINE
  8
0
 10
-5.4156
 20
16.6672
 11
-4.5356
 21
16.9279
  0
LINE
  8
0
 10
-4.5356
 20
16.9279
 11
-3.64383
 21
17.142
  0
LINE
  8
0
 10
-3.64383
 20
17.142
 11
-2.74142
 21
17.3092
  0
LINE
  8
0
 10
-2.74142
 20
17.3092
 11
-1.83186
 21
17.429
  0
LINE
  8
0
 10
-1.83186
 20
17.429
 11
-0.917328
 21
17.5009
  0
LINE
  8
0
 10
-0.917328
 20
17.5009
 11
0
 21
17.525
  0
LINE
  8
0
 10
0
 20
17.525
 11
0.917328
 21
17.5009
  0
LINE
  8
0
 10
0.917328
 20
17.5009
 11
1.83186
 21
17.429
  0
LINE
  8
0
 10
1.83186
 20
17.429
 11
2.74142
 21
17.3092
  0
LINE
  8
0
 10
2.74142
 20
17.3092
 11
3.64383
 21
17.142
  0
LINE
  8
0
 10
3.64383
 20
17.142
 11
4.5356
 21
16.9279
  0
LINE
  8
0
 10
4.5356
 20
16.9279
 11
5.4156
 21
16.6672
  0
LINE
  8
0
 10
5.4156
 20
16.6672
 11
6.28035
 21
16.361
  0
LINE
  8
0
 10
6.28035
 20
16.361
 11
7.12813
 21
16.0098
  0
LINE
  8
0
 10
7.12813
 20
16.0098
 11
7.95601
 21
15.6149
  0
LINE
  8
0
 10
7.95601
 20
15.6149
 11
8.76253
 21
15.177
  0
LINE
  8
0
 10
8.76253
 20
15.177
 11
9.54472
 21
14.6977
  0
LINE
  8
0
 10
9.54472
 20
14.6977
 11
10.3011
 21
14.1779
  0
LINE
  8
0
 10
10.3011
 20
14.1779
 11
11.0287
 21
13.6196
  0
LINE
  8
0
 10
11.0287
 20
13.6196
 11
11.7267
 21
13.0234
  0
LINE
  8
0
 10
11.7267
 20
13.0234
 11
12.392
 21
12.392
  0
LINE
  8
0
 10
12.392
 20
12.392
 11
13.0234
 21
11.7267
  0
LINE
  8
0
 10
13.0234
 20
11.7267
 11
13.6196
 21
11.0287
  0
LINE
  8
0
 10
13.6196
 20
11.0287
 11
14.1779
 21
10.3011
  0
LINE
  8
0
 10
14.1779
 20
10.3011
 11
14.6977
 21
9.54472
  0
LINE
  8
0
 10
14.6977
 20
9.54472
 11
15.177
 21
8.76253
  0
LINE
  8
0
 10
15.177
 20
8.76253
 11
15.6149
 21
7.95601
  0
LINE
  8
0
 10
15.6149
 20
7.95601
 11
16.0098
 21
7.12813
  0
LINE
  8
0
 10
16.0098
 20
7.12813
 11
16.361
 21
6.28035
  0
LINE
  8
0
 10
16.361
 20
6.28035
 11
16.6672
 21
5.4156
  0
LINE
  8
0
 10
16.6672
 20
5.4156
 11
16.9279
 21
4.5356
  0
LINE
  8
0
 10
16.9279
 20
4.5356
 11
17.142
 21
3.64383
  0
LINE
  8
0
 10
17.142
 20
3.64383
 11
17.3092
 21
2.74142
  0
LINE
  8
0
 10
17.3092
 20
2.74142
 11
17.575
 21
0.722519
  0
LINE
  8
0
 10
17.575
 20
0.722519
 11
17.575
 21
2.925
  0
LINE
  8
0
 10
17.575
 20
2.925
 11
24.8976
 21
2.925
  0
LINE
  8
0
 10
24.8976
 20
2.925
 11
24.7663
 21
3.92259
  0
LINE
  8
0
 10
24.7663
 20
3.92259
 11
24.5271
 21
5.21338
  0
LINE
  8
0
 10
24.5271
 20
5.21338
 11
24.2206
 21
6.4899
  0
LINE
  8
0
 10
24.2206
 20
6.4899
 11
23.8477
 21
7.7486
  0
LINE
  8
0
 10
23.8477
 20
7.7486
 11
23.4095
 21
8.98608
  0
LINE
  8
0
 10
23.4095
 20
8.98608
 11
22.9072
 21
10.1989
  0
LINE
  8
0
 10
22.9072
 20
10.1989
 11
22.342
 21
11.3838
  0
LINE
  8
0
 10
22.342
 20
11.3838
 11
21.7156
 21
12.5375
  0
LINE
  8
0
 10
21.7156
 20
12.5375
 11
21.0297
 21
13.6568
  0
LINE
  8
0
 10
21.0297
 20
13.6568
 11
20.2861
 21
14.7387
  0
LINE
  8
0
 10
20.2861
 20
14.7387
 11
19.4869
 21
15.7802
  0
LINE
  8
0
 10
19.4869
 20
15.7802
 11
18.6344
 21
16.7785
  0
LINE
  8
0
 10
18.6344
 20
16.7785
 11
17.7307
 21
17.7307
  0
LINE
  8
0
 10
17.7307
 20
17.7307
 11
16.7785
 21
18.6344
  0
LINE
  8
0
 10
16.7785
 20
18.6344
 11
15.7802
 21
19.4869
  0
LINE
  8
0
 10
15.7802
 20
19.4869
 11
14.7387
 21
20.2861
  0
LINE
  8
0
 10
14.7387
 20
20.2861
 11
13.6568
 21
21.0297
  0
LINE
  8
0
 10
13.6568
 20
21.0297
 11
12.5375
 21
21.7156
  0
LINE
  8
0
 10
12.5375
 20
21.7156
 11
11.3838
 21
22.342
  0
LINE
  8
0
 10
11.3838
 20
22.342
 11
10.1989
 21
22.9072
  0
LINE
  8
0
 10
10.1989
 20
22.9072
 11
8.98608
 21
23.4095
  0
LINE
  8
0
 10
8.98608
 20
23.4095
 11
7.7486
 21
23.8477
  0
LINE
  8
0
 10
7.7486
 20
23.8477
 11
6.4899
 21
24.2206
  0
LINE
  8
0
 10
6.4899
 20
24.2206
 11
5.21338
 21
24.5271
  0
LINE
  8
0
 10
5.21338
 20
24.5271
 11
3.92259
 21
24.7663
  0
LINE
  8
0
 10
3.92259
 20
24.7663
 11
2.62105
 21
24.9377
  0
LINE
  8
0
 10
2.62105
 20
24.9377
 11
1.31232
 21
25.0406
  0
LINE
  8
0
 10
1.31232
 20
25.0406
 11
0
 21
25.075
  0
LINE
  8
0
 10
0
 20
25.075
 11
-1.31232
 21
25.0406
  0
LINE
  8
0
 10
-1.31232
 20
25.0406
 11
-2.62105
 21
24.9377
  0
LINE
  8
0
 10
-2.62105
 20
24.9377
 11
-3.92259
 21
24.7663
  0
LINE
  8
0
 10
-3.92259
 20
24.7663
 11
-5.21338
 21
24.5271
  0
LINE
  8
0
 10
-5.21338
 20
24.5271
 11
-6.4899
 21
24.2206
  0
LINE
  8
0
 10
-6.4899
 20
24.2206
 11
-7.7486
 21
23.8477
  0
LINE
  8
0
 10
-7.7486
 20
23.8477
 11
-8.98608
 21
23.4095
  0
LINE
  8
0
 10
-8.98608
 20
23.4095
 11
-10.1989
 21
22.9072
  0
LINE
  8
0
 10
-10.1989
 20
22.9072
 11
-11.3838
 21
22.342
  0
LINE
  8
0
 10
-11.3838
 20
22.342
 11
-12.5375
 21
21.7156
  0
LINE
  8
0
 10
-12.5375
 20
21.7156
 11
-13.6568
 21
21.0297
  0
LINE
  8
0
 10
-13.6568
 20
21.0297
 11
-14.7387
 21
20.2861
  0
LINE
  8
0
 10
-14.7387
 20
20.2861
 11
-15.7802
 21
19.4869
  0
LINE
  8
0
 10
-15.7802
 20
19.4869
 11
-16.7785
 21
18.6344
  0
LINE
  8
0
 10
-16.7785
 20
18.6344
 11
-17.7307
 21
17.7307
  0
LINE
  8
0
 10
-17.7307
 20
17.7307
 11
-18.6344
 21
16.7785
  0
LINE
  8
0
 10
-18.6344
 20
16.7785
 11
-19.4869
 21
15.7802
  0
LINE
  8
0
 10
-19.4869
 20
15.7802
 11
-20.2861
 21
14.7387
  0
LINE
  8
0
 10
-20.2861
 20
14.7387
 11
-21.0297
 21
13.6568
  0
LINE
  8
0
 10
-21.0297
 20
13.6568
 11
-21.7156
 21
12.5375
  0
LINE
  8
0
 10
-21.7156
 20
12.5375
 11
-22.342
 21
11.3838
  0
LINE
  8
0
 10
-22.342
 20
11.3838
 11
-22.9072
 21
10.1989
  0
LINE
  8
0
 10
-22.9072
 20
10.1989
 11
-23.4095
 21
8.98608
  0
LINE
  8
0
 10
-23.4095
 20
8.98608
 11
-23.8477
 21
7.7486
  0
LINE
  8
0
 10
-23.8477
 20
7.7486
 11
-24.2206
 21
6.4899
  0
LINE
  8
0
 10
-24.2206
 20
6.4899
 11
-24.5271
 21
5.21338
  0
LINE
  8
0
 10
-24.5271
 20
5.21338
 11
-24.7663
 21
3.92259
  0
LINE
  8
0
 10
-24.7663
 20
3.92259
 11
-24.9377
 21
2.62105
  0
LINE
  8
0
 10
-24.9377
 20
2.62105
 11
-25.0406
 21
1.31232
  0
LINE
  8
0
 10
-25.0406
 20
1.31232
 11
-25.075
 21
0
  0
LINE
  8
0
 10
-25.075
 20
0
 11
-25.0406
 21
-1.31232
  0
LINE
  8
0
 10
-25.0406
 20
-1.31232
 11
-24.9377
 21
-2.62105
  0
LINE
  8
0
 10
-24.9377
 20
-2.62105
 11
-24.7663
 21
-3.92259
  0
LINE
  8
0
 10
-24.7663
 20
-3.92259
 11
-24.5271
 21
-5.21338
  0
LINE
  8
0
 10
-24.5271
 20
-5.21338
 11
-24.2206
 21
-6.4899
  0
LINE
  8
0
 10
-24.2206
 20
-6.4899
 11
-23.8477
 21
-7.7486
  0
LINE
  8
0
 10
-23.8477
 20
-7.7486
 11
-23.4095
 21
-8.98608
  0
LINE
  8
0
 10
-23.4095
 20
-8.98608
 11
-22.9072
 21
-10.1989
  0
LINE
  8
0
 10
-22.9072
 20
-10.1989
 11
-22.342
 21
-11.3838
  0
LINE
  8
0
 10
-22.342
 20
-11.3838
 11
-21.7156
 21
-12.5375
  0
LINE
  8
0
 10
-21.7156
 20
-12.5375
 11
-21.0297
 21
-13.6568
  0
LINE
  8
0
 10
-21.0297
 20
-13.6568
 11
-20.2861
 21
-14.7387
  0
LINE
  8
0
 10
-20.2861
 20
-14.7387
 11
-19.4869
 21
-15.7802
  0
LINE
  8
0
 10
-19.4869
 20
-15.7802
 11
-18.6344
 21
-16.7785
  0
LINE
  8
0
 10
-18.6344
 20
-16.7785
 11
-17.7307
 21
-17.7307
  0
LINE
  8
0
 10
-17.7307
 20
-17.7307
 11
-16.7785
 21
-18.6344
  0
LINE
  8
0
 10
-16.7785
 20
-18.6344
 11
-15.7802
 21
-19.4869
  0
LINE
  8
0
 10
-15.7802
 20
-19.4869
 11
-14.7387
 21
-20.2861
  0
LINE
  8
0
 10
-14.7387
 20
-20.2861
 11
-13.6568
 21
-21.0297
  0
LINE
  8
0
 10
-13.6568
 20
-21.0297
 11
-12.5375
 21
-21.7156
  0
LINE
  8
0
 10
-12.5375
 20
-21.7156
 11
-11.3838
 21
-22.342
  0
LINE
  8
0
 10
-11.3838
 20
-22.342
 11
-10.1989
 21
-22.9072
  0
LINE
  8
0
 10
-10.1989
 20
-22.9072
 11
-8.98608
 21
-23.4095
  0
LINE
  8
0
 10
-8.98608
 20
-23.4095
 11
-7.7486
 21
-23.8477
  0
LINE
  8
0
 10
-7.7486
 20
-23.8477
 11
-6.4899
 21
-24.2206
  0
LINE
  8
0
 10
-6.4899
 20
-24.2206
 11
-5.21338
 21
-24.5271
  0
LINE
  8
0
 10
-5.21338
 20
-24.5271
 11
-3.92259
 21
-24.7663
  0
LINE
  8
0
 10
-3.92259
 20
-24.7663
 11
-2.62105
 21
-24.9377
  0
LINE
  8
0
 10
-2.62105
 20
-24.9377
 11
-1.31232
 21
-25.0406
  0
LINE
  8
0
 10
-1.31232
 20
-25.0406
 11
0
 21
-25.075
  0
LINE
  8
0
 10
0
 20
-25.075
 11
1.31232
 21
-25.0406
  0
ENDSEC
  0
SECTION
  2
OBJECTS
  0
DICTIONARY
  0
ENDSEC
  0
EOF
