  0
SECTION
  2
BLOCKS
  0
ENDSEC
  0
SECTION
  2
ENTITIES
  0
LINE
  8
0
 10
15.075
 20
15.075
 11
-15.075
 21
15.075
  0
LINE
  8
0
 10
-15.075
 20
15.075
 11
-15.075
 21
-15.075
  0
LINE
  8
0
 10
-15.075
 20
-15.075
 11
15.075
 21
-15.075
  0
LINE
  8
0
 10
15.075
 20
-15.075
 11
15.075
 21
15.075
  0
LINE
  8
0
 10
-5.58
 20
-3.2216
 11
-5.58
 21
3.2216
  0
LINE
  8
0
 10
-5.58
 20
3.2216
 11
0
 21
6.44322
  0
LINE
  8
0
 10
0
 20
6.44322
 11
5.58
 21
3.2216
  0
LINE
  8
0
 10
5.58
 20
3.2216
 11
5.58
 21
-3.2216
  0
LINE
  8
0
 10
5.58
 20
-3.2216
 11
0
 21
-6.44322
  0
LINE
  8
0
 10
0
 20
-6.44322
 11
-5.58
 21
-3.2216
  0
ENDSEC
  0
SECTION
  2
OBJECTS
  0
DICTIONARY
  0
ENDSEC
  0
EOF
