  0
SECTION
  2
BLOCKS
  0
ENDSEC
  0
SECTION
  2
ENTITIES
  0
LINE
  8
0
 10
30.075
 20
-0.0749969
 11
89.925
 21
-0.0749969
  0
LINE
  8
0
 10
89.925
 20
-0.0749969
 11
89.925
 21
-3.075
  0
LINE
  8
0
 10
89.925
 20
-3.075
 11
102.075
 21
-3.075
  0
LINE
  8
0
 10
102.075
 20
-3.075
 11
102.075
 21
-0.0749969
  0
LINE
  8
0
 10
102.075
 20
-0.0749969
 11
120.075
 21
-0.0749969
  0
LINE
  8
0
 10
120.075
 20
-0.0749969
 11
120.075
 21
7.39284
  0
LINE
  8
0
 10
120.075
 20
7.39284
 11
117.984
 21
7.94189
  0
LINE
  8
0
 10
117.984
 20
7.94189
 11
115.947
 21
8.39545
  0
LINE
  8
0
 10
115.947
 20
8.39545
 11
113.912
 21
8.78574
  0
LINE
  8
0
 10
113.912
 20
8.78574
 11
109.844
 21
9.5117
  0
LINE
  8
0
 10
109.844
 20
9.5117
 11
107.814
 21
9.92801
  0
LINE
  8
0
 10
107.814
 20
9.92801
 11
105.786
 21
10.4695
  0
LINE
  8
0
 10
105.786
 20
10.4695
 11
103.761
 21
11.2339
  0
LINE
  8
0
 10
103.761
 20
11.2339
 11
101.741
 21
12.4197
  0
LINE
  8
0
 10
101.741
 20
12.4197
 11
99.7211
 21
14.4609
  0
LINE
  8
0
 10
99.7211
 20
14.4609
 11
97.695
 21
17.9724
  0
LINE
  8
0
 10
97.695
 20
17.9724
 11
95.6637
 21
23.2278
  0
LINE
  8
0
 10
95.6637
 20
23.2278
 11
93.6288
 21
29.2095
  0
LINE
  8
0
 10
93.6288
 20
29.2095
 11
91.5738
 21
33.4743
  0
LINE
  8
0
 10
91.5738
 20
33.4743
 11
89.4466
 21
33.5967
  0
LINE
  8
0
 10
89.4466
 20
33.5967
 11
87.3883
 21
29.4921
  0
LINE
  8
0
 10
87.3883
 20
29.4921
 11
85.3533
 21
23.5338
  0
LINE
  8
0
 10
85.3533
 20
23.5338
 11
83.322
 21
18.2515
  0
LINE
  8
0
 10
83.322
 20
18.2515
 11
81.2964
 21
14.7679
  0
LINE
  8
0
 10
81.2964
 20
14.7679
 11
79.2781
 21
12.8417
  0
LINE
  8
0
 10
79.2781
 20
12.8417
 11
77.2588
 21
11.7993
  0
LINE
  8
0
 10
77.2588
 20
11.7993
 11
75.2325
 21
11.1208
  0
LINE
  8
0
 10
75.2325
 20
11.1208
 11
73.2013
 21
10.5695
  0
LINE
  8
0
 10
73.2013
 20
10.5695
 11
71.1698
 21
10.0721
  0
LINE
  8
0
 10
71.1698
 20
10.0721
 11
69.1371
 21
9.6194
  0
LINE
  8
0
 10
69.1371
 20
9.6194
 11
67.105
 21
9.22375
  0
LINE
  8
0
 10
67.105
 20
9.22375
 11
65.0724
 21
8.87898
  0
LINE
  8
0
 10
65.0724
 20
8.87898
 11
63.0404
 21
8.57326
  0
LINE
  8
0
 10
63.0404
 20
8.57326
 11
61.0079
 21
8.30344
  0
LINE
  8
0
 10
61.0079
 20
8.30344
 11
58.9764
 21
8.0787
  0
LINE
  8
0
 10
58.9764
 20
8.0787
 11
56.9435
 21
7.9108
  0
LINE
  8
0
 10
56.9435
 20
7.9108
 11
54.9115
 21
7.7939
  0
LINE
  8
0
 10
54.9115
 20
7.7939
 11
50.844
 21
7.60791
  0
LINE
  8
0
 10
50.844
 20
7.60791
 11
48.8107
 21
7.51793
  0
LINE
  8
0
 10
48.8107
 20
7.51793
 11
46.7784
 21
7.44899
  0
LINE
  8
0
 10
46.7784
 20
7.44899
 11
44.7452
 21
7.41901
  0
LINE
  8
0
 10
44.7452
 20
7.41901
 11
42.7128
 21
7.43399
  0
LINE
  8
0
 10
42.7128
 20
7.43399
 11
40.6793
 21
7.47597
  0
LINE
  8
0
 10
40.6793
 20
7.47597
 11
38.6445
 21
7.506
  0
LINE
  8
0
 10
38.6445
 20
7.506
 11
36.6093
 21
7.49998
  0
LINE
  8
0
 10
36.6093
 20
7.49998
 11
34.5743
 21
7.46097
  0
LINE
  8
0
 10
34.5743
 20
7.46097
 11
32.5395
 21
7.39494
  0
LINE
  8
0
 10
32.5395
 20
7.39494
 11
30.5049
 21
7.30791
  0
LINE
  8
0
 10
30.5049
 20
7.30791
 11
28.4707
 21
7.20288
  0
LINE
  8
0
 10
28.4707
 20
7.20288
 11
26.4387
 21
7.11298
  0
LINE
  8
0
 10
26.4387
 20
7.11298
 11
24.4052
 21
7.06198
  0
LINE
  8
0
 10
24.4052
 20
7.06198
 11
22.3719
 21
7.03799
  0
LINE
  8
0
 10
22.3719
 20
7.03799
 11
20.3373
 21
7.00798
  0
LINE
  8
0
 10
20.3373
 20
7.00798
 11
18.3028
 21
6.94795
  0
LINE
  8
0
 10
18.3028
 20
6.94795
 11
16.2689
 21
6.88496
  0
LINE
  8
0
 10
16.2689
 20
6.88496
 11
14.2364
 21
6.84299
  0
LINE
  8
0
 10
14.2364
 20
6.84299
 11
12.2027
 21
6.825
  0
LINE
  8
0
 10
12.2027
 20
6.825
 11
10.1688
 21
6.81299
  0
LINE
  8
0
 10
10.1688
 20
6.81299
 11
8.13409
 21
6.78897
  0
LINE
  8
0
 10
8.13409
 20
6.78897
 11
6.09886
 21
6.73195
  0
LINE
  8
0
 10
6.09886
 20
6.73195
 11
4.06381
 21
6.63588
  0
LINE
  8
0
 10
4.06381
 20
6.63588
 11
2.02931
 21
6.51585
  0
LINE
  8
0
 10
2.02931
 20
6.51585
 11
-0.0749969
 21
6.38239
  0
LINE
  8
0
 10
-0.0749969
 20
6.38239
 11
-0.0749969
 21
-0.0749969
  0
LINE
  8
0
 10
-0.0749969
 20
-0.0749969
 11
17.925
 21
-0.0749969
  0
LINE
  8
0
 10
17.925
 20
-0.0749969
 11
17.925
 21
-3.075
  0
LINE
  8
0
 10
17.925
 20
-3.075
 11
30.075
 21
-3.075
  0
LINE
  8
0
 10
30.075
 20
-3.075
 11
30.075
 21
-0.0749969
  0
ENDSEC
  0
SECTION
  2
OBJECTS
  0
DICTIONARY
  0
ENDSEC
  0
EOF
