  0
SECTION
  2
BLOCKS
  0
ENDSEC
  0
SECTION
  2
ENTITIES
  0
LINE
  8
0
 10
99.6618
 20
6.855
 11
97.6288
 21
6.89397
  0
LINE
  8
0
 10
97.6288
 20
6.89397
 11
95.5948
 21
6.93898
  0
LINE
  8
0
 10
95.5948
 20
6.93898
 11
93.5607
 21
6.98097
  0
LINE
  8
0
 10
93.5607
 20
6.98097
 11
89.4927
 21
7.04698
  0
LINE
  8
0
 10
89.4927
 20
7.04698
 11
87.4609
 21
7.10393
  0
LINE
  8
0
 10
87.4609
 20
7.10393
 11
85.4277
 21
7.19991
  0
LINE
  8
0
 10
85.4277
 20
7.19991
 11
83.394
 21
7.31989
  0
LINE
  8
0
 10
83.394
 20
7.31989
 11
81.3594
 21
7.42792
  0
LINE
  8
0
 10
81.3594
 20
7.42792
 11
79.3242
 21
7.50597
  0
LINE
  8
0
 10
79.3242
 20
7.50597
 11
77.2891
 21
7.54498
  0
LINE
  8
0
 10
77.2891
 20
7.54498
 11
75.2545
 21
7.55998
  0
LINE
  8
0
 10
75.2545
 20
7.55998
 11
73.2207
 21
7.55998
  0
LINE
  8
0
 10
73.2207
 20
7.55998
 11
71.1869
 21
7.56898
  0
LINE
  8
0
 10
71.1869
 20
7.56898
 11
69.155
 21
7.60497
  0
LINE
  8
0
 10
69.155
 20
7.60497
 11
67.1223
 21
7.68892
  0
LINE
  8
0
 10
67.1223
 20
7.68892
 11
65.0894
 21
7.81184
  0
LINE
  8
0
 10
65.0894
 20
7.81184
 11
63.0567
 21
7.95876
  0
LINE
  8
0
 10
63.0567
 20
7.95876
 11
61.0229
 21
8.11777
  0
LINE
  8
0
 10
61.0229
 20
8.11777
 11
58.9892
 21
8.27974
  0
LINE
  8
0
 10
58.9892
 20
8.27974
 11
56.9553
 21
8.44772
  0
LINE
  8
0
 10
56.9553
 20
8.44772
 11
54.9223
 21
8.62766
  0
LINE
  8
0
 10
54.9223
 20
8.62766
 11
52.89
 21
8.83749
  0
LINE
  8
0
 10
52.89
 20
8.83749
 11
50.8583
 21
9.09821
  0
LINE
  8
0
 10
50.8583
 20
9.09821
 11
48.8268
 21
9.42484
  0
LINE
  8
0
 10
48.8268
 20
9.42484
 11
46.7968
 21
9.83205
  0
LINE
  8
0
 10
46.7968
 20
9.83205
 11
44.7691
 21
10.3704
  0
LINE
  8
0
 10
44.7691
 20
10.3704
 11
42.7463
 21
11.1611
  0
LINE
  8
0
 10
42.7463
 20
11.1611
 11
40.7275
 21
12.4712
  0
LINE
  8
0
 10
40.7275
 20
12.4712
 11
38.7064
 21
14.7816
  0
LINE
  8
0
 10
38.7064
 20
14.7816
 11
36.6787
 21
18.6547
  0
LINE
  8
0
 10
36.6787
 20
18.6547
 11
34.6465
 21
24.0594
  0
LINE
  8
0
 10
34.6465
 20
24.0594
 11
32.6094
 21
29.543
  0
LINE
  8
0
 10
32.6094
 20
29.543
 11
30.5282
 21
32.5421
  0
LINE
  8
0
 10
30.5282
 20
32.5421
 11
28.4143
 21
31.139
  0
LINE
  8
0
 10
28.4143
 20
31.139
 11
26.3708
 21
26.3194
  0
LINE
  8
0
 10
26.3708
 20
26.3194
 11
24.3373
 21
20.6774
  0
LINE
  8
0
 10
24.3373
 20
20.6774
 11
22.3082
 21
16.2778
  0
LINE
  8
0
 10
22.3082
 20
16.2778
 11
20.2859
 21
13.6081
  0
LINE
  8
0
 10
20.2859
 20
13.6081
 11
18.2675
 21
12.1404
  0
LINE
  8
0
 10
18.2675
 20
12.1404
 11
16.2441
 21
11.251
  0
LINE
  8
0
 10
16.2441
 20
11.251
 11
14.2152
 21
10.5747
  0
LINE
  8
0
 10
14.2152
 20
10.5747
 11
12.1842
 21
9.9935
  0
LINE
  8
0
 10
12.1842
 20
9.9935
 11
10.1538
 21
9.50537
  0
LINE
  8
0
 10
10.1538
 20
9.50537
 11
8.12248
 21
9.11885
  0
LINE
  8
0
 10
8.12248
 20
9.11885
 11
6.09
 21
8.80408
  0
LINE
  8
0
 10
6.09
 20
8.80408
 11
4.05431
 21
8.47679
  0
LINE
  8
0
 10
4.05431
 20
8.47679
 11
2.01662
 21
8.05901
  0
LINE
  8
0
 10
2.01662
 20
8.05901
 11
-0.0749969
 21
7.49751
  0
LINE
  8
0
 10
-0.0749969
 20
7.49751
 11
-0.0749969
 21
-0.0749969
  0
LINE
  8
0
 10
-0.0749969
 20
-0.0749969
 11
17.925
 21
-0.0749969
  0
LINE
  8
0
 10
17.925
 20
-0.0749969
 11
17.925
 21
-3.075
  0
LINE
  8
0
 10
17.925
 20
-3.075
 11
30.075
 21
-3.075
  0
LINE
  8
0
 10
30.075
 20
-3.075
 11
30.075
 21
-0.0749969
  0
LINE
  8
0
 10
30.075
 20
-0.0749969
 11
89.925
 21
-0.0749969
  0
LINE
  8
0
 10
89.925
 20
-0.0749969
 11
89.925
 21
-3.075
  0
LINE
  8
0
 10
89.925
 20
-3.075
 11
102.075
 21
-3.075
  0
LINE
  8
0
 10
102.075
 20
-3.075
 11
102.075
 21
-0.0749969
  0
LINE
  8
0
 10
102.075
 20
-0.0749969
 11
120.075
 21
-0.0749969
  0
LINE
  8
0
 10
120.075
 20
-0.0749969
 11
120.075
 21
6.39481
  0
LINE
  8
0
 10
120.075
 20
6.39481
 11
117.97
 21
6.51588
  0
LINE
  8
0
 10
117.97
 20
6.51588
 11
113.902
 21
6.72589
  0
LINE
  8
0
 10
113.902
 20
6.72589
 11
111.867
 21
6.82195
  0
LINE
  8
0
 10
111.867
 20
6.82195
 11
109.832
 21
6.87898
  0
LINE
  8
0
 10
109.832
 20
6.87898
 11
107.796
 21
6.88499
  0
LINE
  8
0
 10
107.796
 20
6.88499
 11
105.762
 21
6.85799
  0
LINE
  8
0
 10
105.762
 20
6.85799
 11
103.728
 21
6.83398
  0
LINE
  8
0
 10
103.728
 20
6.83398
 11
101.696
 21
6.83398
  0
LINE
  8
0
 10
101.696
 20
6.83398
 11
99.6618
 21
6.855
  0
ENDSEC
  0
SECTION
  2
OBJECTS
  0
DICTIONARY
  0
ENDSEC
  0
EOF
