  0
SECTION
  2
BLOCKS
  0
ENDSEC
  0
SECTION
  2
ENTITIES
  0
LINE
  8
0
 10
-10.525
 20
-0.0749969
 11
10.525
 21
-0.0749969
  0
LINE
  8
0
 10
10.525
 20
-0.0749969
 11
10.525
 21
-6.075
  0
LINE
  8
0
 10
10.525
 20
-6.075
 11
22.675
 21
-6.075
  0
LINE
  8
0
 10
22.675
 20
-6.075
 11
22.675
 21
-0.0749969
  0
LINE
  8
0
 10
22.675
 20
-0.0749969
 11
33.275
 21
-0.0749969
  0
LINE
  8
0
 10
33.275
 20
-0.0749969
 11
33.275
 21
33.275
  0
LINE
  8
0
 10
33.275
 20
33.275
 11
25.1269
 21
33.275
  0
LINE
  8
0
 10
25.1269
 20
33.275
 11
25.0905
 21
31.8849
  0
LINE
  8
0
 10
25.0905
 20
31.8849
 11
24.9873
 21
30.5737
  0
LINE
  8
0
 10
24.9873
 20
30.5737
 11
24.8156
 21
29.2697
  0
LINE
  8
0
 10
24.8156
 20
29.2697
 11
24.5759
 21
27.976
  0
LINE
  8
0
 10
24.5759
 20
27.976
 11
24.2689
 21
26.6974
  0
LINE
  8
0
 10
24.2689
 20
26.6974
 11
23.8952
 21
25.4359
  0
LINE
  8
0
 10
23.8952
 20
25.4359
 11
23.4562
 21
24.196
  0
LINE
  8
0
 10
23.4562
 20
24.196
 11
22.9528
 21
22.9807
  0
LINE
  8
0
 10
22.9528
 20
22.9807
 11
22.3866
 21
21.7936
  0
LINE
  8
0
 10
22.3866
 20
21.7936
 11
21.7588
 21
20.6375
  0
LINE
  8
0
 10
21.7588
 20
20.6375
 11
21.0716
 21
19.516
  0
LINE
  8
0
 10
21.0716
 20
19.516
 11
20.3264
 21
18.4317
  0
LINE
  8
0
 10
20.3264
 20
18.4317
 11
19.5259
 21
17.3885
  0
LINE
  8
0
 10
19.5259
 20
17.3885
 11
18.6713
 21
16.3879
  0
LINE
  8
0
 10
18.6713
 20
16.3879
 11
17.766
 21
15.4339
  0
LINE
  8
0
 10
17.766
 20
15.4339
 11
16.8121
 21
14.5287
  0
LINE
  8
0
 10
16.8121
 20
14.5287
 11
15.8115
 21
13.6741
  0
LINE
  8
0
 10
15.8115
 20
13.6741
 11
14.7682
 21
12.8736
  0
LINE
  8
0
 10
14.7682
 20
12.8736
 11
13.684
 21
12.1284
  0
LINE
  8
0
 10
13.684
 20
12.1284
 11
12.5625
 21
11.4412
  0
LINE
  8
0
 10
12.5625
 20
11.4412
 11
11.4063
 21
10.8134
  0
LINE
  8
0
 10
11.4063
 20
10.8134
 11
10.2193
 21
10.2472
  0
LINE
  8
0
 10
10.2193
 20
10.2472
 11
9.00395
 21
9.74379
  0
LINE
  8
0
 10
9.00395
 20
9.74379
 11
7.76413
 21
9.30475
  0
LINE
  8
0
 10
7.76413
 20
9.30475
 11
6.50262
 21
8.93108
  0
LINE
  8
0
 10
6.50262
 20
8.93108
 11
5.22395
 21
8.6241
  0
LINE
  8
0
 10
5.22395
 20
8.6241
 11
3.93033
 21
8.38434
  0
LINE
  8
0
 10
3.93033
 20
8.38434
 11
2.62628
 21
8.21266
  0
LINE
  8
0
 10
2.62628
 20
8.21266
 11
1.31508
 21
8.10947
  0
LINE
  8
0
 10
1.31508
 20
8.10947
 11
0
 21
8.07503
  0
LINE
  8
0
 10
0
 20
8.07503
 11
-1.31508
 21
8.10947
  0
LINE
  8
0
 10
-1.31508
 20
8.10947
 11
-2.62628
 21
8.21266
  0
LINE
  8
0
 10
-2.62628
 20
8.21266
 11
-3.93033
 21
8.38434
  0
LINE
  8
0
 10
-3.93033
 20
8.38434
 11
-5.22395
 21
8.6241
  0
LINE
  8
0
 10
-5.22395
 20
8.6241
 11
-6.50262
 21
8.93108
  0
LINE
  8
0
 10
-6.50262
 20
8.93108
 11
-7.76413
 21
9.30475
  0
LINE
  8
0
 10
-7.76413
 20
9.30475
 11
-9.00395
 21
9.74379
  0
LINE
  8
0
 10
-9.00395
 20
9.74379
 11
-10.2193
 21
10.2472
  0
LINE
  8
0
 10
-10.2193
 20
10.2472
 11
-11.4063
 21
10.8134
  0
LINE
  8
0
 10
-11.4063
 20
10.8134
 11
-12.5625
 21
11.4412
  0
LINE
  8
0
 10
-12.5625
 20
11.4412
 11
-13.684
 21
12.1284
  0
LINE
  8
0
 10
-13.684
 20
12.1284
 11
-14.7682
 21
12.8736
  0
LINE
  8
0
 10
-14.7682
 20
12.8736
 11
-15.8115
 21
13.6741
  0
LINE
  8
0
 10
-15.8115
 20
13.6741
 11
-16.8121
 21
14.5287
  0
LINE
  8
0
 10
-16.8121
 20
14.5287
 11
-17.766
 21
15.4339
  0
LINE
  8
0
 10
-17.766
 20
15.4339
 11
-18.6713
 21
16.3879
  0
LINE
  8
0
 10
-18.6713
 20
16.3879
 11
-19.5259
 21
17.3885
  0
LINE
  8
0
 10
-19.5259
 20
17.3885
 11
-20.3264
 21
18.4317
  0
LINE
  8
0
 10
-20.3264
 20
18.4317
 11
-21.0716
 21
19.516
  0
LINE
  8
0
 10
-21.0716
 20
19.516
 11
-21.7588
 21
20.6375
  0
LINE
  8
0
 10
-21.7588
 20
20.6375
 11
-22.3866
 21
21.7936
  0
LINE
  8
0
 10
-22.3866
 20
21.7936
 11
-22.9528
 21
22.9807
  0
LINE
  8
0
 10
-22.9528
 20
22.9807
 11
-23.4562
 21
24.196
  0
LINE
  8
0
 10
-23.4562
 20
24.196
 11
-23.8952
 21
25.4359
  0
LINE
  8
0
 10
-23.8952
 20
25.4359
 11
-24.2689
 21
26.6974
  0
LINE
  8
0
 10
-24.2689
 20
26.6974
 11
-24.5759
 21
27.976
  0
LINE
  8
0
 10
-24.5759
 20
27.976
 11
-24.8156
 21
29.2697
  0
LINE
  8
0
 10
-24.8156
 20
29.2697
 11
-24.9873
 21
30.5737
  0
LINE
  8
0
 10
-24.9873
 20
30.5737
 11
-25.0905
 21
31.8849
  0
LINE
  8
0
 10
-25.0905
 20
31.8849
 11
-25.1269
 21
33.275
  0
LINE
  8
0
 10
-25.1269
 20
33.275
 11
-33.275
 21
33.275
  0
LINE
  8
0
 10
-33.275
 20
33.275
 11
-33.275
 21
-0.0749969
  0
LINE
  8
0
 10
-33.275
 20
-0.0749969
 11
-22.675
 21
-0.0749969
  0
LINE
  8
0
 10
-22.675
 20
-0.0749969
 11
-22.675
 21
-6.075
  0
LINE
  8
0
 10
-22.675
 20
-6.075
 11
-10.525
 21
-6.075
  0
LINE
  8
0
 10
-10.525
 20
-6.075
 11
-10.525
 21
-0.0749969
  0
LINE
  8
0
 10
28.025
 20
19.275
 11
28.025
 21
25.125
  0
LINE
  8
0
 10
28.025
 20
25.125
 11
30.375
 21
25.125
  0
LINE
  8
0
 10
30.375
 20
25.125
 11
30.375
 21
19.275
  0
LINE
  8
0
 10
30.375
 20
19.275
 11
28.025
 21
19.275
  0
LINE
  8
0
 10
-30.375
 20
19.275
 11
-30.375
 21
25.125
  0
LINE
  8
0
 10
-30.375
 20
25.125
 11
-28.025
 21
25.125
  0
LINE
  8
0
 10
-28.025
 20
25.125
 11
-28.025
 21
19.275
  0
LINE
  8
0
 10
-28.025
 20
19.275
 11
-30.375
 21
19.275
  0
ENDSEC
  0
SECTION
  2
OBJECTS
  0
DICTIONARY
  0
ENDSEC
  0
EOF
