<?xml version="1.0" standalone="no"?>
<!DOCTYPE svg PUBLIC "-//W3C//DTD SVG 1.1//EN" "http://www.w3.org/Graphics/SVG/1.1/DTD/svg11.dtd">
<svg width="95mm" height="20mm" viewBox="3 -21 95 20" xmlns="http://www.w3.org/2000/svg" version="1.1">
<title>OpenSCAD Model</title>
<path d="
M 96.8079,-20.0595 L 84.0976,-20.0595 L 83.8669,-19.4595 L 97.0398,-19.4595 z
M 5.61806,-1.93716 L 4.85144,-1.93716 L 4.85144,-4.78526 L 4.1553,-4.78526 L 3.28227,-4.21892 L 3.28227,-3.57704
 L 4.08447,-4.07785 L 4.08447,-1.93716 L 3.25616,-1.93716 L 3.25616,-1.34109 L 5.61806,-1.34109 z
M 12.2173,-1.93716 L 11.4507,-1.93716 L 11.4507,-4.78526 L 10.7545,-4.78526 L 9.88148,-4.21892 L 9.88148,-3.57704
 L 10.6837,-4.07785 L 10.6837,-1.93716 L 9.85538,-1.93716 L 9.85538,-1.34109 L 12.2173,-1.34109 z
M 14.5955,-1.93716 L 13.8289,-1.93716 L 13.8289,-4.78526 L 13.1327,-4.78526 L 12.2597,-4.21892 L 12.2597,-3.57704
 L 13.0619,-4.07785 L 13.0619,-1.93716 L 12.2336,-1.93716 L 12.2336,-1.34109 L 14.5955,-1.34109 z
M 8.8208,-1.37431 L 9.23129,-1.62097 L 9.49178,-2.00781 L 9.57779,-2.50383 L 9.50346,-2.97874 L 9.27797,-3.34669
 L 8.92628,-3.58118 L 8.47836,-3.65857 L 8.12796,-3.60236 L 7.92882,-3.4852 L 7.97432,-4.18921 L 9.38252,-4.18921
 L 9.38252,-4.78526 L 7.27518,-4.78526 L 7.15274,-2.80315 L 7.87384,-2.80315 L 8.07945,-2.9687 L 8.31046,-3.01816
 L 8.51355,-2.98233 L 8.66322,-2.87682 L 8.75809,-2.71043 L 8.79066,-2.48979 L 8.75594,-2.24246 L 8.65515,-2.06668
 L 8.49988,-1.95999 L 8.2942,-1.92349 L 8.12532,-1.94576 L 7.99136,-2.01086 L 7.89117,-2.12321 L 7.80852,-2.33403
 L 7.04056,-2.27115 L 7.19356,-1.8221 L 7.45161,-1.52965 L 7.82083,-1.3517 L 8.28886,-1.29317 z
M 16.9138,-2.19556 L 18.1172,-2.19556 L 18.4139,-1.34109 L 19.2139,-1.34109 L 17.9623,-4.78526 L 17.0663,-4.78526
 L 15.8099,-1.34109 L 16.6171,-1.34109 z
M 17.1048,-2.82245 L 17.3718,-3.60254 L 17.4908,-3.9583 L 17.516,-4.04283 L 17.6187,-3.71802 L 17.9261,-2.82245
 z
M 6.70598,-2.16501 L 5.92004,-2.16501 L 5.92004,-1.34109 L 6.70598,-1.34109 z
" stroke="black" fill="lightgray" stroke-width="0.5"/>
</svg>
