  0
SECTION
  2
BLOCKS
  0
ENDSEC
  0
SECTION
  2
ENTITIES
  0
LINE
  8
0
 10
-161.525
 20
-32.625
 11
-162.725
 21
-32.625
  0
LINE
  8
0
 10
-162.725
 20
-32.625
 11
-162.725
 21
-30.275
  0
LINE
  8
0
 10
-162.725
 20
-30.275
 11
-161.525
 21
-30.275
  0
LINE
  8
0
 10
-161.525
 20
-30.275
 11
-161.525
 21
-27.775
  0
LINE
  8
0
 10
-161.525
 20
-27.775
 11
-158.475
 21
-27.775
  0
LINE
  8
0
 10
-158.475
 20
-27.775
 11
-158.475
 21
-30.275
  0
LINE
  8
0
 10
-158.475
 20
-30.275
 11
-157.275
 21
-30.275
  0
LINE
  8
0
 10
-157.275
 20
-30.275
 11
-157.275
 21
-32.625
  0
LINE
  8
0
 10
-157.275
 20
-32.625
 11
-158.475
 21
-32.625
  0
LINE
  8
0
 10
-158.475
 20
-32.625
 11
-158.475
 21
-37.775
  0
LINE
  8
0
 10
-158.475
 20
-37.775
 11
-138.075
 21
-37.775
  0
LINE
  8
0
 10
-138.075
 20
-37.775
 11
-138.075
 21
-11.175
  0
LINE
  8
0
 10
-138.075
 20
-11.175
 11
-90.925
 21
-11.175
  0
LINE
  8
0
 10
-90.925
 20
-11.175
 11
-90.925
 21
-37.775
  0
LINE
  8
0
 10
-90.925
 20
-37.775
 11
-71.525
 21
-37.775
  0
LINE
  8
0
 10
-71.525
 20
-37.775
 11
-71.525
 21
-32.625
  0
LINE
  8
0
 10
-71.525
 20
-32.625
 11
-72.725
 21
-32.625
  0
LINE
  8
0
 10
-72.725
 20
-32.625
 11
-72.725
 21
-30.275
  0
LINE
  8
0
 10
-72.725
 20
-30.275
 11
-71.525
 21
-30.275
  0
LINE
  8
0
 10
-71.525
 20
-30.275
 11
-71.525
 21
-27.775
  0
LINE
  8
0
 10
-71.525
 20
-27.775
 11
-68.475
 21
-27.775
  0
LINE
  8
0
 10
-68.475
 20
-27.775
 11
-68.475
 21
-30.275
  0
LINE
  8
0
 10
-68.475
 20
-30.275
 11
-67.275
 21
-30.275
  0
LINE
  8
0
 10
-67.275
 20
-30.275
 11
-67.275
 21
-32.625
  0
LINE
  8
0
 10
-67.275
 20
-32.625
 11
-68.475
 21
-32.625
  0
LINE
  8
0
 10
-68.475
 20
-32.625
 11
-68.475
 21
-37.775
  0
LINE
  8
0
 10
-68.475
 20
-37.775
 11
-31.525
 21
-37.775
  0
LINE
  8
0
 10
-31.525
 20
-37.775
 11
-31.525
 21
-32.625
  0
LINE
  8
0
 10
-31.525
 20
-32.625
 11
-32.725
 21
-32.625
  0
LINE
  8
0
 10
-32.725
 20
-32.625
 11
-32.725
 21
-30.275
  0
LINE
  8
0
 10
-32.725
 20
-30.275
 11
-31.525
 21
-30.275
  0
LINE
  8
0
 10
-31.525
 20
-30.275
 11
-31.525
 21
-27.775
  0
LINE
  8
0
 10
-31.525
 20
-27.775
 11
-28.475
 21
-27.775
  0
LINE
  8
0
 10
-28.475
 20
-27.775
 11
-28.475
 21
-30.275
  0
LINE
  8
0
 10
-28.475
 20
-30.275
 11
-27.275
 21
-30.275
  0
LINE
  8
0
 10
-27.275
 20
-30.275
 11
-27.275
 21
-32.625
  0
LINE
  8
0
 10
-27.275
 20
-32.625
 11
-28.475
 21
-32.625
  0
LINE
  8
0
 10
-28.475
 20
-32.625
 11
-28.475
 21
-37.775
  0
LINE
  8
0
 10
-28.475
 20
-37.775
 11
3.575
 21
-37.775
  0
LINE
  8
0
 10
3.575
 20
-37.775
 11
3.575
 21
-30.035
  0
LINE
  8
0
 10
3.575
 20
-30.035
 11
0.474991
 21
-30.035
  0
LINE
  8
0
 10
0.474991
 20
-30.035
 11
0.474991
 21
-19.985
  0
LINE
  8
0
 10
0.474991
 20
-19.985
 11
3.575
 21
-19.985
  0
LINE
  8
0
 10
3.575
 20
-19.985
 11
3.575
 21
-11
  0
LINE
  8
0
 10
3.575
 20
-11
 11
0.474991
 21
-11
  0
LINE
  8
0
 10
0.474991
 20
-11
 11
0.474991
 21
-0.949997
  0
LINE
  8
0
 10
0.474991
 20
-0.949997
 11
3.575
 21
-0.949997
  0
LINE
  8
0
 10
3.575
 20
-0.949997
 11
3.575
 21
4.67499
  0
LINE
  8
0
 10
3.575
 20
4.67499
 11
-12.425
 21
4.67499
  0
LINE
  8
0
 10
-12.425
 20
4.67499
 11
-12.425
 21
7.67499
  0
LINE
  8
0
 10
-12.425
 20
7.67499
 11
-27.575
 21
7.67499
  0
LINE
  8
0
 10
-27.575
 20
7.67499
 11
-27.575
 21
4.67499
  0
LINE
  8
0
 10
-27.575
 20
4.67499
 11
-82.425
 21
4.67499
  0
LINE
  8
0
 10
-82.425
 20
4.67499
 11
-82.425
 21
7.67499
  0
LINE
  8
0
 10
-82.425
 20
7.67499
 11
-97.575
 21
7.67499
  0
LINE
  8
0
 10
-97.575
 20
7.67499
 11
-97.575
 21
4.67499
  0
LINE
  8
0
 10
-97.575
 20
4.67499
 11
-162.425
 21
4.67499
  0
LINE
  8
0
 10
-162.425
 20
4.67499
 11
-162.425
 21
7.67499
  0
LINE
  8
0
 10
-162.425
 20
7.67499
 11
-177.575
 21
7.67499
  0
LINE
  8
0
 10
-177.575
 20
7.67499
 11
-177.575
 21
4.67499
  0
LINE
  8
0
 10
-177.575
 20
4.67499
 11
-183.575
 21
4.67499
  0
LINE
  8
0
 10
-183.575
 20
4.67499
 11
-183.575
 21
-0.949997
  0
LINE
  8
0
 10
-183.575
 20
-0.949997
 11
-180.475
 21
-0.949997
  0
LINE
  8
0
 10
-180.475
 20
-0.949997
 11
-180.475
 21
-11
  0
LINE
  8
0
 10
-180.475
 20
-11
 11
-183.575
 21
-11
  0
LINE
  8
0
 10
-183.575
 20
-11
 11
-183.575
 21
-19.985
  0
LINE
  8
0
 10
-183.575
 20
-19.985
 11
-180.475
 21
-19.985
  0
LINE
  8
0
 10
-180.475
 20
-19.985
 11
-180.475
 21
-30.035
  0
LINE
  8
0
 10
-180.475
 20
-30.035
 11
-183.575
 21
-30.035
  0
LINE
  8
0
 10
-183.575
 20
-30.035
 11
-183.575
 21
-37.775
  0
LINE
  8
0
 10
-183.575
 20
-37.775
 11
-161.525
 21
-37.775
  0
LINE
  8
0
 10
-161.525
 20
-37.775
 11
-161.525
 21
-32.625
  0
LINE
  8
0
 10
-168.675
 20
-16.525
 11
-168.675
 21
-7.67499
  0
LINE
  8
0
 10
-168.675
 20
-7.67499
 11
-155.325
 21
-7.67499
  0
LINE
  8
0
 10
-155.325
 20
-7.67499
 11
-155.325
 21
-16.525
  0
LINE
  8
0
 10
-155.325
 20
-16.525
 11
-168.675
 21
-16.525
  0
LINE
  8
0
 10
-153.875
 20
-24.825
 11
-153.875
 21
-11.175
  0
LINE
  8
0
 10
-153.875
 20
-11.175
 11
-141.525
 21
-11.175
  0
LINE
  8
0
 10
-141.525
 20
-11.175
 11
-141.525
 21
-24.825
  0
LINE
  8
0
 10
-141.525
 20
-24.825
 11
-153.875
 21
-24.825
  0
ENDSEC
  0
SECTION
  2
OBJECTS
  0
DICTIONARY
  0
ENDSEC
  0
EOF
