  0
SECTION
  2
BLOCKS
  0
ENDSEC
  0
SECTION
  2
ENTITIES
  0
LINE
  8
0
 10
5.075
 20
-0.0749969
 11
11.075
 21
-0.0749969
  0
LINE
  8
0
 10
11.075
 20
-0.0749969
 11
11.075
 21
16.075
  0
LINE
  8
0
 10
11.075
 20
16.075
 11
2.93202
 21
16.075
  0
LINE
  8
0
 10
2.93202
 20
16.075
 11
2.86842
 21
15.4294
  0
LINE
  8
0
 10
2.86842
 20
15.4294
 11
2.702
 21
14.8808
  0
LINE
  8
0
 10
2.702
 20
14.8808
 11
2.43172
 21
14.3751
  0
LINE
  8
0
 10
2.43172
 20
14.3751
 11
2.06802
 21
13.932
  0
LINE
  8
0
 10
2.06802
 20
13.932
 11
1.62488
 21
13.5683
  0
LINE
  8
0
 10
1.62488
 20
13.5683
 11
1.11922
 21
13.298
  0
LINE
  8
0
 10
1.11922
 20
13.298
 11
0.570557
 21
13.1316
  0
LINE
  8
0
 10
0.570557
 20
13.1316
 11
0
 21
13.0754
  0
LINE
  8
0
 10
0
 20
13.0754
 11
-0.570557
 21
13.1316
  0
LINE
  8
0
 10
-0.570557
 20
13.1316
 11
-1.11922
 21
13.298
  0
LINE
  8
0
 10
-1.11922
 20
13.298
 11
-1.62488
 21
13.5683
  0
LINE
  8
0
 10
-1.62488
 20
13.5683
 11
-2.06802
 21
13.932
  0
LINE
  8
0
 10
-2.06802
 20
13.932
 11
-2.43172
 21
14.3751
  0
LINE
  8
0
 10
-2.43172
 20
14.3751
 11
-2.702
 21
14.8808
  0
LINE
  8
0
 10
-2.702
 20
14.8808
 11
-2.86842
 21
15.4294
  0
LINE
  8
0
 10
-2.86842
 20
15.4294
 11
-2.93202
 21
16.075
  0
LINE
  8
0
 10
-2.93202
 20
16.075
 11
-11.075
 21
16.075
  0
LINE
  8
0
 10
-11.075
 20
16.075
 11
-11.075
 21
-0.0749969
  0
LINE
  8
0
 10
-11.075
 20
-0.0749969
 11
-5.075
 21
-0.0749969
  0
LINE
  8
0
 10
-5.075
 20
-0.0749969
 11
-5.075
 21
-6.075
  0
LINE
  8
0
 10
-5.075
 20
-6.075
 11
5.075
 21
-6.075
  0
LINE
  8
0
 10
5.075
 20
-6.075
 11
5.075
 21
-0.0749969
  0
LINE
  8
0
 10
5.825
 20
7.075
 11
5.825
 21
11.925
  0
LINE
  8
0
 10
5.825
 20
11.925
 11
8.175
 21
11.925
  0
LINE
  8
0
 10
8.175
 20
11.925
 11
8.175
 21
7.075
  0
LINE
  8
0
 10
8.175
 20
7.075
 11
5.825
 21
7.075
  0
LINE
  8
0
 10
-8.175
 20
7.075
 11
-8.175
 21
11.925
  0
LINE
  8
0
 10
-8.175
 20
11.925
 11
-5.825
 21
11.925
  0
LINE
  8
0
 10
-5.825
 20
11.925
 11
-5.825
 21
7.075
  0
LINE
  8
0
 10
-5.825
 20
7.075
 11
-8.175
 21
7.075
  0
ENDSEC
  0
SECTION
  2
OBJECTS
  0
DICTIONARY
  0
ENDSEC
  0
EOF
