  0
SECTION
  2
BLOCKS
  0
ENDSEC
  0
SECTION
  2
ENTITIES
  0
LINE
  8
0
 10
99.6632
 20
6.88196
 11
97.629
 21
6.94197
  0
LINE
  8
0
 10
97.629
 20
6.94197
 11
95.5939
 21
6.98399
  0
LINE
  8
0
 10
95.5939
 20
6.98399
 11
93.5585
 21
6.98099
  0
LINE
  8
0
 10
93.5585
 20
6.98099
 11
91.5239
 21
6.94197
  0
LINE
  8
0
 10
91.5239
 20
6.94197
 11
89.4905
 21
6.89699
  0
LINE
  8
0
 10
89.4905
 20
6.89699
 11
87.4588
 21
6.89398
  0
LINE
  8
0
 10
87.4588
 20
6.89398
 11
85.4273
 21
6.96291
  0
LINE
  8
0
 10
85.4273
 20
6.96291
 11
83.3942
 21
7.08586
  0
LINE
  8
0
 10
83.3942
 20
7.08586
 11
81.3592
 21
7.20293
  0
LINE
  8
0
 10
81.3592
 20
7.20293
 11
79.3236
 21
7.26598
  0
LINE
  8
0
 10
79.3236
 20
7.26598
 11
77.2887
 21
7.28699
  0
LINE
  8
0
 10
77.2887
 20
7.28699
 11
75.2552
 21
7.29599
  0
LINE
  8
0
 10
75.2552
 20
7.29599
 11
73.2216
 21
7.32298
  0
LINE
  8
0
 10
73.2216
 20
7.32298
 11
71.1871
 21
7.35599
  0
LINE
  8
0
 10
71.1871
 20
7.35599
 11
69.1523
 21
7.36198
  0
LINE
  8
0
 10
69.1523
 20
7.36198
 11
67.118
 21
7.34399
  0
LINE
  8
0
 10
67.118
 20
7.34399
 11
65.0853
 21
7.33499
  0
LINE
  8
0
 10
65.0853
 20
7.33499
 11
63.0522
 21
7.35899
  0
LINE
  8
0
 10
63.0522
 20
7.35899
 11
61.0187
 21
7.40695
  0
LINE
  8
0
 10
61.0187
 20
7.40695
 11
58.985
 21
7.46097
  0
LINE
  8
0
 10
58.985
 20
7.46097
 11
56.951
 21
7.51198
  0
LINE
  8
0
 10
56.951
 20
7.51198
 11
54.9179
 21
7.57195
  0
LINE
  8
0
 10
54.9179
 20
7.57195
 11
52.8862
 21
7.67084
  0
LINE
  8
0
 10
52.8862
 20
7.67084
 11
50.8533
 21
7.82076
  0
LINE
  8
0
 10
50.8533
 20
7.82076
 11
48.8209
 21
8.01262
  0
LINE
  8
0
 10
48.8209
 20
8.01262
 11
46.7865
 21
8.21368
  0
LINE
  8
0
 10
46.7865
 20
8.21368
 11
44.7514
 21
8.38478
  0
LINE
  8
0
 10
44.7514
 20
8.38478
 11
42.7169
 21
8.52281
  0
LINE
  8
0
 10
42.7169
 20
8.52281
 11
40.6841
 21
8.66374
  0
LINE
  8
0
 10
40.6841
 20
8.66374
 11
38.6533
 21
8.85544
  0
LINE
  8
0
 10
38.6533
 20
8.85544
 11
36.6236
 21
9.15483
  0
LINE
  8
0
 10
36.6236
 20
9.15483
 11
34.5952
 21
9.59464
  0
LINE
  8
0
 10
34.5952
 20
9.59464
 11
32.5681
 21
10.2166
  0
LINE
  8
0
 10
32.5681
 20
10.2166
 11
30.5435
 21
11.0766
  0
LINE
  8
0
 10
30.5435
 20
11.0766
 11
28.523
 21
12.367
  0
LINE
  8
0
 10
28.523
 20
12.367
 11
26.5019
 21
14.5462
  0
LINE
  8
0
 10
26.5019
 20
14.5462
 11
24.4748
 21
18.2239
  0
LINE
  8
0
 10
24.4748
 20
18.2239
 11
22.4428
 21
23.4601
  0
LINE
  8
0
 10
22.4428
 20
23.4601
 11
20.4061
 21
28.8827
  0
LINE
  8
0
 10
20.4061
 20
28.8827
 11
18.3274
 21
31.9488
  0
LINE
  8
0
 10
18.3274
 20
31.9488
 11
16.212
 21
30.682
  0
LINE
  8
0
 10
16.212
 20
30.682
 11
14.1676
 21
25.9838
  0
LINE
  8
0
 10
14.1676
 20
25.9838
 11
12.134
 21
20.4138
  0
LINE
  8
0
 10
12.134
 20
20.4138
 11
10.1049
 21
16.056
  0
LINE
  8
0
 10
10.1049
 20
16.056
 11
8.0824
 21
13.4039
  0
LINE
  8
0
 10
8.0824
 20
13.4039
 11
6.06195
 21
11.9079
  0
LINE
  8
0
 10
6.06195
 20
11.9079
 11
4.03394
 21
10.8639
  0
LINE
  8
0
 10
4.03394
 20
10.8639
 11
1.99861
 21
9.8342
  0
LINE
  8
0
 10
1.99861
 20
9.8342
 11
-0.0749969
 21
8.67194
  0
LINE
  8
0
 10
-0.0749969
 20
8.67194
 11
-0.0749969
 21
-0.0749969
  0
LINE
  8
0
 10
-0.0749969
 20
-0.0749969
 11
17.925
 21
-0.0749969
  0
LINE
  8
0
 10
17.925
 20
-0.0749969
 11
17.925
 21
-3.075
  0
LINE
  8
0
 10
17.925
 20
-3.075
 11
30.075
 21
-3.075
  0
LINE
  8
0
 10
30.075
 20
-3.075
 11
30.075
 21
-0.0749969
  0
LINE
  8
0
 10
30.075
 20
-0.0749969
 11
89.925
 21
-0.0749969
  0
LINE
  8
0
 10
89.925
 20
-0.0749969
 11
89.925
 21
-3.075
  0
LINE
  8
0
 10
89.925
 20
-3.075
 11
102.075
 21
-3.075
  0
LINE
  8
0
 10
102.075
 20
-3.075
 11
102.075
 21
-0.0749969
  0
LINE
  8
0
 10
102.075
 20
-0.0749969
 11
120.075
 21
-0.0749969
  0
LINE
  8
0
 10
120.075
 20
-0.0749969
 11
120.075
 21
6.4666
  0
LINE
  8
0
 10
120.075
 20
6.4666
 11
117.97
 21
6.59392
  0
LINE
  8
0
 10
117.97
 20
6.59392
 11
115.934
 21
6.66298
  0
LINE
  8
0
 10
115.934
 20
6.66298
 11
113.899
 21
6.69598
  0
LINE
  8
0
 10
113.899
 20
6.69598
 11
109.831
 21
6.73799
  0
LINE
  8
0
 10
109.831
 20
6.73799
 11
107.797
 21
6.74998
  0
LINE
  8
0
 10
107.797
 20
6.74998
 11
105.764
 21
6.75899
  0
LINE
  8
0
 10
105.764
 20
6.75899
 11
103.73
 21
6.78299
  0
LINE
  8
0
 10
103.73
 20
6.78299
 11
101.697
 21
6.82498
  0
LINE
  8
0
 10
101.697
 20
6.82498
 11
99.6632
 21
6.88196
  0
ENDSEC
  0
SECTION
  2
OBJECTS
  0
DICTIONARY
  0
ENDSEC
  0
EOF
