  0
SECTION
  2
BLOCKS
  0
ENDSEC
  0
SECTION
  2
ENTITIES
  0
LINE
  8
0
 10
36.2734
 20
19.5195
 11
23.8858
 21
19.5195
  0
LINE
  8
0
 10
23.8858
 20
19.5195
 11
23.6091
 21
18.9195
  0
LINE
  8
0
 10
23.6091
 20
18.9195
 11
36.4991
 21
18.9195
  0
LINE
  8
0
 10
36.4991
 20
18.9195
 11
36.2734
 21
19.5195
  0
LINE
  8
0
 10
14.0663
 20
1.38248
 11
14.4782
 21
1.72916
  0
LINE
  8
0
 10
14.4782
 20
1.72916
 11
14.7299
 21
2.30055
  0
LINE
  8
0
 10
14.7299
 20
2.30055
 11
14.8126
 21
3.09132
  0
LINE
  8
0
 10
14.8126
 20
3.09132
 11
14.738
 21
3.83463
  0
LINE
  8
0
 10
14.738
 20
3.83463
 11
14.5106
 21
4.37389
  0
LINE
  8
0
 10
14.5106
 20
4.37389
 11
14.1216
 21
4.70235
  0
LINE
  8
0
 10
14.1216
 20
4.70235
 11
13.5768
 21
4.81068
  0
LINE
  8
0
 10
13.5768
 20
4.81068
 11
13.0637
 21
4.73373
  0
LINE
  8
0
 10
13.0637
 20
4.73373
 11
12.6771
 21
4.50008
  0
LINE
  8
0
 10
12.6771
 20
4.50008
 11
12.4364
 21
4.12737
  0
LINE
  8
0
 10
12.4364
 20
4.12737
 11
12.3573
 21
3.64018
  0
LINE
  8
0
 10
12.3573
 20
3.64018
 11
12.4246
 21
3.16402
  0
LINE
  8
0
 10
12.4246
 20
3.16402
 11
12.6292
 21
2.79305
  0
LINE
  8
0
 10
12.6292
 20
2.79305
 11
12.9525
 21
2.55461
  0
LINE
  8
0
 10
12.9525
 20
2.55461
 11
13.3671
 21
2.47603
  0
LINE
  8
0
 10
13.3671
 20
2.47603
 11
13.6097
 21
2.50269
  0
LINE
  8
0
 10
13.6097
 20
2.50269
 11
13.8345
 21
2.58244
  0
LINE
  8
0
 10
13.8345
 20
2.58244
 11
14.0233
 21
2.71092
  0
LINE
  8
0
 10
14.0233
 20
2.71092
 11
14.0418
 21
2.73561
  0
LINE
  8
0
 10
14.0418
 20
2.73561
 11
14.0167
 21
2.45451
  0
LINE
  8
0
 10
14.0167
 20
2.45451
 11
13.9079
 21
2.13722
  0
LINE
  8
0
 10
13.9079
 20
2.13722
 11
13.7416
 21
1.9545
  0
LINE
  8
0
 10
13.7416
 20
1.9545
 11
13.5222
 21
1.89511
  0
LINE
  8
0
 10
13.5222
 20
1.89511
 11
13.2803
 21
1.97205
  0
LINE
  8
0
 10
13.2803
 20
1.97205
 11
13.12
 21
2.24608
  0
LINE
  8
0
 10
13.12
 20
2.24608
 11
12.3971
 21
2.14476
  0
LINE
  8
0
 10
12.3971
 20
2.14476
 11
12.5649
 21
1.72423
  0
LINE
  8
0
 10
12.5649
 20
1.72423
 11
12.7913
 21
1.46643
  0
LINE
  8
0
 10
12.7913
 20
1.46643
 11
13.1061
 21
1.31699
  0
LINE
  8
0
 10
13.1061
 20
1.31699
 11
13.5161
 21
1.26787
  0
LINE
  8
0
 10
13.5161
 20
1.26787
 11
14.0663
 21
1.38248
  0
LINE
  8
0
 10
13.3832
 20
3.11082
 11
13.2504
 21
3.22145
  0
LINE
  8
0
 10
13.2504
 20
3.22145
 11
13.1643
 21
3.39923
  0
LINE
  8
0
 10
13.1643
 20
3.39923
 11
13.1347
 21
3.63493
  0
LINE
  8
0
 10
13.1347
 20
3.63493
 11
13.1646
 21
3.87209
  0
LINE
  8
0
 10
13.1646
 20
3.87209
 11
13.2511
 21
4.04539
  0
LINE
  8
0
 10
13.2511
 20
4.04539
 11
13.3835
 21
4.15112
  0
LINE
  8
0
 10
13.3835
 20
4.15112
 11
13.5584
 21
4.18665
  0
LINE
  8
0
 10
13.5584
 20
4.18665
 11
13.7389
 21
4.1458
  0
LINE
  8
0
 10
13.7389
 20
4.1458
 11
13.8802
 21
4.02293
  0
LINE
  8
0
 10
13.8802
 20
4.02293
 11
13.9746
 21
3.82407
  0
LINE
  8
0
 10
13.9746
 20
3.82407
 11
14.0069
 21
3.55991
  0
LINE
  8
0
 10
14.0069
 20
3.55991
 11
13.9743
 21
3.35699
  0
LINE
  8
0
 10
13.9743
 20
3.35699
 11
13.8792
 21
3.20383
  0
LINE
  8
0
 10
13.8792
 20
3.20383
 11
13.7373
 21
3.10626
  0
LINE
  8
0
 10
13.7373
 20
3.10626
 11
13.5619
 21
3.07355
  0
LINE
  8
0
 10
13.5619
 20
3.07355
 11
13.3832
 21
3.11082
  0
LINE
  8
0
 10
11.4798
 20
1.33498
 11
11.8752
 21
1.53922
  0
LINE
  8
0
 10
11.8752
 20
1.53922
 11
12.1223
 21
1.87019
  0
LINE
  8
0
 10
12.1223
 20
1.87019
 11
12.2037
 21
2.30734
  0
LINE
  8
0
 10
12.2037
 20
2.30734
 11
12.1551
 21
2.62892
  0
LINE
  8
0
 10
12.1551
 20
2.62892
 11
12.0077
 21
2.88847
  0
LINE
  8
0
 10
12.0077
 20
2.88847
 11
11.7743
 21
3.07249
  0
LINE
  8
0
 10
11.7743
 20
3.07249
 11
11.6017
 21
3.12776
  0
LINE
  8
0
 10
11.6017
 20
3.12776
 11
11.7378
 21
3.17825
  0
LINE
  8
0
 10
11.7378
 20
3.17825
 11
11.9445
 21
3.35857
  0
LINE
  8
0
 10
11.9445
 20
3.35857
 11
12.0767
 21
3.59698
  0
LINE
  8
0
 10
12.0767
 20
3.59698
 11
12.1207
 21
3.87067
  0
LINE
  8
0
 10
12.1207
 20
3.87067
 11
12.0441
 21
4.26939
  0
LINE
  8
0
 10
12.0441
 20
4.26939
 11
11.8116
 21
4.56834
  0
LINE
  8
0
 10
11.8116
 20
4.56834
 11
11.4397
 21
4.75072
  0
LINE
  8
0
 10
11.4397
 20
4.75072
 11
10.9448
 21
4.81033
  0
LINE
  8
0
 10
10.9448
 20
4.81033
 11
10.4587
 21
4.74913
  0
LINE
  8
0
 10
10.4587
 20
4.74913
 11
10.09
 21
4.5621
  0
LINE
  8
0
 10
10.09
 20
4.5621
 11
9.85774
 21
4.26326
  0
LINE
  8
0
 10
9.85774
 20
4.26326
 11
9.78102
 21
3.87556
  0
LINE
  8
0
 10
9.78102
 20
3.87556
 11
9.82536
 21
3.60114
  0
LINE
  8
0
 10
9.82536
 20
3.60114
 11
9.9583
 21
3.36116
  0
LINE
  8
0
 10
9.9583
 20
3.36116
 11
10.1635
 21
3.17812
  0
LINE
  8
0
 10
10.1635
 20
3.17812
 11
10.3021
 21
3.12331
  0
LINE
  8
0
 10
10.3021
 20
3.12331
 11
10.1306
 21
3.06557
  0
LINE
  8
0
 10
10.1306
 20
3.06557
 11
9.89969
 21
2.87616
  0
LINE
  8
0
 10
9.89969
 20
2.87616
 11
9.75177
 21
2.61539
  0
LINE
  8
0
 10
9.75177
 20
2.61539
 11
9.70274
 21
2.30264
  0
LINE
  8
0
 10
9.70274
 20
2.30264
 11
9.78517
 21
1.86726
  0
LINE
  8
0
 10
9.78517
 20
1.86726
 11
10.035
 21
1.53786
  0
LINE
  8
0
 10
10.035
 20
1.53786
 11
10.4318
 21
1.33467
  0
LINE
  8
0
 10
10.4318
 20
1.33467
 11
10.9544
 21
1.26808
  0
LINE
  8
0
 10
10.9544
 20
1.26808
 11
11.4798
 21
1.33498
  0
LINE
  8
0
 10
10.6628
 20
3.51312
 11
10.5653
 21
3.83403
  0
LINE
  8
0
 10
10.5653
 20
3.83403
 11
10.6612
 21
4.13907
  0
LINE
  8
0
 10
10.6612
 20
4.13907
 11
10.95
 21
4.24115
  0
LINE
  8
0
 10
10.95
 20
4.24115
 11
11.1206
 21
4.21672
  0
LINE
  8
0
 10
11.1206
 20
4.21672
 11
11.2379
 21
4.14586
  0
LINE
  8
0
 10
11.2379
 20
4.14586
 11
11.3085
 21
4.02351
  0
LINE
  8
0
 10
11.3085
 20
4.02351
 11
11.3336
 21
3.83405
  0
LINE
  8
0
 10
11.3336
 20
3.83405
 11
11.3086
 21
3.62978
  0
LINE
  8
0
 10
11.3086
 20
3.62978
 11
11.2385
 21
3.50204
  0
LINE
  8
0
 10
11.2385
 20
3.50204
 11
11.123
 21
3.43074
  0
LINE
  8
0
 10
11.123
 20
3.43074
 11
10.955
 21
3.40617
  0
LINE
  8
0
 10
10.955
 20
3.40617
 11
10.6628
 21
3.51312
  0
LINE
  8
0
 10
10.7472
 20
1.87019
 11
10.6051
 21
1.95917
  0
LINE
  8
0
 10
10.6051
 20
1.95917
 11
10.5199
 21
2.11444
  0
LINE
  8
0
 10
10.5199
 20
2.11444
 11
10.4899
 21
2.35294
  0
LINE
  8
0
 10
10.4899
 20
2.35294
 11
10.5199
 21
2.56512
  0
LINE
  8
0
 10
10.5199
 20
2.56512
 11
10.6061
 21
2.71436
  0
LINE
  8
0
 10
10.6061
 20
2.71436
 11
10.7448
 21
2.80524
  0
LINE
  8
0
 10
10.7448
 20
2.80524
 11
10.936
 21
2.83601
  0
LINE
  8
0
 10
10.936
 20
2.83601
 11
11.2922
 21
2.71672
  0
LINE
  8
0
 10
11.2922
 20
2.71672
 11
11.4114
 21
2.35757
  0
LINE
  8
0
 10
11.4114
 20
2.35757
 11
11.3832
 21
2.11597
  0
LINE
  8
0
 10
11.3832
 20
2.11597
 11
11.3018
 21
1.95844
  0
LINE
  8
0
 10
11.3018
 20
1.95844
 11
11.1656
 21
1.87007
  0
LINE
  8
0
 10
11.1656
 20
1.87007
 11
10.9591
 21
1.83899
  0
LINE
  8
0
 10
10.9591
 20
1.83899
 11
10.7472
 21
1.87019
  0
LINE
  8
0
 10
17.1757
 20
2.17039
 11
18.3791
 21
2.17039
  0
LINE
  8
0
 10
18.3791
 20
2.17039
 11
18.6758
 21
1.31595
  0
LINE
  8
0
 10
18.6758
 20
1.31595
 11
19.4758
 21
1.31595
  0
LINE
  8
0
 10
19.4758
 20
1.31595
 11
18.2242
 21
4.76012
  0
LINE
  8
0
 10
18.2242
 20
4.76012
 11
17.3282
 21
4.76012
  0
LINE
  8
0
 10
17.3282
 20
4.76012
 11
16.0718
 21
1.31595
  0
LINE
  8
0
 10
16.0718
 20
1.31595
 11
16.879
 21
1.31595
  0
LINE
  8
0
 10
16.879
 20
1.31595
 11
17.1757
 21
2.17039
  0
LINE
  8
0
 10
17.3667
 20
2.79729
 11
17.6337
 21
3.57739
  0
LINE
  8
0
 10
17.6337
 20
3.57739
 11
17.7527
 21
3.93314
  0
LINE
  8
0
 10
17.7527
 20
3.93314
 11
17.778
 21
4.01767
  0
LINE
  8
0
 10
17.778
 20
4.01767
 11
17.8806
 21
3.69286
  0
LINE
  8
0
 10
17.8806
 20
3.69286
 11
18.188
 21
2.79729
  0
LINE
  8
0
 10
18.188
 20
2.79729
 11
17.3667
 21
2.79729
  0
LINE
  8
0
 10
9.2401
 20
1.99712
 11
9.68633
 21
1.99712
  0
LINE
  8
0
 10
9.68633
 20
1.99712
 11
9.68633
 21
2.59317
  0
LINE
  8
0
 10
9.68633
 20
2.59317
 11
9.2401
 21
2.59317
  0
LINE
  8
0
 10
9.2401
 20
2.59317
 11
9.2401
 21
4.76012
  0
LINE
  8
0
 10
9.2401
 20
4.76012
 11
8.41777
 21
4.76012
  0
LINE
  8
0
 10
8.41777
 20
4.76012
 11
6.98262
 21
2.56281
  0
LINE
  8
0
 10
6.98262
 20
2.56281
 11
6.98262
 21
1.99712
  0
LINE
  8
0
 10
6.98262
 20
1.99712
 11
8.50401
 21
1.99712
  0
LINE
  8
0
 10
8.50401
 20
1.99712
 11
8.50401
 21
1.31595
  0
LINE
  8
0
 10
8.50401
 20
1.31595
 11
9.2401
 21
1.31595
  0
LINE
  8
0
 10
9.2401
 20
1.31595
 11
9.2401
 21
1.99712
  0
LINE
  8
0
 10
7.66888
 20
2.59317
 11
8.39445
 21
3.69592
  0
LINE
  8
0
 10
8.39445
 20
3.69592
 11
8.51097
 21
3.88539
  0
LINE
  8
0
 10
8.51097
 20
3.88539
 11
8.50609
 21
3.77228
  0
LINE
  8
0
 10
8.50609
 20
3.77228
 11
8.50401
 21
3.63771
  0
LINE
  8
0
 10
8.50401
 20
3.63771
 11
8.50401
 21
2.59317
  0
LINE
  8
0
 10
8.50401
 20
2.59317
 11
7.66888
 21
2.59317
  0
LINE
  8
0
 10
5.61806
 20
1.912
 11
4.85144
 21
1.912
  0
LINE
  8
0
 10
4.85144
 20
1.912
 11
4.85144
 21
4.76012
  0
LINE
  8
0
 10
4.85144
 20
4.76012
 11
4.1553
 21
4.76012
  0
LINE
  8
0
 10
4.1553
 20
4.76012
 11
3.28227
 21
4.19376
  0
LINE
  8
0
 10
3.28227
 20
4.19376
 11
3.28227
 21
3.55188
  0
LINE
  8
0
 10
3.28227
 20
3.55188
 11
4.08447
 21
4.0527
  0
LINE
  8
0
 10
4.08447
 20
4.0527
 11
4.08447
 21
1.912
  0
LINE
  8
0
 10
4.08447
 20
1.912
 11
3.25616
 21
1.912
  0
LINE
  8
0
 10
3.25616
 20
1.912
 11
3.25616
 21
1.31595
  0
LINE
  8
0
 10
3.25616
 20
1.31595
 11
5.61806
 21
1.31595
  0
LINE
  8
0
 10
5.61806
 20
1.31595
 11
5.61806
 21
1.912
  0
LINE
  8
0
 10
6.70598
 20
2.13985
 11
5.92004
 21
2.13985
  0
LINE
  8
0
 10
5.92004
 20
2.13985
 11
5.92004
 21
1.31595
  0
LINE
  8
0
 10
5.92004
 20
1.31595
 11
6.70598
 21
1.31595
  0
LINE
  8
0
 10
6.70598
 20
1.31595
 11
6.70598
 21
2.13985
  0
ENDSEC
  0
SECTION
  2
OBJECTS
  0
DICTIONARY
  0
ENDSEC
  0
EOF
