  0
SECTION
  2
BLOCKS
  0
ENDSEC
  0
SECTION
  2
ENTITIES
  0
LINE
  8
0
 10
28.475
 20
-32.625
 11
27.275
 21
-32.625
  0
LINE
  8
0
 10
27.275
 20
-32.625
 11
27.275
 21
-30.275
  0
LINE
  8
0
 10
27.275
 20
-30.275
 11
28.475
 21
-30.275
  0
LINE
  8
0
 10
28.475
 20
-30.275
 11
28.475
 21
-27.775
  0
LINE
  8
0
 10
28.475
 20
-27.775
 11
31.525
 21
-27.775
  0
LINE
  8
0
 10
31.525
 20
-27.775
 11
31.525
 21
-30.275
  0
LINE
  8
0
 10
31.525
 20
-30.275
 11
32.725
 21
-30.275
  0
LINE
  8
0
 10
32.725
 20
-30.275
 11
32.725
 21
-32.625
  0
LINE
  8
0
 10
32.725
 20
-32.625
 11
31.525
 21
-32.625
  0
LINE
  8
0
 10
31.525
 20
-32.625
 11
31.525
 21
-37.775
  0
LINE
  8
0
 10
31.525
 20
-37.775
 11
98.475
 21
-37.775
  0
LINE
  8
0
 10
98.475
 20
-37.775
 11
98.475
 21
-32.625
  0
LINE
  8
0
 10
98.475
 20
-32.625
 11
97.275
 21
-32.625
  0
LINE
  8
0
 10
97.275
 20
-32.625
 11
97.275
 21
-30.275
  0
LINE
  8
0
 10
97.275
 20
-30.275
 11
98.475
 21
-30.275
  0
LINE
  8
0
 10
98.475
 20
-30.275
 11
98.475
 21
-27.775
  0
LINE
  8
0
 10
98.475
 20
-27.775
 11
101.525
 21
-27.775
  0
LINE
  8
0
 10
101.525
 20
-27.775
 11
101.525
 21
-30.275
  0
LINE
  8
0
 10
101.525
 20
-30.275
 11
102.725
 21
-30.275
  0
LINE
  8
0
 10
102.725
 20
-30.275
 11
102.725
 21
-32.625
  0
LINE
  8
0
 10
102.725
 20
-32.625
 11
101.525
 21
-32.625
  0
LINE
  8
0
 10
101.525
 20
-32.625
 11
101.525
 21
-37.775
  0
LINE
  8
0
 10
101.525
 20
-37.775
 11
158.475
 21
-37.775
  0
LINE
  8
0
 10
158.475
 20
-37.775
 11
158.475
 21
-32.625
  0
LINE
  8
0
 10
158.475
 20
-32.625
 11
157.275
 21
-32.625
  0
LINE
  8
0
 10
157.275
 20
-32.625
 11
157.275
 21
-30.275
  0
LINE
  8
0
 10
157.275
 20
-30.275
 11
158.475
 21
-30.275
  0
LINE
  8
0
 10
158.475
 20
-30.275
 11
158.475
 21
-27.775
  0
LINE
  8
0
 10
158.475
 20
-27.775
 11
161.525
 21
-27.775
  0
LINE
  8
0
 10
161.525
 20
-27.775
 11
161.525
 21
-30.275
  0
LINE
  8
0
 10
161.525
 20
-30.275
 11
162.725
 21
-30.275
  0
LINE
  8
0
 10
162.725
 20
-30.275
 11
162.725
 21
-32.625
  0
LINE
  8
0
 10
162.725
 20
-32.625
 11
161.525
 21
-32.625
  0
LINE
  8
0
 10
161.525
 20
-32.625
 11
161.525
 21
-37.775
  0
LINE
  8
0
 10
161.525
 20
-37.775
 11
183.575
 21
-37.775
  0
LINE
  8
0
 10
183.575
 20
-37.775
 11
183.575
 21
-30.035
  0
LINE
  8
0
 10
183.575
 20
-30.035
 11
180.475
 21
-30.035
  0
LINE
  8
0
 10
180.475
 20
-30.035
 11
180.475
 21
-19.985
  0
LINE
  8
0
 10
180.475
 20
-19.985
 11
183.575
 21
-19.985
  0
LINE
  8
0
 10
183.575
 20
-19.985
 11
183.575
 21
-11
  0
LINE
  8
0
 10
183.575
 20
-11
 11
180.475
 21
-11
  0
LINE
  8
0
 10
180.475
 20
-11
 11
180.475
 21
-0.949997
  0
LINE
  8
0
 10
180.475
 20
-0.949997
 11
183.575
 21
-0.949997
  0
LINE
  8
0
 10
183.575
 20
-0.949997
 11
183.575
 21
4.67499
  0
LINE
  8
0
 10
183.575
 20
4.67499
 11
177.575
 21
4.67499
  0
LINE
  8
0
 10
177.575
 20
4.67499
 11
177.575
 21
7.67499
  0
LINE
  8
0
 10
177.575
 20
7.67499
 11
162.425
 21
7.67499
  0
LINE
  8
0
 10
162.425
 20
7.67499
 11
162.425
 21
4.67499
  0
LINE
  8
0
 10
162.425
 20
4.67499
 11
157.725
 21
4.67499
  0
LINE
  8
0
 10
157.725
 20
4.67499
 11
157.725
 21
2.27499
  0
LINE
  8
0
 10
157.725
 20
2.27499
 11
130.475
 21
2.27499
  0
LINE
  8
0
 10
130.475
 20
2.27499
 11
130.475
 21
4.67499
  0
LINE
  8
0
 10
130.475
 20
4.67499
 11
116.775
 21
4.67499
  0
LINE
  8
0
 10
116.775
 20
4.67499
 11
116.775
 21
2.27499
  0
LINE
  8
0
 10
116.775
 20
2.27499
 11
104.625
 21
2.27499
  0
LINE
  8
0
 10
104.625
 20
2.27499
 11
104.625
 21
4.67499
  0
LINE
  8
0
 10
104.625
 20
4.67499
 11
95.375
 21
4.67499
  0
LINE
  8
0
 10
95.375
 20
4.67499
 11
95.375
 21
2.27499
  0
LINE
  8
0
 10
95.375
 20
2.27499
 11
80.925
 21
2.27499
  0
LINE
  8
0
 10
80.925
 20
2.27499
 11
80.925
 21
4.67499
  0
LINE
  8
0
 10
80.925
 20
4.67499
 11
78.075
 21
4.67499
  0
LINE
  8
0
 10
78.075
 20
4.67499
 11
78.075
 21
7.67499
  0
LINE
  8
0
 10
78.075
 20
7.67499
 11
69.925
 21
7.67499
  0
LINE
  8
0
 10
69.925
 20
7.67499
 11
69.925
 21
4.67499
  0
LINE
  8
0
 10
69.925
 20
4.67499
 11
67.055
 21
4.67499
  0
LINE
  8
0
 10
67.055
 20
4.67499
 11
67.055
 21
2.27499
  0
LINE
  8
0
 10
67.055
 20
2.27499
 11
53.455
 21
2.27499
  0
LINE
  8
0
 10
53.455
 20
2.27499
 11
53.455
 21
4.67499
  0
LINE
  8
0
 10
53.455
 20
4.67499
 11
27.575
 21
4.67499
  0
LINE
  8
0
 10
27.575
 20
4.67499
 11
27.575
 21
7.67499
  0
LINE
  8
0
 10
27.575
 20
7.67499
 11
12.425
 21
7.67499
  0
LINE
  8
0
 10
12.425
 20
7.67499
 11
12.425
 21
4.67499
  0
LINE
  8
0
 10
12.425
 20
4.67499
 11
-3.575
 21
4.67499
  0
LINE
  8
0
 10
-3.575
 20
4.67499
 11
-3.575
 21
-0.949997
  0
LINE
  8
0
 10
-3.575
 20
-0.949997
 11
-0.474991
 21
-0.949997
  0
LINE
  8
0
 10
-0.474991
 20
-0.949997
 11
-0.474991
 21
-11
  0
LINE
  8
0
 10
-0.474991
 20
-11
 11
-3.575
 21
-11
  0
LINE
  8
0
 10
-3.575
 20
-11
 11
-3.575
 21
-19.985
  0
LINE
  8
0
 10
-3.575
 20
-19.985
 11
-0.474991
 21
-19.985
  0
LINE
  8
0
 10
-0.474991
 20
-19.985
 11
-0.474991
 21
-30.035
  0
LINE
  8
0
 10
-0.474991
 20
-30.035
 11
-3.575
 21
-30.035
  0
LINE
  8
0
 10
-3.575
 20
-30.035
 11
-3.575
 21
-37.775
  0
LINE
  8
0
 10
-3.575
 20
-37.775
 11
28.475
 21
-37.775
  0
LINE
  8
0
 10
28.475
 20
-37.775
 11
28.475
 21
-32.625
  0
ENDSEC
  0
SECTION
  2
OBJECTS
  0
DICTIONARY
  0
ENDSEC
  0
EOF
