  0
SECTION
  2
BLOCKS
  0
ENDSEC
  0
SECTION
  2
ENTITIES
  0
LINE
  8
0
 10
91.075
 20
35.275
 11
-66.075
 21
35.275
  0
LINE
  8
0
 10
-66.075
 20
35.275
 11
-66.075
 21
-35.275
  0
LINE
  8
0
 10
-66.075
 20
-35.275
 11
91.075
 21
-35.275
  0
LINE
  8
0
 10
91.075
 20
-35.275
 11
91.075
 21
35.275
  0
LINE
  8
0
 10
-62.8072
 20
27.6556
 11
-63.1026
 21
27.7452
  0
LINE
  8
0
 10
-63.1026
 20
27.7452
 11
-63.3749
 21
27.8907
  0
LINE
  8
0
 10
-63.3749
 20
27.8907
 11
-63.6134
 21
28.0865
  0
LINE
  8
0
 10
-63.6134
 20
28.0865
 11
-63.8092
 21
28.3251
  0
LINE
  8
0
 10
-63.8092
 20
28.3251
 11
-63.9548
 21
28.5974
  0
LINE
  8
0
 10
-63.9548
 20
28.5974
 11
-64.0444
 21
28.8928
  0
LINE
  8
0
 10
-64.0444
 20
28.8928
 11
-64.0746
 21
29.2
  0
LINE
  8
0
 10
-64.0746
 20
29.2
 11
-64.0444
 21
29.5072
  0
LINE
  8
0
 10
-64.0444
 20
29.5072
 11
-63.9548
 21
29.8026
  0
LINE
  8
0
 10
-63.9548
 20
29.8026
 11
-63.8092
 21
30.0749
  0
LINE
  8
0
 10
-63.8092
 20
30.0749
 11
-63.6134
 21
30.3134
  0
LINE
  8
0
 10
-63.6134
 20
30.3134
 11
-63.3749
 21
30.5092
  0
LINE
  8
0
 10
-63.3749
 20
30.5092
 11
-63.1026
 21
30.6548
  0
LINE
  8
0
 10
-63.1026
 20
30.6548
 11
-62.8072
 21
30.7444
  0
LINE
  8
0
 10
-62.8072
 20
30.7444
 11
-62.5
 21
30.7746
  0
LINE
  8
0
 10
-62.5
 20
30.7746
 11
-62.1928
 21
30.7444
  0
LINE
  8
0
 10
-62.1928
 20
30.7444
 11
-61.8974
 21
30.6548
  0
LINE
  8
0
 10
-61.8974
 20
30.6548
 11
-61.6251
 21
30.5092
  0
LINE
  8
0
 10
-61.6251
 20
30.5092
 11
-61.3866
 21
30.3134
  0
LINE
  8
0
 10
-61.3866
 20
30.3134
 11
-61.1908
 21
30.0749
  0
LINE
  8
0
 10
-61.1908
 20
30.0749
 11
-61.0452
 21
29.8026
  0
LINE
  8
0
 10
-61.0452
 20
29.8026
 11
-60.9556
 21
29.5072
  0
LINE
  8
0
 10
-60.9556
 20
29.5072
 11
-60.9254
 21
29.2
  0
LINE
  8
0
 10
-60.9254
 20
29.2
 11
-60.9556
 21
28.8928
  0
LINE
  8
0
 10
-60.9556
 20
28.8928
 11
-61.0452
 21
28.5974
  0
LINE
  8
0
 10
-61.0452
 20
28.5974
 11
-61.1908
 21
28.3251
  0
LINE
  8
0
 10
-61.1908
 20
28.3251
 11
-61.3866
 21
28.0865
  0
LINE
  8
0
 10
-61.3866
 20
28.0865
 11
-61.6251
 21
27.8907
  0
LINE
  8
0
 10
-61.6251
 20
27.8907
 11
-61.8974
 21
27.7452
  0
LINE
  8
0
 10
-61.8974
 20
27.7452
 11
-62.1928
 21
27.6556
  0
LINE
  8
0
 10
-62.1928
 20
27.6556
 11
-62.5
 21
27.6254
  0
LINE
  8
0
 10
-62.5
 20
27.6254
 11
-62.8072
 21
27.6556
  0
LINE
  8
0
 10
87.1928
 20
27.6556
 11
86.8974
 21
27.7452
  0
LINE
  8
0
 10
86.8974
 20
27.7452
 11
86.6251
 21
27.8907
  0
LINE
  8
0
 10
86.6251
 20
27.8907
 11
86.3866
 21
28.0865
  0
LINE
  8
0
 10
86.3866
 20
28.0865
 11
86.1908
 21
28.3251
  0
LINE
  8
0
 10
86.1908
 20
28.3251
 11
86.0452
 21
28.5974
  0
LINE
  8
0
 10
86.0452
 20
28.5974
 11
85.9556
 21
28.8928
  0
LINE
  8
0
 10
85.9556
 20
28.8928
 11
85.9254
 21
29.2
  0
LINE
  8
0
 10
85.9254
 20
29.2
 11
85.9556
 21
29.5072
  0
LINE
  8
0
 10
85.9556
 20
29.5072
 11
86.0452
 21
29.8026
  0
LINE
  8
0
 10
86.0452
 20
29.8026
 11
86.1908
 21
30.0749
  0
LINE
  8
0
 10
86.1908
 20
30.0749
 11
86.3866
 21
30.3134
  0
LINE
  8
0
 10
86.3866
 20
30.3134
 11
86.6251
 21
30.5092
  0
LINE
  8
0
 10
86.6251
 20
30.5092
 11
86.8974
 21
30.6548
  0
LINE
  8
0
 10
86.8974
 20
30.6548
 11
87.1928
 21
30.7444
  0
LINE
  8
0
 10
87.1928
 20
30.7444
 11
87.5
 21
30.7746
  0
LINE
  8
0
 10
87.5
 20
30.7746
 11
87.8072
 21
30.7444
  0
LINE
  8
0
 10
87.8072
 20
30.7444
 11
88.1026
 21
30.6548
  0
LINE
  8
0
 10
88.1026
 20
30.6548
 11
88.3749
 21
30.5092
  0
LINE
  8
0
 10
88.3749
 20
30.5092
 11
88.6134
 21
30.3134
  0
LINE
  8
0
 10
88.6134
 20
30.3134
 11
88.8092
 21
30.0749
  0
LINE
  8
0
 10
88.8092
 20
30.0749
 11
88.9548
 21
29.8026
  0
LINE
  8
0
 10
88.9548
 20
29.8026
 11
89.0444
 21
29.5072
  0
LINE
  8
0
 10
89.0444
 20
29.5072
 11
89.0746
 21
29.2
  0
LINE
  8
0
 10
89.0746
 20
29.2
 11
89.0444
 21
28.8928
  0
LINE
  8
0
 10
89.0444
 20
28.8928
 11
88.9548
 21
28.5974
  0
LINE
  8
0
 10
88.9548
 20
28.5974
 11
88.8092
 21
28.3251
  0
LINE
  8
0
 10
88.8092
 20
28.3251
 11
88.6134
 21
28.0865
  0
LINE
  8
0
 10
88.6134
 20
28.0865
 11
88.3749
 21
27.8907
  0
LINE
  8
0
 10
88.3749
 20
27.8907
 11
88.1026
 21
27.7452
  0
LINE
  8
0
 10
88.1026
 20
27.7452
 11
87.8072
 21
27.6556
  0
LINE
  8
0
 10
87.8072
 20
27.6556
 11
87.5
 21
27.6254
  0
LINE
  8
0
 10
87.5
 20
27.6254
 11
87.1928
 21
27.6556
  0
LINE
  8
0
 10
52.975
 20
10.575
 11
52.975
 21
22.625
  0
LINE
  8
0
 10
52.975
 20
22.625
 11
59.025
 21
22.625
  0
LINE
  8
0
 10
59.025
 20
22.625
 11
59.025
 21
10.575
  0
LINE
  8
0
 10
59.025
 20
10.575
 11
52.975
 21
10.575
  0
LINE
  8
0
 10
-56.025
 20
10.575
 11
-56.025
 21
22.625
  0
LINE
  8
0
 10
-56.025
 20
22.625
 11
-49.975
 21
22.625
  0
LINE
  8
0
 10
-49.975
 20
22.625
 11
-49.975
 21
10.575
  0
LINE
  8
0
 10
-49.975
 20
10.575
 11
-56.025
 21
10.575
  0
LINE
  8
0
 10
79.975
 20
-5.02499
 11
79.975
 21
5.02499
  0
LINE
  8
0
 10
79.975
 20
5.02499
 11
86.025
 21
5.02499
  0
LINE
  8
0
 10
86.025
 20
5.02499
 11
86.025
 21
-5.02499
  0
LINE
  8
0
 10
86.025
 20
-5.02499
 11
79.975
 21
-5.02499
  0
LINE
  8
0
 10
-0.633957
 20
-3.18718
 11
-1.24359
 21
-3.00226
  0
LINE
  8
0
 10
-1.24359
 20
-3.00226
 11
-1.80544
 21
-2.70195
  0
LINE
  8
0
 10
-1.80544
 20
-2.70195
 11
-2.29784
 21
-2.29784
  0
LINE
  8
0
 10
-2.29784
 20
-2.29784
 11
-2.70195
 21
-1.80544
  0
LINE
  8
0
 10
-2.70195
 20
-1.80544
 11
-3.00226
 21
-1.24359
  0
LINE
  8
0
 10
-3.00226
 20
-1.24359
 11
-3.18718
 21
-0.633957
  0
LINE
  8
0
 10
-3.18718
 20
-0.633957
 11
-3.24963
 21
0
  0
LINE
  8
0
 10
-3.24963
 20
0
 11
-3.18718
 21
0.633957
  0
LINE
  8
0
 10
-3.18718
 20
0.633957
 11
-3.00226
 21
1.24359
  0
LINE
  8
0
 10
-3.00226
 20
1.24359
 11
-2.70195
 21
1.80544
  0
LINE
  8
0
 10
-2.70195
 20
1.80544
 11
-2.29784
 21
2.29784
  0
LINE
  8
0
 10
-2.29784
 20
2.29784
 11
-1.80544
 21
2.70195
  0
LINE
  8
0
 10
-1.80544
 20
2.70195
 11
-1.24359
 21
3.00226
  0
LINE
  8
0
 10
-1.24359
 20
3.00226
 11
-0.633957
 21
3.18718
  0
LINE
  8
0
 10
-0.633957
 20
3.18718
 11
0
 21
3.24963
  0
LINE
  8
0
 10
0
 20
3.24963
 11
0.633957
 21
3.18718
  0
LINE
  8
0
 10
0.633957
 20
3.18718
 11
1.24359
 21
3.00226
  0
LINE
  8
0
 10
1.24359
 20
3.00226
 11
1.80544
 21
2.70195
  0
LINE
  8
0
 10
1.80544
 20
2.70195
 11
2.29784
 21
2.29784
  0
LINE
  8
0
 10
2.29784
 20
2.29784
 11
2.70195
 21
1.80544
  0
LINE
  8
0
 10
2.70195
 20
1.80544
 11
3.00226
 21
1.24359
  0
LINE
  8
0
 10
3.00226
 20
1.24359
 11
3.18718
 21
0.633957
  0
LINE
  8
0
 10
3.18718
 20
0.633957
 11
3.24963
 21
0
  0
LINE
  8
0
 10
3.24963
 20
0
 11
3.18718
 21
-0.633957
  0
LINE
  8
0
 10
3.18718
 20
-0.633957
 11
3.00226
 21
-1.24359
  0
LINE
  8
0
 10
3.00226
 20
-1.24359
 11
2.70195
 21
-1.80544
  0
LINE
  8
0
 10
2.70195
 20
-1.80544
 11
2.29784
 21
-2.29784
  0
LINE
  8
0
 10
2.29784
 20
-2.29784
 11
1.80544
 21
-2.70195
  0
LINE
  8
0
 10
1.80544
 20
-2.70195
 11
1.24359
 21
-3.00226
  0
LINE
  8
0
 10
1.24359
 20
-3.00226
 11
0.633957
 21
-3.18718
  0
LINE
  8
0
 10
0.633957
 20
-3.18718
 11
0
 21
-3.24963
  0
LINE
  8
0
 10
0
 20
-3.24963
 11
-0.633957
 21
-3.18718
  0
LINE
  8
0
 10
52.975
 20
-22.625
 11
52.975
 21
-10.575
  0
LINE
  8
0
 10
52.975
 20
-10.575
 11
59.025
 21
-10.575
  0
LINE
  8
0
 10
59.025
 20
-10.575
 11
59.025
 21
-22.625
  0
LINE
  8
0
 10
59.025
 20
-22.625
 11
52.975
 21
-22.625
  0
LINE
  8
0
 10
-56.025
 20
-22.625
 11
-56.025
 21
-10.575
  0
LINE
  8
0
 10
-56.025
 20
-10.575
 11
-49.975
 21
-10.575
  0
LINE
  8
0
 10
-49.975
 20
-10.575
 11
-49.975
 21
-22.625
  0
LINE
  8
0
 10
-49.975
 20
-22.625
 11
-56.025
 21
-22.625
  0
LINE
  8
0
 10
-62.8072
 20
-30.7444
 11
-63.1026
 21
-30.6548
  0
LINE
  8
0
 10
-63.1026
 20
-30.6548
 11
-63.3749
 21
-30.5092
  0
LINE
  8
0
 10
-63.3749
 20
-30.5092
 11
-63.6134
 21
-30.3134
  0
LINE
  8
0
 10
-63.6134
 20
-30.3134
 11
-63.8092
 21
-30.0749
  0
LINE
  8
0
 10
-63.8092
 20
-30.0749
 11
-63.9548
 21
-29.8026
  0
LINE
  8
0
 10
-63.9548
 20
-29.8026
 11
-64.0444
 21
-29.5072
  0
LINE
  8
0
 10
-64.0444
 20
-29.5072
 11
-64.0746
 21
-29.2
  0
LINE
  8
0
 10
-64.0746
 20
-29.2
 11
-64.0444
 21
-28.8928
  0
LINE
  8
0
 10
-64.0444
 20
-28.8928
 11
-63.9548
 21
-28.5974
  0
LINE
  8
0
 10
-63.9548
 20
-28.5974
 11
-63.8092
 21
-28.3251
  0
LINE
  8
0
 10
-63.8092
 20
-28.3251
 11
-63.6134
 21
-28.0865
  0
LINE
  8
0
 10
-63.6134
 20
-28.0865
 11
-63.3749
 21
-27.8907
  0
LINE
  8
0
 10
-63.3749
 20
-27.8907
 11
-63.1026
 21
-27.7452
  0
LINE
  8
0
 10
-63.1026
 20
-27.7452
 11
-62.8072
 21
-27.6556
  0
LINE
  8
0
 10
-62.8072
 20
-27.6556
 11
-62.5
 21
-27.6254
  0
LINE
  8
0
 10
-62.5
 20
-27.6254
 11
-62.1928
 21
-27.6556
  0
LINE
  8
0
 10
-62.1928
 20
-27.6556
 11
-61.8974
 21
-27.7452
  0
LINE
  8
0
 10
-61.8974
 20
-27.7452
 11
-61.6251
 21
-27.8907
  0
LINE
  8
0
 10
-61.6251
 20
-27.8907
 11
-61.3866
 21
-28.0865
  0
LINE
  8
0
 10
-61.3866
 20
-28.0865
 11
-61.1908
 21
-28.3251
  0
LINE
  8
0
 10
-61.1908
 20
-28.3251
 11
-61.0452
 21
-28.5974
  0
LINE
  8
0
 10
-61.0452
 20
-28.5974
 11
-60.9556
 21
-28.8928
  0
LINE
  8
0
 10
-60.9556
 20
-28.8928
 11
-60.9254
 21
-29.2
  0
LINE
  8
0
 10
-60.9254
 20
-29.2
 11
-60.9556
 21
-29.5072
  0
LINE
  8
0
 10
-60.9556
 20
-29.5072
 11
-61.0452
 21
-29.8026
  0
LINE
  8
0
 10
-61.0452
 20
-29.8026
 11
-61.1908
 21
-30.0749
  0
LINE
  8
0
 10
-61.1908
 20
-30.0749
 11
-61.3866
 21
-30.3134
  0
LINE
  8
0
 10
-61.3866
 20
-30.3134
 11
-61.6251
 21
-30.5092
  0
LINE
  8
0
 10
-61.6251
 20
-30.5092
 11
-61.8974
 21
-30.6548
  0
LINE
  8
0
 10
-61.8974
 20
-30.6548
 11
-62.1928
 21
-30.7444
  0
LINE
  8
0
 10
-62.1928
 20
-30.7444
 11
-62.5
 21
-30.7746
  0
LINE
  8
0
 10
-62.5
 20
-30.7746
 11
-62.8072
 21
-30.7444
  0
LINE
  8
0
 10
87.1928
 20
-30.7444
 11
86.8974
 21
-30.6548
  0
LINE
  8
0
 10
86.8974
 20
-30.6548
 11
86.6251
 21
-30.5092
  0
LINE
  8
0
 10
86.6251
 20
-30.5092
 11
86.3866
 21
-30.3134
  0
LINE
  8
0
 10
86.3866
 20
-30.3134
 11
86.1908
 21
-30.0749
  0
LINE
  8
0
 10
86.1908
 20
-30.0749
 11
86.0452
 21
-29.8026
  0
LINE
  8
0
 10
86.0452
 20
-29.8026
 11
85.9556
 21
-29.5072
  0
LINE
  8
0
 10
85.9556
 20
-29.5072
 11
85.9254
 21
-29.2
  0
LINE
  8
0
 10
85.9254
 20
-29.2
 11
85.9556
 21
-28.8928
  0
LINE
  8
0
 10
85.9556
 20
-28.8928
 11
86.0452
 21
-28.5974
  0
LINE
  8
0
 10
86.0452
 20
-28.5974
 11
86.1908
 21
-28.3251
  0
LINE
  8
0
 10
86.1908
 20
-28.3251
 11
86.3866
 21
-28.0865
  0
LINE
  8
0
 10
86.3866
 20
-28.0865
 11
86.6251
 21
-27.8907
  0
LINE
  8
0
 10
86.6251
 20
-27.8907
 11
86.8974
 21
-27.7452
  0
LINE
  8
0
 10
86.8974
 20
-27.7452
 11
87.1928
 21
-27.6556
  0
LINE
  8
0
 10
87.1928
 20
-27.6556
 11
87.5
 21
-27.6254
  0
LINE
  8
0
 10
87.5
 20
-27.6254
 11
87.8072
 21
-27.6556
  0
LINE
  8
0
 10
87.8072
 20
-27.6556
 11
88.1026
 21
-27.7452
  0
LINE
  8
0
 10
88.1026
 20
-27.7452
 11
88.3749
 21
-27.8907
  0
LINE
  8
0
 10
88.3749
 20
-27.8907
 11
88.6134
 21
-28.0865
  0
LINE
  8
0
 10
88.6134
 20
-28.0865
 11
88.8092
 21
-28.3251
  0
LINE
  8
0
 10
88.8092
 20
-28.3251
 11
88.9548
 21
-28.5974
  0
LINE
  8
0
 10
88.9548
 20
-28.5974
 11
89.0444
 21
-28.8928
  0
LINE
  8
0
 10
89.0444
 20
-28.8928
 11
89.0746
 21
-29.2
  0
LINE
  8
0
 10
89.0746
 20
-29.2
 11
89.0444
 21
-29.5072
  0
LINE
  8
0
 10
89.0444
 20
-29.5072
 11
88.9548
 21
-29.8026
  0
LINE
  8
0
 10
88.9548
 20
-29.8026
 11
88.8092
 21
-30.0749
  0
LINE
  8
0
 10
88.8092
 20
-30.0749
 11
88.6134
 21
-30.3134
  0
LINE
  8
0
 10
88.6134
 20
-30.3134
 11
88.3749
 21
-30.5092
  0
LINE
  8
0
 10
88.3749
 20
-30.5092
 11
88.1026
 21
-30.6548
  0
LINE
  8
0
 10
88.1026
 20
-30.6548
 11
87.8072
 21
-30.7444
  0
LINE
  8
0
 10
87.8072
 20
-30.7444
 11
87.5
 21
-30.7746
  0
LINE
  8
0
 10
87.5
 20
-30.7746
 11
87.1928
 21
-30.7444
  0
ENDSEC
  0
SECTION
  2
OBJECTS
  0
DICTIONARY
  0
ENDSEC
  0
EOF
