  0
SECTION
  2
BLOCKS
  0
ENDSEC
  0
SECTION
  2
ENTITIES
  0
LINE
  8
0
 10
3.39595
 20
21.636
 11
3.44861
 21
21.6384
  0
LINE
  8
0
 10
3.44861
 20
21.6384
 11
3.49921
 21
21.6423
  0
LINE
  8
0
 10
3.49921
 20
21.6423
 11
3.54771
 21
21.6479
  0
LINE
  8
0
 10
3.54771
 20
21.6479
 11
3.59416
 21
21.655
  0
LINE
  8
0
 10
3.59416
 20
21.655
 11
3.63853
 21
21.6637
  0
LINE
  8
0
 10
3.63853
 20
21.6637
 11
3.68083
 21
21.674
  0
LINE
  8
0
 10
3.68083
 20
21.674
 11
3.72105
 21
21.6858
  0
LINE
  8
0
 10
3.72105
 20
21.6858
 11
3.75922
 21
21.6993
  0
LINE
  8
0
 10
3.75922
 20
21.6993
 11
3.79529
 21
21.7143
  0
LINE
  8
0
 10
3.79529
 20
21.7143
 11
3.8293
 21
21.7309
  0
LINE
  8
0
 10
3.8293
 20
21.7309
 11
3.86124
 21
21.7491
  0
LINE
  8
0
 10
3.86124
 20
21.7491
 11
3.8911
 21
21.7689
  0
LINE
  8
0
 10
3.8911
 20
21.7689
 11
3.91882
 21
21.7901
  0
LINE
  8
0
 10
3.91882
 20
21.7901
 11
3.94432
 21
21.8128
  0
LINE
  8
0
 10
3.94432
 20
21.8128
 11
3.96761
 21
21.8369
  0
LINE
  8
0
 10
3.96761
 20
21.8369
 11
3.98866
 21
21.8624
  0
LINE
  8
0
 10
3.98866
 20
21.8624
 11
4.00752
 21
21.8893
  0
LINE
  8
0
 10
4.00752
 20
21.8893
 11
4.02415
 21
21.9176
  0
LINE
  8
0
 10
4.02415
 20
21.9176
 11
4.03856
 21
21.9473
  0
LINE
  8
0
 10
4.03856
 20
21.9473
 11
4.05075
 21
21.9785
  0
LINE
  8
0
 10
4.05075
 20
21.9785
 11
4.06073
 21
22.011
  0
LINE
  8
0
 10
4.06073
 20
22.011
 11
4.0685
 21
22.0449
  0
LINE
  8
0
 10
4.0685
 20
22.0449
 11
4.07404
 21
22.0803
  0
LINE
  8
0
 10
4.07404
 20
22.0803
 11
4.07736
 21
22.117
  0
LINE
  8
0
 10
4.07736
 20
22.117
 11
4.07848
 21
22.1552
  0
LINE
  8
0
 10
4.07848
 20
22.1552
 11
4.07828
 21
22.1716
  0
LINE
  8
0
 10
4.07828
 20
22.1716
 11
4.0777
 21
22.1877
  0
LINE
  8
0
 10
4.0777
 20
22.1877
 11
4.07672
 21
22.2034
  0
LINE
  8
0
 10
4.07672
 20
22.2034
 11
4.07536
 21
22.2189
  0
LINE
  8
0
 10
4.07536
 20
22.2189
 11
4.07361
 21
22.2341
  0
LINE
  8
0
 10
4.07361
 20
22.2341
 11
4.07146
 21
22.249
  0
LINE
  8
0
 10
4.07146
 20
22.249
 11
4.06892
 21
22.2636
  0
LINE
  8
0
 10
4.06892
 20
22.2636
 11
4.06599
 21
22.2779
  0
LINE
  8
0
 10
4.06599
 20
22.2779
 11
4.06268
 21
22.2919
  0
LINE
  8
0
 10
4.06268
 20
22.2919
 11
4.05898
 21
22.3056
  0
LINE
  8
0
 10
4.05898
 20
22.3056
 11
4.05489
 21
22.3191
  0
LINE
  8
0
 10
4.05489
 20
22.3191
 11
4.0504
 21
22.3322
  0
LINE
  8
0
 10
4.0504
 20
22.3322
 11
4.04552
 21
22.345
  0
LINE
  8
0
 10
4.04552
 20
22.345
 11
4.04027
 21
22.3575
  0
LINE
  8
0
 10
4.04027
 20
22.3575
 11
4.03468
 21
22.3698
  0
LINE
  8
0
 10
4.03468
 20
22.3698
 11
4.02875
 21
22.3818
  0
LINE
  8
0
 10
4.02875
 20
22.3818
 11
4.02246
 21
22.3935
  0
LINE
  8
0
 10
4.02246
 20
22.3935
 11
4.01584
 21
22.405
  0
LINE
  8
0
 10
4.01584
 20
22.405
 11
4.00885
 21
22.4161
  0
LINE
  8
0
 10
4.00885
 20
22.4161
 11
4.00153
 21
22.427
  0
LINE
  8
0
 10
4.00153
 20
22.427
 11
3.99385
 21
22.4376
  0
LINE
  8
0
 10
3.99385
 20
22.4376
 11
3.98584
 21
22.448
  0
LINE
  8
0
 10
3.98584
 20
22.448
 11
3.97748
 21
22.4581
  0
LINE
  8
0
 10
3.97748
 20
22.4581
 11
3.96877
 21
22.4678
  0
LINE
  8
0
 10
3.96877
 20
22.4678
 11
3.9597
 21
22.4774
  0
LINE
  8
0
 10
3.9597
 20
22.4774
 11
3.9503
 21
22.4866
  0
LINE
  8
0
 10
3.9503
 20
22.4866
 11
3.94046
 21
22.4956
  0
LINE
  8
0
 10
3.94046
 20
22.4956
 11
3.9301
 21
22.5045
  0
LINE
  8
0
 10
3.9301
 20
22.5045
 11
3.9192
 21
22.5131
  0
LINE
  8
0
 10
3.9192
 20
22.5131
 11
3.90778
 21
22.5216
  0
LINE
  8
0
 10
3.90778
 20
22.5216
 11
3.89583
 21
22.53
  0
LINE
  8
0
 10
3.89583
 20
22.53
 11
3.88335
 21
22.5381
  0
LINE
  8
0
 10
3.88335
 20
22.5381
 11
3.87035
 21
22.5461
  0
LINE
  8
0
 10
3.87035
 20
22.5461
 11
3.85681
 21
22.5539
  0
LINE
  8
0
 10
3.85681
 20
22.5539
 11
3.84276
 21
22.5615
  0
LINE
  8
0
 10
3.84276
 20
22.5615
 11
3.82817
 21
22.569
  0
LINE
  8
0
 10
3.82817
 20
22.569
 11
3.81305
 21
22.5763
  0
LINE
  8
0
 10
3.81305
 20
22.5763
 11
3.79741
 21
22.5834
  0
LINE
  8
0
 10
3.79741
 20
22.5834
 11
3.78125
 21
22.5903
  0
LINE
  8
0
 10
3.78125
 20
22.5903
 11
3.76398
 21
22.5972
  0
LINE
  8
0
 10
3.76398
 20
22.5972
 11
3.74504
 21
22.6042
  0
LINE
  8
0
 10
3.74504
 20
22.6042
 11
3.72444
 21
22.6113
  0
LINE
  8
0
 10
3.72444
 20
22.6113
 11
3.70218
 21
22.6185
  0
LINE
  8
0
 10
3.70218
 20
22.6185
 11
3.67824
 21
22.6258
  0
LINE
  8
0
 10
3.67824
 20
22.6258
 11
3.65263
 21
22.6332
  0
LINE
  8
0
 10
3.65263
 20
22.6332
 11
3.62535
 21
22.6406
  0
LINE
  8
0
 10
3.62535
 20
22.6406
 11
3.59641
 21
22.6482
  0
LINE
  8
0
 10
3.59641
 20
22.6482
 11
3.5658
 21
22.6558
  0
LINE
  8
0
 10
3.5658
 20
22.6558
 11
3.53352
 21
22.6636
  0
LINE
  8
0
 10
3.53352
 20
22.6636
 11
3.49957
 21
22.6714
  0
LINE
  8
0
 10
3.49957
 20
22.6714
 11
3.46394
 21
22.6794
  0
LINE
  8
0
 10
3.46394
 20
22.6794
 11
3.42667
 21
22.6874
  0
LINE
  8
0
 10
3.42667
 20
22.6874
 11
3.39539
 21
22.6942
  0
LINE
  8
0
 10
3.39539
 20
22.6942
 11
3.36575
 21
22.7009
  0
LINE
  8
0
 10
3.36575
 20
22.7009
 11
3.3378
 21
22.7074
  0
LINE
  8
0
 10
3.3378
 20
22.7074
 11
3.31151
 21
22.7137
  0
LINE
  8
0
 10
3.31151
 20
22.7137
 11
3.28687
 21
22.7199
  0
LINE
  8
0
 10
3.28687
 20
22.7199
 11
3.26389
 21
22.7258
  0
LINE
  8
0
 10
3.26389
 20
22.7258
 11
3.24257
 21
22.7316
  0
LINE
  8
0
 10
3.24257
 20
22.7316
 11
3.22292
 21
22.7372
  0
LINE
  8
0
 10
3.22292
 20
22.7372
 11
3.20493
 21
22.7426
  0
LINE
  8
0
 10
3.20493
 20
22.7426
 11
3.1886
 21
22.7478
  0
LINE
  8
0
 10
3.1886
 20
22.7478
 11
3.17392
 21
22.7529
  0
LINE
  8
0
 10
3.17392
 20
22.7529
 11
3.16092
 21
22.7578
  0
LINE
  8
0
 10
3.16092
 20
22.7578
 11
3.14957
 21
22.7624
  0
LINE
  8
0
 10
3.14957
 20
22.7624
 11
3.13925
 21
22.7671
  0
LINE
  8
0
 10
3.13925
 20
22.7671
 11
3.12933
 21
22.7719
  0
LINE
  8
0
 10
3.12933
 20
22.7719
 11
3.11981
 21
22.7769
  0
LINE
  8
0
 10
3.11981
 20
22.7769
 11
3.11069
 21
22.7821
  0
LINE
  8
0
 10
3.11069
 20
22.7821
 11
3.10196
 21
22.7874
  0
LINE
  8
0
 10
3.10196
 20
22.7874
 11
3.09363
 21
22.7928
  0
LINE
  8
0
 10
3.09363
 20
22.7928
 11
3.08569
 21
22.7984
  0
LINE
  8
0
 10
3.08569
 20
22.7984
 11
3.07816
 21
22.8041
  0
LINE
  8
0
 10
3.07816
 20
22.8041
 11
3.07101
 21
22.81
  0
LINE
  8
0
 10
3.07101
 20
22.81
 11
3.06427
 21
22.816
  0
LINE
  8
0
 10
3.06427
 20
22.816
 11
3.05792
 21
22.8222
  0
LINE
  8
0
 10
3.05792
 20
22.8222
 11
3.05199
 21
22.8286
  0
LINE
  8
0
 10
3.05199
 20
22.8286
 11
3.04643
 21
22.8351
  0
LINE
  8
0
 10
3.04643
 20
22.8351
 11
3.04129
 21
22.8418
  0
LINE
  8
0
 10
3.04129
 20
22.8418
 11
3.03654
 21
22.8488
  0
LINE
  8
0
 10
3.03654
 20
22.8488
 11
3.03223
 21
22.8561
  0
LINE
  8
0
 10
3.03223
 20
22.8561
 11
3.02832
 21
22.8637
  0
LINE
  8
0
 10
3.02832
 20
22.8637
 11
3.02483
 21
22.8716
  0
LINE
  8
0
 10
3.02483
 20
22.8716
 11
3.02173
 21
22.8797
  0
LINE
  8
0
 10
3.02173
 20
22.8797
 11
3.01906
 21
22.8882
  0
LINE
  8
0
 10
3.01906
 20
22.8882
 11
3.0168
 21
22.8969
  0
LINE
  8
0
 10
3.0168
 20
22.8969
 11
3.01494
 21
22.9059
  0
LINE
  8
0
 10
3.01494
 20
22.9059
 11
3.0135
 21
22.9153
  0
LINE
  8
0
 10
3.0135
 20
22.9153
 11
3.01248
 21
22.9249
  0
LINE
  8
0
 10
3.01248
 20
22.9249
 11
3.01186
 21
22.9348
  0
LINE
  8
0
 10
3.01186
 20
22.9348
 11
3.01166
 21
22.9449
  0
LINE
  8
0
 10
3.01166
 20
22.9449
 11
3.0136
 21
22.9753
  0
LINE
  8
0
 10
3.0136
 20
22.9753
 11
3.01939
 21
23.0032
  0
LINE
  8
0
 10
3.01939
 20
23.0032
 11
3.02907
 21
23.0287
  0
LINE
  8
0
 10
3.02907
 20
23.0287
 11
3.04262
 21
23.0517
  0
LINE
  8
0
 10
3.04262
 20
23.0517
 11
3.06004
 21
23.0723
  0
LINE
  8
0
 10
3.06004
 20
23.0723
 11
3.08134
 21
23.0905
  0
LINE
  8
0
 10
3.08134
 20
23.0905
 11
3.10651
 21
23.1063
  0
LINE
  8
0
 10
3.10651
 20
23.1063
 11
3.13554
 21
23.1197
  0
LINE
  8
0
 10
3.13554
 20
23.1197
 11
3.16844
 21
23.1306
  0
LINE
  8
0
 10
3.16844
 20
23.1306
 11
3.20522
 21
23.1391
  0
LINE
  8
0
 10
3.20522
 20
23.1391
 11
3.24586
 21
23.1451
  0
LINE
  8
0
 10
3.24586
 20
23.1451
 11
3.29039
 21
23.1488
  0
LINE
  8
0
 10
3.29039
 20
23.1488
 11
3.33879
 21
23.15
  0
LINE
  8
0
 10
3.33879
 20
23.15
 11
3.36203
 21
23.1497
  0
LINE
  8
0
 10
3.36203
 20
23.1497
 11
3.38441
 21
23.1487
  0
LINE
  8
0
 10
3.38441
 20
23.1487
 11
3.40596
 21
23.147
  0
LINE
  8
0
 10
3.40596
 20
23.147
 11
3.42667
 21
23.1447
  0
LINE
  8
0
 10
3.42667
 20
23.1447
 11
3.44652
 21
23.1417
  0
LINE
  8
0
 10
3.44652
 20
23.1417
 11
3.46553
 21
23.138
  0
LINE
  8
0
 10
3.46553
 20
23.138
 11
3.4837
 21
23.1337
  0
LINE
  8
0
 10
3.4837
 20
23.1337
 11
3.50102
 21
23.1287
  0
LINE
  8
0
 10
3.50102
 20
23.1287
 11
3.5175
 21
23.1231
  0
LINE
  8
0
 10
3.5175
 20
23.1231
 11
3.53314
 21
23.1168
  0
LINE
  8
0
 10
3.53314
 20
23.1168
 11
3.54793
 21
23.1098
  0
LINE
  8
0
 10
3.54793
 20
23.1098
 11
3.56186
 21
23.1021
  0
LINE
  8
0
 10
3.56186
 20
23.1021
 11
3.57497
 21
23.0938
  0
LINE
  8
0
 10
3.57497
 20
23.0938
 11
3.58731
 21
23.0849
  0
LINE
  8
0
 10
3.58731
 20
23.0849
 11
3.599
 21
23.0753
  0
LINE
  8
0
 10
3.599
 20
23.0753
 11
3.61003
 21
23.065
  0
LINE
  8
0
 10
3.61003
 20
23.065
 11
3.62041
 21
23.0541
  0
LINE
  8
0
 10
3.62041
 20
23.0541
 11
3.63013
 21
23.0425
  0
LINE
  8
0
 10
3.63013
 20
23.0425
 11
3.63919
 21
23.0303
  0
LINE
  8
0
 10
3.63919
 20
23.0303
 11
3.6476
 21
23.0175
  0
LINE
  8
0
 10
3.6476
 20
23.0175
 11
3.65533
 21
23.0039
  0
LINE
  8
0
 10
3.65533
 20
23.0039
 11
3.66243
 21
22.9898
  0
LINE
  8
0
 10
3.66243
 20
22.9898
 11
3.66885
 21
22.975
  0
LINE
  8
0
 10
3.66885
 20
22.975
 11
3.67464
 21
22.9595
  0
LINE
  8
0
 10
3.67464
 20
22.9595
 11
3.67975
 21
22.9434
  0
LINE
  8
0
 10
3.67975
 20
22.9434
 11
3.6842
 21
22.9266
  0
LINE
  8
0
 10
3.6842
 20
22.9266
 11
4.03331
 21
22.9742
  0
LINE
  8
0
 10
4.03331
 20
22.9742
 11
4.0255
 21
23.009
  0
LINE
  8
0
 10
4.0255
 20
23.009
 11
4.01634
 21
23.0421
  0
LINE
  8
0
 10
4.01634
 20
23.0421
 11
4.00583
 21
23.0737
  0
LINE
  8
0
 10
4.00583
 20
23.0737
 11
3.99396
 21
23.1038
  0
LINE
  8
0
 10
3.99396
 20
23.1038
 11
3.98074
 21
23.1324
  0
LINE
  8
0
 10
3.98074
 20
23.1324
 11
3.96619
 21
23.1594
  0
LINE
  8
0
 10
3.96619
 20
23.1594
 11
3.95027
 21
23.1848
  0
LINE
  8
0
 10
3.95027
 20
23.1848
 11
3.933
 21
23.2087
  0
LINE
  8
0
 10
3.933
 20
23.2087
 11
3.91438
 21
23.2311
  0
LINE
  8
0
 10
3.91438
 20
23.2311
 11
3.89441
 21
23.2519
  0
LINE
  8
0
 10
3.89441
 20
23.2519
 11
3.87309
 21
23.2711
  0
LINE
  8
0
 10
3.87309
 20
23.2711
 11
3.85043
 21
23.2888
  0
LINE
  8
0
 10
3.85043
 20
23.2888
 11
3.8264
 21
23.305
  0
LINE
  8
0
 10
3.8264
 20
23.305
 11
3.80077
 21
23.3198
  0
LINE
  8
0
 10
3.80077
 20
23.3198
 11
3.77325
 21
23.3335
  0
LINE
  8
0
 10
3.77325
 20
23.3335
 11
3.74384
 21
23.3459
  0
LINE
  8
0
 10
3.74384
 20
23.3459
 11
3.71255
 21
23.3571
  0
LINE
  8
0
 10
3.71255
 20
23.3571
 11
3.67937
 21
23.3672
  0
LINE
  8
0
 10
3.67937
 20
23.3672
 11
3.64432
 21
23.3761
  0
LINE
  8
0
 10
3.64432
 20
23.3761
 11
3.60736
 21
23.3838
  0
LINE
  8
0
 10
3.60736
 20
23.3838
 11
3.56853
 21
23.3903
  0
LINE
  8
0
 10
3.56853
 20
23.3903
 11
3.52782
 21
23.3956
  0
LINE
  8
0
 10
3.52782
 20
23.3956
 11
3.48521
 21
23.3998
  0
LINE
  8
0
 10
3.48521
 20
23.3998
 11
3.44072
 21
23.4027
  0
LINE
  8
0
 10
3.44072
 20
23.4027
 11
3.39435
 21
23.4045
  0
LINE
  8
0
 10
3.39435
 20
23.4045
 11
3.3461
 21
23.4051
  0
LINE
  8
0
 10
3.3461
 20
23.4051
 11
3.29558
 21
23.4044
  0
LINE
  8
0
 10
3.29558
 20
23.4044
 11
3.24696
 21
23.4022
  0
LINE
  8
0
 10
3.24696
 20
23.4022
 11
3.20023
 21
23.3985
  0
LINE
  8
0
 10
3.20023
 20
23.3985
 11
3.15536
 21
23.3934
  0
LINE
  8
0
 10
3.15536
 20
23.3934
 11
3.1124
 21
23.3868
  0
LINE
  8
0
 10
3.1124
 20
23.3868
 11
3.0713
 21
23.3787
  0
LINE
  8
0
 10
3.0713
 20
23.3787
 11
3.0321
 21
23.3692
  0
LINE
  8
0
 10
3.0321
 20
23.3692
 11
2.9948
 21
23.3582
  0
LINE
  8
0
 10
2.9948
 20
23.3582
 11
2.95937
 21
23.3457
  0
LINE
  8
0
 10
2.95937
 20
23.3457
 11
2.92583
 21
23.3318
  0
LINE
  8
0
 10
2.92583
 20
23.3318
 11
2.89417
 21
23.3164
  0
LINE
  8
0
 10
2.89417
 20
23.3164
 11
2.86438
 21
23.2995
  0
LINE
  8
0
 10
2.86438
 20
23.2995
 11
2.8365
 21
23.2812
  0
LINE
  8
0
 10
2.8365
 20
23.2812
 11
2.81058
 21
23.2615
  0
LINE
  8
0
 10
2.81058
 20
23.2615
 11
2.78674
 21
23.2405
  0
LINE
  8
0
 10
2.78674
 20
23.2405
 11
2.76498
 21
23.2182
  0
LINE
  8
0
 10
2.76498
 20
23.2182
 11
2.74529
 21
23.1946
  0
LINE
  8
0
 10
2.74529
 20
23.1946
 11
2.72768
 21
23.1698
  0
LINE
  8
0
 10
2.72768
 20
23.1698
 11
2.71213
 21
23.1436
  0
LINE
  8
0
 10
2.71213
 20
23.1436
 11
2.69865
 21
23.1161
  0
LINE
  8
0
 10
2.69865
 20
23.1161
 11
2.68724
 21
23.0874
  0
LINE
  8
0
 10
2.68724
 20
23.0874
 11
2.67792
 21
23.0573
  0
LINE
  8
0
 10
2.67792
 20
23.0573
 11
2.67067
 21
23.026
  0
LINE
  8
0
 10
2.67067
 20
23.026
 11
2.66548
 21
22.9933
  0
LINE
  8
0
 10
2.66548
 20
22.9933
 11
2.66237
 21
22.9594
  0
LINE
  8
0
 10
2.66237
 20
22.9594
 11
2.66133
 21
22.9242
  0
LINE
  8
0
 10
2.66133
 20
22.9242
 11
2.66148
 21
22.9102
  0
LINE
  8
0
 10
2.66148
 20
22.9102
 11
2.6619
 21
22.8965
  0
LINE
  8
0
 10
2.6619
 20
22.8965
 11
2.6626
 21
22.883
  0
LINE
  8
0
 10
2.6626
 20
22.883
 11
2.66359
 21
22.8698
  0
LINE
  8
0
 10
2.66359
 20
22.8698
 11
2.66486
 21
22.8568
  0
LINE
  8
0
 10
2.66486
 20
22.8568
 11
2.66641
 21
22.8441
  0
LINE
  8
0
 10
2.66641
 20
22.8441
 11
2.66824
 21
22.8316
  0
LINE
  8
0
 10
2.66824
 20
22.8316
 11
2.67035
 21
22.8194
  0
LINE
  8
0
 10
2.67035
 20
22.8194
 11
2.67274
 21
22.8074
  0
LINE
  8
0
 10
2.67274
 20
22.8074
 11
2.67542
 21
22.7956
  0
LINE
  8
0
 10
2.67542
 20
22.7956
 11
2.67838
 21
22.7841
  0
LINE
  8
0
 10
2.67838
 20
22.7841
 11
2.68161
 21
22.7729
  0
LINE
  8
0
 10
2.68161
 20
22.7729
 11
2.68513
 21
22.7618
  0
LINE
  8
0
 10
2.68513
 20
22.7618
 11
2.6889
 21
22.7511
  0
LINE
  8
0
 10
2.6889
 20
22.7511
 11
2.6929
 21
22.7405
  0
LINE
  8
0
 10
2.6929
 20
22.7405
 11
2.69713
 21
22.7301
  0
LINE
  8
0
 10
2.69713
 20
22.7301
 11
2.70157
 21
22.72
  0
LINE
  8
0
 10
2.70157
 20
22.72
 11
2.70624
 21
22.7101
  0
LINE
  8
0
 10
2.70624
 20
22.7101
 11
2.71114
 21
22.7004
  0
LINE
  8
0
 10
2.71114
 20
22.7004
 11
2.71625
 21
22.6909
  0
LINE
  8
0
 10
2.71625
 20
22.6909
 11
2.72159
 21
22.6817
  0
LINE
  8
0
 10
2.72159
 20
22.6817
 11
2.72714
 21
22.6726
  0
LINE
  8
0
 10
2.72714
 20
22.6726
 11
2.73294
 21
22.6638
  0
LINE
  8
0
 10
2.73294
 20
22.6638
 11
2.73895
 21
22.6552
  0
LINE
  8
0
 10
2.73895
 20
22.6552
 11
2.74518
 21
22.6467
  0
LINE
  8
0
 10
2.74518
 20
22.6467
 11
2.75165
 21
22.6386
  0
LINE
  8
0
 10
2.75165
 20
22.6386
 11
2.75833
 21
22.6306
  0
LINE
  8
0
 10
2.75833
 20
22.6306
 11
2.76523
 21
22.6228
  0
LINE
  8
0
 10
2.76523
 20
22.6228
 11
2.77234
 21
22.6152
  0
LINE
  8
0
 10
2.77234
 20
22.6152
 11
2.77968
 21
22.6077
  0
LINE
  8
0
 10
2.77968
 20
22.6077
 11
2.78722
 21
22.6004
  0
LINE
  8
0
 10
2.78722
 20
22.6004
 11
2.79498
 21
22.5934
  0
LINE
  8
0
 10
2.79498
 20
22.5934
 11
2.80296
 21
22.5865
  0
LINE
  8
0
 10
2.80296
 20
22.5865
 11
2.81116
 21
22.5797
  0
LINE
  8
0
 10
2.81116
 20
22.5797
 11
2.81958
 21
22.5732
  0
LINE
  8
0
 10
2.81958
 20
22.5732
 11
2.8282
 21
22.5668
  0
LINE
  8
0
 10
2.8282
 20
22.5668
 11
2.83705
 21
22.5607
  0
LINE
  8
0
 10
2.83705
 20
22.5607
 11
2.84612
 21
22.5547
  0
LINE
  8
0
 10
2.84612
 20
22.5547
 11
2.85539
 21
22.5488
  0
LINE
  8
0
 10
2.85539
 20
22.5488
 11
2.86487
 21
22.5432
  0
LINE
  8
0
 10
2.86487
 20
22.5432
 11
2.87453
 21
22.5376
  0
LINE
  8
0
 10
2.87453
 20
22.5376
 11
2.88434
 21
22.5322
  0
LINE
  8
0
 10
2.88434
 20
22.5322
 11
2.89435
 21
22.5269
  0
LINE
  8
0
 10
2.89435
 20
22.5269
 11
2.90451
 21
22.5217
  0
LINE
  8
0
 10
2.90451
 20
22.5217
 11
2.91486
 21
22.5166
  0
LINE
  8
0
 10
2.91486
 20
22.5166
 11
2.92537
 21
22.5116
  0
LINE
  8
0
 10
2.92537
 20
22.5116
 11
2.93607
 21
22.5067
  0
LINE
  8
0
 10
2.93607
 20
22.5067
 11
2.94693
 21
22.502
  0
LINE
  8
0
 10
2.94693
 20
22.502
 11
2.95796
 21
22.4974
  0
LINE
  8
0
 10
2.95796
 20
22.4974
 11
2.96916
 21
22.4928
  0
LINE
  8
0
 10
2.96916
 20
22.4928
 11
2.98055
 21
22.4884
  0
LINE
  8
0
 10
2.98055
 20
22.4884
 11
2.99211
 21
22.4842
  0
LINE
  8
0
 10
2.99211
 20
22.4842
 11
3.00444
 21
22.4798
  0
LINE
  8
0
 10
3.00444
 20
22.4798
 11
3.01817
 21
22.4753
  0
LINE
  8
0
 10
3.01817
 20
22.4753
 11
3.03328
 21
22.4706
  0
LINE
  8
0
 10
3.03328
 20
22.4706
 11
3.04977
 21
22.4656
  0
LINE
  8
0
 10
3.04977
 20
22.4656
 11
3.06766
 21
22.4604
  0
LINE
  8
0
 10
3.06766
 20
22.4604
 11
3.08693
 21
22.455
  0
LINE
  8
0
 10
3.08693
 20
22.455
 11
3.10759
 21
22.4495
  0
LINE
  8
0
 10
3.10759
 20
22.4495
 11
3.12964
 21
22.4437
  0
LINE
  8
0
 10
3.12964
 20
22.4437
 11
3.15308
 21
22.4377
  0
LINE
  8
0
 10
3.15308
 20
22.4377
 11
3.17789
 21
22.4314
  0
LINE
  8
0
 10
3.17789
 20
22.4314
 11
3.2041
 21
22.425
  0
LINE
  8
0
 10
3.2041
 20
22.425
 11
3.23169
 21
22.4184
  0
LINE
  8
0
 10
3.23169
 20
22.4184
 11
3.26067
 21
22.4115
  0
LINE
  8
0
 10
3.26067
 20
22.4115
 11
3.29417
 21
22.4047
  0
LINE
  8
0
 10
3.29417
 20
22.4047
 11
3.32597
 21
22.398
  0
LINE
  8
0
 10
3.32597
 20
22.398
 11
3.35605
 21
22.3914
  0
LINE
  8
0
 10
3.35605
 20
22.3914
 11
3.38443
 21
22.385
  0
LINE
  8
0
 10
3.38443
 20
22.385
 11
3.41109
 21
22.3788
  0
LINE
  8
0
 10
3.41109
 20
22.3788
 11
3.43604
 21
22.3727
  0
LINE
  8
0
 10
3.43604
 20
22.3727
 11
3.45927
 21
22.3668
  0
LINE
  8
0
 10
3.45927
 20
22.3668
 11
3.4808
 21
22.361
  0
LINE
  8
0
 10
3.4808
 20
22.361
 11
3.50061
 21
22.3554
  0
LINE
  8
0
 10
3.50061
 20
22.3554
 11
3.51872
 21
22.35
  0
LINE
  8
0
 10
3.51872
 20
22.35
 11
3.53511
 21
22.3447
  0
LINE
  8
0
 10
3.53511
 20
22.3447
 11
3.54979
 21
22.3396
  0
LINE
  8
0
 10
3.54979
 20
22.3396
 11
3.56276
 21
22.3346
  0
LINE
  8
0
 10
3.56276
 20
22.3346
 11
3.57466
 21
22.3297
  0
LINE
  8
0
 10
3.57466
 20
22.3297
 11
3.58615
 21
22.3245
  0
LINE
  8
0
 10
3.58615
 20
22.3245
 11
3.59721
 21
22.3191
  0
LINE
  8
0
 10
3.59721
 20
22.3191
 11
3.60786
 21
22.3136
  0
LINE
  8
0
 10
3.60786
 20
22.3136
 11
3.61809
 21
22.3079
  0
LINE
  8
0
 10
3.61809
 20
22.3079
 11
3.6279
 21
22.302
  0
LINE
  8
0
 10
3.6279
 20
22.302
 11
3.63728
 21
22.2959
  0
LINE
  8
0
 10
3.63728
 20
22.2959
 11
3.64626
 21
22.2896
  0
LINE
  8
0
 10
3.64626
 20
22.2896
 11
3.6548
 21
22.2831
  0
LINE
  8
0
 10
3.6548
 20
22.2831
 11
3.66293
 21
22.2764
  0
LINE
  8
0
 10
3.66293
 20
22.2764
 11
3.67065
 21
22.2696
  0
LINE
  8
0
 10
3.67065
 20
22.2696
 11
3.67795
 21
22.2625
  0
LINE
  8
0
 10
3.67795
 20
22.2625
 11
3.68481
 21
22.2553
  0
LINE
  8
0
 10
3.68481
 20
22.2553
 11
3.69122
 21
22.2478
  0
LINE
  8
0
 10
3.69122
 20
22.2478
 11
3.69713
 21
22.24
  0
LINE
  8
0
 10
3.69713
 20
22.24
 11
3.70251
 21
22.232
  0
LINE
  8
0
 10
3.70251
 20
22.232
 11
3.70738
 21
22.2236
  0
LINE
  8
0
 10
3.70738
 20
22.2236
 11
3.71175
 21
22.2149
  0
LINE
  8
0
 10
3.71175
 20
22.2149
 11
3.71559
 21
22.2059
  0
LINE
  8
0
 10
3.71559
 20
22.2059
 11
3.71893
 21
22.1966
  0
LINE
  8
0
 10
3.71893
 20
22.1966
 11
3.72176
 21
22.187
  0
LINE
  8
0
 10
3.72176
 20
22.187
 11
3.72406
 21
22.1771
  0
LINE
  8
0
 10
3.72406
 20
22.1771
 11
3.72585
 21
22.1669
  0
LINE
  8
0
 10
3.72585
 20
22.1669
 11
3.72714
 21
22.1564
  0
LINE
  8
0
 10
3.72714
 20
22.1564
 11
3.72791
 21
22.1456
  0
LINE
  8
0
 10
3.72791
 20
22.1456
 11
3.72816
 21
22.1345
  0
LINE
  8
0
 10
3.72816
 20
22.1345
 11
3.72594
 21
22.1005
  0
LINE
  8
0
 10
3.72594
 20
22.1005
 11
3.71924
 21
22.0693
  0
LINE
  8
0
 10
3.71924
 20
22.0693
 11
3.70807
 21
22.0408
  0
LINE
  8
0
 10
3.70807
 20
22.0408
 11
3.69246
 21
22.015
  0
LINE
  8
0
 10
3.69246
 20
22.015
 11
3.67236
 21
21.9919
  0
LINE
  8
0
 10
3.67236
 20
21.9919
 11
3.64781
 21
21.9715
  0
LINE
  8
0
 10
3.64781
 20
21.9715
 11
3.6188
 21
21.9539
  0
LINE
  8
0
 10
3.6188
 20
21.9539
 11
3.58533
 21
21.9389
  0
LINE
  8
0
 10
3.58533
 20
21.9389
 11
3.54739
 21
21.9267
  0
LINE
  8
0
 10
3.54739
 20
21.9267
 11
3.50499
 21
21.9172
  0
LINE
  8
0
 10
3.50499
 20
21.9172
 11
3.45811
 21
21.9104
  0
LINE
  8
0
 10
3.45811
 20
21.9104
 11
3.40678
 21
21.9063
  0
LINE
  8
0
 10
3.40678
 20
21.9063
 11
3.35098
 21
21.905
  0
LINE
  8
0
 10
3.35098
 20
21.905
 11
3.32347
 21
21.9053
  0
LINE
  8
0
 10
3.32347
 20
21.9053
 11
3.29691
 21
21.9064
  0
LINE
  8
0
 10
3.29691
 20
21.9064
 11
3.27127
 21
21.9082
  0
LINE
  8
0
 10
3.27127
 20
21.9082
 11
3.24658
 21
21.9108
  0
LINE
  8
0
 10
3.24658
 20
21.9108
 11
3.22282
 21
21.9141
  0
LINE
  8
0
 10
3.22282
 20
21.9141
 11
3.20001
 21
21.9181
  0
LINE
  8
0
 10
3.20001
 20
21.9181
 11
3.17813
 21
21.9228
  0
LINE
  8
0
 10
3.17813
 20
21.9228
 11
3.15718
 21
21.9283
  0
LINE
  8
0
 10
3.15718
 20
21.9283
 11
3.13719
 21
21.9345
  0
LINE
  8
0
 10
3.13719
 20
21.9345
 11
3.11812
 21
21.9414
  0
LINE
  8
0
 10
3.11812
 20
21.9414
 11
3.10001
 21
21.9491
  0
LINE
  8
0
 10
3.10001
 20
21.9491
 11
3.08281
 21
21.9575
  0
LINE
  8
0
 10
3.08281
 20
21.9575
 11
3.06657
 21
21.9666
  0
LINE
  8
0
 10
3.06657
 20
21.9666
 11
3.05119
 21
21.9765
  0
LINE
  8
0
 10
3.05119
 20
21.9765
 11
3.03661
 21
21.9874
  0
LINE
  8
0
 10
3.03661
 20
21.9874
 11
3.02283
 21
21.9991
  0
LINE
  8
0
 10
3.02283
 20
21.9991
 11
3.00983
 21
22.0116
  0
LINE
  8
0
 10
3.00983
 20
22.0116
 11
2.99763
 21
22.0251
  0
LINE
  8
0
 10
2.99763
 20
22.0251
 11
2.98624
 21
22.0395
  0
LINE
  8
0
 10
2.98624
 20
22.0395
 11
2.97562
 21
22.0548
  0
LINE
  8
0
 10
2.97562
 20
22.0548
 11
2.96581
 21
22.0709
  0
LINE
  8
0
 10
2.96581
 20
22.0709
 11
2.95679
 21
22.0879
  0
LINE
  8
0
 10
2.95679
 20
22.0879
 11
2.94856
 21
22.1059
  0
LINE
  8
0
 10
2.94856
 20
22.1059
 11
2.94113
 21
22.1247
  0
LINE
  8
0
 10
2.94113
 20
22.1247
 11
2.93449
 21
22.1444
  0
LINE
  8
0
 10
2.93449
 20
22.1444
 11
2.92865
 21
22.165
  0
LINE
  8
0
 10
2.92865
 20
22.165
 11
2.58076
 21
22.1076
  0
LINE
  8
0
 10
2.58076
 20
22.1076
 11
2.58983
 21
22.0717
  0
LINE
  8
0
 10
2.58983
 20
22.0717
 11
2.60048
 21
22.0372
  0
LINE
  8
0
 10
2.60048
 20
22.0372
 11
2.61272
 21
22.0042
  0
LINE
  8
0
 10
2.61272
 20
22.0042
 11
2.62654
 21
21.9726
  0
LINE
  8
0
 10
2.62654
 20
21.9726
 11
2.64195
 21
21.9424
  0
LINE
  8
0
 10
2.64195
 20
21.9424
 11
2.65895
 21
21.9136
  0
LINE
  8
0
 10
2.65895
 20
21.9136
 11
2.67754
 21
21.8863
  0
LINE
  8
0
 10
2.67754
 20
21.8863
 11
2.69772
 21
21.8604
  0
LINE
  8
0
 10
2.69772
 20
21.8604
 11
2.71948
 21
21.836
  0
LINE
  8
0
 10
2.71948
 20
21.836
 11
2.74284
 21
21.8129
  0
LINE
  8
0
 10
2.74284
 20
21.8129
 11
2.76779
 21
21.7913
  0
LINE
  8
0
 10
2.76779
 20
21.7913
 11
2.79433
 21
21.7711
  0
LINE
  8
0
 10
2.79433
 20
21.7711
 11
2.82245
 21
21.7524
  0
LINE
  8
0
 10
2.82245
 20
21.7524
 11
2.85222
 21
21.7351
  0
LINE
  8
0
 10
2.85222
 20
21.7351
 11
2.88367
 21
21.7191
  0
LINE
  8
0
 10
2.88367
 20
21.7191
 11
2.91682
 21
21.7046
  0
LINE
  8
0
 10
2.91682
 20
21.7046
 11
2.95164
 21
21.6914
  0
LINE
  8
0
 10
2.95164
 20
21.6914
 11
2.98817
 21
21.6796
  0
LINE
  8
0
 10
2.98817
 20
21.6796
 11
3.0264
 21
21.6692
  0
LINE
  8
0
 10
3.0264
 20
21.6692
 11
3.0663
 21
21.6602
  0
LINE
  8
0
 10
3.0663
 20
21.6602
 11
3.10789
 21
21.6526
  0
LINE
  8
0
 10
3.10789
 20
21.6526
 11
3.15117
 21
21.6463
  0
LINE
  8
0
 10
3.15117
 20
21.6463
 11
3.19615
 21
21.6415
  0
LINE
  8
0
 10
3.19615
 20
21.6415
 11
3.24281
 21
21.638
  0
LINE
  8
0
 10
3.24281
 20
21.638
 11
3.29117
 21
21.6359
  0
LINE
  8
0
 10
3.29117
 20
21.6359
 11
3.34122
 21
21.6352
  0
LINE
  8
0
 10
3.34122
 20
21.6352
 11
3.39595
 21
21.636
  0
LINE
  8
0
 10
-2.68706
 20
21.9379
 11
-3.60985
 21
21.9379
  0
LINE
  8
0
 10
-3.60985
 20
21.9379
 11
-3.60985
 21
23.3795
  0
LINE
  8
0
 10
-3.60985
 20
23.3795
 11
-3.96994
 21
23.3795
  0
LINE
  8
0
 10
-3.96994
 20
23.3795
 11
-3.96994
 21
21.6596
  0
LINE
  8
0
 10
-3.96994
 20
21.6596
 11
-2.68706
 21
21.6596
  0
LINE
  8
0
 10
-2.68706
 20
21.6596
 11
-2.68706
 21
21.9379
  0
LINE
  8
0
 10
-1.07611
 20
21.9379
 11
-2.11853
 21
21.9379
  0
LINE
  8
0
 10
-2.11853
 20
21.9379
 11
-2.11853
 21
22.3908
  0
LINE
  8
0
 10
-2.11853
 20
22.3908
 11
-1.20062
 21
22.3908
  0
LINE
  8
0
 10
-1.20062
 20
22.3908
 11
-1.20062
 21
22.6691
  0
LINE
  8
0
 10
-1.20062
 20
22.6691
 11
-2.11853
 21
22.6691
  0
LINE
  8
0
 10
-2.11853
 20
22.6691
 11
-2.11853
 21
23.1012
  0
LINE
  8
0
 10
-2.11853
 20
23.1012
 11
-1.12616
 21
23.1012
  0
LINE
  8
0
 10
-1.12616
 20
23.1012
 11
-1.12616
 21
23.3795
  0
LINE
  8
0
 10
-1.12616
 20
23.3795
 11
-2.47862
 21
23.3795
  0
LINE
  8
0
 10
-2.47862
 20
23.3795
 11
-2.47862
 21
21.6596
  0
LINE
  8
0
 10
-2.47862
 20
21.6596
 11
-1.07611
 21
21.6596
  0
LINE
  8
0
 10
-1.07611
 20
21.6596
 11
-1.07611
 21
21.9379
  0
LINE
  8
0
 10
-0.44252
 20
22.0991
 11
0.212936
 21
22.0991
  0
LINE
  8
0
 10
0.212936
 20
22.0991
 11
0.365524
 21
21.6596
  0
LINE
  8
0
 10
0.365524
 20
21.6596
 11
0.721939
 21
21.6596
  0
LINE
  8
0
 10
0.721939
 20
21.6596
 11
0.0969849
 21
23.3795
  0
LINE
  8
0
 10
0.0969849
 20
23.3795
 11
-0.327789
 21
23.3795
  0
LINE
  8
0
 10
-0.327789
 20
23.3795
 11
-0.9552
 21
21.6596
  0
LINE
  8
0
 10
-0.9552
 20
21.6596
 11
-0.595108
 21
21.6596
  0
LINE
  8
0
 10
-0.595108
 20
21.6596
 11
-0.44252
 21
22.0991
  0
LINE
  8
0
 10
-0.361969
 20
22.37
 11
-0.306793
 21
22.5308
  0
LINE
  8
0
 10
-0.306793
 20
22.5308
 11
-0.259918
 21
22.6677
  0
LINE
  8
0
 10
-0.259918
 20
22.6677
 11
-0.22139
 21
22.7807
  0
LINE
  8
0
 10
-0.22139
 20
22.7807
 11
-0.205231
 21
22.8282
  0
LINE
  8
0
 10
-0.205231
 20
22.8282
 11
-0.191162
 21
22.8697
  0
LINE
  8
0
 10
-0.191162
 20
22.8697
 11
-0.179169
 21
22.9053
  0
LINE
  8
0
 10
-0.179169
 20
22.9053
 11
-0.169266
 21
22.9348
  0
LINE
  8
0
 10
-0.169266
 20
22.9348
 11
-0.161438
 21
22.9584
  0
LINE
  8
0
 10
-0.161438
 20
22.9584
 11
-0.155685
 21
22.976
  0
LINE
  8
0
 10
-0.155685
 20
22.976
 11
-0.152023
 21
22.9877
  0
LINE
  8
0
 10
-0.152023
 20
22.9877
 11
-0.141968
 21
23.0211
  0
LINE
  8
0
 10
-0.141968
 20
23.0211
 11
-0.135025
 21
23.0446
  0
LINE
  8
0
 10
-0.135025
 20
23.0446
 11
-0.126587
 21
23.0739
  0
LINE
  8
0
 10
-0.126587
 20
23.0739
 11
-0.122711
 21
23.0878
  0
LINE
  8
0
 10
-0.122711
 20
23.0878
 11
-0.115402
 21
23.1146
  0
LINE
  8
0
 10
-0.115402
 20
23.1146
 11
-0.0897522
 21
23.0304
  0
LINE
  8
0
 10
-0.0897522
 20
23.0304
 11
-0.0372925
 21
22.8644
  0
LINE
  8
0
 10
-0.0372925
 20
22.8644
 11
0.13237
 21
22.37
  0
LINE
  8
0
 10
0.13237
 20
22.37
 11
-0.361969
 21
22.37
  0
LINE
  8
0
 10
1.64622
 20
21.6602
 11
1.68318
 21
21.6621
  0
LINE
  8
0
 10
1.68318
 20
21.6621
 11
1.71947
 21
21.6652
  0
LINE
  8
0
 10
1.71947
 20
21.6652
 11
1.7551
 21
21.6696
  0
LINE
  8
0
 10
1.7551
 20
21.6696
 11
1.79008
 21
21.6752
  0
LINE
  8
0
 10
1.79008
 20
21.6752
 11
1.8244
 21
21.682
  0
LINE
  8
0
 10
1.8244
 20
21.682
 11
1.85806
 21
21.6901
  0
LINE
  8
0
 10
1.85806
 20
21.6901
 11
1.89107
 21
21.6994
  0
LINE
  8
0
 10
1.89107
 20
21.6994
 11
1.92342
 21
21.7099
  0
LINE
  8
0
 10
1.92342
 20
21.7099
 11
1.95509
 21
21.7218
  0
LINE
  8
0
 10
1.95509
 20
21.7218
 11
1.98613
 21
21.7348
  0
LINE
  8
0
 10
1.98613
 20
21.7348
 11
2.01651
 21
21.7491
  0
LINE
  8
0
 10
2.01651
 20
21.7491
 11
2.04622
 21
21.7646
  0
LINE
  8
0
 10
2.04622
 20
21.7646
 11
2.0751
 21
21.7813
  0
LINE
  8
0
 10
2.0751
 20
21.7813
 11
2.10295
 21
21.7991
  0
LINE
  8
0
 10
2.10295
 20
21.7991
 11
2.12978
 21
21.818
  0
LINE
  8
0
 10
2.12978
 20
21.818
 11
2.15558
 21
21.838
  0
LINE
  8
0
 10
2.15558
 20
21.838
 11
2.18034
 21
21.8592
  0
LINE
  8
0
 10
2.18034
 20
21.8592
 11
2.2041
 21
21.8814
  0
LINE
  8
0
 10
2.2041
 20
21.8814
 11
2.22682
 21
21.9047
  0
LINE
  8
0
 10
2.22682
 20
21.9047
 11
2.24852
 21
21.9292
  0
LINE
  8
0
 10
2.24852
 20
21.9292
 11
2.2692
 21
21.9547
  0
LINE
  8
0
 10
2.2692
 20
21.9547
 11
2.28883
 21
21.9814
  0
LINE
  8
0
 10
2.28883
 20
21.9814
 11
2.30745
 21
22.0091
  0
LINE
  8
0
 10
2.30745
 20
22.0091
 11
2.32504
 21
22.038
  0
LINE
  8
0
 10
2.32504
 20
22.038
 11
2.34161
 21
22.0679
  0
LINE
  8
0
 10
2.34161
 20
22.0679
 11
2.35706
 21
22.0988
  0
LINE
  8
0
 10
2.35706
 20
22.0988
 11
2.37126
 21
22.1306
  0
LINE
  8
0
 10
2.37126
 20
22.1306
 11
2.38423
 21
22.1631
  0
LINE
  8
0
 10
2.38423
 20
22.1631
 11
2.39597
 21
22.1964
  0
LINE
  8
0
 10
2.39597
 20
22.1964
 11
2.40646
 21
22.2305
  0
LINE
  8
0
 10
2.40646
 20
22.2305
 11
2.41573
 21
22.2655
  0
LINE
  8
0
 10
2.41573
 20
22.2655
 11
2.42375
 21
22.3012
  0
LINE
  8
0
 10
2.42375
 20
22.3012
 11
2.43054
 21
22.3377
  0
LINE
  8
0
 10
2.43054
 20
22.3377
 11
2.4361
 21
22.375
  0
LINE
  8
0
 10
2.4361
 20
22.375
 11
2.44043
 21
22.4132
  0
LINE
  8
0
 10
2.44043
 20
22.4132
 11
2.44351
 21
22.4521
  0
LINE
  8
0
 10
2.44351
 20
22.4521
 11
2.44536
 21
22.4918
  0
LINE
  8
0
 10
2.44536
 20
22.4918
 11
2.44598
 21
22.5324
  0
LINE
  8
0
 10
2.44598
 20
22.5324
 11
2.44458
 21
22.5941
  0
LINE
  8
0
 10
2.44458
 20
22.5941
 11
2.44035
 21
22.6537
  0
LINE
  8
0
 10
2.44035
 20
22.6537
 11
2.4333
 21
22.711
  0
LINE
  8
0
 10
2.4333
 20
22.711
 11
2.42345
 21
22.766
  0
LINE
  8
0
 10
2.42345
 20
22.766
 11
2.41077
 21
22.8188
  0
LINE
  8
0
 10
2.41077
 20
22.8188
 11
2.39528
 21
22.8694
  0
LINE
  8
0
 10
2.39528
 20
22.8694
 11
2.37697
 21
22.9177
  0
LINE
  8
0
 10
2.37697
 20
22.9177
 11
2.35583
 21
22.9638
  0
LINE
  8
0
 10
2.35583
 20
22.9638
 11
2.33189
 21
23.0076
  0
LINE
  8
0
 10
2.33189
 20
23.0076
 11
2.30513
 21
23.0491
  0
LINE
  8
0
 10
2.30513
 20
23.0491
 11
2.27556
 21
23.0885
  0
LINE
  8
0
 10
2.27556
 20
23.0885
 11
2.24316
 21
23.1255
  0
LINE
  8
0
 10
2.24316
 20
23.1255
 11
2.20795
 21
23.1604
  0
LINE
  8
0
 10
2.20795
 20
23.1604
 11
2.17017
 21
23.1928
  0
LINE
  8
0
 10
2.17017
 20
23.1928
 11
2.13007
 21
23.2226
  0
LINE
  8
0
 10
2.13007
 20
23.2226
 11
2.08763
 21
23.2498
  0
LINE
  8
0
 10
2.08763
 20
23.2498
 11
2.04288
 21
23.2745
  0
LINE
  8
0
 10
2.04288
 20
23.2745
 11
1.99579
 21
23.2965
  0
LINE
  8
0
 10
1.99579
 20
23.2965
 11
1.94638
 21
23.3159
  0
LINE
  8
0
 10
1.94638
 20
23.3159
 11
1.89465
 21
23.3328
  0
LINE
  8
0
 10
1.89465
 20
23.3328
 11
1.84059
 21
23.3471
  0
LINE
  8
0
 10
1.84059
 20
23.3471
 11
1.78419
 21
23.3587
  0
LINE
  8
0
 10
1.78419
 20
23.3587
 11
1.72549
 21
23.3678
  0
LINE
  8
0
 10
1.72549
 20
23.3678
 11
1.66444
 21
23.3743
  0
LINE
  8
0
 10
1.66444
 20
23.3743
 11
1.60109
 21
23.3782
  0
LINE
  8
0
 10
1.60109
 20
23.3782
 11
1.5354
 21
23.3795
  0
LINE
  8
0
 10
1.5354
 20
23.3795
 11
0.912872
 21
23.3795
  0
LINE
  8
0
 10
0.912872
 20
23.3795
 11
0.912872
 21
21.6596
  0
LINE
  8
0
 10
0.912872
 20
21.6596
 11
1.60863
 21
21.6596
  0
LINE
  8
0
 10
1.60863
 20
21.6596
 11
1.64622
 21
21.6602
  0
LINE
  8
0
 10
1.27296
 20
21.9379
 11
1.27296
 21
23.1012
  0
LINE
  8
0
 10
1.27296
 20
23.1012
 11
1.52808
 21
23.1012
  0
LINE
  8
0
 10
1.52808
 20
23.1012
 11
1.56847
 21
23.1003
  0
LINE
  8
0
 10
1.56847
 20
23.1003
 11
1.60741
 21
23.0977
  0
LINE
  8
0
 10
1.60741
 20
23.0977
 11
1.64488
 21
23.0934
  0
LINE
  8
0
 10
1.64488
 20
23.0934
 11
1.68091
 21
23.0874
  0
LINE
  8
0
 10
1.68091
 20
23.0874
 11
1.71547
 21
23.0796
  0
LINE
  8
0
 10
1.71547
 20
23.0796
 11
1.74857
 21
23.0701
  0
LINE
  8
0
 10
1.74857
 20
23.0701
 11
1.78021
 21
23.0589
  0
LINE
  8
0
 10
1.78021
 20
23.0589
 11
1.81039
 21
23.0459
  0
LINE
  8
0
 10
1.81039
 20
23.0459
 11
1.83911
 21
23.0313
  0
LINE
  8
0
 10
1.83911
 20
23.0313
 11
1.86638
 21
23.0149
  0
LINE
  8
0
 10
1.86638
 20
23.0149
 11
1.89218
 21
22.9967
  0
LINE
  8
0
 10
1.89218
 20
22.9967
 11
1.91653
 21
22.9769
  0
LINE
  8
0
 10
1.91653
 20
22.9769
 11
1.93942
 21
22.9553
  0
LINE
  8
0
 10
1.93942
 20
22.9553
 11
1.96074
 21
22.9321
  0
LINE
  8
0
 10
1.96074
 20
22.9321
 11
1.98033
 21
22.9073
  0
LINE
  8
0
 10
1.98033
 20
22.9073
 11
1.99823
 21
22.881
  0
LINE
  8
0
 10
1.99823
 20
22.881
 11
2.01442
 21
22.8531
  0
LINE
  8
0
 10
2.01442
 20
22.8531
 11
2.02892
 21
22.8237
  0
LINE
  8
0
 10
2.02892
 20
22.8237
 11
2.0417
 21
22.7927
  0
LINE
  8
0
 10
2.0417
 20
22.7927
 11
2.05278
 21
22.7602
  0
LINE
  8
0
 10
2.05278
 20
22.7602
 11
2.06215
 21
22.7261
  0
LINE
  8
0
 10
2.06215
 20
22.7261
 11
2.06982
 21
22.6904
  0
LINE
  8
0
 10
2.06982
 20
22.6904
 11
2.07579
 21
22.6533
  0
LINE
  8
0
 10
2.07579
 20
22.6533
 11
2.08005
 21
22.6145
  0
LINE
  8
0
 10
2.08005
 20
22.6145
 11
2.08261
 21
22.5742
  0
LINE
  8
0
 10
2.08261
 20
22.5742
 11
2.08347
 21
22.5324
  0
LINE
  8
0
 10
2.08347
 20
22.5324
 11
2.08266
 21
22.4908
  0
LINE
  8
0
 10
2.08266
 20
22.4908
 11
2.08023
 21
22.4506
  0
LINE
  8
0
 10
2.08023
 20
22.4506
 11
2.07619
 21
22.4117
  0
LINE
  8
0
 10
2.07619
 20
22.4117
 11
2.07053
 21
22.3742
  0
LINE
  8
0
 10
2.07053
 20
22.3742
 11
2.06323
 21
22.3381
  0
LINE
  8
0
 10
2.06323
 20
22.3381
 11
2.05434
 21
22.3033
  0
LINE
  8
0
 10
2.05434
 20
22.3033
 11
2.04382
 21
22.2699
  0
LINE
  8
0
 10
2.04382
 20
22.2699
 11
2.03169
 21
22.2378
  0
LINE
  8
0
 10
2.03169
 20
22.2378
 11
2.01794
 21
22.2071
  0
LINE
  8
0
 10
2.01794
 20
22.2071
 11
2.00256
 21
22.1777
  0
LINE
  8
0
 10
2.00256
 20
22.1777
 11
1.98558
 21
22.1497
  0
LINE
  8
0
 10
1.98558
 20
22.1497
 11
1.96698
 21
22.1231
  0
LINE
  8
0
 10
1.96698
 20
22.1231
 11
1.94675
 21
22.0978
  0
LINE
  8
0
 10
1.94675
 20
22.0978
 11
1.92516
 21
22.0742
  0
LINE
  8
0
 10
1.92516
 20
22.0742
 11
1.90244
 21
22.0524
  0
LINE
  8
0
 10
1.90244
 20
22.0524
 11
1.87859
 21
22.0325
  0
LINE
  8
0
 10
1.87859
 20
22.0325
 11
1.85361
 21
22.0146
  0
LINE
  8
0
 10
1.85361
 20
22.0146
 11
1.8275
 21
21.9985
  0
LINE
  8
0
 10
1.8275
 20
21.9985
 11
1.80028
 21
21.9843
  0
LINE
  8
0
 10
1.80028
 20
21.9843
 11
1.77191
 21
21.972
  0
LINE
  8
0
 10
1.77191
 20
21.972
 11
1.74243
 21
21.9616
  0
LINE
  8
0
 10
1.74243
 20
21.9616
 11
1.71182
 21
21.9531
  0
LINE
  8
0
 10
1.71182
 20
21.9531
 11
1.68008
 21
21.9464
  0
LINE
  8
0
 10
1.68008
 20
21.9464
 11
1.64722
 21
21.9417
  0
LINE
  8
0
 10
1.64722
 20
21.9417
 11
1.61324
 21
21.9389
  0
LINE
  8
0
 10
1.61324
 20
21.9389
 11
1.57811
 21
21.9379
  0
LINE
  8
0
 10
1.57811
 20
21.9379
 11
1.27296
 21
21.9379
  0
LINE
  8
0
 10
-3.6535
 20
-23.4038
 11
-3.59149
 21
-23.3997
  0
LINE
  8
0
 10
-3.59149
 20
-23.3997
 11
-3.53185
 21
-23.3931
  0
LINE
  8
0
 10
-3.53185
 20
-23.3931
 11
-3.47455
 21
-23.3837
  0
LINE
  8
0
 10
-3.47455
 20
-23.3837
 11
-3.4196
 21
-23.3716
  0
LINE
  8
0
 10
-3.4196
 20
-23.3716
 11
-3.36702
 21
-23.3569
  0
LINE
  8
0
 10
-3.36702
 20
-23.3569
 11
-3.31677
 21
-23.3395
  0
LINE
  8
0
 10
-3.31677
 20
-23.3395
 11
-3.26891
 21
-23.3194
  0
LINE
  8
0
 10
-3.26891
 20
-23.3194
 11
-3.22337
 21
-23.2966
  0
LINE
  8
0
 10
-3.22337
 20
-23.2966
 11
-3.18021
 21
-23.2711
  0
LINE
  8
0
 10
-3.18021
 20
-23.2711
 11
-3.13939
 21
-23.243
  0
LINE
  8
0
 10
-3.13939
 20
-23.243
 11
-3.10092
 21
-23.2122
  0
LINE
  8
0
 10
-3.10092
 20
-23.2122
 11
-3.06482
 21
-23.1787
  0
LINE
  8
0
 10
-3.06482
 20
-23.1787
 11
-3.03123
 21
-23.1427
  0
LINE
  8
0
 10
-3.03123
 20
-23.1427
 11
-3.00034
 21
-23.1043
  0
LINE
  8
0
 10
-3.00034
 20
-23.1043
 11
-2.97212
 21
-23.0636
  0
LINE
  8
0
 10
-2.97212
 20
-23.0636
 11
-2.94659
 21
-23.0206
  0
LINE
  8
0
 10
-2.94659
 20
-23.0206
 11
-2.92377
 21
-22.9752
  0
LINE
  8
0
 10
-2.92377
 20
-22.9752
 11
-2.90361
 21
-22.9274
  0
LINE
  8
0
 10
-2.90361
 20
-22.9274
 11
-2.88614
 21
-22.8773
  0
LINE
  8
0
 10
-2.88614
 20
-22.8773
 11
-2.87137
 21
-22.8249
  0
LINE
  8
0
 10
-2.87137
 20
-22.8249
 11
-2.85928
 21
-22.7701
  0
LINE
  8
0
 10
-2.85928
 20
-22.7701
 11
-2.84987
 21
-22.713
  0
LINE
  8
0
 10
-2.84987
 20
-22.713
 11
-2.84315
 21
-22.6535
  0
LINE
  8
0
 10
-2.84315
 20
-22.6535
 11
-2.83913
 21
-22.5917
  0
LINE
  8
0
 10
-2.83913
 20
-22.5917
 11
-2.83778
 21
-22.5275
  0
LINE
  8
0
 10
-2.83778
 20
-22.5275
 11
-2.83911
 21
-22.4629
  0
LINE
  8
0
 10
-2.83911
 20
-22.4629
 11
-2.84312
 21
-22.4007
  0
LINE
  8
0
 10
-2.84312
 20
-22.4007
 11
-2.84981
 21
-22.3407
  0
LINE
  8
0
 10
-2.84981
 20
-22.3407
 11
-2.85916
 21
-22.283
  0
LINE
  8
0
 10
-2.85916
 20
-22.283
 11
-2.87119
 21
-22.2277
  0
LINE
  8
0
 10
-2.87119
 20
-22.2277
 11
-2.88588
 21
-22.1746
  0
LINE
  8
0
 10
-2.88588
 20
-22.1746
 11
-2.90326
 21
-22.1239
  0
LINE
  8
0
 10
-2.90326
 20
-22.1239
 11
-2.92329
 21
-22.0754
  0
LINE
  8
0
 10
-2.92329
 20
-22.0754
 11
-2.94601
 21
-22.0293
  0
LINE
  8
0
 10
-2.94601
 20
-22.0293
 11
-2.97141
 21
-21.9854
  0
LINE
  8
0
 10
-2.97141
 20
-21.9854
 11
-2.99945
 21
-21.9439
  0
LINE
  8
0
 10
-2.99945
 20
-21.9439
 11
-3.03018
 21
-21.9047
  0
LINE
  8
0
 10
-3.03018
 20
-21.9047
 11
-3.0636
 21
-21.8678
  0
LINE
  8
0
 10
-3.0636
 20
-21.8678
 11
-3.09949
 21
-21.8334
  0
LINE
  8
0
 10
-3.09949
 20
-21.8334
 11
-3.13766
 21
-21.8017
  0
LINE
  8
0
 10
-3.13766
 20
-21.8017
 11
-3.17816
 21
-21.7728
  0
LINE
  8
0
 10
-3.17816
 20
-21.7728
 11
-3.22093
 21
-21.7467
  0
LINE
  8
0
 10
-3.22093
 20
-21.7467
 11
-3.26601
 21
-21.7233
  0
LINE
  8
0
 10
-3.26601
 20
-21.7233
 11
-3.31339
 21
-21.7026
  0
LINE
  8
0
 10
-3.31339
 20
-21.7026
 11
-3.36305
 21
-21.6848
  0
LINE
  8
0
 10
-3.36305
 20
-21.6848
 11
-3.41502
 21
-21.6696
  0
LINE
  8
0
 10
-3.41502
 20
-21.6696
 11
-3.46928
 21
-21.6572
  0
LINE
  8
0
 10
-3.46928
 20
-21.6572
 11
-3.52585
 21
-21.6476
  0
LINE
  8
0
 10
-3.52585
 20
-21.6476
 11
-3.5847
 21
-21.6407
  0
LINE
  8
0
 10
-3.5847
 20
-21.6407
 11
-3.64586
 21
-21.6366
  0
LINE
  8
0
 10
-3.64586
 20
-21.6366
 11
-3.7093
 21
-21.6352
  0
LINE
  8
0
 10
-3.7093
 20
-21.6352
 11
-3.74617
 21
-21.6357
  0
LINE
  8
0
 10
-3.74617
 20
-21.6357
 11
-3.78279
 21
-21.6371
  0
LINE
  8
0
 10
-3.78279
 20
-21.6371
 11
-3.81915
 21
-21.6395
  0
LINE
  8
0
 10
-3.81915
 20
-21.6395
 11
-3.85526
 21
-21.6427
  0
LINE
  8
0
 10
-3.85526
 20
-21.6427
 11
-3.89111
 21
-21.647
  0
LINE
  8
0
 10
-3.89111
 20
-21.647
 11
-3.92673
 21
-21.6521
  0
LINE
  8
0
 10
-3.92673
 20
-21.6521
 11
-3.96207
 21
-21.6582
  0
LINE
  8
0
 10
-3.96207
 20
-21.6582
 11
-3.99716
 21
-21.6653
  0
LINE
  8
0
 10
-3.99716
 20
-21.6653
 11
-4.03201
 21
-21.6732
  0
LINE
  8
0
 10
-4.03201
 20
-21.6732
 11
-4.0666
 21
-21.6822
  0
LINE
  8
0
 10
-4.0666
 20
-21.6822
 11
-4.10094
 21
-21.692
  0
LINE
  8
0
 10
-4.10094
 20
-21.692
 11
-4.13503
 21
-21.7028
  0
LINE
  8
0
 10
-4.13503
 20
-21.7028
 11
-4.16887
 21
-21.7146
  0
LINE
  8
0
 10
-4.16887
 20
-21.7146
 11
-4.20209
 21
-21.7271
  0
LINE
  8
0
 10
-4.20209
 20
-21.7271
 11
-4.23433
 21
-21.7404
  0
LINE
  8
0
 10
-4.23433
 20
-21.7404
 11
-4.26561
 21
-21.7544
  0
LINE
  8
0
 10
-4.26561
 20
-21.7544
 11
-4.2959
 21
-21.7691
  0
LINE
  8
0
 10
-4.2959
 20
-21.7691
 11
-4.32523
 21
-21.7846
  0
LINE
  8
0
 10
-4.32523
 20
-21.7846
 11
-4.35358
 21
-21.8008
  0
LINE
  8
0
 10
-4.35358
 20
-21.8008
 11
-4.38094
 21
-21.8177
  0
LINE
  8
0
 10
-4.38094
 20
-21.8177
 11
-4.40733
 21
-21.8353
  0
LINE
  8
0
 10
-4.40733
 20
-21.8353
 11
-4.43275
 21
-21.8537
  0
LINE
  8
0
 10
-4.43275
 20
-21.8537
 11
-4.4572
 21
-21.8727
  0
LINE
  8
0
 10
-4.4572
 20
-21.8727
 11
-4.48067
 21
-21.8925
  0
LINE
  8
0
 10
-4.48067
 20
-21.8925
 11
-4.50317
 21
-21.913
  0
LINE
  8
0
 10
-4.50317
 20
-21.913
 11
-4.52469
 21
-21.9343
  0
LINE
  8
0
 10
-4.52469
 20
-21.9343
 11
-4.52469
 21
-22.5665
  0
LINE
  8
0
 10
-4.52469
 20
-22.5665
 11
-3.77522
 21
-22.5665
  0
LINE
  8
0
 10
-3.77522
 20
-22.5665
 11
-3.77522
 21
-22.3005
  0
LINE
  8
0
 10
-3.77522
 20
-22.3005
 11
-4.19513
 21
-22.3005
  0
LINE
  8
0
 10
-4.19513
 20
-22.3005
 11
-4.19513
 21
-22.0624
  0
LINE
  8
0
 10
-4.19513
 20
-22.0624
 11
-4.18369
 21
-22.0528
  0
LINE
  8
0
 10
-4.18369
 20
-22.0528
 11
-4.17155
 21
-22.0434
  0
LINE
  8
0
 10
-4.17155
 20
-22.0434
 11
-4.15871
 21
-22.0343
  0
LINE
  8
0
 10
-4.15871
 20
-22.0343
 11
-4.14514
 21
-22.0255
  0
LINE
  8
0
 10
-4.14514
 20
-22.0255
 11
-4.13087
 21
-22.017
  0
LINE
  8
0
 10
-4.13087
 20
-22.017
 11
-4.11591
 21
-22.0087
  0
LINE
  8
0
 10
-4.11591
 20
-22.0087
 11
-4.10022
 21
-22.0006
  0
LINE
  8
0
 10
-4.10022
 20
-22.0006
 11
-4.08383
 21
-21.9929
  0
LINE
  8
0
 10
-4.08383
 20
-21.9929
 11
-4.06674
 21
-21.9854
  0
LINE
  8
0
 10
-4.06674
 20
-21.9854
 11
-4.04893
 21
-21.9781
  0
LINE
  8
0
 10
-4.04893
 20
-21.9781
 11
-4.03043
 21
-21.9712
  0
LINE
  8
0
 10
-4.03043
 20
-21.9712
 11
-4.0112
 21
-21.9645
  0
LINE
  8
0
 10
-4.0112
 20
-21.9645
 11
-3.99127
 21
-21.9581
  0
LINE
  8
0
 10
-3.99127
 20
-21.9581
 11
-3.97095
 21
-21.952
  0
LINE
  8
0
 10
-3.97095
 20
-21.952
 11
-3.95052
 21
-21.9465
  0
LINE
  8
0
 10
-3.95052
 20
-21.9465
 11
-3.92998
 21
-21.9414
  0
LINE
  8
0
 10
-3.92998
 20
-21.9414
 11
-3.90935
 21
-21.9368
  0
LINE
  8
0
 10
-3.90935
 20
-21.9368
 11
-3.88861
 21
-21.9327
  0
LINE
  8
0
 10
-3.88861
 20
-21.9327
 11
-3.86777
 21
-21.929
  0
LINE
  8
0
 10
-3.86777
 20
-21.929
 11
-3.84683
 21
-21.9259
  0
LINE
  8
0
 10
-3.84683
 20
-21.9259
 11
-3.82579
 21
-21.9232
  0
LINE
  8
0
 10
-3.82579
 20
-21.9232
 11
-3.80466
 21
-21.9211
  0
LINE
  8
0
 10
-3.80466
 20
-21.9211
 11
-3.7834
 21
-21.9194
  0
LINE
  8
0
 10
-3.7834
 20
-21.9194
 11
-3.76207
 21
-21.9182
  0
LINE
  8
0
 10
-3.76207
 20
-21.9182
 11
-3.74063
 21
-21.9174
  0
LINE
  8
0
 10
-3.74063
 20
-21.9174
 11
-3.71909
 21
-21.9172
  0
LINE
  8
0
 10
-3.71909
 20
-21.9172
 11
-3.68179
 21
-21.9181
  0
LINE
  8
0
 10
-3.68179
 20
-21.9181
 11
-3.64583
 21
-21.9209
  0
LINE
  8
0
 10
-3.64583
 20
-21.9209
 11
-3.61116
 21
-21.9257
  0
LINE
  8
0
 10
-3.61116
 20
-21.9257
 11
-3.5778
 21
-21.9323
  0
LINE
  8
0
 10
-3.5778
 20
-21.9323
 11
-3.54576
 21
-21.9407
  0
LINE
  8
0
 10
-3.54576
 20
-21.9407
 11
-3.51501
 21
-21.9511
  0
LINE
  8
0
 10
-3.51501
 20
-21.9511
 11
-3.48558
 21
-21.9634
  0
LINE
  8
0
 10
-3.48558
 20
-21.9634
 11
-3.45744
 21
-21.9775
  0
LINE
  8
0
 10
-3.45744
 20
-21.9775
 11
-3.43063
 21
-21.9935
  0
LINE
  8
0
 10
-3.43063
 20
-21.9935
 11
-3.40512
 21
-22.0114
  0
LINE
  8
0
 10
-3.40512
 20
-22.0114
 11
-3.38091
 21
-22.0312
  0
LINE
  8
0
 10
-3.38091
 20
-22.0312
 11
-3.35802
 21
-22.0529
  0
LINE
  8
0
 10
-3.35802
 20
-22.0529
 11
-3.33641
 21
-22.0765
  0
LINE
  8
0
 10
-3.33641
 20
-22.0765
 11
-3.31628
 21
-22.1018
  0
LINE
  8
0
 10
-3.31628
 20
-22.1018
 11
-3.29776
 21
-22.1286
  0
LINE
  8
0
 10
-3.29776
 20
-22.1286
 11
-3.28085
 21
-22.1571
  0
LINE
  8
0
 10
-3.28085
 20
-22.1571
 11
-3.26555
 21
-22.187
  0
LINE
  8
0
 10
-3.26555
 20
-22.187
 11
-3.25186
 21
-22.2186
  0
LINE
  8
0
 10
-3.25186
 20
-22.2186
 11
-3.23978
 21
-22.2517
  0
LINE
  8
0
 10
-3.23978
 20
-22.2517
 11
-3.22931
 21
-22.2864
  0
LINE
  8
0
 10
-3.22931
 20
-22.2864
 11
-3.22046
 21
-22.3227
  0
LINE
  8
0
 10
-3.22046
 20
-22.3227
 11
-3.21321
 21
-22.3605
  0
LINE
  8
0
 10
-3.21321
 20
-22.3605
 11
-3.20757
 21
-22.3999
  0
LINE
  8
0
 10
-3.20757
 20
-22.3999
 11
-3.20354
 21
-22.4409
  0
LINE
  8
0
 10
-3.20354
 20
-22.4409
 11
-3.20113
 21
-22.4834
  0
LINE
  8
0
 10
-3.20113
 20
-22.4834
 11
-3.20032
 21
-22.5275
  0
LINE
  8
0
 10
-3.20032
 20
-22.5275
 11
-3.2011
 21
-22.5708
  0
LINE
  8
0
 10
-3.2011
 20
-22.5708
 11
-3.20345
 21
-22.6126
  0
LINE
  8
0
 10
-3.20345
 20
-22.6126
 11
-3.20734
 21
-22.6528
  0
LINE
  8
0
 10
-3.20734
 20
-22.6528
 11
-3.2128
 21
-22.6914
  0
LINE
  8
0
 10
-3.2128
 20
-22.6914
 11
-3.21982
 21
-22.7285
  0
LINE
  8
0
 10
-3.21982
 20
-22.7285
 11
-3.22839
 21
-22.7639
  0
LINE
  8
0
 10
-3.22839
 20
-22.7639
 11
-3.23854
 21
-22.7978
  0
LINE
  8
0
 10
-3.23854
 20
-22.7978
 11
-3.25024
 21
-22.8301
  0
LINE
  8
0
 10
-3.25024
 20
-22.8301
 11
-3.2635
 21
-22.8609
  0
LINE
  8
0
 10
-3.2635
 20
-22.8609
 11
-3.27832
 21
-22.8901
  0
LINE
  8
0
 10
-3.27832
 20
-22.8901
 11
-3.29469
 21
-22.9177
  0
LINE
  8
0
 10
-3.29469
 20
-22.9177
 11
-3.31264
 21
-22.9437
  0
LINE
  8
0
 10
-3.31264
 20
-22.9437
 11
-3.33214
 21
-22.9681
  0
LINE
  8
0
 10
-3.33214
 20
-22.9681
 11
-3.35313
 21
-22.9909
  0
LINE
  8
0
 10
-3.35313
 20
-22.9909
 11
-3.37558
 21
-23.0118
  0
LINE
  8
0
 10
-3.37558
 20
-23.0118
 11
-3.39948
 21
-23.0309
  0
LINE
  8
0
 10
-3.39948
 20
-23.0309
 11
-3.42482
 21
-23.0482
  0
LINE
  8
0
 10
-3.42482
 20
-23.0482
 11
-3.4516
 21
-23.0637
  0
LINE
  8
0
 10
-3.4516
 20
-23.0637
 11
-3.47983
 21
-23.0773
  0
LINE
  8
0
 10
-3.47983
 20
-23.0773
 11
-3.50949
 21
-23.0892
  0
LINE
  8
0
 10
-3.50949
 20
-23.0892
 11
-3.54062
 21
-23.0992
  0
LINE
  8
0
 10
-3.54062
 20
-23.0992
 11
-3.57317
 21
-23.1074
  0
LINE
  8
0
 10
-3.57317
 20
-23.1074
 11
-3.60718
 21
-23.1137
  0
LINE
  8
0
 10
-3.60718
 20
-23.1137
 11
-3.64262
 21
-23.1183
  0
LINE
  8
0
 10
-3.64262
 20
-23.1183
 11
-3.67952
 21
-23.121
  0
LINE
  8
0
 10
-3.67952
 20
-23.121
 11
-3.71785
 21
-23.1219
  0
LINE
  8
0
 10
-3.71785
 20
-23.1219
 11
-3.74147
 21
-23.1215
  0
LINE
  8
0
 10
-3.74147
 20
-23.1215
 11
-3.7646
 21
-23.1203
  0
LINE
  8
0
 10
-3.7646
 20
-23.1203
 11
-3.78726
 21
-23.1183
  0
LINE
  8
0
 10
-3.78726
 20
-23.1183
 11
-3.80943
 21
-23.1156
  0
LINE
  8
0
 10
-3.80943
 20
-23.1156
 11
-3.83115
 21
-23.112
  0
LINE
  8
0
 10
-3.83115
 20
-23.112
 11
-3.85237
 21
-23.1076
  0
LINE
  8
0
 10
-3.85237
 20
-23.1076
 11
-3.87312
 21
-23.1024
  0
LINE
  8
0
 10
-3.87312
 20
-23.1024
 11
-3.89339
 21
-23.0965
  0
LINE
  8
0
 10
-3.89339
 20
-23.0965
 11
-3.91319
 21
-23.0897
  0
LINE
  8
0
 10
-3.91319
 20
-23.0897
 11
-3.93251
 21
-23.0822
  0
LINE
  8
0
 10
-3.93251
 20
-23.0822
 11
-3.95135
 21
-23.0739
  0
LINE
  8
0
 10
-3.95135
 20
-23.0739
 11
-3.96971
 21
-23.0647
  0
LINE
  8
0
 10
-3.96971
 20
-23.0647
 11
-3.98761
 21
-23.0548
  0
LINE
  8
0
 10
-3.98761
 20
-23.0548
 11
-4.0049
 21
-23.0441
  0
LINE
  8
0
 10
-4.0049
 20
-23.0441
 11
-4.02147
 21
-23.0326
  0
LINE
  8
0
 10
-4.02147
 20
-23.0326
 11
-4.03731
 21
-23.0204
  0
LINE
  8
0
 10
-4.03731
 20
-23.0204
 11
-4.05244
 21
-23.0075
  0
LINE
  8
0
 10
-4.05244
 20
-23.0075
 11
-4.06685
 21
-22.9938
  0
LINE
  8
0
 10
-4.06685
 20
-22.9938
 11
-4.08052
 21
-22.9793
  0
LINE
  8
0
 10
-4.08052
 20
-22.9793
 11
-4.09349
 21
-22.9641
  0
LINE
  8
0
 10
-4.09349
 20
-22.9641
 11
-4.10571
 21
-22.9481
  0
LINE
  8
0
 10
-4.10571
 20
-22.9481
 11
-4.11723
 21
-22.9314
  0
LINE
  8
0
 10
-4.11723
 20
-22.9314
 11
-4.12802
 21
-22.914
  0
LINE
  8
0
 10
-4.12802
 20
-22.914
 11
-4.13809
 21
-22.8957
  0
LINE
  8
0
 10
-4.13809
 20
-22.8957
 11
-4.14745
 21
-22.8768
  0
LINE
  8
0
 10
-4.14745
 20
-22.8768
 11
-4.15607
 21
-22.8571
  0
LINE
  8
0
 10
-4.15607
 20
-22.8571
 11
-4.48808
 21
-22.9572
  0
LINE
  8
0
 10
-4.48808
 20
-22.9572
 11
-4.46011
 21
-23.0234
  0
LINE
  8
0
 10
-4.46011
 20
-23.0234
 11
-4.42694
 21
-23.0844
  0
LINE
  8
0
 10
-4.42694
 20
-23.0844
 11
-4.38855
 21
-23.14
  0
LINE
  8
0
 10
-4.38855
 20
-23.14
 11
-4.34496
 21
-23.1904
  0
LINE
  8
0
 10
-4.34496
 20
-23.1904
 11
-4.29613
 21
-23.2355
  0
LINE
  8
0
 10
-4.29613
 20
-23.2355
 11
-4.2421
 21
-23.2752
  0
LINE
  8
0
 10
-4.2421
 20
-23.2752
 11
-4.18285
 21
-23.3097
  0
LINE
  8
0
 10
-4.18285
 20
-23.3097
 11
-4.11839
 21
-23.3389
  0
LINE
  8
0
 10
-4.11839
 20
-23.3389
 11
-4.04871
 21
-23.3627
  0
LINE
  8
0
 10
-4.04871
 20
-23.3627
 11
-3.97382
 21
-23.3813
  0
LINE
  8
0
 10
-3.97382
 20
-23.3813
 11
-3.89371
 21
-23.3945
  0
LINE
  8
0
 10
-3.89371
 20
-23.3945
 11
-3.8084
 21
-23.4025
  0
LINE
  8
0
 10
-3.8084
 20
-23.4025
 11
-3.71785
 21
-23.4051
  0
LINE
  8
0
 10
-3.71785
 20
-23.4051
 11
-3.6535
 21
-23.4038
  0
LINE
  8
0
 10
-6.67549
 20
-23.4037
 11
-6.63069
 21
-23.3996
  0
LINE
  8
0
 10
-6.63069
 20
-23.3996
 11
-6.58759
 21
-23.3927
  0
LINE
  8
0
 10
-6.58759
 20
-23.3927
 11
-6.54614
 21
-23.3831
  0
LINE
  8
0
 10
-6.54614
 20
-23.3831
 11
-6.50639
 21
-23.3707
  0
LINE
  8
0
 10
-6.50639
 20
-23.3707
 11
-6.46832
 21
-23.3556
  0
LINE
  8
0
 10
-6.46832
 20
-23.3556
 11
-6.43195
 21
-23.3377
  0
LINE
  8
0
 10
-6.43195
 20
-23.3377
 11
-6.39725
 21
-23.317
  0
LINE
  8
0
 10
-6.39725
 20
-23.317
 11
-6.36423
 21
-23.2937
  0
LINE
  8
0
 10
-6.36423
 20
-23.2937
 11
-6.33289
 21
-23.2675
  0
LINE
  8
0
 10
-6.33289
 20
-23.2675
 11
-6.30324
 21
-23.2386
  0
LINE
  8
0
 10
-6.30324
 20
-23.2386
 11
-6.27527
 21
-23.207
  0
LINE
  8
0
 10
-6.27527
 20
-23.207
 11
-6.24898
 21
-23.1726
  0
LINE
  8
0
 10
-6.24898
 20
-23.1726
 11
-6.2245
 21
-23.1355
  0
LINE
  8
0
 10
-6.2245
 20
-23.1355
 11
-6.202
 21
-23.0956
  0
LINE
  8
0
 10
-6.202
 20
-23.0956
 11
-6.18144
 21
-23.0531
  0
LINE
  8
0
 10
-6.18144
 20
-23.0531
 11
-6.16286
 21
-23.0079
  0
LINE
  8
0
 10
-6.16286
 20
-23.0079
 11
-6.14622
 21
-22.96
  0
LINE
  8
0
 10
-6.14622
 20
-22.96
 11
-6.13155
 21
-22.9094
  0
LINE
  8
0
 10
-6.13155
 20
-22.9094
 11
-6.11882
 21
-22.8562
  0
LINE
  8
0
 10
-6.11882
 20
-22.8562
 11
-6.10805
 21
-22.8002
  0
LINE
  8
0
 10
-6.10805
 20
-22.8002
 11
-6.09924
 21
-22.7415
  0
LINE
  8
0
 10
-6.09924
 20
-22.7415
 11
-6.09239
 21
-22.6801
  0
LINE
  8
0
 10
-6.09239
 20
-22.6801
 11
-6.08751
 21
-22.6161
  0
LINE
  8
0
 10
-6.08751
 20
-22.6161
 11
-6.08456
 21
-22.5493
  0
LINE
  8
0
 10
-6.08456
 20
-22.5493
 11
-6.08359
 21
-22.4799
  0
LINE
  8
0
 10
-6.08359
 20
-22.4799
 11
-6.08455
 21
-22.4167
  0
LINE
  8
0
 10
-6.08455
 20
-22.4167
 11
-6.08745
 21
-22.3559
  0
LINE
  8
0
 10
-6.08745
 20
-22.3559
 11
-6.09227
 21
-22.2976
  0
LINE
  8
0
 10
-6.09227
 20
-22.2976
 11
-6.09901
 21
-22.2417
  0
LINE
  8
0
 10
-6.09901
 20
-22.2417
 11
-6.1077
 21
-22.1883
  0
LINE
  8
0
 10
-6.1077
 20
-22.1883
 11
-6.1183
 21
-22.1372
  0
LINE
  8
0
 10
-6.1183
 20
-22.1372
 11
-6.13083
 21
-22.0886
  0
LINE
  8
0
 10
-6.13083
 20
-22.0886
 11
-6.14529
 21
-22.0425
  0
LINE
  8
0
 10
-6.14529
 20
-22.0425
 11
-6.1617
 21
-21.9988
  0
LINE
  8
0
 10
-6.1617
 20
-21.9988
 11
-6.18001
 21
-21.9575
  0
LINE
  8
0
 10
-6.18001
 20
-21.9575
 11
-6.20026
 21
-21.9186
  0
LINE
  8
0
 10
-6.20026
 20
-21.9186
 11
-6.22244
 21
-21.8822
  0
LINE
  8
0
 10
-6.22244
 20
-21.8822
 11
-6.24654
 21
-21.8482
  0
LINE
  8
0
 10
-6.24654
 20
-21.8482
 11
-6.27245
 21
-21.8167
  0
LINE
  8
0
 10
-6.27245
 20
-21.8167
 11
-6.30002
 21
-21.7877
  0
LINE
  8
0
 10
-6.30002
 20
-21.7877
 11
-6.32925
 21
-21.7613
  0
LINE
  8
0
 10
-6.32925
 20
-21.7613
 11
-6.36017
 21
-21.7373
  0
LINE
  8
0
 10
-6.36017
 20
-21.7373
 11
-6.39275
 21
-21.7159
  0
LINE
  8
0
 10
-6.39275
 20
-21.7159
 11
-6.42699
 21
-21.697
  0
LINE
  8
0
 10
-6.42699
 20
-21.697
 11
-6.46291
 21
-21.6806
  0
LINE
  8
0
 10
-6.46291
 20
-21.6806
 11
-6.50049
 21
-21.6667
  0
LINE
  8
0
 10
-6.50049
 20
-21.6667
 11
-6.53973
 21
-21.6554
  0
LINE
  8
0
 10
-6.53973
 20
-21.6554
 11
-6.58066
 21
-21.6466
  0
LINE
  8
0
 10
-6.58066
 20
-21.6466
 11
-6.62325
 21
-21.6403
  0
LINE
  8
0
 10
-6.62325
 20
-21.6403
 11
-6.6675
 21
-21.6365
  0
LINE
  8
0
 10
-6.6675
 20
-21.6365
 11
-6.71342
 21
-21.6352
  0
LINE
  8
0
 10
-6.71342
 20
-21.6352
 11
-6.75443
 21
-21.6362
  0
LINE
  8
0
 10
-6.75443
 20
-21.6362
 11
-6.79404
 21
-21.6389
  0
LINE
  8
0
 10
-6.79404
 20
-21.6389
 11
-6.83226
 21
-21.6435
  0
LINE
  8
0
 10
-6.83226
 20
-21.6435
 11
-6.86909
 21
-21.65
  0
LINE
  8
0
 10
-6.86909
 20
-21.65
 11
-6.90454
 21
-21.6583
  0
LINE
  8
0
 10
-6.90454
 20
-21.6583
 11
-6.93861
 21
-21.6685
  0
LINE
  8
0
 10
-6.93861
 20
-21.6685
 11
-6.97128
 21
-21.6805
  0
LINE
  8
0
 10
-6.97128
 20
-21.6805
 11
-7.00256
 21
-21.6944
  0
LINE
  8
0
 10
-7.00256
 20
-21.6944
 11
-7.03247
 21
-21.7101
  0
LINE
  8
0
 10
-7.03247
 20
-21.7101
 11
-7.06099
 21
-21.7277
  0
LINE
  8
0
 10
-7.06099
 20
-21.7277
 11
-7.08812
 21
-21.7471
  0
LINE
  8
0
 10
-7.08812
 20
-21.7471
 11
-7.11386
 21
-21.7684
  0
LINE
  8
0
 10
-7.11386
 20
-21.7684
 11
-7.13821
 21
-21.7915
  0
LINE
  8
0
 10
-7.13821
 20
-21.7915
 11
-7.16096
 21
-21.8162
  0
LINE
  8
0
 10
-7.16096
 20
-21.8162
 11
-7.18188
 21
-21.8423
  0
LINE
  8
0
 10
-7.18188
 20
-21.8423
 11
-7.201
 21
-21.8699
  0
LINE
  8
0
 10
-7.201
 20
-21.8699
 11
-7.21829
 21
-21.8988
  0
LINE
  8
0
 10
-7.21829
 20
-21.8988
 11
-7.23376
 21
-21.9292
  0
LINE
  8
0
 10
-7.23376
 20
-21.9292
 11
-7.24741
 21
-21.9609
  0
LINE
  8
0
 10
-7.24741
 20
-21.9609
 11
-7.25925
 21
-21.994
  0
LINE
  8
0
 10
-7.25925
 20
-21.994
 11
-7.26926
 21
-22.0286
  0
LINE
  8
0
 10
-7.26926
 20
-22.0286
 11
-7.27744
 21
-22.0645
  0
LINE
  8
0
 10
-7.27744
 20
-22.0645
 11
-7.28381
 21
-22.1019
  0
LINE
  8
0
 10
-7.28381
 20
-22.1019
 11
-7.28836
 21
-22.1406
  0
LINE
  8
0
 10
-7.28836
 20
-22.1406
 11
-7.29109
 21
-22.1808
  0
LINE
  8
0
 10
-7.29109
 20
-22.1808
 11
-7.29201
 21
-22.2224
  0
LINE
  8
0
 10
-7.29201
 20
-22.2224
 11
-7.29121
 21
-22.2604
  0
LINE
  8
0
 10
-7.29121
 20
-22.2604
 11
-7.28882
 21
-22.2972
  0
LINE
  8
0
 10
-7.28882
 20
-22.2972
 11
-7.28485
 21
-22.3328
  0
LINE
  8
0
 10
-7.28485
 20
-22.3328
 11
-7.2793
 21
-22.3671
  0
LINE
  8
0
 10
-7.2793
 20
-22.3671
 11
-7.27214
 21
-22.4002
  0
LINE
  8
0
 10
-7.27214
 20
-22.4002
 11
-7.2634
 21
-22.4321
  0
LINE
  8
0
 10
-7.2634
 20
-22.4321
 11
-7.25307
 21
-22.4627
  0
LINE
  8
0
 10
-7.25307
 20
-22.4627
 11
-7.24115
 21
-22.4921
  0
LINE
  8
0
 10
-7.24115
 20
-22.4921
 11
-7.22765
 21
-22.5202
  0
LINE
  8
0
 10
-7.22765
 20
-22.5202
 11
-7.21255
 21
-22.5471
  0
LINE
  8
0
 10
-7.21255
 20
-22.5471
 11
-7.19588
 21
-22.5727
  0
LINE
  8
0
 10
-7.19588
 20
-22.5727
 11
-7.1776
 21
-22.5971
  0
LINE
  8
0
 10
-7.1776
 20
-22.5971
 11
-7.15775
 21
-22.6202
  0
LINE
  8
0
 10
-7.15775
 20
-22.6202
 11
-7.13652
 21
-22.6419
  0
LINE
  8
0
 10
-7.13652
 20
-22.6419
 11
-7.11415
 21
-22.6618
  0
LINE
  8
0
 10
-7.11415
 20
-22.6618
 11
-7.09064
 21
-22.6801
  0
LINE
  8
0
 10
-7.09064
 20
-22.6801
 11
-7.06598
 21
-22.6965
  0
LINE
  8
0
 10
-7.06598
 20
-22.6965
 11
-7.04019
 21
-22.7113
  0
LINE
  8
0
 10
-7.04019
 20
-22.7113
 11
-7.01326
 21
-22.7243
  0
LINE
  8
0
 10
-7.01326
 20
-22.7243
 11
-6.98518
 21
-22.7355
  0
LINE
  8
0
 10
-6.98518
 20
-22.7355
 11
-6.95596
 21
-22.7451
  0
LINE
  8
0
 10
-6.95596
 20
-22.7451
 11
-6.92561
 21
-22.7529
  0
LINE
  8
0
 10
-6.92561
 20
-22.7529
 11
-6.89412
 21
-22.7589
  0
LINE
  8
0
 10
-6.89412
 20
-22.7589
 11
-6.86148
 21
-22.7633
  0
LINE
  8
0
 10
-6.86148
 20
-22.7633
 11
-6.8277
 21
-22.7659
  0
LINE
  8
0
 10
-6.8277
 20
-22.7659
 11
-6.79277
 21
-22.7667
  0
LINE
  8
0
 10
-6.79277
 20
-22.7667
 11
-6.77396
 21
-22.7664
  0
LINE
  8
0
 10
-6.77396
 20
-22.7664
 11
-6.75545
 21
-22.7656
  0
LINE
  8
0
 10
-6.75545
 20
-22.7656
 11
-6.73724
 21
-22.7641
  0
LINE
  8
0
 10
-6.73724
 20
-22.7641
 11
-6.71933
 21
-22.7621
  0
LINE
  8
0
 10
-6.71933
 20
-22.7621
 11
-6.70174
 21
-22.7595
  0
LINE
  8
0
 10
-6.70174
 20
-22.7595
 11
-6.68443
 21
-22.7563
  0
LINE
  8
0
 10
-6.68443
 20
-22.7563
 11
-6.66743
 21
-22.7526
  0
LINE
  8
0
 10
-6.66743
 20
-22.7526
 11
-6.65074
 21
-22.7482
  0
LINE
  8
0
 10
-6.65074
 20
-22.7482
 11
-6.63435
 21
-22.7433
  0
LINE
  8
0
 10
-6.63435
 20
-22.7433
 11
-6.61827
 21
-22.7378
  0
LINE
  8
0
 10
-6.61827
 20
-22.7378
 11
-6.60249
 21
-22.7318
  0
LINE
  8
0
 10
-6.60249
 20
-22.7318
 11
-6.58702
 21
-22.7251
  0
LINE
  8
0
 10
-6.58702
 20
-22.7251
 11
-6.57184
 21
-22.7179
  0
LINE
  8
0
 10
-6.57184
 20
-22.7179
 11
-6.55707
 21
-22.7101
  0
LINE
  8
0
 10
-6.55707
 20
-22.7101
 11
-6.5428
 21
-22.7019
  0
LINE
  8
0
 10
-6.5428
 20
-22.7019
 11
-6.52904
 21
-22.6931
  0
LINE
  8
0
 10
-6.52904
 20
-22.6931
 11
-6.51579
 21
-22.6838
  0
LINE
  8
0
 10
-6.51579
 20
-22.6838
 11
-6.50304
 21
-22.674
  0
LINE
  8
0
 10
-6.50304
 20
-22.674
 11
-6.4908
 21
-22.6637
  0
LINE
  8
0
 10
-6.4908
 20
-22.6637
 11
-6.47906
 21
-22.6529
  0
LINE
  8
0
 10
-6.47906
 20
-22.6529
 11
-6.46783
 21
-22.6416
  0
LINE
  8
0
 10
-6.46783
 20
-22.6416
 11
-6.45711
 21
-22.6298
  0
LINE
  8
0
 10
-6.45711
 20
-22.6298
 11
-6.44688
 21
-22.6175
  0
LINE
  8
0
 10
-6.44688
 20
-22.6175
 11
-6.43716
 21
-22.6047
  0
LINE
  8
0
 10
-6.43716
 20
-22.6047
 11
-6.42796
 21
-22.5914
  0
LINE
  8
0
 10
-6.42796
 20
-22.5914
 11
-6.41925
 21
-22.5775
  0
LINE
  8
0
 10
-6.41925
 20
-22.5775
 11
-6.41972
 21
-22.6199
  0
LINE
  8
0
 10
-6.41972
 20
-22.6199
 11
-6.42111
 21
-22.6605
  0
LINE
  8
0
 10
-6.42111
 20
-22.6605
 11
-6.42345
 21
-22.6995
  0
LINE
  8
0
 10
-6.42345
 20
-22.6995
 11
-6.42671
 21
-22.7368
  0
LINE
  8
0
 10
-6.42671
 20
-22.7368
 11
-6.43089
 21
-22.7724
  0
LINE
  8
0
 10
-6.43089
 20
-22.7724
 11
-6.43602
 21
-22.8063
  0
LINE
  8
0
 10
-6.43602
 20
-22.8063
 11
-6.44208
 21
-22.8385
  0
LINE
  8
0
 10
-6.44208
 20
-22.8385
 11
-6.44907
 21
-22.869
  0
LINE
  8
0
 10
-6.44907
 20
-22.869
 11
-6.45699
 21
-22.8978
  0
LINE
  8
0
 10
-6.45699
 20
-22.8978
 11
-6.46584
 21
-22.9249
  0
LINE
  8
0
 10
-6.46584
 20
-22.9249
 11
-6.47562
 21
-22.9504
  0
LINE
  8
0
 10
-6.47562
 20
-22.9504
 11
-6.48634
 21
-22.9741
  0
LINE
  8
0
 10
-6.48634
 20
-22.9741
 11
-6.49799
 21
-22.9962
  0
LINE
  8
0
 10
-6.49799
 20
-22.9962
 11
-6.51045
 21
-23.0166
  0
LINE
  8
0
 10
-6.51045
 20
-23.0166
 11
-6.52361
 21
-23.0354
  0
LINE
  8
0
 10
-6.52361
 20
-23.0354
 11
-6.53748
 21
-23.0525
  0
LINE
  8
0
 10
-6.53748
 20
-23.0525
 11
-6.55205
 21
-23.068
  0
LINE
  8
0
 10
-6.55205
 20
-23.068
 11
-6.56731
 21
-23.0819
  0
LINE
  8
0
 10
-6.56731
 20
-23.0819
 11
-6.58327
 21
-23.0941
  0
LINE
  8
0
 10
-6.58327
 20
-23.0941
 11
-6.59995
 21
-23.1048
  0
LINE
  8
0
 10
-6.59995
 20
-23.1048
 11
-6.61731
 21
-23.1137
  0
LINE
  8
0
 10
-6.61731
 20
-23.1137
 11
-6.63538
 21
-23.1211
  0
LINE
  8
0
 10
-6.63538
 20
-23.1211
 11
-6.65414
 21
-23.1268
  0
LINE
  8
0
 10
-6.65414
 20
-23.1268
 11
-6.67361
 21
-23.1309
  0
LINE
  8
0
 10
-6.67361
 20
-23.1309
 11
-6.69379
 21
-23.1333
  0
LINE
  8
0
 10
-6.69379
 20
-23.1333
 11
-6.71465
 21
-23.1341
  0
LINE
  8
0
 10
-6.71465
 20
-23.1341
 11
-6.73875
 21
-23.1331
  0
LINE
  8
0
 10
-6.73875
 20
-23.1331
 11
-6.76151
 21
-23.1301
  0
LINE
  8
0
 10
-6.76151
 20
-23.1301
 11
-6.7829
 21
-23.1251
  0
LINE
  8
0
 10
-6.7829
 20
-23.1251
 11
-6.80293
 21
-23.1181
  0
LINE
  8
0
 10
-6.80293
 20
-23.1181
 11
-6.82161
 21
-23.109
  0
LINE
  8
0
 10
-6.82161
 20
-23.109
 11
-6.83893
 21
-23.098
  0
LINE
  8
0
 10
-6.83893
 20
-23.098
 11
-6.8549
 21
-23.0849
  0
LINE
  8
0
 10
-6.8549
 20
-23.0849
 11
-6.86951
 21
-23.0699
  0
LINE
  8
0
 10
-6.86951
 20
-23.0699
 11
-6.88275
 21
-23.0528
  0
LINE
  8
0
 10
-6.88275
 20
-23.0528
 11
-6.89464
 21
-23.0338
  0
LINE
  8
0
 10
-6.89464
 20
-23.0338
 11
-6.90517
 21
-23.0127
  0
LINE
  8
0
 10
-6.90517
 20
-23.0127
 11
-6.91434
 21
-22.9896
  0
LINE
  8
0
 10
-6.91434
 20
-22.9896
 11
-6.92215
 21
-22.9645
  0
LINE
  8
0
 10
-6.92215
 20
-22.9645
 11
-7.24562
 21
-23.0096
  0
LINE
  8
0
 10
-7.24562
 20
-23.0096
 11
-7.23711
 21
-23.0402
  0
LINE
  8
0
 10
-7.23711
 20
-23.0402
 11
-7.22772
 21
-23.0695
  0
LINE
  8
0
 10
-7.22772
 20
-23.0695
 11
-7.21747
 21
-23.0975
  0
LINE
  8
0
 10
-7.21747
 20
-23.0975
 11
-7.20633
 21
-23.1243
  0
LINE
  8
0
 10
-7.20633
 20
-23.1243
 11
-7.19432
 21
-23.1498
  0
LINE
  8
0
 10
-7.19432
 20
-23.1498
 11
-7.18144
 21
-23.1741
  0
LINE
  8
0
 10
-7.18144
 20
-23.1741
 11
-7.16769
 21
-23.1971
  0
LINE
  8
0
 10
-7.16769
 20
-23.1971
 11
-7.15306
 21
-23.2188
  0
LINE
  8
0
 10
-7.15306
 20
-23.2188
 11
-7.13756
 21
-23.2393
  0
LINE
  8
0
 10
-7.13756
 20
-23.2393
 11
-7.12119
 21
-23.2585
  0
LINE
  8
0
 10
-7.12119
 20
-23.2585
 11
-7.10393
 21
-23.2765
  0
LINE
  8
0
 10
-7.10393
 20
-23.2765
 11
-7.0858
 21
-23.2932
  0
LINE
  8
0
 10
-7.0858
 20
-23.2932
 11
-7.0668
 21
-23.3087
  0
LINE
  8
0
 10
-7.0668
 20
-23.3087
 11
-7.04681
 21
-23.323
  0
LINE
  8
0
 10
-7.04681
 20
-23.323
 11
-7.02574
 21
-23.3361
  0
LINE
  8
0
 10
-7.02574
 20
-23.3361
 11
-7.00359
 21
-23.3481
  0
LINE
  8
0
 10
-7.00359
 20
-23.3481
 11
-6.98033
 21
-23.3589
  0
LINE
  8
0
 10
-6.98033
 20
-23.3589
 11
-6.95599
 21
-23.3686
  0
LINE
  8
0
 10
-6.95599
 20
-23.3686
 11
-6.93056
 21
-23.3772
  0
LINE
  8
0
 10
-6.93056
 20
-23.3772
 11
-6.90402
 21
-23.3846
  0
LINE
  8
0
 10
-6.90402
 20
-23.3846
 11
-6.8764
 21
-23.3909
  0
LINE
  8
0
 10
-6.8764
 20
-23.3909
 11
-6.8477
 21
-23.396
  0
LINE
  8
0
 10
-6.8477
 20
-23.396
 11
-6.8179
 21
-23.4
  0
LINE
  8
0
 10
-6.8179
 20
-23.4
 11
-6.78702
 21
-23.4028
  0
LINE
  8
0
 10
-6.78702
 20
-23.4028
 11
-6.75505
 21
-23.4045
  0
LINE
  8
0
 10
-6.75505
 20
-23.4045
 11
-6.72197
 21
-23.4051
  0
LINE
  8
0
 10
-6.72197
 20
-23.4051
 11
-6.67549
 21
-23.4037
  0
LINE
  8
0
 10
-6.71181
 20
-22.5136
 11
-6.72913
 21
-22.5122
  0
LINE
  8
0
 10
-6.72913
 20
-22.5122
 11
-6.74585
 21
-22.5099
  0
LINE
  8
0
 10
-6.74585
 20
-22.5099
 11
-6.76196
 21
-22.5067
  0
LINE
  8
0
 10
-6.76196
 20
-22.5067
 11
-6.77748
 21
-22.5026
  0
LINE
  8
0
 10
-6.77748
 20
-22.5026
 11
-6.7924
 21
-22.4976
  0
LINE
  8
0
 10
-6.7924
 20
-22.4976
 11
-6.80672
 21
-22.4916
  0
LINE
  8
0
 10
-6.80672
 20
-22.4916
 11
-6.82043
 21
-22.4847
  0
LINE
  8
0
 10
-6.82043
 20
-22.4847
 11
-6.83356
 21
-22.4769
  0
LINE
  8
0
 10
-6.83356
 20
-22.4769
 11
-6.84607
 21
-22.4682
  0
LINE
  8
0
 10
-6.84607
 20
-22.4682
 11
-6.858
 21
-22.4586
  0
LINE
  8
0
 10
-6.858
 20
-22.4586
 11
-6.86931
 21
-22.448
  0
LINE
  8
0
 10
-6.86931
 20
-22.448
 11
-6.88004
 21
-22.4366
  0
LINE
  8
0
 10
-6.88004
 20
-22.4366
 11
-6.89006
 21
-22.4242
  0
LINE
  8
0
 10
-6.89006
 20
-22.4242
 11
-6.89928
 21
-22.4111
  0
LINE
  8
0
 10
-6.89928
 20
-22.4111
 11
-6.9077
 21
-22.3971
  0
LINE
  8
0
 10
-6.9077
 20
-22.3971
 11
-6.91531
 21
-22.3823
  0
LINE
  8
0
 10
-6.91531
 20
-22.3823
 11
-6.92213
 21
-22.3667
  0
LINE
  8
0
 10
-6.92213
 20
-22.3667
 11
-6.92815
 21
-22.3503
  0
LINE
  8
0
 10
-6.92815
 20
-22.3503
 11
-6.93335
 21
-22.3331
  0
LINE
  8
0
 10
-6.93335
 20
-22.3331
 11
-6.93776
 21
-22.315
  0
LINE
  8
0
 10
-6.93776
 20
-22.315
 11
-6.94138
 21
-22.2962
  0
LINE
  8
0
 10
-6.94138
 20
-22.2962
 11
-6.94418
 21
-22.2765
  0
LINE
  8
0
 10
-6.94418
 20
-22.2765
 11
-6.94618
 21
-22.256
  0
LINE
  8
0
 10
-6.94618
 20
-22.256
 11
-6.94739
 21
-22.2347
  0
LINE
  8
0
 10
-6.94739
 20
-22.2347
 11
-6.94778
 21
-22.2126
  0
LINE
  8
0
 10
-6.94778
 20
-22.2126
 11
-6.9474
 21
-22.1906
  0
LINE
  8
0
 10
-6.9474
 20
-22.1906
 11
-6.94626
 21
-22.1694
  0
LINE
  8
0
 10
-6.94626
 20
-22.1694
 11
-6.94434
 21
-22.1489
  0
LINE
  8
0
 10
-6.94434
 20
-22.1489
 11
-6.94167
 21
-22.1291
  0
LINE
  8
0
 10
-6.94167
 20
-22.1291
 11
-6.93822
 21
-22.1101
  0
LINE
  8
0
 10
-6.93822
 20
-22.1101
 11
-6.93401
 21
-22.0919
  0
LINE
  8
0
 10
-6.93401
 20
-22.0919
 11
-6.92903
 21
-22.0744
  0
LINE
  8
0
 10
-6.92903
 20
-22.0744
 11
-6.92329
 21
-22.0576
  0
LINE
  8
0
 10
-6.92329
 20
-22.0576
 11
-6.91678
 21
-22.0416
  0
LINE
  8
0
 10
-6.91678
 20
-22.0416
 11
-6.90952
 21
-22.0263
  0
LINE
  8
0
 10
-6.90952
 20
-22.0263
 11
-6.90147
 21
-22.0118
  0
LINE
  8
0
 10
-6.90147
 20
-22.0118
 11
-6.89267
 21
-21.998
  0
LINE
  8
0
 10
-6.89267
 20
-21.998
 11
-6.8831
 21
-21.9849
  0
LINE
  8
0
 10
-6.8831
 20
-21.9849
 11
-6.87283
 21
-21.9727
  0
LINE
  8
0
 10
-6.87283
 20
-21.9727
 11
-6.86197
 21
-21.9615
  0
LINE
  8
0
 10
-6.86197
 20
-21.9615
 11
-6.85051
 21
-21.9513
  0
LINE
  8
0
 10
-6.85051
 20
-21.9513
 11
-6.83842
 21
-21.942
  0
LINE
  8
0
 10
-6.83842
 20
-21.942
 11
-6.82574
 21
-21.9337
  0
LINE
  8
0
 10
-6.82574
 20
-21.9337
 11
-6.81245
 21
-21.9264
  0
LINE
  8
0
 10
-6.81245
 20
-21.9264
 11
-6.79857
 21
-21.9201
  0
LINE
  8
0
 10
-6.79857
 20
-21.9201
 11
-6.78406
 21
-21.9147
  0
LINE
  8
0
 10
-6.78406
 20
-21.9147
 11
-6.76895
 21
-21.9103
  0
LINE
  8
0
 10
-6.76895
 20
-21.9103
 11
-6.75323
 21
-21.9069
  0
LINE
  8
0
 10
-6.75323
 20
-21.9069
 11
-6.73691
 21
-21.9045
  0
LINE
  8
0
 10
-6.73691
 20
-21.9045
 11
-6.71999
 21
-21.903
  0
LINE
  8
0
 10
-6.71999
 20
-21.903
 11
-6.70245
 21
-21.9025
  0
LINE
  8
0
 10
-6.70245
 20
-21.9025
 11
-6.68488
 21
-21.9031
  0
LINE
  8
0
 10
-6.68488
 20
-21.9031
 11
-6.66782
 21
-21.9049
  0
LINE
  8
0
 10
-6.66782
 20
-21.9049
 11
-6.65131
 21
-21.9078
  0
LINE
  8
0
 10
-6.65131
 20
-21.9078
 11
-6.63531
 21
-21.9118
  0
LINE
  8
0
 10
-6.63531
 20
-21.9118
 11
-6.61984
 21
-21.9171
  0
LINE
  8
0
 10
-6.61984
 20
-21.9171
 11
-6.6049
 21
-21.9235
  0
LINE
  8
0
 10
-6.6049
 20
-21.9235
 11
-6.59048
 21
-21.931
  0
LINE
  8
0
 10
-6.59048
 20
-21.931
 11
-6.5766
 21
-21.9398
  0
LINE
  8
0
 10
-6.5766
 20
-21.9398
 11
-6.56325
 21
-21.9496
  0
LINE
  8
0
 10
-6.56325
 20
-21.9496
 11
-6.55042
 21
-21.9607
  0
LINE
  8
0
 10
-6.55042
 20
-21.9607
 11
-6.53812
 21
-21.9729
  0
LINE
  8
0
 10
-6.53812
 20
-21.9729
 11
-6.52634
 21
-21.9863
  0
LINE
  8
0
 10
-6.52634
 20
-21.9863
 11
-6.51509
 21
-22.0008
  0
LINE
  8
0
 10
-6.51509
 20
-22.0008
 11
-6.50452
 21
-22.0162
  0
LINE
  8
0
 10
-6.50452
 20
-22.0162
 11
-6.4948
 21
-22.0323
  0
LINE
  8
0
 10
-6.4948
 20
-22.0323
 11
-6.48593
 21
-22.0489
  0
LINE
  8
0
 10
-6.48593
 20
-22.0489
 11
-6.47791
 21
-22.0662
  0
LINE
  8
0
 10
-6.47791
 20
-22.0662
 11
-6.47072
 21
-22.0841
  0
LINE
  8
0
 10
-6.47072
 20
-22.0841
 11
-6.46439
 21
-22.1026
  0
LINE
  8
0
 10
-6.46439
 20
-22.1026
 11
-6.45889
 21
-22.1217
  0
LINE
  8
0
 10
-6.45889
 20
-22.1217
 11
-6.45424
 21
-22.1414
  0
LINE
  8
0
 10
-6.45424
 20
-22.1414
 11
-6.45044
 21
-22.1617
  0
LINE
  8
0
 10
-6.45044
 20
-22.1617
 11
-6.44748
 21
-22.1827
  0
LINE
  8
0
 10
-6.44748
 20
-22.1827
 11
-6.44537
 21
-22.2042
  0
LINE
  8
0
 10
-6.44537
 20
-22.2042
 11
-6.44411
 21
-22.2264
  0
LINE
  8
0
 10
-6.44411
 20
-22.2264
 11
-6.44368
 21
-22.2492
  0
LINE
  8
0
 10
-6.44368
 20
-22.2492
 11
-6.44408
 21
-22.2673
  0
LINE
  8
0
 10
-6.44408
 20
-22.2673
 11
-6.4453
 21
-22.2849
  0
LINE
  8
0
 10
-6.4453
 20
-22.2849
 11
-6.44731
 21
-22.3019
  0
LINE
  8
0
 10
-6.44731
 20
-22.3019
 11
-6.45015
 21
-22.3184
  0
LINE
  8
0
 10
-6.45015
 20
-22.3184
 11
-6.4538
 21
-22.3343
  0
LINE
  8
0
 10
-6.4538
 20
-22.3343
 11
-6.45824
 21
-22.3496
  0
LINE
  8
0
 10
-6.45824
 20
-22.3496
 11
-6.4635
 21
-22.3644
  0
LINE
  8
0
 10
-6.4635
 20
-22.3644
 11
-6.46956
 21
-22.3786
  0
LINE
  8
0
 10
-6.46956
 20
-22.3786
 11
-6.47644
 21
-22.3923
  0
LINE
  8
0
 10
-6.47644
 20
-22.3923
 11
-6.48412
 21
-22.4054
  0
LINE
  8
0
 10
-6.48412
 20
-22.4054
 11
-6.49261
 21
-22.418
  0
LINE
  8
0
 10
-6.49261
 20
-22.418
 11
-6.50191
 21
-22.43
  0
LINE
  8
0
 10
-6.50191
 20
-22.43
 11
-6.51202
 21
-22.4415
  0
LINE
  8
0
 10
-6.51202
 20
-22.4415
 11
-6.52281
 21
-22.4522
  0
LINE
  8
0
 10
-6.52281
 20
-22.4522
 11
-6.53413
 21
-22.4621
  0
LINE
  8
0
 10
-6.53413
 20
-22.4621
 11
-6.54597
 21
-22.4711
  0
LINE
  8
0
 10
-6.54597
 20
-22.4711
 11
-6.55836
 21
-22.4793
  0
LINE
  8
0
 10
-6.55836
 20
-22.4793
 11
-6.57129
 21
-22.4866
  0
LINE
  8
0
 10
-6.57129
 20
-22.4866
 11
-6.58475
 21
-22.493
  0
LINE
  8
0
 10
-6.58475
 20
-22.493
 11
-6.59874
 21
-22.4986
  0
LINE
  8
0
 10
-6.59874
 20
-22.4986
 11
-6.61327
 21
-22.5033
  0
LINE
  8
0
 10
-6.61327
 20
-22.5033
 11
-6.62833
 21
-22.5072
  0
LINE
  8
0
 10
-6.62833
 20
-22.5072
 11
-6.64391
 21
-22.5102
  0
LINE
  8
0
 10
-6.64391
 20
-22.5102
 11
-6.66003
 21
-22.5123
  0
LINE
  8
0
 10
-6.66003
 20
-22.5123
 11
-6.6767
 21
-22.5136
  0
LINE
  8
0
 10
-6.6767
 20
-22.5136
 11
-6.69389
 21
-22.5141
  0
LINE
  8
0
 10
-6.69389
 20
-22.5141
 11
-6.71181
 21
-22.5136
  0
LINE
  8
0
 10
5.3248
 20
-23.4046
 11
5.356
 21
-23.4029
  0
LINE
  8
0
 10
5.356
 20
-23.4029
 11
5.38623
 21
-23.4002
  0
LINE
  8
0
 10
5.38623
 20
-23.4002
 11
5.41547
 21
-23.3963
  0
LINE
  8
0
 10
5.41547
 20
-23.3963
 11
5.44373
 21
-23.3914
  0
LINE
  8
0
 10
5.44373
 20
-23.3914
 11
5.47099
 21
-23.3853
  0
LINE
  8
0
 10
5.47099
 20
-23.3853
 11
5.49728
 21
-23.3782
  0
LINE
  8
0
 10
5.49728
 20
-23.3782
 11
5.5226
 21
-23.37
  0
LINE
  8
0
 10
5.5226
 20
-23.37
 11
5.54692
 21
-23.3606
  0
LINE
  8
0
 10
5.54692
 20
-23.3606
 11
5.57027
 21
-23.3502
  0
LINE
  8
0
 10
5.57027
 20
-23.3502
 11
5.59262
 21
-23.3387
  0
LINE
  8
0
 10
5.59262
 20
-23.3387
 11
5.614
 21
-23.3261
  0
LINE
  8
0
 10
5.614
 20
-23.3261
 11
5.6344
 21
-23.3123
  0
LINE
  8
0
 10
5.6344
 20
-23.3123
 11
5.65392
 21
-23.2975
  0
LINE
  8
0
 10
5.65392
 20
-23.2975
 11
5.67268
 21
-23.2814
  0
LINE
  8
0
 10
5.67268
 20
-23.2814
 11
5.69067
 21
-23.2641
  0
LINE
  8
0
 10
5.69067
 20
-23.2641
 11
5.7079
 21
-23.2455
  0
LINE
  8
0
 10
5.7079
 20
-23.2455
 11
5.72435
 21
-23.2258
  0
LINE
  8
0
 10
5.72435
 20
-23.2258
 11
5.74005
 21
-23.2049
  0
LINE
  8
0
 10
5.74005
 20
-23.2049
 11
5.75497
 21
-23.1827
  0
LINE
  8
0
 10
5.75497
 20
-23.1827
 11
5.76915
 21
-23.1593
  0
LINE
  8
0
 10
5.76915
 20
-23.1593
 11
5.78255
 21
-23.1348
  0
LINE
  8
0
 10
5.78255
 20
-23.1348
 11
5.79517
 21
-23.1089
  0
LINE
  8
0
 10
5.79517
 20
-23.1089
 11
5.80704
 21
-23.0819
  0
LINE
  8
0
 10
5.80704
 20
-23.0819
 11
5.81815
 21
-23.0537
  0
LINE
  8
0
 10
5.81815
 20
-23.0537
 11
5.82848
 21
-23.0243
  0
LINE
  8
0
 10
5.82848
 20
-23.0243
 11
5.83804
 21
-22.9935
  0
LINE
  8
0
 10
5.83804
 20
-22.9935
 11
5.84685
 21
-22.9615
  0
LINE
  8
0
 10
5.84685
 20
-22.9615
 11
5.85489
 21
-22.9281
  0
LINE
  8
0
 10
5.85489
 20
-22.9281
 11
5.86217
 21
-22.8933
  0
LINE
  8
0
 10
5.86217
 20
-22.8933
 11
5.86867
 21
-22.8573
  0
LINE
  8
0
 10
5.86867
 20
-22.8573
 11
5.8744
 21
-22.8198
  0
LINE
  8
0
 10
5.8744
 20
-22.8198
 11
5.87938
 21
-22.781
  0
LINE
  8
0
 10
5.87938
 20
-22.781
 11
5.88359
 21
-22.7409
  0
LINE
  8
0
 10
5.88359
 20
-22.7409
 11
5.88704
 21
-22.6994
  0
LINE
  8
0
 10
5.88704
 20
-22.6994
 11
5.88972
 21
-22.6566
  0
LINE
  8
0
 10
5.88972
 20
-22.6566
 11
5.89163
 21
-22.6125
  0
LINE
  8
0
 10
5.89163
 20
-22.6125
 11
5.89279
 21
-22.567
  0
LINE
  8
0
 10
5.89279
 20
-22.567
 11
5.89317
 21
-22.5202
  0
LINE
  8
0
 10
5.89317
 20
-22.5202
 11
5.88968
 21
-22.3893
  0
LINE
  8
0
 10
5.88968
 20
-22.3893
 11
5.87918
 21
-22.2688
  0
LINE
  8
0
 10
5.87918
 20
-22.2688
 11
5.86171
 21
-22.1589
  0
LINE
  8
0
 10
5.86171
 20
-22.1589
 11
5.83723
 21
-22.0594
  0
LINE
  8
0
 10
5.83723
 20
-22.0594
 11
5.80577
 21
-21.9704
  0
LINE
  8
0
 10
5.80577
 20
-21.9704
 11
5.76732
 21
-21.8918
  0
LINE
  8
0
 10
5.76732
 20
-21.8918
 11
5.72188
 21
-21.8237
  0
LINE
  8
0
 10
5.72188
 20
-21.8237
 11
5.66943
 21
-21.7661
  0
LINE
  8
0
 10
5.66943
 20
-21.7661
 11
5.61002
 21
-21.719
  0
LINE
  8
0
 10
5.61002
 20
-21.719
 11
5.54359
 21
-21.6824
  0
LINE
  8
0
 10
5.54359
 20
-21.6824
 11
5.47018
 21
-21.6562
  0
LINE
  8
0
 10
5.47018
 20
-21.6562
 11
5.38979
 21
-21.6405
  0
LINE
  8
0
 10
5.38979
 20
-21.6405
 11
5.30238
 21
-21.6352
  0
LINE
  8
0
 10
5.30238
 20
-21.6352
 11
5.25726
 21
-21.6366
  0
LINE
  8
0
 10
5.25726
 20
-21.6366
 11
5.21391
 21
-21.6405
  0
LINE
  8
0
 10
5.21391
 20
-21.6405
 11
5.17233
 21
-21.6472
  0
LINE
  8
0
 10
5.17233
 20
-21.6472
 11
5.13251
 21
-21.6565
  0
LINE
  8
0
 10
5.13251
 20
-21.6565
 11
5.09447
 21
-21.6684
  0
LINE
  8
0
 10
5.09447
 20
-21.6684
 11
5.0582
 21
-21.6831
  0
LINE
  8
0
 10
5.0582
 20
-21.6831
 11
5.02368
 21
-21.7003
  0
LINE
  8
0
 10
5.02368
 20
-21.7003
 11
4.99095
 21
-21.7203
  0
LINE
  8
0
 10
4.99095
 20
-21.7203
 11
4.95998
 21
-21.7429
  0
LINE
  8
0
 10
4.95998
 20
-21.7429
 11
4.93079
 21
-21.7681
  0
LINE
  8
0
 10
4.93079
 20
-21.7681
 11
4.90335
 21
-21.796
  0
LINE
  8
0
 10
4.90335
 20
-21.796
 11
4.8777
 21
-21.8266
  0
LINE
  8
0
 10
4.8777
 20
-21.8266
 11
4.85381
 21
-21.8598
  0
LINE
  8
0
 10
4.85381
 20
-21.8598
 11
4.8317
 21
-21.8956
  0
LINE
  8
0
 10
4.8317
 20
-21.8956
 11
4.81134
 21
-21.9339
  0
LINE
  8
0
 10
4.81134
 20
-21.9339
 11
4.79276
 21
-21.9747
  0
LINE
  8
0
 10
4.79276
 20
-21.9747
 11
4.77596
 21
-22.018
  0
LINE
  8
0
 10
4.77596
 20
-22.018
 11
4.76091
 21
-22.0638
  0
LINE
  8
0
 10
4.76091
 20
-22.0638
 11
4.74763
 21
-22.1121
  0
LINE
  8
0
 10
4.74763
 20
-22.1121
 11
4.73613
 21
-22.1629
  0
LINE
  8
0
 10
4.73613
 20
-22.1629
 11
4.72641
 21
-22.2162
  0
LINE
  8
0
 10
4.72641
 20
-22.2162
 11
4.71844
 21
-22.272
  0
LINE
  8
0
 10
4.71844
 20
-22.272
 11
4.71225
 21
-22.3303
  0
LINE
  8
0
 10
4.71225
 20
-22.3303
 11
4.70782
 21
-22.3911
  0
LINE
  8
0
 10
4.70782
 20
-22.3911
 11
4.70517
 21
-22.4544
  0
LINE
  8
0
 10
4.70517
 20
-22.4544
 11
4.70428
 21
-22.5202
  0
LINE
  8
0
 10
4.70428
 20
-22.5202
 11
4.70512
 21
-22.587
  0
LINE
  8
0
 10
4.70512
 20
-22.587
 11
4.70764
 21
-22.6512
  0
LINE
  8
0
 10
4.70764
 20
-22.6512
 11
4.71182
 21
-22.7128
  0
LINE
  8
0
 10
4.71182
 20
-22.7128
 11
4.7177
 21
-22.7718
  0
LINE
  8
0
 10
4.7177
 20
-22.7718
 11
4.72523
 21
-22.8281
  0
LINE
  8
0
 10
4.72523
 20
-22.8281
 11
4.73445
 21
-22.8818
  0
LINE
  8
0
 10
4.73445
 20
-22.8818
 11
4.74533
 21
-22.9329
  0
LINE
  8
0
 10
4.74533
 20
-22.9329
 11
4.7579
 21
-22.9814
  0
LINE
  8
0
 10
4.7579
 20
-22.9814
 11
4.77214
 21
-23.0272
  0
LINE
  8
0
 10
4.77214
 20
-23.0272
 11
4.78807
 21
-23.0704
  0
LINE
  8
0
 10
4.78807
 20
-23.0704
 11
4.80566
 21
-23.1109
  0
LINE
  8
0
 10
4.80566
 20
-23.1109
 11
4.82492
 21
-23.1489
  0
LINE
  8
0
 10
4.82492
 20
-23.1489
 11
4.84587
 21
-23.1842
  0
LINE
  8
0
 10
4.84587
 20
-23.1842
 11
4.86862
 21
-23.2169
  0
LINE
  8
0
 10
4.86862
 20
-23.2169
 11
4.89331
 21
-23.2469
  0
LINE
  8
0
 10
4.89331
 20
-23.2469
 11
4.91994
 21
-23.2744
  0
LINE
  8
0
 10
4.91994
 20
-23.2744
 11
4.94849
 21
-23.2992
  0
LINE
  8
0
 10
4.94849
 20
-23.2992
 11
4.97899
 21
-23.3214
  0
LINE
  8
0
 10
4.97899
 20
-23.3214
 11
5.01141
 21
-23.341
  0
LINE
  8
0
 10
5.01141
 20
-23.341
 11
5.04578
 21
-23.358
  0
LINE
  8
0
 10
5.04578
 20
-23.358
 11
5.08208
 21
-23.3724
  0
LINE
  8
0
 10
5.08208
 20
-23.3724
 11
5.12032
 21
-23.3842
  0
LINE
  8
0
 10
5.12032
 20
-23.3842
 11
5.16049
 21
-23.3933
  0
LINE
  8
0
 10
5.16049
 20
-23.3933
 11
5.20259
 21
-23.3999
  0
LINE
  8
0
 10
5.20259
 20
-23.3999
 11
5.24664
 21
-23.4038
  0
LINE
  8
0
 10
5.24664
 20
-23.4038
 11
5.29262
 21
-23.4051
  0
LINE
  8
0
 10
5.29262
 20
-23.4051
 11
5.3248
 21
-23.4046
  0
LINE
  8
0
 10
5.28032
 20
-23.1362
 11
5.26611
 21
-23.1352
  0
LINE
  8
0
 10
5.26611
 20
-23.1352
 11
5.25246
 21
-23.1335
  0
LINE
  8
0
 10
5.25246
 20
-23.1335
 11
5.23936
 21
-23.1311
  0
LINE
  8
0
 10
5.23936
 20
-23.1311
 11
5.22681
 21
-23.1281
  0
LINE
  8
0
 10
5.22681
 20
-23.1281
 11
5.21481
 21
-23.1243
  0
LINE
  8
0
 10
5.21481
 20
-23.1243
 11
5.20335
 21
-23.1199
  0
LINE
  8
0
 10
5.20335
 20
-23.1199
 11
5.19244
 21
-23.1149
  0
LINE
  8
0
 10
5.19244
 20
-23.1149
 11
5.18208
 21
-23.1091
  0
LINE
  8
0
 10
5.18208
 20
-23.1091
 11
5.17229
 21
-23.1026
  0
LINE
  8
0
 10
5.17229
 20
-23.1026
 11
5.16302
 21
-23.0955
  0
LINE
  8
0
 10
5.16302
 20
-23.0955
 11
5.15431
 21
-23.0877
  0
LINE
  8
0
 10
5.15431
 20
-23.0877
 11
5.14615
 21
-23.0792
  0
LINE
  8
0
 10
5.14615
 20
-23.0792
 11
5.13843
 21
-23.0699
  0
LINE
  8
0
 10
5.13843
 20
-23.0699
 11
5.13104
 21
-23.0598
  0
LINE
  8
0
 10
5.13104
 20
-23.0598
 11
5.12398
 21
-23.0488
  0
LINE
  8
0
 10
5.12398
 20
-23.0488
 11
5.11726
 21
-23.0368
  0
LINE
  8
0
 10
5.11726
 20
-23.0368
 11
5.11087
 21
-23.0241
  0
LINE
  8
0
 10
5.11087
 20
-23.0241
 11
5.10481
 21
-23.0104
  0
LINE
  8
0
 10
5.10481
 20
-23.0104
 11
5.09909
 21
-22.9958
  0
LINE
  8
0
 10
5.09909
 20
-22.9958
 11
5.09369
 21
-22.9804
  0
LINE
  8
0
 10
5.09369
 20
-22.9804
 11
5.08862
 21
-22.9641
  0
LINE
  8
0
 10
5.08862
 20
-22.9641
 11
5.08389
 21
-22.9469
  0
LINE
  8
0
 10
5.08389
 20
-22.9469
 11
5.0795
 21
-22.9288
  0
LINE
  8
0
 10
5.0795
 20
-22.9288
 11
5.07544
 21
-22.9099
  0
LINE
  8
0
 10
5.07544
 20
-22.9099
 11
5.0717
 21
-22.89
  0
LINE
  8
0
 10
5.0717
 20
-22.89
 11
5.06827
 21
-22.8691
  0
LINE
  8
0
 10
5.06827
 20
-22.8691
 11
5.06511
 21
-22.8469
  0
LINE
  8
0
 10
5.06511
 20
-22.8469
 11
5.06223
 21
-22.8235
  0
LINE
  8
0
 10
5.06223
 20
-22.8235
 11
5.05962
 21
-22.7988
  0
LINE
  8
0
 10
5.05962
 20
-22.7988
 11
5.05728
 21
-22.7729
  0
LINE
  8
0
 10
5.05728
 20
-22.7729
 11
5.05522
 21
-22.7457
  0
LINE
  8
0
 10
5.05522
 20
-22.7457
 11
5.05344
 21
-22.7173
  0
LINE
  8
0
 10
5.05344
 20
-22.7173
 11
5.05193
 21
-22.6875
  0
LINE
  8
0
 10
5.05193
 20
-22.6875
 11
5.05069
 21
-22.6566
  0
LINE
  8
0
 10
5.05069
 20
-22.6566
 11
5.04973
 21
-22.6244
  0
LINE
  8
0
 10
5.04973
 20
-22.6244
 11
5.04904
 21
-22.5909
  0
LINE
  8
0
 10
5.04904
 20
-22.5909
 11
5.04863
 21
-22.5562
  0
LINE
  8
0
 10
5.04863
 20
-22.5562
 11
5.04849
 21
-22.5202
  0
LINE
  8
0
 10
5.04849
 20
-22.5202
 11
5.04865
 21
-22.4856
  0
LINE
  8
0
 10
5.04865
 20
-22.4856
 11
5.04906
 21
-22.4522
  0
LINE
  8
0
 10
5.04906
 20
-22.4522
 11
5.04977
 21
-22.4199
  0
LINE
  8
0
 10
5.04977
 20
-22.4199
 11
5.05075
 21
-22.3887
  0
LINE
  8
0
 10
5.05075
 20
-22.3887
 11
5.05202
 21
-22.3587
  0
LINE
  8
0
 10
5.05202
 20
-22.3587
 11
5.05357
 21
-22.3298
  0
LINE
  8
0
 10
5.05357
 20
-22.3298
 11
5.0554
 21
-22.302
  0
LINE
  8
0
 10
5.0554
 20
-22.302
 11
5.05751
 21
-22.2753
  0
LINE
  8
0
 10
5.05751
 20
-22.2753
 11
5.05991
 21
-22.2498
  0
LINE
  8
0
 10
5.05991
 20
-22.2498
 11
5.06259
 21
-22.2253
  0
LINE
  8
0
 10
5.06259
 20
-22.2253
 11
5.06555
 21
-22.2021
  0
LINE
  8
0
 10
5.06555
 20
-22.2021
 11
5.06879
 21
-22.1799
  0
LINE
  8
0
 10
5.06879
 20
-22.1799
 11
5.07231
 21
-22.1589
  0
LINE
  8
0
 10
5.07231
 20
-22.1589
 11
5.07614
 21
-22.1388
  0
LINE
  8
0
 10
5.07614
 20
-22.1388
 11
5.08032
 21
-22.1196
  0
LINE
  8
0
 10
5.08032
 20
-22.1196
 11
5.08485
 21
-22.1013
  0
LINE
  8
0
 10
5.08485
 20
-22.1013
 11
5.08974
 21
-22.0839
  0
LINE
  8
0
 10
5.08974
 20
-22.0839
 11
5.09496
 21
-22.0673
  0
LINE
  8
0
 10
5.09496
 20
-22.0673
 11
5.10052
 21
-22.0515
  0
LINE
  8
0
 10
5.10052
 20
-22.0515
 11
5.10643
 21
-22.0367
  0
LINE
  8
0
 10
5.10643
 20
-22.0367
 11
5.1127
 21
-22.0226
  0
LINE
  8
0
 10
5.1127
 20
-22.0226
 11
5.11931
 21
-22.0095
  0
LINE
  8
0
 10
5.11931
 20
-22.0095
 11
5.12627
 21
-21.9972
  0
LINE
  8
0
 10
5.12627
 20
-21.9972
 11
5.13356
 21
-21.9857
  0
LINE
  8
0
 10
5.13356
 20
-21.9857
 11
5.14122
 21
-21.9751
  0
LINE
  8
0
 10
5.14122
 20
-21.9751
 11
5.14922
 21
-21.9654
  0
LINE
  8
0
 10
5.14922
 20
-21.9654
 11
5.15764
 21
-21.9565
  0
LINE
  8
0
 10
5.15764
 20
-21.9565
 11
5.1666
 21
-21.9482
  0
LINE
  8
0
 10
5.1666
 20
-21.9482
 11
5.17609
 21
-21.9407
  0
LINE
  8
0
 10
5.17609
 20
-21.9407
 11
5.1861
 21
-21.9339
  0
LINE
  8
0
 10
5.1861
 20
-21.9339
 11
5.19664
 21
-21.9279
  0
LINE
  8
0
 10
5.19664
 20
-21.9279
 11
5.2077
 21
-21.9225
  0
LINE
  8
0
 10
5.2077
 20
-21.9225
 11
5.2193
 21
-21.9178
  0
LINE
  8
0
 10
5.2193
 20
-21.9178
 11
5.23141
 21
-21.9139
  0
LINE
  8
0
 10
5.23141
 20
-21.9139
 11
5.24406
 21
-21.9107
  0
LINE
  8
0
 10
5.24406
 20
-21.9107
 11
5.25725
 21
-21.9082
  0
LINE
  8
0
 10
5.25725
 20
-21.9082
 11
5.27095
 21
-21.9064
  0
LINE
  8
0
 10
5.27095
 20
-21.9064
 11
5.28519
 21
-21.9053
  0
LINE
  8
0
 10
5.28519
 20
-21.9053
 11
5.29994
 21
-21.905
  0
LINE
  8
0
 10
5.29994
 20
-21.905
 11
5.31488
 21
-21.9053
  0
LINE
  8
0
 10
5.31488
 20
-21.9053
 11
5.32925
 21
-21.9063
  0
LINE
  8
0
 10
5.32925
 20
-21.9063
 11
5.34308
 21
-21.908
  0
LINE
  8
0
 10
5.34308
 20
-21.908
 11
5.35634
 21
-21.9104
  0
LINE
  8
0
 10
5.35634
 20
-21.9104
 11
5.36905
 21
-21.9135
  0
LINE
  8
0
 10
5.36905
 20
-21.9135
 11
5.3812
 21
-21.9172
  0
LINE
  8
0
 10
5.3812
 20
-21.9172
 11
5.39279
 21
-21.9216
  0
LINE
  8
0
 10
5.39279
 20
-21.9216
 11
5.40384
 21
-21.9267
  0
LINE
  8
0
 10
5.40384
 20
-21.9267
 11
5.41432
 21
-21.9325
  0
LINE
  8
0
 10
5.41432
 20
-21.9325
 11
5.42424
 21
-21.9389
  0
LINE
  8
0
 10
5.42424
 20
-21.9389
 11
5.43362
 21
-21.946
  0
LINE
  8
0
 10
5.43362
 20
-21.946
 11
5.44243
 21
-21.9539
  0
LINE
  8
0
 10
5.44243
 20
-21.9539
 11
5.45068
 21
-21.9623
  0
LINE
  8
0
 10
5.45068
 20
-21.9623
 11
5.45851
 21
-21.9716
  0
LINE
  8
0
 10
5.45851
 20
-21.9716
 11
5.46599
 21
-21.9818
  0
LINE
  8
0
 10
5.46599
 20
-21.9818
 11
5.47314
 21
-21.9928
  0
LINE
  8
0
 10
5.47314
 20
-21.9928
 11
5.47997
 21
-22.0048
  0
LINE
  8
0
 10
5.47997
 20
-22.0048
 11
5.48645
 21
-22.0176
  0
LINE
  8
0
 10
5.48645
 20
-22.0176
 11
5.4926
 21
-22.0313
  0
LINE
  8
0
 10
5.4926
 20
-22.0313
 11
5.49843
 21
-22.0459
  0
LINE
  8
0
 10
5.49843
 20
-22.0459
 11
5.50391
 21
-22.0614
  0
LINE
  8
0
 10
5.50391
 20
-22.0614
 11
5.50906
 21
-22.0778
  0
LINE
  8
0
 10
5.50906
 20
-22.0778
 11
5.5139
 21
-22.095
  0
LINE
  8
0
 10
5.5139
 20
-22.095
 11
5.51839
 21
-22.1132
  0
LINE
  8
0
 10
5.51839
 20
-22.1132
 11
5.52255
 21
-22.1322
  0
LINE
  8
0
 10
5.52255
 20
-22.1322
 11
5.52638
 21
-22.1521
  0
LINE
  8
0
 10
5.52638
 20
-22.1521
 11
5.52991
 21
-22.1731
  0
LINE
  8
0
 10
5.52991
 20
-22.1731
 11
5.53314
 21
-22.1953
  0
LINE
  8
0
 10
5.53314
 20
-22.1953
 11
5.5361
 21
-22.2188
  0
LINE
  8
0
 10
5.5361
 20
-22.2188
 11
5.53877
 21
-22.2434
  0
LINE
  8
0
 10
5.53877
 20
-22.2434
 11
5.54117
 21
-22.2693
  0
LINE
  8
0
 10
5.54117
 20
-22.2693
 11
5.54327
 21
-22.2964
  0
LINE
  8
0
 10
5.54327
 20
-22.2964
 11
5.5451
 21
-22.3247
  0
LINE
  8
0
 10
5.5451
 20
-22.3247
 11
5.54666
 21
-22.3542
  0
LINE
  8
0
 10
5.54666
 20
-22.3542
 11
5.54793
 21
-22.385
  0
LINE
  8
0
 10
5.54793
 20
-22.385
 11
5.5489
 21
-22.4169
  0
LINE
  8
0
 10
5.5489
 20
-22.4169
 11
5.54962
 21
-22.4501
  0
LINE
  8
0
 10
5.54962
 20
-22.4501
 11
5.55003
 21
-22.4845
  0
LINE
  8
0
 10
5.55003
 20
-22.4845
 11
5.55017
 21
-22.5202
  0
LINE
  8
0
 10
5.55017
 20
-22.5202
 11
5.55005
 21
-22.5562
  0
LINE
  8
0
 10
5.55005
 20
-22.5562
 11
5.54964
 21
-22.5909
  0
LINE
  8
0
 10
5.54964
 20
-22.5909
 11
5.54898
 21
-22.6243
  0
LINE
  8
0
 10
5.54898
 20
-22.6243
 11
5.54803
 21
-22.6565
  0
LINE
  8
0
 10
5.54803
 20
-22.6565
 11
5.54684
 21
-22.6875
  0
LINE
  8
0
 10
5.54684
 20
-22.6875
 11
5.54536
 21
-22.7171
  0
LINE
  8
0
 10
5.54536
 20
-22.7171
 11
5.54364
 21
-22.7455
  0
LINE
  8
0
 10
5.54364
 20
-22.7455
 11
5.54163
 21
-22.7727
  0
LINE
  8
0
 10
5.54163
 20
-22.7727
 11
5.53935
 21
-22.7985
  0
LINE
  8
0
 10
5.53935
 20
-22.7985
 11
5.53682
 21
-22.8232
  0
LINE
  8
0
 10
5.53682
 20
-22.8232
 11
5.53401
 21
-22.8465
  0
LINE
  8
0
 10
5.53401
 20
-22.8465
 11
5.53094
 21
-22.8686
  0
LINE
  8
0
 10
5.53094
 20
-22.8686
 11
5.5276
 21
-22.8894
  0
LINE
  8
0
 10
5.5276
 20
-22.8894
 11
5.52396
 21
-22.9091
  0
LINE
  8
0
 10
5.52396
 20
-22.9091
 11
5.51993
 21
-22.928
  0
LINE
  8
0
 10
5.51993
 20
-22.928
 11
5.51555
 21
-22.9461
  0
LINE
  8
0
 10
5.51555
 20
-22.9461
 11
5.51082
 21
-22.9632
  0
LINE
  8
0
 10
5.51082
 20
-22.9632
 11
5.50572
 21
-22.9795
  0
LINE
  8
0
 10
5.50572
 20
-22.9795
 11
5.50026
 21
-22.9949
  0
LINE
  8
0
 10
5.50026
 20
-22.9949
 11
5.49443
 21
-23.0095
  0
LINE
  8
0
 10
5.49443
 20
-23.0095
 11
5.48825
 21
-23.0232
  0
LINE
  8
0
 10
5.48825
 20
-23.0232
 11
5.4817
 21
-23.036
  0
LINE
  8
0
 10
5.4817
 20
-23.036
 11
5.47479
 21
-23.0479
  0
LINE
  8
0
 10
5.47479
 20
-23.0479
 11
5.46753
 21
-23.059
  0
LINE
  8
0
 10
5.46753
 20
-23.059
 11
5.4599
 21
-23.0692
  0
LINE
  8
0
 10
5.4599
 20
-23.0692
 11
5.45192
 21
-23.0786
  0
LINE
  8
0
 10
5.45192
 20
-23.0786
 11
5.44345
 21
-23.0872
  0
LINE
  8
0
 10
5.44345
 20
-23.0872
 11
5.43437
 21
-23.0951
  0
LINE
  8
0
 10
5.43437
 20
-23.0951
 11
5.42471
 21
-23.1023
  0
LINE
  8
0
 10
5.42471
 20
-23.1023
 11
5.41444
 21
-23.1088
  0
LINE
  8
0
 10
5.41444
 20
-23.1088
 11
5.40358
 21
-23.1146
  0
LINE
  8
0
 10
5.40358
 20
-23.1146
 11
5.39211
 21
-23.1198
  0
LINE
  8
0
 10
5.39211
 20
-23.1198
 11
5.38005
 21
-23.1242
  0
LINE
  8
0
 10
5.38005
 20
-23.1242
 11
5.36739
 21
-23.128
  0
LINE
  8
0
 10
5.36739
 20
-23.128
 11
5.35411
 21
-23.1311
  0
LINE
  8
0
 10
5.35411
 20
-23.1311
 11
5.34026
 21
-23.1335
  0
LINE
  8
0
 10
5.34026
 20
-23.1335
 11
5.32579
 21
-23.1352
  0
LINE
  8
0
 10
5.32579
 20
-23.1352
 11
5.31073
 21
-23.1362
  0
LINE
  8
0
 10
5.31073
 20
-23.1362
 11
5.29506
 21
-23.1366
  0
LINE
  8
0
 10
5.29506
 20
-23.1366
 11
5.28032
 21
-23.1362
  0
LINE
  8
0
 10
3.96701
 20
-23.4046
 11
3.99821
 21
-23.4029
  0
LINE
  8
0
 10
3.99821
 20
-23.4029
 11
4.02844
 21
-23.4002
  0
LINE
  8
0
 10
4.02844
 20
-23.4002
 11
4.05768
 21
-23.3963
  0
LINE
  8
0
 10
4.05768
 20
-23.3963
 11
4.08594
 21
-23.3914
  0
LINE
  8
0
 10
4.08594
 20
-23.3914
 11
4.1132
 21
-23.3853
  0
LINE
  8
0
 10
4.1132
 20
-23.3853
 11
4.1395
 21
-23.3782
  0
LINE
  8
0
 10
4.1395
 20
-23.3782
 11
4.16481
 21
-23.37
  0
LINE
  8
0
 10
4.16481
 20
-23.37
 11
4.18913
 21
-23.3606
  0
LINE
  8
0
 10
4.18913
 20
-23.3606
 11
4.21248
 21
-23.3502
  0
LINE
  8
0
 10
4.21248
 20
-23.3502
 11
4.23483
 21
-23.3387
  0
LINE
  8
0
 10
4.23483
 20
-23.3387
 11
4.25621
 21
-23.3261
  0
LINE
  8
0
 10
4.25621
 20
-23.3261
 11
4.27661
 21
-23.3123
  0
LINE
  8
0
 10
4.27661
 20
-23.3123
 11
4.29613
 21
-23.2975
  0
LINE
  8
0
 10
4.29613
 20
-23.2975
 11
4.3149
 21
-23.2814
  0
LINE
  8
0
 10
4.3149
 20
-23.2814
 11
4.33289
 21
-23.2641
  0
LINE
  8
0
 10
4.33289
 20
-23.2641
 11
4.35011
 21
-23.2455
  0
LINE
  8
0
 10
4.35011
 20
-23.2455
 11
4.36656
 21
-23.2258
  0
LINE
  8
0
 10
4.36656
 20
-23.2258
 11
4.38226
 21
-23.2049
  0
LINE
  8
0
 10
4.38226
 20
-23.2049
 11
4.39719
 21
-23.1827
  0
LINE
  8
0
 10
4.39719
 20
-23.1827
 11
4.41136
 21
-23.1593
  0
LINE
  8
0
 10
4.41136
 20
-23.1593
 11
4.42476
 21
-23.1348
  0
LINE
  8
0
 10
4.42476
 20
-23.1348
 11
4.43738
 21
-23.1089
  0
LINE
  8
0
 10
4.43738
 20
-23.1089
 11
4.44925
 21
-23.0819
  0
LINE
  8
0
 10
4.44925
 20
-23.0819
 11
4.46036
 21
-23.0537
  0
LINE
  8
0
 10
4.46036
 20
-23.0537
 11
4.47069
 21
-23.0243
  0
LINE
  8
0
 10
4.47069
 20
-23.0243
 11
4.48026
 21
-22.9935
  0
LINE
  8
0
 10
4.48026
 20
-22.9935
 11
4.48906
 21
-22.9615
  0
LINE
  8
0
 10
4.48906
 20
-22.9615
 11
4.4971
 21
-22.9281
  0
LINE
  8
0
 10
4.4971
 20
-22.9281
 11
4.50438
 21
-22.8933
  0
LINE
  8
0
 10
4.50438
 20
-22.8933
 11
4.51088
 21
-22.8573
  0
LINE
  8
0
 10
4.51088
 20
-22.8573
 11
4.51662
 21
-22.8198
  0
LINE
  8
0
 10
4.51662
 20
-22.8198
 11
4.52161
 21
-22.781
  0
LINE
  8
0
 10
4.52161
 20
-22.781
 11
4.52582
 21
-22.7409
  0
LINE
  8
0
 10
4.52582
 20
-22.7409
 11
4.52925
 21
-22.6994
  0
LINE
  8
0
 10
4.52925
 20
-22.6994
 11
4.53194
 21
-22.6566
  0
LINE
  8
0
 10
4.53194
 20
-22.6566
 11
4.53384
 21
-22.6125
  0
LINE
  8
0
 10
4.53384
 20
-22.6125
 11
4.535
 21
-22.567
  0
LINE
  8
0
 10
4.535
 20
-22.567
 11
4.53539
 21
-22.5202
  0
LINE
  8
0
 10
4.53539
 20
-22.5202
 11
4.53189
 21
-22.3893
  0
LINE
  8
0
 10
4.53189
 20
-22.3893
 11
4.52139
 21
-22.2688
  0
LINE
  8
0
 10
4.52139
 20
-22.2688
 11
4.50392
 21
-22.1589
  0
LINE
  8
0
 10
4.50392
 20
-22.1589
 11
4.47945
 21
-22.0594
  0
LINE
  8
0
 10
4.47945
 20
-22.0594
 11
4.44798
 21
-21.9704
  0
LINE
  8
0
 10
4.44798
 20
-21.9704
 11
4.40953
 21
-21.8918
  0
LINE
  8
0
 10
4.40953
 20
-21.8918
 11
4.36409
 21
-21.8237
  0
LINE
  8
0
 10
4.36409
 20
-21.8237
 11
4.31166
 21
-21.7661
  0
LINE
  8
0
 10
4.31166
 20
-21.7661
 11
4.25223
 21
-21.719
  0
LINE
  8
0
 10
4.25223
 20
-21.719
 11
4.18581
 21
-21.6824
  0
LINE
  8
0
 10
4.18581
 20
-21.6824
 11
4.1124
 21
-21.6562
  0
LINE
  8
0
 10
4.1124
 20
-21.6562
 11
4.032
 21
-21.6405
  0
LINE
  8
0
 10
4.032
 20
-21.6405
 11
3.9446
 21
-21.6352
  0
LINE
  8
0
 10
3.9446
 20
-21.6352
 11
3.89948
 21
-21.6366
  0
LINE
  8
0
 10
3.89948
 20
-21.6366
 11
3.85612
 21
-21.6405
  0
LINE
  8
0
 10
3.85612
 20
-21.6405
 11
3.81454
 21
-21.6472
  0
LINE
  8
0
 10
3.81454
 20
-21.6472
 11
3.77472
 21
-21.6565
  0
LINE
  8
0
 10
3.77472
 20
-21.6565
 11
3.73668
 21
-21.6684
  0
LINE
  8
0
 10
3.73668
 20
-21.6684
 11
3.70041
 21
-21.6831
  0
LINE
  8
0
 10
3.70041
 20
-21.6831
 11
3.66589
 21
-21.7003
  0
LINE
  8
0
 10
3.66589
 20
-21.7003
 11
3.63316
 21
-21.7203
  0
LINE
  8
0
 10
3.63316
 20
-21.7203
 11
3.6022
 21
-21.7429
  0
LINE
  8
0
 10
3.6022
 20
-21.7429
 11
3.573
 21
-21.7681
  0
LINE
  8
0
 10
3.573
 20
-21.7681
 11
3.54558
 21
-21.796
  0
LINE
  8
0
 10
3.54558
 20
-21.796
 11
3.51991
 21
-21.8266
  0
LINE
  8
0
 10
3.51991
 20
-21.8266
 11
3.49602
 21
-21.8598
  0
LINE
  8
0
 10
3.49602
 20
-21.8598
 11
3.47391
 21
-21.8956
  0
LINE
  8
0
 10
3.47391
 20
-21.8956
 11
3.45355
 21
-21.9339
  0
LINE
  8
0
 10
3.45355
 20
-21.9339
 11
3.43498
 21
-21.9747
  0
LINE
  8
0
 10
3.43498
 20
-21.9747
 11
3.41817
 21
-22.018
  0
LINE
  8
0
 10
3.41817
 20
-22.018
 11
3.40312
 21
-22.0638
  0
LINE
  8
0
 10
3.40312
 20
-22.0638
 11
3.38985
 21
-22.1121
  0
LINE
  8
0
 10
3.38985
 20
-22.1121
 11
3.37836
 21
-22.1629
  0
LINE
  8
0
 10
3.37836
 20
-22.1629
 11
3.36862
 21
-22.2162
  0
LINE
  8
0
 10
3.36862
 20
-22.2162
 11
3.36066
 21
-22.272
  0
LINE
  8
0
 10
3.36066
 20
-22.272
 11
3.35446
 21
-22.3303
  0
LINE
  8
0
 10
3.35446
 20
-22.3303
 11
3.35004
 21
-22.3911
  0
LINE
  8
0
 10
3.35004
 20
-22.3911
 11
3.34738
 21
-22.4544
  0
LINE
  8
0
 10
3.34738
 20
-22.4544
 11
3.3465
 21
-22.5202
  0
LINE
  8
0
 10
3.3465
 20
-22.5202
 11
3.34734
 21
-22.587
  0
LINE
  8
0
 10
3.34734
 20
-22.587
 11
3.34985
 21
-22.6512
  0
LINE
  8
0
 10
3.34985
 20
-22.6512
 11
3.35403
 21
-22.7128
  0
LINE
  8
0
 10
3.35403
 20
-22.7128
 11
3.35991
 21
-22.7718
  0
LINE
  8
0
 10
3.35991
 20
-22.7718
 11
3.36745
 21
-22.8281
  0
LINE
  8
0
 10
3.36745
 20
-22.8281
 11
3.37666
 21
-22.8818
  0
LINE
  8
0
 10
3.37666
 20
-22.8818
 11
3.38754
 21
-22.9329
  0
LINE
  8
0
 10
3.38754
 20
-22.9329
 11
3.40012
 21
-22.9814
  0
LINE
  8
0
 10
3.40012
 20
-22.9814
 11
3.41435
 21
-23.0272
  0
LINE
  8
0
 10
3.41435
 20
-23.0272
 11
3.43028
 21
-23.0704
  0
LINE
  8
0
 10
3.43028
 20
-23.0704
 11
3.44788
 21
-23.1109
  0
LINE
  8
0
 10
3.44788
 20
-23.1109
 11
3.46715
 21
-23.1489
  0
LINE
  8
0
 10
3.46715
 20
-23.1489
 11
3.48808
 21
-23.1842
  0
LINE
  8
0
 10
3.48808
 20
-23.1842
 11
3.51083
 21
-23.2169
  0
LINE
  8
0
 10
3.51083
 20
-23.2169
 11
3.53552
 21
-23.2469
  0
LINE
  8
0
 10
3.53552
 20
-23.2469
 11
3.56215
 21
-23.2744
  0
LINE
  8
0
 10
3.56215
 20
-23.2744
 11
3.5907
 21
-23.2992
  0
LINE
  8
0
 10
3.5907
 20
-23.2992
 11
3.6212
 21
-23.3214
  0
LINE
  8
0
 10
3.6212
 20
-23.3214
 11
3.65363
 21
-23.341
  0
LINE
  8
0
 10
3.65363
 20
-23.341
 11
3.68799
 21
-23.358
  0
LINE
  8
0
 10
3.68799
 20
-23.358
 11
3.72429
 21
-23.3724
  0
LINE
  8
0
 10
3.72429
 20
-23.3724
 11
3.76253
 21
-23.3842
  0
LINE
  8
0
 10
3.76253
 20
-23.3842
 11
3.8027
 21
-23.3933
  0
LINE
  8
0
 10
3.8027
 20
-23.3933
 11
3.8448
 21
-23.3999
  0
LINE
  8
0
 10
3.8448
 20
-23.3999
 11
3.88885
 21
-23.4038
  0
LINE
  8
0
 10
3.88885
 20
-23.4038
 11
3.93483
 21
-23.4051
  0
LINE
  8
0
 10
3.93483
 20
-23.4051
 11
3.96701
 21
-23.4046
  0
LINE
  8
0
 10
3.92253
 20
-23.1362
 11
3.90833
 21
-23.1352
  0
LINE
  8
0
 10
3.90833
 20
-23.1352
 11
3.89468
 21
-23.1335
  0
LINE
  8
0
 10
3.89468
 20
-23.1335
 11
3.88158
 21
-23.1311
  0
LINE
  8
0
 10
3.88158
 20
-23.1311
 11
3.86902
 21
-23.1281
  0
LINE
  8
0
 10
3.86902
 20
-23.1281
 11
3.85703
 21
-23.1243
  0
LINE
  8
0
 10
3.85703
 20
-23.1243
 11
3.84557
 21
-23.1199
  0
LINE
  8
0
 10
3.84557
 20
-23.1199
 11
3.83466
 21
-23.1149
  0
LINE
  8
0
 10
3.83466
 20
-23.1149
 11
3.8243
 21
-23.1091
  0
LINE
  8
0
 10
3.8243
 20
-23.1091
 11
3.8145
 21
-23.1026
  0
LINE
  8
0
 10
3.8145
 20
-23.1026
 11
3.80524
 21
-23.0955
  0
LINE
  8
0
 10
3.80524
 20
-23.0955
 11
3.79652
 21
-23.0877
  0
LINE
  8
0
 10
3.79652
 20
-23.0877
 11
3.78836
 21
-23.0792
  0
LINE
  8
0
 10
3.78836
 20
-23.0792
 11
3.78064
 21
-23.0699
  0
LINE
  8
0
 10
3.78064
 20
-23.0699
 11
3.77325
 21
-23.0598
  0
LINE
  8
0
 10
3.77325
 20
-23.0598
 11
3.76619
 21
-23.0488
  0
LINE
  8
0
 10
3.76619
 20
-23.0488
 11
3.75948
 21
-23.0368
  0
LINE
  8
0
 10
3.75948
 20
-23.0368
 11
3.75308
 21
-23.0241
  0
LINE
  8
0
 10
3.75308
 20
-23.0241
 11
3.74702
 21
-23.0104
  0
LINE
  8
0
 10
3.74702
 20
-23.0104
 11
3.7413
 21
-22.9958
  0
LINE
  8
0
 10
3.7413
 20
-22.9958
 11
3.7359
 21
-22.9804
  0
LINE
  8
0
 10
3.7359
 20
-22.9804
 11
3.73083
 21
-22.9641
  0
LINE
  8
0
 10
3.73083
 20
-22.9641
 11
3.7261
 21
-22.9469
  0
LINE
  8
0
 10
3.7261
 20
-22.9469
 11
3.72171
 21
-22.9288
  0
LINE
  8
0
 10
3.72171
 20
-22.9288
 11
3.71765
 21
-22.9099
  0
LINE
  8
0
 10
3.71765
 20
-22.9099
 11
3.71391
 21
-22.89
  0
LINE
  8
0
 10
3.71391
 20
-22.89
 11
3.71048
 21
-22.8691
  0
LINE
  8
0
 10
3.71048
 20
-22.8691
 11
3.70732
 21
-22.8469
  0
LINE
  8
0
 10
3.70732
 20
-22.8469
 11
3.70444
 21
-22.8235
  0
LINE
  8
0
 10
3.70444
 20
-22.8235
 11
3.70183
 21
-22.7988
  0
LINE
  8
0
 10
3.70183
 20
-22.7988
 11
3.69949
 21
-22.7729
  0
LINE
  8
0
 10
3.69949
 20
-22.7729
 11
3.69743
 21
-22.7457
  0
LINE
  8
0
 10
3.69743
 20
-22.7457
 11
3.69565
 21
-22.7173
  0
LINE
  8
0
 10
3.69565
 20
-22.7173
 11
3.69414
 21
-22.6875
  0
LINE
  8
0
 10
3.69414
 20
-22.6875
 11
3.6929
 21
-22.6566
  0
LINE
  8
0
 10
3.6929
 20
-22.6566
 11
3.69194
 21
-22.6244
  0
LINE
  8
0
 10
3.69194
 20
-22.6244
 11
3.69125
 21
-22.5909
  0
LINE
  8
0
 10
3.69125
 20
-22.5909
 11
3.69086
 21
-22.5562
  0
LINE
  8
0
 10
3.69086
 20
-22.5562
 11
3.69072
 21
-22.5202
  0
LINE
  8
0
 10
3.69072
 20
-22.5202
 11
3.69086
 21
-22.4856
  0
LINE
  8
0
 10
3.69086
 20
-22.4856
 11
3.69127
 21
-22.4522
  0
LINE
  8
0
 10
3.69127
 20
-22.4522
 11
3.69199
 21
-22.4199
  0
LINE
  8
0
 10
3.69199
 20
-22.4199
 11
3.69296
 21
-22.3887
  0
LINE
  8
0
 10
3.69296
 20
-22.3887
 11
3.69423
 21
-22.3587
  0
LINE
  8
0
 10
3.69423
 20
-22.3587
 11
3.69579
 21
-22.3298
  0
LINE
  8
0
 10
3.69579
 20
-22.3298
 11
3.69762
 21
-22.302
  0
LINE
  8
0
 10
3.69762
 20
-22.302
 11
3.69974
 21
-22.2753
  0
LINE
  8
0
 10
3.69974
 20
-22.2753
 11
3.70213
 21
-22.2498
  0
LINE
  8
0
 10
3.70213
 20
-22.2498
 11
3.7048
 21
-22.2253
  0
LINE
  8
0
 10
3.7048
 20
-22.2253
 11
3.70776
 21
-22.2021
  0
LINE
  8
0
 10
3.70776
 20
-22.2021
 11
3.711
 21
-22.1799
  0
LINE
  8
0
 10
3.711
 20
-22.1799
 11
3.71452
 21
-22.1589
  0
LINE
  8
0
 10
3.71452
 20
-22.1589
 11
3.71835
 21
-22.1388
  0
LINE
  8
0
 10
3.71835
 20
-22.1388
 11
3.72253
 21
-22.1196
  0
LINE
  8
0
 10
3.72253
 20
-22.1196
 11
3.72707
 21
-22.1013
  0
LINE
  8
0
 10
3.72707
 20
-22.1013
 11
3.73195
 21
-22.0839
  0
LINE
  8
0
 10
3.73195
 20
-22.0839
 11
3.73717
 21
-22.0673
  0
LINE
  8
0
 10
3.73717
 20
-22.0673
 11
3.74274
 21
-22.0515
  0
LINE
  8
0
 10
3.74274
 20
-22.0515
 11
3.74864
 21
-22.0367
  0
LINE
  8
0
 10
3.74864
 20
-22.0367
 11
3.75491
 21
-22.0226
  0
LINE
  8
0
 10
3.75491
 20
-22.0226
 11
3.76152
 21
-22.0095
  0
LINE
  8
0
 10
3.76152
 20
-22.0095
 11
3.76848
 21
-21.9972
  0
LINE
  8
0
 10
3.76848
 20
-21.9972
 11
3.77577
 21
-21.9857
  0
LINE
  8
0
 10
3.77577
 20
-21.9857
 11
3.78343
 21
-21.9751
  0
LINE
  8
0
 10
3.78343
 20
-21.9751
 11
3.79143
 21
-21.9654
  0
LINE
  8
0
 10
3.79143
 20
-21.9654
 11
3.79985
 21
-21.9565
  0
LINE
  8
0
 10
3.79985
 20
-21.9565
 11
3.80881
 21
-21.9482
  0
LINE
  8
0
 10
3.80881
 20
-21.9482
 11
3.8183
 21
-21.9407
  0
LINE
  8
0
 10
3.8183
 20
-21.9407
 11
3.82831
 21
-21.9339
  0
LINE
  8
0
 10
3.82831
 20
-21.9339
 11
3.83885
 21
-21.9279
  0
LINE
  8
0
 10
3.83885
 20
-21.9279
 11
3.84991
 21
-21.9225
  0
LINE
  8
0
 10
3.84991
 20
-21.9225
 11
3.86151
 21
-21.9178
  0
LINE
  8
0
 10
3.86151
 20
-21.9178
 11
3.87363
 21
-21.9139
  0
LINE
  8
0
 10
3.87363
 20
-21.9139
 11
3.88628
 21
-21.9107
  0
LINE
  8
0
 10
3.88628
 20
-21.9107
 11
3.89946
 21
-21.9082
  0
LINE
  8
0
 10
3.89946
 20
-21.9082
 11
3.91316
 21
-21.9064
  0
LINE
  8
0
 10
3.91316
 20
-21.9064
 11
3.9274
 21
-21.9053
  0
LINE
  8
0
 10
3.9274
 20
-21.9053
 11
3.94215
 21
-21.905
  0
LINE
  8
0
 10
3.94215
 20
-21.905
 11
3.95709
 21
-21.9053
  0
LINE
  8
0
 10
3.95709
 20
-21.9053
 11
3.97147
 21
-21.9063
  0
LINE
  8
0
 10
3.97147
 20
-21.9063
 11
3.98529
 21
-21.908
  0
LINE
  8
0
 10
3.98529
 20
-21.908
 11
3.99855
 21
-21.9104
  0
LINE
  8
0
 10
3.99855
 20
-21.9104
 11
4.01126
 21
-21.9135
  0
LINE
  8
0
 10
4.01126
 20
-21.9135
 11
4.02341
 21
-21.9172
  0
LINE
  8
0
 10
4.02341
 20
-21.9172
 11
4.035
 21
-21.9216
  0
LINE
  8
0
 10
4.035
 20
-21.9216
 11
4.04605
 21
-21.9267
  0
LINE
  8
0
 10
4.04605
 20
-21.9267
 11
4.05653
 21
-21.9325
  0
LINE
  8
0
 10
4.05653
 20
-21.9325
 11
4.06645
 21
-21.9389
  0
LINE
  8
0
 10
4.06645
 20
-21.9389
 11
4.07584
 21
-21.946
  0
LINE
  8
0
 10
4.07584
 20
-21.946
 11
4.08464
 21
-21.9539
  0
LINE
  8
0
 10
4.08464
 20
-21.9539
 11
4.09291
 21
-21.9623
  0
LINE
  8
0
 10
4.09291
 20
-21.9623
 11
4.10072
 21
-21.9716
  0
LINE
  8
0
 10
4.10072
 20
-21.9716
 11
4.1082
 21
-21.9818
  0
LINE
  8
0
 10
4.1082
 20
-21.9818
 11
4.11536
 21
-21.9928
  0
LINE
  8
0
 10
4.11536
 20
-21.9928
 11
4.12218
 21
-22.0048
  0
LINE
  8
0
 10
4.12218
 20
-22.0048
 11
4.12866
 21
-22.0176
  0
LINE
  8
0
 10
4.12866
 20
-22.0176
 11
4.13481
 21
-22.0313
  0
LINE
  8
0
 10
4.13481
 20
-22.0313
 11
4.14064
 21
-22.0459
  0
LINE
  8
0
 10
4.14064
 20
-22.0459
 11
4.14612
 21
-22.0614
  0
LINE
  8
0
 10
4.14612
 20
-22.0614
 11
4.15128
 21
-22.0778
  0
LINE
  8
0
 10
4.15128
 20
-22.0778
 11
4.15611
 21
-22.095
  0
LINE
  8
0
 10
4.15611
 20
-22.095
 11
4.1606
 21
-22.1132
  0
LINE
  8
0
 10
4.1606
 20
-22.1132
 11
4.16476
 21
-22.1322
  0
LINE
  8
0
 10
4.16476
 20
-22.1322
 11
4.16859
 21
-22.1521
  0
LINE
  8
0
 10
4.16859
 20
-22.1521
 11
4.17212
 21
-22.1731
  0
LINE
  8
0
 10
4.17212
 20
-22.1731
 11
4.17535
 21
-22.1953
  0
LINE
  8
0
 10
4.17535
 20
-22.1953
 11
4.17831
 21
-22.2188
  0
LINE
  8
0
 10
4.17831
 20
-22.2188
 11
4.18098
 21
-22.2434
  0
LINE
  8
0
 10
4.18098
 20
-22.2434
 11
4.18338
 21
-22.2693
  0
LINE
  8
0
 10
4.18338
 20
-22.2693
 11
4.18549
 21
-22.2964
  0
LINE
  8
0
 10
4.18549
 20
-22.2964
 11
4.18732
 21
-22.3247
  0
LINE
  8
0
 10
4.18732
 20
-22.3247
 11
4.18887
 21
-22.3542
  0
LINE
  8
0
 10
4.18887
 20
-22.3542
 11
4.19014
 21
-22.385
  0
LINE
  8
0
 10
4.19014
 20
-22.385
 11
4.19112
 21
-22.4169
  0
LINE
  8
0
 10
4.19112
 20
-22.4169
 11
4.19183
 21
-22.4501
  0
LINE
  8
0
 10
4.19183
 20
-22.4501
 11
4.19225
 21
-22.4845
  0
LINE
  8
0
 10
4.19225
 20
-22.4845
 11
4.19238
 21
-22.5202
  0
LINE
  8
0
 10
4.19238
 20
-22.5202
 11
4.19226
 21
-22.5562
  0
LINE
  8
0
 10
4.19226
 20
-22.5562
 11
4.19185
 21
-22.5909
  0
LINE
  8
0
 10
4.19185
 20
-22.5909
 11
4.19119
 21
-22.6243
  0
LINE
  8
0
 10
4.19119
 20
-22.6243
 11
4.19025
 21
-22.6565
  0
LINE
  8
0
 10
4.19025
 20
-22.6565
 11
4.18906
 21
-22.6875
  0
LINE
  8
0
 10
4.18906
 20
-22.6875
 11
4.18758
 21
-22.7171
  0
LINE
  8
0
 10
4.18758
 20
-22.7171
 11
4.18585
 21
-22.7455
  0
LINE
  8
0
 10
4.18585
 20
-22.7455
 11
4.18384
 21
-22.7727
  0
LINE
  8
0
 10
4.18384
 20
-22.7727
 11
4.18156
 21
-22.7985
  0
LINE
  8
0
 10
4.18156
 20
-22.7985
 11
4.17903
 21
-22.8232
  0
LINE
  8
0
 10
4.17903
 20
-22.8232
 11
4.17622
 21
-22.8465
  0
LINE
  8
0
 10
4.17622
 20
-22.8465
 11
4.17316
 21
-22.8686
  0
LINE
  8
0
 10
4.17316
 20
-22.8686
 11
4.16982
 21
-22.8894
  0
LINE
  8
0
 10
4.16982
 20
-22.8894
 11
4.16617
 21
-22.9091
  0
LINE
  8
0
 10
4.16617
 20
-22.9091
 11
4.16214
 21
-22.928
  0
LINE
  8
0
 10
4.16214
 20
-22.928
 11
4.15776
 21
-22.9461
  0
LINE
  8
0
 10
4.15776
 20
-22.9461
 11
4.15303
 21
-22.9632
  0
LINE
  8
0
 10
4.15303
 20
-22.9632
 11
4.14793
 21
-22.9795
  0
LINE
  8
0
 10
4.14793
 20
-22.9795
 11
4.14247
 21
-22.9949
  0
LINE
  8
0
 10
4.14247
 20
-22.9949
 11
4.13664
 21
-23.0095
  0
LINE
  8
0
 10
4.13664
 20
-23.0095
 11
4.13046
 21
-23.0232
  0
LINE
  8
0
 10
4.13046
 20
-23.0232
 11
4.12392
 21
-23.036
  0
LINE
  8
0
 10
4.12392
 20
-23.036
 11
4.117
 21
-23.0479
  0
LINE
  8
0
 10
4.117
 20
-23.0479
 11
4.10974
 21
-23.059
  0
LINE
  8
0
 10
4.10974
 20
-23.059
 11
4.10211
 21
-23.0692
  0
LINE
  8
0
 10
4.10211
 20
-23.0692
 11
4.09413
 21
-23.0786
  0
LINE
  8
0
 10
4.09413
 20
-23.0786
 11
4.08566
 21
-23.0872
  0
LINE
  8
0
 10
4.08566
 20
-23.0872
 11
4.07658
 21
-23.0951
  0
LINE
  8
0
 10
4.07658
 20
-23.0951
 11
4.06693
 21
-23.1023
  0
LINE
  8
0
 10
4.06693
 20
-23.1023
 11
4.05666
 21
-23.1088
  0
LINE
  8
0
 10
4.05666
 20
-23.1088
 11
4.04579
 21
-23.1146
  0
LINE
  8
0
 10
4.04579
 20
-23.1146
 11
4.03432
 21
-23.1198
  0
LINE
  8
0
 10
4.03432
 20
-23.1198
 11
4.02226
 21
-23.1242
  0
LINE
  8
0
 10
4.02226
 20
-23.1242
 11
4.0096
 21
-23.128
  0
LINE
  8
0
 10
4.0096
 20
-23.128
 11
3.99632
 21
-23.1311
  0
LINE
  8
0
 10
3.99632
 20
-23.1311
 11
3.98247
 21
-23.1335
  0
LINE
  8
0
 10
3.98247
 20
-23.1335
 11
3.968
 21
-23.1352
  0
LINE
  8
0
 10
3.968
 20
-23.1352
 11
3.95294
 21
-23.1362
  0
LINE
  8
0
 10
3.95294
 20
-23.1362
 11
3.93727
 21
-23.1366
  0
LINE
  8
0
 10
3.93727
 20
-23.1366
 11
3.92253
 21
-23.1362
  0
LINE
  8
0
 10
-5.28247
 20
-23.4044
 11
-5.24477
 21
-23.4021
  0
LINE
  8
0
 10
-5.24477
 20
-23.4021
 11
-5.20834
 21
-23.3984
  0
LINE
  8
0
 10
-5.20834
 20
-23.3984
 11
-5.1732
 21
-23.3932
  0
LINE
  8
0
 10
-5.1732
 20
-23.3932
 11
-5.13933
 21
-23.3865
  0
LINE
  8
0
 10
-5.13933
 20
-23.3865
 11
-5.10674
 21
-23.3783
  0
LINE
  8
0
 10
-5.10674
 20
-23.3783
 11
-5.07542
 21
-23.3687
  0
LINE
  8
0
 10
-5.07542
 20
-23.3687
 11
-5.04538
 21
-23.3575
  0
LINE
  8
0
 10
-5.04538
 20
-23.3575
 11
-5.01663
 21
-23.3448
  0
LINE
  8
0
 10
-5.01663
 20
-23.3448
 11
-4.98915
 21
-23.3307
  0
LINE
  8
0
 10
-4.98915
 20
-23.3307
 11
-4.96295
 21
-23.3151
  0
LINE
  8
0
 10
-4.96295
 20
-23.3151
 11
-4.93803
 21
-23.298
  0
LINE
  8
0
 10
-4.93803
 20
-23.298
 11
-4.91438
 21
-23.2794
  0
LINE
  8
0
 10
-4.91438
 20
-23.2794
 11
-4.89209
 21
-23.2594
  0
LINE
  8
0
 10
-4.89209
 20
-23.2594
 11
-4.87123
 21
-23.238
  0
LINE
  8
0
 10
-4.87123
 20
-23.238
 11
-4.85178
 21
-23.2153
  0
LINE
  8
0
 10
-4.85178
 20
-23.2153
 11
-4.83376
 21
-23.1913
  0
LINE
  8
0
 10
-4.83376
 20
-23.1913
 11
-4.81715
 21
-23.1659
  0
LINE
  8
0
 10
-4.81715
 20
-23.1659
 11
-4.80197
 21
-23.1392
  0
LINE
  8
0
 10
-4.80197
 20
-23.1392
 11
-4.78822
 21
-23.1111
  0
LINE
  8
0
 10
-4.78822
 20
-23.1111
 11
-4.77588
 21
-23.0817
  0
LINE
  8
0
 10
-4.77588
 20
-23.0817
 11
-4.76497
 21
-23.0509
  0
LINE
  8
0
 10
-4.76497
 20
-23.0509
 11
-4.75548
 21
-23.0188
  0
LINE
  8
0
 10
-4.75548
 20
-23.0188
 11
-4.74742
 21
-22.9854
  0
LINE
  8
0
 10
-4.74742
 20
-22.9854
 11
-4.74078
 21
-22.9505
  0
LINE
  8
0
 10
-4.74078
 20
-22.9505
 11
-4.73557
 21
-22.9144
  0
LINE
  8
0
 10
-4.73557
 20
-22.9144
 11
-5.08099
 21
-22.8949
  0
LINE
  8
0
 10
-5.08099
 20
-22.8949
 11
-5.08386
 21
-22.9128
  0
LINE
  8
0
 10
-5.08386
 20
-22.9128
 11
-5.08722
 21
-22.9299
  0
LINE
  8
0
 10
-5.08722
 20
-22.9299
 11
-5.09106
 21
-22.9464
  0
LINE
  8
0
 10
-5.09106
 20
-22.9464
 11
-5.09538
 21
-22.9621
  0
LINE
  8
0
 10
-5.09538
 20
-22.9621
 11
-5.1002
 21
-22.9772
  0
LINE
  8
0
 10
-5.1002
 20
-22.9772
 11
-5.10548
 21
-22.9916
  0
LINE
  8
0
 10
-5.10548
 20
-22.9916
 11
-5.11127
 21
-23.0052
  0
LINE
  8
0
 10
-5.11127
 20
-23.0052
 11
-5.11752
 21
-23.0182
  0
LINE
  8
0
 10
-5.11752
 20
-23.0182
 11
-5.12427
 21
-23.0305
  0
LINE
  8
0
 10
-5.12427
 20
-23.0305
 11
-5.13148
 21
-23.042
  0
LINE
  8
0
 10
-5.13148
 20
-23.042
 11
-5.13921
 21
-23.0529
  0
LINE
  8
0
 10
-5.13921
 20
-23.0529
 11
-5.1474
 21
-23.063
  0
LINE
  8
0
 10
-5.1474
 20
-23.063
 11
-5.15607
 21
-23.0725
  0
LINE
  8
0
 10
-5.15607
 20
-23.0725
 11
-5.1653
 21
-23.0813
  0
LINE
  8
0
 10
-5.1653
 20
-23.0813
 11
-5.17514
 21
-23.0893
  0
LINE
  8
0
 10
-5.17514
 20
-23.0893
 11
-5.18559
 21
-23.0967
  0
LINE
  8
0
 10
-5.18559
 20
-23.0967
 11
-5.19667
 21
-23.1033
  0
LINE
  8
0
 10
-5.19667
 20
-23.1033
 11
-5.20834
 21
-23.1093
  0
LINE
  8
0
 10
-5.20834
 20
-23.1093
 11
-5.22064
 21
-23.1145
  0
LINE
  8
0
 10
-5.22064
 20
-23.1145
 11
-5.23355
 21
-23.1191
  0
LINE
  8
0
 10
-5.23355
 20
-23.1191
 11
-5.24707
 21
-23.1229
  0
LINE
  8
0
 10
-5.24707
 20
-23.1229
 11
-5.26122
 21
-23.1261
  0
LINE
  8
0
 10
-5.26122
 20
-23.1261
 11
-5.27597
 21
-23.1285
  0
LINE
  8
0
 10
-5.27597
 20
-23.1285
 11
-5.29134
 21
-23.1303
  0
LINE
  8
0
 10
-5.29134
 20
-23.1303
 11
-5.30731
 21
-23.1313
  0
LINE
  8
0
 10
-5.30731
 20
-23.1313
 11
-5.32391
 21
-23.1317
  0
LINE
  8
0
 10
-5.32391
 20
-23.1317
 11
-5.35732
 21
-23.1304
  0
LINE
  8
0
 10
-5.35732
 20
-23.1304
 11
-5.38805
 21
-23.1264
  0
LINE
  8
0
 10
-5.38805
 20
-23.1264
 11
-5.41611
 21
-23.1197
  0
LINE
  8
0
 10
-5.41611
 20
-23.1197
 11
-5.44148
 21
-23.1104
  0
LINE
  8
0
 10
-5.44148
 20
-23.1104
 11
-5.4642
 21
-23.0985
  0
LINE
  8
0
 10
-5.4642
 20
-23.0985
 11
-5.48424
 21
-23.0838
  0
LINE
  8
0
 10
-5.48424
 20
-23.0838
 11
-5.50162
 21
-23.0666
  0
LINE
  8
0
 10
-5.50162
 20
-23.0666
 11
-5.51631
 21
-23.0466
  0
LINE
  8
0
 10
-5.51631
 20
-23.0466
 11
-5.52834
 21
-23.024
  0
LINE
  8
0
 10
-5.52834
 20
-23.024
 11
-5.53769
 21
-22.9988
  0
LINE
  8
0
 10
-5.53769
 20
-22.9988
 11
-5.54437
 21
-22.9709
  0
LINE
  8
0
 10
-5.54437
 20
-22.9709
 11
-5.54839
 21
-22.9403
  0
LINE
  8
0
 10
-5.54839
 20
-22.9403
 11
-5.54971
 21
-22.9071
  0
LINE
  8
0
 10
-5.54971
 20
-22.9071
 11
-5.54929
 21
-22.893
  0
LINE
  8
0
 10
-5.54929
 20
-22.893
 11
-5.548
 21
-22.8788
  0
LINE
  8
0
 10
-5.548
 20
-22.8788
 11
-5.54585
 21
-22.8646
  0
LINE
  8
0
 10
-5.54585
 20
-22.8646
 11
-5.54285
 21
-22.8504
  0
LINE
  8
0
 10
-5.54285
 20
-22.8504
 11
-5.53897
 21
-22.8361
  0
LINE
  8
0
 10
-5.53897
 20
-22.8361
 11
-5.53424
 21
-22.8218
  0
LINE
  8
0
 10
-5.53424
 20
-22.8218
 11
-5.52866
 21
-22.8074
  0
LINE
  8
0
 10
-5.52866
 20
-22.8074
 11
-5.52222
 21
-22.793
  0
LINE
  8
0
 10
-5.52222
 20
-22.793
 11
-5.51491
 21
-22.7786
  0
LINE
  8
0
 10
-5.51491
 20
-22.7786
 11
-5.50674
 21
-22.7641
  0
LINE
  8
0
 10
-5.50674
 20
-22.7641
 11
-5.49771
 21
-22.7495
  0
LINE
  8
0
 10
-5.49771
 20
-22.7495
 11
-5.48782
 21
-22.735
  0
LINE
  8
0
 10
-5.48782
 20
-22.735
 11
-5.47708
 21
-22.7203
  0
LINE
  8
0
 10
-5.47708
 20
-22.7203
 11
-5.46527
 21
-22.7054
  0
LINE
  8
0
 10
-5.46527
 20
-22.7054
 11
-5.45218
 21
-22.6898
  0
LINE
  8
0
 10
-5.45218
 20
-22.6898
 11
-5.43782
 21
-22.6737
  0
LINE
  8
0
 10
-5.43782
 20
-22.6737
 11
-5.42216
 21
-22.6569
  0
LINE
  8
0
 10
-5.42216
 20
-22.6569
 11
-5.40524
 21
-22.6395
  0
LINE
  8
0
 10
-5.40524
 20
-22.6395
 11
-5.38704
 21
-22.6215
  0
LINE
  8
0
 10
-5.38704
 20
-22.6215
 11
-5.36755
 21
-22.603
  0
LINE
  8
0
 10
-5.36755
 20
-22.603
 11
-5.3468
 21
-22.5837
  0
LINE
  8
0
 10
-5.3468
 20
-22.5837
 11
-5.32475
 21
-22.5639
  0
LINE
  8
0
 10
-5.32475
 20
-22.5639
 11
-5.30144
 21
-22.5435
  0
LINE
  8
0
 10
-5.30144
 20
-22.5435
 11
-5.27684
 21
-22.5225
  0
LINE
  8
0
 10
-5.27684
 20
-22.5225
 11
-5.25096
 21
-22.5009
  0
LINE
  8
0
 10
-5.25096
 20
-22.5009
 11
-5.2238
 21
-22.4787
  0
LINE
  8
0
 10
-5.2238
 20
-22.4787
 11
-5.19527
 21
-22.4553
  0
LINE
  8
0
 10
-5.19527
 20
-22.4553
 11
-5.16748
 21
-22.432
  0
LINE
  8
0
 10
-5.16748
 20
-22.432
 11
-5.14046
 21
-22.4089
  0
LINE
  8
0
 10
-5.14046
 20
-22.4089
 11
-5.1142
 21
-22.3859
  0
LINE
  8
0
 10
-5.1142
 20
-22.3859
 11
-5.0887
 21
-22.3631
  0
LINE
  8
0
 10
-5.0887
 20
-22.3631
 11
-5.06395
 21
-22.3404
  0
LINE
  8
0
 10
-5.06395
 20
-22.3404
 11
-5.03995
 21
-22.3179
  0
LINE
  8
0
 10
-5.03995
 20
-22.3179
 11
-5.01672
 21
-22.2955
  0
LINE
  8
0
 10
-5.01672
 20
-22.2955
 11
-4.99425
 21
-22.2733
  0
LINE
  8
0
 10
-4.99425
 20
-22.2733
 11
-4.97253
 21
-22.2512
  0
LINE
  8
0
 10
-4.97253
 20
-22.2512
 11
-4.95158
 21
-22.2292
  0
LINE
  8
0
 10
-4.95158
 20
-22.2292
 11
-4.93138
 21
-22.2074
  0
LINE
  8
0
 10
-4.93138
 20
-22.2074
 11
-4.91194
 21
-22.1857
  0
LINE
  8
0
 10
-4.91194
 20
-22.1857
 11
-4.89322
 21
-22.1641
  0
LINE
  8
0
 10
-4.89322
 20
-22.1641
 11
-4.87517
 21
-22.1423
  0
LINE
  8
0
 10
-4.87517
 20
-22.1423
 11
-4.85779
 21
-22.1205
  0
LINE
  8
0
 10
-4.85779
 20
-22.1205
 11
-4.84108
 21
-22.0986
  0
LINE
  8
0
 10
-4.84108
 20
-22.0986
 11
-4.82504
 21
-22.0767
  0
LINE
  8
0
 10
-4.82504
 20
-22.0767
 11
-4.80968
 21
-22.0546
  0
LINE
  8
0
 10
-4.80968
 20
-22.0546
 11
-4.79498
 21
-22.0324
  0
LINE
  8
0
 10
-4.79498
 20
-22.0324
 11
-4.78096
 21
-22.0102
  0
LINE
  8
0
 10
-4.78096
 20
-22.0102
 11
-4.76761
 21
-21.9879
  0
LINE
  8
0
 10
-4.76761
 20
-21.9879
 11
-4.75493
 21
-21.9654
  0
LINE
  8
0
 10
-4.75493
 20
-21.9654
 11
-4.74292
 21
-21.9429
  0
LINE
  8
0
 10
-4.74292
 20
-21.9429
 11
-4.73158
 21
-21.9203
  0
LINE
  8
0
 10
-4.73158
 20
-21.9203
 11
-4.72092
 21
-21.8976
  0
LINE
  8
0
 10
-4.72092
 20
-21.8976
 11
-4.72092
 21
-21.6596
  0
LINE
  8
0
 10
-4.72092
 20
-21.6596
 11
-5.92445
 21
-21.6596
  0
LINE
  8
0
 10
-5.92445
 20
-21.6596
 11
-5.92445
 21
-21.9416
  0
LINE
  8
0
 10
-5.92445
 20
-21.9416
 11
-5.12616
 21
-21.9416
  0
LINE
  8
0
 10
-5.12616
 20
-21.9416
 11
-5.13162
 21
-21.9538
  0
LINE
  8
0
 10
-5.13162
 20
-21.9538
 11
-5.13753
 21
-21.9658
  0
LINE
  8
0
 10
-5.13753
 20
-21.9658
 11
-5.14384
 21
-21.9777
  0
LINE
  8
0
 10
-5.14384
 20
-21.9777
 11
-5.1506
 21
-21.9895
  0
LINE
  8
0
 10
-5.1506
 20
-21.9895
 11
-5.15778
 21
-22.0012
  0
LINE
  8
0
 10
-5.15778
 20
-22.0012
 11
-5.16537
 21
-22.0128
  0
LINE
  8
0
 10
-5.16537
 20
-22.0128
 11
-5.1734
 21
-22.0242
  0
LINE
  8
0
 10
-5.1734
 20
-22.0242
 11
-5.18185
 21
-22.0356
  0
LINE
  8
0
 10
-5.18185
 20
-22.0356
 11
-5.19073
 21
-22.0468
  0
LINE
  8
0
 10
-5.19073
 20
-22.0468
 11
-5.20004
 21
-22.0579
  0
LINE
  8
0
 10
-5.20004
 20
-22.0579
 11
-5.20978
 21
-22.0689
  0
LINE
  8
0
 10
-5.20978
 20
-22.0689
 11
-5.21994
 21
-22.0798
  0
LINE
  8
0
 10
-5.21994
 20
-22.0798
 11
-5.23051
 21
-22.0905
  0
LINE
  8
0
 10
-5.23051
 20
-22.0905
 11
-5.24141
 21
-22.1012
  0
LINE
  8
0
 10
-5.24141
 20
-22.1012
 11
-5.25249
 21
-22.1119
  0
LINE
  8
0
 10
-5.25249
 20
-22.1119
 11
-5.26373
 21
-22.1226
  0
LINE
  8
0
 10
-5.26373
 20
-22.1226
 11
-5.27516
 21
-22.1332
  0
LINE
  8
0
 10
-5.27516
 20
-22.1332
 11
-5.28677
 21
-22.1438
  0
LINE
  8
0
 10
-5.28677
 20
-22.1438
 11
-5.29857
 21
-22.1545
  0
LINE
  8
0
 10
-5.29857
 20
-22.1545
 11
-5.31053
 21
-22.1651
  0
LINE
  8
0
 10
-5.31053
 20
-22.1651
 11
-5.32269
 21
-22.1757
  0
LINE
  8
0
 10
-5.32269
 20
-22.1757
 11
-5.33502
 21
-22.1863
  0
LINE
  8
0
 10
-5.33502
 20
-22.1863
 11
-5.34753
 21
-22.1968
  0
LINE
  8
0
 10
-5.34753
 20
-22.1968
 11
-5.36023
 21
-22.2074
  0
LINE
  8
0
 10
-5.36023
 20
-22.2074
 11
-5.37309
 21
-22.2179
  0
LINE
  8
0
 10
-5.37309
 20
-22.2179
 11
-5.38615
 21
-22.2284
  0
LINE
  8
0
 10
-5.38615
 20
-22.2284
 11
-5.46619
 21
-22.2923
  0
LINE
  8
0
 10
-5.46619
 20
-22.2923
 11
-5.56253
 21
-22.3688
  0
LINE
  8
0
 10
-5.56253
 20
-22.3688
 11
-5.57643
 21
-22.38
  0
LINE
  8
0
 10
-5.57643
 20
-22.38
 11
-5.59012
 21
-22.3912
  0
LINE
  8
0
 10
-5.59012
 20
-22.3912
 11
-5.60362
 21
-22.4026
  0
LINE
  8
0
 10
-5.60362
 20
-22.4026
 11
-5.61693
 21
-22.4141
  0
LINE
  8
0
 10
-5.61693
 20
-22.4141
 11
-5.63005
 21
-22.4258
  0
LINE
  8
0
 10
-5.63005
 20
-22.4258
 11
-5.64296
 21
-22.4375
  0
LINE
  8
0
 10
-5.64296
 20
-22.4375
 11
-5.65569
 21
-22.4494
  0
LINE
  8
0
 10
-5.65569
 20
-22.4494
 11
-5.66821
 21
-22.4614
  0
LINE
  8
0
 10
-5.66821
 20
-22.4614
 11
-5.68054
 21
-22.4735
  0
LINE
  8
0
 10
-5.68054
 20
-22.4735
 11
-5.69269
 21
-22.4857
  0
LINE
  8
0
 10
-5.69269
 20
-22.4857
 11
-5.70464
 21
-22.4981
  0
LINE
  8
0
 10
-5.70464
 20
-22.4981
 11
-5.71638
 21
-22.5106
  0
LINE
  8
0
 10
-5.71638
 20
-22.5106
 11
-5.72794
 21
-22.5232
  0
LINE
  8
0
 10
-5.72794
 20
-22.5232
 11
-5.73923
 21
-22.536
  0
LINE
  8
0
 10
-5.73923
 20
-22.536
 11
-5.75021
 21
-22.5489
  0
LINE
  8
0
 10
-5.75021
 20
-22.5489
 11
-5.76086
 21
-22.562
  0
LINE
  8
0
 10
-5.76086
 20
-22.562
 11
-5.77121
 21
-22.5754
  0
LINE
  8
0
 10
-5.77121
 20
-22.5754
 11
-5.78123
 21
-22.5889
  0
LINE
  8
0
 10
-5.78123
 20
-22.5889
 11
-5.79095
 21
-22.6025
  0
LINE
  8
0
 10
-5.79095
 20
-22.6025
 11
-5.80034
 21
-22.6164
  0
LINE
  8
0
 10
-5.80034
 20
-22.6164
 11
-5.8094
 21
-22.6304
  0
LINE
  8
0
 10
-5.8094
 20
-22.6304
 11
-5.81816
 21
-22.6446
  0
LINE
  8
0
 10
-5.81816
 20
-22.6446
 11
-5.8266
 21
-22.659
  0
LINE
  8
0
 10
-5.8266
 20
-22.659
 11
-5.83472
 21
-22.6736
  0
LINE
  8
0
 10
-5.83472
 20
-22.6736
 11
-5.84251
 21
-22.6883
  0
LINE
  8
0
 10
-5.84251
 20
-22.6883
 11
-5.84999
 21
-22.7033
  0
LINE
  8
0
 10
-5.84999
 20
-22.7033
 11
-5.85704
 21
-22.7184
  0
LINE
  8
0
 10
-5.85704
 20
-22.7184
 11
-5.86351
 21
-22.7339
  0
LINE
  8
0
 10
-5.86351
 20
-22.7339
 11
-5.86943
 21
-22.7496
  0
LINE
  8
0
 10
-5.86943
 20
-22.7496
 11
-5.87479
 21
-22.7655
  0
LINE
  8
0
 10
-5.87479
 20
-22.7655
 11
-5.87958
 21
-22.7818
  0
LINE
  8
0
 10
-5.87958
 20
-22.7818
 11
-5.8838
 21
-22.7983
  0
LINE
  8
0
 10
-5.8838
 20
-22.7983
 11
-5.88747
 21
-22.8151
  0
LINE
  8
0
 10
-5.88747
 20
-22.8151
 11
-5.89056
 21
-22.8322
  0
LINE
  8
0
 10
-5.89056
 20
-22.8322
 11
-5.8931
 21
-22.8496
  0
LINE
  8
0
 10
-5.8931
 20
-22.8496
 11
-5.89507
 21
-22.8672
  0
LINE
  8
0
 10
-5.89507
 20
-22.8672
 11
-5.89647
 21
-22.8851
  0
LINE
  8
0
 10
-5.89647
 20
-22.8851
 11
-5.89732
 21
-22.9033
  0
LINE
  8
0
 10
-5.89732
 20
-22.9033
 11
-5.8976
 21
-22.9217
  0
LINE
  8
0
 10
-5.8976
 20
-22.9217
 11
-5.89673
 21
-22.9564
  0
LINE
  8
0
 10
-5.89673
 20
-22.9564
 11
-5.89407
 21
-22.9899
  0
LINE
  8
0
 10
-5.89407
 20
-22.9899
 11
-5.88968
 21
-23.0222
  0
LINE
  8
0
 10
-5.88968
 20
-23.0222
 11
-5.8835
 21
-23.0533
  0
LINE
  8
0
 10
-5.8835
 20
-23.0533
 11
-5.87558
 21
-23.0831
  0
LINE
  8
0
 10
-5.87558
 20
-23.0831
 11
-5.86588
 21
-23.1117
  0
LINE
  8
0
 10
-5.86588
 20
-23.1117
 11
-5.85443
 21
-23.1391
  0
LINE
  8
0
 10
-5.85443
 20
-23.1391
 11
-5.8412
 21
-23.1653
  0
LINE
  8
0
 10
-5.8412
 20
-23.1653
 11
-5.82623
 21
-23.1903
  0
LINE
  8
0
 10
-5.82623
 20
-23.1903
 11
-5.80949
 21
-23.2141
  0
LINE
  8
0
 10
-5.80949
 20
-23.2141
 11
-5.79099
 21
-23.2367
  0
LINE
  8
0
 10
-5.79099
 20
-23.2367
 11
-5.77072
 21
-23.258
  0
LINE
  8
0
 10
-5.77072
 20
-23.258
 11
-5.74869
 21
-23.2782
  0
LINE
  8
0
 10
-5.74869
 20
-23.2782
 11
-5.72501
 21
-23.2969
  0
LINE
  8
0
 10
-5.72501
 20
-23.2969
 11
-5.6998
 21
-23.3142
  0
LINE
  8
0
 10
-5.6998
 20
-23.3142
 11
-5.67307
 21
-23.33
  0
LINE
  8
0
 10
-5.67307
 20
-23.33
 11
-5.64479
 21
-23.3443
  0
LINE
  8
0
 10
-5.64479
 20
-23.3443
 11
-5.61499
 21
-23.357
  0
LINE
  8
0
 10
-5.61499
 20
-23.357
 11
-5.58366
 21
-23.3683
  0
LINE
  8
0
 10
-5.58366
 20
-23.3683
 11
-5.5508
 21
-23.3781
  0
LINE
  8
0
 10
-5.5508
 20
-23.3781
 11
-5.5164
 21
-23.3863
  0
LINE
  8
0
 10
-5.5164
 20
-23.3863
 11
-5.48048
 21
-23.3931
  0
LINE
  8
0
 10
-5.48048
 20
-23.3931
 11
-5.44302
 21
-23.3983
  0
LINE
  8
0
 10
-5.44302
 20
-23.3983
 11
-5.40404
 21
-23.4021
  0
LINE
  8
0
 10
-5.40404
 20
-23.4021
 11
-5.36351
 21
-23.4044
  0
LINE
  8
0
 10
-5.36351
 20
-23.4044
 11
-5.32146
 21
-23.4051
  0
LINE
  8
0
 10
-5.32146
 20
-23.4051
 11
-5.28247
 21
-23.4044
  0
LINE
  8
0
 10
-2.2155
 20
-22.4225
 11
-2.1508
 21
-22.1418
  0
LINE
  8
0
 10
-2.1508
 20
-22.1418
 11
-2.12029
 21
-22.0002
  0
LINE
  8
0
 10
-2.12029
 20
-22.0002
 11
-2.11111
 21
-22.0542
  0
LINE
  8
0
 10
-2.11111
 20
-22.0542
 11
-2.10236
 21
-22.1052
  0
LINE
  8
0
 10
-2.10236
 20
-22.1052
 11
-2.09401
 21
-22.1532
  0
LINE
  8
0
 10
-2.09401
 20
-22.1532
 11
-2.08607
 21
-22.198
  0
LINE
  8
0
 10
-2.08607
 20
-22.198
 11
-2.07858
 21
-22.2398
  0
LINE
  8
0
 10
-2.07858
 20
-22.2398
 11
-2.07149
 21
-22.2786
  0
LINE
  8
0
 10
-2.07149
 20
-22.2786
 11
-2.06482
 21
-22.3143
  0
LINE
  8
0
 10
-2.06482
 20
-22.3143
 11
-2.05858
 21
-22.3469
  0
LINE
  8
0
 10
-2.05858
 20
-22.3469
 11
-2.05275
 21
-22.3764
  0
LINE
  8
0
 10
-2.05275
 20
-22.3764
 11
-2.04733
 21
-22.4029
  0
LINE
  8
0
 10
-2.04733
 20
-22.4029
 11
-2.04234
 21
-22.4263
  0
LINE
  8
0
 10
-2.04234
 20
-22.4263
 11
-2.03778
 21
-22.4467
  0
LINE
  8
0
 10
-2.03778
 20
-22.4467
 11
-2.03362
 21
-22.464
  0
LINE
  8
0
 10
-2.03362
 20
-22.464
 11
-1.81635
 21
-23.3795
  0
LINE
  8
0
 10
-1.81635
 20
-23.3795
 11
-1.41354
 21
-23.3795
  0
LINE
  8
0
 10
-1.41354
 20
-23.3795
 11
-1.38211
 21
-23.2453
  0
LINE
  8
0
 10
-1.38211
 20
-23.2453
 11
-1.3528
 21
-23.12
  0
LINE
  8
0
 10
-1.3528
 20
-23.12
 11
-1.32561
 21
-23.0035
  0
LINE
  8
0
 10
-1.32561
 20
-23.0035
 11
-1.30052
 21
-22.8958
  0
LINE
  8
0
 10
-1.30052
 20
-22.8958
 11
-1.27756
 21
-22.797
  0
LINE
  8
0
 10
-1.27756
 20
-22.797
 11
-1.25671
 21
-22.707
  0
LINE
  8
0
 10
-1.25671
 20
-22.707
 11
-1.23798
 21
-22.6258
  0
LINE
  8
0
 10
-1.23798
 20
-22.6258
 11
-1.22136
 21
-22.5534
  0
LINE
  8
0
 10
-1.22136
 20
-22.5534
 11
-1.20686
 21
-22.4899
  0
LINE
  8
0
 10
-1.20686
 20
-22.4899
 11
-1.19447
 21
-22.4353
  0
LINE
  8
0
 10
-1.19447
 20
-22.4353
 11
-1.1842
 21
-22.3894
  0
LINE
  8
0
 10
-1.1842
 20
-22.3894
 11
-1.17606
 21
-22.3524
  0
LINE
  8
0
 10
-1.17606
 20
-22.3524
 11
-1.17001
 21
-22.3243
  0
LINE
  8
0
 10
-1.17001
 20
-22.3243
 11
-1.16002
 21
-22.2764
  0
LINE
  8
0
 10
-1.16002
 20
-22.2764
 11
-1.13977
 21
-22.1785
  0
LINE
  8
0
 10
-1.13977
 20
-22.1785
 11
-1.12436
 21
-22.1032
  0
LINE
  8
0
 10
-1.12436
 20
-22.1032
 11
-1.1035
 21
-22.0002
  0
LINE
  8
0
 10
-1.1035
 20
-22.0002
 11
-1.04735
 21
-22.2687
  0
LINE
  8
0
 10
-1.04735
 20
-22.2687
 11
-0.798355
 21
-23.3795
  0
LINE
  8
0
 10
-0.798355
 20
-23.3795
 11
-0.43338
 21
-23.3795
  0
LINE
  8
0
 10
-0.43338
 20
-23.3795
 11
-0.87648
 21
-21.6596
  0
LINE
  8
0
 10
-0.87648
 20
-21.6596
 11
-1.30368
 21
-21.6596
  0
LINE
  8
0
 10
-1.30368
 20
-21.6596
 11
-1.43127
 21
-22.2065
  0
LINE
  8
0
 10
-1.43127
 20
-22.2065
 11
-1.4792
 21
-22.4124
  0
LINE
  8
0
 10
-1.4792
 20
-22.4124
 11
-1.51656
 21
-22.5733
  0
LINE
  8
0
 10
-1.51656
 20
-22.5733
 11
-1.54333
 21
-22.6891
  0
LINE
  8
0
 10
-1.54333
 20
-22.6891
 11
-1.55276
 21
-22.7301
  0
LINE
  8
0
 10
-1.55276
 20
-22.7301
 11
-1.55954
 21
-22.7598
  0
LINE
  8
0
 10
-1.55954
 20
-22.7598
 11
-1.56367
 21
-22.7783
  0
LINE
  8
0
 10
-1.56367
 20
-22.7783
 11
-1.56656
 21
-22.7916
  0
LINE
  8
0
 10
-1.56656
 20
-22.7916
 11
-1.56956
 21
-22.8058
  0
LINE
  8
0
 10
-1.56956
 20
-22.8058
 11
-1.57271
 21
-22.821
  0
LINE
  8
0
 10
-1.57271
 20
-22.821
 11
-1.57599
 21
-22.837
  0
LINE
  8
0
 10
-1.57599
 20
-22.837
 11
-1.57939
 21
-22.8539
  0
LINE
  8
0
 10
-1.57939
 20
-22.8539
 11
-1.58658
 21
-22.8905
  0
LINE
  8
0
 10
-1.58658
 20
-22.8905
 11
-1.59038
 21
-22.9101
  0
LINE
  8
0
 10
-1.59038
 20
-22.9101
 11
-1.5943
 21
-22.9306
  0
LINE
  8
0
 10
-1.5943
 20
-22.9306
 11
-1.60252
 21
-22.9744
  0
LINE
  8
0
 10
-1.60252
 20
-22.9744
 11
-1.61128
 21
-23.0218
  0
LINE
  8
0
 10
-1.61128
 20
-23.0218
 11
-1.61588
 21
-22.9924
  0
LINE
  8
0
 10
-1.61588
 20
-22.9924
 11
-1.62062
 21
-22.9632
  0
LINE
  8
0
 10
-1.62062
 20
-22.9632
 11
-1.62552
 21
-22.9342
  0
LINE
  8
0
 10
-1.62552
 20
-22.9342
 11
-1.63058
 21
-22.9054
  0
LINE
  8
0
 10
-1.63058
 20
-22.9054
 11
-1.6358
 21
-22.8768
  0
LINE
  8
0
 10
-1.6358
 20
-22.8768
 11
-1.64119
 21
-22.8483
  0
LINE
  8
0
 10
-1.64119
 20
-22.8483
 11
-1.64673
 21
-22.8201
  0
LINE
  8
0
 10
-1.64673
 20
-22.8201
 11
-1.65242
 21
-22.792
  0
LINE
  8
0
 10
-1.65242
 20
-22.792
 11
-1.65828
 21
-22.7641
  0
LINE
  8
0
 10
-1.65828
 20
-22.7641
 11
-1.66431
 21
-22.7364
  0
LINE
  8
0
 10
-1.66431
 20
-22.7364
 11
-1.67047
 21
-22.7089
  0
LINE
  8
0
 10
-1.67047
 20
-22.7089
 11
-1.6768
 21
-22.6816
  0
LINE
  8
0
 10
-1.6768
 20
-22.6816
 11
-1.6833
 21
-22.6544
  0
LINE
  8
0
 10
-1.6833
 20
-22.6544
 11
-1.91644
 21
-21.6596
  0
LINE
  8
0
 10
-1.91644
 20
-21.6596
 11
-2.34366
 21
-21.6596
  0
LINE
  8
0
 10
-2.34366
 20
-21.6596
 11
-2.78796
 21
-23.3795
  0
LINE
  8
0
 10
-2.78796
 20
-23.3795
 11
-2.423
 21
-23.3795
  0
LINE
  8
0
 10
-2.423
 20
-23.3795
 11
-2.2155
 21
-22.4225
  0
LINE
  8
0
 10
1.13521
 20
-21.6596
 11
0.775116
 21
-21.6596
  0
LINE
  8
0
 10
0.775116
 20
-21.6596
 11
0.622528
 21
-22.0991
  0
LINE
  8
0
 10
0.622528
 20
-22.0991
 11
-0.0329285
 21
-22.0991
  0
LINE
  8
0
 10
-0.0329285
 20
-22.0991
 11
-0.185516
 21
-21.6596
  0
LINE
  8
0
 10
-0.185516
 20
-21.6596
 11
-0.541931
 21
-21.6596
  0
LINE
  8
0
 10
-0.541931
 20
-21.6596
 11
0.0830078
 21
-23.3795
  0
LINE
  8
0
 10
0.0830078
 20
-23.3795
 11
0.507797
 21
-23.3795
  0
LINE
  8
0
 10
0.507797
 20
-23.3795
 11
1.13521
 21
-21.6596
  0
LINE
  8
0
 10
0.26976
 20
-23.0304
 11
0.2173
 21
-22.8644
  0
LINE
  8
0
 10
0.2173
 20
-22.8644
 11
0.0476227
 21
-22.37
  0
LINE
  8
0
 10
0.0476227
 20
-22.37
 11
0.541977
 21
-22.37
  0
LINE
  8
0
 10
0.541977
 20
-22.37
 11
0.486801
 21
-22.5308
  0
LINE
  8
0
 10
0.486801
 20
-22.5308
 11
0.439926
 21
-22.6677
  0
LINE
  8
0
 10
0.439926
 20
-22.6677
 11
0.401398
 21
-22.7807
  0
LINE
  8
0
 10
0.401398
 20
-22.7807
 11
0.385239
 21
-22.8282
  0
LINE
  8
0
 10
0.385239
 20
-22.8282
 11
0.37117
 21
-22.8697
  0
LINE
  8
0
 10
0.37117
 20
-22.8697
 11
0.359177
 21
-22.9053
  0
LINE
  8
0
 10
0.359177
 20
-22.9053
 11
0.349274
 21
-22.9348
  0
LINE
  8
0
 10
0.349274
 20
-22.9348
 11
0.341446
 21
-22.9584
  0
LINE
  8
0
 10
0.341446
 20
-22.9584
 11
0.335693
 21
-22.976
  0
LINE
  8
0
 10
0.335693
 20
-22.976
 11
0.332031
 21
-22.9877
  0
LINE
  8
0
 10
0.332031
 20
-22.9877
 11
0.321976
 21
-23.0211
  0
LINE
  8
0
 10
0.321976
 20
-23.0211
 11
0.315033
 21
-23.0446
  0
LINE
  8
0
 10
0.315033
 20
-23.0446
 11
0.306595
 21
-23.0739
  0
LINE
  8
0
 10
0.306595
 20
-23.0739
 11
0.302719
 21
-23.0878
  0
LINE
  8
0
 10
0.302719
 20
-23.0878
 11
0.29541
 21
-23.1146
  0
LINE
  8
0
 10
0.29541
 20
-23.1146
 11
0.26976
 21
-23.0304
  0
LINE
  8
0
 10
3.24838
 20
-23.1012
 11
2.69301
 21
-23.1012
  0
LINE
  8
0
 10
2.69301
 20
-23.1012
 11
2.69301
 21
-21.6596
  0
LINE
  8
0
 10
2.69301
 20
-21.6596
 11
2.33293
 21
-21.6596
  0
LINE
  8
0
 10
2.33293
 20
-21.6596
 11
2.33293
 21
-23.1012
  0
LINE
  8
0
 10
2.33293
 20
-23.1012
 11
1.77631
 21
-23.1012
  0
LINE
  8
0
 10
1.77631
 20
-23.1012
 11
1.77631
 21
-23.3795
  0
LINE
  8
0
 10
1.77631
 20
-23.3795
 11
3.24838
 21
-23.3795
  0
LINE
  8
0
 10
3.24838
 20
-23.3795
 11
3.24838
 21
-23.1012
  0
LINE
  8
0
 10
7.312
 20
-22.2675
 11
7.312
 21
-22.0099
  0
LINE
  8
0
 10
7.312
 20
-22.0099
 11
6.52957
 21
-22.0099
  0
LINE
  8
0
 10
6.52957
 20
-22.0099
 11
6.52957
 21
-21.6596
  0
LINE
  8
0
 10
6.52957
 20
-21.6596
 11
6.20244
 21
-21.6596
  0
LINE
  8
0
 10
6.20244
 20
-21.6596
 11
6.20244
 21
-22.0099
  0
LINE
  8
0
 10
6.20244
 20
-22.0099
 11
5.97296
 21
-22.0099
  0
LINE
  8
0
 10
5.97296
 20
-22.0099
 11
5.97296
 21
-22.2651
  0
LINE
  8
0
 10
5.97296
 20
-22.2651
 11
6.20244
 21
-22.2651
  0
LINE
  8
0
 10
6.20244
 20
-22.2651
 11
6.20244
 21
-23.3795
  0
LINE
  8
0
 10
6.20244
 20
-23.3795
 11
6.58571
 21
-23.3795
  0
LINE
  8
0
 10
6.58571
 20
-23.3795
 11
7.312
 21
-22.2675
  0
LINE
  8
0
 10
6.51938
 20
-23.0614
 11
6.52026
 21
-23.0507
  0
LINE
  8
0
 10
6.52026
 20
-23.0507
 11
6.52174
 21
-23.0298
  0
LINE
  8
0
 10
6.52174
 20
-23.0298
 11
6.52342
 21
-23.0031
  0
LINE
  8
0
 10
6.52342
 20
-23.0031
 11
6.52466
 21
-22.9821
  0
LINE
  8
0
 10
6.52466
 20
-22.9821
 11
6.52594
 21
-22.9588
  0
LINE
  8
0
 10
6.52594
 20
-22.9588
 11
6.52652
 21
-22.9472
  0
LINE
  8
0
 10
6.52652
 20
-22.9472
 11
6.52753
 21
-22.9243
  0
LINE
  8
0
 10
6.52753
 20
-22.9243
 11
6.52834
 21
-22.9019
  0
LINE
  8
0
 10
6.52834
 20
-22.9019
 11
6.52893
 21
-22.8801
  0
LINE
  8
0
 10
6.52893
 20
-22.8801
 11
6.52934
 21
-22.8588
  0
LINE
  8
0
 10
6.52934
 20
-22.8588
 11
6.52946
 21
-22.8483
  0
LINE
  8
0
 10
6.52946
 20
-22.8483
 11
6.52954
 21
-22.838
  0
LINE
  8
0
 10
6.52954
 20
-22.838
 11
6.52957
 21
-22.8278
  0
LINE
  8
0
 10
6.52957
 20
-22.8278
 11
6.52957
 21
-22.2651
  0
LINE
  8
0
 10
6.52957
 20
-22.2651
 11
7.03247
 21
-22.2651
  0
LINE
  8
0
 10
7.03247
 20
-22.2651
 11
6.63332
 21
-22.8717
  0
LINE
  8
0
 10
6.63332
 20
-22.8717
 11
6.62085
 21
-22.8913
  0
LINE
  8
0
 10
6.62085
 20
-22.8913
 11
6.60899
 21
-22.9101
  0
LINE
  8
0
 10
6.60899
 20
-22.9101
 11
6.59775
 21
-22.9282
  0
LINE
  8
0
 10
6.59775
 20
-22.9282
 11
6.5871
 21
-22.9455
  0
LINE
  8
0
 10
6.5871
 20
-22.9455
 11
6.57706
 21
-22.9622
  0
LINE
  8
0
 10
6.57706
 20
-22.9622
 11
6.56763
 21
-22.9781
  0
LINE
  8
0
 10
6.56763
 20
-22.9781
 11
6.55881
 21
-22.9933
  0
LINE
  8
0
 10
6.55881
 20
-22.9933
 11
6.55058
 21
-23.0078
  0
LINE
  8
0
 10
6.55058
 20
-23.0078
 11
6.54297
 21
-23.0216
  0
LINE
  8
0
 10
6.54297
 20
-23.0216
 11
6.53596
 21
-23.0346
  0
LINE
  8
0
 10
6.53596
 20
-23.0346
 11
6.52957
 21
-23.047
  0
LINE
  8
0
 10
6.52957
 20
-23.047
 11
6.52377
 21
-23.0585
  0
LINE
  8
0
 10
6.52377
 20
-23.0585
 11
6.51859
 21
-23.0694
  0
LINE
  8
0
 10
6.51859
 20
-23.0694
 11
6.51938
 21
-23.0614
  0
ENDSEC
  0
SECTION
  2
OBJECTS
  0
DICTIONARY
  0
ENDSEC
  0
EOF
