  0
SECTION
  2
BLOCKS
  0
ENDSEC
  0
SECTION
  2
ENTITIES
  0
LINE
  8
0
 10
91.5286
 20
7.71593
 11
89.4942
 21
7.79094
  0
LINE
  8
0
 10
89.4942
 20
7.79094
 11
87.4607
 21
7.86293
  0
LINE
  8
0
 10
87.4607
 20
7.86293
 11
85.4276
 21
7.9469
  0
LINE
  8
0
 10
85.4276
 20
7.9469
 11
83.3939
 21
8.05188
  0
LINE
  8
0
 10
83.3939
 20
8.05188
 11
81.3615
 21
8.18379
  0
LINE
  8
0
 10
81.3615
 20
8.18379
 11
79.3287
 21
8.3457
  0
LINE
  8
0
 10
79.3287
 20
8.3457
 11
77.2966
 21
8.55252
  0
LINE
  8
0
 10
77.2966
 20
8.55252
 11
75.2653
 21
8.81618
  0
LINE
  8
0
 10
75.2653
 20
8.81618
 11
73.2349
 21
9.15761
  0
LINE
  8
0
 10
73.2349
 20
9.15761
 11
71.2054
 21
9.60962
  0
LINE
  8
0
 10
71.2054
 20
9.60962
 11
69.1784
 21
10.2195
  0
LINE
  8
0
 10
69.1784
 20
10.2195
 11
67.1551
 21
11.0999
  0
LINE
  8
0
 10
67.1551
 20
11.0999
 11
65.1351
 21
12.4853
  0
LINE
  8
0
 10
65.1351
 20
12.4853
 11
63.1132
 21
14.8235
  0
LINE
  8
0
 10
63.1132
 20
14.8235
 11
61.0854
 21
18.6729
  0
LINE
  8
0
 10
61.0854
 20
18.6729
 11
59.0534
 21
24.0441
  0
LINE
  8
0
 10
59.0534
 20
24.0441
 11
57.0163
 21
29.5277
  0
LINE
  8
0
 10
57.0163
 20
29.5277
 11
54.9365
 21
32.577
  0
LINE
  8
0
 10
54.9365
 20
32.577
 11
52.8216
 21
31.245
  0
LINE
  8
0
 10
52.8216
 20
31.245
 11
50.7777
 21
26.4816
  0
LINE
  8
0
 10
50.7777
 20
26.4816
 11
48.7441
 21
20.8846
  0
LINE
  8
0
 10
48.7441
 20
20.8846
 11
46.715
 21
16.5179
  0
LINE
  8
0
 10
46.715
 20
16.5179
 11
44.6923
 21
13.8387
  0
LINE
  8
0
 10
44.6923
 20
13.8387
 11
42.6734
 21
12.3319
  0
LINE
  8
0
 10
42.6734
 20
12.3319
 11
40.6504
 21
11.4099
  0
LINE
  8
0
 10
40.6504
 20
11.4099
 11
38.6219
 21
10.7337
  0
LINE
  8
0
 10
38.6219
 20
10.7337
 11
36.5911
 21
10.1585
  0
LINE
  8
0
 10
36.5911
 20
10.1585
 11
34.5591
 21
9.64902
  0
LINE
  8
0
 10
34.5591
 20
9.64902
 11
32.528
 21
9.21161
  0
LINE
  8
0
 10
32.528
 20
9.21161
 11
30.4966
 21
8.85207
  0
LINE
  8
0
 10
30.4966
 20
8.85207
 11
28.465
 21
8.55539
  0
LINE
  8
0
 10
28.465
 20
8.55539
 11
26.4334
 21
8.32765
  0
LINE
  8
0
 10
26.4334
 20
8.32765
 11
24.4016
 21
8.16582
  0
LINE
  8
0
 10
24.4016
 20
8.16582
 11
22.3701
 21
8.06694
  0
LINE
  8
0
 10
22.3701
 20
8.06694
 11
20.3365
 21
7.99196
  0
LINE
  8
0
 10
20.3365
 20
7.99196
 11
18.3029
 21
7.92596
  0
LINE
  8
0
 10
18.3029
 20
7.92596
 11
16.2693
 21
7.87497
  0
LINE
  8
0
 10
16.2693
 20
7.87497
 11
14.235
 21
7.82697
  0
LINE
  8
0
 10
14.235
 20
7.82697
 11
12.1999
 21
7.74892
  0
LINE
  8
0
 10
12.1999
 20
7.74892
 11
10.1656
 21
7.63789
  0
LINE
  8
0
 10
10.1656
 20
7.63789
 11
8.13173
 21
7.5329
  0
LINE
  8
0
 10
8.13173
 20
7.5329
 11
6.09804
 21
7.44891
  0
LINE
  8
0
 10
6.09804
 20
7.44891
 11
4.06201
 21
7.33479
  0
LINE
  8
0
 10
4.06201
 20
7.33479
 11
2.02467
 21
7.13344
  0
LINE
  8
0
 10
2.02467
 20
7.13344
 11
-0.0749969
 21
6.82065
  0
LINE
  8
0
 10
-0.0749969
 20
6.82065
 11
-0.0749969
 21
-0.0749969
  0
LINE
  8
0
 10
-0.0749969
 20
-0.0749969
 11
17.925
 21
-0.0749969
  0
LINE
  8
0
 10
17.925
 20
-0.0749969
 11
17.925
 21
-3.075
  0
LINE
  8
0
 10
17.925
 20
-3.075
 11
30.075
 21
-3.075
  0
LINE
  8
0
 10
30.075
 20
-3.075
 11
30.075
 21
-0.0749969
  0
LINE
  8
0
 10
30.075
 20
-0.0749969
 11
89.925
 21
-0.0749969
  0
LINE
  8
0
 10
89.925
 20
-0.0749969
 11
89.925
 21
-3.075
  0
LINE
  8
0
 10
89.925
 20
-3.075
 11
102.075
 21
-3.075
  0
LINE
  8
0
 10
102.075
 20
-3.075
 11
102.075
 21
-0.0749969
  0
LINE
  8
0
 10
102.075
 20
-0.0749969
 11
120.075
 21
-0.0749969
  0
LINE
  8
0
 10
120.075
 20
-0.0749969
 11
120.075
 21
6.60155
  0
LINE
  8
0
 10
120.075
 20
6.60155
 11
117.973
 21
6.8217
  0
LINE
  8
0
 10
117.973
 20
6.8217
 11
115.937
 21
6.97487
  0
LINE
  8
0
 10
115.937
 20
6.97487
 11
113.901
 21
7.06496
  0
LINE
  8
0
 10
113.901
 20
7.06496
 11
111.866
 21
7.11298
  0
LINE
  8
0
 10
111.866
 20
7.11298
 11
109.832
 21
7.14897
  0
LINE
  8
0
 10
109.832
 20
7.14897
 11
107.798
 21
7.18797
  0
LINE
  8
0
 10
107.798
 20
7.18797
 11
105.765
 21
7.23297
  0
LINE
  8
0
 10
105.765
 20
7.23297
 11
103.731
 21
7.28397
  0
LINE
  8
0
 10
103.731
 20
7.28397
 11
101.697
 21
7.33797
  0
LINE
  8
0
 10
101.697
 20
7.33797
 11
99.6629
 21
7.38597
  0
LINE
  8
0
 10
99.6629
 20
7.38597
 11
97.629
 21
7.43698
  0
LINE
  8
0
 10
97.629
 20
7.43698
 11
95.5964
 21
7.51793
  0
LINE
  8
0
 10
95.5964
 20
7.51793
 11
91.5286
 21
7.71593
  0
ENDSEC
  0
SECTION
  2
OBJECTS
  0
DICTIONARY
  0
ENDSEC
  0
EOF
