<?xml version="1.0" standalone="no"?>
<!DOCTYPE svg PUBLIC "-//W3C//DTD SVG 1.1//EN" "http://www.w3.org/Graphics/SVG/1.1/DTD/svg11.dtd">
<svg width="119mm" height="72mm" viewBox="-47 -36 119 72" xmlns="http://www.w3.org/2000/svg" version="1.1">
<title>OpenSCAD Model</title>
<path d="
M 71.075,-35.275 L -46.075,-35.275 L -46.075,35.275 L 71.075,35.275 z
M -42.8072,-27.6556 L -43.1026,-27.7452 L -43.3749,-27.8907 L -43.6134,-28.0865 L -43.8092,-28.3251 L -43.9548,-28.5974
 L -44.0444,-28.8928 L -44.0746,-29.2 L -44.0444,-29.5072 L -43.9548,-29.8026 L -43.8092,-30.0749 L -43.6134,-30.3134
 L -43.3749,-30.5092 L -43.1026,-30.6548 L -42.8072,-30.7444 L -42.5,-30.7746 L -42.1928,-30.7444 L -41.8974,-30.6548
 L -41.6251,-30.5092 L -41.3866,-30.3134 L -41.1908,-30.0749 L -41.0452,-29.8026 L -40.9556,-29.5072 L -40.9254,-29.2
 L -40.9556,-28.8928 L -41.0452,-28.5974 L -41.1908,-28.3251 L -41.3866,-28.0865 L -41.6251,-27.8907 L -41.8974,-27.7452
 L -42.1928,-27.6556 L -42.5,-27.6254 z
M 67.1928,-27.6556 L 66.8974,-27.7452 L 66.6251,-27.8907 L 66.3866,-28.0865 L 66.1908,-28.3251 L 66.0452,-28.5974
 L 65.9556,-28.8928 L 65.9254,-29.2 L 65.9556,-29.5072 L 66.0452,-29.8026 L 66.1908,-30.0749 L 66.3866,-30.3134
 L 66.6251,-30.5092 L 66.8974,-30.6548 L 67.1928,-30.7444 L 67.5,-30.7746 L 67.8072,-30.7444 L 68.1026,-30.6548
 L 68.3749,-30.5092 L 68.6134,-30.3134 L 68.8092,-30.0749 L 68.9548,-29.8026 L 69.0444,-29.5072 L 69.0746,-29.2
 L 69.0444,-28.8928 L 68.9548,-28.5974 L 68.8092,-28.3251 L 68.6134,-28.0865 L 68.3749,-27.8907 L 68.1026,-27.7452
 L 67.8072,-27.6556 L 67.5,-27.6254 z
M 32.975,-10.575 L 32.975,-22.625 L 39.025,-22.625 L 39.025,-10.575 z
M -36.025,-10.575 L -36.025,-22.625 L -29.975,-22.625 L -29.975,-10.575 z
M 59.975,5.02499 L 59.975,-5.02499 L 66.025,-5.02499 L 66.025,5.02499 z
M -0.633957,3.18718 L -1.24359,3.00226 L -1.80544,2.70195 L -2.29784,2.29784 L -2.70195,1.80544 L -3.00226,1.24359
 L -3.18718,0.633957 L -3.24963,-0 L -3.18718,-0.633957 L -3.00226,-1.24359 L -2.70195,-1.80544 L -2.29784,-2.29784
 L -1.80544,-2.70195 L -1.24359,-3.00226 L -0.633957,-3.18718 L 0,-3.24963 L 0.633957,-3.18718 L 1.24359,-3.00226
 L 1.80544,-2.70195 L 2.29784,-2.29784 L 2.70195,-1.80544 L 3.00226,-1.24359 L 3.18718,-0.633957 L 3.24963,-0
 L 3.18718,0.633957 L 3.00226,1.24359 L 2.70195,1.80544 L 2.29784,2.29784 L 1.80544,2.70195 L 1.24359,3.00226
 L 0.633957,3.18718 L 0,3.24963 z
M 32.975,22.625 L 32.975,10.575 L 39.025,10.575 L 39.025,22.625 z
M -36.025,22.625 L -36.025,10.575 L -29.975,10.575 L -29.975,22.625 z
M -42.8072,30.7444 L -43.1026,30.6548 L -43.3749,30.5092 L -43.6134,30.3134 L -43.8092,30.0749 L -43.9548,29.8026
 L -44.0444,29.5072 L -44.0746,29.2 L -44.0444,28.8928 L -43.9548,28.5974 L -43.8092,28.3251 L -43.6134,28.0865
 L -43.3749,27.8907 L -43.1026,27.7452 L -42.8072,27.6556 L -42.5,27.6254 L -42.1928,27.6556 L -41.8974,27.7452
 L -41.6251,27.8907 L -41.3866,28.0865 L -41.1908,28.3251 L -41.0452,28.5974 L -40.9556,28.8928 L -40.9254,29.2
 L -40.9556,29.5072 L -41.0452,29.8026 L -41.1908,30.0749 L -41.3866,30.3134 L -41.6251,30.5092 L -41.8974,30.6548
 L -42.1928,30.7444 L -42.5,30.7746 z
M 67.1928,30.7444 L 66.8974,30.6548 L 66.6251,30.5092 L 66.3866,30.3134 L 66.1908,30.0749 L 66.0452,29.8026
 L 65.9556,29.5072 L 65.9254,29.2 L 65.9556,28.8928 L 66.0452,28.5974 L 66.1908,28.3251 L 66.3866,28.0865
 L 66.6251,27.8907 L 66.8974,27.7452 L 67.1928,27.6556 L 67.5,27.6254 L 67.8072,27.6556 L 68.1026,27.7452
 L 68.3749,27.8907 L 68.6134,28.0865 L 68.8092,28.3251 L 68.9548,28.5974 L 69.0444,28.8928 L 69.0746,29.2
 L 69.0444,29.5072 L 68.9548,29.8026 L 68.8092,30.0749 L 68.6134,30.3134 L 68.3749,30.5092 L 68.1026,30.6548
 L 67.8072,30.7444 L 67.5,30.7746 z
" stroke="black" fill="lightgray" stroke-width="0.5"/>
</svg>
