  0
SECTION
  2
BLOCKS
  0
ENDSEC
  0
SECTION
  2
ENTITIES
  0
LINE
  8
0
 10
240.45
 20
34.9285
 11
222.65
 21
34.9285
  0
LINE
  8
0
 10
222.65
 20
34.9285
 11
222.65
 21
17.6893
  0
LINE
  8
0
 10
222.65
 20
17.6893
 11
217.35
 21
17.6893
  0
LINE
  8
0
 10
217.35
 20
17.6893
 11
217.35
 21
34.9285
  0
LINE
  8
0
 10
217.35
 20
34.9285
 11
22.65
 21
34.9285
  0
LINE
  8
0
 10
22.65
 20
34.9285
 11
22.65
 21
17.6893
  0
LINE
  8
0
 10
22.65
 20
17.6893
 11
17.35
 21
17.6893
  0
LINE
  8
0
 10
17.35
 20
17.6893
 11
17.35
 21
34.9285
  0
LINE
  8
0
 10
17.35
 20
34.9285
 11
-0.449997
 21
34.9285
  0
LINE
  8
0
 10
-0.449997
 20
34.9285
 11
-0.449997
 21
-0.449997
  0
LINE
  8
0
 10
-0.449997
 20
-0.449997
 11
240.45
 21
-0.449997
  0
LINE
  8
0
 10
240.45
 20
-0.449997
 11
240.45
 21
34.9285
  0
ENDSEC
  0
SECTION
  2
OBJECTS
  0
DICTIONARY
  0
ENDSEC
  0
EOF
