  0
SECTION
  2
BLOCKS
  0
ENDSEC
  0
SECTION
  2
ENTITIES
  0
LINE
  8
0
 10
1.31232
 20
-25.0406
 11
2.62105
 21
-24.9377
  0
LINE
  8
0
 10
2.62105
 20
-24.9377
 11
3.92259
 21
-24.7663
  0
LINE
  8
0
 10
3.92259
 20
-24.7663
 11
5.21338
 21
-24.5271
  0
LINE
  8
0
 10
5.21338
 20
-24.5271
 11
6.4899
 21
-24.2206
  0
LINE
  8
0
 10
6.4899
 20
-24.2206
 11
7.7486
 21
-23.8477
  0
LINE
  8
0
 10
7.7486
 20
-23.8477
 11
8.98608
 21
-23.4095
  0
LINE
  8
0
 10
8.98608
 20
-23.4095
 11
10.1989
 21
-22.9072
  0
LINE
  8
0
 10
10.1989
 20
-22.9072
 11
11.3838
 21
-22.342
  0
LINE
  8
0
 10
11.3838
 20
-22.342
 11
12.5375
 21
-21.7156
  0
LINE
  8
0
 10
12.5375
 20
-21.7156
 11
13.6568
 21
-21.0297
  0
LINE
  8
0
 10
13.6568
 20
-21.0297
 11
14.7387
 21
-20.2861
  0
LINE
  8
0
 10
14.7387
 20
-20.2861
 11
15.7802
 21
-19.4869
  0
LINE
  8
0
 10
15.7802
 20
-19.4869
 11
16.7785
 21
-18.6344
  0
LINE
  8
0
 10
16.7785
 20
-18.6344
 11
17.7307
 21
-17.7307
  0
LINE
  8
0
 10
17.7307
 20
-17.7307
 11
18.6344
 21
-16.7785
  0
LINE
  8
0
 10
18.6344
 20
-16.7785
 11
19.4869
 21
-15.7802
  0
LINE
  8
0
 10
19.4869
 20
-15.7802
 11
20.2861
 21
-14.7387
  0
LINE
  8
0
 10
20.2861
 20
-14.7387
 11
21.0297
 21
-13.6568
  0
LINE
  8
0
 10
21.0297
 20
-13.6568
 11
21.7156
 21
-12.5375
  0
LINE
  8
0
 10
21.7156
 20
-12.5375
 11
22.342
 21
-11.3838
  0
LINE
  8
0
 10
22.342
 20
-11.3838
 11
22.9072
 21
-10.1989
  0
LINE
  8
0
 10
22.9072
 20
-10.1989
 11
23.4095
 21
-8.98608
  0
LINE
  8
0
 10
23.4095
 20
-8.98608
 11
23.8477
 21
-7.7486
  0
LINE
  8
0
 10
23.8477
 20
-7.7486
 11
24.2206
 21
-6.4899
  0
LINE
  8
0
 10
24.2206
 20
-6.4899
 11
24.5271
 21
-5.21338
  0
LINE
  8
0
 10
24.5271
 20
-5.21338
 11
24.7663
 21
-3.92259
  0
LINE
  8
0
 10
24.7663
 20
-3.92259
 11
24.9377
 21
-2.62105
  0
LINE
  8
0
 10
24.9377
 20
-2.62105
 11
25.0406
 21
-1.31232
  0
LINE
  8
0
 10
25.0406
 20
-1.31232
 11
25.075
 21
0
  0
LINE
  8
0
 10
25.075
 20
0
 11
25.0406
 21
1.31232
  0
LINE
  8
0
 10
25.0406
 20
1.31232
 11
24.9377
 21
2.62105
  0
LINE
  8
0
 10
24.9377
 20
2.62105
 11
24.7663
 21
3.92259
  0
LINE
  8
0
 10
24.7663
 20
3.92259
 11
24.5271
 21
5.21338
  0
LINE
  8
0
 10
24.5271
 20
5.21338
 11
24.2206
 21
6.4899
  0
LINE
  8
0
 10
24.2206
 20
6.4899
 11
23.8477
 21
7.7486
  0
LINE
  8
0
 10
23.8477
 20
7.7486
 11
23.4095
 21
8.98608
  0
LINE
  8
0
 10
23.4095
 20
8.98608
 11
22.9072
 21
10.1989
  0
LINE
  8
0
 10
22.9072
 20
10.1989
 11
22.342
 21
11.3838
  0
LINE
  8
0
 10
22.342
 20
11.3838
 11
21.7156
 21
12.5375
  0
LINE
  8
0
 10
21.7156
 20
12.5375
 11
21.0297
 21
13.6568
  0
LINE
  8
0
 10
21.0297
 20
13.6568
 11
20.2861
 21
14.7387
  0
LINE
  8
0
 10
20.2861
 20
14.7387
 11
19.4869
 21
15.7802
  0
LINE
  8
0
 10
19.4869
 20
15.7802
 11
18.6344
 21
16.7785
  0
LINE
  8
0
 10
18.6344
 20
16.7785
 11
17.7307
 21
17.7307
  0
LINE
  8
0
 10
17.7307
 20
17.7307
 11
16.7785
 21
18.6344
  0
LINE
  8
0
 10
16.7785
 20
18.6344
 11
15.7802
 21
19.4869
  0
LINE
  8
0
 10
15.7802
 20
19.4869
 11
14.7387
 21
20.2861
  0
LINE
  8
0
 10
14.7387
 20
20.2861
 11
13.6568
 21
21.0297
  0
LINE
  8
0
 10
13.6568
 20
21.0297
 11
12.5375
 21
21.7156
  0
LINE
  8
0
 10
12.5375
 20
21.7156
 11
11.3838
 21
22.342
  0
LINE
  8
0
 10
11.3838
 20
22.342
 11
10.1989
 21
22.9072
  0
LINE
  8
0
 10
10.1989
 20
22.9072
 11
8.98608
 21
23.4095
  0
LINE
  8
0
 10
8.98608
 20
23.4095
 11
7.7486
 21
23.8477
  0
LINE
  8
0
 10
7.7486
 20
23.8477
 11
6.4899
 21
24.2206
  0
LINE
  8
0
 10
6.4899
 20
24.2206
 11
5.21338
 21
24.5271
  0
LINE
  8
0
 10
5.21338
 20
24.5271
 11
3.92259
 21
24.7663
  0
LINE
  8
0
 10
3.92259
 20
24.7663
 11
2.62105
 21
24.9377
  0
LINE
  8
0
 10
2.62105
 20
24.9377
 11
1.31232
 21
25.0406
  0
LINE
  8
0
 10
1.31232
 20
25.0406
 11
0
 21
25.075
  0
LINE
  8
0
 10
0
 20
25.075
 11
-1.31232
 21
25.0406
  0
LINE
  8
0
 10
-1.31232
 20
25.0406
 11
-2.62105
 21
24.9377
  0
LINE
  8
0
 10
-2.62105
 20
24.9377
 11
-3.92259
 21
24.7663
  0
LINE
  8
0
 10
-3.92259
 20
24.7663
 11
-5.21338
 21
24.5271
  0
LINE
  8
0
 10
-5.21338
 20
24.5271
 11
-6.4899
 21
24.2206
  0
LINE
  8
0
 10
-6.4899
 20
24.2206
 11
-7.7486
 21
23.8477
  0
LINE
  8
0
 10
-7.7486
 20
23.8477
 11
-8.98608
 21
23.4095
  0
LINE
  8
0
 10
-8.98608
 20
23.4095
 11
-10.1989
 21
22.9072
  0
LINE
  8
0
 10
-10.1989
 20
22.9072
 11
-11.3838
 21
22.342
  0
LINE
  8
0
 10
-11.3838
 20
22.342
 11
-12.5375
 21
21.7156
  0
LINE
  8
0
 10
-12.5375
 20
21.7156
 11
-13.6568
 21
21.0297
  0
LINE
  8
0
 10
-13.6568
 20
21.0297
 11
-14.7387
 21
20.2861
  0
LINE
  8
0
 10
-14.7387
 20
20.2861
 11
-15.7802
 21
19.4869
  0
LINE
  8
0
 10
-15.7802
 20
19.4869
 11
-16.7785
 21
18.6344
  0
LINE
  8
0
 10
-16.7785
 20
18.6344
 11
-17.7307
 21
17.7307
  0
LINE
  8
0
 10
-17.7307
 20
17.7307
 11
-18.6344
 21
16.7785
  0
LINE
  8
0
 10
-18.6344
 20
16.7785
 11
-19.4869
 21
15.7802
  0
LINE
  8
0
 10
-19.4869
 20
15.7802
 11
-20.2861
 21
14.7387
  0
LINE
  8
0
 10
-20.2861
 20
14.7387
 11
-21.0297
 21
13.6568
  0
LINE
  8
0
 10
-21.0297
 20
13.6568
 11
-21.7156
 21
12.5375
  0
LINE
  8
0
 10
-21.7156
 20
12.5375
 11
-22.342
 21
11.3838
  0
LINE
  8
0
 10
-22.342
 20
11.3838
 11
-22.9072
 21
10.1989
  0
LINE
  8
0
 10
-22.9072
 20
10.1989
 11
-23.4095
 21
8.98608
  0
LINE
  8
0
 10
-23.4095
 20
8.98608
 11
-23.8477
 21
7.7486
  0
LINE
  8
0
 10
-23.8477
 20
7.7486
 11
-24.2206
 21
6.4899
  0
LINE
  8
0
 10
-24.2206
 20
6.4899
 11
-24.5271
 21
5.21338
  0
LINE
  8
0
 10
-24.5271
 20
5.21338
 11
-24.7663
 21
3.92259
  0
LINE
  8
0
 10
-24.7663
 20
3.92259
 11
-24.9377
 21
2.62105
  0
LINE
  8
0
 10
-24.9377
 20
2.62105
 11
-25.0406
 21
1.31232
  0
LINE
  8
0
 10
-25.0406
 20
1.31232
 11
-25.075
 21
0
  0
LINE
  8
0
 10
-25.075
 20
0
 11
-25.0406
 21
-1.31232
  0
LINE
  8
0
 10
-25.0406
 20
-1.31232
 11
-24.9377
 21
-2.62105
  0
LINE
  8
0
 10
-24.9377
 20
-2.62105
 11
-24.7663
 21
-3.92259
  0
LINE
  8
0
 10
-24.7663
 20
-3.92259
 11
-24.5271
 21
-5.21338
  0
LINE
  8
0
 10
-24.5271
 20
-5.21338
 11
-24.2206
 21
-6.4899
  0
LINE
  8
0
 10
-24.2206
 20
-6.4899
 11
-23.8477
 21
-7.7486
  0
LINE
  8
0
 10
-23.8477
 20
-7.7486
 11
-23.4095
 21
-8.98608
  0
LINE
  8
0
 10
-23.4095
 20
-8.98608
 11
-22.9072
 21
-10.1989
  0
LINE
  8
0
 10
-22.9072
 20
-10.1989
 11
-22.342
 21
-11.3838
  0
LINE
  8
0
 10
-22.342
 20
-11.3838
 11
-21.7156
 21
-12.5375
  0
LINE
  8
0
 10
-21.7156
 20
-12.5375
 11
-21.0297
 21
-13.6568
  0
LINE
  8
0
 10
-21.0297
 20
-13.6568
 11
-20.2861
 21
-14.7387
  0
LINE
  8
0
 10
-20.2861
 20
-14.7387
 11
-19.4869
 21
-15.7802
  0
LINE
  8
0
 10
-19.4869
 20
-15.7802
 11
-18.6344
 21
-16.7785
  0
LINE
  8
0
 10
-18.6344
 20
-16.7785
 11
-17.7307
 21
-17.7307
  0
LINE
  8
0
 10
-17.7307
 20
-17.7307
 11
-16.7785
 21
-18.6344
  0
LINE
  8
0
 10
-16.7785
 20
-18.6344
 11
-15.7802
 21
-19.4869
  0
LINE
  8
0
 10
-15.7802
 20
-19.4869
 11
-14.7387
 21
-20.2861
  0
LINE
  8
0
 10
-14.7387
 20
-20.2861
 11
-13.6568
 21
-21.0297
  0
LINE
  8
0
 10
-13.6568
 20
-21.0297
 11
-12.5375
 21
-21.7156
  0
LINE
  8
0
 10
-12.5375
 20
-21.7156
 11
-11.3838
 21
-22.342
  0
LINE
  8
0
 10
-11.3838
 20
-22.342
 11
-10.1989
 21
-22.9072
  0
LINE
  8
0
 10
-10.1989
 20
-22.9072
 11
-8.98608
 21
-23.4095
  0
LINE
  8
0
 10
-8.98608
 20
-23.4095
 11
-7.7486
 21
-23.8477
  0
LINE
  8
0
 10
-7.7486
 20
-23.8477
 11
-6.4899
 21
-24.2206
  0
LINE
  8
0
 10
-6.4899
 20
-24.2206
 11
-5.21338
 21
-24.5271
  0
LINE
  8
0
 10
-5.21338
 20
-24.5271
 11
-3.92259
 21
-24.7663
  0
LINE
  8
0
 10
-3.92259
 20
-24.7663
 11
-2.62105
 21
-24.9377
  0
LINE
  8
0
 10
-2.62105
 20
-24.9377
 11
-1.31232
 21
-25.0406
  0
LINE
  8
0
 10
-1.31232
 20
-25.0406
 11
0
 21
-25.075
  0
LINE
  8
0
 10
0
 20
-25.075
 11
1.31232
 21
-25.0406
  0
LINE
  8
0
 10
-1.04816
 20
-19.9975
 11
-2.09319
 21
-19.9153
  0
LINE
  8
0
 10
-2.09319
 20
-19.9153
 11
-3.13251
 21
-19.7784
  0
LINE
  8
0
 10
-3.13251
 20
-19.7784
 11
-4.1636
 21
-19.5873
  0
LINE
  8
0
 10
-4.1636
 20
-19.5873
 11
-5.18265
 21
-19.3427
  0
LINE
  8
0
 10
-5.18265
 20
-19.3427
 11
-6.18814
 21
-19.0448
  0
LINE
  8
0
 10
-6.18814
 20
-19.0448
 11
-7.17627
 21
-18.6949
  0
LINE
  8
0
 10
-7.17627
 20
-18.6949
 11
-8.14497
 21
-18.2937
  0
LINE
  8
0
 10
-8.14497
 20
-18.2937
 11
-9.09099
 21
-17.8425
  0
LINE
  8
0
 10
-9.09099
 20
-17.8425
 11
-10.0125
 21
-17.3421
  0
LINE
  8
0
 10
-10.0125
 20
-17.3421
 11
-10.9063
 21
-16.7944
  0
LINE
  8
0
 10
-10.9063
 20
-16.7944
 11
-11.7704
 21
-16.2005
  0
LINE
  8
0
 10
-11.7704
 20
-16.2005
 11
-12.6021
 21
-15.5623
  0
LINE
  8
0
 10
-12.6021
 20
-15.5623
 11
-13.3995
 21
-14.8813
  0
LINE
  8
0
 10
-13.3995
 20
-14.8813
 11
-14.1598
 21
-14.1598
  0
LINE
  8
0
 10
-14.1598
 20
-14.1598
 11
-14.8813
 21
-13.3995
  0
LINE
  8
0
 10
-14.8813
 20
-13.3995
 11
-15.5623
 21
-12.6021
  0
LINE
  8
0
 10
-15.5623
 20
-12.6021
 11
-16.2005
 21
-11.7704
  0
LINE
  8
0
 10
-16.2005
 20
-11.7704
 11
-16.7944
 21
-10.9063
  0
LINE
  8
0
 10
-16.7944
 20
-10.9063
 11
-17.3421
 21
-10.0125
  0
LINE
  8
0
 10
-17.3421
 20
-10.0125
 11
-17.8425
 21
-9.09099
  0
LINE
  8
0
 10
-17.8425
 20
-9.09099
 11
-18.2937
 21
-8.14497
  0
LINE
  8
0
 10
-18.2937
 20
-8.14497
 11
-18.6949
 21
-7.17627
  0
LINE
  8
0
 10
-18.6949
 20
-7.17627
 11
-19.0448
 21
-6.18814
  0
LINE
  8
0
 10
-19.0448
 20
-6.18814
 11
-19.3427
 21
-5.18265
  0
LINE
  8
0
 10
-19.3427
 20
-5.18265
 11
-19.5873
 21
-4.1636
  0
LINE
  8
0
 10
-19.5873
 20
-4.1636
 11
-19.7784
 21
-3.13251
  0
LINE
  8
0
 10
-19.7784
 20
-3.13251
 11
-19.9153
 21
-2.09319
  0
LINE
  8
0
 10
-19.9153
 20
-2.09319
 11
-19.9975
 21
-1.04816
  0
LINE
  8
0
 10
-19.9975
 20
-1.04816
 11
-20.025
 21
0
  0
LINE
  8
0
 10
-20.025
 20
0
 11
-19.9975
 21
1.04816
  0
LINE
  8
0
 10
-19.9975
 20
1.04816
 11
-19.9153
 21
2.09319
  0
LINE
  8
0
 10
-19.9153
 20
2.09319
 11
-19.7784
 21
3.13251
  0
LINE
  8
0
 10
-19.7784
 20
3.13251
 11
-19.5873
 21
4.1636
  0
LINE
  8
0
 10
-19.5873
 20
4.1636
 11
-19.3427
 21
5.18265
  0
LINE
  8
0
 10
-19.3427
 20
5.18265
 11
-19.0448
 21
6.18814
  0
LINE
  8
0
 10
-19.0448
 20
6.18814
 11
-18.6949
 21
7.17627
  0
LINE
  8
0
 10
-18.6949
 20
7.17627
 11
-18.2937
 21
8.14497
  0
LINE
  8
0
 10
-18.2937
 20
8.14497
 11
-17.8425
 21
9.09099
  0
LINE
  8
0
 10
-17.8425
 20
9.09099
 11
-17.3421
 21
10.0125
  0
LINE
  8
0
 10
-17.3421
 20
10.0125
 11
-16.7944
 21
10.9063
  0
LINE
  8
0
 10
-16.7944
 20
10.9063
 11
-16.2005
 21
11.7704
  0
LINE
  8
0
 10
-16.2005
 20
11.7704
 11
-15.5623
 21
12.6021
  0
LINE
  8
0
 10
-15.5623
 20
12.6021
 11
-14.8813
 21
13.3995
  0
LINE
  8
0
 10
-14.8813
 20
13.3995
 11
-14.1598
 21
14.1598
  0
LINE
  8
0
 10
-14.1598
 20
14.1598
 11
-13.3995
 21
14.8813
  0
LINE
  8
0
 10
-13.3995
 20
14.8813
 11
-12.6021
 21
15.5623
  0
LINE
  8
0
 10
-12.6021
 20
15.5623
 11
-11.7704
 21
16.2005
  0
LINE
  8
0
 10
-11.7704
 20
16.2005
 11
-10.9063
 21
16.7944
  0
LINE
  8
0
 10
-10.9063
 20
16.7944
 11
-10.0125
 21
17.3421
  0
LINE
  8
0
 10
-10.0125
 20
17.3421
 11
-9.09099
 21
17.8425
  0
LINE
  8
0
 10
-9.09099
 20
17.8425
 11
-8.14497
 21
18.2937
  0
LINE
  8
0
 10
-8.14497
 20
18.2937
 11
-7.17627
 21
18.6949
  0
LINE
  8
0
 10
-7.17627
 20
18.6949
 11
-6.18814
 21
19.0448
  0
LINE
  8
0
 10
-6.18814
 20
19.0448
 11
-5.18265
 21
19.3427
  0
LINE
  8
0
 10
-5.18265
 20
19.3427
 11
-4.1636
 21
19.5873
  0
LINE
  8
0
 10
-4.1636
 20
19.5873
 11
-3.13251
 21
19.7784
  0
LINE
  8
0
 10
-3.13251
 20
19.7784
 11
-2.09319
 21
19.9153
  0
LINE
  8
0
 10
-2.09319
 20
19.9153
 11
-1.04816
 21
19.9975
  0
LINE
  8
0
 10
-1.04816
 20
19.9975
 11
0
 21
20.025
  0
LINE
  8
0
 10
0
 20
20.025
 11
1.04816
 21
19.9975
  0
LINE
  8
0
 10
1.04816
 20
19.9975
 11
2.09319
 21
19.9153
  0
LINE
  8
0
 10
2.09319
 20
19.9153
 11
3.13251
 21
19.7784
  0
LINE
  8
0
 10
3.13251
 20
19.7784
 11
4.1636
 21
19.5873
  0
LINE
  8
0
 10
4.1636
 20
19.5873
 11
5.18265
 21
19.3427
  0
LINE
  8
0
 10
5.18265
 20
19.3427
 11
6.18814
 21
19.0448
  0
LINE
  8
0
 10
6.18814
 20
19.0448
 11
7.17627
 21
18.6949
  0
LINE
  8
0
 10
7.17627
 20
18.6949
 11
8.14497
 21
18.2937
  0
LINE
  8
0
 10
8.14497
 20
18.2937
 11
9.09099
 21
17.8425
  0
LINE
  8
0
 10
9.09099
 20
17.8425
 11
10.0125
 21
17.3421
  0
LINE
  8
0
 10
10.0125
 20
17.3421
 11
10.9063
 21
16.7944
  0
LINE
  8
0
 10
10.9063
 20
16.7944
 11
11.7704
 21
16.2005
  0
LINE
  8
0
 10
11.7704
 20
16.2005
 11
12.6021
 21
15.5623
  0
LINE
  8
0
 10
12.6021
 20
15.5623
 11
13.3995
 21
14.8813
  0
LINE
  8
0
 10
13.3995
 20
14.8813
 11
14.1598
 21
14.1598
  0
LINE
  8
0
 10
14.1598
 20
14.1598
 11
14.8813
 21
13.3995
  0
LINE
  8
0
 10
14.8813
 20
13.3995
 11
15.5623
 21
12.6021
  0
LINE
  8
0
 10
15.5623
 20
12.6021
 11
16.2005
 21
11.7704
  0
LINE
  8
0
 10
16.2005
 20
11.7704
 11
16.7944
 21
10.9063
  0
LINE
  8
0
 10
16.7944
 20
10.9063
 11
17.3421
 21
10.0125
  0
LINE
  8
0
 10
17.3421
 20
10.0125
 11
17.8425
 21
9.09099
  0
LINE
  8
0
 10
17.8425
 20
9.09099
 11
18.2937
 21
8.14497
  0
LINE
  8
0
 10
18.2937
 20
8.14497
 11
18.6949
 21
7.17627
  0
LINE
  8
0
 10
18.6949
 20
7.17627
 11
19.0448
 21
6.18814
  0
LINE
  8
0
 10
19.0448
 20
6.18814
 11
19.3427
 21
5.18265
  0
LINE
  8
0
 10
19.3427
 20
5.18265
 11
19.5873
 21
4.1636
  0
LINE
  8
0
 10
19.5873
 20
4.1636
 11
19.7784
 21
3.13251
  0
LINE
  8
0
 10
19.7784
 20
3.13251
 11
19.9153
 21
2.09319
  0
LINE
  8
0
 10
19.9153
 20
2.09319
 11
19.9975
 21
1.04816
  0
LINE
  8
0
 10
19.9975
 20
1.04816
 11
20.025
 21
0
  0
LINE
  8
0
 10
20.025
 20
0
 11
19.9975
 21
-1.04816
  0
LINE
  8
0
 10
19.9975
 20
-1.04816
 11
19.9153
 21
-2.09319
  0
LINE
  8
0
 10
19.9153
 20
-2.09319
 11
19.7784
 21
-3.13251
  0
LINE
  8
0
 10
19.7784
 20
-3.13251
 11
19.5873
 21
-4.1636
  0
LINE
  8
0
 10
19.5873
 20
-4.1636
 11
19.3427
 21
-5.18265
  0
LINE
  8
0
 10
19.3427
 20
-5.18265
 11
19.0448
 21
-6.18814
  0
LINE
  8
0
 10
19.0448
 20
-6.18814
 11
18.6949
 21
-7.17627
  0
LINE
  8
0
 10
18.6949
 20
-7.17627
 11
18.2937
 21
-8.14497
  0
LINE
  8
0
 10
18.2937
 20
-8.14497
 11
17.8425
 21
-9.09099
  0
LINE
  8
0
 10
17.8425
 20
-9.09099
 11
17.3421
 21
-10.0125
  0
LINE
  8
0
 10
17.3421
 20
-10.0125
 11
16.7944
 21
-10.9063
  0
LINE
  8
0
 10
16.7944
 20
-10.9063
 11
16.2005
 21
-11.7704
  0
LINE
  8
0
 10
16.2005
 20
-11.7704
 11
15.5623
 21
-12.6021
  0
LINE
  8
0
 10
15.5623
 20
-12.6021
 11
14.8813
 21
-13.3995
  0
LINE
  8
0
 10
14.8813
 20
-13.3995
 11
14.1598
 21
-14.1598
  0
LINE
  8
0
 10
14.1598
 20
-14.1598
 11
13.3995
 21
-14.8813
  0
LINE
  8
0
 10
13.3995
 20
-14.8813
 11
12.6021
 21
-15.5623
  0
LINE
  8
0
 10
12.6021
 20
-15.5623
 11
11.7704
 21
-16.2005
  0
LINE
  8
0
 10
11.7704
 20
-16.2005
 11
10.9063
 21
-16.7944
  0
LINE
  8
0
 10
10.9063
 20
-16.7944
 11
10.0125
 21
-17.3421
  0
LINE
  8
0
 10
10.0125
 20
-17.3421
 11
9.09099
 21
-17.8425
  0
LINE
  8
0
 10
9.09099
 20
-17.8425
 11
8.14497
 21
-18.2937
  0
LINE
  8
0
 10
8.14497
 20
-18.2937
 11
7.17627
 21
-18.6949
  0
LINE
  8
0
 10
7.17627
 20
-18.6949
 11
6.18814
 21
-19.0448
  0
LINE
  8
0
 10
6.18814
 20
-19.0448
 11
5.18265
 21
-19.3427
  0
LINE
  8
0
 10
5.18265
 20
-19.3427
 11
4.1636
 21
-19.5873
  0
LINE
  8
0
 10
4.1636
 20
-19.5873
 11
3.13251
 21
-19.7784
  0
LINE
  8
0
 10
3.13251
 20
-19.7784
 11
2.09319
 21
-19.9153
  0
LINE
  8
0
 10
2.09319
 20
-19.9153
 11
1.04816
 21
-19.9975
  0
LINE
  8
0
 10
1.04816
 20
-19.9975
 11
0
 21
-20.025
  0
LINE
  8
0
 10
0
 20
-20.025
 11
-1.04816
 21
-19.9975
  0
LINE
  8
0
 10
20.2641
 20
6.98154
 11
20.0993
 21
7.10233
  0
LINE
  8
0
 10
20.0993
 20
7.10233
 11
19.9933
 21
7.27698
  0
LINE
  8
0
 10
19.9933
 20
7.27698
 11
19.9623
 21
7.4789
  0
LINE
  8
0
 10
19.9623
 20
7.4789
 11
20.0108
 21
7.67726
  0
LINE
  8
0
 10
20.0108
 20
7.67726
 11
20.1316
 21
7.84203
  0
LINE
  8
0
 10
20.1316
 20
7.84203
 11
20.3062
 21
7.948
  0
LINE
  8
0
 10
20.3062
 20
7.948
 11
20.5081
 21
7.97906
  0
LINE
  8
0
 10
20.5081
 20
7.97906
 11
20.7065
 21
7.93053
  0
LINE
  8
0
 10
20.7065
 20
7.93053
 11
20.8713
 21
7.80974
  0
LINE
  8
0
 10
20.8713
 20
7.80974
 11
20.9772
 21
7.63509
  0
LINE
  8
0
 10
20.9772
 20
7.63509
 11
21.0083
 21
7.43317
  0
LINE
  8
0
 10
21.0083
 20
7.43317
 11
20.9598
 21
7.2348
  0
LINE
  8
0
 10
20.9598
 20
7.2348
 11
20.839
 21
7.07004
  0
LINE
  8
0
 10
20.839
 20
7.07004
 11
20.6644
 21
6.96407
  0
LINE
  8
0
 10
20.6644
 20
6.96407
 11
20.4624
 21
6.933
  0
LINE
  8
0
 10
20.4624
 20
6.933
 11
20.2641
 21
6.98154
  0
LINE
  8
0
 10
21.5997
 20
-0.483673
 11
21.4298
 21
-0.370178
  0
LINE
  8
0
 10
21.4298
 20
-0.370178
 11
21.3163
 21
-0.200333
  0
LINE
  8
0
 10
21.3163
 20
-0.200333
 11
21.2765
 21
0
  0
LINE
  8
0
 10
21.2765
 20
0
 11
21.3163
 21
0.200333
  0
LINE
  8
0
 10
21.3163
 20
0.200333
 11
21.4298
 21
0.370178
  0
LINE
  8
0
 10
21.4298
 20
0.370178
 11
21.5997
 21
0.483673
  0
LINE
  8
0
 10
21.5997
 20
0.483673
 11
21.8
 21
0.523514
  0
LINE
  8
0
 10
21.8
 20
0.523514
 11
22.0003
 21
0.483673
  0
LINE
  8
0
 10
22.0003
 20
0.483673
 11
22.1702
 21
0.370178
  0
LINE
  8
0
 10
22.1702
 20
0.370178
 11
22.2837
 21
0.200333
  0
LINE
  8
0
 10
22.2837
 20
0.200333
 11
22.3235
 21
0
  0
LINE
  8
0
 10
22.3235
 20
0
 11
22.2837
 21
-0.200333
  0
LINE
  8
0
 10
22.2837
 20
-0.200333
 11
22.1702
 21
-0.370178
  0
LINE
  8
0
 10
22.1702
 20
-0.370178
 11
22.0003
 21
-0.483673
  0
LINE
  8
0
 10
22.0003
 20
-0.483673
 11
21.8
 21
-0.523514
  0
LINE
  8
0
 10
21.8
 20
-0.523514
 11
21.5997
 21
-0.483673
  0
ENDSEC
  0
SECTION
  2
OBJECTS
  0
DICTIONARY
  0
ENDSEC
  0
EOF
