  0
SECTION
  2
BLOCKS
  0
ENDSEC
  0
SECTION
  2
ENTITIES
  0
LINE
  8
0
 10
12.475
 20
-115.475
 11
27.525
 21
-115.475
  0
LINE
  8
0
 10
27.525
 20
-115.475
 11
27.525
 21
-118.575
  0
LINE
  8
0
 10
27.525
 20
-118.575
 11
53.455
 21
-118.575
  0
LINE
  8
0
 10
53.455
 20
-118.575
 11
53.455
 21
-102.275
  0
LINE
  8
0
 10
53.455
 20
-102.275
 11
67.055
 21
-102.275
  0
LINE
  8
0
 10
67.055
 20
-102.275
 11
67.055
 21
-118.575
  0
LINE
  8
0
 10
67.055
 20
-118.575
 11
69.975
 21
-118.575
  0
LINE
  8
0
 10
69.975
 20
-118.575
 11
69.975
 21
-115.475
  0
LINE
  8
0
 10
69.975
 20
-115.475
 11
78.025
 21
-115.475
  0
LINE
  8
0
 10
78.025
 20
-115.475
 11
78.025
 21
-118.575
  0
LINE
  8
0
 10
78.025
 20
-118.575
 11
80.925
 21
-118.575
  0
LINE
  8
0
 10
80.925
 20
-118.575
 11
80.925
 21
-102.525
  0
LINE
  8
0
 10
80.925
 20
-102.525
 11
95.375
 21
-102.525
  0
LINE
  8
0
 10
95.375
 20
-102.525
 11
95.375
 21
-118.575
  0
LINE
  8
0
 10
95.375
 20
-118.575
 11
104.625
 21
-118.575
  0
LINE
  8
0
 10
104.625
 20
-118.575
 11
104.625
 21
-103.125
  0
LINE
  8
0
 10
104.625
 20
-103.125
 11
116.775
 21
-103.125
  0
LINE
  8
0
 10
116.775
 20
-103.125
 11
116.775
 21
-118.575
  0
LINE
  8
0
 10
116.775
 20
-118.575
 11
130.475
 21
-118.575
  0
LINE
  8
0
 10
130.475
 20
-118.575
 11
130.475
 21
-107.075
  0
LINE
  8
0
 10
130.475
 20
-107.075
 11
157.725
 21
-107.075
  0
LINE
  8
0
 10
157.725
 20
-107.075
 11
157.725
 21
-118.575
  0
LINE
  8
0
 10
157.725
 20
-118.575
 11
162.475
 21
-118.575
  0
LINE
  8
0
 10
162.475
 20
-118.575
 11
162.475
 21
-115.475
  0
LINE
  8
0
 10
162.475
 20
-115.475
 11
177.525
 21
-115.475
  0
LINE
  8
0
 10
177.525
 20
-115.475
 11
177.525
 21
-118.575
  0
LINE
  8
0
 10
177.525
 20
-118.575
 11
183.575
 21
-118.575
  0
LINE
  8
0
 10
183.575
 20
-118.575
 11
183.575
 21
-97.525
  0
LINE
  8
0
 10
183.575
 20
-97.525
 11
180.475
 21
-97.525
  0
LINE
  8
0
 10
180.475
 20
-97.525
 11
180.475
 21
-82.475
  0
LINE
  8
0
 10
180.475
 20
-82.475
 11
183.575
 21
-82.475
  0
LINE
  8
0
 10
183.575
 20
-82.475
 11
183.575
 21
-47.525
  0
LINE
  8
0
 10
183.575
 20
-47.525
 11
180.475
 21
-47.525
  0
LINE
  8
0
 10
180.475
 20
-47.525
 11
180.475
 21
-32.475
  0
LINE
  8
0
 10
180.475
 20
-32.475
 11
183.575
 21
-32.475
  0
LINE
  8
0
 10
183.575
 20
-32.475
 11
183.575
 21
-11.425
  0
LINE
  8
0
 10
183.575
 20
-11.425
 11
177.525
 21
-11.425
  0
LINE
  8
0
 10
177.525
 20
-11.425
 11
177.525
 21
-14.525
  0
LINE
  8
0
 10
177.525
 20
-14.525
 11
162.475
 21
-14.525
  0
LINE
  8
0
 10
162.475
 20
-14.525
 11
162.475
 21
-11.425
  0
LINE
  8
0
 10
162.475
 20
-11.425
 11
97.525
 21
-11.425
  0
LINE
  8
0
 10
97.525
 20
-11.425
 11
97.525
 21
-14.525
  0
LINE
  8
0
 10
97.525
 20
-14.525
 11
82.475
 21
-14.525
  0
LINE
  8
0
 10
82.475
 20
-14.525
 11
82.475
 21
-11.425
  0
LINE
  8
0
 10
82.475
 20
-11.425
 11
27.525
 21
-11.425
  0
LINE
  8
0
 10
27.525
 20
-11.425
 11
27.525
 21
-14.525
  0
LINE
  8
0
 10
27.525
 20
-14.525
 11
12.475
 21
-14.525
  0
LINE
  8
0
 10
12.475
 20
-14.525
 11
12.475
 21
-11.425
  0
LINE
  8
0
 10
12.475
 20
-11.425
 11
-3.575
 21
-11.425
  0
LINE
  8
0
 10
-3.575
 20
-11.425
 11
-3.575
 21
-32.475
  0
LINE
  8
0
 10
-3.575
 20
-32.475
 11
-0.474991
 21
-32.475
  0
LINE
  8
0
 10
-0.474991
 20
-32.475
 11
-0.474991
 21
-47.525
  0
LINE
  8
0
 10
-0.474991
 20
-47.525
 11
-3.575
 21
-47.525
  0
LINE
  8
0
 10
-3.575
 20
-47.525
 11
-3.575
 21
-82.475
  0
LINE
  8
0
 10
-3.575
 20
-82.475
 11
-0.474991
 21
-82.475
  0
LINE
  8
0
 10
-0.474991
 20
-82.475
 11
-0.474991
 21
-97.525
  0
LINE
  8
0
 10
-0.474991
 20
-97.525
 11
-3.575
 21
-97.525
  0
LINE
  8
0
 10
-3.575
 20
-97.525
 11
-3.575
 21
-118.575
  0
LINE
  8
0
 10
-3.575
 20
-118.575
 11
12.475
 21
-118.575
  0
LINE
  8
0
 10
12.475
 20
-118.575
 11
12.475
 21
-115.475
  0
LINE
  8
0
 10
3.69281
 20
-20.5444
 11
3.39738
 21
-20.4548
  0
LINE
  8
0
 10
3.39738
 20
-20.4548
 11
3.12512
 21
-20.3092
  0
LINE
  8
0
 10
3.12512
 20
-20.3092
 11
2.88655
 21
-20.1134
  0
LINE
  8
0
 10
2.88655
 20
-20.1134
 11
2.69075
 21
-19.8749
  0
LINE
  8
0
 10
2.69075
 20
-19.8749
 11
2.54523
 21
-19.6026
  0
LINE
  8
0
 10
2.54523
 20
-19.6026
 11
2.45563
 21
-19.3072
  0
LINE
  8
0
 10
2.45563
 20
-19.3072
 11
2.42535
 21
-19
  0
LINE
  8
0
 10
2.42535
 20
-19
 11
2.45563
 21
-18.6928
  0
LINE
  8
0
 10
2.45563
 20
-18.6928
 11
2.54523
 21
-18.3974
  0
LINE
  8
0
 10
2.54523
 20
-18.3974
 11
2.69075
 21
-18.1251
  0
LINE
  8
0
 10
2.69075
 20
-18.1251
 11
2.88655
 21
-17.8866
  0
LINE
  8
0
 10
2.88655
 20
-17.8866
 11
3.12512
 21
-17.6908
  0
LINE
  8
0
 10
3.12512
 20
-17.6908
 11
3.39738
 21
-17.5452
  0
LINE
  8
0
 10
3.39738
 20
-17.5452
 11
3.69281
 21
-17.4556
  0
LINE
  8
0
 10
3.69281
 20
-17.4556
 11
4
 21
-17.4254
  0
LINE
  8
0
 10
4
 20
-17.4254
 11
4.30717
 21
-17.4556
  0
LINE
  8
0
 10
4.30717
 20
-17.4556
 11
4.6026
 21
-17.5452
  0
LINE
  8
0
 10
4.6026
 20
-17.5452
 11
4.87486
 21
-17.6908
  0
LINE
  8
0
 10
4.87486
 20
-17.6908
 11
5.11343
 21
-17.8866
  0
LINE
  8
0
 10
5.11343
 20
-17.8866
 11
5.30923
 21
-18.1251
  0
LINE
  8
0
 10
5.30923
 20
-18.1251
 11
5.45476
 21
-18.3974
  0
LINE
  8
0
 10
5.45476
 20
-18.3974
 11
5.54436
 21
-18.6928
  0
LINE
  8
0
 10
5.54436
 20
-18.6928
 11
5.57463
 21
-19
  0
LINE
  8
0
 10
5.57463
 20
-19
 11
5.54436
 21
-19.3072
  0
LINE
  8
0
 10
5.54436
 20
-19.3072
 11
5.45476
 21
-19.6026
  0
LINE
  8
0
 10
5.45476
 20
-19.6026
 11
5.30923
 21
-19.8749
  0
LINE
  8
0
 10
5.30923
 20
-19.8749
 11
5.11343
 21
-20.1134
  0
LINE
  8
0
 10
5.11343
 20
-20.1134
 11
4.87486
 21
-20.3092
  0
LINE
  8
0
 10
4.87486
 20
-20.3092
 11
4.6026
 21
-20.4548
  0
LINE
  8
0
 10
4.6026
 20
-20.4548
 11
4.30717
 21
-20.5444
  0
LINE
  8
0
 10
4.30717
 20
-20.5444
 11
4
 21
-20.5746
  0
LINE
  8
0
 10
4
 20
-20.5746
 11
3.69281
 21
-20.5444
  0
LINE
  8
0
 10
175.693
 20
-20.5444
 11
175.397
 21
-20.4548
  0
LINE
  8
0
 10
175.397
 20
-20.4548
 11
175.125
 21
-20.3092
  0
LINE
  8
0
 10
175.125
 20
-20.3092
 11
174.887
 21
-20.1134
  0
LINE
  8
0
 10
174.887
 20
-20.1134
 11
174.691
 21
-19.8749
  0
LINE
  8
0
 10
174.691
 20
-19.8749
 11
174.545
 21
-19.6026
  0
LINE
  8
0
 10
174.545
 20
-19.6026
 11
174.456
 21
-19.3072
  0
LINE
  8
0
 10
174.456
 20
-19.3072
 11
174.425
 21
-19
  0
LINE
  8
0
 10
174.425
 20
-19
 11
174.456
 21
-18.6928
  0
LINE
  8
0
 10
174.456
 20
-18.6928
 11
174.545
 21
-18.3974
  0
LINE
  8
0
 10
174.545
 20
-18.3974
 11
174.691
 21
-18.1251
  0
LINE
  8
0
 10
174.691
 20
-18.1251
 11
174.887
 21
-17.8866
  0
LINE
  8
0
 10
174.887
 20
-17.8866
 11
175.125
 21
-17.6908
  0
LINE
  8
0
 10
175.125
 20
-17.6908
 11
175.397
 21
-17.5452
  0
LINE
  8
0
 10
175.397
 20
-17.5452
 11
175.693
 21
-17.4556
  0
LINE
  8
0
 10
175.693
 20
-17.4556
 11
176
 21
-17.4254
  0
LINE
  8
0
 10
176
 20
-17.4254
 11
176.307
 21
-17.4556
  0
LINE
  8
0
 10
176.307
 20
-17.4556
 11
176.603
 21
-17.5452
  0
LINE
  8
0
 10
176.603
 20
-17.5452
 11
176.875
 21
-17.6908
  0
LINE
  8
0
 10
176.875
 20
-17.6908
 11
177.113
 21
-17.8866
  0
LINE
  8
0
 10
177.113
 20
-17.8866
 11
177.309
 21
-18.1251
  0
LINE
  8
0
 10
177.309
 20
-18.1251
 11
177.455
 21
-18.3974
  0
LINE
  8
0
 10
177.455
 20
-18.3974
 11
177.544
 21
-18.6928
  0
LINE
  8
0
 10
177.544
 20
-18.6928
 11
177.575
 21
-19
  0
LINE
  8
0
 10
177.575
 20
-19
 11
177.544
 21
-19.3072
  0
LINE
  8
0
 10
177.544
 20
-19.3072
 11
177.455
 21
-19.6026
  0
LINE
  8
0
 10
177.455
 20
-19.6026
 11
177.309
 21
-19.8749
  0
LINE
  8
0
 10
177.309
 20
-19.8749
 11
177.113
 21
-20.1134
  0
LINE
  8
0
 10
177.113
 20
-20.1134
 11
176.875
 21
-20.3092
  0
LINE
  8
0
 10
176.875
 20
-20.3092
 11
176.603
 21
-20.4548
  0
LINE
  8
0
 10
176.603
 20
-20.4548
 11
176.307
 21
-20.5444
  0
LINE
  8
0
 10
176.307
 20
-20.5444
 11
176
 21
-20.5746
  0
LINE
  8
0
 10
176
 20
-20.5746
 11
175.693
 21
-20.5444
  0
LINE
  8
0
 10
75.2258
 20
-28.892
 11
74.8088
 21
-28.8091
  0
LINE
  8
0
 10
74.8088
 20
-28.8091
 11
74.4063
 21
-28.6725
  0
LINE
  8
0
 10
74.4063
 20
-28.6725
 11
74.0251
 21
-28.4845
  0
LINE
  8
0
 10
74.0251
 20
-28.4845
 11
73.6716
 21
-28.2482
  0
LINE
  8
0
 10
73.6716
 20
-28.2482
 11
73.352
 21
-27.968
  0
LINE
  8
0
 10
73.352
 20
-27.968
 11
73.0717
 21
-27.6484
  0
LINE
  8
0
 10
73.0717
 20
-27.6484
 11
72.8355
 21
-27.2949
  0
LINE
  8
0
 10
72.8355
 20
-27.2949
 11
72.6475
 21
-26.9137
  0
LINE
  8
0
 10
72.6475
 20
-26.9137
 11
72.5109
 21
-26.5112
  0
LINE
  8
0
 10
72.5109
 20
-26.5112
 11
72.428
 21
-26.0942
  0
LINE
  8
0
 10
72.428
 20
-26.0942
 11
72.4002
 21
-25.67
  0
LINE
  8
0
 10
72.4002
 20
-25.67
 11
72.428
 21
-25.2458
  0
LINE
  8
0
 10
72.428
 20
-25.2458
 11
72.5109
 21
-24.8288
  0
LINE
  8
0
 10
72.5109
 20
-24.8288
 11
72.6475
 21
-24.4263
  0
LINE
  8
0
 10
72.6475
 20
-24.4263
 11
72.8355
 21
-24.0451
  0
LINE
  8
0
 10
72.8355
 20
-24.0451
 11
73.0717
 21
-23.6916
  0
LINE
  8
0
 10
73.0717
 20
-23.6916
 11
73.352
 21
-23.372
  0
LINE
  8
0
 10
73.352
 20
-23.372
 11
73.6716
 21
-23.0918
  0
LINE
  8
0
 10
73.6716
 20
-23.0918
 11
74.0251
 21
-22.8555
  0
LINE
  8
0
 10
74.0251
 20
-22.8555
 11
74.4063
 21
-22.6675
  0
LINE
  8
0
 10
74.4063
 20
-22.6675
 11
74.8088
 21
-22.5309
  0
LINE
  8
0
 10
74.8088
 20
-22.5309
 11
75.2258
 21
-22.448
  0
LINE
  8
0
 10
75.2258
 20
-22.448
 11
75.65
 21
-22.4202
  0
LINE
  8
0
 10
75.65
 20
-22.4202
 11
76.0742
 21
-22.448
  0
LINE
  8
0
 10
76.0742
 20
-22.448
 11
76.4912
 21
-22.5309
  0
LINE
  8
0
 10
76.4912
 20
-22.5309
 11
76.8936
 21
-22.6675
  0
LINE
  8
0
 10
76.8936
 20
-22.6675
 11
77.2749
 21
-22.8555
  0
LINE
  8
0
 10
77.2749
 20
-22.8555
 11
77.6284
 21
-23.0918
  0
LINE
  8
0
 10
77.6284
 20
-23.0918
 11
77.948
 21
-23.372
  0
LINE
  8
0
 10
77.948
 20
-23.372
 11
78.2282
 21
-23.6916
  0
LINE
  8
0
 10
78.2282
 20
-23.6916
 11
78.4645
 21
-24.0451
  0
LINE
  8
0
 10
78.4645
 20
-24.0451
 11
78.6525
 21
-24.4263
  0
LINE
  8
0
 10
78.6525
 20
-24.4263
 11
78.7891
 21
-24.8288
  0
LINE
  8
0
 10
78.7891
 20
-24.8288
 11
78.872
 21
-25.2458
  0
LINE
  8
0
 10
78.872
 20
-25.2458
 11
78.8998
 21
-25.67
  0
LINE
  8
0
 10
78.8998
 20
-25.67
 11
78.872
 21
-26.0942
  0
LINE
  8
0
 10
78.872
 20
-26.0942
 11
78.7891
 21
-26.5112
  0
LINE
  8
0
 10
78.7891
 20
-26.5112
 11
78.6525
 21
-26.9137
  0
LINE
  8
0
 10
78.6525
 20
-26.9137
 11
78.4645
 21
-27.2949
  0
LINE
  8
0
 10
78.4645
 20
-27.2949
 11
78.2282
 21
-27.6484
  0
LINE
  8
0
 10
78.2282
 20
-27.6484
 11
77.948
 21
-27.968
  0
LINE
  8
0
 10
77.948
 20
-27.968
 11
77.6284
 21
-28.2482
  0
LINE
  8
0
 10
77.6284
 20
-28.2482
 11
77.2749
 21
-28.4845
  0
LINE
  8
0
 10
77.2749
 20
-28.4845
 11
76.8936
 21
-28.6725
  0
LINE
  8
0
 10
76.8936
 20
-28.6725
 11
76.4912
 21
-28.8091
  0
LINE
  8
0
 10
76.4912
 20
-28.8091
 11
76.0742
 21
-28.892
  0
LINE
  8
0
 10
76.0742
 20
-28.892
 11
75.65
 21
-28.9198
  0
LINE
  8
0
 10
75.65
 20
-28.9198
 11
75.2258
 21
-28.892
  0
LINE
  8
0
 10
93.2258
 20
-28.892
 11
92.8088
 21
-28.8091
  0
LINE
  8
0
 10
92.8088
 20
-28.8091
 11
92.4063
 21
-28.6725
  0
LINE
  8
0
 10
92.4063
 20
-28.6725
 11
92.0251
 21
-28.4845
  0
LINE
  8
0
 10
92.0251
 20
-28.4845
 11
91.6716
 21
-28.2482
  0
LINE
  8
0
 10
91.6716
 20
-28.2482
 11
91.352
 21
-27.968
  0
LINE
  8
0
 10
91.352
 20
-27.968
 11
91.0717
 21
-27.6484
  0
LINE
  8
0
 10
91.0717
 20
-27.6484
 11
90.8355
 21
-27.2949
  0
LINE
  8
0
 10
90.8355
 20
-27.2949
 11
90.6475
 21
-26.9137
  0
LINE
  8
0
 10
90.6475
 20
-26.9137
 11
90.5109
 21
-26.5112
  0
LINE
  8
0
 10
90.5109
 20
-26.5112
 11
90.428
 21
-26.0942
  0
LINE
  8
0
 10
90.428
 20
-26.0942
 11
90.4002
 21
-25.67
  0
LINE
  8
0
 10
90.4002
 20
-25.67
 11
90.428
 21
-25.2458
  0
LINE
  8
0
 10
90.428
 20
-25.2458
 11
90.5109
 21
-24.8288
  0
LINE
  8
0
 10
90.5109
 20
-24.8288
 11
90.6475
 21
-24.4263
  0
LINE
  8
0
 10
90.6475
 20
-24.4263
 11
90.8355
 21
-24.0451
  0
LINE
  8
0
 10
90.8355
 20
-24.0451
 11
91.0717
 21
-23.6916
  0
LINE
  8
0
 10
91.0717
 20
-23.6916
 11
91.352
 21
-23.372
  0
LINE
  8
0
 10
91.352
 20
-23.372
 11
91.6716
 21
-23.0918
  0
LINE
  8
0
 10
91.6716
 20
-23.0918
 11
92.0251
 21
-22.8555
  0
LINE
  8
0
 10
92.0251
 20
-22.8555
 11
92.4063
 21
-22.6675
  0
LINE
  8
0
 10
92.4063
 20
-22.6675
 11
92.8088
 21
-22.5309
  0
LINE
  8
0
 10
92.8088
 20
-22.5309
 11
93.2258
 21
-22.448
  0
LINE
  8
0
 10
93.2258
 20
-22.448
 11
93.65
 21
-22.4202
  0
LINE
  8
0
 10
93.65
 20
-22.4202
 11
94.0742
 21
-22.448
  0
LINE
  8
0
 10
94.0742
 20
-22.448
 11
94.4912
 21
-22.5309
  0
LINE
  8
0
 10
94.4912
 20
-22.5309
 11
94.8936
 21
-22.6675
  0
LINE
  8
0
 10
94.8936
 20
-22.6675
 11
95.2749
 21
-22.8555
  0
LINE
  8
0
 10
95.2749
 20
-22.8555
 11
95.6284
 21
-23.0918
  0
LINE
  8
0
 10
95.6284
 20
-23.0918
 11
95.948
 21
-23.372
  0
LINE
  8
0
 10
95.948
 20
-23.372
 11
96.2282
 21
-23.6916
  0
LINE
  8
0
 10
96.2282
 20
-23.6916
 11
96.4645
 21
-24.0451
  0
LINE
  8
0
 10
96.4645
 20
-24.0451
 11
96.6525
 21
-24.4263
  0
LINE
  8
0
 10
96.6525
 20
-24.4263
 11
96.7891
 21
-24.8288
  0
LINE
  8
0
 10
96.7891
 20
-24.8288
 11
96.872
 21
-25.2458
  0
LINE
  8
0
 10
96.872
 20
-25.2458
 11
96.8998
 21
-25.67
  0
LINE
  8
0
 10
96.8998
 20
-25.67
 11
96.872
 21
-26.0942
  0
LINE
  8
0
 10
96.872
 20
-26.0942
 11
96.7891
 21
-26.5112
  0
LINE
  8
0
 10
96.7891
 20
-26.5112
 11
96.6525
 21
-26.9137
  0
LINE
  8
0
 10
96.6525
 20
-26.9137
 11
96.4645
 21
-27.2949
  0
LINE
  8
0
 10
96.4645
 20
-27.2949
 11
96.2282
 21
-27.6484
  0
LINE
  8
0
 10
96.2282
 20
-27.6484
 11
95.948
 21
-27.968
  0
LINE
  8
0
 10
95.948
 20
-27.968
 11
95.6284
 21
-28.2482
  0
LINE
  8
0
 10
95.6284
 20
-28.2482
 11
95.2749
 21
-28.4845
  0
LINE
  8
0
 10
95.2749
 20
-28.4845
 11
94.8936
 21
-28.6725
  0
LINE
  8
0
 10
94.8936
 20
-28.6725
 11
94.4912
 21
-28.8091
  0
LINE
  8
0
 10
94.4912
 20
-28.8091
 11
94.0742
 21
-28.892
  0
LINE
  8
0
 10
94.0742
 20
-28.892
 11
93.65
 21
-28.9198
  0
LINE
  8
0
 10
93.65
 20
-28.9198
 11
93.2258
 21
-28.892
  0
LINE
  8
0
 10
111.226
 20
-28.892
 11
110.809
 21
-28.8091
  0
LINE
  8
0
 10
110.809
 20
-28.8091
 11
110.406
 21
-28.6725
  0
LINE
  8
0
 10
110.406
 20
-28.6725
 11
110.025
 21
-28.4845
  0
LINE
  8
0
 10
110.025
 20
-28.4845
 11
109.672
 21
-28.2482
  0
LINE
  8
0
 10
109.672
 20
-28.2482
 11
109.352
 21
-27.968
  0
LINE
  8
0
 10
109.352
 20
-27.968
 11
109.072
 21
-27.6484
  0
LINE
  8
0
 10
109.072
 20
-27.6484
 11
108.836
 21
-27.2949
  0
LINE
  8
0
 10
108.836
 20
-27.2949
 11
108.648
 21
-26.9137
  0
LINE
  8
0
 10
108.648
 20
-26.9137
 11
108.511
 21
-26.5112
  0
LINE
  8
0
 10
108.511
 20
-26.5112
 11
108.428
 21
-26.0942
  0
LINE
  8
0
 10
108.428
 20
-26.0942
 11
108.4
 21
-25.67
  0
LINE
  8
0
 10
108.4
 20
-25.67
 11
108.428
 21
-25.2458
  0
LINE
  8
0
 10
108.428
 20
-25.2458
 11
108.511
 21
-24.8288
  0
LINE
  8
0
 10
108.511
 20
-24.8288
 11
108.648
 21
-24.4263
  0
LINE
  8
0
 10
108.648
 20
-24.4263
 11
108.836
 21
-24.0451
  0
LINE
  8
0
 10
108.836
 20
-24.0451
 11
109.072
 21
-23.6916
  0
LINE
  8
0
 10
109.072
 20
-23.6916
 11
109.352
 21
-23.372
  0
LINE
  8
0
 10
109.352
 20
-23.372
 11
109.672
 21
-23.0918
  0
LINE
  8
0
 10
109.672
 20
-23.0918
 11
110.025
 21
-22.8555
  0
LINE
  8
0
 10
110.025
 20
-22.8555
 11
110.406
 21
-22.6675
  0
LINE
  8
0
 10
110.406
 20
-22.6675
 11
110.809
 21
-22.5309
  0
LINE
  8
0
 10
110.809
 20
-22.5309
 11
111.226
 21
-22.448
  0
LINE
  8
0
 10
111.226
 20
-22.448
 11
111.65
 21
-22.4202
  0
LINE
  8
0
 10
111.65
 20
-22.4202
 11
112.074
 21
-22.448
  0
LINE
  8
0
 10
112.074
 20
-22.448
 11
112.491
 21
-22.5309
  0
LINE
  8
0
 10
112.491
 20
-22.5309
 11
112.894
 21
-22.6675
  0
LINE
  8
0
 10
112.894
 20
-22.6675
 11
113.275
 21
-22.8555
  0
LINE
  8
0
 10
113.275
 20
-22.8555
 11
113.628
 21
-23.0918
  0
LINE
  8
0
 10
113.628
 20
-23.0918
 11
113.948
 21
-23.372
  0
LINE
  8
0
 10
113.948
 20
-23.372
 11
114.228
 21
-23.6916
  0
LINE
  8
0
 10
114.228
 20
-23.6916
 11
114.464
 21
-24.0451
  0
LINE
  8
0
 10
114.464
 20
-24.0451
 11
114.652
 21
-24.4263
  0
LINE
  8
0
 10
114.652
 20
-24.4263
 11
114.789
 21
-24.8288
  0
LINE
  8
0
 10
114.789
 20
-24.8288
 11
114.872
 21
-25.2458
  0
LINE
  8
0
 10
114.872
 20
-25.2458
 11
114.9
 21
-25.67
  0
LINE
  8
0
 10
114.9
 20
-25.67
 11
114.872
 21
-26.0942
  0
LINE
  8
0
 10
114.872
 20
-26.0942
 11
114.789
 21
-26.5112
  0
LINE
  8
0
 10
114.789
 20
-26.5112
 11
114.652
 21
-26.9137
  0
LINE
  8
0
 10
114.652
 20
-26.9137
 11
114.464
 21
-27.2949
  0
LINE
  8
0
 10
114.464
 20
-27.2949
 11
114.228
 21
-27.6484
  0
LINE
  8
0
 10
114.228
 20
-27.6484
 11
113.948
 21
-27.968
  0
LINE
  8
0
 10
113.948
 20
-27.968
 11
113.628
 21
-28.2482
  0
LINE
  8
0
 10
113.628
 20
-28.2482
 11
113.275
 21
-28.4845
  0
LINE
  8
0
 10
113.275
 20
-28.4845
 11
112.894
 21
-28.6725
  0
LINE
  8
0
 10
112.894
 20
-28.6725
 11
112.491
 21
-28.8091
  0
LINE
  8
0
 10
112.491
 20
-28.8091
 11
112.074
 21
-28.892
  0
LINE
  8
0
 10
112.074
 20
-28.892
 11
111.65
 21
-28.9198
  0
LINE
  8
0
 10
111.65
 20
-28.9198
 11
111.226
 21
-28.892
  0
LINE
  8
0
 10
129.226
 20
-28.892
 11
128.809
 21
-28.8091
  0
LINE
  8
0
 10
128.809
 20
-28.8091
 11
128.406
 21
-28.6725
  0
LINE
  8
0
 10
128.406
 20
-28.6725
 11
128.025
 21
-28.4845
  0
LINE
  8
0
 10
128.025
 20
-28.4845
 11
127.672
 21
-28.2482
  0
LINE
  8
0
 10
127.672
 20
-28.2482
 11
127.352
 21
-27.968
  0
LINE
  8
0
 10
127.352
 20
-27.968
 11
127.072
 21
-27.6484
  0
LINE
  8
0
 10
127.072
 20
-27.6484
 11
126.836
 21
-27.2949
  0
LINE
  8
0
 10
126.836
 20
-27.2949
 11
126.648
 21
-26.9137
  0
LINE
  8
0
 10
126.648
 20
-26.9137
 11
126.511
 21
-26.5112
  0
LINE
  8
0
 10
126.511
 20
-26.5112
 11
126.428
 21
-26.0942
  0
LINE
  8
0
 10
126.428
 20
-26.0942
 11
126.4
 21
-25.67
  0
LINE
  8
0
 10
126.4
 20
-25.67
 11
126.428
 21
-25.2458
  0
LINE
  8
0
 10
126.428
 20
-25.2458
 11
126.511
 21
-24.8288
  0
LINE
  8
0
 10
126.511
 20
-24.8288
 11
126.648
 21
-24.4263
  0
LINE
  8
0
 10
126.648
 20
-24.4263
 11
126.836
 21
-24.0451
  0
LINE
  8
0
 10
126.836
 20
-24.0451
 11
127.072
 21
-23.6916
  0
LINE
  8
0
 10
127.072
 20
-23.6916
 11
127.352
 21
-23.372
  0
LINE
  8
0
 10
127.352
 20
-23.372
 11
127.672
 21
-23.0918
  0
LINE
  8
0
 10
127.672
 20
-23.0918
 11
128.025
 21
-22.8555
  0
LINE
  8
0
 10
128.025
 20
-22.8555
 11
128.406
 21
-22.6675
  0
LINE
  8
0
 10
128.406
 20
-22.6675
 11
128.809
 21
-22.5309
  0
LINE
  8
0
 10
128.809
 20
-22.5309
 11
129.226
 21
-22.448
  0
LINE
  8
0
 10
129.226
 20
-22.448
 11
129.65
 21
-22.4202
  0
LINE
  8
0
 10
129.65
 20
-22.4202
 11
130.074
 21
-22.448
  0
LINE
  8
0
 10
130.074
 20
-22.448
 11
130.491
 21
-22.5309
  0
LINE
  8
0
 10
130.491
 20
-22.5309
 11
130.894
 21
-22.6675
  0
LINE
  8
0
 10
130.894
 20
-22.6675
 11
131.275
 21
-22.8555
  0
LINE
  8
0
 10
131.275
 20
-22.8555
 11
131.628
 21
-23.0918
  0
LINE
  8
0
 10
131.628
 20
-23.0918
 11
131.948
 21
-23.372
  0
LINE
  8
0
 10
131.948
 20
-23.372
 11
132.228
 21
-23.6916
  0
LINE
  8
0
 10
132.228
 20
-23.6916
 11
132.464
 21
-24.0451
  0
LINE
  8
0
 10
132.464
 20
-24.0451
 11
132.652
 21
-24.4263
  0
LINE
  8
0
 10
132.652
 20
-24.4263
 11
132.789
 21
-24.8288
  0
LINE
  8
0
 10
132.789
 20
-24.8288
 11
132.872
 21
-25.2458
  0
LINE
  8
0
 10
132.872
 20
-25.2458
 11
132.9
 21
-25.67
  0
LINE
  8
0
 10
132.9
 20
-25.67
 11
132.872
 21
-26.0942
  0
LINE
  8
0
 10
132.872
 20
-26.0942
 11
132.789
 21
-26.5112
  0
LINE
  8
0
 10
132.789
 20
-26.5112
 11
132.652
 21
-26.9137
  0
LINE
  8
0
 10
132.652
 20
-26.9137
 11
132.464
 21
-27.2949
  0
LINE
  8
0
 10
132.464
 20
-27.2949
 11
132.228
 21
-27.6484
  0
LINE
  8
0
 10
132.228
 20
-27.6484
 11
131.948
 21
-27.968
  0
LINE
  8
0
 10
131.948
 20
-27.968
 11
131.628
 21
-28.2482
  0
LINE
  8
0
 10
131.628
 20
-28.2482
 11
131.275
 21
-28.4845
  0
LINE
  8
0
 10
131.275
 20
-28.4845
 11
130.894
 21
-28.6725
  0
LINE
  8
0
 10
130.894
 20
-28.6725
 11
130.491
 21
-28.8091
  0
LINE
  8
0
 10
130.491
 20
-28.8091
 11
130.074
 21
-28.892
  0
LINE
  8
0
 10
130.074
 20
-28.892
 11
129.65
 21
-28.9198
  0
LINE
  8
0
 10
129.65
 20
-28.9198
 11
129.226
 21
-28.892
  0
LINE
  8
0
 10
147.226
 20
-28.892
 11
146.809
 21
-28.8091
  0
LINE
  8
0
 10
146.809
 20
-28.8091
 11
146.406
 21
-28.6725
  0
LINE
  8
0
 10
146.406
 20
-28.6725
 11
146.025
 21
-28.4845
  0
LINE
  8
0
 10
146.025
 20
-28.4845
 11
145.672
 21
-28.2482
  0
LINE
  8
0
 10
145.672
 20
-28.2482
 11
145.352
 21
-27.968
  0
LINE
  8
0
 10
145.352
 20
-27.968
 11
145.072
 21
-27.6484
  0
LINE
  8
0
 10
145.072
 20
-27.6484
 11
144.836
 21
-27.2949
  0
LINE
  8
0
 10
144.836
 20
-27.2949
 11
144.648
 21
-26.9137
  0
LINE
  8
0
 10
144.648
 20
-26.9137
 11
144.511
 21
-26.5112
  0
LINE
  8
0
 10
144.511
 20
-26.5112
 11
144.428
 21
-26.0942
  0
LINE
  8
0
 10
144.428
 20
-26.0942
 11
144.4
 21
-25.67
  0
LINE
  8
0
 10
144.4
 20
-25.67
 11
144.428
 21
-25.2458
  0
LINE
  8
0
 10
144.428
 20
-25.2458
 11
144.511
 21
-24.8288
  0
LINE
  8
0
 10
144.511
 20
-24.8288
 11
144.648
 21
-24.4263
  0
LINE
  8
0
 10
144.648
 20
-24.4263
 11
144.836
 21
-24.0451
  0
LINE
  8
0
 10
144.836
 20
-24.0451
 11
145.072
 21
-23.6916
  0
LINE
  8
0
 10
145.072
 20
-23.6916
 11
145.352
 21
-23.372
  0
LINE
  8
0
 10
145.352
 20
-23.372
 11
145.672
 21
-23.0918
  0
LINE
  8
0
 10
145.672
 20
-23.0918
 11
146.025
 21
-22.8555
  0
LINE
  8
0
 10
146.025
 20
-22.8555
 11
146.406
 21
-22.6675
  0
LINE
  8
0
 10
146.406
 20
-22.6675
 11
146.809
 21
-22.5309
  0
LINE
  8
0
 10
146.809
 20
-22.5309
 11
147.226
 21
-22.448
  0
LINE
  8
0
 10
147.226
 20
-22.448
 11
147.65
 21
-22.4202
  0
LINE
  8
0
 10
147.65
 20
-22.4202
 11
148.074
 21
-22.448
  0
LINE
  8
0
 10
148.074
 20
-22.448
 11
148.491
 21
-22.5309
  0
LINE
  8
0
 10
148.491
 20
-22.5309
 11
148.894
 21
-22.6675
  0
LINE
  8
0
 10
148.894
 20
-22.6675
 11
149.275
 21
-22.8555
  0
LINE
  8
0
 10
149.275
 20
-22.8555
 11
149.628
 21
-23.0918
  0
LINE
  8
0
 10
149.628
 20
-23.0918
 11
149.948
 21
-23.372
  0
LINE
  8
0
 10
149.948
 20
-23.372
 11
150.228
 21
-23.6916
  0
LINE
  8
0
 10
150.228
 20
-23.6916
 11
150.464
 21
-24.0451
  0
LINE
  8
0
 10
150.464
 20
-24.0451
 11
150.652
 21
-24.4263
  0
LINE
  8
0
 10
150.652
 20
-24.4263
 11
150.789
 21
-24.8288
  0
LINE
  8
0
 10
150.789
 20
-24.8288
 11
150.872
 21
-25.2458
  0
LINE
  8
0
 10
150.872
 20
-25.2458
 11
150.9
 21
-25.67
  0
LINE
  8
0
 10
150.9
 20
-25.67
 11
150.872
 21
-26.0942
  0
LINE
  8
0
 10
150.872
 20
-26.0942
 11
150.789
 21
-26.5112
  0
LINE
  8
0
 10
150.789
 20
-26.5112
 11
150.652
 21
-26.9137
  0
LINE
  8
0
 10
150.652
 20
-26.9137
 11
150.464
 21
-27.2949
  0
LINE
  8
0
 10
150.464
 20
-27.2949
 11
150.228
 21
-27.6484
  0
LINE
  8
0
 10
150.228
 20
-27.6484
 11
149.948
 21
-27.968
  0
LINE
  8
0
 10
149.948
 20
-27.968
 11
149.628
 21
-28.2482
  0
LINE
  8
0
 10
149.628
 20
-28.2482
 11
149.275
 21
-28.4845
  0
LINE
  8
0
 10
149.275
 20
-28.4845
 11
148.894
 21
-28.6725
  0
LINE
  8
0
 10
148.894
 20
-28.6725
 11
148.491
 21
-28.8091
  0
LINE
  8
0
 10
148.491
 20
-28.8091
 11
148.074
 21
-28.892
  0
LINE
  8
0
 10
148.074
 20
-28.892
 11
147.65
 21
-28.9198
  0
LINE
  8
0
 10
147.65
 20
-28.9198
 11
147.226
 21
-28.892
  0
LINE
  8
0
 10
165.226
 20
-28.892
 11
164.809
 21
-28.8091
  0
LINE
  8
0
 10
164.809
 20
-28.8091
 11
164.406
 21
-28.6725
  0
LINE
  8
0
 10
164.406
 20
-28.6725
 11
164.025
 21
-28.4845
  0
LINE
  8
0
 10
164.025
 20
-28.4845
 11
163.672
 21
-28.2482
  0
LINE
  8
0
 10
163.672
 20
-28.2482
 11
163.352
 21
-27.968
  0
LINE
  8
0
 10
163.352
 20
-27.968
 11
163.072
 21
-27.6484
  0
LINE
  8
0
 10
163.072
 20
-27.6484
 11
162.836
 21
-27.2949
  0
LINE
  8
0
 10
162.836
 20
-27.2949
 11
162.648
 21
-26.9137
  0
LINE
  8
0
 10
162.648
 20
-26.9137
 11
162.511
 21
-26.5112
  0
LINE
  8
0
 10
162.511
 20
-26.5112
 11
162.428
 21
-26.0942
  0
LINE
  8
0
 10
162.428
 20
-26.0942
 11
162.4
 21
-25.67
  0
LINE
  8
0
 10
162.4
 20
-25.67
 11
162.428
 21
-25.2458
  0
LINE
  8
0
 10
162.428
 20
-25.2458
 11
162.511
 21
-24.8288
  0
LINE
  8
0
 10
162.511
 20
-24.8288
 11
162.648
 21
-24.4263
  0
LINE
  8
0
 10
162.648
 20
-24.4263
 11
162.836
 21
-24.0451
  0
LINE
  8
0
 10
162.836
 20
-24.0451
 11
163.072
 21
-23.6916
  0
LINE
  8
0
 10
163.072
 20
-23.6916
 11
163.352
 21
-23.372
  0
LINE
  8
0
 10
163.352
 20
-23.372
 11
163.672
 21
-23.0918
  0
LINE
  8
0
 10
163.672
 20
-23.0918
 11
164.025
 21
-22.8555
  0
LINE
  8
0
 10
164.025
 20
-22.8555
 11
164.406
 21
-22.6675
  0
LINE
  8
0
 10
164.406
 20
-22.6675
 11
164.809
 21
-22.5309
  0
LINE
  8
0
 10
164.809
 20
-22.5309
 11
165.226
 21
-22.448
  0
LINE
  8
0
 10
165.226
 20
-22.448
 11
165.65
 21
-22.4202
  0
LINE
  8
0
 10
165.65
 20
-22.4202
 11
166.074
 21
-22.448
  0
LINE
  8
0
 10
166.074
 20
-22.448
 11
166.491
 21
-22.5309
  0
LINE
  8
0
 10
166.491
 20
-22.5309
 11
166.894
 21
-22.6675
  0
LINE
  8
0
 10
166.894
 20
-22.6675
 11
167.275
 21
-22.8555
  0
LINE
  8
0
 10
167.275
 20
-22.8555
 11
167.628
 21
-23.0918
  0
LINE
  8
0
 10
167.628
 20
-23.0918
 11
167.948
 21
-23.372
  0
LINE
  8
0
 10
167.948
 20
-23.372
 11
168.228
 21
-23.6916
  0
LINE
  8
0
 10
168.228
 20
-23.6916
 11
168.464
 21
-24.0451
  0
LINE
  8
0
 10
168.464
 20
-24.0451
 11
168.652
 21
-24.4263
  0
LINE
  8
0
 10
168.652
 20
-24.4263
 11
168.789
 21
-24.8288
  0
LINE
  8
0
 10
168.789
 20
-24.8288
 11
168.872
 21
-25.2458
  0
LINE
  8
0
 10
168.872
 20
-25.2458
 11
168.9
 21
-25.67
  0
LINE
  8
0
 10
168.9
 20
-25.67
 11
168.872
 21
-26.0942
  0
LINE
  8
0
 10
168.872
 20
-26.0942
 11
168.789
 21
-26.5112
  0
LINE
  8
0
 10
168.789
 20
-26.5112
 11
168.652
 21
-26.9137
  0
LINE
  8
0
 10
168.652
 20
-26.9137
 11
168.464
 21
-27.2949
  0
LINE
  8
0
 10
168.464
 20
-27.2949
 11
168.228
 21
-27.6484
  0
LINE
  8
0
 10
168.228
 20
-27.6484
 11
167.948
 21
-27.968
  0
LINE
  8
0
 10
167.948
 20
-27.968
 11
167.628
 21
-28.2482
  0
LINE
  8
0
 10
167.628
 20
-28.2482
 11
167.275
 21
-28.4845
  0
LINE
  8
0
 10
167.275
 20
-28.4845
 11
166.894
 21
-28.6725
  0
LINE
  8
0
 10
166.894
 20
-28.6725
 11
166.491
 21
-28.8091
  0
LINE
  8
0
 10
166.491
 20
-28.8091
 11
166.074
 21
-28.892
  0
LINE
  8
0
 10
166.074
 20
-28.892
 11
165.65
 21
-28.9198
  0
LINE
  8
0
 10
165.65
 20
-28.9198
 11
165.226
 21
-28.892
  0
LINE
  8
0
 10
75.2258
 20
-46.892
 11
74.8088
 21
-46.8091
  0
LINE
  8
0
 10
74.8088
 20
-46.8091
 11
74.4063
 21
-46.6725
  0
LINE
  8
0
 10
74.4063
 20
-46.6725
 11
74.0251
 21
-46.4845
  0
LINE
  8
0
 10
74.0251
 20
-46.4845
 11
73.6716
 21
-46.2482
  0
LINE
  8
0
 10
73.6716
 20
-46.2482
 11
73.352
 21
-45.968
  0
LINE
  8
0
 10
73.352
 20
-45.968
 11
73.0717
 21
-45.6484
  0
LINE
  8
0
 10
73.0717
 20
-45.6484
 11
72.8355
 21
-45.2949
  0
LINE
  8
0
 10
72.8355
 20
-45.2949
 11
72.6475
 21
-44.9137
  0
LINE
  8
0
 10
72.6475
 20
-44.9137
 11
72.5109
 21
-44.5112
  0
LINE
  8
0
 10
72.5109
 20
-44.5112
 11
72.428
 21
-44.0942
  0
LINE
  8
0
 10
72.428
 20
-44.0942
 11
72.4002
 21
-43.67
  0
LINE
  8
0
 10
72.4002
 20
-43.67
 11
72.428
 21
-43.2458
  0
LINE
  8
0
 10
72.428
 20
-43.2458
 11
72.5109
 21
-42.8288
  0
LINE
  8
0
 10
72.5109
 20
-42.8288
 11
72.6475
 21
-42.4263
  0
LINE
  8
0
 10
72.6475
 20
-42.4263
 11
72.8355
 21
-42.0451
  0
LINE
  8
0
 10
72.8355
 20
-42.0451
 11
73.0717
 21
-41.6916
  0
LINE
  8
0
 10
73.0717
 20
-41.6916
 11
73.352
 21
-41.372
  0
LINE
  8
0
 10
73.352
 20
-41.372
 11
73.6716
 21
-41.0918
  0
LINE
  8
0
 10
73.6716
 20
-41.0918
 11
74.0251
 21
-40.8555
  0
LINE
  8
0
 10
74.0251
 20
-40.8555
 11
74.4063
 21
-40.6675
  0
LINE
  8
0
 10
74.4063
 20
-40.6675
 11
74.8088
 21
-40.5309
  0
LINE
  8
0
 10
74.8088
 20
-40.5309
 11
75.2258
 21
-40.448
  0
LINE
  8
0
 10
75.2258
 20
-40.448
 11
75.65
 21
-40.4202
  0
LINE
  8
0
 10
75.65
 20
-40.4202
 11
76.0742
 21
-40.448
  0
LINE
  8
0
 10
76.0742
 20
-40.448
 11
76.4912
 21
-40.5309
  0
LINE
  8
0
 10
76.4912
 20
-40.5309
 11
76.8936
 21
-40.6675
  0
LINE
  8
0
 10
76.8936
 20
-40.6675
 11
77.2749
 21
-40.8555
  0
LINE
  8
0
 10
77.2749
 20
-40.8555
 11
77.6284
 21
-41.0918
  0
LINE
  8
0
 10
77.6284
 20
-41.0918
 11
77.948
 21
-41.372
  0
LINE
  8
0
 10
77.948
 20
-41.372
 11
78.2282
 21
-41.6916
  0
LINE
  8
0
 10
78.2282
 20
-41.6916
 11
78.4645
 21
-42.0451
  0
LINE
  8
0
 10
78.4645
 20
-42.0451
 11
78.6525
 21
-42.4263
  0
LINE
  8
0
 10
78.6525
 20
-42.4263
 11
78.7891
 21
-42.8288
  0
LINE
  8
0
 10
78.7891
 20
-42.8288
 11
78.872
 21
-43.2458
  0
LINE
  8
0
 10
78.872
 20
-43.2458
 11
78.8998
 21
-43.67
  0
LINE
  8
0
 10
78.8998
 20
-43.67
 11
78.872
 21
-44.0942
  0
LINE
  8
0
 10
78.872
 20
-44.0942
 11
78.7891
 21
-44.5112
  0
LINE
  8
0
 10
78.7891
 20
-44.5112
 11
78.6525
 21
-44.9137
  0
LINE
  8
0
 10
78.6525
 20
-44.9137
 11
78.4645
 21
-45.2949
  0
LINE
  8
0
 10
78.4645
 20
-45.2949
 11
78.2282
 21
-45.6484
  0
LINE
  8
0
 10
78.2282
 20
-45.6484
 11
77.948
 21
-45.968
  0
LINE
  8
0
 10
77.948
 20
-45.968
 11
77.6284
 21
-46.2482
  0
LINE
  8
0
 10
77.6284
 20
-46.2482
 11
77.2749
 21
-46.4845
  0
LINE
  8
0
 10
77.2749
 20
-46.4845
 11
76.8936
 21
-46.6725
  0
LINE
  8
0
 10
76.8936
 20
-46.6725
 11
76.4912
 21
-46.8091
  0
LINE
  8
0
 10
76.4912
 20
-46.8091
 11
76.0742
 21
-46.892
  0
LINE
  8
0
 10
76.0742
 20
-46.892
 11
75.65
 21
-46.9198
  0
LINE
  8
0
 10
75.65
 20
-46.9198
 11
75.2258
 21
-46.892
  0
LINE
  8
0
 10
93.2258
 20
-46.892
 11
92.8088
 21
-46.8091
  0
LINE
  8
0
 10
92.8088
 20
-46.8091
 11
92.4063
 21
-46.6725
  0
LINE
  8
0
 10
92.4063
 20
-46.6725
 11
92.0251
 21
-46.4845
  0
LINE
  8
0
 10
92.0251
 20
-46.4845
 11
91.6716
 21
-46.2482
  0
LINE
  8
0
 10
91.6716
 20
-46.2482
 11
91.352
 21
-45.968
  0
LINE
  8
0
 10
91.352
 20
-45.968
 11
91.0717
 21
-45.6484
  0
LINE
  8
0
 10
91.0717
 20
-45.6484
 11
90.8355
 21
-45.2949
  0
LINE
  8
0
 10
90.8355
 20
-45.2949
 11
90.6475
 21
-44.9137
  0
LINE
  8
0
 10
90.6475
 20
-44.9137
 11
90.5109
 21
-44.5112
  0
LINE
  8
0
 10
90.5109
 20
-44.5112
 11
90.428
 21
-44.0942
  0
LINE
  8
0
 10
90.428
 20
-44.0942
 11
90.4002
 21
-43.67
  0
LINE
  8
0
 10
90.4002
 20
-43.67
 11
90.428
 21
-43.2458
  0
LINE
  8
0
 10
90.428
 20
-43.2458
 11
90.5109
 21
-42.8288
  0
LINE
  8
0
 10
90.5109
 20
-42.8288
 11
90.6475
 21
-42.4263
  0
LINE
  8
0
 10
90.6475
 20
-42.4263
 11
90.8355
 21
-42.0451
  0
LINE
  8
0
 10
90.8355
 20
-42.0451
 11
91.0717
 21
-41.6916
  0
LINE
  8
0
 10
91.0717
 20
-41.6916
 11
91.352
 21
-41.372
  0
LINE
  8
0
 10
91.352
 20
-41.372
 11
91.6716
 21
-41.0918
  0
LINE
  8
0
 10
91.6716
 20
-41.0918
 11
92.0251
 21
-40.8555
  0
LINE
  8
0
 10
92.0251
 20
-40.8555
 11
92.4063
 21
-40.6675
  0
LINE
  8
0
 10
92.4063
 20
-40.6675
 11
92.8088
 21
-40.5309
  0
LINE
  8
0
 10
92.8088
 20
-40.5309
 11
93.2258
 21
-40.448
  0
LINE
  8
0
 10
93.2258
 20
-40.448
 11
93.65
 21
-40.4202
  0
LINE
  8
0
 10
93.65
 20
-40.4202
 11
94.0742
 21
-40.448
  0
LINE
  8
0
 10
94.0742
 20
-40.448
 11
94.4912
 21
-40.5309
  0
LINE
  8
0
 10
94.4912
 20
-40.5309
 11
94.8936
 21
-40.6675
  0
LINE
  8
0
 10
94.8936
 20
-40.6675
 11
95.2749
 21
-40.8555
  0
LINE
  8
0
 10
95.2749
 20
-40.8555
 11
95.6284
 21
-41.0918
  0
LINE
  8
0
 10
95.6284
 20
-41.0918
 11
95.948
 21
-41.372
  0
LINE
  8
0
 10
95.948
 20
-41.372
 11
96.2282
 21
-41.6916
  0
LINE
  8
0
 10
96.2282
 20
-41.6916
 11
96.4645
 21
-42.0451
  0
LINE
  8
0
 10
96.4645
 20
-42.0451
 11
96.6525
 21
-42.4263
  0
LINE
  8
0
 10
96.6525
 20
-42.4263
 11
96.7891
 21
-42.8288
  0
LINE
  8
0
 10
96.7891
 20
-42.8288
 11
96.872
 21
-43.2458
  0
LINE
  8
0
 10
96.872
 20
-43.2458
 11
96.8998
 21
-43.67
  0
LINE
  8
0
 10
96.8998
 20
-43.67
 11
96.872
 21
-44.0942
  0
LINE
  8
0
 10
96.872
 20
-44.0942
 11
96.7891
 21
-44.5112
  0
LINE
  8
0
 10
96.7891
 20
-44.5112
 11
96.6525
 21
-44.9137
  0
LINE
  8
0
 10
96.6525
 20
-44.9137
 11
96.4645
 21
-45.2949
  0
LINE
  8
0
 10
96.4645
 20
-45.2949
 11
96.2282
 21
-45.6484
  0
LINE
  8
0
 10
96.2282
 20
-45.6484
 11
95.948
 21
-45.968
  0
LINE
  8
0
 10
95.948
 20
-45.968
 11
95.6284
 21
-46.2482
  0
LINE
  8
0
 10
95.6284
 20
-46.2482
 11
95.2749
 21
-46.4845
  0
LINE
  8
0
 10
95.2749
 20
-46.4845
 11
94.8936
 21
-46.6725
  0
LINE
  8
0
 10
94.8936
 20
-46.6725
 11
94.4912
 21
-46.8091
  0
LINE
  8
0
 10
94.4912
 20
-46.8091
 11
94.0742
 21
-46.892
  0
LINE
  8
0
 10
94.0742
 20
-46.892
 11
93.65
 21
-46.9198
  0
LINE
  8
0
 10
93.65
 20
-46.9198
 11
93.2258
 21
-46.892
  0
LINE
  8
0
 10
111.226
 20
-46.892
 11
110.809
 21
-46.8091
  0
LINE
  8
0
 10
110.809
 20
-46.8091
 11
110.406
 21
-46.6725
  0
LINE
  8
0
 10
110.406
 20
-46.6725
 11
110.025
 21
-46.4845
  0
LINE
  8
0
 10
110.025
 20
-46.4845
 11
109.672
 21
-46.2482
  0
LINE
  8
0
 10
109.672
 20
-46.2482
 11
109.352
 21
-45.968
  0
LINE
  8
0
 10
109.352
 20
-45.968
 11
109.072
 21
-45.6484
  0
LINE
  8
0
 10
109.072
 20
-45.6484
 11
108.836
 21
-45.2949
  0
LINE
  8
0
 10
108.836
 20
-45.2949
 11
108.648
 21
-44.9137
  0
LINE
  8
0
 10
108.648
 20
-44.9137
 11
108.511
 21
-44.5112
  0
LINE
  8
0
 10
108.511
 20
-44.5112
 11
108.428
 21
-44.0942
  0
LINE
  8
0
 10
108.428
 20
-44.0942
 11
108.4
 21
-43.67
  0
LINE
  8
0
 10
108.4
 20
-43.67
 11
108.428
 21
-43.2458
  0
LINE
  8
0
 10
108.428
 20
-43.2458
 11
108.511
 21
-42.8288
  0
LINE
  8
0
 10
108.511
 20
-42.8288
 11
108.648
 21
-42.4263
  0
LINE
  8
0
 10
108.648
 20
-42.4263
 11
108.836
 21
-42.0451
  0
LINE
  8
0
 10
108.836
 20
-42.0451
 11
109.072
 21
-41.6916
  0
LINE
  8
0
 10
109.072
 20
-41.6916
 11
109.352
 21
-41.372
  0
LINE
  8
0
 10
109.352
 20
-41.372
 11
109.672
 21
-41.0918
  0
LINE
  8
0
 10
109.672
 20
-41.0918
 11
110.025
 21
-40.8555
  0
LINE
  8
0
 10
110.025
 20
-40.8555
 11
110.406
 21
-40.6675
  0
LINE
  8
0
 10
110.406
 20
-40.6675
 11
110.809
 21
-40.5309
  0
LINE
  8
0
 10
110.809
 20
-40.5309
 11
111.226
 21
-40.448
  0
LINE
  8
0
 10
111.226
 20
-40.448
 11
111.65
 21
-40.4202
  0
LINE
  8
0
 10
111.65
 20
-40.4202
 11
112.074
 21
-40.448
  0
LINE
  8
0
 10
112.074
 20
-40.448
 11
112.491
 21
-40.5309
  0
LINE
  8
0
 10
112.491
 20
-40.5309
 11
112.894
 21
-40.6675
  0
LINE
  8
0
 10
112.894
 20
-40.6675
 11
113.275
 21
-40.8555
  0
LINE
  8
0
 10
113.275
 20
-40.8555
 11
113.628
 21
-41.0918
  0
LINE
  8
0
 10
113.628
 20
-41.0918
 11
113.948
 21
-41.372
  0
LINE
  8
0
 10
113.948
 20
-41.372
 11
114.228
 21
-41.6916
  0
LINE
  8
0
 10
114.228
 20
-41.6916
 11
114.464
 21
-42.0451
  0
LINE
  8
0
 10
114.464
 20
-42.0451
 11
114.652
 21
-42.4263
  0
LINE
  8
0
 10
114.652
 20
-42.4263
 11
114.789
 21
-42.8288
  0
LINE
  8
0
 10
114.789
 20
-42.8288
 11
114.872
 21
-43.2458
  0
LINE
  8
0
 10
114.872
 20
-43.2458
 11
114.9
 21
-43.67
  0
LINE
  8
0
 10
114.9
 20
-43.67
 11
114.872
 21
-44.0942
  0
LINE
  8
0
 10
114.872
 20
-44.0942
 11
114.789
 21
-44.5112
  0
LINE
  8
0
 10
114.789
 20
-44.5112
 11
114.652
 21
-44.9137
  0
LINE
  8
0
 10
114.652
 20
-44.9137
 11
114.464
 21
-45.2949
  0
LINE
  8
0
 10
114.464
 20
-45.2949
 11
114.228
 21
-45.6484
  0
LINE
  8
0
 10
114.228
 20
-45.6484
 11
113.948
 21
-45.968
  0
LINE
  8
0
 10
113.948
 20
-45.968
 11
113.628
 21
-46.2482
  0
LINE
  8
0
 10
113.628
 20
-46.2482
 11
113.275
 21
-46.4845
  0
LINE
  8
0
 10
113.275
 20
-46.4845
 11
112.894
 21
-46.6725
  0
LINE
  8
0
 10
112.894
 20
-46.6725
 11
112.491
 21
-46.8091
  0
LINE
  8
0
 10
112.491
 20
-46.8091
 11
112.074
 21
-46.892
  0
LINE
  8
0
 10
112.074
 20
-46.892
 11
111.65
 21
-46.9198
  0
LINE
  8
0
 10
111.65
 20
-46.9198
 11
111.226
 21
-46.892
  0
LINE
  8
0
 10
129.226
 20
-46.892
 11
128.809
 21
-46.8091
  0
LINE
  8
0
 10
128.809
 20
-46.8091
 11
128.406
 21
-46.6725
  0
LINE
  8
0
 10
128.406
 20
-46.6725
 11
128.025
 21
-46.4845
  0
LINE
  8
0
 10
128.025
 20
-46.4845
 11
127.672
 21
-46.2482
  0
LINE
  8
0
 10
127.672
 20
-46.2482
 11
127.352
 21
-45.968
  0
LINE
  8
0
 10
127.352
 20
-45.968
 11
127.072
 21
-45.6484
  0
LINE
  8
0
 10
127.072
 20
-45.6484
 11
126.836
 21
-45.2949
  0
LINE
  8
0
 10
126.836
 20
-45.2949
 11
126.648
 21
-44.9137
  0
LINE
  8
0
 10
126.648
 20
-44.9137
 11
126.511
 21
-44.5112
  0
LINE
  8
0
 10
126.511
 20
-44.5112
 11
126.428
 21
-44.0942
  0
LINE
  8
0
 10
126.428
 20
-44.0942
 11
126.4
 21
-43.67
  0
LINE
  8
0
 10
126.4
 20
-43.67
 11
126.428
 21
-43.2458
  0
LINE
  8
0
 10
126.428
 20
-43.2458
 11
126.511
 21
-42.8288
  0
LINE
  8
0
 10
126.511
 20
-42.8288
 11
126.648
 21
-42.4263
  0
LINE
  8
0
 10
126.648
 20
-42.4263
 11
126.836
 21
-42.0451
  0
LINE
  8
0
 10
126.836
 20
-42.0451
 11
127.072
 21
-41.6916
  0
LINE
  8
0
 10
127.072
 20
-41.6916
 11
127.352
 21
-41.372
  0
LINE
  8
0
 10
127.352
 20
-41.372
 11
127.672
 21
-41.0918
  0
LINE
  8
0
 10
127.672
 20
-41.0918
 11
128.025
 21
-40.8555
  0
LINE
  8
0
 10
128.025
 20
-40.8555
 11
128.406
 21
-40.6675
  0
LINE
  8
0
 10
128.406
 20
-40.6675
 11
128.809
 21
-40.5309
  0
LINE
  8
0
 10
128.809
 20
-40.5309
 11
129.226
 21
-40.448
  0
LINE
  8
0
 10
129.226
 20
-40.448
 11
129.65
 21
-40.4202
  0
LINE
  8
0
 10
129.65
 20
-40.4202
 11
130.074
 21
-40.448
  0
LINE
  8
0
 10
130.074
 20
-40.448
 11
130.491
 21
-40.5309
  0
LINE
  8
0
 10
130.491
 20
-40.5309
 11
130.894
 21
-40.6675
  0
LINE
  8
0
 10
130.894
 20
-40.6675
 11
131.275
 21
-40.8555
  0
LINE
  8
0
 10
131.275
 20
-40.8555
 11
131.628
 21
-41.0918
  0
LINE
  8
0
 10
131.628
 20
-41.0918
 11
131.948
 21
-41.372
  0
LINE
  8
0
 10
131.948
 20
-41.372
 11
132.228
 21
-41.6916
  0
LINE
  8
0
 10
132.228
 20
-41.6916
 11
132.464
 21
-42.0451
  0
LINE
  8
0
 10
132.464
 20
-42.0451
 11
132.652
 21
-42.4263
  0
LINE
  8
0
 10
132.652
 20
-42.4263
 11
132.789
 21
-42.8288
  0
LINE
  8
0
 10
132.789
 20
-42.8288
 11
132.872
 21
-43.2458
  0
LINE
  8
0
 10
132.872
 20
-43.2458
 11
132.9
 21
-43.67
  0
LINE
  8
0
 10
132.9
 20
-43.67
 11
132.872
 21
-44.0942
  0
LINE
  8
0
 10
132.872
 20
-44.0942
 11
132.789
 21
-44.5112
  0
LINE
  8
0
 10
132.789
 20
-44.5112
 11
132.652
 21
-44.9137
  0
LINE
  8
0
 10
132.652
 20
-44.9137
 11
132.464
 21
-45.2949
  0
LINE
  8
0
 10
132.464
 20
-45.2949
 11
132.228
 21
-45.6484
  0
LINE
  8
0
 10
132.228
 20
-45.6484
 11
131.948
 21
-45.968
  0
LINE
  8
0
 10
131.948
 20
-45.968
 11
131.628
 21
-46.2482
  0
LINE
  8
0
 10
131.628
 20
-46.2482
 11
131.275
 21
-46.4845
  0
LINE
  8
0
 10
131.275
 20
-46.4845
 11
130.894
 21
-46.6725
  0
LINE
  8
0
 10
130.894
 20
-46.6725
 11
130.491
 21
-46.8091
  0
LINE
  8
0
 10
130.491
 20
-46.8091
 11
130.074
 21
-46.892
  0
LINE
  8
0
 10
130.074
 20
-46.892
 11
129.65
 21
-46.9198
  0
LINE
  8
0
 10
129.65
 20
-46.9198
 11
129.226
 21
-46.892
  0
LINE
  8
0
 10
147.226
 20
-46.892
 11
146.809
 21
-46.8091
  0
LINE
  8
0
 10
146.809
 20
-46.8091
 11
146.406
 21
-46.6725
  0
LINE
  8
0
 10
146.406
 20
-46.6725
 11
146.025
 21
-46.4845
  0
LINE
  8
0
 10
146.025
 20
-46.4845
 11
145.672
 21
-46.2482
  0
LINE
  8
0
 10
145.672
 20
-46.2482
 11
145.352
 21
-45.968
  0
LINE
  8
0
 10
145.352
 20
-45.968
 11
145.072
 21
-45.6484
  0
LINE
  8
0
 10
145.072
 20
-45.6484
 11
144.836
 21
-45.2949
  0
LINE
  8
0
 10
144.836
 20
-45.2949
 11
144.648
 21
-44.9137
  0
LINE
  8
0
 10
144.648
 20
-44.9137
 11
144.511
 21
-44.5112
  0
LINE
  8
0
 10
144.511
 20
-44.5112
 11
144.428
 21
-44.0942
  0
LINE
  8
0
 10
144.428
 20
-44.0942
 11
144.4
 21
-43.67
  0
LINE
  8
0
 10
144.4
 20
-43.67
 11
144.428
 21
-43.2458
  0
LINE
  8
0
 10
144.428
 20
-43.2458
 11
144.511
 21
-42.8288
  0
LINE
  8
0
 10
144.511
 20
-42.8288
 11
144.648
 21
-42.4263
  0
LINE
  8
0
 10
144.648
 20
-42.4263
 11
144.836
 21
-42.0451
  0
LINE
  8
0
 10
144.836
 20
-42.0451
 11
145.072
 21
-41.6916
  0
LINE
  8
0
 10
145.072
 20
-41.6916
 11
145.352
 21
-41.372
  0
LINE
  8
0
 10
145.352
 20
-41.372
 11
145.672
 21
-41.0918
  0
LINE
  8
0
 10
145.672
 20
-41.0918
 11
146.025
 21
-40.8555
  0
LINE
  8
0
 10
146.025
 20
-40.8555
 11
146.406
 21
-40.6675
  0
LINE
  8
0
 10
146.406
 20
-40.6675
 11
146.809
 21
-40.5309
  0
LINE
  8
0
 10
146.809
 20
-40.5309
 11
147.226
 21
-40.448
  0
LINE
  8
0
 10
147.226
 20
-40.448
 11
147.65
 21
-40.4202
  0
LINE
  8
0
 10
147.65
 20
-40.4202
 11
148.074
 21
-40.448
  0
LINE
  8
0
 10
148.074
 20
-40.448
 11
148.491
 21
-40.5309
  0
LINE
  8
0
 10
148.491
 20
-40.5309
 11
148.894
 21
-40.6675
  0
LINE
  8
0
 10
148.894
 20
-40.6675
 11
149.275
 21
-40.8555
  0
LINE
  8
0
 10
149.275
 20
-40.8555
 11
149.628
 21
-41.0918
  0
LINE
  8
0
 10
149.628
 20
-41.0918
 11
149.948
 21
-41.372
  0
LINE
  8
0
 10
149.948
 20
-41.372
 11
150.228
 21
-41.6916
  0
LINE
  8
0
 10
150.228
 20
-41.6916
 11
150.464
 21
-42.0451
  0
LINE
  8
0
 10
150.464
 20
-42.0451
 11
150.652
 21
-42.4263
  0
LINE
  8
0
 10
150.652
 20
-42.4263
 11
150.789
 21
-42.8288
  0
LINE
  8
0
 10
150.789
 20
-42.8288
 11
150.872
 21
-43.2458
  0
LINE
  8
0
 10
150.872
 20
-43.2458
 11
150.9
 21
-43.67
  0
LINE
  8
0
 10
150.9
 20
-43.67
 11
150.872
 21
-44.0942
  0
LINE
  8
0
 10
150.872
 20
-44.0942
 11
150.789
 21
-44.5112
  0
LINE
  8
0
 10
150.789
 20
-44.5112
 11
150.652
 21
-44.9137
  0
LINE
  8
0
 10
150.652
 20
-44.9137
 11
150.464
 21
-45.2949
  0
LINE
  8
0
 10
150.464
 20
-45.2949
 11
150.228
 21
-45.6484
  0
LINE
  8
0
 10
150.228
 20
-45.6484
 11
149.948
 21
-45.968
  0
LINE
  8
0
 10
149.948
 20
-45.968
 11
149.628
 21
-46.2482
  0
LINE
  8
0
 10
149.628
 20
-46.2482
 11
149.275
 21
-46.4845
  0
LINE
  8
0
 10
149.275
 20
-46.4845
 11
148.894
 21
-46.6725
  0
LINE
  8
0
 10
148.894
 20
-46.6725
 11
148.491
 21
-46.8091
  0
LINE
  8
0
 10
148.491
 20
-46.8091
 11
148.074
 21
-46.892
  0
LINE
  8
0
 10
148.074
 20
-46.892
 11
147.65
 21
-46.9198
  0
LINE
  8
0
 10
147.65
 20
-46.9198
 11
147.226
 21
-46.892
  0
LINE
  8
0
 10
165.226
 20
-46.892
 11
164.809
 21
-46.8091
  0
LINE
  8
0
 10
164.809
 20
-46.8091
 11
164.406
 21
-46.6725
  0
LINE
  8
0
 10
164.406
 20
-46.6725
 11
164.025
 21
-46.4845
  0
LINE
  8
0
 10
164.025
 20
-46.4845
 11
163.672
 21
-46.2482
  0
LINE
  8
0
 10
163.672
 20
-46.2482
 11
163.352
 21
-45.968
  0
LINE
  8
0
 10
163.352
 20
-45.968
 11
163.072
 21
-45.6484
  0
LINE
  8
0
 10
163.072
 20
-45.6484
 11
162.836
 21
-45.2949
  0
LINE
  8
0
 10
162.836
 20
-45.2949
 11
162.648
 21
-44.9137
  0
LINE
  8
0
 10
162.648
 20
-44.9137
 11
162.511
 21
-44.5112
  0
LINE
  8
0
 10
162.511
 20
-44.5112
 11
162.428
 21
-44.0942
  0
LINE
  8
0
 10
162.428
 20
-44.0942
 11
162.4
 21
-43.67
  0
LINE
  8
0
 10
162.4
 20
-43.67
 11
162.428
 21
-43.2458
  0
LINE
  8
0
 10
162.428
 20
-43.2458
 11
162.511
 21
-42.8288
  0
LINE
  8
0
 10
162.511
 20
-42.8288
 11
162.648
 21
-42.4263
  0
LINE
  8
0
 10
162.648
 20
-42.4263
 11
162.836
 21
-42.0451
  0
LINE
  8
0
 10
162.836
 20
-42.0451
 11
163.072
 21
-41.6916
  0
LINE
  8
0
 10
163.072
 20
-41.6916
 11
163.352
 21
-41.372
  0
LINE
  8
0
 10
163.352
 20
-41.372
 11
163.672
 21
-41.0918
  0
LINE
  8
0
 10
163.672
 20
-41.0918
 11
164.025
 21
-40.8555
  0
LINE
  8
0
 10
164.025
 20
-40.8555
 11
164.406
 21
-40.6675
  0
LINE
  8
0
 10
164.406
 20
-40.6675
 11
164.809
 21
-40.5309
  0
LINE
  8
0
 10
164.809
 20
-40.5309
 11
165.226
 21
-40.448
  0
LINE
  8
0
 10
165.226
 20
-40.448
 11
165.65
 21
-40.4202
  0
LINE
  8
0
 10
165.65
 20
-40.4202
 11
166.074
 21
-40.448
  0
LINE
  8
0
 10
166.074
 20
-40.448
 11
166.491
 21
-40.5309
  0
LINE
  8
0
 10
166.491
 20
-40.5309
 11
166.894
 21
-40.6675
  0
LINE
  8
0
 10
166.894
 20
-40.6675
 11
167.275
 21
-40.8555
  0
LINE
  8
0
 10
167.275
 20
-40.8555
 11
167.628
 21
-41.0918
  0
LINE
  8
0
 10
167.628
 20
-41.0918
 11
167.948
 21
-41.372
  0
LINE
  8
0
 10
167.948
 20
-41.372
 11
168.228
 21
-41.6916
  0
LINE
  8
0
 10
168.228
 20
-41.6916
 11
168.464
 21
-42.0451
  0
LINE
  8
0
 10
168.464
 20
-42.0451
 11
168.652
 21
-42.4263
  0
LINE
  8
0
 10
168.652
 20
-42.4263
 11
168.789
 21
-42.8288
  0
LINE
  8
0
 10
168.789
 20
-42.8288
 11
168.872
 21
-43.2458
  0
LINE
  8
0
 10
168.872
 20
-43.2458
 11
168.9
 21
-43.67
  0
LINE
  8
0
 10
168.9
 20
-43.67
 11
168.872
 21
-44.0942
  0
LINE
  8
0
 10
168.872
 20
-44.0942
 11
168.789
 21
-44.5112
  0
LINE
  8
0
 10
168.789
 20
-44.5112
 11
168.652
 21
-44.9137
  0
LINE
  8
0
 10
168.652
 20
-44.9137
 11
168.464
 21
-45.2949
  0
LINE
  8
0
 10
168.464
 20
-45.2949
 11
168.228
 21
-45.6484
  0
LINE
  8
0
 10
168.228
 20
-45.6484
 11
167.948
 21
-45.968
  0
LINE
  8
0
 10
167.948
 20
-45.968
 11
167.628
 21
-46.2482
  0
LINE
  8
0
 10
167.628
 20
-46.2482
 11
167.275
 21
-46.4845
  0
LINE
  8
0
 10
167.275
 20
-46.4845
 11
166.894
 21
-46.6725
  0
LINE
  8
0
 10
166.894
 20
-46.6725
 11
166.491
 21
-46.8091
  0
LINE
  8
0
 10
166.491
 20
-46.8091
 11
166.074
 21
-46.892
  0
LINE
  8
0
 10
166.074
 20
-46.892
 11
165.65
 21
-46.9198
  0
LINE
  8
0
 10
165.65
 20
-46.9198
 11
165.226
 21
-46.892
  0
LINE
  8
0
 10
75.2258
 20
-64.892
 11
74.8088
 21
-64.8091
  0
LINE
  8
0
 10
74.8088
 20
-64.8091
 11
74.4063
 21
-64.6725
  0
LINE
  8
0
 10
74.4063
 20
-64.6725
 11
74.0251
 21
-64.4845
  0
LINE
  8
0
 10
74.0251
 20
-64.4845
 11
73.6716
 21
-64.2482
  0
LINE
  8
0
 10
73.6716
 20
-64.2482
 11
73.352
 21
-63.968
  0
LINE
  8
0
 10
73.352
 20
-63.968
 11
73.0717
 21
-63.6484
  0
LINE
  8
0
 10
73.0717
 20
-63.6484
 11
72.8355
 21
-63.2949
  0
LINE
  8
0
 10
72.8355
 20
-63.2949
 11
72.6475
 21
-62.9137
  0
LINE
  8
0
 10
72.6475
 20
-62.9137
 11
72.5109
 21
-62.5112
  0
LINE
  8
0
 10
72.5109
 20
-62.5112
 11
72.428
 21
-62.0942
  0
LINE
  8
0
 10
72.428
 20
-62.0942
 11
72.4002
 21
-61.67
  0
LINE
  8
0
 10
72.4002
 20
-61.67
 11
72.428
 21
-61.2458
  0
LINE
  8
0
 10
72.428
 20
-61.2458
 11
72.5109
 21
-60.8288
  0
LINE
  8
0
 10
72.5109
 20
-60.8288
 11
72.6475
 21
-60.4263
  0
LINE
  8
0
 10
72.6475
 20
-60.4263
 11
72.8355
 21
-60.0451
  0
LINE
  8
0
 10
72.8355
 20
-60.0451
 11
73.0717
 21
-59.6916
  0
LINE
  8
0
 10
73.0717
 20
-59.6916
 11
73.352
 21
-59.372
  0
LINE
  8
0
 10
73.352
 20
-59.372
 11
73.6716
 21
-59.0918
  0
LINE
  8
0
 10
73.6716
 20
-59.0918
 11
74.0251
 21
-58.8555
  0
LINE
  8
0
 10
74.0251
 20
-58.8555
 11
74.4063
 21
-58.6675
  0
LINE
  8
0
 10
74.4063
 20
-58.6675
 11
74.8088
 21
-58.5309
  0
LINE
  8
0
 10
74.8088
 20
-58.5309
 11
75.2258
 21
-58.448
  0
LINE
  8
0
 10
75.2258
 20
-58.448
 11
75.65
 21
-58.4202
  0
LINE
  8
0
 10
75.65
 20
-58.4202
 11
76.0742
 21
-58.448
  0
LINE
  8
0
 10
76.0742
 20
-58.448
 11
76.4912
 21
-58.5309
  0
LINE
  8
0
 10
76.4912
 20
-58.5309
 11
76.8936
 21
-58.6675
  0
LINE
  8
0
 10
76.8936
 20
-58.6675
 11
77.2749
 21
-58.8555
  0
LINE
  8
0
 10
77.2749
 20
-58.8555
 11
77.6284
 21
-59.0918
  0
LINE
  8
0
 10
77.6284
 20
-59.0918
 11
77.948
 21
-59.372
  0
LINE
  8
0
 10
77.948
 20
-59.372
 11
78.2282
 21
-59.6916
  0
LINE
  8
0
 10
78.2282
 20
-59.6916
 11
78.4645
 21
-60.0451
  0
LINE
  8
0
 10
78.4645
 20
-60.0451
 11
78.6525
 21
-60.4263
  0
LINE
  8
0
 10
78.6525
 20
-60.4263
 11
78.7891
 21
-60.8288
  0
LINE
  8
0
 10
78.7891
 20
-60.8288
 11
78.872
 21
-61.2458
  0
LINE
  8
0
 10
78.872
 20
-61.2458
 11
78.8998
 21
-61.67
  0
LINE
  8
0
 10
78.8998
 20
-61.67
 11
78.872
 21
-62.0942
  0
LINE
  8
0
 10
78.872
 20
-62.0942
 11
78.7891
 21
-62.5112
  0
LINE
  8
0
 10
78.7891
 20
-62.5112
 11
78.6525
 21
-62.9137
  0
LINE
  8
0
 10
78.6525
 20
-62.9137
 11
78.4645
 21
-63.2949
  0
LINE
  8
0
 10
78.4645
 20
-63.2949
 11
78.2282
 21
-63.6484
  0
LINE
  8
0
 10
78.2282
 20
-63.6484
 11
77.948
 21
-63.968
  0
LINE
  8
0
 10
77.948
 20
-63.968
 11
77.6284
 21
-64.2482
  0
LINE
  8
0
 10
77.6284
 20
-64.2482
 11
77.2749
 21
-64.4845
  0
LINE
  8
0
 10
77.2749
 20
-64.4845
 11
76.8936
 21
-64.6725
  0
LINE
  8
0
 10
76.8936
 20
-64.6725
 11
76.4912
 21
-64.8091
  0
LINE
  8
0
 10
76.4912
 20
-64.8091
 11
76.0742
 21
-64.892
  0
LINE
  8
0
 10
76.0742
 20
-64.892
 11
75.65
 21
-64.9198
  0
LINE
  8
0
 10
75.65
 20
-64.9198
 11
75.2258
 21
-64.892
  0
LINE
  8
0
 10
93.2258
 20
-64.892
 11
92.8088
 21
-64.8091
  0
LINE
  8
0
 10
92.8088
 20
-64.8091
 11
92.4063
 21
-64.6725
  0
LINE
  8
0
 10
92.4063
 20
-64.6725
 11
92.0251
 21
-64.4845
  0
LINE
  8
0
 10
92.0251
 20
-64.4845
 11
91.6716
 21
-64.2482
  0
LINE
  8
0
 10
91.6716
 20
-64.2482
 11
91.352
 21
-63.968
  0
LINE
  8
0
 10
91.352
 20
-63.968
 11
91.0717
 21
-63.6484
  0
LINE
  8
0
 10
91.0717
 20
-63.6484
 11
90.8355
 21
-63.2949
  0
LINE
  8
0
 10
90.8355
 20
-63.2949
 11
90.6475
 21
-62.9137
  0
LINE
  8
0
 10
90.6475
 20
-62.9137
 11
90.5109
 21
-62.5112
  0
LINE
  8
0
 10
90.5109
 20
-62.5112
 11
90.428
 21
-62.0942
  0
LINE
  8
0
 10
90.428
 20
-62.0942
 11
90.4002
 21
-61.67
  0
LINE
  8
0
 10
90.4002
 20
-61.67
 11
90.428
 21
-61.2458
  0
LINE
  8
0
 10
90.428
 20
-61.2458
 11
90.5109
 21
-60.8288
  0
LINE
  8
0
 10
90.5109
 20
-60.8288
 11
90.6475
 21
-60.4263
  0
LINE
  8
0
 10
90.6475
 20
-60.4263
 11
90.8355
 21
-60.0451
  0
LINE
  8
0
 10
90.8355
 20
-60.0451
 11
91.0717
 21
-59.6916
  0
LINE
  8
0
 10
91.0717
 20
-59.6916
 11
91.352
 21
-59.372
  0
LINE
  8
0
 10
91.352
 20
-59.372
 11
91.6716
 21
-59.0918
  0
LINE
  8
0
 10
91.6716
 20
-59.0918
 11
92.0251
 21
-58.8555
  0
LINE
  8
0
 10
92.0251
 20
-58.8555
 11
92.4063
 21
-58.6675
  0
LINE
  8
0
 10
92.4063
 20
-58.6675
 11
92.8088
 21
-58.5309
  0
LINE
  8
0
 10
92.8088
 20
-58.5309
 11
93.2258
 21
-58.448
  0
LINE
  8
0
 10
93.2258
 20
-58.448
 11
93.65
 21
-58.4202
  0
LINE
  8
0
 10
93.65
 20
-58.4202
 11
94.0742
 21
-58.448
  0
LINE
  8
0
 10
94.0742
 20
-58.448
 11
94.4912
 21
-58.5309
  0
LINE
  8
0
 10
94.4912
 20
-58.5309
 11
94.8936
 21
-58.6675
  0
LINE
  8
0
 10
94.8936
 20
-58.6675
 11
95.2749
 21
-58.8555
  0
LINE
  8
0
 10
95.2749
 20
-58.8555
 11
95.6284
 21
-59.0918
  0
LINE
  8
0
 10
95.6284
 20
-59.0918
 11
95.948
 21
-59.372
  0
LINE
  8
0
 10
95.948
 20
-59.372
 11
96.2282
 21
-59.6916
  0
LINE
  8
0
 10
96.2282
 20
-59.6916
 11
96.4645
 21
-60.0451
  0
LINE
  8
0
 10
96.4645
 20
-60.0451
 11
96.6525
 21
-60.4263
  0
LINE
  8
0
 10
96.6525
 20
-60.4263
 11
96.7891
 21
-60.8288
  0
LINE
  8
0
 10
96.7891
 20
-60.8288
 11
96.872
 21
-61.2458
  0
LINE
  8
0
 10
96.872
 20
-61.2458
 11
96.8998
 21
-61.67
  0
LINE
  8
0
 10
96.8998
 20
-61.67
 11
96.872
 21
-62.0942
  0
LINE
  8
0
 10
96.872
 20
-62.0942
 11
96.7891
 21
-62.5112
  0
LINE
  8
0
 10
96.7891
 20
-62.5112
 11
96.6525
 21
-62.9137
  0
LINE
  8
0
 10
96.6525
 20
-62.9137
 11
96.4645
 21
-63.2949
  0
LINE
  8
0
 10
96.4645
 20
-63.2949
 11
96.2282
 21
-63.6484
  0
LINE
  8
0
 10
96.2282
 20
-63.6484
 11
95.948
 21
-63.968
  0
LINE
  8
0
 10
95.948
 20
-63.968
 11
95.6284
 21
-64.2482
  0
LINE
  8
0
 10
95.6284
 20
-64.2482
 11
95.2749
 21
-64.4845
  0
LINE
  8
0
 10
95.2749
 20
-64.4845
 11
94.8936
 21
-64.6725
  0
LINE
  8
0
 10
94.8936
 20
-64.6725
 11
94.4912
 21
-64.8091
  0
LINE
  8
0
 10
94.4912
 20
-64.8091
 11
94.0742
 21
-64.892
  0
LINE
  8
0
 10
94.0742
 20
-64.892
 11
93.65
 21
-64.9198
  0
LINE
  8
0
 10
93.65
 20
-64.9198
 11
93.2258
 21
-64.892
  0
LINE
  8
0
 10
111.226
 20
-64.892
 11
110.809
 21
-64.8091
  0
LINE
  8
0
 10
110.809
 20
-64.8091
 11
110.406
 21
-64.6725
  0
LINE
  8
0
 10
110.406
 20
-64.6725
 11
110.025
 21
-64.4845
  0
LINE
  8
0
 10
110.025
 20
-64.4845
 11
109.672
 21
-64.2482
  0
LINE
  8
0
 10
109.672
 20
-64.2482
 11
109.352
 21
-63.968
  0
LINE
  8
0
 10
109.352
 20
-63.968
 11
109.072
 21
-63.6484
  0
LINE
  8
0
 10
109.072
 20
-63.6484
 11
108.836
 21
-63.2949
  0
LINE
  8
0
 10
108.836
 20
-63.2949
 11
108.648
 21
-62.9137
  0
LINE
  8
0
 10
108.648
 20
-62.9137
 11
108.511
 21
-62.5112
  0
LINE
  8
0
 10
108.511
 20
-62.5112
 11
108.428
 21
-62.0942
  0
LINE
  8
0
 10
108.428
 20
-62.0942
 11
108.4
 21
-61.67
  0
LINE
  8
0
 10
108.4
 20
-61.67
 11
108.428
 21
-61.2458
  0
LINE
  8
0
 10
108.428
 20
-61.2458
 11
108.511
 21
-60.8288
  0
LINE
  8
0
 10
108.511
 20
-60.8288
 11
108.648
 21
-60.4263
  0
LINE
  8
0
 10
108.648
 20
-60.4263
 11
108.836
 21
-60.0451
  0
LINE
  8
0
 10
108.836
 20
-60.0451
 11
109.072
 21
-59.6916
  0
LINE
  8
0
 10
109.072
 20
-59.6916
 11
109.352
 21
-59.372
  0
LINE
  8
0
 10
109.352
 20
-59.372
 11
109.672
 21
-59.0918
  0
LINE
  8
0
 10
109.672
 20
-59.0918
 11
110.025
 21
-58.8555
  0
LINE
  8
0
 10
110.025
 20
-58.8555
 11
110.406
 21
-58.6675
  0
LINE
  8
0
 10
110.406
 20
-58.6675
 11
110.809
 21
-58.5309
  0
LINE
  8
0
 10
110.809
 20
-58.5309
 11
111.226
 21
-58.448
  0
LINE
  8
0
 10
111.226
 20
-58.448
 11
111.65
 21
-58.4202
  0
LINE
  8
0
 10
111.65
 20
-58.4202
 11
112.074
 21
-58.448
  0
LINE
  8
0
 10
112.074
 20
-58.448
 11
112.491
 21
-58.5309
  0
LINE
  8
0
 10
112.491
 20
-58.5309
 11
112.894
 21
-58.6675
  0
LINE
  8
0
 10
112.894
 20
-58.6675
 11
113.275
 21
-58.8555
  0
LINE
  8
0
 10
113.275
 20
-58.8555
 11
113.628
 21
-59.0918
  0
LINE
  8
0
 10
113.628
 20
-59.0918
 11
113.948
 21
-59.372
  0
LINE
  8
0
 10
113.948
 20
-59.372
 11
114.228
 21
-59.6916
  0
LINE
  8
0
 10
114.228
 20
-59.6916
 11
114.464
 21
-60.0451
  0
LINE
  8
0
 10
114.464
 20
-60.0451
 11
114.652
 21
-60.4263
  0
LINE
  8
0
 10
114.652
 20
-60.4263
 11
114.789
 21
-60.8288
  0
LINE
  8
0
 10
114.789
 20
-60.8288
 11
114.872
 21
-61.2458
  0
LINE
  8
0
 10
114.872
 20
-61.2458
 11
114.9
 21
-61.67
  0
LINE
  8
0
 10
114.9
 20
-61.67
 11
114.872
 21
-62.0942
  0
LINE
  8
0
 10
114.872
 20
-62.0942
 11
114.789
 21
-62.5112
  0
LINE
  8
0
 10
114.789
 20
-62.5112
 11
114.652
 21
-62.9137
  0
LINE
  8
0
 10
114.652
 20
-62.9137
 11
114.464
 21
-63.2949
  0
LINE
  8
0
 10
114.464
 20
-63.2949
 11
114.228
 21
-63.6484
  0
LINE
  8
0
 10
114.228
 20
-63.6484
 11
113.948
 21
-63.968
  0
LINE
  8
0
 10
113.948
 20
-63.968
 11
113.628
 21
-64.2482
  0
LINE
  8
0
 10
113.628
 20
-64.2482
 11
113.275
 21
-64.4845
  0
LINE
  8
0
 10
113.275
 20
-64.4845
 11
112.894
 21
-64.6725
  0
LINE
  8
0
 10
112.894
 20
-64.6725
 11
112.491
 21
-64.8091
  0
LINE
  8
0
 10
112.491
 20
-64.8091
 11
112.074
 21
-64.892
  0
LINE
  8
0
 10
112.074
 20
-64.892
 11
111.65
 21
-64.9198
  0
LINE
  8
0
 10
111.65
 20
-64.9198
 11
111.226
 21
-64.892
  0
LINE
  8
0
 10
129.226
 20
-64.892
 11
128.809
 21
-64.8091
  0
LINE
  8
0
 10
128.809
 20
-64.8091
 11
128.406
 21
-64.6725
  0
LINE
  8
0
 10
128.406
 20
-64.6725
 11
128.025
 21
-64.4845
  0
LINE
  8
0
 10
128.025
 20
-64.4845
 11
127.672
 21
-64.2482
  0
LINE
  8
0
 10
127.672
 20
-64.2482
 11
127.352
 21
-63.968
  0
LINE
  8
0
 10
127.352
 20
-63.968
 11
127.072
 21
-63.6484
  0
LINE
  8
0
 10
127.072
 20
-63.6484
 11
126.836
 21
-63.2949
  0
LINE
  8
0
 10
126.836
 20
-63.2949
 11
126.648
 21
-62.9137
  0
LINE
  8
0
 10
126.648
 20
-62.9137
 11
126.511
 21
-62.5112
  0
LINE
  8
0
 10
126.511
 20
-62.5112
 11
126.428
 21
-62.0942
  0
LINE
  8
0
 10
126.428
 20
-62.0942
 11
126.4
 21
-61.67
  0
LINE
  8
0
 10
126.4
 20
-61.67
 11
126.428
 21
-61.2458
  0
LINE
  8
0
 10
126.428
 20
-61.2458
 11
126.511
 21
-60.8288
  0
LINE
  8
0
 10
126.511
 20
-60.8288
 11
126.648
 21
-60.4263
  0
LINE
  8
0
 10
126.648
 20
-60.4263
 11
126.836
 21
-60.0451
  0
LINE
  8
0
 10
126.836
 20
-60.0451
 11
127.072
 21
-59.6916
  0
LINE
  8
0
 10
127.072
 20
-59.6916
 11
127.352
 21
-59.372
  0
LINE
  8
0
 10
127.352
 20
-59.372
 11
127.672
 21
-59.0918
  0
LINE
  8
0
 10
127.672
 20
-59.0918
 11
128.025
 21
-58.8555
  0
LINE
  8
0
 10
128.025
 20
-58.8555
 11
128.406
 21
-58.6675
  0
LINE
  8
0
 10
128.406
 20
-58.6675
 11
128.809
 21
-58.5309
  0
LINE
  8
0
 10
128.809
 20
-58.5309
 11
129.226
 21
-58.448
  0
LINE
  8
0
 10
129.226
 20
-58.448
 11
129.65
 21
-58.4202
  0
LINE
  8
0
 10
129.65
 20
-58.4202
 11
130.074
 21
-58.448
  0
LINE
  8
0
 10
130.074
 20
-58.448
 11
130.491
 21
-58.5309
  0
LINE
  8
0
 10
130.491
 20
-58.5309
 11
130.894
 21
-58.6675
  0
LINE
  8
0
 10
130.894
 20
-58.6675
 11
131.275
 21
-58.8555
  0
LINE
  8
0
 10
131.275
 20
-58.8555
 11
131.628
 21
-59.0918
  0
LINE
  8
0
 10
131.628
 20
-59.0918
 11
131.948
 21
-59.372
  0
LINE
  8
0
 10
131.948
 20
-59.372
 11
132.228
 21
-59.6916
  0
LINE
  8
0
 10
132.228
 20
-59.6916
 11
132.464
 21
-60.0451
  0
LINE
  8
0
 10
132.464
 20
-60.0451
 11
132.652
 21
-60.4263
  0
LINE
  8
0
 10
132.652
 20
-60.4263
 11
132.789
 21
-60.8288
  0
LINE
  8
0
 10
132.789
 20
-60.8288
 11
132.872
 21
-61.2458
  0
LINE
  8
0
 10
132.872
 20
-61.2458
 11
132.9
 21
-61.67
  0
LINE
  8
0
 10
132.9
 20
-61.67
 11
132.872
 21
-62.0942
  0
LINE
  8
0
 10
132.872
 20
-62.0942
 11
132.789
 21
-62.5112
  0
LINE
  8
0
 10
132.789
 20
-62.5112
 11
132.652
 21
-62.9137
  0
LINE
  8
0
 10
132.652
 20
-62.9137
 11
132.464
 21
-63.2949
  0
LINE
  8
0
 10
132.464
 20
-63.2949
 11
132.228
 21
-63.6484
  0
LINE
  8
0
 10
132.228
 20
-63.6484
 11
131.948
 21
-63.968
  0
LINE
  8
0
 10
131.948
 20
-63.968
 11
131.628
 21
-64.2482
  0
LINE
  8
0
 10
131.628
 20
-64.2482
 11
131.275
 21
-64.4845
  0
LINE
  8
0
 10
131.275
 20
-64.4845
 11
130.894
 21
-64.6725
  0
LINE
  8
0
 10
130.894
 20
-64.6725
 11
130.491
 21
-64.8091
  0
LINE
  8
0
 10
130.491
 20
-64.8091
 11
130.074
 21
-64.892
  0
LINE
  8
0
 10
130.074
 20
-64.892
 11
129.65
 21
-64.9198
  0
LINE
  8
0
 10
129.65
 20
-64.9198
 11
129.226
 21
-64.892
  0
LINE
  8
0
 10
137.125
 20
-102.075
 11
137.125
 21
-72.225
  0
LINE
  8
0
 10
137.125
 20
-72.225
 11
164.975
 21
-72.225
  0
LINE
  8
0
 10
164.975
 20
-72.225
 11
164.975
 21
-102.075
  0
LINE
  8
0
 10
164.975
 20
-102.075
 11
137.125
 21
-102.075
  0
LINE
  8
0
 10
117.575
 20
-82.425
 11
117.575
 21
-73.075
  0
LINE
  8
0
 10
117.575
 20
-73.075
 11
124.425
 21
-73.075
  0
LINE
  8
0
 10
124.425
 20
-73.075
 11
124.425
 21
-82.425
  0
LINE
  8
0
 10
124.425
 20
-82.425
 11
117.575
 21
-82.425
  0
LINE
  8
0
 10
114.775
 20
-93.725
 11
114.775
 21
-85.775
  0
LINE
  8
0
 10
114.775
 20
-85.775
 11
118.225
 21
-85.775
  0
LINE
  8
0
 10
118.225
 20
-85.775
 11
118.225
 21
-93.725
  0
LINE
  8
0
 10
118.225
 20
-93.725
 11
114.775
 21
-93.725
  0
LINE
  8
0
 10
23.375
 20
-113.925
 11
23.375
 21
-102.975
  0
LINE
  8
0
 10
23.375
 20
-102.975
 11
46.125
 21
-102.975
  0
LINE
  8
0
 10
46.125
 20
-102.975
 11
46.125
 21
-113.925
  0
LINE
  8
0
 10
46.125
 20
-113.925
 11
23.375
 21
-113.925
  0
LINE
  8
0
 10
3.69281
 20
-112.544
 11
3.39738
 21
-112.455
  0
LINE
  8
0
 10
3.39738
 20
-112.455
 11
3.12512
 21
-112.309
  0
LINE
  8
0
 10
3.12512
 20
-112.309
 11
2.88655
 21
-112.113
  0
LINE
  8
0
 10
2.88655
 20
-112.113
 11
2.69075
 21
-111.875
  0
LINE
  8
0
 10
2.69075
 20
-111.875
 11
2.54523
 21
-111.603
  0
LINE
  8
0
 10
2.54523
 20
-111.603
 11
2.45563
 21
-111.307
  0
LINE
  8
0
 10
2.45563
 20
-111.307
 11
2.42535
 21
-111
  0
LINE
  8
0
 10
2.42535
 20
-111
 11
2.45563
 21
-110.693
  0
LINE
  8
0
 10
2.45563
 20
-110.693
 11
2.54523
 21
-110.397
  0
LINE
  8
0
 10
2.54523
 20
-110.397
 11
2.69075
 21
-110.125
  0
LINE
  8
0
 10
2.69075
 20
-110.125
 11
2.88655
 21
-109.887
  0
LINE
  8
0
 10
2.88655
 20
-109.887
 11
3.12512
 21
-109.691
  0
LINE
  8
0
 10
3.12512
 20
-109.691
 11
3.39738
 21
-109.545
  0
LINE
  8
0
 10
3.39738
 20
-109.545
 11
3.69281
 21
-109.456
  0
LINE
  8
0
 10
3.69281
 20
-109.456
 11
4
 21
-109.425
  0
LINE
  8
0
 10
4
 20
-109.425
 11
4.30717
 21
-109.456
  0
LINE
  8
0
 10
4.30717
 20
-109.456
 11
4.6026
 21
-109.545
  0
LINE
  8
0
 10
4.6026
 20
-109.545
 11
4.87486
 21
-109.691
  0
LINE
  8
0
 10
4.87486
 20
-109.691
 11
5.11343
 21
-109.887
  0
LINE
  8
0
 10
5.11343
 20
-109.887
 11
5.30923
 21
-110.125
  0
LINE
  8
0
 10
5.30923
 20
-110.125
 11
5.45476
 21
-110.397
  0
LINE
  8
0
 10
5.45476
 20
-110.397
 11
5.54436
 21
-110.693
  0
LINE
  8
0
 10
5.54436
 20
-110.693
 11
5.57463
 21
-111
  0
LINE
  8
0
 10
5.57463
 20
-111
 11
5.54436
 21
-111.307
  0
LINE
  8
0
 10
5.54436
 20
-111.307
 11
5.45476
 21
-111.603
  0
LINE
  8
0
 10
5.45476
 20
-111.603
 11
5.30923
 21
-111.875
  0
LINE
  8
0
 10
5.30923
 20
-111.875
 11
5.11343
 21
-112.113
  0
LINE
  8
0
 10
5.11343
 20
-112.113
 11
4.87486
 21
-112.309
  0
LINE
  8
0
 10
4.87486
 20
-112.309
 11
4.6026
 21
-112.455
  0
LINE
  8
0
 10
4.6026
 20
-112.455
 11
4.30717
 21
-112.544
  0
LINE
  8
0
 10
4.30717
 20
-112.544
 11
4
 21
-112.575
  0
LINE
  8
0
 10
4
 20
-112.575
 11
3.69281
 21
-112.544
  0
LINE
  8
0
 10
175.693
 20
-112.544
 11
175.397
 21
-112.455
  0
LINE
  8
0
 10
175.397
 20
-112.455
 11
175.125
 21
-112.309
  0
LINE
  8
0
 10
175.125
 20
-112.309
 11
174.887
 21
-112.113
  0
LINE
  8
0
 10
174.887
 20
-112.113
 11
174.691
 21
-111.875
  0
LINE
  8
0
 10
174.691
 20
-111.875
 11
174.545
 21
-111.603
  0
LINE
  8
0
 10
174.545
 20
-111.603
 11
174.456
 21
-111.307
  0
LINE
  8
0
 10
174.456
 20
-111.307
 11
174.425
 21
-111
  0
LINE
  8
0
 10
174.425
 20
-111
 11
174.456
 21
-110.693
  0
LINE
  8
0
 10
174.456
 20
-110.693
 11
174.545
 21
-110.397
  0
LINE
  8
0
 10
174.545
 20
-110.397
 11
174.691
 21
-110.125
  0
LINE
  8
0
 10
174.691
 20
-110.125
 11
174.887
 21
-109.887
  0
LINE
  8
0
 10
174.887
 20
-109.887
 11
175.125
 21
-109.691
  0
LINE
  8
0
 10
175.125
 20
-109.691
 11
175.397
 21
-109.545
  0
LINE
  8
0
 10
175.397
 20
-109.545
 11
175.693
 21
-109.456
  0
LINE
  8
0
 10
175.693
 20
-109.456
 11
176
 21
-109.425
  0
LINE
  8
0
 10
176
 20
-109.425
 11
176.307
 21
-109.456
  0
LINE
  8
0
 10
176.307
 20
-109.456
 11
176.603
 21
-109.545
  0
LINE
  8
0
 10
176.603
 20
-109.545
 11
176.875
 21
-109.691
  0
LINE
  8
0
 10
176.875
 20
-109.691
 11
177.113
 21
-109.887
  0
LINE
  8
0
 10
177.113
 20
-109.887
 11
177.309
 21
-110.125
  0
LINE
  8
0
 10
177.309
 20
-110.125
 11
177.455
 21
-110.397
  0
LINE
  8
0
 10
177.455
 20
-110.397
 11
177.544
 21
-110.693
  0
LINE
  8
0
 10
177.544
 20
-110.693
 11
177.575
 21
-111
  0
LINE
  8
0
 10
177.575
 20
-111
 11
177.544
 21
-111.307
  0
LINE
  8
0
 10
177.544
 20
-111.307
 11
177.455
 21
-111.603
  0
LINE
  8
0
 10
177.455
 20
-111.603
 11
177.309
 21
-111.875
  0
LINE
  8
0
 10
177.309
 20
-111.875
 11
177.113
 21
-112.113
  0
LINE
  8
0
 10
177.113
 20
-112.113
 11
176.875
 21
-112.309
  0
LINE
  8
0
 10
176.875
 20
-112.309
 11
176.603
 21
-112.455
  0
LINE
  8
0
 10
176.603
 20
-112.455
 11
176.307
 21
-112.544
  0
LINE
  8
0
 10
176.307
 20
-112.544
 11
176
 21
-112.575
  0
LINE
  8
0
 10
176
 20
-112.575
 11
175.693
 21
-112.544
  0
ENDSEC
  0
SECTION
  2
OBJECTS
  0
DICTIONARY
  0
ENDSEC
  0
EOF
