  0
SECTION
  2
BLOCKS
  0
ENDSEC
  0
SECTION
  2
ENTITIES
  0
LINE
  8
0
 10
60.6781
 20
19.5375
 11
48.2009
 21
19.5375
  0
LINE
  8
0
 10
48.2009
 20
19.5375
 11
47.9221
 21
18.9375
  0
LINE
  8
0
 10
47.9221
 20
18.9375
 11
60.9052
 21
18.9375
  0
LINE
  8
0
 10
60.9052
 20
18.9375
 11
60.6781
 21
19.5375
  0
LINE
  8
0
 10
11.4261
 20
1.38248
 11
11.8381
 21
1.72916
  0
LINE
  8
0
 10
11.8381
 20
1.72916
 11
12.0898
 21
2.30055
  0
LINE
  8
0
 10
12.0898
 20
2.30055
 11
12.1724
 21
3.09132
  0
LINE
  8
0
 10
12.1724
 20
3.09132
 11
12.0979
 21
3.83463
  0
LINE
  8
0
 10
12.0979
 20
3.83463
 11
11.8705
 21
4.37389
  0
LINE
  8
0
 10
11.8705
 20
4.37389
 11
11.4815
 21
4.70235
  0
LINE
  8
0
 10
11.4815
 20
4.70235
 11
10.9366
 21
4.81068
  0
LINE
  8
0
 10
10.9366
 20
4.81068
 11
10.4236
 21
4.73373
  0
LINE
  8
0
 10
10.4236
 20
4.73373
 11
10.037
 21
4.50008
  0
LINE
  8
0
 10
10.037
 20
4.50008
 11
9.7963
 21
4.12737
  0
LINE
  8
0
 10
9.7963
 20
4.12737
 11
9.71716
 21
3.64018
  0
LINE
  8
0
 10
9.71716
 20
3.64018
 11
9.78448
 21
3.16402
  0
LINE
  8
0
 10
9.78448
 20
3.16402
 11
9.98911
 21
2.79305
  0
LINE
  8
0
 10
9.98911
 20
2.79305
 11
10.3124
 21
2.55461
  0
LINE
  8
0
 10
10.3124
 20
2.55461
 11
10.727
 21
2.47603
  0
LINE
  8
0
 10
10.727
 20
2.47603
 11
10.9695
 21
2.50269
  0
LINE
  8
0
 10
10.9695
 20
2.50269
 11
11.1944
 21
2.58244
  0
LINE
  8
0
 10
11.1944
 20
2.58244
 11
11.3831
 21
2.71092
  0
LINE
  8
0
 10
11.3831
 20
2.71092
 11
11.4017
 21
2.73563
  0
LINE
  8
0
 10
11.4017
 20
2.73563
 11
11.3766
 21
2.45451
  0
LINE
  8
0
 10
11.3766
 20
2.45451
 11
11.2677
 21
2.13722
  0
LINE
  8
0
 10
11.2677
 20
2.13722
 11
11.1014
 21
1.9545
  0
LINE
  8
0
 10
11.1014
 20
1.9545
 11
10.882
 21
1.89511
  0
LINE
  8
0
 10
10.882
 20
1.89511
 11
10.6402
 21
1.97206
  0
LINE
  8
0
 10
10.6402
 20
1.97206
 11
10.4799
 21
2.24608
  0
LINE
  8
0
 10
10.4799
 20
2.24608
 11
9.757
 21
2.14476
  0
LINE
  8
0
 10
9.757
 20
2.14476
 11
9.92471
 21
1.72423
  0
LINE
  8
0
 10
9.92471
 20
1.72423
 11
10.1511
 21
1.46643
  0
LINE
  8
0
 10
10.1511
 20
1.46643
 11
10.466
 21
1.31699
  0
LINE
  8
0
 10
10.466
 20
1.31699
 11
10.8759
 21
1.26787
  0
LINE
  8
0
 10
10.8759
 20
1.26787
 11
11.4261
 21
1.38248
  0
LINE
  8
0
 10
10.7431
 20
3.11082
 11
10.6102
 21
3.22144
  0
LINE
  8
0
 10
10.6102
 20
3.22144
 11
10.5242
 21
3.39923
  0
LINE
  8
0
 10
10.5242
 20
3.39923
 11
10.4945
 21
3.63493
  0
LINE
  8
0
 10
10.4945
 20
3.63493
 11
10.5244
 21
3.87209
  0
LINE
  8
0
 10
10.5244
 20
3.87209
 11
10.6109
 21
4.04538
  0
LINE
  8
0
 10
10.6109
 20
4.04538
 11
10.7433
 21
4.15112
  0
LINE
  8
0
 10
10.7433
 20
4.15112
 11
10.9183
 21
4.18665
  0
LINE
  8
0
 10
10.9183
 20
4.18665
 11
11.0987
 21
4.1458
  0
LINE
  8
0
 10
11.0987
 20
4.1458
 11
11.2401
 21
4.02293
  0
LINE
  8
0
 10
11.2401
 20
4.02293
 11
11.3345
 21
3.82407
  0
LINE
  8
0
 10
11.3345
 20
3.82407
 11
11.3667
 21
3.55991
  0
LINE
  8
0
 10
11.3667
 20
3.55991
 11
11.3342
 21
3.35699
  0
LINE
  8
0
 10
11.3342
 20
3.35699
 11
11.2391
 21
3.20383
  0
LINE
  8
0
 10
11.2391
 20
3.20383
 11
11.0971
 21
3.10626
  0
LINE
  8
0
 10
11.0971
 20
3.10626
 11
10.9218
 21
3.07355
  0
LINE
  8
0
 10
10.9218
 20
3.07355
 11
10.7431
 21
3.11082
  0
LINE
  8
0
 10
14.1199
 20
1.33498
 11
14.5154
 21
1.53922
  0
LINE
  8
0
 10
14.5154
 20
1.53922
 11
14.7625
 21
1.87019
  0
LINE
  8
0
 10
14.7625
 20
1.87019
 11
14.8439
 21
2.30736
  0
LINE
  8
0
 10
14.8439
 20
2.30736
 11
14.7952
 21
2.62892
  0
LINE
  8
0
 10
14.7952
 20
2.62892
 11
14.6478
 21
2.88847
  0
LINE
  8
0
 10
14.6478
 20
2.88847
 11
14.4144
 21
3.07249
  0
LINE
  8
0
 10
14.4144
 20
3.07249
 11
14.2418
 21
3.12776
  0
LINE
  8
0
 10
14.2418
 20
3.12776
 11
14.378
 21
3.17825
  0
LINE
  8
0
 10
14.378
 20
3.17825
 11
14.5846
 21
3.35857
  0
LINE
  8
0
 10
14.5846
 20
3.35857
 11
14.7168
 21
3.59698
  0
LINE
  8
0
 10
14.7168
 20
3.59698
 11
14.7609
 21
3.87067
  0
LINE
  8
0
 10
14.7609
 20
3.87067
 11
14.6842
 21
4.26939
  0
LINE
  8
0
 10
14.6842
 20
4.26939
 11
14.4517
 21
4.56834
  0
LINE
  8
0
 10
14.4517
 20
4.56834
 11
14.0798
 21
4.75072
  0
LINE
  8
0
 10
14.0798
 20
4.75072
 11
13.585
 21
4.81033
  0
LINE
  8
0
 10
13.585
 20
4.81033
 11
13.0988
 21
4.74913
  0
LINE
  8
0
 10
13.0988
 20
4.74913
 11
12.7301
 21
4.5621
  0
LINE
  8
0
 10
12.7301
 20
4.5621
 11
12.4979
 21
4.26326
  0
LINE
  8
0
 10
12.4979
 20
4.26326
 11
12.4212
 21
3.87556
  0
LINE
  8
0
 10
12.4212
 20
3.87556
 11
12.4655
 21
3.60114
  0
LINE
  8
0
 10
12.4655
 20
3.60114
 11
12.5984
 21
3.36116
  0
LINE
  8
0
 10
12.5984
 20
3.36116
 11
12.8037
 21
3.17812
  0
LINE
  8
0
 10
12.8037
 20
3.17812
 11
12.9422
 21
3.12331
  0
LINE
  8
0
 10
12.9422
 20
3.12331
 11
12.7707
 21
3.06557
  0
LINE
  8
0
 10
12.7707
 20
3.06557
 11
12.5398
 21
2.87616
  0
LINE
  8
0
 10
12.5398
 20
2.87616
 11
12.3919
 21
2.61539
  0
LINE
  8
0
 10
12.3919
 20
2.61539
 11
12.3429
 21
2.30264
  0
LINE
  8
0
 10
12.3429
 20
2.30264
 11
12.4253
 21
1.86726
  0
LINE
  8
0
 10
12.4253
 20
1.86726
 11
12.6752
 21
1.53786
  0
LINE
  8
0
 10
12.6752
 20
1.53786
 11
13.072
 21
1.33467
  0
LINE
  8
0
 10
13.072
 20
1.33467
 11
13.5946
 21
1.26808
  0
LINE
  8
0
 10
13.5946
 20
1.26808
 11
14.1199
 21
1.33498
  0
LINE
  8
0
 10
13.3029
 20
3.51312
 11
13.2054
 21
3.83403
  0
LINE
  8
0
 10
13.2054
 20
3.83403
 11
13.3013
 21
4.13907
  0
LINE
  8
0
 10
13.3013
 20
4.13907
 11
13.5901
 21
4.24115
  0
LINE
  8
0
 10
13.5901
 20
4.24115
 11
13.7608
 21
4.21672
  0
LINE
  8
0
 10
13.7608
 20
4.21672
 11
13.8781
 21
4.14586
  0
LINE
  8
0
 10
13.8781
 20
4.14586
 11
13.9486
 21
4.02348
  0
LINE
  8
0
 10
13.9486
 20
4.02348
 11
13.9738
 21
3.83405
  0
LINE
  8
0
 10
13.9738
 20
3.83405
 11
13.9487
 21
3.62978
  0
LINE
  8
0
 10
13.9487
 20
3.62978
 11
13.8787
 21
3.50204
  0
LINE
  8
0
 10
13.8787
 20
3.50204
 11
13.7631
 21
3.43074
  0
LINE
  8
0
 10
13.7631
 20
3.43074
 11
13.5951
 21
3.40617
  0
LINE
  8
0
 10
13.5951
 20
3.40617
 11
13.3029
 21
3.51312
  0
LINE
  8
0
 10
13.3873
 20
1.87019
 11
13.2453
 21
1.95917
  0
LINE
  8
0
 10
13.2453
 20
1.95917
 11
13.16
 21
2.11444
  0
LINE
  8
0
 10
13.16
 20
2.11444
 11
13.13
 21
2.35294
  0
LINE
  8
0
 10
13.13
 20
2.35294
 11
13.16
 21
2.56512
  0
LINE
  8
0
 10
13.16
 20
2.56512
 11
13.2462
 21
2.71434
  0
LINE
  8
0
 10
13.2462
 20
2.71434
 11
13.3849
 21
2.80524
  0
LINE
  8
0
 10
13.3849
 20
2.80524
 11
13.5761
 21
2.83601
  0
LINE
  8
0
 10
13.5761
 20
2.83601
 11
13.9324
 21
2.71672
  0
LINE
  8
0
 10
13.9324
 20
2.71672
 11
14.0515
 21
2.35757
  0
LINE
  8
0
 10
14.0515
 20
2.35757
 11
14.0233
 21
2.11597
  0
LINE
  8
0
 10
14.0233
 20
2.11597
 11
13.9419
 21
1.95844
  0
LINE
  8
0
 10
13.9419
 20
1.95844
 11
13.8058
 21
1.87007
  0
LINE
  8
0
 10
13.8058
 20
1.87007
 11
13.5993
 21
1.83899
  0
LINE
  8
0
 10
13.5993
 20
1.83899
 11
13.3873
 21
1.87019
  0
LINE
  8
0
 10
5.61806
 20
1.912
 11
4.85144
 21
1.912
  0
LINE
  8
0
 10
4.85144
 20
1.912
 11
4.85144
 21
4.76012
  0
LINE
  8
0
 10
4.85144
 20
4.76012
 11
4.1553
 21
4.76012
  0
LINE
  8
0
 10
4.1553
 20
4.76012
 11
3.28227
 21
4.19376
  0
LINE
  8
0
 10
3.28227
 20
4.19376
 11
3.28227
 21
3.55188
  0
LINE
  8
0
 10
3.28227
 20
3.55188
 11
4.08447
 21
4.0527
  0
LINE
  8
0
 10
4.08447
 20
4.0527
 11
4.08447
 21
1.912
  0
LINE
  8
0
 10
4.08447
 20
1.912
 11
3.25616
 21
1.912
  0
LINE
  8
0
 10
3.25616
 20
1.912
 11
3.25616
 21
1.31595
  0
LINE
  8
0
 10
3.25616
 20
1.31595
 11
5.61806
 21
1.31595
  0
LINE
  8
0
 10
5.61806
 20
1.31595
 11
5.61806
 21
1.912
  0
LINE
  8
0
 10
9.2401
 20
1.99712
 11
9.68633
 21
1.99712
  0
LINE
  8
0
 10
9.68633
 20
1.99712
 11
9.68633
 21
2.59317
  0
LINE
  8
0
 10
9.68633
 20
2.59317
 11
9.2401
 21
2.59317
  0
LINE
  8
0
 10
9.2401
 20
2.59317
 11
9.2401
 21
4.76012
  0
LINE
  8
0
 10
9.2401
 20
4.76012
 11
8.41777
 21
4.76012
  0
LINE
  8
0
 10
8.41777
 20
4.76012
 11
6.98262
 21
2.56281
  0
LINE
  8
0
 10
6.98262
 20
2.56281
 11
6.98262
 21
1.99712
  0
LINE
  8
0
 10
6.98262
 20
1.99712
 11
8.50401
 21
1.99712
  0
LINE
  8
0
 10
8.50401
 20
1.99712
 11
8.50401
 21
1.31595
  0
LINE
  8
0
 10
8.50401
 20
1.31595
 11
9.2401
 21
1.31595
  0
LINE
  8
0
 10
9.2401
 20
1.31595
 11
9.2401
 21
1.99712
  0
LINE
  8
0
 10
7.66888
 20
2.59317
 11
8.39445
 21
3.69592
  0
LINE
  8
0
 10
8.39445
 20
3.69592
 11
8.51097
 21
3.88539
  0
LINE
  8
0
 10
8.51097
 20
3.88539
 11
8.50609
 21
3.77228
  0
LINE
  8
0
 10
8.50609
 20
3.77228
 11
8.50401
 21
3.63771
  0
LINE
  8
0
 10
8.50401
 20
3.63771
 11
8.50401
 21
2.59317
  0
LINE
  8
0
 10
8.50401
 20
2.59317
 11
7.66888
 21
2.59317
  0
LINE
  8
0
 10
17.1757
 20
2.17039
 11
18.3791
 21
2.17039
  0
LINE
  8
0
 10
18.3791
 20
2.17039
 11
18.6758
 21
1.31595
  0
LINE
  8
0
 10
18.6758
 20
1.31595
 11
19.4758
 21
1.31595
  0
LINE
  8
0
 10
19.4758
 20
1.31595
 11
18.2242
 21
4.76012
  0
LINE
  8
0
 10
18.2242
 20
4.76012
 11
17.3282
 21
4.76012
  0
LINE
  8
0
 10
17.3282
 20
4.76012
 11
16.0718
 21
1.31595
  0
LINE
  8
0
 10
16.0718
 20
1.31595
 11
16.879
 21
1.31595
  0
LINE
  8
0
 10
16.879
 20
1.31595
 11
17.1757
 21
2.17039
  0
LINE
  8
0
 10
17.3667
 20
2.79729
 11
17.6337
 21
3.57739
  0
LINE
  8
0
 10
17.6337
 20
3.57739
 11
17.7527
 21
3.93314
  0
LINE
  8
0
 10
17.7527
 20
3.93314
 11
17.778
 21
4.01767
  0
LINE
  8
0
 10
17.778
 20
4.01767
 11
17.8806
 21
3.69286
  0
LINE
  8
0
 10
17.8806
 20
3.69286
 11
18.188
 21
2.79729
  0
LINE
  8
0
 10
18.188
 20
2.79729
 11
17.3667
 21
2.79729
  0
LINE
  8
0
 10
6.70598
 20
2.13985
 11
5.92004
 21
2.13985
  0
LINE
  8
0
 10
5.92004
 20
2.13985
 11
5.92004
 21
1.31595
  0
LINE
  8
0
 10
5.92004
 20
1.31595
 11
6.70598
 21
1.31595
  0
LINE
  8
0
 10
6.70598
 20
1.31595
 11
6.70598
 21
2.13985
  0
ENDSEC
  0
SECTION
  2
OBJECTS
  0
DICTIONARY
  0
ENDSEC
  0
EOF
