  0
SECTION
  2
BLOCKS
  0
ENDSEC
  0
SECTION
  2
ENTITIES
  0
LINE
  8
0
 10
30.075
 20
-0.0749969
 11
89.925
 21
-0.0749969
  0
LINE
  8
0
 10
89.925
 20
-0.0749969
 11
89.925
 21
-3.075
  0
LINE
  8
0
 10
89.925
 20
-3.075
 11
102.075
 21
-3.075
  0
LINE
  8
0
 10
102.075
 20
-3.075
 11
102.075
 21
-0.0749969
  0
LINE
  8
0
 10
102.075
 20
-0.0749969
 11
120.075
 21
-0.0749969
  0
LINE
  8
0
 10
120.075
 20
-0.0749969
 11
120.075
 21
8.86722
  0
LINE
  8
0
 10
120.075
 20
8.86722
 11
118.001
 21
10.0142
  0
LINE
  8
0
 10
118.001
 20
10.0142
 11
115.969
 21
11.0603
  0
LINE
  8
0
 10
115.969
 20
11.0603
 11
113.946
 21
12.3229
  0
LINE
  8
0
 10
113.946
 20
12.3229
 11
111.925
 21
14.3885
  0
LINE
  8
0
 10
111.925
 20
14.3885
 11
109.899
 21
17.9361
  0
LINE
  8
0
 10
109.899
 20
17.9361
 11
107.867
 21
23.281
  0
LINE
  8
0
 10
107.867
 20
23.281
 11
105.833
 21
29.5581
  0
LINE
  8
0
 10
105.833
 20
29.5581
 11
103.787
 21
34.4392
  0
LINE
  8
0
 10
103.787
 20
34.4392
 11
101.664
 21
35.3973
  0
LINE
  8
0
 10
101.664
 20
35.3973
 11
99.5924
 21
31.8132
  0
LINE
  8
0
 10
99.5924
 20
31.8132
 11
97.5561
 21
25.8482
  0
LINE
  8
0
 10
97.5561
 20
25.8482
 11
95.5242
 21
20.1446
  0
LINE
  8
0
 10
95.5242
 20
20.1446
 11
93.4967
 21
16.1492
  0
LINE
  8
0
 10
93.4967
 20
16.1492
 11
91.4758
 21
13.8272
  0
LINE
  8
0
 10
91.4758
 20
13.8272
 11
89.4564
 21
12.5256
  0
LINE
  8
0
 10
89.4564
 20
12.5256
 11
87.4307
 21
11.671
  0
LINE
  8
0
 10
87.4307
 20
11.671
 11
85.4
 21
10.9612
  0
LINE
  8
0
 10
85.4
 20
10.9612
 11
83.3694
 21
10.3262
  0
LINE
  8
0
 10
83.3694
 20
10.3262
 11
81.3392
 21
9.79913
  0
LINE
  8
0
 10
81.3392
 20
9.79913
 11
79.3087
 21
9.39482
  0
LINE
  8
0
 10
79.3087
 20
9.39482
 11
77.2776
 21
9.07726
  0
LINE
  8
0
 10
77.2776
 20
9.07726
 11
75.2441
 21
8.78932
  0
LINE
  8
0
 10
75.2441
 20
8.78932
 11
73.2103
 21
8.51332
  0
LINE
  8
0
 10
73.2103
 20
8.51332
 11
71.1786
 21
8.27357
  0
LINE
  8
0
 10
71.1786
 20
8.27357
 11
69.1472
 21
8.09081
  0
LINE
  8
0
 10
69.1472
 20
8.09081
 11
67.1148
 21
7.9649
  0
LINE
  8
0
 10
67.1148
 20
7.9649
 11
65.0815
 21
7.87793
  0
LINE
  8
0
 10
65.0815
 20
7.87793
 11
61.0142
 21
7.73994
  0
LINE
  8
0
 10
61.0142
 20
7.73994
 11
58.9799
 21
7.65894
  0
LINE
  8
0
 10
58.9799
 20
7.65894
 11
56.9462
 21
7.57195
  0
LINE
  8
0
 10
56.9462
 20
7.57195
 11
54.9137
 21
7.50899
  0
LINE
  8
0
 10
54.9137
 20
7.50899
 11
52.8815
 21
7.49399
  0
LINE
  8
0
 10
52.8815
 20
7.49399
 11
50.8482
 21
7.51199
  0
LINE
  8
0
 10
50.8482
 20
7.51199
 11
48.8138
 21
7.53299
  0
LINE
  8
0
 10
48.8138
 20
7.53299
 11
46.7788
 21
7.52699
  0
LINE
  8
0
 10
46.7788
 20
7.52699
 11
44.7438
 21
7.48497
  0
LINE
  8
0
 10
44.7438
 20
7.48497
 11
42.7094
 21
7.41896
  0
LINE
  8
0
 10
42.7094
 20
7.41896
 11
40.6757
 21
7.35596
  0
LINE
  8
0
 10
40.6757
 20
7.35596
 11
38.643
 21
7.31099
  0
LINE
  8
0
 10
38.643
 20
7.31099
 11
36.6089
 21
7.28099
  0
LINE
  8
0
 10
36.6089
 20
7.28099
 11
34.5746
 21
7.24197
  0
LINE
  8
0
 10
34.5746
 20
7.24197
 11
32.5405
 21
7.19098
  0
LINE
  8
0
 10
32.5405
 20
7.19098
 11
30.5072
 21
7.14299
  0
LINE
  8
0
 10
30.5072
 20
7.14299
 11
28.4733
 21
7.10999
  0
LINE
  8
0
 10
28.4733
 20
7.10999
 11
26.4394
 21
7.08299
  0
LINE
  8
0
 10
26.4394
 20
7.08299
 11
24.4051
 21
7.04097
  0
LINE
  8
0
 10
24.4051
 20
7.04097
 11
22.3717
 21
6.993
  0
LINE
  8
0
 10
22.3717
 20
6.993
 11
20.3378
 21
6.95999
  0
LINE
  8
0
 10
20.3378
 20
6.95999
 11
18.3045
 21
6.94499
  0
LINE
  8
0
 10
18.3045
 20
6.94499
 11
16.2709
 21
6.939
  0
LINE
  8
0
 10
16.2709
 20
6.939
 11
14.2367
 21
6.92999
  0
LINE
  8
0
 10
14.2367
 20
6.92999
 11
12.2024
 21
6.90599
  0
LINE
  8
0
 10
12.2024
 20
6.90599
 11
10.1685
 21
6.87898
  0
LINE
  8
0
 10
10.1685
 20
6.87898
 11
8.13547
 21
6.87
  0
LINE
  8
0
 10
8.13547
 20
6.87
 11
6.10135
 21
6.87599
  0
LINE
  8
0
 10
6.10135
 20
6.87599
 11
4.06552
 21
6.85197
  0
LINE
  8
0
 10
4.06552
 20
6.85197
 11
2.02881
 21
6.75284
  0
LINE
  8
0
 10
2.02881
 20
6.75284
 11
-0.0749969
 21
6.56975
  0
LINE
  8
0
 10
-0.0749969
 20
6.56975
 11
-0.0749969
 21
-0.0749969
  0
LINE
  8
0
 10
-0.0749969
 20
-0.0749969
 11
17.925
 21
-0.0749969
  0
LINE
  8
0
 10
17.925
 20
-0.0749969
 11
17.925
 21
-3.075
  0
LINE
  8
0
 10
17.925
 20
-3.075
 11
30.075
 21
-3.075
  0
LINE
  8
0
 10
30.075
 20
-3.075
 11
30.075
 21
-0.0749969
  0
ENDSEC
  0
SECTION
  2
OBJECTS
  0
DICTIONARY
  0
ENDSEC
  0
EOF
