  0
SECTION
  2
BLOCKS
  0
ENDSEC
  0
SECTION
  2
ENTITIES
  0
LINE
  8
0
 10
30.075
 20
-0.0749969
 11
89.925
 21
-0.0749969
  0
LINE
  8
0
 10
89.925
 20
-0.0749969
 11
89.925
 21
-3.075
  0
LINE
  8
0
 10
89.925
 20
-3.075
 11
102.075
 21
-3.075
  0
LINE
  8
0
 10
102.075
 20
-3.075
 11
102.075
 21
-0.0749969
  0
LINE
  8
0
 10
102.075
 20
-0.0749969
 11
120.075
 21
-0.0749969
  0
LINE
  8
0
 10
120.075
 20
-0.0749969
 11
120.075
 21
6.77574
  0
LINE
  8
0
 10
120.075
 20
6.77574
 11
117.972
 21
6.98976
  0
LINE
  8
0
 10
117.972
 20
6.98976
 11
115.936
 21
7.11589
  0
LINE
  8
0
 10
115.936
 20
7.11589
 11
113.901
 21
7.20293
  0
LINE
  8
0
 10
113.901
 20
7.20293
 11
111.867
 21
7.27495
  0
LINE
  8
0
 10
111.867
 20
7.27495
 11
109.833
 21
7.35294
  0
LINE
  8
0
 10
109.833
 20
7.35294
 11
107.8
 21
7.43393
  0
LINE
  8
0
 10
107.8
 20
7.43393
 11
105.765
 21
7.51195
  0
LINE
  8
0
 10
105.765
 20
7.51195
 11
101.697
 21
7.64395
  0
LINE
  8
0
 10
101.697
 20
7.64395
 11
99.6648
 21
7.73689
  0
LINE
  8
0
 10
99.6648
 20
7.73689
 11
97.6323
 21
7.8658
  0
LINE
  8
0
 10
97.6323
 20
7.8658
 11
95.5995
 21
8.01872
  0
LINE
  8
0
 10
95.5995
 20
8.01872
 11
93.5661
 21
8.18968
  0
LINE
  8
0
 10
93.5661
 20
8.18968
 11
91.5332
 21
8.37561
  0
LINE
  8
0
 10
91.5332
 20
8.37561
 11
89.5008
 21
8.60342
  0
LINE
  8
0
 10
89.5008
 20
8.60342
 11
87.4685
 21
8.88519
  0
LINE
  8
0
 10
87.4685
 20
8.88519
 11
85.4364
 21
9.2119
  0
LINE
  8
0
 10
85.4364
 20
9.2119
 11
83.4057
 21
9.59233
  0
LINE
  8
0
 10
83.4057
 20
9.59233
 11
81.3778
 21
10.0858
  0
LINE
  8
0
 10
81.3778
 20
10.0858
 11
79.3551
 21
10.8347
  0
LINE
  8
0
 10
79.3551
 20
10.8347
 11
77.3362
 21
12.0795
  0
LINE
  8
0
 10
77.3362
 20
12.0795
 11
75.3156
 21
14.2671
  0
LINE
  8
0
 10
75.3156
 20
14.2671
 11
73.2886
 21
17.9745
  0
LINE
  8
0
 10
73.2886
 20
17.9745
 11
71.2565
 21
23.2858
  0
LINE
  8
0
 10
71.2565
 20
23.2858
 11
69.2204
 21
28.8958
  0
LINE
  8
0
 10
69.2204
 20
28.8958
 11
67.1474
 21
32.2593
  0
LINE
  8
0
 10
67.1474
 20
32.2593
 11
65.0275
 21
31.265
  0
LINE
  8
0
 10
65.0275
 20
31.265
 11
62.9811
 21
26.6288
  0
LINE
  8
0
 10
62.9811
 20
26.6288
 11
60.9473
 21
20.9319
  0
LINE
  8
0
 10
60.9473
 20
20.9319
 11
58.9178
 21
16.3879
  0
LINE
  8
0
 10
58.9178
 20
16.3879
 11
56.8953
 21
13.6194
  0
LINE
  8
0
 10
56.8953
 20
13.6194
 11
54.8774
 21
12.1193
  0
LINE
  8
0
 10
54.8774
 20
12.1193
 11
52.8548
 21
11.2362
  0
LINE
  8
0
 10
52.8548
 20
11.2362
 11
50.8266
 21
10.59
  0
LINE
  8
0
 10
50.8266
 20
10.59
 11
48.7962
 21
10.057
  0
LINE
  8
0
 10
48.7962
 20
10.057
 11
46.7652
 21
9.61961
  0
LINE
  8
0
 10
46.7652
 20
9.61961
 11
44.7339
 21
9.26006
  0
LINE
  8
0
 10
44.7339
 20
9.26006
 11
42.7013
 21
8.95726
  0
LINE
  8
0
 10
42.7013
 20
8.95726
 11
40.6694
 21
8.69951
  0
LINE
  8
0
 10
40.6694
 20
8.69951
 11
38.6356
 21
8.46852
  0
LINE
  8
0
 10
38.6356
 20
8.46852
 11
36.604
 21
8.26775
  0
LINE
  8
0
 10
36.604
 20
8.26775
 11
34.5701
 21
8.09975
  0
LINE
  8
0
 10
34.5701
 20
8.09975
 11
32.5378
 21
7.96486
  0
LINE
  8
0
 10
32.5378
 20
7.96486
 11
30.504
 21
7.84187
  0
LINE
  8
0
 10
30.504
 20
7.84187
 11
28.4701
 21
7.72186
  0
LINE
  8
0
 10
28.4701
 20
7.72186
 11
26.438
 21
7.63194
  0
LINE
  8
0
 10
26.438
 20
7.63194
 11
24.4059
 21
7.57799
  0
LINE
  8
0
 10
24.4059
 20
7.57799
 11
20.3378
 21
7.536
  0
LINE
  8
0
 10
20.3378
 20
7.536
 11
18.3028
 21
7.49095
  0
LINE
  8
0
 10
18.3028
 20
7.49095
 11
16.2683
 21
7.41295
  0
LINE
  8
0
 10
16.2683
 20
7.41295
 11
14.2348
 21
7.33795
  0
LINE
  8
0
 10
14.2348
 20
7.33795
 11
12.2027
 21
7.299
  0
LINE
  8
0
 10
12.2027
 20
7.299
 11
10.1689
 21
7.28999
  0
LINE
  8
0
 10
10.1689
 20
7.28999
 11
8.13354
 21
7.26598
  0
LINE
  8
0
 10
8.13354
 20
7.26598
 11
6.09732
 21
7.17886
  0
LINE
  8
0
 10
6.09732
 20
7.17886
 11
4.06157
 21
7.02873
  0
LINE
  8
0
 10
4.06157
 20
7.02873
 11
2.02657
 21
6.83965
  0
LINE
  8
0
 10
2.02657
 20
6.83965
 11
-0.0749969
 21
6.62265
  0
LINE
  8
0
 10
-0.0749969
 20
6.62265
 11
-0.0749969
 21
-0.0749969
  0
LINE
  8
0
 10
-0.0749969
 20
-0.0749969
 11
17.925
 21
-0.0749969
  0
LINE
  8
0
 10
17.925
 20
-0.0749969
 11
17.925
 21
-3.075
  0
LINE
  8
0
 10
17.925
 20
-3.075
 11
30.075
 21
-3.075
  0
LINE
  8
0
 10
30.075
 20
-3.075
 11
30.075
 21
-0.0749969
  0
ENDSEC
  0
SECTION
  2
OBJECTS
  0
DICTIONARY
  0
ENDSEC
  0
EOF
