  0
SECTION
  2
BLOCKS
  0
ENDSEC
  0
SECTION
  2
ENTITIES
  0
LINE
  8
0
 10
84.774
 20
19.6485
 11
72.1945
 21
19.6485
  0
LINE
  8
0
 10
72.1945
 20
19.6485
 11
71.9411
 21
19.0485
  0
LINE
  8
0
 10
71.9411
 20
19.0485
 11
85.0042
 21
19.0485
  0
LINE
  8
0
 10
85.0042
 20
19.0485
 11
84.774
 21
19.6485
  0
LINE
  8
0
 10
14.1302
 20
1.34674
 11
14.5045
 21
1.58629
  0
LINE
  8
0
 10
14.5045
 20
1.58629
 11
14.7401
 21
1.96588
  0
LINE
  8
0
 10
14.7401
 20
1.96588
 11
14.8176
 21
2.45992
  0
LINE
  8
0
 10
14.8176
 20
2.45992
 11
14.7498
 21
2.91487
  0
LINE
  8
0
 10
14.7498
 20
2.91487
 11
14.5436
 21
3.26857
  0
LINE
  8
0
 10
14.5436
 20
3.26857
 11
14.2175
 21
3.49475
  0
LINE
  8
0
 10
14.2175
 20
3.49475
 11
13.7981
 21
3.56911
  0
LINE
  8
0
 10
13.7981
 20
3.56911
 11
13.558
 21
3.54402
  0
LINE
  8
0
 10
13.558
 20
3.54402
 11
13.3439
 21
3.46867
  0
LINE
  8
0
 10
13.3439
 20
3.46867
 11
13.1634
 21
3.34515
  0
LINE
  8
0
 10
13.1634
 20
3.34515
 11
13.1328
 21
3.30745
  0
LINE
  8
0
 10
13.1328
 20
3.30745
 11
13.1576
 21
3.61702
  0
LINE
  8
0
 10
13.1576
 20
3.61702
 11
13.2671
 21
3.93895
  0
LINE
  8
0
 10
13.2671
 20
3.93895
 11
13.4324
 21
4.12178
  0
LINE
  8
0
 10
13.4324
 20
4.12178
 11
13.6434
 21
4.18088
  0
LINE
  8
0
 10
13.6434
 20
4.18088
 11
13.8685
 21
4.10878
  0
LINE
  8
0
 10
13.8685
 20
4.10878
 11
14.0218
 21
3.84901
  0
LINE
  8
0
 10
14.0218
 20
3.84901
 11
14.7471
 21
3.9503
  0
LINE
  8
0
 10
14.7471
 20
3.9503
 11
14.5821
 21
4.35991
  0
LINE
  8
0
 10
14.5821
 20
4.35991
 11
14.3601
 21
4.61304
  0
LINE
  8
0
 10
14.3601
 20
4.61304
 11
14.053
 21
4.76169
  0
LINE
  8
0
 10
14.053
 20
4.76169
 11
13.6564
 21
4.81061
  0
LINE
  8
0
 10
13.6564
 20
4.81061
 11
13.1066
 21
4.69312
  0
LINE
  8
0
 10
13.1066
 20
4.69312
 11
12.6975
 21
4.33803
  0
LINE
  8
0
 10
12.6975
 20
4.33803
 11
12.4488
 21
3.75768
  0
LINE
  8
0
 10
12.4488
 20
3.75768
 11
12.3671
 21
2.96068
  0
LINE
  8
0
 10
12.3671
 20
2.96068
 11
12.4478
 21
2.23318
  0
LINE
  8
0
 10
12.4478
 20
2.23318
 11
12.6937
 21
1.70105
  0
LINE
  8
0
 10
12.6937
 20
1.70105
 11
13.0978
 21
1.37538
  0
LINE
  8
0
 10
13.0978
 20
1.37538
 11
13.6411
 21
1.26768
  0
LINE
  8
0
 10
13.6411
 20
1.26768
 11
14.1302
 21
1.34674
  0
LINE
  8
0
 10
13.4407
 20
1.93181
 11
13.2971
 21
2.06001
  0
LINE
  8
0
 10
13.2971
 20
2.06001
 11
13.2008
 21
2.26006
  0
LINE
  8
0
 10
13.2008
 20
2.26006
 11
13.168
 21
2.5116
  0
LINE
  8
0
 10
13.168
 20
2.5116
 11
13.1986
 21
2.7045
  0
LINE
  8
0
 10
13.1986
 20
2.7045
 11
13.2876
 21
2.85095
  0
LINE
  8
0
 10
13.2876
 20
2.85095
 11
13.4247
 21
2.94472
  0
LINE
  8
0
 10
13.4247
 20
2.94472
 11
13.6039
 21
2.97655
  0
LINE
  8
0
 10
13.6039
 20
2.97655
 11
13.7895
 21
2.94255
  0
LINE
  8
0
 10
13.7895
 20
2.94255
 11
13.9274
 21
2.8429
  0
LINE
  8
0
 10
13.9274
 20
2.8429
 11
14.0164
 21
2.67683
  0
LINE
  8
0
 10
14.0164
 20
2.67683
 11
14.0473
 21
2.44099
  0
LINE
  8
0
 10
14.0473
 20
2.44099
 11
14.0177
 21
2.20377
  0
LINE
  8
0
 10
14.0177
 20
2.20377
 11
13.9321
 21
2.03061
  0
LINE
  8
0
 10
13.9321
 20
2.03061
 11
13.7996
 21
1.92499
  0
LINE
  8
0
 10
13.7996
 20
1.92499
 11
13.6215
 21
1.88942
  0
LINE
  8
0
 10
13.6215
 20
1.88942
 11
13.4407
 21
1.93181
  0
LINE
  8
0
 10
11.4725
 20
1.38158
 11
11.8545
 21
1.72574
  0
LINE
  8
0
 10
11.8545
 20
1.72574
 11
12.0795
 21
2.28252
  0
LINE
  8
0
 10
12.0795
 20
2.28252
 11
12.1534
 21
3.03906
  0
LINE
  8
0
 10
12.1534
 20
3.03906
 11
12.0835
 21
3.80423
  0
LINE
  8
0
 10
12.0835
 20
3.80423
 11
11.8703
 21
4.35938
  0
LINE
  8
0
 10
11.8703
 20
4.35938
 11
11.4966
 21
4.69872
  0
LINE
  8
0
 10
11.4966
 20
4.69872
 11
10.9614
 21
4.81058
  0
LINE
  8
0
 10
10.9614
 20
4.81058
 11
10.5727
 21
4.76355
  0
LINE
  8
0
 10
10.5727
 20
4.76355
 11
10.265
 21
4.62094
  0
LINE
  8
0
 10
10.265
 20
4.62094
 11
10.0328
 21
4.37808
  0
LINE
  8
0
 10
10.0328
 20
4.37808
 11
9.86961
 21
4.03569
  0
LINE
  8
0
 10
9.86961
 20
4.03569
 11
9.77321
 21
3.59126
  0
LINE
  8
0
 10
9.77321
 20
3.59126
 11
9.74113
 21
3.03514
  0
LINE
  8
0
 10
9.74113
 20
3.03514
 11
10.035
 21
1.71457
  0
LINE
  8
0
 10
10.035
 20
1.71457
 11
10.9335
 21
1.26591
  0
LINE
  8
0
 10
10.9335
 20
1.26591
 11
11.4725
 21
1.38158
  0
LINE
  8
0
 10
10.7945
 20
1.91843
 11
10.6892
 21
1.98965
  0
LINE
  8
0
 10
10.6892
 20
1.98965
 11
10.6111
 21
2.12213
  0
LINE
  8
0
 10
10.6111
 20
2.12213
 11
10.5539
 21
2.33307
  0
LINE
  8
0
 10
10.5539
 20
2.33307
 11
10.5199
 21
2.63486
  0
LINE
  8
0
 10
10.5199
 20
2.63486
 11
10.5084
 21
3.03902
  0
LINE
  8
0
 10
10.5084
 20
3.03902
 11
10.5193
 21
3.44687
  0
LINE
  8
0
 10
10.5193
 20
3.44687
 11
10.5516
 21
3.74802
  0
LINE
  8
0
 10
10.5516
 20
3.74802
 11
10.6075
 21
3.95705
  0
LINE
  8
0
 10
10.6075
 20
3.95705
 11
10.6866
 21
4.08966
  0
LINE
  8
0
 10
10.6866
 20
4.08966
 11
10.7959
 21
4.16191
  0
LINE
  8
0
 10
10.7959
 20
4.16191
 11
10.9543
 21
4.18712
  0
LINE
  8
0
 10
10.9543
 20
4.18712
 11
11.1026
 21
4.1624
  0
LINE
  8
0
 10
11.1026
 20
4.1624
 11
11.2064
 21
4.09134
  0
LINE
  8
0
 10
11.2064
 20
4.09134
 11
11.2834
 21
3.95912
  0
LINE
  8
0
 10
11.2834
 20
3.95912
 11
11.3395
 21
3.74911
  0
LINE
  8
0
 10
11.3395
 20
3.74911
 11
11.3727
 21
3.44708
  0
LINE
  8
0
 10
11.3727
 20
3.44708
 11
11.3839
 21
3.03903
  0
LINE
  8
0
 10
11.3839
 20
3.03903
 11
11.3724
 21
2.64536
  0
LINE
  8
0
 10
11.3724
 20
2.64536
 11
11.3383
 21
2.34608
  0
LINE
  8
0
 10
11.3383
 20
2.34608
 11
11.2805
 21
2.13269
  0
LINE
  8
0
 10
11.2805
 20
2.13269
 11
11.2003
 21
1.99507
  0
LINE
  8
0
 10
11.2003
 20
1.99507
 11
11.0935
 21
1.91971
  0
LINE
  8
0
 10
11.0935
 20
1.91971
 11
10.9447
 21
1.89371
  0
LINE
  8
0
 10
10.9447
 20
1.89371
 11
10.7945
 21
1.91843
  0
LINE
  8
0
 10
17.1757
 20
2.17039
 11
18.3791
 21
2.17039
  0
LINE
  8
0
 10
18.3791
 20
2.17039
 11
18.6758
 21
1.31595
  0
LINE
  8
0
 10
18.6758
 20
1.31595
 11
19.4758
 21
1.31595
  0
LINE
  8
0
 10
19.4758
 20
1.31595
 11
18.2242
 21
4.76012
  0
LINE
  8
0
 10
18.2242
 20
4.76012
 11
17.3282
 21
4.76012
  0
LINE
  8
0
 10
17.3282
 20
4.76012
 11
16.0718
 21
1.31595
  0
LINE
  8
0
 10
16.0718
 20
1.31595
 11
16.879
 21
1.31595
  0
LINE
  8
0
 10
16.879
 20
1.31595
 11
17.1757
 21
2.17039
  0
LINE
  8
0
 10
17.3667
 20
2.79729
 11
17.6337
 21
3.57739
  0
LINE
  8
0
 10
17.6337
 20
3.57739
 11
17.7527
 21
3.93314
  0
LINE
  8
0
 10
17.7527
 20
3.93314
 11
17.778
 21
4.01767
  0
LINE
  8
0
 10
17.778
 20
4.01767
 11
17.8806
 21
3.69286
  0
LINE
  8
0
 10
17.8806
 20
3.69286
 11
18.188
 21
2.79729
  0
LINE
  8
0
 10
18.188
 20
2.79729
 11
17.3667
 21
2.79729
  0
LINE
  8
0
 10
5.61806
 20
1.912
 11
4.85144
 21
1.912
  0
LINE
  8
0
 10
4.85144
 20
1.912
 11
4.85144
 21
4.76012
  0
LINE
  8
0
 10
4.85144
 20
4.76012
 11
4.1553
 21
4.76012
  0
LINE
  8
0
 10
4.1553
 20
4.76012
 11
3.28227
 21
4.19376
  0
LINE
  8
0
 10
3.28227
 20
4.19376
 11
3.28227
 21
3.55188
  0
LINE
  8
0
 10
3.28227
 20
3.55188
 11
4.08447
 21
4.0527
  0
LINE
  8
0
 10
4.08447
 20
4.0527
 11
4.08447
 21
1.912
  0
LINE
  8
0
 10
4.08447
 20
1.912
 11
3.25616
 21
1.912
  0
LINE
  8
0
 10
3.25616
 20
1.912
 11
3.25616
 21
1.31595
  0
LINE
  8
0
 10
3.25616
 20
1.31595
 11
5.61806
 21
1.31595
  0
LINE
  8
0
 10
5.61806
 20
1.31595
 11
5.61806
 21
1.912
  0
LINE
  8
0
 10
8.8208
 20
1.34917
 11
9.23129
 21
1.59583
  0
LINE
  8
0
 10
9.23129
 20
1.59583
 11
9.49178
 21
1.98265
  0
LINE
  8
0
 10
9.49178
 20
1.98265
 11
9.57779
 21
2.47867
  0
LINE
  8
0
 10
9.57779
 20
2.47867
 11
9.50346
 21
2.95358
  0
LINE
  8
0
 10
9.50346
 20
2.95358
 11
9.27797
 21
3.32153
  0
LINE
  8
0
 10
9.27797
 20
3.32153
 11
8.92628
 21
3.55602
  0
LINE
  8
0
 10
8.92628
 20
3.55602
 11
8.47836
 21
3.63341
  0
LINE
  8
0
 10
8.47836
 20
3.63341
 11
8.12796
 21
3.57721
  0
LINE
  8
0
 10
8.12796
 20
3.57721
 11
7.92882
 21
3.46005
  0
LINE
  8
0
 10
7.92882
 20
3.46005
 11
7.97432
 21
4.16405
  0
LINE
  8
0
 10
7.97432
 20
4.16405
 11
9.38252
 21
4.16405
  0
LINE
  8
0
 10
9.38252
 20
4.16405
 11
9.38252
 21
4.76012
  0
LINE
  8
0
 10
9.38252
 20
4.76012
 11
7.27518
 21
4.76012
  0
LINE
  8
0
 10
7.27518
 20
4.76012
 11
7.15274
 21
2.778
  0
LINE
  8
0
 10
7.15274
 20
2.778
 11
7.87384
 21
2.778
  0
LINE
  8
0
 10
7.87384
 20
2.778
 11
8.07945
 21
2.94356
  0
LINE
  8
0
 10
8.07945
 20
2.94356
 11
8.31046
 21
2.993
  0
LINE
  8
0
 10
8.31046
 20
2.993
 11
8.51355
 21
2.95717
  0
LINE
  8
0
 10
8.51355
 20
2.95717
 11
8.66322
 21
2.85165
  0
LINE
  8
0
 10
8.66322
 20
2.85165
 11
8.75809
 21
2.68527
  0
LINE
  8
0
 10
8.75809
 20
2.68527
 11
8.79066
 21
2.46465
  0
LINE
  8
0
 10
8.79066
 20
2.46465
 11
8.75594
 21
2.21732
  0
LINE
  8
0
 10
8.75594
 20
2.21732
 11
8.65515
 21
2.04152
  0
LINE
  8
0
 10
8.65515
 20
2.04152
 11
8.49988
 21
1.93484
  0
LINE
  8
0
 10
8.49988
 20
1.93484
 11
8.29419
 21
1.89833
  0
LINE
  8
0
 10
8.29419
 20
1.89833
 11
8.12529
 21
1.92061
  0
LINE
  8
0
 10
8.12529
 20
1.92061
 11
7.99138
 21
1.98569
  0
LINE
  8
0
 10
7.99138
 20
1.98569
 11
7.89117
 21
2.09805
  0
LINE
  8
0
 10
7.89117
 20
2.09805
 11
7.80852
 21
2.30887
  0
LINE
  8
0
 10
7.80852
 20
2.30887
 11
7.04056
 21
2.246
  0
LINE
  8
0
 10
7.04056
 20
2.246
 11
7.19356
 21
1.79695
  0
LINE
  8
0
 10
7.19356
 20
1.79695
 11
7.45161
 21
1.5045
  0
LINE
  8
0
 10
7.45161
 20
1.5045
 11
7.82083
 21
1.32655
  0
LINE
  8
0
 10
7.82083
 20
1.32655
 11
8.28886
 21
1.26801
  0
LINE
  8
0
 10
8.28886
 20
1.26801
 11
8.8208
 21
1.34917
  0
LINE
  8
0
 10
6.70598
 20
2.13985
 11
5.92004
 21
2.13985
  0
LINE
  8
0
 10
5.92004
 20
2.13985
 11
5.92004
 21
1.31595
  0
LINE
  8
0
 10
5.92004
 20
1.31595
 11
6.70598
 21
1.31595
  0
LINE
  8
0
 10
6.70598
 20
1.31595
 11
6.70598
 21
2.13985
  0
ENDSEC
  0
SECTION
  2
OBJECTS
  0
DICTIONARY
  0
ENDSEC
  0
EOF
