  0
SECTION
  2
BLOCKS
  0
ENDSEC
  0
SECTION
  2
ENTITIES
  0
LINE
  8
0
 10
96.8079
 20
20.0595
 11
84.0976
 21
20.0595
  0
LINE
  8
0
 10
84.0976
 20
20.0595
 11
83.8669
 21
19.4595
  0
LINE
  8
0
 10
83.8669
 20
19.4595
 11
97.0398
 21
19.4595
  0
LINE
  8
0
 10
97.0398
 20
19.4595
 11
96.8079
 21
20.0595
  0
LINE
  8
0
 10
5.61806
 20
1.93716
 11
4.85144
 21
1.93716
  0
LINE
  8
0
 10
4.85144
 20
1.93716
 11
4.85144
 21
4.78526
  0
LINE
  8
0
 10
4.85144
 20
4.78526
 11
4.1553
 21
4.78526
  0
LINE
  8
0
 10
4.1553
 20
4.78526
 11
3.28227
 21
4.21892
  0
LINE
  8
0
 10
3.28227
 20
4.21892
 11
3.28227
 21
3.57704
  0
LINE
  8
0
 10
3.28227
 20
3.57704
 11
4.08447
 21
4.07785
  0
LINE
  8
0
 10
4.08447
 20
4.07785
 11
4.08447
 21
1.93716
  0
LINE
  8
0
 10
4.08447
 20
1.93716
 11
3.25616
 21
1.93716
  0
LINE
  8
0
 10
3.25616
 20
1.93716
 11
3.25616
 21
1.34109
  0
LINE
  8
0
 10
3.25616
 20
1.34109
 11
5.61806
 21
1.34109
  0
LINE
  8
0
 10
5.61806
 20
1.34109
 11
5.61806
 21
1.93716
  0
LINE
  8
0
 10
12.2173
 20
1.93716
 11
11.4507
 21
1.93716
  0
LINE
  8
0
 10
11.4507
 20
1.93716
 11
11.4507
 21
4.78526
  0
LINE
  8
0
 10
11.4507
 20
4.78526
 11
10.7545
 21
4.78526
  0
LINE
  8
0
 10
10.7545
 20
4.78526
 11
9.88148
 21
4.21892
  0
LINE
  8
0
 10
9.88148
 20
4.21892
 11
9.88148
 21
3.57704
  0
LINE
  8
0
 10
9.88148
 20
3.57704
 11
10.6837
 21
4.07785
  0
LINE
  8
0
 10
10.6837
 20
4.07785
 11
10.6837
 21
1.93716
  0
LINE
  8
0
 10
10.6837
 20
1.93716
 11
9.85538
 21
1.93716
  0
LINE
  8
0
 10
9.85538
 20
1.93716
 11
9.85538
 21
1.34109
  0
LINE
  8
0
 10
9.85538
 20
1.34109
 11
12.2173
 21
1.34109
  0
LINE
  8
0
 10
12.2173
 20
1.34109
 11
12.2173
 21
1.93716
  0
LINE
  8
0
 10
14.5955
 20
1.93716
 11
13.8289
 21
1.93716
  0
LINE
  8
0
 10
13.8289
 20
1.93716
 11
13.8289
 21
4.78526
  0
LINE
  8
0
 10
13.8289
 20
4.78526
 11
13.1327
 21
4.78526
  0
LINE
  8
0
 10
13.1327
 20
4.78526
 11
12.2597
 21
4.21892
  0
LINE
  8
0
 10
12.2597
 20
4.21892
 11
12.2597
 21
3.57704
  0
LINE
  8
0
 10
12.2597
 20
3.57704
 11
13.0619
 21
4.07785
  0
LINE
  8
0
 10
13.0619
 20
4.07785
 11
13.0619
 21
1.93716
  0
LINE
  8
0
 10
13.0619
 20
1.93716
 11
12.2336
 21
1.93716
  0
LINE
  8
0
 10
12.2336
 20
1.93716
 11
12.2336
 21
1.34109
  0
LINE
  8
0
 10
12.2336
 20
1.34109
 11
14.5955
 21
1.34109
  0
LINE
  8
0
 10
14.5955
 20
1.34109
 11
14.5955
 21
1.93716
  0
LINE
  8
0
 10
8.8208
 20
1.37431
 11
9.23129
 21
1.62097
  0
LINE
  8
0
 10
9.23129
 20
1.62097
 11
9.49178
 21
2.00781
  0
LINE
  8
0
 10
9.49178
 20
2.00781
 11
9.57779
 21
2.50383
  0
LINE
  8
0
 10
9.57779
 20
2.50383
 11
9.50346
 21
2.97874
  0
LINE
  8
0
 10
9.50346
 20
2.97874
 11
9.27797
 21
3.34669
  0
LINE
  8
0
 10
9.27797
 20
3.34669
 11
8.92628
 21
3.58118
  0
LINE
  8
0
 10
8.92628
 20
3.58118
 11
8.47836
 21
3.65857
  0
LINE
  8
0
 10
8.47836
 20
3.65857
 11
8.12796
 21
3.60236
  0
LINE
  8
0
 10
8.12796
 20
3.60236
 11
7.92882
 21
3.4852
  0
LINE
  8
0
 10
7.92882
 20
3.4852
 11
7.97432
 21
4.18921
  0
LINE
  8
0
 10
7.97432
 20
4.18921
 11
9.38252
 21
4.18921
  0
LINE
  8
0
 10
9.38252
 20
4.18921
 11
9.38252
 21
4.78526
  0
LINE
  8
0
 10
9.38252
 20
4.78526
 11
7.27518
 21
4.78526
  0
LINE
  8
0
 10
7.27518
 20
4.78526
 11
7.15274
 21
2.80315
  0
LINE
  8
0
 10
7.15274
 20
2.80315
 11
7.87384
 21
2.80315
  0
LINE
  8
0
 10
7.87384
 20
2.80315
 11
8.07945
 21
2.9687
  0
LINE
  8
0
 10
8.07945
 20
2.9687
 11
8.31046
 21
3.01816
  0
LINE
  8
0
 10
8.31046
 20
3.01816
 11
8.51355
 21
2.98233
  0
LINE
  8
0
 10
8.51355
 20
2.98233
 11
8.66322
 21
2.87682
  0
LINE
  8
0
 10
8.66322
 20
2.87682
 11
8.75809
 21
2.71043
  0
LINE
  8
0
 10
8.75809
 20
2.71043
 11
8.79066
 21
2.48979
  0
LINE
  8
0
 10
8.79066
 20
2.48979
 11
8.75594
 21
2.24246
  0
LINE
  8
0
 10
8.75594
 20
2.24246
 11
8.65515
 21
2.06668
  0
LINE
  8
0
 10
8.65515
 20
2.06668
 11
8.49988
 21
1.95999
  0
LINE
  8
0
 10
8.49988
 20
1.95999
 11
8.2942
 21
1.92349
  0
LINE
  8
0
 10
8.2942
 20
1.92349
 11
8.12532
 21
1.94576
  0
LINE
  8
0
 10
8.12532
 20
1.94576
 11
7.99136
 21
2.01086
  0
LINE
  8
0
 10
7.99136
 20
2.01086
 11
7.89117
 21
2.12321
  0
LINE
  8
0
 10
7.89117
 20
2.12321
 11
7.80852
 21
2.33403
  0
LINE
  8
0
 10
7.80852
 20
2.33403
 11
7.04056
 21
2.27115
  0
LINE
  8
0
 10
7.04056
 20
2.27115
 11
7.19356
 21
1.8221
  0
LINE
  8
0
 10
7.19356
 20
1.8221
 11
7.45161
 21
1.52965
  0
LINE
  8
0
 10
7.45161
 20
1.52965
 11
7.82083
 21
1.3517
  0
LINE
  8
0
 10
7.82083
 20
1.3517
 11
8.28886
 21
1.29317
  0
LINE
  8
0
 10
8.28886
 20
1.29317
 11
8.8208
 21
1.37431
  0
LINE
  8
0
 10
16.9138
 20
2.19556
 11
18.1172
 21
2.19556
  0
LINE
  8
0
 10
18.1172
 20
2.19556
 11
18.4139
 21
1.34109
  0
LINE
  8
0
 10
18.4139
 20
1.34109
 11
19.2139
 21
1.34109
  0
LINE
  8
0
 10
19.2139
 20
1.34109
 11
17.9623
 21
4.78526
  0
LINE
  8
0
 10
17.9623
 20
4.78526
 11
17.0663
 21
4.78526
  0
LINE
  8
0
 10
17.0663
 20
4.78526
 11
15.8099
 21
1.34109
  0
LINE
  8
0
 10
15.8099
 20
1.34109
 11
16.6171
 21
1.34109
  0
LINE
  8
0
 10
16.6171
 20
1.34109
 11
16.9138
 21
2.19556
  0
LINE
  8
0
 10
17.1048
 20
2.82245
 11
17.3718
 21
3.60254
  0
LINE
  8
0
 10
17.3718
 20
3.60254
 11
17.4908
 21
3.9583
  0
LINE
  8
0
 10
17.4908
 20
3.9583
 11
17.516
 21
4.04283
  0
LINE
  8
0
 10
17.516
 20
4.04283
 11
17.6187
 21
3.71802
  0
LINE
  8
0
 10
17.6187
 20
3.71802
 11
17.9261
 21
2.82245
  0
LINE
  8
0
 10
17.9261
 20
2.82245
 11
17.1048
 21
2.82245
  0
LINE
  8
0
 10
6.70598
 20
2.16501
 11
5.92004
 21
2.16501
  0
LINE
  8
0
 10
5.92004
 20
2.16501
 11
5.92004
 21
1.34109
  0
LINE
  8
0
 10
5.92004
 20
1.34109
 11
6.70598
 21
1.34109
  0
LINE
  8
0
 10
6.70598
 20
1.34109
 11
6.70598
 21
2.16501
  0
ENDSEC
  0
SECTION
  2
OBJECTS
  0
DICTIONARY
  0
ENDSEC
  0
EOF
