  0
SECTION
  2
BLOCKS
  0
ENDSEC
  0
SECTION
  2
ENTITIES
  0
LINE
  8
0
 10
123.624
 20
-15.3011
 11
124.075
 21
-14.0127
  0
LINE
  8
0
 10
124.075
 20
-14.0127
 11
124.075
 21
86.0171
  0
LINE
  8
0
 10
124.075
 20
86.0171
 11
123.301
 21
87.6242
  0
LINE
  8
0
 10
123.301
 20
87.6242
 11
122.013
 21
88.075
  0
LINE
  8
0
 10
122.013
 20
88.075
 11
-20.0171
 21
88.075
  0
LINE
  8
0
 10
-20.0171
 20
88.075
 11
-21.6242
 21
87.3011
  0
LINE
  8
0
 10
-21.6242
 20
87.3011
 11
-22.075
 21
86.0127
  0
LINE
  8
0
 10
-22.075
 20
86.0127
 11
-22.075
 21
-14.0171
  0
LINE
  8
0
 10
-22.075
 20
-14.0171
 11
-21.3011
 21
-15.6242
  0
LINE
  8
0
 10
-21.3011
 20
-15.6242
 11
-20.0127
 21
-16.075
  0
LINE
  8
0
 10
-20.0127
 20
-16.075
 11
122.017
 21
-16.075
  0
LINE
  8
0
 10
122.017
 20
-16.075
 11
123.624
 21
-15.3011
  0
LINE
  8
0
 10
89.875
 20
78.475
 11
89.875
 21
81.525
  0
LINE
  8
0
 10
89.875
 20
81.525
 11
102.125
 21
81.525
  0
LINE
  8
0
 10
102.125
 20
81.525
 11
102.125
 21
78.475
  0
LINE
  8
0
 10
102.125
 20
78.475
 11
89.875
 21
78.475
  0
LINE
  8
0
 10
17.875
 20
78.475
 11
17.875
 21
81.525
  0
LINE
  8
0
 10
17.875
 20
81.525
 11
30.125
 21
81.525
  0
LINE
  8
0
 10
30.125
 20
81.525
 11
30.125
 21
78.475
  0
LINE
  8
0
 10
30.125
 20
78.475
 11
17.875
 21
78.475
  0
LINE
  8
0
 10
89.875
 20
67.0464
 11
89.875
 21
70.0964
  0
LINE
  8
0
 10
89.875
 20
70.0964
 11
102.125
 21
70.0964
  0
LINE
  8
0
 10
102.125
 20
70.0964
 11
102.125
 21
67.0464
  0
LINE
  8
0
 10
102.125
 20
67.0464
 11
89.875
 21
67.0464
  0
LINE
  8
0
 10
17.875
 20
67.0464
 11
17.875
 21
70.0964
  0
LINE
  8
0
 10
17.875
 20
70.0964
 11
30.125
 21
70.0964
  0
LINE
  8
0
 10
30.125
 20
70.0964
 11
30.125
 21
67.0464
  0
LINE
  8
0
 10
30.125
 20
67.0464
 11
17.875
 21
67.0464
  0
LINE
  8
0
 10
89.875
 20
55.6178
 11
89.875
 21
58.6678
  0
LINE
  8
0
 10
89.875
 20
58.6678
 11
102.125
 21
58.6678
  0
LINE
  8
0
 10
102.125
 20
58.6678
 11
102.125
 21
55.6178
  0
LINE
  8
0
 10
102.125
 20
55.6178
 11
89.875
 21
55.6178
  0
LINE
  8
0
 10
17.875
 20
55.6178
 11
17.875
 21
58.6678
  0
LINE
  8
0
 10
17.875
 20
58.6678
 11
30.125
 21
58.6678
  0
LINE
  8
0
 10
30.125
 20
58.6678
 11
30.125
 21
55.6178
  0
LINE
  8
0
 10
30.125
 20
55.6178
 11
17.875
 21
55.6178
  0
LINE
  8
0
 10
89.875
 20
44.1893
 11
89.875
 21
47.2393
  0
LINE
  8
0
 10
89.875
 20
47.2393
 11
102.125
 21
47.2393
  0
LINE
  8
0
 10
102.125
 20
47.2393
 11
102.125
 21
44.1893
  0
LINE
  8
0
 10
102.125
 20
44.1893
 11
89.875
 21
44.1893
  0
LINE
  8
0
 10
17.875
 20
44.1893
 11
17.875
 21
47.2393
  0
LINE
  8
0
 10
17.875
 20
47.2393
 11
30.125
 21
47.2393
  0
LINE
  8
0
 10
30.125
 20
47.2393
 11
30.125
 21
44.1893
  0
LINE
  8
0
 10
30.125
 20
44.1893
 11
17.875
 21
44.1893
  0
LINE
  8
0
 10
89.875
 20
32.7607
 11
89.875
 21
35.8107
  0
LINE
  8
0
 10
89.875
 20
35.8107
 11
102.125
 21
35.8107
  0
LINE
  8
0
 10
102.125
 20
35.8107
 11
102.125
 21
32.7607
  0
LINE
  8
0
 10
102.125
 20
32.7607
 11
89.875
 21
32.7607
  0
LINE
  8
0
 10
17.875
 20
32.7607
 11
17.875
 21
35.8107
  0
LINE
  8
0
 10
17.875
 20
35.8107
 11
30.125
 21
35.8107
  0
LINE
  8
0
 10
30.125
 20
35.8107
 11
30.125
 21
32.7607
  0
LINE
  8
0
 10
30.125
 20
32.7607
 11
17.875
 21
32.7607
  0
LINE
  8
0
 10
89.875
 20
21.3321
 11
89.875
 21
24.3821
  0
LINE
  8
0
 10
89.875
 20
24.3821
 11
102.125
 21
24.3821
  0
LINE
  8
0
 10
102.125
 20
24.3821
 11
102.125
 21
21.3321
  0
LINE
  8
0
 10
102.125
 20
21.3321
 11
89.875
 21
21.3321
  0
LINE
  8
0
 10
17.875
 20
21.3321
 11
17.875
 21
24.3821
  0
LINE
  8
0
 10
17.875
 20
24.3821
 11
30.125
 21
24.3821
  0
LINE
  8
0
 10
30.125
 20
24.3821
 11
30.125
 21
21.3321
  0
LINE
  8
0
 10
30.125
 20
21.3321
 11
17.875
 21
21.3321
  0
LINE
  8
0
 10
89.875
 20
9.90356
 11
89.875
 21
12.9536
  0
LINE
  8
0
 10
89.875
 20
12.9536
 11
102.125
 21
12.9536
  0
LINE
  8
0
 10
102.125
 20
12.9536
 11
102.125
 21
9.90356
  0
LINE
  8
0
 10
102.125
 20
9.90356
 11
89.875
 21
9.90356
  0
LINE
  8
0
 10
17.875
 20
9.90356
 11
17.875
 21
12.9536
  0
LINE
  8
0
 10
17.875
 20
12.9536
 11
30.125
 21
12.9536
  0
LINE
  8
0
 10
30.125
 20
12.9536
 11
30.125
 21
9.90356
  0
LINE
  8
0
 10
30.125
 20
9.90356
 11
17.875
 21
9.90356
  0
LINE
  8
0
 10
89.875
 20
-1.52499
 11
89.875
 21
1.52499
  0
LINE
  8
0
 10
89.875
 20
1.52499
 11
102.125
 21
1.52499
  0
LINE
  8
0
 10
102.125
 20
1.52499
 11
102.125
 21
-1.52499
  0
LINE
  8
0
 10
102.125
 20
-1.52499
 11
89.875
 21
-1.52499
  0
LINE
  8
0
 10
17.875
 20
-1.52499
 11
17.875
 21
1.52499
  0
LINE
  8
0
 10
17.875
 20
1.52499
 11
30.125
 21
1.52499
  0
LINE
  8
0
 10
30.125
 20
1.52499
 11
30.125
 21
-1.52499
  0
LINE
  8
0
 10
30.125
 20
-1.52499
 11
17.875
 21
-1.52499
  0
ENDSEC
  0
SECTION
  2
OBJECTS
  0
DICTIONARY
  0
ENDSEC
  0
EOF
