  0
SECTION
  2
BLOCKS
  0
ENDSEC
  0
SECTION
  2
ENTITIES
  0
LINE
  8
0
 10
63.475
 20
-32.625
 11
62.275
 21
-32.625
  0
LINE
  8
0
 10
62.275
 20
-32.625
 11
62.275
 21
-30.275
  0
LINE
  8
0
 10
62.275
 20
-30.275
 11
63.475
 21
-30.275
  0
LINE
  8
0
 10
63.475
 20
-30.275
 11
63.475
 21
-27.775
  0
LINE
  8
0
 10
63.475
 20
-27.775
 11
66.525
 21
-27.775
  0
LINE
  8
0
 10
66.525
 20
-27.775
 11
66.525
 21
-30.275
  0
LINE
  8
0
 10
66.525
 20
-30.275
 11
67.725
 21
-30.275
  0
LINE
  8
0
 10
67.725
 20
-30.275
 11
67.725
 21
-32.625
  0
LINE
  8
0
 10
67.725
 20
-32.625
 11
66.525
 21
-32.625
  0
LINE
  8
0
 10
66.525
 20
-32.625
 11
66.525
 21
-37.775
  0
LINE
  8
0
 10
66.525
 20
-37.775
 11
115.575
 21
-37.775
  0
LINE
  8
0
 10
115.575
 20
-37.775
 11
115.575
 21
-30.085
  0
LINE
  8
0
 10
115.575
 20
-30.085
 11
118.585
 21
-30.085
  0
LINE
  8
0
 10
118.585
 20
-30.085
 11
118.585
 21
-19.935
  0
LINE
  8
0
 10
118.585
 20
-19.935
 11
115.575
 21
-19.935
  0
LINE
  8
0
 10
115.575
 20
-19.935
 11
115.575
 21
-11.05
  0
LINE
  8
0
 10
115.575
 20
-11.05
 11
118.585
 21
-11.05
  0
LINE
  8
0
 10
118.585
 20
-11.05
 11
118.585
 21
-0.899994
  0
LINE
  8
0
 10
118.585
 20
-0.899994
 11
115.575
 21
-0.899994
  0
LINE
  8
0
 10
115.575
 20
-0.899994
 11
115.575
 21
4.67499
  0
LINE
  8
0
 10
115.575
 20
4.67499
 11
97.575
 21
4.67499
  0
LINE
  8
0
 10
97.575
 20
4.67499
 11
97.575
 21
7.67499
  0
LINE
  8
0
 10
97.575
 20
7.67499
 11
82.425
 21
7.67499
  0
LINE
  8
0
 10
82.425
 20
7.67499
 11
82.425
 21
4.67499
  0
LINE
  8
0
 10
82.425
 20
4.67499
 11
47.575
 21
4.67499
  0
LINE
  8
0
 10
47.575
 20
4.67499
 11
47.575
 21
7.67499
  0
LINE
  8
0
 10
47.575
 20
7.67499
 11
32.425
 21
7.67499
  0
LINE
  8
0
 10
32.425
 20
7.67499
 11
32.425
 21
4.67499
  0
LINE
  8
0
 10
32.425
 20
4.67499
 11
14.425
 21
4.67499
  0
LINE
  8
0
 10
14.425
 20
4.67499
 11
14.425
 21
-0.899994
  0
LINE
  8
0
 10
14.425
 20
-0.899994
 11
11.415
 21
-0.899994
  0
LINE
  8
0
 10
11.415
 20
-0.899994
 11
11.415
 21
-11.05
  0
LINE
  8
0
 10
11.415
 20
-11.05
 11
14.425
 21
-11.05
  0
LINE
  8
0
 10
14.425
 20
-11.05
 11
14.425
 21
-19.935
  0
LINE
  8
0
 10
14.425
 20
-19.935
 11
11.415
 21
-19.935
  0
LINE
  8
0
 10
11.415
 20
-19.935
 11
11.415
 21
-30.085
  0
LINE
  8
0
 10
11.415
 20
-30.085
 11
14.425
 21
-30.085
  0
LINE
  8
0
 10
14.425
 20
-30.085
 11
14.425
 21
-37.775
  0
LINE
  8
0
 10
14.425
 20
-37.775
 11
63.475
 21
-37.775
  0
LINE
  8
0
 10
63.475
 20
-37.775
 11
63.475
 21
-32.625
  0
ENDSEC
  0
SECTION
  2
OBJECTS
  0
DICTIONARY
  0
ENDSEC
  0
EOF
