  0
SECTION
  2
BLOCKS
  0
ENDSEC
  0
SECTION
  2
ENTITIES
  0
LINE
  8
0
 10
86.3029
 20
-10.2479
 11
86.4052
 21
-10.2385
  0
LINE
  8
0
 10
86.4052
 20
-10.2385
 11
86.5038
 21
-10.2226
  0
LINE
  8
0
 10
86.5038
 20
-10.2226
 11
86.5989
 21
-10.2004
  0
LINE
  8
0
 10
86.5989
 20
-10.2004
 11
86.6903
 21
-10.1717
  0
LINE
  8
0
 10
86.6903
 20
-10.1717
 11
86.778
 21
-10.1365
  0
LINE
  8
0
 10
86.778
 20
-10.1365
 11
86.8619
 21
-10.095
  0
LINE
  8
0
 10
86.8619
 20
-10.095
 11
86.9413
 21
-10.0472
  0
LINE
  8
0
 10
86.9413
 20
-10.0472
 11
87.0155
 21
-9.99374
  0
LINE
  8
0
 10
87.0155
 20
-9.99374
 11
87.0843
 21
-9.93446
  0
LINE
  8
0
 10
87.0843
 20
-9.93446
 11
87.1476
 21
-9.86946
  0
LINE
  8
0
 10
87.1476
 20
-9.86946
 11
87.2054
 21
-9.79886
  0
LINE
  8
0
 10
87.2054
 20
-9.79886
 11
87.2577
 21
-9.72269
  0
LINE
  8
0
 10
87.2577
 20
-9.72269
 11
87.3044
 21
-9.64105
  0
LINE
  8
0
 10
87.3044
 20
-9.64105
 11
87.3452
 21
-9.55484
  0
LINE
  8
0
 10
87.3452
 20
-9.55484
 11
87.3796
 21
-9.46497
  0
LINE
  8
0
 10
87.3796
 20
-9.46497
 11
87.4078
 21
-9.37141
  0
LINE
  8
0
 10
87.4078
 20
-9.37141
 11
87.4296
 21
-9.27431
  0
LINE
  8
0
 10
87.4296
 20
-9.27431
 11
87.4451
 21
-9.17365
  0
LINE
  8
0
 10
87.4451
 20
-9.17365
 11
87.4545
 21
-9.06947
  0
LINE
  8
0
 10
87.4545
 20
-9.06947
 11
87.4576
 21
-8.9615
  0
LINE
  8
0
 10
87.4576
 20
-8.9615
 11
87.4509
 21
-8.80017
  0
LINE
  8
0
 10
87.4509
 20
-8.80017
 11
87.4307
 21
-8.64799
  0
LINE
  8
0
 10
87.4307
 20
-8.64799
 11
87.3969
 21
-8.50533
  0
LINE
  8
0
 10
87.3969
 20
-8.50533
 11
87.3493
 21
-8.37228
  0
LINE
  8
0
 10
87.3493
 20
-8.37228
 11
87.2878
 21
-8.24908
  0
LINE
  8
0
 10
87.2878
 20
-8.24908
 11
87.2126
 21
-8.136
  0
LINE
  8
0
 10
87.2126
 20
-8.136
 11
87.1237
 21
-8.03326
  0
LINE
  8
0
 10
87.1237
 20
-8.03326
 11
87.0226
 21
-7.94264
  0
LINE
  8
0
 10
87.0226
 20
-7.94264
 11
86.9107
 21
-7.86592
  0
LINE
  8
0
 10
86.9107
 20
-7.86592
 11
86.7885
 21
-7.8033
  0
LINE
  8
0
 10
86.7885
 20
-7.8033
 11
86.6562
 21
-7.75475
  0
LINE
  8
0
 10
86.6562
 20
-7.75475
 11
86.514
 21
-7.72028
  0
LINE
  8
0
 10
86.514
 20
-7.72028
 11
86.3621
 21
-7.69969
  0
LINE
  8
0
 10
86.3621
 20
-7.69969
 11
86.2005
 21
-7.69284
  0
LINE
  8
0
 10
86.2005
 20
-7.69284
 11
86.0389
 21
-7.6996
  0
LINE
  8
0
 10
86.0389
 20
-7.6996
 11
85.8871
 21
-7.71999
  0
LINE
  8
0
 10
85.8871
 20
-7.71999
 11
85.745
 21
-7.7541
  0
LINE
  8
0
 10
85.745
 20
-7.7541
 11
85.6129
 21
-7.80212
  0
LINE
  8
0
 10
85.6129
 20
-7.80212
 11
85.4908
 21
-7.86411
  0
LINE
  8
0
 10
85.4908
 20
-7.86411
 11
85.3792
 21
-7.94003
  0
LINE
  8
0
 10
85.3792
 20
-7.94003
 11
85.2782
 21
-8.02979
  0
LINE
  8
0
 10
85.2782
 20
-8.02979
 11
85.1894
 21
-8.13181
  0
LINE
  8
0
 10
85.1894
 20
-8.13181
 11
85.1144
 21
-8.24461
  0
LINE
  8
0
 10
85.1144
 20
-8.24461
 11
85.0531
 21
-8.36794
  0
LINE
  8
0
 10
85.0531
 20
-8.36794
 11
85.0056
 21
-8.50148
  0
LINE
  8
0
 10
85.0056
 20
-8.50148
 11
84.9719
 21
-8.64505
  0
LINE
  8
0
 10
84.9719
 20
-8.64505
 11
84.9518
 21
-8.79849
  0
LINE
  8
0
 10
84.9518
 20
-8.79849
 11
84.9451
 21
-8.96182
  0
LINE
  8
0
 10
84.9451
 20
-8.96182
 11
84.9518
 21
-9.12576
  0
LINE
  8
0
 10
84.9518
 20
-9.12576
 11
84.9719
 21
-9.28014
  0
LINE
  8
0
 10
84.9719
 20
-9.28014
 11
85.0057
 21
-9.42491
  0
LINE
  8
0
 10
85.0057
 20
-9.42491
 11
85.0533
 21
-9.55995
  0
LINE
  8
0
 10
85.0533
 20
-9.55995
 11
85.1146
 21
-9.68504
  0
LINE
  8
0
 10
85.1146
 20
-9.68504
 11
85.1898
 21
-9.79996
  0
LINE
  8
0
 10
85.1898
 20
-9.79996
 11
85.2786
 21
-9.90445
  0
LINE
  8
0
 10
85.2786
 20
-9.90445
 11
85.3796
 21
-9.99667
  0
LINE
  8
0
 10
85.3796
 20
-9.99667
 11
85.4911
 21
-10.0748
  0
LINE
  8
0
 10
85.4911
 20
-10.0748
 11
85.6128
 21
-10.1386
  0
LINE
  8
0
 10
85.6128
 20
-10.1386
 11
85.7445
 21
-10.188
  0
LINE
  8
0
 10
85.7445
 20
-10.188
 11
85.8858
 21
-10.2232
  0
LINE
  8
0
 10
85.8858
 20
-10.2232
 11
86.0367
 21
-10.2442
  0
LINE
  8
0
 10
86.0367
 20
-10.2442
 11
86.1967
 21
-10.2511
  0
LINE
  8
0
 10
86.1967
 20
-10.2511
 11
86.3029
 21
-10.2479
  0
LINE
  8
0
 10
86.1127
 20
-9.75337
 11
86.0344
 21
-9.74048
  0
LINE
  8
0
 10
86.0344
 20
-9.74048
 11
85.9619
 21
-9.71916
  0
LINE
  8
0
 10
85.9619
 20
-9.71916
 11
85.895
 21
-9.68954
  0
LINE
  8
0
 10
85.895
 20
-9.68954
 11
85.8332
 21
-9.6515
  0
LINE
  8
0
 10
85.8332
 20
-9.6515
 11
85.7765
 21
-9.60489
  0
LINE
  8
0
 10
85.7765
 20
-9.60489
 11
85.7245
 21
-9.54948
  0
LINE
  8
0
 10
85.7245
 20
-9.54948
 11
85.6784
 21
-9.48633
  0
LINE
  8
0
 10
85.6784
 20
-9.48633
 11
85.6392
 21
-9.41653
  0
LINE
  8
0
 10
85.6392
 20
-9.41653
 11
85.6069
 21
-9.33987
  0
LINE
  8
0
 10
85.6069
 20
-9.33987
 11
85.5816
 21
-9.25606
  0
LINE
  8
0
 10
85.5816
 20
-9.25606
 11
85.5634
 21
-9.16513
  0
LINE
  8
0
 10
85.5634
 20
-9.16513
 11
85.5524
 21
-9.0672
  0
LINE
  8
0
 10
85.5524
 20
-9.0672
 11
85.5487
 21
-8.96182
  0
LINE
  8
0
 10
85.5487
 20
-8.96182
 11
85.5523
 21
-8.85757
  0
LINE
  8
0
 10
85.5523
 20
-8.85757
 11
85.563
 21
-8.76071
  0
LINE
  8
0
 10
85.563
 20
-8.76071
 11
85.5808
 21
-8.67134
  0
LINE
  8
0
 10
85.5808
 20
-8.67134
 11
85.6055
 21
-8.58937
  0
LINE
  8
0
 10
85.6055
 20
-8.58937
 11
85.637
 21
-8.51462
  0
LINE
  8
0
 10
85.637
 20
-8.51462
 11
85.6752
 21
-8.44708
  0
LINE
  8
0
 10
85.6752
 20
-8.44708
 11
85.72
 21
-8.38632
  0
LINE
  8
0
 10
85.72
 20
-8.38632
 11
85.7709
 21
-8.33331
  0
LINE
  8
0
 10
85.7709
 20
-8.33331
 11
85.8271
 21
-8.28873
  0
LINE
  8
0
 10
85.8271
 20
-8.28873
 11
85.8892
 21
-8.25211
  0
LINE
  8
0
 10
85.8892
 20
-8.25211
 11
85.9572
 21
-8.22359
  0
LINE
  8
0
 10
85.9572
 20
-8.22359
 11
86.0316
 21
-8.20299
  0
LINE
  8
0
 10
86.0316
 20
-8.20299
 11
86.1128
 21
-8.19049
  0
LINE
  8
0
 10
86.1128
 20
-8.19049
 11
86.2004
 21
-8.18628
  0
LINE
  8
0
 10
86.2004
 20
-8.18628
 11
86.2868
 21
-8.19052
  0
LINE
  8
0
 10
86.2868
 20
-8.19052
 11
86.3666
 21
-8.20306
  0
LINE
  8
0
 10
86.3666
 20
-8.20306
 11
86.4401
 21
-8.2238
  0
LINE
  8
0
 10
86.4401
 20
-8.2238
 11
86.5073
 21
-8.25253
  0
LINE
  8
0
 10
86.5073
 20
-8.25253
 11
86.5689
 21
-8.28938
  0
LINE
  8
0
 10
86.5689
 20
-8.28938
 11
86.625
 21
-8.33443
  0
LINE
  8
0
 10
86.625
 20
-8.33443
 11
86.6757
 21
-8.38786
  0
LINE
  8
0
 10
86.6757
 20
-8.38786
 11
86.7206
 21
-8.44907
  0
LINE
  8
0
 10
86.7206
 20
-8.44907
 11
86.7589
 21
-8.517
  0
LINE
  8
0
 10
86.7589
 20
-8.517
 11
86.7903
 21
-8.59151
  0
LINE
  8
0
 10
86.7903
 20
-8.59151
 11
86.8151
 21
-8.67345
  0
LINE
  8
0
 10
86.8151
 20
-8.67345
 11
86.8329
 21
-8.76234
  0
LINE
  8
0
 10
86.8329
 20
-8.76234
 11
86.8436
 21
-8.85832
  0
LINE
  8
0
 10
86.8436
 20
-8.85832
 11
86.8472
 21
-8.9619
  0
LINE
  8
0
 10
86.8472
 20
-8.9619
 11
86.8436
 21
-9.07036
  0
LINE
  8
0
 10
86.8436
 20
-9.07036
 11
86.8329
 21
-9.17082
  0
LINE
  8
0
 10
86.8329
 20
-9.17082
 11
86.8151
 21
-9.26346
  0
LINE
  8
0
 10
86.8151
 20
-9.26346
 11
86.7905
 21
-9.34798
  0
LINE
  8
0
 10
86.7905
 20
-9.34798
 11
86.7591
 21
-9.4248
  0
LINE
  8
0
 10
86.7591
 20
-9.4248
 11
86.7211
 21
-9.49373
  0
LINE
  8
0
 10
86.7211
 20
-9.49373
 11
86.6764
 21
-9.55542
  0
LINE
  8
0
 10
86.6764
 20
-9.55542
 11
86.6258
 21
-9.60905
  0
LINE
  8
0
 10
86.6258
 20
-9.60905
 11
86.5697
 21
-9.65421
  0
LINE
  8
0
 10
86.5697
 20
-9.65421
 11
86.5079
 21
-9.69116
  0
LINE
  8
0
 10
86.5079
 20
-9.69116
 11
86.44
 21
-9.72003
  0
LINE
  8
0
 10
86.44
 20
-9.72003
 11
86.3658
 21
-9.74083
  0
LINE
  8
0
 10
86.3658
 20
-9.74083
 11
86.2847
 21
-9.75348
  0
LINE
  8
0
 10
86.2847
 20
-9.75348
 11
86.1971
 21
-9.75772
  0
LINE
  8
0
 10
86.1971
 20
-9.75772
 11
86.1127
 21
-9.75337
  0
LINE
  8
0
 10
58.4029
 20
-10.2479
 11
58.5052
 21
-10.2385
  0
LINE
  8
0
 10
58.5052
 20
-10.2385
 11
58.6038
 21
-10.2226
  0
LINE
  8
0
 10
58.6038
 20
-10.2226
 11
58.6989
 21
-10.2004
  0
LINE
  8
0
 10
58.6989
 20
-10.2004
 11
58.7903
 21
-10.1717
  0
LINE
  8
0
 10
58.7903
 20
-10.1717
 11
58.878
 21
-10.1365
  0
LINE
  8
0
 10
58.878
 20
-10.1365
 11
58.9619
 21
-10.095
  0
LINE
  8
0
 10
58.9619
 20
-10.095
 11
59.0414
 21
-10.0472
  0
LINE
  8
0
 10
59.0414
 20
-10.0472
 11
59.1155
 21
-9.99374
  0
LINE
  8
0
 10
59.1155
 20
-9.99374
 11
59.1843
 21
-9.93446
  0
LINE
  8
0
 10
59.1843
 20
-9.93446
 11
59.2476
 21
-9.86946
  0
LINE
  8
0
 10
59.2476
 20
-9.86946
 11
59.3054
 21
-9.79886
  0
LINE
  8
0
 10
59.3054
 20
-9.79886
 11
59.3577
 21
-9.72269
  0
LINE
  8
0
 10
59.3577
 20
-9.72269
 11
59.4044
 21
-9.64105
  0
LINE
  8
0
 10
59.4044
 20
-9.64105
 11
59.4452
 21
-9.55484
  0
LINE
  8
0
 10
59.4452
 20
-9.55484
 11
59.4796
 21
-9.46497
  0
LINE
  8
0
 10
59.4796
 20
-9.46497
 11
59.5078
 21
-9.37141
  0
LINE
  8
0
 10
59.5078
 20
-9.37141
 11
59.5296
 21
-9.27431
  0
LINE
  8
0
 10
59.5296
 20
-9.27431
 11
59.5452
 21
-9.17365
  0
LINE
  8
0
 10
59.5452
 20
-9.17365
 11
59.5545
 21
-9.06947
  0
LINE
  8
0
 10
59.5545
 20
-9.06947
 11
59.5576
 21
-8.9615
  0
LINE
  8
0
 10
59.5576
 20
-8.9615
 11
59.5509
 21
-8.80017
  0
LINE
  8
0
 10
59.5509
 20
-8.80017
 11
59.5307
 21
-8.64799
  0
LINE
  8
0
 10
59.5307
 20
-8.64799
 11
59.4969
 21
-8.50533
  0
LINE
  8
0
 10
59.4969
 20
-8.50533
 11
59.4493
 21
-8.37228
  0
LINE
  8
0
 10
59.4493
 20
-8.37228
 11
59.3878
 21
-8.24908
  0
LINE
  8
0
 10
59.3878
 20
-8.24908
 11
59.3126
 21
-8.136
  0
LINE
  8
0
 10
59.3126
 20
-8.136
 11
59.2237
 21
-8.03326
  0
LINE
  8
0
 10
59.2237
 20
-8.03326
 11
59.1226
 21
-7.94264
  0
LINE
  8
0
 10
59.1226
 20
-7.94264
 11
59.0107
 21
-7.86592
  0
LINE
  8
0
 10
59.0107
 20
-7.86592
 11
58.8885
 21
-7.8033
  0
LINE
  8
0
 10
58.8885
 20
-7.8033
 11
58.7562
 21
-7.75475
  0
LINE
  8
0
 10
58.7562
 20
-7.75475
 11
58.614
 21
-7.72028
  0
LINE
  8
0
 10
58.614
 20
-7.72028
 11
58.4621
 21
-7.69969
  0
LINE
  8
0
 10
58.4621
 20
-7.69969
 11
58.3005
 21
-7.69284
  0
LINE
  8
0
 10
58.3005
 20
-7.69284
 11
58.1389
 21
-7.6996
  0
LINE
  8
0
 10
58.1389
 20
-7.6996
 11
57.9871
 21
-7.71999
  0
LINE
  8
0
 10
57.9871
 20
-7.71999
 11
57.845
 21
-7.7541
  0
LINE
  8
0
 10
57.845
 20
-7.7541
 11
57.7129
 21
-7.80212
  0
LINE
  8
0
 10
57.7129
 20
-7.80212
 11
57.5908
 21
-7.86411
  0
LINE
  8
0
 10
57.5908
 20
-7.86411
 11
57.4792
 21
-7.94003
  0
LINE
  8
0
 10
57.4792
 20
-7.94003
 11
57.3782
 21
-8.02979
  0
LINE
  8
0
 10
57.3782
 20
-8.02979
 11
57.2894
 21
-8.13181
  0
LINE
  8
0
 10
57.2894
 20
-8.13181
 11
57.2144
 21
-8.24461
  0
LINE
  8
0
 10
57.2144
 20
-8.24461
 11
57.1531
 21
-8.36794
  0
LINE
  8
0
 10
57.1531
 20
-8.36794
 11
57.1056
 21
-8.50148
  0
LINE
  8
0
 10
57.1056
 20
-8.50148
 11
57.0719
 21
-8.64505
  0
LINE
  8
0
 10
57.0719
 20
-8.64505
 11
57.0518
 21
-8.79849
  0
LINE
  8
0
 10
57.0518
 20
-8.79849
 11
57.0451
 21
-8.96182
  0
LINE
  8
0
 10
57.0451
 20
-8.96182
 11
57.0518
 21
-9.12576
  0
LINE
  8
0
 10
57.0518
 20
-9.12576
 11
57.0719
 21
-9.28014
  0
LINE
  8
0
 10
57.0719
 20
-9.28014
 11
57.1057
 21
-9.42491
  0
LINE
  8
0
 10
57.1057
 20
-9.42491
 11
57.1533
 21
-9.55995
  0
LINE
  8
0
 10
57.1533
 20
-9.55995
 11
57.2146
 21
-9.68504
  0
LINE
  8
0
 10
57.2146
 20
-9.68504
 11
57.2898
 21
-9.79996
  0
LINE
  8
0
 10
57.2898
 20
-9.79996
 11
57.3786
 21
-9.90445
  0
LINE
  8
0
 10
57.3786
 20
-9.90445
 11
57.4796
 21
-9.99667
  0
LINE
  8
0
 10
57.4796
 20
-9.99667
 11
57.5911
 21
-10.0748
  0
LINE
  8
0
 10
57.5911
 20
-10.0748
 11
57.7128
 21
-10.1386
  0
LINE
  8
0
 10
57.7128
 20
-10.1386
 11
57.8445
 21
-10.188
  0
LINE
  8
0
 10
57.8445
 20
-10.188
 11
57.9858
 21
-10.2232
  0
LINE
  8
0
 10
57.9858
 20
-10.2232
 11
58.1367
 21
-10.2442
  0
LINE
  8
0
 10
58.1367
 20
-10.2442
 11
58.2968
 21
-10.2511
  0
LINE
  8
0
 10
58.2968
 20
-10.2511
 11
58.4029
 21
-10.2479
  0
LINE
  8
0
 10
58.2128
 20
-9.75337
 11
58.1344
 21
-9.74048
  0
LINE
  8
0
 10
58.1344
 20
-9.74048
 11
58.0619
 21
-9.71916
  0
LINE
  8
0
 10
58.0619
 20
-9.71916
 11
57.995
 21
-9.68954
  0
LINE
  8
0
 10
57.995
 20
-9.68954
 11
57.9332
 21
-9.6515
  0
LINE
  8
0
 10
57.9332
 20
-9.6515
 11
57.8765
 21
-9.60489
  0
LINE
  8
0
 10
57.8765
 20
-9.60489
 11
57.8245
 21
-9.54948
  0
LINE
  8
0
 10
57.8245
 20
-9.54948
 11
57.7784
 21
-9.48633
  0
LINE
  8
0
 10
57.7784
 20
-9.48633
 11
57.7392
 21
-9.41653
  0
LINE
  8
0
 10
57.7392
 20
-9.41653
 11
57.7069
 21
-9.33987
  0
LINE
  8
0
 10
57.7069
 20
-9.33987
 11
57.6816
 21
-9.25606
  0
LINE
  8
0
 10
57.6816
 20
-9.25606
 11
57.6634
 21
-9.16513
  0
LINE
  8
0
 10
57.6634
 20
-9.16513
 11
57.6524
 21
-9.06726
  0
LINE
  8
0
 10
57.6524
 20
-9.06726
 11
57.6487
 21
-8.96182
  0
LINE
  8
0
 10
57.6487
 20
-8.96182
 11
57.6523
 21
-8.85757
  0
LINE
  8
0
 10
57.6523
 20
-8.85757
 11
57.663
 21
-8.76071
  0
LINE
  8
0
 10
57.663
 20
-8.76071
 11
57.6808
 21
-8.67134
  0
LINE
  8
0
 10
57.6808
 20
-8.67134
 11
57.7055
 21
-8.58937
  0
LINE
  8
0
 10
57.7055
 20
-8.58937
 11
57.737
 21
-8.51462
  0
LINE
  8
0
 10
57.737
 20
-8.51462
 11
57.7752
 21
-8.44708
  0
LINE
  8
0
 10
57.7752
 20
-8.44708
 11
57.8201
 21
-8.38632
  0
LINE
  8
0
 10
57.8201
 20
-8.38632
 11
57.8709
 21
-8.33331
  0
LINE
  8
0
 10
57.8709
 20
-8.33331
 11
57.9271
 21
-8.28873
  0
LINE
  8
0
 10
57.9271
 20
-8.28873
 11
57.9892
 21
-8.25211
  0
LINE
  8
0
 10
57.9892
 20
-8.25211
 11
58.0572
 21
-8.22359
  0
LINE
  8
0
 10
58.0572
 20
-8.22359
 11
58.1316
 21
-8.20299
  0
LINE
  8
0
 10
58.1316
 20
-8.20299
 11
58.2128
 21
-8.19049
  0
LINE
  8
0
 10
58.2128
 20
-8.19049
 11
58.3004
 21
-8.18628
  0
LINE
  8
0
 10
58.3004
 20
-8.18628
 11
58.3868
 21
-8.19052
  0
LINE
  8
0
 10
58.3868
 20
-8.19052
 11
58.4666
 21
-8.20306
  0
LINE
  8
0
 10
58.4666
 20
-8.20306
 11
58.5401
 21
-8.2238
  0
LINE
  8
0
 10
58.5401
 20
-8.2238
 11
58.6073
 21
-8.25253
  0
LINE
  8
0
 10
58.6073
 20
-8.25253
 11
58.6689
 21
-8.28938
  0
LINE
  8
0
 10
58.6689
 20
-8.28938
 11
58.725
 21
-8.33443
  0
LINE
  8
0
 10
58.725
 20
-8.33443
 11
58.7757
 21
-8.38786
  0
LINE
  8
0
 10
58.7757
 20
-8.38786
 11
58.8206
 21
-8.44907
  0
LINE
  8
0
 10
58.8206
 20
-8.44907
 11
58.8589
 21
-8.517
  0
LINE
  8
0
 10
58.8589
 20
-8.517
 11
58.8904
 21
-8.59151
  0
LINE
  8
0
 10
58.8904
 20
-8.59151
 11
58.9151
 21
-8.67345
  0
LINE
  8
0
 10
58.9151
 20
-8.67345
 11
58.9329
 21
-8.76234
  0
LINE
  8
0
 10
58.9329
 20
-8.76234
 11
58.9436
 21
-8.85832
  0
LINE
  8
0
 10
58.9436
 20
-8.85832
 11
58.9472
 21
-8.9619
  0
LINE
  8
0
 10
58.9472
 20
-8.9619
 11
58.9436
 21
-9.07036
  0
LINE
  8
0
 10
58.9436
 20
-9.07036
 11
58.9329
 21
-9.17082
  0
LINE
  8
0
 10
58.9329
 20
-9.17082
 11
58.9151
 21
-9.26346
  0
LINE
  8
0
 10
58.9151
 20
-9.26346
 11
58.8905
 21
-9.34798
  0
LINE
  8
0
 10
58.8905
 20
-9.34798
 11
58.8591
 21
-9.4248
  0
LINE
  8
0
 10
58.8591
 20
-9.4248
 11
58.8211
 21
-9.49373
  0
LINE
  8
0
 10
58.8211
 20
-9.49373
 11
58.7764
 21
-9.55542
  0
LINE
  8
0
 10
58.7764
 20
-9.55542
 11
58.7258
 21
-9.60905
  0
LINE
  8
0
 10
58.7258
 20
-9.60905
 11
58.6697
 21
-9.65421
  0
LINE
  8
0
 10
58.6697
 20
-9.65421
 11
58.6079
 21
-9.69116
  0
LINE
  8
0
 10
58.6079
 20
-9.69116
 11
58.54
 21
-9.72003
  0
LINE
  8
0
 10
58.54
 20
-9.72003
 11
58.4658
 21
-9.74083
  0
LINE
  8
0
 10
58.4658
 20
-9.74083
 11
58.3848
 21
-9.75348
  0
LINE
  8
0
 10
58.3848
 20
-9.75348
 11
58.2971
 21
-9.75772
  0
LINE
  8
0
 10
58.2971
 20
-9.75772
 11
58.2128
 21
-9.75337
  0
LINE
  8
0
 10
113.187
 20
-10.2479
 11
113.289
 21
-10.2385
  0
LINE
  8
0
 10
113.289
 20
-10.2385
 11
113.388
 21
-10.2226
  0
LINE
  8
0
 10
113.388
 20
-10.2226
 11
113.483
 21
-10.2004
  0
LINE
  8
0
 10
113.483
 20
-10.2004
 11
113.574
 21
-10.1717
  0
LINE
  8
0
 10
113.574
 20
-10.1717
 11
113.662
 21
-10.1365
  0
LINE
  8
0
 10
113.662
 20
-10.1365
 11
113.746
 21
-10.095
  0
LINE
  8
0
 10
113.746
 20
-10.095
 11
113.825
 21
-10.0472
  0
LINE
  8
0
 10
113.825
 20
-10.0472
 11
113.899
 21
-9.99373
  0
LINE
  8
0
 10
113.899
 20
-9.99373
 11
113.968
 21
-9.93446
  0
LINE
  8
0
 10
113.968
 20
-9.93446
 11
114.031
 21
-9.86946
  0
LINE
  8
0
 10
114.031
 20
-9.86946
 11
114.089
 21
-9.79886
  0
LINE
  8
0
 10
114.089
 20
-9.79886
 11
114.141
 21
-9.72269
  0
LINE
  8
0
 10
114.141
 20
-9.72269
 11
114.188
 21
-9.64105
  0
LINE
  8
0
 10
114.188
 20
-9.64105
 11
114.229
 21
-9.55484
  0
LINE
  8
0
 10
114.229
 20
-9.55484
 11
114.263
 21
-9.46497
  0
LINE
  8
0
 10
114.263
 20
-9.46497
 11
114.292
 21
-9.37141
  0
LINE
  8
0
 10
114.292
 20
-9.37141
 11
114.313
 21
-9.27431
  0
LINE
  8
0
 10
114.313
 20
-9.27431
 11
114.329
 21
-9.17365
  0
LINE
  8
0
 10
114.329
 20
-9.17365
 11
114.338
 21
-9.06947
  0
LINE
  8
0
 10
114.338
 20
-9.06947
 11
114.341
 21
-8.9615
  0
LINE
  8
0
 10
114.341
 20
-8.9615
 11
114.335
 21
-8.80017
  0
LINE
  8
0
 10
114.335
 20
-8.80017
 11
114.314
 21
-8.64799
  0
LINE
  8
0
 10
114.314
 20
-8.64799
 11
114.281
 21
-8.50533
  0
LINE
  8
0
 10
114.281
 20
-8.50533
 11
114.233
 21
-8.37228
  0
LINE
  8
0
 10
114.233
 20
-8.37228
 11
114.172
 21
-8.24908
  0
LINE
  8
0
 10
114.172
 20
-8.24908
 11
114.096
 21
-8.136
  0
LINE
  8
0
 10
114.096
 20
-8.136
 11
114.007
 21
-8.03326
  0
LINE
  8
0
 10
114.007
 20
-8.03326
 11
113.906
 21
-7.94264
  0
LINE
  8
0
 10
113.906
 20
-7.94264
 11
113.794
 21
-7.86592
  0
LINE
  8
0
 10
113.794
 20
-7.86592
 11
113.672
 21
-7.8033
  0
LINE
  8
0
 10
113.672
 20
-7.8033
 11
113.54
 21
-7.75475
  0
LINE
  8
0
 10
113.54
 20
-7.75475
 11
113.398
 21
-7.72028
  0
LINE
  8
0
 10
113.398
 20
-7.72028
 11
113.246
 21
-7.69969
  0
LINE
  8
0
 10
113.246
 20
-7.69969
 11
113.084
 21
-7.69284
  0
LINE
  8
0
 10
113.084
 20
-7.69284
 11
112.923
 21
-7.6996
  0
LINE
  8
0
 10
112.923
 20
-7.6996
 11
112.771
 21
-7.71999
  0
LINE
  8
0
 10
112.771
 20
-7.71999
 11
112.629
 21
-7.7541
  0
LINE
  8
0
 10
112.629
 20
-7.7541
 11
112.497
 21
-7.80212
  0
LINE
  8
0
 10
112.497
 20
-7.80212
 11
112.375
 21
-7.86411
  0
LINE
  8
0
 10
112.375
 20
-7.86411
 11
112.263
 21
-7.94003
  0
LINE
  8
0
 10
112.263
 20
-7.94003
 11
112.162
 21
-8.02979
  0
LINE
  8
0
 10
112.162
 20
-8.02979
 11
112.073
 21
-8.13182
  0
LINE
  8
0
 10
112.073
 20
-8.13182
 11
111.998
 21
-8.24461
  0
LINE
  8
0
 10
111.998
 20
-8.24461
 11
111.937
 21
-8.36794
  0
LINE
  8
0
 10
111.937
 20
-8.36794
 11
111.889
 21
-8.50148
  0
LINE
  8
0
 10
111.889
 20
-8.50148
 11
111.856
 21
-8.64505
  0
LINE
  8
0
 10
111.856
 20
-8.64505
 11
111.835
 21
-8.79849
  0
LINE
  8
0
 10
111.835
 20
-8.79849
 11
111.829
 21
-8.96182
  0
LINE
  8
0
 10
111.829
 20
-8.96182
 11
111.836
 21
-9.12576
  0
LINE
  8
0
 10
111.836
 20
-9.12576
 11
111.856
 21
-9.28014
  0
LINE
  8
0
 10
111.856
 20
-9.28014
 11
111.889
 21
-9.42491
  0
LINE
  8
0
 10
111.889
 20
-9.42491
 11
111.937
 21
-9.55995
  0
LINE
  8
0
 10
111.937
 20
-9.55995
 11
111.998
 21
-9.68504
  0
LINE
  8
0
 10
111.998
 20
-9.68504
 11
112.074
 21
-9.79996
  0
LINE
  8
0
 10
112.074
 20
-9.79996
 11
112.162
 21
-9.90445
  0
LINE
  8
0
 10
112.162
 20
-9.90445
 11
112.263
 21
-9.99667
  0
LINE
  8
0
 10
112.263
 20
-9.99667
 11
112.375
 21
-10.0748
  0
LINE
  8
0
 10
112.375
 20
-10.0748
 11
112.497
 21
-10.1386
  0
LINE
  8
0
 10
112.497
 20
-10.1386
 11
112.628
 21
-10.188
  0
LINE
  8
0
 10
112.628
 20
-10.188
 11
112.77
 21
-10.2232
  0
LINE
  8
0
 10
112.77
 20
-10.2232
 11
112.92
 21
-10.2442
  0
LINE
  8
0
 10
112.92
 20
-10.2442
 11
113.08
 21
-10.2511
  0
LINE
  8
0
 10
113.08
 20
-10.2511
 11
113.187
 21
-10.2479
  0
LINE
  8
0
 10
112.996
 20
-9.75337
 11
112.918
 21
-9.74048
  0
LINE
  8
0
 10
112.918
 20
-9.74048
 11
112.846
 21
-9.71916
  0
LINE
  8
0
 10
112.846
 20
-9.71916
 11
112.779
 21
-9.68954
  0
LINE
  8
0
 10
112.779
 20
-9.68954
 11
112.717
 21
-9.6515
  0
LINE
  8
0
 10
112.717
 20
-9.6515
 11
112.66
 21
-9.60489
  0
LINE
  8
0
 10
112.66
 20
-9.60489
 11
112.608
 21
-9.54948
  0
LINE
  8
0
 10
112.608
 20
-9.54948
 11
112.562
 21
-9.48633
  0
LINE
  8
0
 10
112.562
 20
-9.48633
 11
112.523
 21
-9.41653
  0
LINE
  8
0
 10
112.523
 20
-9.41653
 11
112.491
 21
-9.33981
  0
LINE
  8
0
 10
112.491
 20
-9.33981
 11
112.465
 21
-9.25606
  0
LINE
  8
0
 10
112.465
 20
-9.25606
 11
112.447
 21
-9.16515
  0
LINE
  8
0
 10
112.447
 20
-9.16515
 11
112.436
 21
-9.0672
  0
LINE
  8
0
 10
112.436
 20
-9.0672
 11
112.432
 21
-8.96185
  0
LINE
  8
0
 10
112.432
 20
-8.96185
 11
112.436
 21
-8.85759
  0
LINE
  8
0
 10
112.436
 20
-8.85759
 11
112.447
 21
-8.76071
  0
LINE
  8
0
 10
112.447
 20
-8.76071
 11
112.465
 21
-8.67134
  0
LINE
  8
0
 10
112.465
 20
-8.67134
 11
112.489
 21
-8.58937
  0
LINE
  8
0
 10
112.489
 20
-8.58937
 11
112.521
 21
-8.51456
  0
LINE
  8
0
 10
112.521
 20
-8.51456
 11
112.559
 21
-8.44713
  0
LINE
  8
0
 10
112.559
 20
-8.44713
 11
112.604
 21
-8.38632
  0
LINE
  8
0
 10
112.604
 20
-8.38632
 11
112.655
 21
-8.33331
  0
LINE
  8
0
 10
112.655
 20
-8.33331
 11
112.711
 21
-8.28873
  0
LINE
  8
0
 10
112.711
 20
-8.28873
 11
112.773
 21
-8.25211
  0
LINE
  8
0
 10
112.773
 20
-8.25211
 11
112.841
 21
-8.22359
  0
LINE
  8
0
 10
112.841
 20
-8.22359
 11
112.915
 21
-8.20299
  0
LINE
  8
0
 10
112.915
 20
-8.20299
 11
112.997
 21
-8.19049
  0
LINE
  8
0
 10
112.997
 20
-8.19049
 11
113.084
 21
-8.18628
  0
LINE
  8
0
 10
113.084
 20
-8.18628
 11
113.171
 21
-8.19052
  0
LINE
  8
0
 10
113.171
 20
-8.19052
 11
113.25
 21
-8.20306
  0
LINE
  8
0
 10
113.25
 20
-8.20306
 11
113.324
 21
-8.2238
  0
LINE
  8
0
 10
113.324
 20
-8.2238
 11
113.391
 21
-8.25253
  0
LINE
  8
0
 10
113.391
 20
-8.25253
 11
113.453
 21
-8.28943
  0
LINE
  8
0
 10
113.453
 20
-8.28943
 11
113.509
 21
-8.33432
  0
LINE
  8
0
 10
113.509
 20
-8.33432
 11
113.559
 21
-8.38794
  0
LINE
  8
0
 10
113.559
 20
-8.38794
 11
113.604
 21
-8.44911
  0
LINE
  8
0
 10
113.604
 20
-8.44911
 11
113.643
 21
-8.51692
  0
LINE
  8
0
 10
113.643
 20
-8.51692
 11
113.674
 21
-8.59151
  0
LINE
  8
0
 10
113.674
 20
-8.59151
 11
113.699
 21
-8.67342
  0
LINE
  8
0
 10
113.699
 20
-8.67342
 11
113.717
 21
-8.76234
  0
LINE
  8
0
 10
113.717
 20
-8.76234
 11
113.727
 21
-8.85832
  0
LINE
  8
0
 10
113.727
 20
-8.85832
 11
113.731
 21
-8.9619
  0
LINE
  8
0
 10
113.731
 20
-8.9619
 11
113.727
 21
-9.07036
  0
LINE
  8
0
 10
113.727
 20
-9.07036
 11
113.717
 21
-9.17082
  0
LINE
  8
0
 10
113.717
 20
-9.17082
 11
113.699
 21
-9.26346
  0
LINE
  8
0
 10
113.699
 20
-9.26346
 11
113.674
 21
-9.34798
  0
LINE
  8
0
 10
113.674
 20
-9.34798
 11
113.643
 21
-9.4248
  0
LINE
  8
0
 10
113.643
 20
-9.4248
 11
113.605
 21
-9.49373
  0
LINE
  8
0
 10
113.605
 20
-9.49373
 11
113.56
 21
-9.55542
  0
LINE
  8
0
 10
113.56
 20
-9.55542
 11
113.51
 21
-9.60905
  0
LINE
  8
0
 10
113.51
 20
-9.60905
 11
113.453
 21
-9.65421
  0
LINE
  8
0
 10
113.453
 20
-9.65421
 11
113.392
 21
-9.69116
  0
LINE
  8
0
 10
113.392
 20
-9.69116
 11
113.324
 21
-9.72005
  0
LINE
  8
0
 10
113.324
 20
-9.72005
 11
113.25
 21
-9.74083
  0
LINE
  8
0
 10
113.25
 20
-9.74083
 11
113.168
 21
-9.75348
  0
LINE
  8
0
 10
113.168
 20
-9.75348
 11
113.081
 21
-9.75772
  0
LINE
  8
0
 10
113.081
 20
-9.75772
 11
112.996
 21
-9.75337
  0
LINE
  8
0
 10
110.745
 20
-10.2475
 11
110.851
 21
-10.2369
  0
LINE
  8
0
 10
110.851
 20
-10.2369
 11
110.952
 21
-10.219
  0
LINE
  8
0
 10
110.952
 20
-10.219
 11
111.049
 21
-10.1939
  0
LINE
  8
0
 10
111.049
 20
-10.1939
 11
111.142
 21
-10.1615
  0
LINE
  8
0
 10
111.142
 20
-10.1615
 11
111.23
 21
-10.1219
  0
LINE
  8
0
 10
111.23
 20
-10.1219
 11
111.314
 21
-10.0749
  0
LINE
  8
0
 10
111.314
 20
-10.0749
 11
111.393
 21
-10.0203
  0
LINE
  8
0
 10
111.393
 20
-10.0203
 11
111.466
 21
-9.95813
  0
LINE
  8
0
 10
111.466
 20
-9.95813
 11
111.534
 21
-9.88841
  0
LINE
  8
0
 10
111.534
 20
-9.88841
 11
111.596
 21
-9.81133
  0
LINE
  8
0
 10
111.596
 20
-9.81133
 11
111.652
 21
-9.72694
  0
LINE
  8
0
 10
111.652
 20
-9.72694
 11
111.702
 21
-9.63541
  0
LINE
  8
0
 10
111.702
 20
-9.63541
 11
111.768
 21
-9.4899
  0
LINE
  8
0
 10
111.768
 20
-9.4899
 11
111.239
 21
-9.29025
  0
LINE
  8
0
 10
111.239
 20
-9.29025
 11
111.165
 21
-9.4496
  0
LINE
  8
0
 10
111.165
 20
-9.4496
 11
111.102
 21
-9.54482
  0
LINE
  8
0
 10
111.102
 20
-9.54482
 11
111.029
 21
-9.62169
  0
LINE
  8
0
 10
111.029
 20
-9.62169
 11
110.947
 21
-9.68092
  0
LINE
  8
0
 10
110.947
 20
-9.68092
 11
110.855
 21
-9.72328
  0
LINE
  8
0
 10
110.855
 20
-9.72328
 11
110.751
 21
-9.74895
  0
LINE
  8
0
 10
110.751
 20
-9.74895
 11
110.635
 21
-9.75769
  0
LINE
  8
0
 10
110.635
 20
-9.75769
 11
110.546
 21
-9.75352
  0
LINE
  8
0
 10
110.546
 20
-9.75352
 11
110.464
 21
-9.74107
  0
LINE
  8
0
 10
110.464
 20
-9.74107
 11
110.389
 21
-9.72054
  0
LINE
  8
0
 10
110.389
 20
-9.72054
 11
110.321
 21
-9.69205
  0
LINE
  8
0
 10
110.321
 20
-9.69205
 11
110.259
 21
-9.65575
  0
LINE
  8
0
 10
110.259
 20
-9.65575
 11
110.203
 21
-9.61128
  0
LINE
  8
0
 10
110.203
 20
-9.61128
 11
110.153
 21
-9.55876
  0
LINE
  8
0
 10
110.153
 20
-9.55876
 11
110.109
 21
-9.49792
  0
LINE
  8
0
 10
110.109
 20
-9.49792
 11
110.071
 21
-9.42943
  0
LINE
  8
0
 10
110.071
 20
-9.42943
 11
110.04
 21
-9.35272
  0
LINE
  8
0
 10
110.04
 20
-9.35272
 11
110.015
 21
-9.26746
  0
LINE
  8
0
 10
110.015
 20
-9.26746
 11
109.998
 21
-9.17412
  0
LINE
  8
0
 10
109.998
 20
-9.17412
 11
109.987
 21
-9.07213
  0
LINE
  8
0
 10
109.987
 20
-9.07213
 11
109.984
 21
-8.96185
  0
LINE
  8
0
 10
109.984
 20
-8.96185
 11
109.987
 21
-8.85335
  0
LINE
  8
0
 10
109.987
 20
-8.85335
 11
109.997
 21
-8.75345
  0
LINE
  8
0
 10
109.997
 20
-8.75345
 11
110.015
 21
-8.66176
  0
LINE
  8
0
 10
110.015
 20
-8.66176
 11
110.038
 21
-8.57869
  0
LINE
  8
0
 10
110.038
 20
-8.57869
 11
110.068
 21
-8.50397
  0
LINE
  8
0
 10
110.068
 20
-8.50397
 11
110.105
 21
-8.4373
  0
LINE
  8
0
 10
110.105
 20
-8.4373
 11
110.148
 21
-8.37856
  0
LINE
  8
0
 10
110.148
 20
-8.37856
 11
110.196
 21
-8.32779
  0
LINE
  8
0
 10
110.196
 20
-8.32779
 11
110.251
 21
-8.28503
  0
LINE
  8
0
 10
110.251
 20
-8.28503
 11
110.312
 21
-8.24983
  0
LINE
  8
0
 10
110.312
 20
-8.24983
 11
110.379
 21
-8.22232
  0
LINE
  8
0
 10
110.379
 20
-8.22232
 11
110.453
 21
-8.20242
  0
LINE
  8
0
 10
110.453
 20
-8.20242
 11
110.535
 21
-8.19032
  0
LINE
  8
0
 10
110.535
 20
-8.19032
 11
110.624
 21
-8.18625
  0
LINE
  8
0
 10
110.624
 20
-8.18625
 11
110.682
 21
-8.18829
  0
LINE
  8
0
 10
110.682
 20
-8.18829
 11
110.739
 21
-8.19438
  0
LINE
  8
0
 10
110.739
 20
-8.19438
 11
110.792
 21
-8.20442
  0
LINE
  8
0
 10
110.792
 20
-8.20442
 11
110.843
 21
-8.21851
  0
LINE
  8
0
 10
110.843
 20
-8.21851
 11
110.892
 21
-8.23643
  0
LINE
  8
0
 10
110.892
 20
-8.23643
 11
110.938
 21
-8.25822
  0
LINE
  8
0
 10
110.938
 20
-8.25822
 11
110.982
 21
-8.28426
  0
LINE
  8
0
 10
110.982
 20
-8.28426
 11
111.023
 21
-8.31328
  0
LINE
  8
0
 10
111.023
 20
-8.31328
 11
111.059
 21
-8.34482
  0
LINE
  8
0
 10
111.059
 20
-8.34482
 11
111.092
 21
-8.37906
  0
LINE
  8
0
 10
111.092
 20
-8.37906
 11
111.12
 21
-8.41582
  0
LINE
  8
0
 10
111.12
 20
-8.41582
 11
111.144
 21
-8.45511
  0
LINE
  8
0
 10
111.144
 20
-8.45511
 11
111.165
 21
-8.49753
  0
LINE
  8
0
 10
111.165
 20
-8.49753
 11
111.198
 21
-8.58817
  0
LINE
  8
0
 10
111.198
 20
-8.58817
 11
111.736
 21
-8.44128
  0
LINE
  8
0
 10
111.736
 20
-8.44128
 11
111.682
 21
-8.29761
  0
LINE
  8
0
 10
111.682
 20
-8.29761
 11
111.64
 21
-8.20967
  0
LINE
  8
0
 10
111.64
 20
-8.20967
 11
111.591
 21
-8.12817
  0
LINE
  8
0
 10
111.591
 20
-8.12817
 11
111.535
 21
-8.05327
  0
LINE
  8
0
 10
111.535
 20
-8.05327
 11
111.472
 21
-7.98508
  0
LINE
  8
0
 10
111.472
 20
-7.98508
 11
111.402
 21
-7.92377
  0
LINE
  8
0
 10
111.402
 20
-7.92377
 11
111.325
 21
-7.86937
  0
LINE
  8
0
 10
111.325
 20
-7.86937
 11
111.242
 21
-7.82216
  0
LINE
  8
0
 10
111.242
 20
-7.82216
 11
111.153
 21
-7.78235
  0
LINE
  8
0
 10
111.153
 20
-7.78235
 11
111.057
 21
-7.74994
  0
LINE
  8
0
 10
111.057
 20
-7.74994
 11
110.955
 21
-7.72487
  0
LINE
  8
0
 10
110.955
 20
-7.72487
 11
110.847
 21
-7.70705
  0
LINE
  8
0
 10
110.847
 20
-7.70705
 11
110.733
 21
-7.69641
  0
LINE
  8
0
 10
110.733
 20
-7.69641
 11
110.613
 21
-7.69286
  0
LINE
  8
0
 10
110.613
 20
-7.69286
 11
110.45
 21
-7.69946
  0
LINE
  8
0
 10
110.45
 20
-7.69946
 11
110.297
 21
-7.71938
  0
LINE
  8
0
 10
110.297
 20
-7.71938
 11
110.155
 21
-7.75279
  0
LINE
  8
0
 10
110.155
 20
-7.75279
 11
110.024
 21
-7.79984
  0
LINE
  8
0
 10
110.024
 20
-7.79984
 11
109.904
 21
-7.86066
  0
LINE
  8
0
 10
109.904
 20
-7.86066
 11
109.795
 21
-7.93523
  0
LINE
  8
0
 10
109.795
 20
-7.93523
 11
109.697
 21
-8.02345
  0
LINE
  8
0
 10
109.697
 20
-8.02345
 11
109.613
 21
-8.12421
  0
LINE
  8
0
 10
109.613
 20
-8.12421
 11
109.541
 21
-8.23647
  0
LINE
  8
0
 10
109.541
 20
-8.23647
 11
109.483
 21
-8.35992
  0
LINE
  8
0
 10
109.483
 20
-8.35992
 11
109.438
 21
-8.49434
  0
LINE
  8
0
 10
109.438
 20
-8.49434
 11
109.406
 21
-8.6395
  0
LINE
  8
0
 10
109.406
 20
-8.6395
 11
109.386
 21
-8.79532
  0
LINE
  8
0
 10
109.386
 20
-8.79532
 11
109.38
 21
-8.96185
  0
LINE
  8
0
 10
109.38
 20
-8.96185
 11
109.387
 21
-9.12823
  0
LINE
  8
0
 10
109.387
 20
-9.12823
 11
109.406
 21
-9.28445
  0
LINE
  8
0
 10
109.406
 20
-9.28445
 11
109.44
 21
-9.43053
  0
LINE
  8
0
 10
109.44
 20
-9.43053
 11
109.486
 21
-9.56628
  0
LINE
  8
0
 10
109.486
 20
-9.56628
 11
109.547
 21
-9.69154
  0
LINE
  8
0
 10
109.547
 20
-9.69154
 11
109.621
 21
-9.80602
  0
LINE
  8
0
 10
109.621
 20
-9.80602
 11
109.709
 21
-9.90952
  0
LINE
  8
0
 10
109.709
 20
-9.90952
 11
109.809
 21
-10.0005
  0
LINE
  8
0
 10
109.809
 20
-10.0005
 11
109.92
 21
-10.0775
  0
LINE
  8
0
 10
109.92
 20
-10.0775
 11
110.042
 21
-10.1404
  0
LINE
  8
0
 10
110.042
 20
-10.1404
 11
110.175
 21
-10.1891
  0
LINE
  8
0
 10
110.175
 20
-10.1891
 11
110.318
 21
-10.2236
  0
LINE
  8
0
 10
110.318
 20
-10.2236
 11
110.472
 21
-10.2443
  0
LINE
  8
0
 10
110.472
 20
-10.2443
 11
110.635
 21
-10.2511
  0
LINE
  8
0
 10
110.635
 20
-10.2511
 11
110.745
 21
-10.2475
  0
LINE
  8
0
 10
66.7072
 20
-9.72556
 11
65.6311
 21
-9.72556
  0
LINE
  8
0
 10
65.6311
 20
-9.72556
 11
65.6401
 21
-9.71112
  0
LINE
  8
0
 10
65.6401
 20
-9.71112
 11
65.6592
 21
-9.68385
  0
LINE
  8
0
 10
65.6592
 20
-9.68385
 11
65.6804
 21
-9.65683
  0
LINE
  8
0
 10
65.6804
 20
-9.65683
 11
65.7034
 21
-9.63043
  0
LINE
  8
0
 10
65.7034
 20
-9.63043
 11
65.7287
 21
-9.60408
  0
LINE
  8
0
 10
65.7287
 20
-9.60408
 11
65.7565
 21
-9.57707
  0
LINE
  8
0
 10
65.7565
 20
-9.57707
 11
65.7846
 21
-9.55057
  0
LINE
  8
0
 10
65.7846
 20
-9.55057
 11
65.8146
 21
-9.52313
  0
LINE
  8
0
 10
65.8146
 20
-9.52313
 11
65.8443
 21
-9.49678
  0
LINE
  8
0
 10
65.8443
 20
-9.49678
 11
65.8755
 21
-9.46994
  0
LINE
  8
0
 10
65.8755
 20
-9.46994
 11
65.9081
 21
-9.44272
  0
LINE
  8
0
 10
65.9081
 20
-9.44272
 11
65.9408
 21
-9.41623
  0
LINE
  8
0
 10
65.9408
 20
-9.41623
 11
65.9748
 21
-9.38904
  0
LINE
  8
0
 10
65.9748
 20
-9.38904
 11
66.0438
 21
-9.334
  0
LINE
  8
0
 10
66.0438
 20
-9.334
 11
66.1141
 21
-9.27808
  0
LINE
  8
0
 10
66.1141
 20
-9.27808
 11
66.1858
 21
-9.22122
  0
LINE
  8
0
 10
66.1858
 20
-9.22122
 11
66.2221
 21
-9.19182
  0
LINE
  8
0
 10
66.2221
 20
-9.19182
 11
66.2576
 21
-9.16161
  0
LINE
  8
0
 10
66.2576
 20
-9.16161
 11
66.2923
 21
-9.13078
  0
LINE
  8
0
 10
66.2923
 20
-9.13078
 11
66.3259
 21
-9.09932
  0
LINE
  8
0
 10
66.3259
 20
-9.09932
 11
66.3587
 21
-9.06726
  0
LINE
  8
0
 10
66.3587
 20
-9.06726
 11
66.3905
 21
-9.03459
  0
LINE
  8
0
 10
66.3905
 20
-9.03459
 11
66.4214
 21
-9.00117
  0
LINE
  8
0
 10
66.4214
 20
-9.00117
 11
66.4514
 21
-8.96667
  0
LINE
  8
0
 10
66.4514
 20
-8.96667
 11
66.4799
 21
-8.93114
  0
LINE
  8
0
 10
66.4799
 20
-8.93114
 11
66.5068
 21
-8.89468
  0
LINE
  8
0
 10
66.5068
 20
-8.89468
 11
66.5322
 21
-8.85728
  0
LINE
  8
0
 10
66.5322
 20
-8.85728
 11
66.556
 21
-8.81895
  0
LINE
  8
0
 10
66.556
 20
-8.81895
 11
66.5781
 21
-8.77972
  0
LINE
  8
0
 10
66.5781
 20
-8.77972
 11
66.5989
 21
-8.73929
  0
LINE
  8
0
 10
66.5989
 20
-8.73929
 11
66.6177
 21
-8.69704
  0
LINE
  8
0
 10
66.6177
 20
-8.69704
 11
66.6337
 21
-8.65309
  0
LINE
  8
0
 10
66.6337
 20
-8.65309
 11
66.6468
 21
-8.6078
  0
LINE
  8
0
 10
66.6468
 20
-8.6078
 11
66.6569
 21
-8.56125
  0
LINE
  8
0
 10
66.6569
 20
-8.56125
 11
66.6641
 21
-8.51346
  0
LINE
  8
0
 10
66.6641
 20
-8.51346
 11
66.6685
 21
-8.46445
  0
LINE
  8
0
 10
66.6685
 20
-8.46445
 11
66.6699
 21
-8.41376
  0
LINE
  8
0
 10
66.6699
 20
-8.41376
 11
66.6655
 21
-8.32108
  0
LINE
  8
0
 10
66.6655
 20
-8.32108
 11
66.652
 21
-8.23326
  0
LINE
  8
0
 10
66.652
 20
-8.23326
 11
66.6293
 21
-8.15085
  0
LINE
  8
0
 10
66.6293
 20
-8.15085
 11
66.5972
 21
-8.07413
  0
LINE
  8
0
 10
66.5972
 20
-8.07413
 11
66.5558
 21
-8.00339
  0
LINE
  8
0
 10
66.5558
 20
-8.00339
 11
66.5052
 21
-7.93896
  0
LINE
  8
0
 10
66.5052
 20
-7.93896
 11
66.4456
 21
-7.88107
  0
LINE
  8
0
 10
66.4456
 20
-7.88107
 11
66.3776
 21
-7.83046
  0
LINE
  8
0
 10
66.3776
 20
-7.83046
 11
66.3022
 21
-7.78786
  0
LINE
  8
0
 10
66.3022
 20
-7.78786
 11
66.2196
 21
-7.75331
  0
LINE
  8
0
 10
66.2196
 20
-7.75331
 11
66.1299
 21
-7.72667
  0
LINE
  8
0
 10
66.1299
 20
-7.72667
 11
66.0334
 21
-7.70781
  0
LINE
  8
0
 10
66.0334
 20
-7.70781
 11
65.93
 21
-7.69658
  0
LINE
  8
0
 10
65.93
 20
-7.69658
 11
65.8196
 21
-7.69286
  0
LINE
  8
0
 10
65.8196
 20
-7.69286
 11
65.7168
 21
-7.69656
  0
LINE
  8
0
 10
65.7168
 20
-7.69656
 11
65.6196
 21
-7.70773
  0
LINE
  8
0
 10
65.6196
 20
-7.70773
 11
65.5282
 21
-7.72647
  0
LINE
  8
0
 10
65.5282
 20
-7.72647
 11
65.4426
 21
-7.75293
  0
LINE
  8
0
 10
65.4426
 20
-7.75293
 11
65.3629
 21
-7.78717
  0
LINE
  8
0
 10
65.3629
 20
-7.78717
 11
65.2893
 21
-7.82927
  0
LINE
  8
0
 10
65.2893
 20
-7.82927
 11
65.2221
 21
-7.87918
  0
LINE
  8
0
 10
65.2221
 20
-7.87918
 11
65.1617
 21
-7.93646
  0
LINE
  8
0
 10
65.1617
 20
-7.93646
 11
65.1088
 21
-8.00066
  0
LINE
  8
0
 10
65.1088
 20
-8.00066
 11
65.0633
 21
-8.07158
  0
LINE
  8
0
 10
65.0633
 20
-8.07158
 11
65.0254
 21
-8.14897
  0
LINE
  8
0
 10
65.0254
 20
-8.14897
 11
64.995
 21
-8.23262
  0
LINE
  8
0
 10
64.995
 20
-8.23262
 11
64.972
 21
-8.32243
  0
LINE
  8
0
 10
64.972
 20
-8.32243
 11
64.9476
 21
-8.47121
  0
LINE
  8
0
 10
64.9476
 20
-8.47121
 11
65.5273
 21
-8.50397
  0
LINE
  8
0
 10
65.5273
 20
-8.50397
 11
65.5426
 21
-8.4166
  0
LINE
  8
0
 10
65.5426
 20
-8.4166
 11
65.552
 21
-8.37807
  0
LINE
  8
0
 10
65.552
 20
-8.37807
 11
65.5634
 21
-8.34319
  0
LINE
  8
0
 10
65.5634
 20
-8.34319
 11
65.5765
 21
-8.31206
  0
LINE
  8
0
 10
65.5765
 20
-8.31206
 11
65.5913
 21
-8.28468
  0
LINE
  8
0
 10
65.5913
 20
-8.28468
 11
65.6078
 21
-8.26068
  0
LINE
  8
0
 10
65.6078
 20
-8.26068
 11
65.6256
 21
-8.24008
  0
LINE
  8
0
 10
65.6256
 20
-8.24008
 11
65.6452
 21
-8.22261
  0
LINE
  8
0
 10
65.6452
 20
-8.22261
 11
65.667
 21
-8.20793
  0
LINE
  8
0
 10
65.667
 20
-8.20793
 11
65.6918
 21
-8.19559
  0
LINE
  8
0
 10
65.6918
 20
-8.19559
 11
65.7195
 21
-8.18585
  0
LINE
  8
0
 10
65.7195
 20
-8.18585
 11
65.7507
 21
-8.17863
  0
LINE
  8
0
 10
65.7507
 20
-8.17863
 11
65.7852
 21
-8.17419
  0
LINE
  8
0
 10
65.7852
 20
-8.17419
 11
65.8222
 21
-8.17273
  0
LINE
  8
0
 10
65.8222
 20
-8.17273
 11
65.8978
 21
-8.1785
  0
LINE
  8
0
 10
65.8978
 20
-8.1785
 11
65.9577
 21
-8.19478
  0
LINE
  8
0
 10
65.9577
 20
-8.19478
 11
66.004
 21
-8.22034
  0
LINE
  8
0
 10
66.004
 20
-8.22034
 11
66.0389
 21
-8.255
  0
LINE
  8
0
 10
66.0389
 20
-8.255
 11
66.0645
 21
-8.3009
  0
LINE
  8
0
 10
66.0645
 20
-8.3009
 11
66.0808
 21
-8.36043
  0
LINE
  8
0
 10
66.0808
 20
-8.36043
 11
66.0866
 21
-8.43507
  0
LINE
  8
0
 10
66.0866
 20
-8.43507
 11
66.0849
 21
-8.46552
  0
LINE
  8
0
 10
66.0849
 20
-8.46552
 11
66.0796
 21
-8.49675
  0
LINE
  8
0
 10
66.0796
 20
-8.49675
 11
66.0707
 21
-8.52864
  0
LINE
  8
0
 10
66.0707
 20
-8.52864
 11
66.058
 21
-8.56137
  0
LINE
  8
0
 10
66.058
 20
-8.56137
 11
66.0414
 21
-8.59462
  0
LINE
  8
0
 10
66.0414
 20
-8.59462
 11
66.0207
 21
-8.62897
  0
LINE
  8
0
 10
66.0207
 20
-8.62897
 11
65.996
 21
-8.66374
  0
LINE
  8
0
 10
65.996
 20
-8.66374
 11
65.966
 21
-8.70059
  0
LINE
  8
0
 10
65.966
 20
-8.70059
 11
65.9295
 21
-8.74106
  0
LINE
  8
0
 10
65.9295
 20
-8.74106
 11
65.8865
 21
-8.78502
  0
LINE
  8
0
 10
65.8865
 20
-8.78502
 11
65.8378
 21
-8.83147
  0
LINE
  8
0
 10
65.8378
 20
-8.83147
 11
65.7821
 21
-8.88171
  0
LINE
  8
0
 10
65.7821
 20
-8.88171
 11
65.7205
 21
-8.93474
  0
LINE
  8
0
 10
65.7205
 20
-8.93474
 11
65.6522
 21
-8.99109
  0
LINE
  8
0
 10
65.6522
 20
-8.99109
 11
65.579
 21
-9.05161
  0
LINE
  8
0
 10
65.579
 20
-9.05161
 11
65.5091
 21
-9.11179
  0
LINE
  8
0
 10
65.5091
 20
-9.11179
 11
65.4428
 21
-9.17131
  0
LINE
  8
0
 10
65.4428
 20
-9.17131
 11
65.3801
 21
-9.23026
  0
LINE
  8
0
 10
65.3801
 20
-9.23026
 11
65.3209
 21
-9.28857
  0
LINE
  8
0
 10
65.3209
 20
-9.28857
 11
65.2654
 21
-9.34628
  0
LINE
  8
0
 10
65.2654
 20
-9.34628
 11
65.2133
 21
-9.40349
  0
LINE
  8
0
 10
65.2133
 20
-9.40349
 11
65.1647
 21
-9.46074
  0
LINE
  8
0
 10
65.1647
 20
-9.46074
 11
65.1191
 21
-9.51859
  0
LINE
  8
0
 10
65.1191
 20
-9.51859
 11
65.0768
 21
-9.57698
  0
LINE
  8
0
 10
65.0768
 20
-9.57698
 11
65.0377
 21
-9.63589
  0
LINE
  8
0
 10
65.0377
 20
-9.63589
 11
65.0019
 21
-9.69537
  0
LINE
  8
0
 10
65.0019
 20
-9.69537
 11
64.9693
 21
-9.75539
  0
LINE
  8
0
 10
64.9693
 20
-9.75539
 11
64.9356
 21
-9.82515
  0
LINE
  8
0
 10
64.9356
 20
-9.82515
 11
64.9356
 21
-10.2172
  0
LINE
  8
0
 10
64.9356
 20
-10.2172
 11
66.7072
 21
-10.2172
  0
LINE
  8
0
 10
66.7072
 20
-10.2172
 11
66.7072
 21
-9.72556
  0
LINE
  8
0
 10
137.7
 20
-10.2472
 11
137.81
 21
-10.2354
  0
LINE
  8
0
 10
137.81
 20
-10.2354
 11
137.912
 21
-10.2156
  0
LINE
  8
0
 10
137.912
 20
-10.2156
 11
138.008
 21
-10.1877
  0
LINE
  8
0
 10
138.008
 20
-10.1877
 11
138.096
 21
-10.1515
  0
LINE
  8
0
 10
138.096
 20
-10.1515
 11
138.176
 21
-10.1069
  0
LINE
  8
0
 10
138.176
 20
-10.1069
 11
138.248
 21
-10.0539
  0
LINE
  8
0
 10
138.248
 20
-10.0539
 11
138.312
 21
-9.99324
  0
LINE
  8
0
 10
138.312
 20
-9.99324
 11
138.366
 21
-9.9257
  0
LINE
  8
0
 10
138.366
 20
-9.9257
 11
138.41
 21
-9.85149
  0
LINE
  8
0
 10
138.41
 20
-9.85149
 11
138.445
 21
-9.77094
  0
LINE
  8
0
 10
138.445
 20
-9.77094
 11
138.469
 21
-9.68437
  0
LINE
  8
0
 10
138.469
 20
-9.68437
 11
138.484
 21
-9.59209
  0
LINE
  8
0
 10
138.484
 20
-9.59209
 11
138.488
 21
-9.49434
  0
LINE
  8
0
 10
138.488
 20
-9.49434
 11
138.486
 21
-9.42343
  0
LINE
  8
0
 10
138.486
 20
-9.42343
 11
138.477
 21
-9.35599
  0
LINE
  8
0
 10
138.477
 20
-9.35599
 11
138.462
 21
-9.29178
  0
LINE
  8
0
 10
138.462
 20
-9.29178
 11
138.442
 21
-9.23096
  0
LINE
  8
0
 10
138.442
 20
-9.23096
 11
138.416
 21
-9.17369
  0
LINE
  8
0
 10
138.416
 20
-9.17369
 11
138.383
 21
-9.12019
  0
LINE
  8
0
 10
138.383
 20
-9.12019
 11
138.345
 21
-9.07065
  0
LINE
  8
0
 10
138.345
 20
-9.07065
 11
138.301
 21
-9.0257
  0
LINE
  8
0
 10
138.301
 20
-9.0257
 11
138.254
 21
-8.98587
  0
LINE
  8
0
 10
138.254
 20
-8.98587
 11
138.202
 21
-8.95125
  0
LINE
  8
0
 10
138.202
 20
-8.95125
 11
138.145
 21
-8.92186
  0
LINE
  8
0
 10
138.145
 20
-8.92186
 11
138.107
 21
-8.90633
  0
LINE
  8
0
 10
138.107
 20
-8.90633
 11
138.123
 21
-8.89861
  0
LINE
  8
0
 10
138.123
 20
-8.89861
 11
138.173
 21
-8.86932
  0
LINE
  8
0
 10
138.173
 20
-8.86932
 11
138.219
 21
-8.83511
  0
LINE
  8
0
 10
138.219
 20
-8.83511
 11
138.262
 21
-8.79607
  0
LINE
  8
0
 10
138.262
 20
-8.79607
 11
138.3
 21
-8.75241
  0
LINE
  8
0
 10
138.3
 20
-8.75241
 11
138.334
 21
-8.70538
  0
LINE
  8
0
 10
138.334
 20
-8.70538
 11
138.363
 21
-8.65611
  0
LINE
  8
0
 10
138.363
 20
-8.65611
 11
138.387
 21
-8.60458
  0
LINE
  8
0
 10
138.387
 20
-8.60458
 11
138.405
 21
-8.55095
  0
LINE
  8
0
 10
138.405
 20
-8.55095
 11
138.419
 21
-8.49533
  0
LINE
  8
0
 10
138.419
 20
-8.49533
 11
138.426
 21
-8.43787
  0
LINE
  8
0
 10
138.426
 20
-8.43787
 11
138.429
 21
-8.37849
  0
LINE
  8
0
 10
138.429
 20
-8.37849
 11
138.425
 21
-8.28905
  0
LINE
  8
0
 10
138.425
 20
-8.28905
 11
138.411
 21
-8.20467
  0
LINE
  8
0
 10
138.411
 20
-8.20467
 11
138.388
 21
-8.12563
  0
LINE
  8
0
 10
138.388
 20
-8.12563
 11
138.356
 21
-8.05217
  0
LINE
  8
0
 10
138.356
 20
-8.05217
 11
138.314
 21
-7.98471
  0
LINE
  8
0
 10
138.314
 20
-7.98471
 11
138.263
 21
-7.9236
  0
LINE
  8
0
 10
138.263
 20
-7.9236
 11
138.203
 21
-7.869
  0
LINE
  8
0
 10
138.203
 20
-7.869
 11
138.134
 21
-7.82153
  0
LINE
  8
0
 10
138.134
 20
-7.82153
 11
138.059
 21
-7.78168
  0
LINE
  8
0
 10
138.059
 20
-7.78168
 11
137.976
 21
-7.74937
  0
LINE
  8
0
 10
137.976
 20
-7.74937
 11
137.886
 21
-7.72447
  0
LINE
  8
0
 10
137.886
 20
-7.72447
 11
137.79
 21
-7.70685
  0
LINE
  8
0
 10
137.79
 20
-7.70685
 11
137.686
 21
-7.69633
  0
LINE
  8
0
 10
137.686
 20
-7.69633
 11
137.575
 21
-7.69287
  0
LINE
  8
0
 10
137.575
 20
-7.69287
 11
137.467
 21
-7.69644
  0
LINE
  8
0
 10
137.467
 20
-7.69644
 11
137.365
 21
-7.70723
  0
LINE
  8
0
 10
137.365
 20
-7.70723
 11
137.27
 21
-7.72534
  0
LINE
  8
0
 10
137.27
 20
-7.72534
 11
137.181
 21
-7.75095
  0
LINE
  8
0
 10
137.181
 20
-7.75095
 11
137.099
 21
-7.78413
  0
LINE
  8
0
 10
137.099
 20
-7.78413
 11
137.024
 21
-7.82501
  0
LINE
  8
0
 10
137.024
 20
-7.82501
 11
136.956
 21
-7.87361
  0
LINE
  8
0
 10
136.956
 20
-7.87361
 11
136.897
 21
-7.92891
  0
LINE
  8
0
 10
136.897
 20
-7.92891
 11
136.846
 21
-7.99005
  0
LINE
  8
0
 10
136.846
 20
-7.99005
 11
136.804
 21
-8.05688
  0
LINE
  8
0
 10
136.804
 20
-8.05688
 11
136.771
 21
-8.12915
  0
LINE
  8
0
 10
136.771
 20
-8.12915
 11
136.748
 21
-8.20647
  0
LINE
  8
0
 10
136.748
 20
-8.20647
 11
136.735
 21
-8.28854
  0
LINE
  8
0
 10
136.735
 20
-8.28854
 11
136.73
 21
-8.37505
  0
LINE
  8
0
 10
136.73
 20
-8.37505
 11
136.733
 21
-8.43454
  0
LINE
  8
0
 10
136.733
 20
-8.43454
 11
136.741
 21
-8.49213
  0
LINE
  8
0
 10
136.741
 20
-8.49213
 11
136.754
 21
-8.54793
  0
LINE
  8
0
 10
136.754
 20
-8.54793
 11
136.773
 21
-8.60179
  0
LINE
  8
0
 10
136.773
 20
-8.60179
 11
136.796
 21
-8.65359
  0
LINE
  8
0
 10
136.796
 20
-8.65359
 11
136.826
 21
-8.7032
  0
LINE
  8
0
 10
136.826
 20
-8.7032
 11
136.86
 21
-8.75061
  0
LINE
  8
0
 10
136.86
 20
-8.75061
 11
136.898
 21
-8.79465
  0
LINE
  8
0
 10
136.898
 20
-8.79465
 11
136.941
 21
-8.83414
  0
LINE
  8
0
 10
136.941
 20
-8.83414
 11
136.986
 21
-8.86894
  0
LINE
  8
0
 10
136.986
 20
-8.86894
 11
137.035
 21
-8.89896
  0
LINE
  8
0
 10
137.035
 20
-8.89896
 11
137.056
 21
-8.9093
  0
LINE
  8
0
 10
137.056
 20
-8.9093
 11
137.015
 21
-8.92657
  0
LINE
  8
0
 10
137.015
 20
-8.92657
 11
136.96
 21
-8.95682
  0
LINE
  8
0
 10
136.96
 20
-8.95682
 11
136.909
 21
-8.99245
  0
LINE
  8
0
 10
136.909
 20
-8.99245
 11
136.862
 21
-9.03342
  0
LINE
  8
0
 10
136.862
 20
-9.03342
 11
136.818
 21
-9.07959
  0
LINE
  8
0
 10
136.818
 20
-9.07959
 11
136.78
 21
-9.13004
  0
LINE
  8
0
 10
136.78
 20
-9.13004
 11
136.748
 21
-9.18381
  0
LINE
  8
0
 10
136.748
 20
-9.18381
 11
136.721
 21
-9.24077
  0
LINE
  8
0
 10
136.721
 20
-9.24077
 11
136.701
 21
-9.30078
  0
LINE
  8
0
 10
136.701
 20
-9.30078
 11
136.686
 21
-9.36366
  0
LINE
  8
0
 10
136.686
 20
-9.36366
 11
136.677
 21
-9.42926
  0
LINE
  8
0
 10
136.677
 20
-9.42926
 11
136.674
 21
-9.49771
  0
LINE
  8
0
 10
136.674
 20
-9.49771
 11
136.679
 21
-9.59509
  0
LINE
  8
0
 10
136.679
 20
-9.59509
 11
136.694
 21
-9.68704
  0
LINE
  8
0
 10
136.694
 20
-9.68704
 11
136.718
 21
-9.77327
  0
LINE
  8
0
 10
136.718
 20
-9.77327
 11
136.753
 21
-9.8535
  0
LINE
  8
0
 10
136.753
 20
-9.8535
 11
136.798
 21
-9.92741
  0
LINE
  8
0
 10
136.798
 20
-9.92741
 11
136.853
 21
-9.99464
  0
LINE
  8
0
 10
136.853
 20
-9.99464
 11
136.917
 21
-10.055
  0
LINE
  8
0
 10
136.917
 20
-10.055
 11
136.99
 21
-10.1077
  0
LINE
  8
0
 10
136.99
 20
-10.1077
 11
137.071
 21
-10.152
  0
LINE
  8
0
 10
137.071
 20
-10.152
 11
137.159
 21
-10.188
  0
LINE
  8
0
 10
137.159
 20
-10.188
 11
137.254
 21
-10.2158
  0
LINE
  8
0
 10
137.254
 20
-10.2158
 11
137.356
 21
-10.2355
  0
LINE
  8
0
 10
137.356
 20
-10.2355
 11
137.466
 21
-10.2472
  0
LINE
  8
0
 10
137.466
 20
-10.2472
 11
137.582
 21
-10.2511
  0
LINE
  8
0
 10
137.582
 20
-10.2511
 11
137.7
 21
-10.2472
  0
LINE
  8
0
 10
137.505
 20
-8.69016
 11
137.447
 21
-8.67253
  0
LINE
  8
0
 10
137.447
 20
-8.67253
 11
137.401
 21
-8.64465
  0
LINE
  8
0
 10
137.401
 20
-8.64465
 11
137.366
 21
-8.60608
  0
LINE
  8
0
 10
137.366
 20
-8.60608
 11
137.34
 21
-8.55423
  0
LINE
  8
0
 10
137.34
 20
-8.55423
 11
137.323
 21
-8.48712
  0
LINE
  8
0
 10
137.323
 20
-8.48712
 11
137.317
 21
-8.40408
  0
LINE
  8
0
 10
137.317
 20
-8.40408
 11
137.323
 21
-8.32541
  0
LINE
  8
0
 10
137.323
 20
-8.32541
 11
137.339
 21
-8.26189
  0
LINE
  8
0
 10
137.339
 20
-8.26189
 11
137.365
 21
-8.21298
  0
LINE
  8
0
 10
137.365
 20
-8.21298
 11
137.399
 21
-8.17642
  0
LINE
  8
0
 10
137.399
 20
-8.17642
 11
137.444
 21
-8.14987
  0
LINE
  8
0
 10
137.444
 20
-8.14987
 11
137.503
 21
-8.13297
  0
LINE
  8
0
 10
137.503
 20
-8.13297
 11
137.576
 21
-8.12695
  0
LINE
  8
0
 10
137.576
 20
-8.12695
 11
137.615
 21
-8.12837
  0
LINE
  8
0
 10
137.615
 20
-8.12837
 11
137.651
 21
-8.13266
  0
LINE
  8
0
 10
137.651
 20
-8.13266
 11
137.683
 21
-8.13963
  0
LINE
  8
0
 10
137.683
 20
-8.13963
 11
137.711
 21
-8.14908
  0
LINE
  8
0
 10
137.711
 20
-8.14908
 11
137.736
 21
-8.16083
  0
LINE
  8
0
 10
137.736
 20
-8.16083
 11
137.757
 21
-8.17476
  0
LINE
  8
0
 10
137.757
 20
-8.17476
 11
137.775
 21
-8.19093
  0
LINE
  8
0
 10
137.775
 20
-8.19093
 11
137.791
 21
-8.20961
  0
LINE
  8
0
 10
137.791
 20
-8.20961
 11
137.805
 21
-8.23181
  0
LINE
  8
0
 10
137.805
 20
-8.23181
 11
137.817
 21
-8.25778
  0
LINE
  8
0
 10
137.817
 20
-8.25778
 11
137.826
 21
-8.2879
  0
LINE
  8
0
 10
137.826
 20
-8.2879
 11
137.833
 21
-8.3223
  0
LINE
  8
0
 10
137.833
 20
-8.3223
 11
137.838
 21
-8.36116
  0
LINE
  8
0
 10
137.838
 20
-8.36116
 11
137.839
 21
-8.40421
  0
LINE
  8
0
 10
137.839
 20
-8.40421
 11
137.838
 21
-8.45081
  0
LINE
  8
0
 10
137.838
 20
-8.45081
 11
137.833
 21
-8.49313
  0
LINE
  8
0
 10
137.833
 20
-8.49313
 11
137.826
 21
-8.53032
  0
LINE
  8
0
 10
137.826
 20
-8.53032
 11
137.817
 21
-8.56268
  0
LINE
  8
0
 10
137.817
 20
-8.56268
 11
137.805
 21
-8.59015
  0
LINE
  8
0
 10
137.805
 20
-8.59015
 11
137.791
 21
-8.61317
  0
LINE
  8
0
 10
137.791
 20
-8.61317
 11
137.776
 21
-8.6321
  0
LINE
  8
0
 10
137.776
 20
-8.6321
 11
137.758
 21
-8.64838
  0
LINE
  8
0
 10
137.758
 20
-8.64838
 11
137.737
 21
-8.66235
  0
LINE
  8
0
 10
137.737
 20
-8.66235
 11
137.712
 21
-8.67418
  0
LINE
  8
0
 10
137.712
 20
-8.67418
 11
137.684
 21
-8.68372
  0
LINE
  8
0
 10
137.684
 20
-8.68372
 11
137.653
 21
-8.69066
  0
LINE
  8
0
 10
137.653
 20
-8.69066
 11
137.618
 21
-8.69502
  0
LINE
  8
0
 10
137.618
 20
-8.69502
 11
137.58
 21
-8.69644
  0
LINE
  8
0
 10
137.58
 20
-8.69644
 11
137.505
 21
-8.69016
  0
LINE
  8
0
 10
137.538
 20
-9.81355
 11
137.495
 21
-9.8082
  0
LINE
  8
0
 10
137.495
 20
-9.8082
 11
137.456
 21
-9.79948
  0
LINE
  8
0
 10
137.456
 20
-9.79948
 11
137.421
 21
-9.7876
  0
LINE
  8
0
 10
137.421
 20
-9.7876
 11
137.391
 21
-9.7728
  0
LINE
  8
0
 10
137.391
 20
-9.7728
 11
137.365
 21
-9.755
  0
LINE
  8
0
 10
137.365
 20
-9.755
 11
137.342
 21
-9.73441
  0
LINE
  8
0
 10
137.342
 20
-9.73441
 11
137.323
 21
-9.71013
  0
LINE
  8
0
 10
137.323
 20
-9.71013
 11
137.306
 21
-9.68158
  0
LINE
  8
0
 10
137.306
 20
-9.68158
 11
137.291
 21
-9.64803
  0
LINE
  8
0
 10
137.291
 20
-9.64803
 11
137.28
 21
-9.60941
  0
LINE
  8
0
 10
137.28
 20
-9.60941
 11
137.271
 21
-9.5654
  0
LINE
  8
0
 10
137.271
 20
-9.5654
 11
137.266
 21
-9.51614
  0
LINE
  8
0
 10
137.266
 20
-9.51614
 11
137.264
 21
-9.46216
  0
LINE
  8
0
 10
137.264
 20
-9.46216
 11
137.266
 21
-9.41472
  0
LINE
  8
0
 10
137.266
 20
-9.41472
 11
137.271
 21
-9.37158
  0
LINE
  8
0
 10
137.271
 20
-9.37158
 11
137.28
 21
-9.3324
  0
LINE
  8
0
 10
137.28
 20
-9.3324
 11
137.291
 21
-9.29724
  0
LINE
  8
0
 10
137.291
 20
-9.29724
 11
137.306
 21
-9.26584
  0
LINE
  8
0
 10
137.306
 20
-9.26584
 11
137.323
 21
-9.23782
  0
LINE
  8
0
 10
137.323
 20
-9.23782
 11
137.343
 21
-9.21312
  0
LINE
  8
0
 10
137.343
 20
-9.21312
 11
137.366
 21
-9.19164
  0
LINE
  8
0
 10
137.366
 20
-9.19164
 11
137.392
 21
-9.17345
  0
LINE
  8
0
 10
137.392
 20
-9.17345
 11
137.421
 21
-9.15837
  0
LINE
  8
0
 10
137.421
 20
-9.15837
 11
137.453
 21
-9.14645
  0
LINE
  8
0
 10
137.453
 20
-9.14645
 11
137.489
 21
-9.13768
  0
LINE
  8
0
 10
137.489
 20
-9.13768
 11
137.529
 21
-9.13235
  0
LINE
  8
0
 10
137.529
 20
-9.13235
 11
137.571
 21
-9.13055
  0
LINE
  8
0
 10
137.571
 20
-9.13055
 11
137.662
 21
-9.1376
  0
LINE
  8
0
 10
137.662
 20
-9.1376
 11
137.736
 21
-9.15768
  0
LINE
  8
0
 10
137.736
 20
-9.15768
 11
137.793
 21
-9.18953
  0
LINE
  8
0
 10
137.793
 20
-9.18953
 11
137.836
 21
-9.23311
  0
LINE
  8
0
 10
137.836
 20
-9.23311
 11
137.868
 21
-9.2906
  0
LINE
  8
0
 10
137.868
 20
-9.2906
 11
137.888
 21
-9.3643
  0
LINE
  8
0
 10
137.888
 20
-9.3643
 11
137.895
 21
-9.45633
  0
LINE
  8
0
 10
137.895
 20
-9.45633
 11
137.893
 21
-9.51146
  0
LINE
  8
0
 10
137.893
 20
-9.51146
 11
137.888
 21
-9.56253
  0
LINE
  8
0
 10
137.888
 20
-9.56253
 11
137.88
 21
-9.60785
  0
LINE
  8
0
 10
137.88
 20
-9.60785
 11
137.869
 21
-9.64783
  0
LINE
  8
0
 10
137.869
 20
-9.64783
 11
137.855
 21
-9.6821
  0
LINE
  8
0
 10
137.855
 20
-9.6821
 11
137.839
 21
-9.71107
  0
LINE
  8
0
 10
137.839
 20
-9.71107
 11
137.82
 21
-9.73524
  0
LINE
  8
0
 10
137.82
 20
-9.73524
 11
137.799
 21
-9.75557
  0
LINE
  8
0
 10
137.799
 20
-9.75557
 11
137.774
 21
-9.77316
  0
LINE
  8
0
 10
137.774
 20
-9.77316
 11
137.745
 21
-9.7878
  0
LINE
  8
0
 10
137.745
 20
-9.7878
 11
137.712
 21
-9.79959
  0
LINE
  8
0
 10
137.712
 20
-9.79959
 11
137.675
 21
-9.80821
  0
LINE
  8
0
 10
137.675
 20
-9.80821
 11
137.632
 21
-9.81357
  0
LINE
  8
0
 10
137.632
 20
-9.81357
 11
137.586
 21
-9.81537
  0
LINE
  8
0
 10
137.586
 20
-9.81537
 11
137.538
 21
-9.81355
  0
LINE
  8
0
 10
83.889
 20
-10.2472
 11
84.0212
 21
-10.2356
  0
LINE
  8
0
 10
84.0212
 20
-10.2356
 11
84.144
 21
-10.216
  0
LINE
  8
0
 10
84.144
 20
-10.216
 11
84.2573
 21
-10.1885
  0
LINE
  8
0
 10
84.2573
 20
-10.1885
 11
84.3612
 21
-10.1528
  0
LINE
  8
0
 10
84.3612
 20
-10.1528
 11
84.4555
 21
-10.1087
  0
LINE
  8
0
 10
84.4555
 20
-10.1087
 11
84.5401
 21
-10.0562
  0
LINE
  8
0
 10
84.5401
 20
-10.0562
 11
84.6143
 21
-9.99556
  0
LINE
  8
0
 10
84.6143
 20
-9.99556
 11
84.6776
 21
-9.92712
  0
LINE
  8
0
 10
84.6776
 20
-9.92712
 11
84.7296
 21
-9.85114
  0
LINE
  8
0
 10
84.7296
 20
-9.85114
 11
84.77
 21
-9.7679
  0
LINE
  8
0
 10
84.77
 20
-9.7679
 11
84.7986
 21
-9.67792
  0
LINE
  8
0
 10
84.7986
 20
-9.67792
 11
84.8157
 21
-9.58151
  0
LINE
  8
0
 10
84.8157
 20
-9.58151
 11
84.8212
 21
-9.47969
  0
LINE
  8
0
 10
84.8212
 20
-9.47969
 11
84.8202
 21
-9.43469
  0
LINE
  8
0
 10
84.8202
 20
-9.43469
 11
84.8173
 21
-9.39177
  0
LINE
  8
0
 10
84.8173
 20
-9.39177
 11
84.8123
 21
-9.35014
  0
LINE
  8
0
 10
84.8123
 20
-9.35014
 11
84.8053
 21
-9.30981
  0
LINE
  8
0
 10
84.8053
 20
-9.30981
 11
84.7962
 21
-9.27077
  0
LINE
  8
0
 10
84.7962
 20
-9.27077
 11
84.7851
 21
-9.23306
  0
LINE
  8
0
 10
84.7851
 20
-9.23306
 11
84.7719
 21
-9.19678
  0
LINE
  8
0
 10
84.7719
 20
-9.19678
 11
84.7568
 21
-9.16197
  0
LINE
  8
0
 10
84.7568
 20
-9.16197
 11
84.7399
 21
-9.12856
  0
LINE
  8
0
 10
84.7399
 20
-9.12856
 11
84.7211
 21
-9.09648
  0
LINE
  8
0
 10
84.7211
 20
-9.09648
 11
84.7005
 21
-9.0658
  0
LINE
  8
0
 10
84.7005
 20
-9.0658
 11
84.678
 21
-9.03653
  0
LINE
  8
0
 10
84.678
 20
-9.03653
 11
84.6537
 21
-9.00871
  0
LINE
  8
0
 10
84.6537
 20
-9.00871
 11
84.6276
 21
-8.9823
  0
LINE
  8
0
 10
84.6276
 20
-8.9823
 11
84.5993
 21
-8.95711
  0
LINE
  8
0
 10
84.5993
 20
-8.95711
 11
84.5684
 21
-8.93298
  0
LINE
  8
0
 10
84.5684
 20
-8.93298
 11
84.535
 21
-8.90996
  0
LINE
  8
0
 10
84.535
 20
-8.90996
 11
84.4993
 21
-8.88803
  0
LINE
  8
0
 10
84.4993
 20
-8.88803
 11
84.4611
 21
-8.86716
  0
LINE
  8
0
 10
84.4611
 20
-8.86716
 11
84.4206
 21
-8.84726
  0
LINE
  8
0
 10
84.4206
 20
-8.84726
 11
84.3775
 21
-8.82829
  0
LINE
  8
0
 10
84.3775
 20
-8.82829
 11
84.329
 21
-8.80959
  0
LINE
  8
0
 10
84.329
 20
-8.80959
 11
84.2729
 21
-8.79062
  0
LINE
  8
0
 10
84.2729
 20
-8.79062
 11
84.2091
 21
-8.77141
  0
LINE
  8
0
 10
84.2091
 20
-8.77141
 11
84.1376
 21
-8.75183
  0
LINE
  8
0
 10
84.1376
 20
-8.75183
 11
84.0584
 21
-8.7319
  0
LINE
  8
0
 10
84.0584
 20
-8.7319
 11
83.9713
 21
-8.71158
  0
LINE
  8
0
 10
83.9713
 20
-8.71158
 11
83.8767
 21
-8.69093
  0
LINE
  8
0
 10
83.8767
 20
-8.69093
 11
83.7981
 21
-8.67349
  0
LINE
  8
0
 10
83.7981
 20
-8.67349
 11
83.7283
 21
-8.65712
  0
LINE
  8
0
 10
83.7283
 20
-8.65712
 11
83.666
 21
-8.64153
  0
LINE
  8
0
 10
83.666
 20
-8.64153
 11
83.6118
 21
-8.62686
  0
LINE
  8
0
 10
83.6118
 20
-8.62686
 11
83.5662
 21
-8.61324
  0
LINE
  8
0
 10
83.5662
 20
-8.61324
 11
83.5294
 21
-8.60085
  0
LINE
  8
0
 10
83.5294
 20
-8.60085
 11
83.5008
 21
-8.58955
  0
LINE
  8
0
 10
83.5008
 20
-8.58955
 11
83.4774
 21
-8.5786
  0
LINE
  8
0
 10
83.4774
 20
-8.5786
 11
83.4554
 21
-8.56683
  0
LINE
  8
0
 10
83.4554
 20
-8.56683
 11
83.4359
 21
-8.55492
  0
LINE
  8
0
 10
83.4359
 20
-8.55492
 11
83.4179
 21
-8.54224
  0
LINE
  8
0
 10
83.4179
 20
-8.54224
 11
83.4024
 21
-8.52957
  0
LINE
  8
0
 10
83.4024
 20
-8.52957
 11
83.3885
 21
-8.51637
  0
LINE
  8
0
 10
83.3885
 20
-8.51637
 11
83.3768
 21
-8.50328
  0
LINE
  8
0
 10
83.3768
 20
-8.50328
 11
83.3671
 21
-8.48982
  0
LINE
  8
0
 10
83.3671
 20
-8.48982
 11
83.3589
 21
-8.47552
  0
LINE
  8
0
 10
83.3589
 20
-8.47552
 11
83.3521
 21
-8.45992
  0
LINE
  8
0
 10
83.3521
 20
-8.45992
 11
83.3468
 21
-8.44299
  0
LINE
  8
0
 10
83.3468
 20
-8.44299
 11
83.3428
 21
-8.4243
  0
LINE
  8
0
 10
83.3428
 20
-8.4243
 11
83.3404
 21
-8.40399
  0
LINE
  8
0
 10
83.3404
 20
-8.40399
 11
83.3396
 21
-8.38414
  0
LINE
  8
0
 10
83.3396
 20
-8.38414
 11
83.3475
 21
-8.31978
  0
LINE
  8
0
 10
83.3475
 20
-8.31978
 11
83.3693
 21
-8.26976
  0
LINE
  8
0
 10
83.3693
 20
-8.26976
 11
83.4056
 21
-8.22878
  0
LINE
  8
0
 10
83.4056
 20
-8.22878
 11
83.4597
 21
-8.19489
  0
LINE
  8
0
 10
83.4597
 20
-8.19489
 11
83.5338
 21
-8.16905
  0
LINE
  8
0
 10
83.5338
 20
-8.16905
 11
83.6288
 21
-8.15282
  0
LINE
  8
0
 10
83.6288
 20
-8.15282
 11
83.7443
 21
-8.14725
  0
LINE
  8
0
 10
83.7443
 20
-8.14725
 11
83.8002
 21
-8.14877
  0
LINE
  8
0
 10
83.8002
 20
-8.14877
 11
83.8516
 21
-8.15323
  0
LINE
  8
0
 10
83.8516
 20
-8.15323
 11
83.8991
 21
-8.16064
  0
LINE
  8
0
 10
83.8991
 20
-8.16064
 11
83.9419
 21
-8.17082
  0
LINE
  8
0
 10
83.9419
 20
-8.17082
 11
83.9801
 21
-8.18362
  0
LINE
  8
0
 10
83.9801
 20
-8.18362
 11
84.014
 21
-8.19891
  0
LINE
  8
0
 10
84.014
 20
-8.19891
 11
84.0438
 21
-8.21671
  0
LINE
  8
0
 10
84.0438
 20
-8.21671
 11
84.0703
 21
-8.237
  0
LINE
  8
0
 10
84.0703
 20
-8.237
 11
84.0942
 21
-8.26004
  0
LINE
  8
0
 10
84.0942
 20
-8.26004
 11
84.1156
 21
-8.28586
  0
LINE
  8
0
 10
84.1156
 20
-8.28586
 11
84.1341
 21
-8.3143
  0
LINE
  8
0
 10
84.1341
 20
-8.3143
 11
84.1504
 21
-8.3461
  0
LINE
  8
0
 10
84.1504
 20
-8.3461
 11
84.164
 21
-8.38098
  0
LINE
  8
0
 10
84.164
 20
-8.38098
 11
84.1875
 21
-8.46286
  0
LINE
  8
0
 10
84.1875
 20
-8.46286
 11
84.7704
 21
-8.38336
  0
LINE
  8
0
 10
84.7704
 20
-8.38336
 11
84.7348
 21
-8.23923
  0
LINE
  8
0
 10
84.7348
 20
-8.23923
 11
84.7051
 21
-8.15405
  0
LINE
  8
0
 10
84.7051
 20
-8.15405
 11
84.6681
 21
-8.07597
  0
LINE
  8
0
 10
84.6681
 20
-8.07597
 11
84.6238
 21
-8.0052
  0
LINE
  8
0
 10
84.6238
 20
-8.0052
 11
84.5722
 21
-7.942
  0
LINE
  8
0
 10
84.5722
 20
-7.942
 11
84.5134
 21
-7.88666
  0
LINE
  8
0
 10
84.5134
 20
-7.88666
 11
84.4477
 21
-7.83946
  0
LINE
  8
0
 10
84.4477
 20
-7.83946
 11
84.3742
 21
-7.79973
  0
LINE
  8
0
 10
84.3742
 20
-7.79973
 11
84.2922
 21
-7.76657
  0
LINE
  8
0
 10
84.2922
 20
-7.76657
 11
84.2016
 21
-7.73976
  0
LINE
  8
0
 10
84.2016
 20
-7.73976
 11
84.1026
 21
-7.71913
  0
LINE
  8
0
 10
84.1026
 20
-7.71913
 11
83.995
 21
-7.7045
  0
LINE
  8
0
 10
83.995
 20
-7.7045
 11
83.8789
 21
-7.69577
  0
LINE
  8
0
 10
83.8789
 20
-7.69577
 11
83.7539
 21
-7.69287
  0
LINE
  8
0
 10
83.7539
 20
-7.69287
 11
83.6229
 21
-7.69647
  0
LINE
  8
0
 10
83.6229
 20
-7.69647
 11
83.5005
 21
-7.70729
  0
LINE
  8
0
 10
83.5005
 20
-7.70729
 11
83.3866
 21
-7.72545
  0
LINE
  8
0
 10
83.3866
 20
-7.72545
 11
83.2813
 21
-7.75105
  0
LINE
  8
0
 10
83.2813
 20
-7.75105
 11
83.1846
 21
-7.78424
  0
LINE
  8
0
 10
83.1846
 20
-7.78424
 11
83.0965
 21
-7.82523
  0
LINE
  8
0
 10
83.0965
 20
-7.82523
 11
83.0173
 21
-7.87408
  0
LINE
  8
0
 10
83.0173
 20
-7.87408
 11
82.9475
 21
-7.93056
  0
LINE
  8
0
 10
82.9475
 20
-7.93056
 11
82.888
 21
-7.99423
  0
LINE
  8
0
 10
82.888
 20
-7.99423
 11
82.8392
 21
-8.06497
  0
LINE
  8
0
 10
82.8392
 20
-8.06497
 11
82.8012
 21
-8.1424
  0
LINE
  8
0
 10
82.8012
 20
-8.1424
 11
82.7742
 21
-8.22607
  0
LINE
  8
0
 10
82.7742
 20
-8.22607
 11
82.7582
 21
-8.31561
  0
LINE
  8
0
 10
82.7582
 20
-8.31561
 11
82.7529
 21
-8.40993
  0
LINE
  8
0
 10
82.7529
 20
-8.40993
 11
82.7537
 21
-8.44852
  0
LINE
  8
0
 10
82.7537
 20
-8.44852
 11
82.7558
 21
-8.48514
  0
LINE
  8
0
 10
82.7558
 20
-8.48514
 11
82.7594
 21
-8.52068
  0
LINE
  8
0
 10
82.7594
 20
-8.52068
 11
82.7645
 21
-8.55518
  0
LINE
  8
0
 10
82.7645
 20
-8.55518
 11
82.771
 21
-8.58862
  0
LINE
  8
0
 10
82.771
 20
-8.58862
 11
82.7791
 21
-8.62099
  0
LINE
  8
0
 10
82.7791
 20
-8.62099
 11
82.7886
 21
-8.65215
  0
LINE
  8
0
 10
82.7886
 20
-8.65215
 11
82.7994
 21
-8.68202
  0
LINE
  8
0
 10
82.7994
 20
-8.68202
 11
82.8114
 21
-8.71078
  0
LINE
  8
0
 10
82.8114
 20
-8.71078
 11
82.8246
 21
-8.73856
  0
LINE
  8
0
 10
82.8246
 20
-8.73856
 11
82.839
 21
-8.76527
  0
LINE
  8
0
 10
82.839
 20
-8.76527
 11
82.8546
 21
-8.79097
  0
LINE
  8
0
 10
82.8546
 20
-8.79097
 11
82.8715
 21
-8.81558
  0
LINE
  8
0
 10
82.8715
 20
-8.81558
 11
82.8896
 21
-8.83907
  0
LINE
  8
0
 10
82.8896
 20
-8.83907
 11
82.9087
 21
-8.86143
  0
LINE
  8
0
 10
82.9087
 20
-8.86143
 11
82.929
 21
-8.88278
  0
LINE
  8
0
 10
82.929
 20
-8.88278
 11
82.9503
 21
-8.90315
  0
LINE
  8
0
 10
82.9503
 20
-8.90315
 11
82.9727
 21
-8.92255
  0
LINE
  8
0
 10
82.9727
 20
-8.92255
 11
82.9962
 21
-8.94096
  0
LINE
  8
0
 10
82.9962
 20
-8.94096
 11
83.0208
 21
-8.9584
  0
LINE
  8
0
 10
83.0208
 20
-8.9584
 11
83.0463
 21
-8.97478
  0
LINE
  8
0
 10
83.0463
 20
-8.97478
 11
83.0724
 21
-8.99016
  0
LINE
  8
0
 10
83.0724
 20
-8.99016
 11
83.0992
 21
-9.00482
  0
LINE
  8
0
 10
83.0992
 20
-9.00482
 11
83.1268
 21
-9.01889
  0
LINE
  8
0
 10
83.1268
 20
-9.01889
 11
83.1553
 21
-9.03232
  0
LINE
  8
0
 10
83.1553
 20
-9.03232
 11
83.1845
 21
-9.04517
  0
LINE
  8
0
 10
83.1845
 20
-9.04517
 11
83.2145
 21
-9.05739
  0
LINE
  8
0
 10
83.2145
 20
-9.05739
 11
83.2455
 21
-9.06906
  0
LINE
  8
0
 10
83.2455
 20
-9.06906
 11
83.2802
 21
-9.08095
  0
LINE
  8
0
 10
83.2802
 20
-9.08095
 11
83.3214
 21
-9.0937
  0
LINE
  8
0
 10
83.3214
 20
-9.0937
 11
83.3689
 21
-9.10736
  0
LINE
  8
0
 10
83.3689
 20
-9.10736
 11
83.4229
 21
-9.12196
  0
LINE
  8
0
 10
83.4229
 20
-9.12196
 11
83.4834
 21
-9.13751
  0
LINE
  8
0
 10
83.4834
 20
-9.13751
 11
83.5504
 21
-9.15404
  0
LINE
  8
0
 10
83.5504
 20
-9.15404
 11
83.6245
 21
-9.17166
  0
LINE
  8
0
 10
83.6245
 20
-9.17166
 11
83.7093
 21
-9.18925
  0
LINE
  8
0
 10
83.7093
 20
-9.18925
 11
83.7848
 21
-9.20586
  0
LINE
  8
0
 10
83.7848
 20
-9.20586
 11
83.8525
 21
-9.2218
  0
LINE
  8
0
 10
83.8525
 20
-9.2218
 11
83.9118
 21
-9.23689
  0
LINE
  8
0
 10
83.9118
 20
-9.23689
 11
83.9616
 21
-9.25085
  0
LINE
  8
0
 10
83.9616
 20
-9.25085
 11
84.0035
 21
-9.26407
  0
LINE
  8
0
 10
84.0035
 20
-9.26407
 11
84.0363
 21
-9.27609
  0
LINE
  8
0
 10
84.0363
 20
-9.27609
 11
84.0643
 21
-9.28815
  0
LINE
  8
0
 10
84.0643
 20
-9.28815
 11
84.09
 21
-9.30089
  0
LINE
  8
0
 10
84.09
 20
-9.30089
 11
84.1136
 21
-9.31424
  0
LINE
  8
0
 10
84.1136
 20
-9.31424
 11
84.1353
 21
-9.32829
  0
LINE
  8
0
 10
84.1353
 20
-9.32829
 11
84.1546
 21
-9.34277
  0
LINE
  8
0
 10
84.1546
 20
-9.34277
 11
84.1721
 21
-9.35797
  0
LINE
  8
0
 10
84.1721
 20
-9.35797
 11
84.1872
 21
-9.37328
  0
LINE
  8
0
 10
84.1872
 20
-9.37328
 11
84.1999
 21
-9.38895
  0
LINE
  8
0
 10
84.1999
 20
-9.38895
 11
84.2103
 21
-9.40509
  0
LINE
  8
0
 10
84.2103
 20
-9.40509
 11
84.2189
 21
-9.42258
  0
LINE
  8
0
 10
84.2189
 20
-9.42258
 11
84.2256
 21
-9.44144
  0
LINE
  8
0
 10
84.2256
 20
-9.44144
 11
84.2305
 21
-9.4617
  0
LINE
  8
0
 10
84.2305
 20
-9.4617
 11
84.2336
 21
-9.4839
  0
LINE
  8
0
 10
84.2336
 20
-9.4839
 11
84.2345
 21
-9.50566
  0
LINE
  8
0
 10
84.2345
 20
-9.50566
 11
84.2253
 21
-9.57863
  0
LINE
  8
0
 10
84.2253
 20
-9.57863
 11
84.1996
 21
-9.636
  0
LINE
  8
0
 10
84.1996
 20
-9.636
 11
84.1563
 21
-9.6834
  0
LINE
  8
0
 10
84.1563
 20
-9.6834
 11
84.0924
 21
-9.72229
  0
LINE
  8
0
 10
84.0924
 20
-9.72229
 11
84.0053
 21
-9.75174
  0
LINE
  8
0
 10
84.0053
 20
-9.75174
 11
83.8944
 21
-9.77013
  0
LINE
  8
0
 10
83.8944
 20
-9.77013
 11
83.7604
 21
-9.7764
  0
LINE
  8
0
 10
83.7604
 20
-9.7764
 11
83.6933
 21
-9.77472
  0
LINE
  8
0
 10
83.6933
 20
-9.77472
 11
83.6312
 21
-9.76974
  0
LINE
  8
0
 10
83.6312
 20
-9.76974
 11
83.5732
 21
-9.76144
  0
LINE
  8
0
 10
83.5732
 20
-9.76144
 11
83.5207
 21
-9.75005
  0
LINE
  8
0
 10
83.5207
 20
-9.75005
 11
83.4729
 21
-9.7356
  0
LINE
  8
0
 10
83.4729
 20
-9.7356
 11
83.4299
 21
-9.71815
  0
LINE
  8
0
 10
83.4299
 20
-9.71815
 11
83.3917
 21
-9.69797
  0
LINE
  8
0
 10
83.3917
 20
-9.69797
 11
83.3578
 21
-9.67468
  0
LINE
  8
0
 10
83.3578
 20
-9.67468
 11
83.3274
 21
-9.6479
  0
LINE
  8
0
 10
83.3274
 20
-9.6479
 11
83.3002
 21
-9.61725
  0
LINE
  8
0
 10
83.3002
 20
-9.61725
 11
83.2762
 21
-9.58275
  0
LINE
  8
0
 10
83.2762
 20
-9.58275
 11
83.2552
 21
-9.54387
  0
LINE
  8
0
 10
83.2552
 20
-9.54387
 11
83.2373
 21
-9.50052
  0
LINE
  8
0
 10
83.2373
 20
-9.50052
 11
83.2093
 21
-9.40889
  0
LINE
  8
0
 10
83.2093
 20
-9.40889
 11
82.6281
 21
-9.50471
  0
LINE
  8
0
 10
82.6281
 20
-9.50471
 11
82.6687
 21
-9.65178
  0
LINE
  8
0
 10
82.6687
 20
-9.65178
 11
82.7033
 21
-9.74089
  0
LINE
  8
0
 10
82.7033
 20
-9.74089
 11
82.7463
 21
-9.82324
  0
LINE
  8
0
 10
82.7463
 20
-9.82324
 11
82.7976
 21
-9.89864
  0
LINE
  8
0
 10
82.7976
 20
-9.89864
 11
82.8571
 21
-9.9668
  0
LINE
  8
0
 10
82.8571
 20
-9.9668
 11
82.9247
 21
-10.0276
  0
LINE
  8
0
 10
82.9247
 20
-10.0276
 11
83.0002
 21
-10.0808
  0
LINE
  8
0
 10
83.0002
 20
-10.0808
 11
83.0836
 21
-10.1266
  0
LINE
  8
0
 10
83.0836
 20
-10.1266
 11
83.1749
 21
-10.165
  0
LINE
  8
0
 10
83.1749
 20
-10.165
 11
83.2739
 21
-10.1962
  0
LINE
  8
0
 10
83.2739
 20
-10.1962
 11
83.3807
 21
-10.2204
  0
LINE
  8
0
 10
83.3807
 20
-10.2204
 11
83.4951
 21
-10.2375
  0
LINE
  8
0
 10
83.4951
 20
-10.2375
 11
83.6173
 21
-10.2477
  0
LINE
  8
0
 10
83.6173
 20
-10.2477
 11
83.7473
 21
-10.2511
  0
LINE
  8
0
 10
83.7473
 20
-10.2511
 11
83.889
 21
-10.2472
  0
LINE
  8
0
 10
55.989
 20
-10.2472
 11
56.1212
 21
-10.2356
  0
LINE
  8
0
 10
56.1212
 20
-10.2356
 11
56.244
 21
-10.216
  0
LINE
  8
0
 10
56.244
 20
-10.216
 11
56.3573
 21
-10.1885
  0
LINE
  8
0
 10
56.3573
 20
-10.1885
 11
56.4612
 21
-10.1528
  0
LINE
  8
0
 10
56.4612
 20
-10.1528
 11
56.5555
 21
-10.1087
  0
LINE
  8
0
 10
56.5555
 20
-10.1087
 11
56.6401
 21
-10.0562
  0
LINE
  8
0
 10
56.6401
 20
-10.0562
 11
56.7144
 21
-9.99556
  0
LINE
  8
0
 10
56.7144
 20
-9.99556
 11
56.7776
 21
-9.92712
  0
LINE
  8
0
 10
56.7776
 20
-9.92712
 11
56.8296
 21
-9.85114
  0
LINE
  8
0
 10
56.8296
 20
-9.85114
 11
56.87
 21
-9.7679
  0
LINE
  8
0
 10
56.87
 20
-9.7679
 11
56.8986
 21
-9.67792
  0
LINE
  8
0
 10
56.8986
 20
-9.67792
 11
56.9157
 21
-9.58151
  0
LINE
  8
0
 10
56.9157
 20
-9.58151
 11
56.9212
 21
-9.47969
  0
LINE
  8
0
 10
56.9212
 20
-9.47969
 11
56.9202
 21
-9.43469
  0
LINE
  8
0
 10
56.9202
 20
-9.43469
 11
56.9173
 21
-9.39177
  0
LINE
  8
0
 10
56.9173
 20
-9.39177
 11
56.9123
 21
-9.35014
  0
LINE
  8
0
 10
56.9123
 20
-9.35014
 11
56.9053
 21
-9.30981
  0
LINE
  8
0
 10
56.9053
 20
-9.30981
 11
56.8962
 21
-9.27077
  0
LINE
  8
0
 10
56.8962
 20
-9.27077
 11
56.8851
 21
-9.23306
  0
LINE
  8
0
 10
56.8851
 20
-9.23306
 11
56.8719
 21
-9.19678
  0
LINE
  8
0
 10
56.8719
 20
-9.19678
 11
56.8568
 21
-9.16197
  0
LINE
  8
0
 10
56.8568
 20
-9.16197
 11
56.8399
 21
-9.12856
  0
LINE
  8
0
 10
56.8399
 20
-9.12856
 11
56.8211
 21
-9.09648
  0
LINE
  8
0
 10
56.8211
 20
-9.09648
 11
56.8005
 21
-9.0658
  0
LINE
  8
0
 10
56.8005
 20
-9.0658
 11
56.778
 21
-9.03653
  0
LINE
  8
0
 10
56.778
 20
-9.03653
 11
56.7537
 21
-9.00871
  0
LINE
  8
0
 10
56.7537
 20
-9.00871
 11
56.7276
 21
-8.9823
  0
LINE
  8
0
 10
56.7276
 20
-8.9823
 11
56.6993
 21
-8.95711
  0
LINE
  8
0
 10
56.6993
 20
-8.95711
 11
56.6684
 21
-8.93298
  0
LINE
  8
0
 10
56.6684
 20
-8.93298
 11
56.635
 21
-8.90996
  0
LINE
  8
0
 10
56.635
 20
-8.90996
 11
56.5993
 21
-8.88803
  0
LINE
  8
0
 10
56.5993
 20
-8.88803
 11
56.5611
 21
-8.86716
  0
LINE
  8
0
 10
56.5611
 20
-8.86716
 11
56.5206
 21
-8.84726
  0
LINE
  8
0
 10
56.5206
 20
-8.84726
 11
56.4775
 21
-8.82829
  0
LINE
  8
0
 10
56.4775
 20
-8.82829
 11
56.429
 21
-8.80959
  0
LINE
  8
0
 10
56.429
 20
-8.80959
 11
56.3729
 21
-8.79062
  0
LINE
  8
0
 10
56.3729
 20
-8.79062
 11
56.3091
 21
-8.77141
  0
LINE
  8
0
 10
56.3091
 20
-8.77141
 11
56.2376
 21
-8.75183
  0
LINE
  8
0
 10
56.2376
 20
-8.75183
 11
56.1584
 21
-8.7319
  0
LINE
  8
0
 10
56.1584
 20
-8.7319
 11
56.0713
 21
-8.71158
  0
LINE
  8
0
 10
56.0713
 20
-8.71158
 11
55.9767
 21
-8.69093
  0
LINE
  8
0
 10
55.9767
 20
-8.69093
 11
55.8981
 21
-8.67349
  0
LINE
  8
0
 10
55.8981
 20
-8.67349
 11
55.8283
 21
-8.65712
  0
LINE
  8
0
 10
55.8283
 20
-8.65712
 11
55.766
 21
-8.64153
  0
LINE
  8
0
 10
55.766
 20
-8.64153
 11
55.7118
 21
-8.62686
  0
LINE
  8
0
 10
55.7118
 20
-8.62686
 11
55.6662
 21
-8.61324
  0
LINE
  8
0
 10
55.6662
 20
-8.61324
 11
55.6294
 21
-8.60085
  0
LINE
  8
0
 10
55.6294
 20
-8.60085
 11
55.6008
 21
-8.58955
  0
LINE
  8
0
 10
55.6008
 20
-8.58955
 11
55.5774
 21
-8.5786
  0
LINE
  8
0
 10
55.5774
 20
-8.5786
 11
55.5554
 21
-8.56683
  0
LINE
  8
0
 10
55.5554
 20
-8.56683
 11
55.5359
 21
-8.55492
  0
LINE
  8
0
 10
55.5359
 20
-8.55492
 11
55.5179
 21
-8.54224
  0
LINE
  8
0
 10
55.5179
 20
-8.54224
 11
55.5024
 21
-8.52957
  0
LINE
  8
0
 10
55.5024
 20
-8.52957
 11
55.4885
 21
-8.51637
  0
LINE
  8
0
 10
55.4885
 20
-8.51637
 11
55.4769
 21
-8.50328
  0
LINE
  8
0
 10
55.4769
 20
-8.50328
 11
55.4671
 21
-8.48982
  0
LINE
  8
0
 10
55.4671
 20
-8.48982
 11
55.459
 21
-8.47552
  0
LINE
  8
0
 10
55.459
 20
-8.47552
 11
55.4521
 21
-8.45992
  0
LINE
  8
0
 10
55.4521
 20
-8.45992
 11
55.4468
 21
-8.44299
  0
LINE
  8
0
 10
55.4468
 20
-8.44299
 11
55.4428
 21
-8.4243
  0
LINE
  8
0
 10
55.4428
 20
-8.4243
 11
55.4404
 21
-8.40399
  0
LINE
  8
0
 10
55.4404
 20
-8.40399
 11
55.4396
 21
-8.38414
  0
LINE
  8
0
 10
55.4396
 20
-8.38414
 11
55.4475
 21
-8.31978
  0
LINE
  8
0
 10
55.4475
 20
-8.31978
 11
55.4693
 21
-8.26976
  0
LINE
  8
0
 10
55.4693
 20
-8.26976
 11
55.5056
 21
-8.22878
  0
LINE
  8
0
 10
55.5056
 20
-8.22878
 11
55.5597
 21
-8.19489
  0
LINE
  8
0
 10
55.5597
 20
-8.19489
 11
55.6338
 21
-8.16905
  0
LINE
  8
0
 10
55.6338
 20
-8.16905
 11
55.7288
 21
-8.15282
  0
LINE
  8
0
 10
55.7288
 20
-8.15282
 11
55.8443
 21
-8.14725
  0
LINE
  8
0
 10
55.8443
 20
-8.14725
 11
55.9003
 21
-8.14877
  0
LINE
  8
0
 10
55.9003
 20
-8.14877
 11
55.9516
 21
-8.15323
  0
LINE
  8
0
 10
55.9516
 20
-8.15323
 11
55.9991
 21
-8.16064
  0
LINE
  8
0
 10
55.9991
 20
-8.16064
 11
56.0419
 21
-8.17082
  0
LINE
  8
0
 10
56.0419
 20
-8.17082
 11
56.0802
 21
-8.18362
  0
LINE
  8
0
 10
56.0802
 20
-8.18362
 11
56.114
 21
-8.19891
  0
LINE
  8
0
 10
56.114
 20
-8.19891
 11
56.1438
 21
-8.21671
  0
LINE
  8
0
 10
56.1438
 20
-8.21671
 11
56.1703
 21
-8.237
  0
LINE
  8
0
 10
56.1703
 20
-8.237
 11
56.1942
 21
-8.26004
  0
LINE
  8
0
 10
56.1942
 20
-8.26004
 11
56.2156
 21
-8.28586
  0
LINE
  8
0
 10
56.2156
 20
-8.28586
 11
56.2341
 21
-8.3143
  0
LINE
  8
0
 10
56.2341
 20
-8.3143
 11
56.2504
 21
-8.3461
  0
LINE
  8
0
 10
56.2504
 20
-8.3461
 11
56.264
 21
-8.38098
  0
LINE
  8
0
 10
56.264
 20
-8.38098
 11
56.2875
 21
-8.46286
  0
LINE
  8
0
 10
56.2875
 20
-8.46286
 11
56.8704
 21
-8.38336
  0
LINE
  8
0
 10
56.8704
 20
-8.38336
 11
56.8348
 21
-8.23923
  0
LINE
  8
0
 10
56.8348
 20
-8.23923
 11
56.8051
 21
-8.15405
  0
LINE
  8
0
 10
56.8051
 20
-8.15405
 11
56.7681
 21
-8.07597
  0
LINE
  8
0
 10
56.7681
 20
-8.07597
 11
56.7238
 21
-8.0052
  0
LINE
  8
0
 10
56.7238
 20
-8.0052
 11
56.6722
 21
-7.942
  0
LINE
  8
0
 10
56.6722
 20
-7.942
 11
56.6134
 21
-7.88666
  0
LINE
  8
0
 10
56.6134
 20
-7.88666
 11
56.5477
 21
-7.83946
  0
LINE
  8
0
 10
56.5477
 20
-7.83946
 11
56.4742
 21
-7.79973
  0
LINE
  8
0
 10
56.4742
 20
-7.79973
 11
56.3922
 21
-7.76657
  0
LINE
  8
0
 10
56.3922
 20
-7.76657
 11
56.3016
 21
-7.73976
  0
LINE
  8
0
 10
56.3016
 20
-7.73976
 11
56.2026
 21
-7.71913
  0
LINE
  8
0
 10
56.2026
 20
-7.71913
 11
56.095
 21
-7.7045
  0
LINE
  8
0
 10
56.095
 20
-7.7045
 11
55.9789
 21
-7.69577
  0
LINE
  8
0
 10
55.9789
 20
-7.69577
 11
55.8539
 21
-7.69287
  0
LINE
  8
0
 10
55.8539
 20
-7.69287
 11
55.7229
 21
-7.69647
  0
LINE
  8
0
 10
55.7229
 20
-7.69647
 11
55.6005
 21
-7.70729
  0
LINE
  8
0
 10
55.6005
 20
-7.70729
 11
55.4866
 21
-7.72545
  0
LINE
  8
0
 10
55.4866
 20
-7.72545
 11
55.3813
 21
-7.75105
  0
LINE
  8
0
 10
55.3813
 20
-7.75105
 11
55.2846
 21
-7.78424
  0
LINE
  8
0
 10
55.2846
 20
-7.78424
 11
55.1965
 21
-7.82523
  0
LINE
  8
0
 10
55.1965
 20
-7.82523
 11
55.1173
 21
-7.87408
  0
LINE
  8
0
 10
55.1173
 20
-7.87408
 11
55.0475
 21
-7.93056
  0
LINE
  8
0
 10
55.0475
 20
-7.93056
 11
54.9881
 21
-7.99423
  0
LINE
  8
0
 10
54.9881
 20
-7.99423
 11
54.9392
 21
-8.06497
  0
LINE
  8
0
 10
54.9392
 20
-8.06497
 11
54.9012
 21
-8.1424
  0
LINE
  8
0
 10
54.9012
 20
-8.1424
 11
54.8742
 21
-8.22607
  0
LINE
  8
0
 10
54.8742
 20
-8.22607
 11
54.8582
 21
-8.31561
  0
LINE
  8
0
 10
54.8582
 20
-8.31561
 11
54.8529
 21
-8.40993
  0
LINE
  8
0
 10
54.8529
 20
-8.40993
 11
54.8537
 21
-8.44852
  0
LINE
  8
0
 10
54.8537
 20
-8.44852
 11
54.8558
 21
-8.48514
  0
LINE
  8
0
 10
54.8558
 20
-8.48514
 11
54.8594
 21
-8.52068
  0
LINE
  8
0
 10
54.8594
 20
-8.52068
 11
54.8645
 21
-8.55518
  0
LINE
  8
0
 10
54.8645
 20
-8.55518
 11
54.871
 21
-8.58862
  0
LINE
  8
0
 10
54.871
 20
-8.58862
 11
54.8791
 21
-8.62099
  0
LINE
  8
0
 10
54.8791
 20
-8.62099
 11
54.8886
 21
-8.65215
  0
LINE
  8
0
 10
54.8886
 20
-8.65215
 11
54.8994
 21
-8.68202
  0
LINE
  8
0
 10
54.8994
 20
-8.68202
 11
54.9114
 21
-8.71078
  0
LINE
  8
0
 10
54.9114
 20
-8.71078
 11
54.9246
 21
-8.73856
  0
LINE
  8
0
 10
54.9246
 20
-8.73856
 11
54.939
 21
-8.76527
  0
LINE
  8
0
 10
54.939
 20
-8.76527
 11
54.9546
 21
-8.79097
  0
LINE
  8
0
 10
54.9546
 20
-8.79097
 11
54.9715
 21
-8.81558
  0
LINE
  8
0
 10
54.9715
 20
-8.81558
 11
54.9896
 21
-8.83907
  0
LINE
  8
0
 10
54.9896
 20
-8.83907
 11
55.0087
 21
-8.86143
  0
LINE
  8
0
 10
55.0087
 20
-8.86143
 11
55.029
 21
-8.88278
  0
LINE
  8
0
 10
55.029
 20
-8.88278
 11
55.0503
 21
-8.90315
  0
LINE
  8
0
 10
55.0503
 20
-8.90315
 11
55.0727
 21
-8.92255
  0
LINE
  8
0
 10
55.0727
 20
-8.92255
 11
55.0962
 21
-8.94096
  0
LINE
  8
0
 10
55.0962
 20
-8.94096
 11
55.1208
 21
-8.9584
  0
LINE
  8
0
 10
55.1208
 20
-8.9584
 11
55.1463
 21
-8.97478
  0
LINE
  8
0
 10
55.1463
 20
-8.97478
 11
55.1724
 21
-8.99016
  0
LINE
  8
0
 10
55.1724
 20
-8.99016
 11
55.1992
 21
-9.00482
  0
LINE
  8
0
 10
55.1992
 20
-9.00482
 11
55.2269
 21
-9.01889
  0
LINE
  8
0
 10
55.2269
 20
-9.01889
 11
55.2553
 21
-9.03232
  0
LINE
  8
0
 10
55.2553
 20
-9.03232
 11
55.2845
 21
-9.04517
  0
LINE
  8
0
 10
55.2845
 20
-9.04517
 11
55.3145
 21
-9.05739
  0
LINE
  8
0
 10
55.3145
 20
-9.05739
 11
55.3455
 21
-9.06906
  0
LINE
  8
0
 10
55.3455
 20
-9.06906
 11
55.3802
 21
-9.08095
  0
LINE
  8
0
 10
55.3802
 20
-9.08095
 11
55.4214
 21
-9.0937
  0
LINE
  8
0
 10
55.4214
 20
-9.0937
 11
55.4689
 21
-9.10736
  0
LINE
  8
0
 10
55.4689
 20
-9.10736
 11
55.5229
 21
-9.12196
  0
LINE
  8
0
 10
55.5229
 20
-9.12196
 11
55.5834
 21
-9.13751
  0
LINE
  8
0
 10
55.5834
 20
-9.13751
 11
55.6504
 21
-9.15404
  0
LINE
  8
0
 10
55.6504
 20
-9.15404
 11
55.7245
 21
-9.17166
  0
LINE
  8
0
 10
55.7245
 20
-9.17166
 11
55.8093
 21
-9.18925
  0
LINE
  8
0
 10
55.8093
 20
-9.18925
 11
55.8848
 21
-9.20586
  0
LINE
  8
0
 10
55.8848
 20
-9.20586
 11
55.9525
 21
-9.2218
  0
LINE
  8
0
 10
55.9525
 20
-9.2218
 11
56.0118
 21
-9.23689
  0
LINE
  8
0
 10
56.0118
 20
-9.23689
 11
56.0616
 21
-9.25085
  0
LINE
  8
0
 10
56.0616
 20
-9.25085
 11
56.1035
 21
-9.26407
  0
LINE
  8
0
 10
56.1035
 20
-9.26407
 11
56.1363
 21
-9.27609
  0
LINE
  8
0
 10
56.1363
 20
-9.27609
 11
56.1643
 21
-9.28815
  0
LINE
  8
0
 10
56.1643
 20
-9.28815
 11
56.19
 21
-9.30089
  0
LINE
  8
0
 10
56.19
 20
-9.30089
 11
56.2136
 21
-9.31424
  0
LINE
  8
0
 10
56.2136
 20
-9.31424
 11
56.2353
 21
-9.32829
  0
LINE
  8
0
 10
56.2353
 20
-9.32829
 11
56.2546
 21
-9.34277
  0
LINE
  8
0
 10
56.2546
 20
-9.34277
 11
56.2721
 21
-9.35797
  0
LINE
  8
0
 10
56.2721
 20
-9.35797
 11
56.2872
 21
-9.37328
  0
LINE
  8
0
 10
56.2872
 20
-9.37328
 11
56.3
 21
-9.38899
  0
LINE
  8
0
 10
56.3
 20
-9.38899
 11
56.3103
 21
-9.40509
  0
LINE
  8
0
 10
56.3103
 20
-9.40509
 11
56.3189
 21
-9.42258
  0
LINE
  8
0
 10
56.3189
 20
-9.42258
 11
56.3257
 21
-9.44144
  0
LINE
  8
0
 10
56.3257
 20
-9.44144
 11
56.3306
 21
-9.4617
  0
LINE
  8
0
 10
56.3306
 20
-9.4617
 11
56.3336
 21
-9.4839
  0
LINE
  8
0
 10
56.3336
 20
-9.4839
 11
56.3345
 21
-9.50566
  0
LINE
  8
0
 10
56.3345
 20
-9.50566
 11
56.3253
 21
-9.57863
  0
LINE
  8
0
 10
56.3253
 20
-9.57863
 11
56.2996
 21
-9.636
  0
LINE
  8
0
 10
56.2996
 20
-9.636
 11
56.2563
 21
-9.6834
  0
LINE
  8
0
 10
56.2563
 20
-9.6834
 11
56.1924
 21
-9.72229
  0
LINE
  8
0
 10
56.1924
 20
-9.72229
 11
56.1053
 21
-9.75174
  0
LINE
  8
0
 10
56.1053
 20
-9.75174
 11
55.9944
 21
-9.77013
  0
LINE
  8
0
 10
55.9944
 20
-9.77013
 11
55.8604
 21
-9.7764
  0
LINE
  8
0
 10
55.8604
 20
-9.7764
 11
55.7934
 21
-9.77472
  0
LINE
  8
0
 10
55.7934
 20
-9.77472
 11
55.7312
 21
-9.76974
  0
LINE
  8
0
 10
55.7312
 20
-9.76974
 11
55.6732
 21
-9.76144
  0
LINE
  8
0
 10
55.6732
 20
-9.76144
 11
55.6207
 21
-9.75005
  0
LINE
  8
0
 10
55.6207
 20
-9.75005
 11
55.5729
 21
-9.7356
  0
LINE
  8
0
 10
55.5729
 20
-9.7356
 11
55.5299
 21
-9.71815
  0
LINE
  8
0
 10
55.5299
 20
-9.71815
 11
55.4917
 21
-9.69797
  0
LINE
  8
0
 10
55.4917
 20
-9.69797
 11
55.4578
 21
-9.67468
  0
LINE
  8
0
 10
55.4578
 20
-9.67468
 11
55.4274
 21
-9.6479
  0
LINE
  8
0
 10
55.4274
 20
-9.6479
 11
55.4002
 21
-9.61725
  0
LINE
  8
0
 10
55.4002
 20
-9.61725
 11
55.3762
 21
-9.58275
  0
LINE
  8
0
 10
55.3762
 20
-9.58275
 11
55.3552
 21
-9.54387
  0
LINE
  8
0
 10
55.3552
 20
-9.54387
 11
55.3373
 21
-9.50052
  0
LINE
  8
0
 10
55.3373
 20
-9.50052
 11
55.3093
 21
-9.40889
  0
LINE
  8
0
 10
55.3093
 20
-9.40889
 11
54.7281
 21
-9.50471
  0
LINE
  8
0
 10
54.7281
 20
-9.50471
 11
54.7687
 21
-9.65178
  0
LINE
  8
0
 10
54.7687
 20
-9.65178
 11
54.8033
 21
-9.74089
  0
LINE
  8
0
 10
54.8033
 20
-9.74089
 11
54.8463
 21
-9.82324
  0
LINE
  8
0
 10
54.8463
 20
-9.82324
 11
54.8976
 21
-9.89864
  0
LINE
  8
0
 10
54.8976
 20
-9.89864
 11
54.9571
 21
-9.9668
  0
LINE
  8
0
 10
54.9571
 20
-9.9668
 11
55.0247
 21
-10.0276
  0
LINE
  8
0
 10
55.0247
 20
-10.0276
 11
55.1002
 21
-10.0808
  0
LINE
  8
0
 10
55.1002
 20
-10.0808
 11
55.1836
 21
-10.1266
  0
LINE
  8
0
 10
55.1836
 20
-10.1266
 11
55.2749
 21
-10.165
  0
LINE
  8
0
 10
55.2749
 20
-10.165
 11
55.3739
 21
-10.1962
  0
LINE
  8
0
 10
55.3739
 20
-10.1962
 11
55.4807
 21
-10.2204
  0
LINE
  8
0
 10
55.4807
 20
-10.2204
 11
55.5951
 21
-10.2375
  0
LINE
  8
0
 10
55.5951
 20
-10.2375
 11
55.7173
 21
-10.2477
  0
LINE
  8
0
 10
55.7173
 20
-10.2477
 11
55.8473
 21
-10.2511
  0
LINE
  8
0
 10
55.8473
 20
-10.2511
 11
55.989
 21
-10.2472
  0
LINE
  8
0
 10
82.4313
 20
-7.72849
 11
81.8312
 21
-7.72849
  0
LINE
  8
0
 10
81.8312
 20
-7.72849
 11
81.8312
 21
-10.2172
  0
LINE
  8
0
 10
81.8312
 20
-10.2172
 11
82.4313
 21
-10.2172
  0
LINE
  8
0
 10
82.4313
 20
-10.2172
 11
82.4313
 21
-7.72849
  0
LINE
  8
0
 10
90.1008
 20
-8.75807
 11
90.1002
 21
-8.70854
  0
LINE
  8
0
 10
90.1002
 20
-8.70854
 11
90.0983
 21
-8.65457
  0
LINE
  8
0
 10
90.0983
 20
-8.65457
 11
90.0951
 21
-8.59645
  0
LINE
  8
0
 10
90.0951
 20
-8.59645
 11
90.0923
 21
-8.5565
  0
LINE
  8
0
 10
90.0923
 20
-8.5565
 11
91.032
 21
-10.2172
  0
LINE
  8
0
 10
91.032
 20
-10.2172
 11
91.6978
 21
-10.2172
  0
LINE
  8
0
 10
91.6978
 20
-10.2172
 11
91.6978
 21
-7.72849
  0
LINE
  8
0
 10
91.6978
 20
-7.72849
 11
91.1536
 21
-7.72849
  0
LINE
  8
0
 10
91.1536
 20
-7.72849
 11
91.1536
 21
-9.16722
  0
LINE
  8
0
 10
91.1536
 20
-9.16722
 11
91.1543
 21
-9.22894
  0
LINE
  8
0
 10
91.1543
 20
-9.22894
 11
91.1562
 21
-9.29274
  0
LINE
  8
0
 10
91.1562
 20
-9.29274
 11
91.1593
 21
-9.35838
  0
LINE
  8
0
 10
91.1593
 20
-9.35838
 11
91.1624
 21
-9.40622
  0
LINE
  8
0
 10
91.1624
 20
-9.40622
 11
90.207
 21
-7.72849
  0
LINE
  8
0
 10
90.207
 20
-7.72849
 11
89.5566
 21
-7.72849
  0
LINE
  8
0
 10
89.5566
 20
-7.72849
 11
89.5566
 21
-10.2172
  0
LINE
  8
0
 10
89.5566
 20
-10.2172
 11
90.1008
 21
-10.2172
  0
LINE
  8
0
 10
90.1008
 20
-10.2172
 11
90.1008
 21
-8.75807
  0
LINE
  8
0
 10
94.6496
 20
-9.76285
 11
94.102
 21
-9.76285
  0
LINE
  8
0
 10
94.102
 20
-9.76285
 11
94.102
 21
-7.72849
  0
LINE
  8
0
 10
94.102
 20
-7.72849
 11
93.5862
 21
-7.72849
  0
LINE
  8
0
 10
93.5862
 20
-7.72849
 11
92.9526
 21
-8.13956
  0
LINE
  8
0
 10
92.9526
 20
-8.13956
 11
92.9526
 21
-8.63156
  0
LINE
  8
0
 10
92.9526
 20
-8.63156
 11
93.5256
 21
-8.27383
  0
LINE
  8
0
 10
93.5256
 20
-8.27383
 11
93.5256
 21
-9.76285
  0
LINE
  8
0
 10
93.5256
 20
-9.76285
 11
92.9339
 21
-9.76285
  0
LINE
  8
0
 10
92.9339
 20
-9.76285
 11
92.9339
 21
-10.2172
  0
LINE
  8
0
 10
92.9339
 20
-10.2172
 11
94.6496
 21
-10.2172
  0
LINE
  8
0
 10
94.6496
 20
-10.2172
 11
94.6496
 21
-9.76285
  0
LINE
  8
0
 10
89.2147
 20
-7.72849
 11
88.6145
 21
-7.72849
  0
LINE
  8
0
 10
88.6145
 20
-7.72849
 11
88.6145
 21
-10.2172
  0
LINE
  8
0
 10
88.6145
 20
-10.2172
 11
89.2147
 21
-10.2172
  0
LINE
  8
0
 10
89.2147
 20
-10.2172
 11
89.2147
 21
-7.72849
  0
LINE
  8
0
 10
61.3147
 20
-7.72849
 11
60.7145
 21
-7.72849
  0
LINE
  8
0
 10
60.7145
 20
-7.72849
 11
60.7145
 21
-10.2172
  0
LINE
  8
0
 10
60.7145
 20
-10.2172
 11
61.3147
 21
-10.2172
  0
LINE
  8
0
 10
61.3147
 20
-10.2172
 11
61.3147
 21
-7.72849
  0
LINE
  8
0
 10
105.373
 20
-8.21503
 11
106.146
 21
-8.21503
  0
LINE
  8
0
 10
106.146
 20
-8.21503
 11
106.146
 21
-7.812
  0
LINE
  8
0
 10
106.146
 20
-7.812
 11
106.882
 21
-8.91118
  0
LINE
  8
0
 10
106.882
 20
-8.91118
 11
106.022
 21
-10.2172
  0
LINE
  8
0
 10
106.022
 20
-10.2172
 11
106.671
 21
-10.2172
  0
LINE
  8
0
 10
106.671
 20
-10.2172
 11
107.244
 21
-9.3098
  0
LINE
  8
0
 10
107.244
 20
-9.3098
 11
107.816
 21
-10.2172
  0
LINE
  8
0
 10
107.816
 20
-10.2172
 11
108.46
 21
-10.2172
  0
LINE
  8
0
 10
108.46
 20
-10.2172
 11
107.633
 21
-8.91113
  0
LINE
  8
0
 10
107.633
 20
-8.91113
 11
108.391
 21
-7.72849
  0
LINE
  8
0
 10
108.391
 20
-7.72849
 11
107.747
 21
-7.72849
  0
LINE
  8
0
 10
107.747
 20
-7.72849
 11
107.244
 21
-8.52881
  0
LINE
  8
0
 10
107.244
 20
-8.52881
 11
106.741
 21
-7.72849
  0
LINE
  8
0
 10
106.741
 20
-7.72849
 11
104.002
 21
-7.72849
  0
LINE
  8
0
 10
104.002
 20
-7.72849
 11
104.002
 21
-8.21503
  0
LINE
  8
0
 10
104.002
 20
-8.21503
 11
104.773
 21
-8.21503
  0
LINE
  8
0
 10
104.773
 20
-8.21503
 11
104.773
 21
-10.2172
  0
LINE
  8
0
 10
104.773
 20
-10.2172
 11
105.373
 21
-10.2172
  0
LINE
  8
0
 10
105.373
 20
-10.2172
 11
105.373
 21
-8.21503
  0
LINE
  8
0
 10
62.2008
 20
-8.75807
 11
62.2002
 21
-8.70854
  0
LINE
  8
0
 10
62.2002
 20
-8.70854
 11
62.1983
 21
-8.65457
  0
LINE
  8
0
 10
62.1983
 20
-8.65457
 11
62.1951
 21
-8.59645
  0
LINE
  8
0
 10
62.1951
 20
-8.59645
 11
62.1923
 21
-8.5565
  0
LINE
  8
0
 10
62.1923
 20
-8.5565
 11
63.132
 21
-10.2172
  0
LINE
  8
0
 10
63.132
 20
-10.2172
 11
63.7978
 21
-10.2172
  0
LINE
  8
0
 10
63.7978
 20
-10.2172
 11
63.7978
 21
-7.72849
  0
LINE
  8
0
 10
63.7978
 20
-7.72849
 11
63.2536
 21
-7.72849
  0
LINE
  8
0
 10
63.2536
 20
-7.72849
 11
63.2536
 21
-9.16722
  0
LINE
  8
0
 10
63.2536
 20
-9.16722
 11
63.2543
 21
-9.22894
  0
LINE
  8
0
 10
63.2543
 20
-9.22894
 11
63.2562
 21
-9.29274
  0
LINE
  8
0
 10
63.2562
 20
-9.29274
 11
63.2593
 21
-9.35838
  0
LINE
  8
0
 10
63.2593
 20
-9.35838
 11
63.2625
 21
-9.40622
  0
LINE
  8
0
 10
63.2625
 20
-9.40622
 11
62.307
 21
-7.72849
  0
LINE
  8
0
 10
62.307
 20
-7.72849
 11
61.6566
 21
-7.72849
  0
LINE
  8
0
 10
61.6566
 20
-7.72849
 11
61.6566
 21
-10.2172
  0
LINE
  8
0
 10
61.6566
 20
-10.2172
 11
62.2008
 21
-10.2172
  0
LINE
  8
0
 10
62.2008
 20
-10.2172
 11
62.2008
 21
-8.75807
  0
LINE
  8
0
 10
115.156
 20
-7.72849
 11
114.556
 21
-7.72849
  0
LINE
  8
0
 10
114.556
 20
-7.72849
 11
114.556
 21
-10.2172
  0
LINE
  8
0
 10
114.556
 20
-10.2172
 11
115.156
 21
-10.2172
  0
LINE
  8
0
 10
115.156
 20
-10.2172
 11
115.156
 21
-7.72849
  0
LINE
  8
0
 10
117.38
 20
-9.73065
 11
116.098
 21
-9.73065
  0
LINE
  8
0
 10
116.098
 20
-9.73065
 11
116.098
 21
-7.72849
  0
LINE
  8
0
 10
116.098
 20
-7.72849
 11
115.498
 21
-7.72849
  0
LINE
  8
0
 10
115.498
 20
-7.72849
 11
115.498
 21
-10.2172
  0
LINE
  8
0
 10
115.498
 20
-10.2172
 11
117.38
 21
-10.2172
  0
LINE
  8
0
 10
117.38
 20
-10.2172
 11
117.38
 21
-9.73065
  0
LINE
  8
0
 10
127.108
 20
-8.21503
 11
128.58
 21
-8.21503
  0
LINE
  8
0
 10
128.58
 20
-8.21503
 11
128.58
 21
-10.2172
  0
LINE
  8
0
 10
128.58
 20
-10.2172
 11
129.18
 21
-10.2172
  0
LINE
  8
0
 10
129.18
 20
-10.2172
 11
129.18
 21
-8.21503
  0
LINE
  8
0
 10
129.18
 20
-8.21503
 11
129.953
 21
-8.21503
  0
LINE
  8
0
 10
129.953
 20
-8.21503
 11
129.953
 21
-7.72849
  0
LINE
  8
0
 10
129.953
 20
-7.72849
 11
125.737
 21
-7.72849
  0
LINE
  8
0
 10
125.737
 20
-7.72849
 11
125.737
 21
-8.21503
  0
LINE
  8
0
 10
125.737
 20
-8.21503
 11
126.508
 21
-8.21503
  0
LINE
  8
0
 10
126.508
 20
-8.21503
 11
126.508
 21
-10.2172
  0
LINE
  8
0
 10
126.508
 20
-10.2172
 11
127.108
 21
-10.2172
  0
LINE
  8
0
 10
127.108
 20
-10.2172
 11
127.108
 21
-8.21503
  0
LINE
  8
0
 10
54.5313
 20
-7.72849
 11
53.9312
 21
-7.72849
  0
LINE
  8
0
 10
53.9312
 20
-7.72849
 11
53.9312
 21
-10.2172
  0
LINE
  8
0
 10
53.9312
 20
-10.2172
 11
54.5313
 21
-10.2172
  0
LINE
  8
0
 10
54.5313
 20
-10.2172
 11
54.5313
 21
-7.72849
  0
LINE
  8
0
 10
131.954
 20
-9.73065
 11
130.673
 21
-9.73065
  0
LINE
  8
0
 10
130.673
 20
-9.73065
 11
130.673
 21
-7.72849
  0
LINE
  8
0
 10
130.673
 20
-7.72849
 11
130.073
 21
-7.72849
  0
LINE
  8
0
 10
130.073
 20
-7.72849
 11
130.073
 21
-10.2172
  0
LINE
  8
0
 10
130.073
 20
-10.2172
 11
131.954
 21
-10.2172
  0
LINE
  8
0
 10
131.954
 20
-10.2172
 11
131.954
 21
-9.73065
  0
LINE
  8
0
 10
134.727
 20
-9.76285
 11
134.179
 21
-9.76285
  0
LINE
  8
0
 10
134.179
 20
-9.76285
 11
134.179
 21
-7.72849
  0
LINE
  8
0
 10
134.179
 20
-7.72849
 11
133.664
 21
-7.72849
  0
LINE
  8
0
 10
133.664
 20
-7.72849
 11
133.03
 21
-8.13956
  0
LINE
  8
0
 10
133.03
 20
-8.13956
 11
133.03
 21
-8.63156
  0
LINE
  8
0
 10
133.03
 20
-8.63156
 11
133.603
 21
-8.27383
  0
LINE
  8
0
 10
133.603
 20
-8.27383
 11
133.603
 21
-9.76285
  0
LINE
  8
0
 10
133.603
 20
-9.76285
 11
133.011
 21
-9.76285
  0
LINE
  8
0
 10
133.011
 20
-9.76285
 11
133.011
 21
-10.2172
  0
LINE
  8
0
 10
133.011
 20
-10.2172
 11
134.727
 21
-10.2172
  0
LINE
  8
0
 10
134.727
 20
-10.2172
 11
134.727
 21
-9.76285
  0
LINE
  8
0
 10
136.603
 20
-9.01352
 11
134.783
 21
-9.01352
  0
LINE
  8
0
 10
134.783
 20
-9.01352
 11
134.783
 21
-9.45769
  0
LINE
  8
0
 10
134.783
 20
-9.45769
 11
136.603
 21
-9.45769
  0
LINE
  8
0
 10
136.603
 20
-9.45769
 11
136.603
 21
-9.01352
  0
ENDSEC
  0
SECTION
  2
OBJECTS
  0
DICTIONARY
  0
ENDSEC
  0
EOF
