  0
SECTION
  2
BLOCKS
  0
ENDSEC
  0
SECTION
  2
ENTITIES
  0
LINE
  8
0
 10
71.075
 20
35.275
 11
-46.075
 21
35.275
  0
LINE
  8
0
 10
-46.075
 20
35.275
 11
-46.075
 21
-35.275
  0
LINE
  8
0
 10
-46.075
 20
-35.275
 11
71.075
 21
-35.275
  0
LINE
  8
0
 10
71.075
 20
-35.275
 11
71.075
 21
35.275
  0
LINE
  8
0
 10
-42.8072
 20
27.6556
 11
-43.1026
 21
27.7452
  0
LINE
  8
0
 10
-43.1026
 20
27.7452
 11
-43.3749
 21
27.8907
  0
LINE
  8
0
 10
-43.3749
 20
27.8907
 11
-43.6134
 21
28.0865
  0
LINE
  8
0
 10
-43.6134
 20
28.0865
 11
-43.8092
 21
28.3251
  0
LINE
  8
0
 10
-43.8092
 20
28.3251
 11
-43.9548
 21
28.5974
  0
LINE
  8
0
 10
-43.9548
 20
28.5974
 11
-44.0444
 21
28.8928
  0
LINE
  8
0
 10
-44.0444
 20
28.8928
 11
-44.0746
 21
29.2
  0
LINE
  8
0
 10
-44.0746
 20
29.2
 11
-44.0444
 21
29.5072
  0
LINE
  8
0
 10
-44.0444
 20
29.5072
 11
-43.9548
 21
29.8026
  0
LINE
  8
0
 10
-43.9548
 20
29.8026
 11
-43.8092
 21
30.0749
  0
LINE
  8
0
 10
-43.8092
 20
30.0749
 11
-43.6134
 21
30.3134
  0
LINE
  8
0
 10
-43.6134
 20
30.3134
 11
-43.3749
 21
30.5092
  0
LINE
  8
0
 10
-43.3749
 20
30.5092
 11
-43.1026
 21
30.6548
  0
LINE
  8
0
 10
-43.1026
 20
30.6548
 11
-42.8072
 21
30.7444
  0
LINE
  8
0
 10
-42.8072
 20
30.7444
 11
-42.5
 21
30.7746
  0
LINE
  8
0
 10
-42.5
 20
30.7746
 11
-42.1928
 21
30.7444
  0
LINE
  8
0
 10
-42.1928
 20
30.7444
 11
-41.8974
 21
30.6548
  0
LINE
  8
0
 10
-41.8974
 20
30.6548
 11
-41.6251
 21
30.5092
  0
LINE
  8
0
 10
-41.6251
 20
30.5092
 11
-41.3866
 21
30.3134
  0
LINE
  8
0
 10
-41.3866
 20
30.3134
 11
-41.1908
 21
30.0749
  0
LINE
  8
0
 10
-41.1908
 20
30.0749
 11
-41.0452
 21
29.8026
  0
LINE
  8
0
 10
-41.0452
 20
29.8026
 11
-40.9556
 21
29.5072
  0
LINE
  8
0
 10
-40.9556
 20
29.5072
 11
-40.9254
 21
29.2
  0
LINE
  8
0
 10
-40.9254
 20
29.2
 11
-40.9556
 21
28.8928
  0
LINE
  8
0
 10
-40.9556
 20
28.8928
 11
-41.0452
 21
28.5974
  0
LINE
  8
0
 10
-41.0452
 20
28.5974
 11
-41.1908
 21
28.3251
  0
LINE
  8
0
 10
-41.1908
 20
28.3251
 11
-41.3866
 21
28.0865
  0
LINE
  8
0
 10
-41.3866
 20
28.0865
 11
-41.6251
 21
27.8907
  0
LINE
  8
0
 10
-41.6251
 20
27.8907
 11
-41.8974
 21
27.7452
  0
LINE
  8
0
 10
-41.8974
 20
27.7452
 11
-42.1928
 21
27.6556
  0
LINE
  8
0
 10
-42.1928
 20
27.6556
 11
-42.5
 21
27.6254
  0
LINE
  8
0
 10
-42.5
 20
27.6254
 11
-42.8072
 21
27.6556
  0
LINE
  8
0
 10
67.1928
 20
27.6556
 11
66.8974
 21
27.7452
  0
LINE
  8
0
 10
66.8974
 20
27.7452
 11
66.6251
 21
27.8907
  0
LINE
  8
0
 10
66.6251
 20
27.8907
 11
66.3866
 21
28.0865
  0
LINE
  8
0
 10
66.3866
 20
28.0865
 11
66.1908
 21
28.3251
  0
LINE
  8
0
 10
66.1908
 20
28.3251
 11
66.0452
 21
28.5974
  0
LINE
  8
0
 10
66.0452
 20
28.5974
 11
65.9556
 21
28.8928
  0
LINE
  8
0
 10
65.9556
 20
28.8928
 11
65.9254
 21
29.2
  0
LINE
  8
0
 10
65.9254
 20
29.2
 11
65.9556
 21
29.5072
  0
LINE
  8
0
 10
65.9556
 20
29.5072
 11
66.0452
 21
29.8026
  0
LINE
  8
0
 10
66.0452
 20
29.8026
 11
66.1908
 21
30.0749
  0
LINE
  8
0
 10
66.1908
 20
30.0749
 11
66.3866
 21
30.3134
  0
LINE
  8
0
 10
66.3866
 20
30.3134
 11
66.6251
 21
30.5092
  0
LINE
  8
0
 10
66.6251
 20
30.5092
 11
66.8974
 21
30.6548
  0
LINE
  8
0
 10
66.8974
 20
30.6548
 11
67.1928
 21
30.7444
  0
LINE
  8
0
 10
67.1928
 20
30.7444
 11
67.5
 21
30.7746
  0
LINE
  8
0
 10
67.5
 20
30.7746
 11
67.8072
 21
30.7444
  0
LINE
  8
0
 10
67.8072
 20
30.7444
 11
68.1026
 21
30.6548
  0
LINE
  8
0
 10
68.1026
 20
30.6548
 11
68.3749
 21
30.5092
  0
LINE
  8
0
 10
68.3749
 20
30.5092
 11
68.6134
 21
30.3134
  0
LINE
  8
0
 10
68.6134
 20
30.3134
 11
68.8092
 21
30.0749
  0
LINE
  8
0
 10
68.8092
 20
30.0749
 11
68.9548
 21
29.8026
  0
LINE
  8
0
 10
68.9548
 20
29.8026
 11
69.0444
 21
29.5072
  0
LINE
  8
0
 10
69.0444
 20
29.5072
 11
69.0746
 21
29.2
  0
LINE
  8
0
 10
69.0746
 20
29.2
 11
69.0444
 21
28.8928
  0
LINE
  8
0
 10
69.0444
 20
28.8928
 11
68.9548
 21
28.5974
  0
LINE
  8
0
 10
68.9548
 20
28.5974
 11
68.8092
 21
28.3251
  0
LINE
  8
0
 10
68.8092
 20
28.3251
 11
68.6134
 21
28.0865
  0
LINE
  8
0
 10
68.6134
 20
28.0865
 11
68.3749
 21
27.8907
  0
LINE
  8
0
 10
68.3749
 20
27.8907
 11
68.1026
 21
27.7452
  0
LINE
  8
0
 10
68.1026
 20
27.7452
 11
67.8072
 21
27.6556
  0
LINE
  8
0
 10
67.8072
 20
27.6556
 11
67.5
 21
27.6254
  0
LINE
  8
0
 10
67.5
 20
27.6254
 11
67.1928
 21
27.6556
  0
LINE
  8
0
 10
32.975
 20
10.575
 11
32.975
 21
22.625
  0
LINE
  8
0
 10
32.975
 20
22.625
 11
39.025
 21
22.625
  0
LINE
  8
0
 10
39.025
 20
22.625
 11
39.025
 21
10.575
  0
LINE
  8
0
 10
39.025
 20
10.575
 11
32.975
 21
10.575
  0
LINE
  8
0
 10
-36.025
 20
10.575
 11
-36.025
 21
22.625
  0
LINE
  8
0
 10
-36.025
 20
22.625
 11
-29.975
 21
22.625
  0
LINE
  8
0
 10
-29.975
 20
22.625
 11
-29.975
 21
10.575
  0
LINE
  8
0
 10
-29.975
 20
10.575
 11
-36.025
 21
10.575
  0
LINE
  8
0
 10
59.975
 20
-5.02499
 11
59.975
 21
5.02499
  0
LINE
  8
0
 10
59.975
 20
5.02499
 11
66.025
 21
5.02499
  0
LINE
  8
0
 10
66.025
 20
5.02499
 11
66.025
 21
-5.02499
  0
LINE
  8
0
 10
66.025
 20
-5.02499
 11
59.975
 21
-5.02499
  0
LINE
  8
0
 10
-0.633957
 20
-3.18718
 11
-1.24359
 21
-3.00226
  0
LINE
  8
0
 10
-1.24359
 20
-3.00226
 11
-1.80544
 21
-2.70195
  0
LINE
  8
0
 10
-1.80544
 20
-2.70195
 11
-2.29784
 21
-2.29784
  0
LINE
  8
0
 10
-2.29784
 20
-2.29784
 11
-2.70195
 21
-1.80544
  0
LINE
  8
0
 10
-2.70195
 20
-1.80544
 11
-3.00226
 21
-1.24359
  0
LINE
  8
0
 10
-3.00226
 20
-1.24359
 11
-3.18718
 21
-0.633957
  0
LINE
  8
0
 10
-3.18718
 20
-0.633957
 11
-3.24963
 21
0
  0
LINE
  8
0
 10
-3.24963
 20
0
 11
-3.18718
 21
0.633957
  0
LINE
  8
0
 10
-3.18718
 20
0.633957
 11
-3.00226
 21
1.24359
  0
LINE
  8
0
 10
-3.00226
 20
1.24359
 11
-2.70195
 21
1.80544
  0
LINE
  8
0
 10
-2.70195
 20
1.80544
 11
-2.29784
 21
2.29784
  0
LINE
  8
0
 10
-2.29784
 20
2.29784
 11
-1.80544
 21
2.70195
  0
LINE
  8
0
 10
-1.80544
 20
2.70195
 11
-1.24359
 21
3.00226
  0
LINE
  8
0
 10
-1.24359
 20
3.00226
 11
-0.633957
 21
3.18718
  0
LINE
  8
0
 10
-0.633957
 20
3.18718
 11
0
 21
3.24963
  0
LINE
  8
0
 10
0
 20
3.24963
 11
0.633957
 21
3.18718
  0
LINE
  8
0
 10
0.633957
 20
3.18718
 11
1.24359
 21
3.00226
  0
LINE
  8
0
 10
1.24359
 20
3.00226
 11
1.80544
 21
2.70195
  0
LINE
  8
0
 10
1.80544
 20
2.70195
 11
2.29784
 21
2.29784
  0
LINE
  8
0
 10
2.29784
 20
2.29784
 11
2.70195
 21
1.80544
  0
LINE
  8
0
 10
2.70195
 20
1.80544
 11
3.00226
 21
1.24359
  0
LINE
  8
0
 10
3.00226
 20
1.24359
 11
3.18718
 21
0.633957
  0
LINE
  8
0
 10
3.18718
 20
0.633957
 11
3.24963
 21
0
  0
LINE
  8
0
 10
3.24963
 20
0
 11
3.18718
 21
-0.633957
  0
LINE
  8
0
 10
3.18718
 20
-0.633957
 11
3.00226
 21
-1.24359
  0
LINE
  8
0
 10
3.00226
 20
-1.24359
 11
2.70195
 21
-1.80544
  0
LINE
  8
0
 10
2.70195
 20
-1.80544
 11
2.29784
 21
-2.29784
  0
LINE
  8
0
 10
2.29784
 20
-2.29784
 11
1.80544
 21
-2.70195
  0
LINE
  8
0
 10
1.80544
 20
-2.70195
 11
1.24359
 21
-3.00226
  0
LINE
  8
0
 10
1.24359
 20
-3.00226
 11
0.633957
 21
-3.18718
  0
LINE
  8
0
 10
0.633957
 20
-3.18718
 11
0
 21
-3.24963
  0
LINE
  8
0
 10
0
 20
-3.24963
 11
-0.633957
 21
-3.18718
  0
LINE
  8
0
 10
32.975
 20
-22.625
 11
32.975
 21
-10.575
  0
LINE
  8
0
 10
32.975
 20
-10.575
 11
39.025
 21
-10.575
  0
LINE
  8
0
 10
39.025
 20
-10.575
 11
39.025
 21
-22.625
  0
LINE
  8
0
 10
39.025
 20
-22.625
 11
32.975
 21
-22.625
  0
LINE
  8
0
 10
-36.025
 20
-22.625
 11
-36.025
 21
-10.575
  0
LINE
  8
0
 10
-36.025
 20
-10.575
 11
-29.975
 21
-10.575
  0
LINE
  8
0
 10
-29.975
 20
-10.575
 11
-29.975
 21
-22.625
  0
LINE
  8
0
 10
-29.975
 20
-22.625
 11
-36.025
 21
-22.625
  0
LINE
  8
0
 10
-42.8072
 20
-30.7444
 11
-43.1026
 21
-30.6548
  0
LINE
  8
0
 10
-43.1026
 20
-30.6548
 11
-43.3749
 21
-30.5092
  0
LINE
  8
0
 10
-43.3749
 20
-30.5092
 11
-43.6134
 21
-30.3134
  0
LINE
  8
0
 10
-43.6134
 20
-30.3134
 11
-43.8092
 21
-30.0749
  0
LINE
  8
0
 10
-43.8092
 20
-30.0749
 11
-43.9548
 21
-29.8026
  0
LINE
  8
0
 10
-43.9548
 20
-29.8026
 11
-44.0444
 21
-29.5072
  0
LINE
  8
0
 10
-44.0444
 20
-29.5072
 11
-44.0746
 21
-29.2
  0
LINE
  8
0
 10
-44.0746
 20
-29.2
 11
-44.0444
 21
-28.8928
  0
LINE
  8
0
 10
-44.0444
 20
-28.8928
 11
-43.9548
 21
-28.5974
  0
LINE
  8
0
 10
-43.9548
 20
-28.5974
 11
-43.8092
 21
-28.3251
  0
LINE
  8
0
 10
-43.8092
 20
-28.3251
 11
-43.6134
 21
-28.0865
  0
LINE
  8
0
 10
-43.6134
 20
-28.0865
 11
-43.3749
 21
-27.8907
  0
LINE
  8
0
 10
-43.3749
 20
-27.8907
 11
-43.1026
 21
-27.7452
  0
LINE
  8
0
 10
-43.1026
 20
-27.7452
 11
-42.8072
 21
-27.6556
  0
LINE
  8
0
 10
-42.8072
 20
-27.6556
 11
-42.5
 21
-27.6254
  0
LINE
  8
0
 10
-42.5
 20
-27.6254
 11
-42.1928
 21
-27.6556
  0
LINE
  8
0
 10
-42.1928
 20
-27.6556
 11
-41.8974
 21
-27.7452
  0
LINE
  8
0
 10
-41.8974
 20
-27.7452
 11
-41.6251
 21
-27.8907
  0
LINE
  8
0
 10
-41.6251
 20
-27.8907
 11
-41.3866
 21
-28.0865
  0
LINE
  8
0
 10
-41.3866
 20
-28.0865
 11
-41.1908
 21
-28.3251
  0
LINE
  8
0
 10
-41.1908
 20
-28.3251
 11
-41.0452
 21
-28.5974
  0
LINE
  8
0
 10
-41.0452
 20
-28.5974
 11
-40.9556
 21
-28.8928
  0
LINE
  8
0
 10
-40.9556
 20
-28.8928
 11
-40.9254
 21
-29.2
  0
LINE
  8
0
 10
-40.9254
 20
-29.2
 11
-40.9556
 21
-29.5072
  0
LINE
  8
0
 10
-40.9556
 20
-29.5072
 11
-41.0452
 21
-29.8026
  0
LINE
  8
0
 10
-41.0452
 20
-29.8026
 11
-41.1908
 21
-30.0749
  0
LINE
  8
0
 10
-41.1908
 20
-30.0749
 11
-41.3866
 21
-30.3134
  0
LINE
  8
0
 10
-41.3866
 20
-30.3134
 11
-41.6251
 21
-30.5092
  0
LINE
  8
0
 10
-41.6251
 20
-30.5092
 11
-41.8974
 21
-30.6548
  0
LINE
  8
0
 10
-41.8974
 20
-30.6548
 11
-42.1928
 21
-30.7444
  0
LINE
  8
0
 10
-42.1928
 20
-30.7444
 11
-42.5
 21
-30.7746
  0
LINE
  8
0
 10
-42.5
 20
-30.7746
 11
-42.8072
 21
-30.7444
  0
LINE
  8
0
 10
67.1928
 20
-30.7444
 11
66.8974
 21
-30.6548
  0
LINE
  8
0
 10
66.8974
 20
-30.6548
 11
66.6251
 21
-30.5092
  0
LINE
  8
0
 10
66.6251
 20
-30.5092
 11
66.3866
 21
-30.3134
  0
LINE
  8
0
 10
66.3866
 20
-30.3134
 11
66.1908
 21
-30.0749
  0
LINE
  8
0
 10
66.1908
 20
-30.0749
 11
66.0452
 21
-29.8026
  0
LINE
  8
0
 10
66.0452
 20
-29.8026
 11
65.9556
 21
-29.5072
  0
LINE
  8
0
 10
65.9556
 20
-29.5072
 11
65.9254
 21
-29.2
  0
LINE
  8
0
 10
65.9254
 20
-29.2
 11
65.9556
 21
-28.8928
  0
LINE
  8
0
 10
65.9556
 20
-28.8928
 11
66.0452
 21
-28.5974
  0
LINE
  8
0
 10
66.0452
 20
-28.5974
 11
66.1908
 21
-28.3251
  0
LINE
  8
0
 10
66.1908
 20
-28.3251
 11
66.3866
 21
-28.0865
  0
LINE
  8
0
 10
66.3866
 20
-28.0865
 11
66.6251
 21
-27.8907
  0
LINE
  8
0
 10
66.6251
 20
-27.8907
 11
66.8974
 21
-27.7452
  0
LINE
  8
0
 10
66.8974
 20
-27.7452
 11
67.1928
 21
-27.6556
  0
LINE
  8
0
 10
67.1928
 20
-27.6556
 11
67.5
 21
-27.6254
  0
LINE
  8
0
 10
67.5
 20
-27.6254
 11
67.8072
 21
-27.6556
  0
LINE
  8
0
 10
67.8072
 20
-27.6556
 11
68.1026
 21
-27.7452
  0
LINE
  8
0
 10
68.1026
 20
-27.7452
 11
68.3749
 21
-27.8907
  0
LINE
  8
0
 10
68.3749
 20
-27.8907
 11
68.6134
 21
-28.0865
  0
LINE
  8
0
 10
68.6134
 20
-28.0865
 11
68.8092
 21
-28.3251
  0
LINE
  8
0
 10
68.8092
 20
-28.3251
 11
68.9548
 21
-28.5974
  0
LINE
  8
0
 10
68.9548
 20
-28.5974
 11
69.0444
 21
-28.8928
  0
LINE
  8
0
 10
69.0444
 20
-28.8928
 11
69.0746
 21
-29.2
  0
LINE
  8
0
 10
69.0746
 20
-29.2
 11
69.0444
 21
-29.5072
  0
LINE
  8
0
 10
69.0444
 20
-29.5072
 11
68.9548
 21
-29.8026
  0
LINE
  8
0
 10
68.9548
 20
-29.8026
 11
68.8092
 21
-30.0749
  0
LINE
  8
0
 10
68.8092
 20
-30.0749
 11
68.6134
 21
-30.3134
  0
LINE
  8
0
 10
68.6134
 20
-30.3134
 11
68.3749
 21
-30.5092
  0
LINE
  8
0
 10
68.3749
 20
-30.5092
 11
68.1026
 21
-30.6548
  0
LINE
  8
0
 10
68.1026
 20
-30.6548
 11
67.8072
 21
-30.7444
  0
LINE
  8
0
 10
67.8072
 20
-30.7444
 11
67.5
 21
-30.7746
  0
LINE
  8
0
 10
67.5
 20
-30.7746
 11
67.1928
 21
-30.7444
  0
ENDSEC
  0
SECTION
  2
OBJECTS
  0
DICTIONARY
  0
ENDSEC
  0
EOF
