  0
SECTION
  2
BLOCKS
  0
ENDSEC
  0
SECTION
  2
ENTITIES
  0
LINE
  8
0
 10
-4.19946
 20
21.636
 11
-4.1468
 21
21.6384
  0
LINE
  8
0
 10
-4.1468
 20
21.6384
 11
-4.09621
 21
21.6423
  0
LINE
  8
0
 10
-4.09621
 20
21.6423
 11
-4.0477
 21
21.6479
  0
LINE
  8
0
 10
-4.0477
 20
21.6479
 11
-4.00125
 21
21.655
  0
LINE
  8
0
 10
-4.00125
 20
21.655
 11
-3.95688
 21
21.6637
  0
LINE
  8
0
 10
-3.95688
 20
21.6637
 11
-3.91458
 21
21.674
  0
LINE
  8
0
 10
-3.91458
 20
21.674
 11
-3.87436
 21
21.6858
  0
LINE
  8
0
 10
-3.87436
 20
21.6858
 11
-3.8362
 21
21.6993
  0
LINE
  8
0
 10
-3.8362
 20
21.6993
 11
-3.80013
 21
21.7143
  0
LINE
  8
0
 10
-3.80013
 20
21.7143
 11
-3.76611
 21
21.7309
  0
LINE
  8
0
 10
-3.76611
 20
21.7309
 11
-3.73418
 21
21.7491
  0
LINE
  8
0
 10
-3.73418
 20
21.7491
 11
-3.70432
 21
21.7689
  0
LINE
  8
0
 10
-3.70432
 20
21.7689
 11
-3.67659
 21
21.7901
  0
LINE
  8
0
 10
-3.67659
 20
21.7901
 11
-3.65109
 21
21.8128
  0
LINE
  8
0
 10
-3.65109
 20
21.8128
 11
-3.62781
 21
21.8369
  0
LINE
  8
0
 10
-3.62781
 20
21.8369
 11
-3.60675
 21
21.8624
  0
LINE
  8
0
 10
-3.60675
 20
21.8624
 11
-3.58789
 21
21.8893
  0
LINE
  8
0
 10
-3.58789
 20
21.8893
 11
-3.57126
 21
21.9176
  0
LINE
  8
0
 10
-3.57126
 20
21.9176
 11
-3.55685
 21
21.9473
  0
LINE
  8
0
 10
-3.55685
 20
21.9473
 11
-3.54466
 21
21.9785
  0
LINE
  8
0
 10
-3.54466
 20
21.9785
 11
-3.53468
 21
22.011
  0
LINE
  8
0
 10
-3.53468
 20
22.011
 11
-3.52692
 21
22.0449
  0
LINE
  8
0
 10
-3.52692
 20
22.0449
 11
-3.52138
 21
22.0803
  0
LINE
  8
0
 10
-3.52138
 20
22.0803
 11
-3.51805
 21
22.117
  0
LINE
  8
0
 10
-3.51805
 20
22.117
 11
-3.51694
 21
22.1552
  0
LINE
  8
0
 10
-3.51694
 20
22.1552
 11
-3.51714
 21
22.1716
  0
LINE
  8
0
 10
-3.51714
 20
22.1716
 11
-3.51772
 21
22.1877
  0
LINE
  8
0
 10
-3.51772
 20
22.1877
 11
-3.51869
 21
22.2034
  0
LINE
  8
0
 10
-3.51869
 20
22.2034
 11
-3.52005
 21
22.2189
  0
LINE
  8
0
 10
-3.52005
 20
22.2189
 11
-3.5218
 21
22.2341
  0
LINE
  8
0
 10
-3.5218
 20
22.2341
 11
-3.52396
 21
22.249
  0
LINE
  8
0
 10
-3.52396
 20
22.249
 11
-3.52649
 21
22.2636
  0
LINE
  8
0
 10
-3.52649
 20
22.2636
 11
-3.52942
 21
22.2779
  0
LINE
  8
0
 10
-3.52942
 20
22.2779
 11
-3.53273
 21
22.2919
  0
LINE
  8
0
 10
-3.53273
 20
22.2919
 11
-3.53644
 21
22.3056
  0
LINE
  8
0
 10
-3.53644
 20
22.3056
 11
-3.54053
 21
22.3191
  0
LINE
  8
0
 10
-3.54053
 20
22.3191
 11
-3.54501
 21
22.3322
  0
LINE
  8
0
 10
-3.54501
 20
22.3322
 11
-3.5499
 21
22.345
  0
LINE
  8
0
 10
-3.5499
 20
22.345
 11
-3.55515
 21
22.3575
  0
LINE
  8
0
 10
-3.55515
 20
22.3575
 11
-3.56073
 21
22.3698
  0
LINE
  8
0
 10
-3.56073
 20
22.3698
 11
-3.56667
 21
22.3818
  0
LINE
  8
0
 10
-3.56667
 20
22.3818
 11
-3.57295
 21
22.3935
  0
LINE
  8
0
 10
-3.57295
 20
22.3935
 11
-3.57957
 21
22.405
  0
LINE
  8
0
 10
-3.57957
 20
22.405
 11
-3.58656
 21
22.4161
  0
LINE
  8
0
 10
-3.58656
 20
22.4161
 11
-3.59389
 21
22.427
  0
LINE
  8
0
 10
-3.59389
 20
22.427
 11
-3.60156
 21
22.4376
  0
LINE
  8
0
 10
-3.60156
 20
22.4376
 11
-3.60957
 21
22.448
  0
LINE
  8
0
 10
-3.60957
 20
22.448
 11
-3.61794
 21
22.4581
  0
LINE
  8
0
 10
-3.61794
 20
22.4581
 11
-3.62665
 21
22.4678
  0
LINE
  8
0
 10
-3.62665
 20
22.4678
 11
-3.63571
 21
22.4774
  0
LINE
  8
0
 10
-3.63571
 20
22.4774
 11
-3.64511
 21
22.4866
  0
LINE
  8
0
 10
-3.64511
 20
22.4866
 11
-3.65495
 21
22.4956
  0
LINE
  8
0
 10
-3.65495
 20
22.4956
 11
-3.66531
 21
22.5045
  0
LINE
  8
0
 10
-3.66531
 20
22.5045
 11
-3.67621
 21
22.5131
  0
LINE
  8
0
 10
-3.67621
 20
22.5131
 11
-3.68764
 21
22.5216
  0
LINE
  8
0
 10
-3.68764
 20
22.5216
 11
-3.69958
 21
22.53
  0
LINE
  8
0
 10
-3.69958
 20
22.53
 11
-3.71207
 21
22.5381
  0
LINE
  8
0
 10
-3.71207
 20
22.5381
 11
-3.72507
 21
22.5461
  0
LINE
  8
0
 10
-3.72507
 20
22.5461
 11
-3.7386
 21
22.5539
  0
LINE
  8
0
 10
-3.7386
 20
22.5539
 11
-3.75266
 21
22.5615
  0
LINE
  8
0
 10
-3.75266
 20
22.5615
 11
-3.76724
 21
22.569
  0
LINE
  8
0
 10
-3.76724
 20
22.569
 11
-3.78236
 21
22.5763
  0
LINE
  8
0
 10
-3.78236
 20
22.5763
 11
-3.798
 21
22.5834
  0
LINE
  8
0
 10
-3.798
 20
22.5834
 11
-3.81416
 21
22.5903
  0
LINE
  8
0
 10
-3.81416
 20
22.5903
 11
-3.83144
 21
22.5972
  0
LINE
  8
0
 10
-3.83144
 20
22.5972
 11
-3.85037
 21
22.6042
  0
LINE
  8
0
 10
-3.85037
 20
22.6042
 11
-3.87097
 21
22.6113
  0
LINE
  8
0
 10
-3.87097
 20
22.6113
 11
-3.89323
 21
22.6185
  0
LINE
  8
0
 10
-3.89323
 20
22.6185
 11
-3.91718
 21
22.6258
  0
LINE
  8
0
 10
-3.91718
 20
22.6258
 11
-3.94278
 21
22.6332
  0
LINE
  8
0
 10
-3.94278
 20
22.6332
 11
-3.97006
 21
22.6406
  0
LINE
  8
0
 10
-3.97006
 20
22.6406
 11
-3.99901
 21
22.6482
  0
LINE
  8
0
 10
-3.99901
 20
22.6482
 11
-4.02962
 21
22.6558
  0
LINE
  8
0
 10
-4.02962
 20
22.6558
 11
-4.06189
 21
22.6636
  0
LINE
  8
0
 10
-4.06189
 20
22.6636
 11
-4.09584
 21
22.6714
  0
LINE
  8
0
 10
-4.09584
 20
22.6714
 11
-4.13147
 21
22.6794
  0
LINE
  8
0
 10
-4.13147
 20
22.6794
 11
-4.16875
 21
22.6874
  0
LINE
  8
0
 10
-4.16875
 20
22.6874
 11
-4.20003
 21
22.6942
  0
LINE
  8
0
 10
-4.20003
 20
22.6942
 11
-4.22966
 21
22.7009
  0
LINE
  8
0
 10
-4.22966
 20
22.7009
 11
-4.25761
 21
22.7074
  0
LINE
  8
0
 10
-4.25761
 20
22.7074
 11
-4.28391
 21
22.7137
  0
LINE
  8
0
 10
-4.28391
 20
22.7137
 11
-4.30855
 21
22.7199
  0
LINE
  8
0
 10
-4.30855
 20
22.7199
 11
-4.33153
 21
22.7258
  0
LINE
  8
0
 10
-4.33153
 20
22.7258
 11
-4.35284
 21
22.7316
  0
LINE
  8
0
 10
-4.35284
 20
22.7316
 11
-4.3725
 21
22.7372
  0
LINE
  8
0
 10
-4.3725
 20
22.7372
 11
-4.39049
 21
22.7426
  0
LINE
  8
0
 10
-4.39049
 20
22.7426
 11
-4.40681
 21
22.7478
  0
LINE
  8
0
 10
-4.40681
 20
22.7478
 11
-4.42149
 21
22.7529
  0
LINE
  8
0
 10
-4.42149
 20
22.7529
 11
-4.43449
 21
22.7578
  0
LINE
  8
0
 10
-4.43449
 20
22.7578
 11
-4.44585
 21
22.7624
  0
LINE
  8
0
 10
-4.44585
 20
22.7624
 11
-4.45616
 21
22.7671
  0
LINE
  8
0
 10
-4.45616
 20
22.7671
 11
-4.46608
 21
22.7719
  0
LINE
  8
0
 10
-4.46608
 20
22.7719
 11
-4.4756
 21
22.7769
  0
LINE
  8
0
 10
-4.4756
 20
22.7769
 11
-4.48473
 21
22.7821
  0
LINE
  8
0
 10
-4.48473
 20
22.7821
 11
-4.49345
 21
22.7874
  0
LINE
  8
0
 10
-4.49345
 20
22.7874
 11
-4.50179
 21
22.7928
  0
LINE
  8
0
 10
-4.50179
 20
22.7928
 11
-4.50972
 21
22.7984
  0
LINE
  8
0
 10
-4.50972
 20
22.7984
 11
-4.51726
 21
22.8041
  0
LINE
  8
0
 10
-4.51726
 20
22.8041
 11
-4.5244
 21
22.81
  0
LINE
  8
0
 10
-4.5244
 20
22.81
 11
-4.53114
 21
22.816
  0
LINE
  8
0
 10
-4.53114
 20
22.816
 11
-4.53749
 21
22.8222
  0
LINE
  8
0
 10
-4.53749
 20
22.8222
 11
-4.54343
 21
22.8286
  0
LINE
  8
0
 10
-4.54343
 20
22.8286
 11
-4.54898
 21
22.8351
  0
LINE
  8
0
 10
-4.54898
 20
22.8351
 11
-4.55412
 21
22.8418
  0
LINE
  8
0
 10
-4.55412
 20
22.8418
 11
-4.55887
 21
22.8488
  0
LINE
  8
0
 10
-4.55887
 20
22.8488
 11
-4.56319
 21
22.8561
  0
LINE
  8
0
 10
-4.56319
 20
22.8561
 11
-4.56709
 21
22.8637
  0
LINE
  8
0
 10
-4.56709
 20
22.8637
 11
-4.57059
 21
22.8716
  0
LINE
  8
0
 10
-4.57059
 20
22.8716
 11
-4.57368
 21
22.8797
  0
LINE
  8
0
 10
-4.57368
 20
22.8797
 11
-4.57635
 21
22.8882
  0
LINE
  8
0
 10
-4.57635
 20
22.8882
 11
-4.57861
 21
22.8969
  0
LINE
  8
0
 10
-4.57861
 20
22.8969
 11
-4.58047
 21
22.9059
  0
LINE
  8
0
 10
-4.58047
 20
22.9059
 11
-4.58191
 21
22.9153
  0
LINE
  8
0
 10
-4.58191
 20
22.9153
 11
-4.58293
 21
22.9249
  0
LINE
  8
0
 10
-4.58293
 20
22.9249
 11
-4.58356
 21
22.9348
  0
LINE
  8
0
 10
-4.58356
 20
22.9348
 11
-4.58376
 21
22.9449
  0
LINE
  8
0
 10
-4.58376
 20
22.9449
 11
-4.58182
 21
22.9753
  0
LINE
  8
0
 10
-4.58182
 20
22.9753
 11
-4.57602
 21
23.0032
  0
LINE
  8
0
 10
-4.57602
 20
23.0032
 11
-4.56635
 21
23.0287
  0
LINE
  8
0
 10
-4.56635
 20
23.0287
 11
-4.5528
 21
23.0517
  0
LINE
  8
0
 10
-4.5528
 20
23.0517
 11
-4.53537
 21
23.0723
  0
LINE
  8
0
 10
-4.53537
 20
23.0723
 11
-4.51407
 21
23.0905
  0
LINE
  8
0
 10
-4.51407
 20
23.0905
 11
-4.48891
 21
23.1063
  0
LINE
  8
0
 10
-4.48891
 20
23.1063
 11
-4.45987
 21
23.1197
  0
LINE
  8
0
 10
-4.45987
 20
23.1197
 11
-4.42697
 21
23.1306
  0
LINE
  8
0
 10
-4.42697
 20
23.1306
 11
-4.3902
 21
23.1391
  0
LINE
  8
0
 10
-4.3902
 20
23.1391
 11
-4.34955
 21
23.1451
  0
LINE
  8
0
 10
-4.34955
 20
23.1451
 11
-4.30502
 21
23.1488
  0
LINE
  8
0
 10
-4.30502
 20
23.1488
 11
-4.25662
 21
23.15
  0
LINE
  8
0
 10
-4.25662
 20
23.15
 11
-4.23338
 21
23.1497
  0
LINE
  8
0
 10
-4.23338
 20
23.1497
 11
-4.211
 21
23.1487
  0
LINE
  8
0
 10
-4.211
 20
23.1487
 11
-4.18945
 21
23.147
  0
LINE
  8
0
 10
-4.18945
 20
23.147
 11
-4.16875
 21
23.1447
  0
LINE
  8
0
 10
-4.16875
 20
23.1447
 11
-4.1489
 21
23.1417
  0
LINE
  8
0
 10
-4.1489
 20
23.1417
 11
-4.12988
 21
23.138
  0
LINE
  8
0
 10
-4.12988
 20
23.138
 11
-4.11171
 21
23.1337
  0
LINE
  8
0
 10
-4.11171
 20
23.1337
 11
-4.09439
 21
23.1287
  0
LINE
  8
0
 10
-4.09439
 20
23.1287
 11
-4.07791
 21
23.1231
  0
LINE
  8
0
 10
-4.07791
 20
23.1231
 11
-4.06227
 21
23.1168
  0
LINE
  8
0
 10
-4.06227
 20
23.1168
 11
-4.04749
 21
23.1098
  0
LINE
  8
0
 10
-4.04749
 20
23.1098
 11
-4.03355
 21
23.1021
  0
LINE
  8
0
 10
-4.03355
 20
23.1021
 11
-4.02045
 21
23.0938
  0
LINE
  8
0
 10
-4.02045
 20
23.0938
 11
-4.0081
 21
23.0849
  0
LINE
  8
0
 10
-4.0081
 20
23.0849
 11
-3.99641
 21
23.0753
  0
LINE
  8
0
 10
-3.99641
 20
23.0753
 11
-3.98538
 21
23.065
  0
LINE
  8
0
 10
-3.98538
 20
23.065
 11
-3.97501
 21
23.0541
  0
LINE
  8
0
 10
-3.97501
 20
23.0541
 11
-3.96529
 21
23.0425
  0
LINE
  8
0
 10
-3.96529
 20
23.0425
 11
-3.95622
 21
23.0303
  0
LINE
  8
0
 10
-3.95622
 20
23.0303
 11
-3.94781
 21
23.0175
  0
LINE
  8
0
 10
-3.94781
 20
23.0175
 11
-3.94008
 21
23.0039
  0
LINE
  8
0
 10
-3.94008
 20
23.0039
 11
-3.93298
 21
22.9898
  0
LINE
  8
0
 10
-3.93298
 20
22.9898
 11
-3.92656
 21
22.975
  0
LINE
  8
0
 10
-3.92656
 20
22.975
 11
-3.92078
 21
22.9595
  0
LINE
  8
0
 10
-3.92078
 20
22.9595
 11
-3.91566
 21
22.9434
  0
LINE
  8
0
 10
-3.91566
 20
22.9434
 11
-3.91121
 21
22.9266
  0
LINE
  8
0
 10
-3.91121
 20
22.9266
 11
-3.5621
 21
22.9742
  0
LINE
  8
0
 10
-3.5621
 20
22.9742
 11
-3.56992
 21
23.009
  0
LINE
  8
0
 10
-3.56992
 20
23.009
 11
-3.57907
 21
23.0421
  0
LINE
  8
0
 10
-3.57907
 20
23.0421
 11
-3.58958
 21
23.0737
  0
LINE
  8
0
 10
-3.58958
 20
23.0737
 11
-3.60146
 21
23.1038
  0
LINE
  8
0
 10
-3.60146
 20
23.1038
 11
-3.61467
 21
23.1324
  0
LINE
  8
0
 10
-3.61467
 20
23.1324
 11
-3.62923
 21
23.1594
  0
LINE
  8
0
 10
-3.62923
 20
23.1594
 11
-3.64514
 21
23.1848
  0
LINE
  8
0
 10
-3.64514
 20
23.1848
 11
-3.66241
 21
23.2087
  0
LINE
  8
0
 10
-3.66241
 20
23.2087
 11
-3.68103
 21
23.2311
  0
LINE
  8
0
 10
-3.68103
 20
23.2311
 11
-3.701
 21
23.2519
  0
LINE
  8
0
 10
-3.701
 20
23.2519
 11
-3.72232
 21
23.2711
  0
LINE
  8
0
 10
-3.72232
 20
23.2711
 11
-3.745
 21
23.2888
  0
LINE
  8
0
 10
-3.745
 20
23.2888
 11
-3.76901
 21
23.305
  0
LINE
  8
0
 10
-3.76901
 20
23.305
 11
-3.79465
 21
23.3198
  0
LINE
  8
0
 10
-3.79465
 20
23.3198
 11
-3.82216
 21
23.3335
  0
LINE
  8
0
 10
-3.82216
 20
23.3335
 11
-3.85158
 21
23.3459
  0
LINE
  8
0
 10
-3.85158
 20
23.3459
 11
-3.88286
 21
23.3571
  0
LINE
  8
0
 10
-3.88286
 20
23.3571
 11
-3.91605
 21
23.3672
  0
LINE
  8
0
 10
-3.91605
 20
23.3672
 11
-3.9511
 21
23.3761
  0
LINE
  8
0
 10
-3.9511
 20
23.3761
 11
-3.98805
 21
23.3838
  0
LINE
  8
0
 10
-3.98805
 20
23.3838
 11
-4.02689
 21
23.3903
  0
LINE
  8
0
 10
-4.02689
 20
23.3903
 11
-4.0676
 21
23.3956
  0
LINE
  8
0
 10
-4.0676
 20
23.3956
 11
-4.1102
 21
23.3998
  0
LINE
  8
0
 10
-4.1102
 20
23.3998
 11
-4.15469
 21
23.4027
  0
LINE
  8
0
 10
-4.15469
 20
23.4027
 11
-4.20107
 21
23.4045
  0
LINE
  8
0
 10
-4.20107
 20
23.4045
 11
-4.24931
 21
23.4051
  0
LINE
  8
0
 10
-4.24931
 20
23.4051
 11
-4.29984
 21
23.4044
  0
LINE
  8
0
 10
-4.29984
 20
23.4044
 11
-4.34845
 21
23.4022
  0
LINE
  8
0
 10
-4.34845
 20
23.4022
 11
-4.39519
 21
23.3985
  0
LINE
  8
0
 10
-4.39519
 20
23.3985
 11
-4.44005
 21
23.3934
  0
LINE
  8
0
 10
-4.44005
 20
23.3934
 11
-4.48302
 21
23.3868
  0
LINE
  8
0
 10
-4.48302
 20
23.3868
 11
-4.52411
 21
23.3787
  0
LINE
  8
0
 10
-4.52411
 20
23.3787
 11
-4.56331
 21
23.3692
  0
LINE
  8
0
 10
-4.56331
 20
23.3692
 11
-4.60062
 21
23.3582
  0
LINE
  8
0
 10
-4.60062
 20
23.3582
 11
-4.63605
 21
23.3457
  0
LINE
  8
0
 10
-4.63605
 20
23.3457
 11
-4.66959
 21
23.3318
  0
LINE
  8
0
 10
-4.66959
 20
23.3318
 11
-4.70125
 21
23.3164
  0
LINE
  8
0
 10
-4.70125
 20
23.3164
 11
-4.73103
 21
23.2995
  0
LINE
  8
0
 10
-4.73103
 20
23.2995
 11
-4.75891
 21
23.2812
  0
LINE
  8
0
 10
-4.75891
 20
23.2812
 11
-4.78484
 21
23.2615
  0
LINE
  8
0
 10
-4.78484
 20
23.2615
 11
-4.80867
 21
23.2405
  0
LINE
  8
0
 10
-4.80867
 20
23.2405
 11
-4.83043
 21
23.2182
  0
LINE
  8
0
 10
-4.83043
 20
23.2182
 11
-4.85013
 21
23.1946
  0
LINE
  8
0
 10
-4.85013
 20
23.1946
 11
-4.86774
 21
23.1698
  0
LINE
  8
0
 10
-4.86774
 20
23.1698
 11
-4.88329
 21
23.1436
  0
LINE
  8
0
 10
-4.88329
 20
23.1436
 11
-4.89676
 21
23.1161
  0
LINE
  8
0
 10
-4.89676
 20
23.1161
 11
-4.90817
 21
23.0874
  0
LINE
  8
0
 10
-4.90817
 20
23.0874
 11
-4.9175
 21
23.0573
  0
LINE
  8
0
 10
-4.9175
 20
23.0573
 11
-4.92474
 21
23.026
  0
LINE
  8
0
 10
-4.92474
 20
23.026
 11
-4.92993
 21
22.9933
  0
LINE
  8
0
 10
-4.92993
 20
22.9933
 11
-4.93304
 21
22.9594
  0
LINE
  8
0
 10
-4.93304
 20
22.9594
 11
-4.93408
 21
22.9242
  0
LINE
  8
0
 10
-4.93408
 20
22.9242
 11
-4.93393
 21
22.9102
  0
LINE
  8
0
 10
-4.93393
 20
22.9102
 11
-4.93352
 21
22.8965
  0
LINE
  8
0
 10
-4.93352
 20
22.8965
 11
-4.93282
 21
22.883
  0
LINE
  8
0
 10
-4.93282
 20
22.883
 11
-4.93182
 21
22.8698
  0
LINE
  8
0
 10
-4.93182
 20
22.8698
 11
-4.93056
 21
22.8568
  0
LINE
  8
0
 10
-4.93056
 20
22.8568
 11
-4.929
 21
22.8441
  0
LINE
  8
0
 10
-4.929
 20
22.8441
 11
-4.92717
 21
22.8316
  0
LINE
  8
0
 10
-4.92717
 20
22.8316
 11
-4.92506
 21
22.8194
  0
LINE
  8
0
 10
-4.92506
 20
22.8194
 11
-4.92267
 21
22.8074
  0
LINE
  8
0
 10
-4.92267
 20
22.8074
 11
-4.92
 21
22.7956
  0
LINE
  8
0
 10
-4.92
 20
22.7956
 11
-4.91704
 21
22.7841
  0
LINE
  8
0
 10
-4.91704
 20
22.7841
 11
-4.9138
 21
22.7729
  0
LINE
  8
0
 10
-4.9138
 20
22.7729
 11
-4.91028
 21
22.7618
  0
LINE
  8
0
 10
-4.91028
 20
22.7618
 11
-4.90651
 21
22.7511
  0
LINE
  8
0
 10
-4.90651
 20
22.7511
 11
-4.90251
 21
22.7405
  0
LINE
  8
0
 10
-4.90251
 20
22.7405
 11
-4.89828
 21
22.7301
  0
LINE
  8
0
 10
-4.89828
 20
22.7301
 11
-4.89384
 21
22.72
  0
LINE
  8
0
 10
-4.89384
 20
22.72
 11
-4.88918
 21
22.7101
  0
LINE
  8
0
 10
-4.88918
 20
22.7101
 11
-4.88428
 21
22.7004
  0
LINE
  8
0
 10
-4.88428
 20
22.7004
 11
-4.87917
 21
22.6909
  0
LINE
  8
0
 10
-4.87917
 20
22.6909
 11
-4.87383
 21
22.6817
  0
LINE
  8
0
 10
-4.87383
 20
22.6817
 11
-4.86827
 21
22.6726
  0
LINE
  8
0
 10
-4.86827
 20
22.6726
 11
-4.86247
 21
22.6638
  0
LINE
  8
0
 10
-4.86247
 20
22.6638
 11
-4.85646
 21
22.6552
  0
LINE
  8
0
 10
-4.85646
 20
22.6552
 11
-4.85023
 21
22.6467
  0
LINE
  8
0
 10
-4.85023
 20
22.6467
 11
-4.84377
 21
22.6386
  0
LINE
  8
0
 10
-4.84377
 20
22.6386
 11
-4.83708
 21
22.6306
  0
LINE
  8
0
 10
-4.83708
 20
22.6306
 11
-4.83018
 21
22.6228
  0
LINE
  8
0
 10
-4.83018
 20
22.6228
 11
-4.82307
 21
22.6152
  0
LINE
  8
0
 10
-4.82307
 20
22.6152
 11
-4.81573
 21
22.6077
  0
LINE
  8
0
 10
-4.81573
 20
22.6077
 11
-4.8082
 21
22.6004
  0
LINE
  8
0
 10
-4.8082
 20
22.6004
 11
-4.80043
 21
22.5934
  0
LINE
  8
0
 10
-4.80043
 20
22.5934
 11
-4.79245
 21
22.5865
  0
LINE
  8
0
 10
-4.79245
 20
22.5865
 11
-4.78426
 21
22.5797
  0
LINE
  8
0
 10
-4.78426
 20
22.5797
 11
-4.77583
 21
22.5732
  0
LINE
  8
0
 10
-4.77583
 20
22.5732
 11
-4.76721
 21
22.5668
  0
LINE
  8
0
 10
-4.76721
 20
22.5668
 11
-4.75836
 21
22.5607
  0
LINE
  8
0
 10
-4.75836
 20
22.5607
 11
-4.7493
 21
22.5547
  0
LINE
  8
0
 10
-4.7493
 20
22.5547
 11
-4.74002
 21
22.5488
  0
LINE
  8
0
 10
-4.74002
 20
22.5488
 11
-4.73055
 21
22.5432
  0
LINE
  8
0
 10
-4.73055
 20
22.5432
 11
-4.72089
 21
22.5376
  0
LINE
  8
0
 10
-4.72089
 20
22.5376
 11
-4.71107
 21
22.5322
  0
LINE
  8
0
 10
-4.71107
 20
22.5322
 11
-4.70107
 21
22.5269
  0
LINE
  8
0
 10
-4.70107
 20
22.5269
 11
-4.6909
 21
22.5217
  0
LINE
  8
0
 10
-4.6909
 20
22.5217
 11
-4.68056
 21
22.5166
  0
LINE
  8
0
 10
-4.68056
 20
22.5166
 11
-4.67004
 21
22.5116
  0
LINE
  8
0
 10
-4.67004
 20
22.5116
 11
-4.65935
 21
22.5067
  0
LINE
  8
0
 10
-4.65935
 20
22.5067
 11
-4.64848
 21
22.502
  0
LINE
  8
0
 10
-4.64848
 20
22.502
 11
-4.63745
 21
22.4974
  0
LINE
  8
0
 10
-4.63745
 20
22.4974
 11
-4.62625
 21
22.4928
  0
LINE
  8
0
 10
-4.62625
 20
22.4928
 11
-4.61487
 21
22.4884
  0
LINE
  8
0
 10
-4.61487
 20
22.4884
 11
-4.6033
 21
22.4842
  0
LINE
  8
0
 10
-4.6033
 20
22.4842
 11
-4.59097
 21
22.4798
  0
LINE
  8
0
 10
-4.59097
 20
22.4798
 11
-4.57724
 21
22.4753
  0
LINE
  8
0
 10
-4.57724
 20
22.4753
 11
-4.56213
 21
22.4706
  0
LINE
  8
0
 10
-4.56213
 20
22.4706
 11
-4.54564
 21
22.4656
  0
LINE
  8
0
 10
-4.54564
 20
22.4656
 11
-4.52776
 21
22.4604
  0
LINE
  8
0
 10
-4.52776
 20
22.4604
 11
-4.50848
 21
22.455
  0
LINE
  8
0
 10
-4.50848
 20
22.455
 11
-4.48782
 21
22.4495
  0
LINE
  8
0
 10
-4.48782
 20
22.4495
 11
-4.46577
 21
22.4437
  0
LINE
  8
0
 10
-4.46577
 20
22.4437
 11
-4.44234
 21
22.4377
  0
LINE
  8
0
 10
-4.44234
 20
22.4377
 11
-4.41753
 21
22.4314
  0
LINE
  8
0
 10
-4.41753
 20
22.4314
 11
-4.39133
 21
22.425
  0
LINE
  8
0
 10
-4.39133
 20
22.425
 11
-4.36372
 21
22.4184
  0
LINE
  8
0
 10
-4.36372
 20
22.4184
 11
-4.33475
 21
22.4115
  0
LINE
  8
0
 10
-4.33475
 20
22.4115
 11
-4.30124
 21
22.4047
  0
LINE
  8
0
 10
-4.30124
 20
22.4047
 11
-4.26944
 21
22.398
  0
LINE
  8
0
 10
-4.26944
 20
22.398
 11
-4.23936
 21
22.3914
  0
LINE
  8
0
 10
-4.23936
 20
22.3914
 11
-4.21098
 21
22.385
  0
LINE
  8
0
 10
-4.21098
 20
22.385
 11
-4.18433
 21
22.3788
  0
LINE
  8
0
 10
-4.18433
 20
22.3788
 11
-4.15938
 21
22.3727
  0
LINE
  8
0
 10
-4.15938
 20
22.3727
 11
-4.13614
 21
22.3668
  0
LINE
  8
0
 10
-4.13614
 20
22.3668
 11
-4.11461
 21
22.361
  0
LINE
  8
0
 10
-4.11461
 20
22.361
 11
-4.0948
 21
22.3554
  0
LINE
  8
0
 10
-4.0948
 20
22.3554
 11
-4.07669
 21
22.35
  0
LINE
  8
0
 10
-4.07669
 20
22.35
 11
-4.0603
 21
22.3447
  0
LINE
  8
0
 10
-4.0603
 20
22.3447
 11
-4.04562
 21
22.3396
  0
LINE
  8
0
 10
-4.04562
 20
22.3396
 11
-4.03265
 21
22.3346
  0
LINE
  8
0
 10
-4.03265
 20
22.3346
 11
-4.02075
 21
22.3297
  0
LINE
  8
0
 10
-4.02075
 20
22.3297
 11
-4.00926
 21
22.3245
  0
LINE
  8
0
 10
-4.00926
 20
22.3245
 11
-3.9982
 21
22.3191
  0
LINE
  8
0
 10
-3.9982
 20
22.3191
 11
-3.98755
 21
22.3136
  0
LINE
  8
0
 10
-3.98755
 20
22.3136
 11
-3.97733
 21
22.3079
  0
LINE
  8
0
 10
-3.97733
 20
22.3079
 11
-3.96751
 21
22.302
  0
LINE
  8
0
 10
-3.96751
 20
22.302
 11
-3.95813
 21
22.2959
  0
LINE
  8
0
 10
-3.95813
 20
22.2959
 11
-3.94916
 21
22.2896
  0
LINE
  8
0
 10
-3.94916
 20
22.2896
 11
-3.94061
 21
22.2831
  0
LINE
  8
0
 10
-3.94061
 20
22.2831
 11
-3.93248
 21
22.2764
  0
LINE
  8
0
 10
-3.93248
 20
22.2764
 11
-3.92476
 21
22.2696
  0
LINE
  8
0
 10
-3.92476
 20
22.2696
 11
-3.91747
 21
22.2625
  0
LINE
  8
0
 10
-3.91747
 20
22.2625
 11
-3.9106
 21
22.2553
  0
LINE
  8
0
 10
-3.9106
 20
22.2553
 11
-3.90419
 21
22.2478
  0
LINE
  8
0
 10
-3.90419
 20
22.2478
 11
-3.89828
 21
22.24
  0
LINE
  8
0
 10
-3.89828
 20
22.24
 11
-3.8929
 21
22.232
  0
LINE
  8
0
 10
-3.8929
 20
22.232
 11
-3.88803
 21
22.2236
  0
LINE
  8
0
 10
-3.88803
 20
22.2236
 11
-3.88367
 21
22.2149
  0
LINE
  8
0
 10
-3.88367
 20
22.2149
 11
-3.87982
 21
22.2059
  0
LINE
  8
0
 10
-3.87982
 20
22.2059
 11
-3.87648
 21
22.1966
  0
LINE
  8
0
 10
-3.87648
 20
22.1966
 11
-3.87366
 21
22.187
  0
LINE
  8
0
 10
-3.87366
 20
22.187
 11
-3.87135
 21
22.1771
  0
LINE
  8
0
 10
-3.87135
 20
22.1771
 11
-3.86957
 21
22.1669
  0
LINE
  8
0
 10
-3.86957
 20
22.1669
 11
-3.86827
 21
22.1564
  0
LINE
  8
0
 10
-3.86827
 20
22.1564
 11
-3.86751
 21
22.1456
  0
LINE
  8
0
 10
-3.86751
 20
22.1456
 11
-3.86725
 21
22.1345
  0
LINE
  8
0
 10
-3.86725
 20
22.1345
 11
-3.86949
 21
22.1005
  0
LINE
  8
0
 10
-3.86949
 20
22.1005
 11
-3.87617
 21
22.0693
  0
LINE
  8
0
 10
-3.87617
 20
22.0693
 11
-3.88734
 21
22.0408
  0
LINE
  8
0
 10
-3.88734
 20
22.0408
 11
-3.90295
 21
22.015
  0
LINE
  8
0
 10
-3.90295
 20
22.015
 11
-3.92305
 21
21.9919
  0
LINE
  8
0
 10
-3.92305
 20
21.9919
 11
-3.9476
 21
21.9715
  0
LINE
  8
0
 10
-3.9476
 20
21.9715
 11
-3.97661
 21
21.9539
  0
LINE
  8
0
 10
-3.97661
 20
21.9539
 11
-4.01009
 21
21.9389
  0
LINE
  8
0
 10
-4.01009
 20
21.9389
 11
-4.04802
 21
21.9267
  0
LINE
  8
0
 10
-4.04802
 20
21.9267
 11
-4.09042
 21
21.9172
  0
LINE
  8
0
 10
-4.09042
 20
21.9172
 11
-4.1373
 21
21.9104
  0
LINE
  8
0
 10
-4.1373
 20
21.9104
 11
-4.18863
 21
21.9063
  0
LINE
  8
0
 10
-4.18863
 20
21.9063
 11
-4.24443
 21
21.905
  0
LINE
  8
0
 10
-4.24443
 20
21.905
 11
-4.27194
 21
21.9053
  0
LINE
  8
0
 10
-4.27194
 20
21.9053
 11
-4.29851
 21
21.9064
  0
LINE
  8
0
 10
-4.29851
 20
21.9064
 11
-4.32414
 21
21.9082
  0
LINE
  8
0
 10
-4.32414
 20
21.9082
 11
-4.34883
 21
21.9108
  0
LINE
  8
0
 10
-4.34883
 20
21.9108
 11
-4.37259
 21
21.9141
  0
LINE
  8
0
 10
-4.37259
 20
21.9141
 11
-4.3954
 21
21.9181
  0
LINE
  8
0
 10
-4.3954
 20
21.9181
 11
-4.41728
 21
21.9228
  0
LINE
  8
0
 10
-4.41728
 20
21.9228
 11
-4.43823
 21
21.9283
  0
LINE
  8
0
 10
-4.43823
 20
21.9283
 11
-4.45822
 21
21.9345
  0
LINE
  8
0
 10
-4.45822
 20
21.9345
 11
-4.47729
 21
21.9414
  0
LINE
  8
0
 10
-4.47729
 20
21.9414
 11
-4.49541
 21
21.9491
  0
LINE
  8
0
 10
-4.49541
 20
21.9491
 11
-4.5126
 21
21.9575
  0
LINE
  8
0
 10
-4.5126
 20
21.9575
 11
-4.52884
 21
21.9666
  0
LINE
  8
0
 10
-4.52884
 20
21.9666
 11
-4.54422
 21
21.9765
  0
LINE
  8
0
 10
-4.54422
 20
21.9765
 11
-4.55881
 21
21.9874
  0
LINE
  8
0
 10
-4.55881
 20
21.9874
 11
-4.57259
 21
21.9991
  0
LINE
  8
0
 10
-4.57259
 20
21.9991
 11
-4.58559
 21
22.0116
  0
LINE
  8
0
 10
-4.58559
 20
22.0116
 11
-4.59778
 21
22.0251
  0
LINE
  8
0
 10
-4.59778
 20
22.0251
 11
-4.60918
 21
22.0395
  0
LINE
  8
0
 10
-4.60918
 20
22.0395
 11
-4.6198
 21
22.0548
  0
LINE
  8
0
 10
-4.6198
 20
22.0548
 11
-4.62961
 21
22.0709
  0
LINE
  8
0
 10
-4.62961
 20
22.0709
 11
-4.63863
 21
22.0879
  0
LINE
  8
0
 10
-4.63863
 20
22.0879
 11
-4.64685
 21
22.1059
  0
LINE
  8
0
 10
-4.64685
 20
22.1059
 11
-4.65428
 21
22.1247
  0
LINE
  8
0
 10
-4.65428
 20
22.1247
 11
-4.66092
 21
22.1444
  0
LINE
  8
0
 10
-4.66092
 20
22.1444
 11
-4.66676
 21
22.165
  0
LINE
  8
0
 10
-4.66676
 20
22.165
 11
-5.01465
 21
22.1076
  0
LINE
  8
0
 10
-5.01465
 20
22.1076
 11
-5.00558
 21
22.0717
  0
LINE
  8
0
 10
-5.00558
 20
22.0717
 11
-4.99493
 21
22.0372
  0
LINE
  8
0
 10
-4.99493
 20
22.0372
 11
-4.9827
 21
22.0042
  0
LINE
  8
0
 10
-4.9827
 20
22.0042
 11
-4.96887
 21
21.9726
  0
LINE
  8
0
 10
-4.96887
 20
21.9726
 11
-4.95346
 21
21.9424
  0
LINE
  8
0
 10
-4.95346
 20
21.9424
 11
-4.93646
 21
21.9136
  0
LINE
  8
0
 10
-4.93646
 20
21.9136
 11
-4.91788
 21
21.8863
  0
LINE
  8
0
 10
-4.91788
 20
21.8863
 11
-4.89769
 21
21.8604
  0
LINE
  8
0
 10
-4.89769
 20
21.8604
 11
-4.87593
 21
21.836
  0
LINE
  8
0
 10
-4.87593
 20
21.836
 11
-4.85257
 21
21.8129
  0
LINE
  8
0
 10
-4.85257
 20
21.8129
 11
-4.82762
 21
21.7913
  0
LINE
  8
0
 10
-4.82762
 20
21.7913
 11
-4.80109
 21
21.7711
  0
LINE
  8
0
 10
-4.80109
 20
21.7711
 11
-4.77296
 21
21.7524
  0
LINE
  8
0
 10
-4.77296
 20
21.7524
 11
-4.74319
 21
21.7351
  0
LINE
  8
0
 10
-4.74319
 20
21.7351
 11
-4.71175
 21
21.7191
  0
LINE
  8
0
 10
-4.71175
 20
21.7191
 11
-4.67859
 21
21.7046
  0
LINE
  8
0
 10
-4.67859
 20
21.7046
 11
-4.64377
 21
21.6914
  0
LINE
  8
0
 10
-4.64377
 20
21.6914
 11
-4.60724
 21
21.6796
  0
LINE
  8
0
 10
-4.60724
 20
21.6796
 11
-4.56902
 21
21.6692
  0
LINE
  8
0
 10
-4.56902
 20
21.6692
 11
-4.52911
 21
21.6602
  0
LINE
  8
0
 10
-4.52911
 20
21.6602
 11
-4.48752
 21
21.6526
  0
LINE
  8
0
 10
-4.48752
 20
21.6526
 11
-4.44424
 21
21.6463
  0
LINE
  8
0
 10
-4.44424
 20
21.6463
 11
-4.39926
 21
21.6415
  0
LINE
  8
0
 10
-4.39926
 20
21.6415
 11
-4.3526
 21
21.638
  0
LINE
  8
0
 10
-4.3526
 20
21.638
 11
-4.30424
 21
21.6359
  0
LINE
  8
0
 10
-4.30424
 20
21.6359
 11
-4.2542
 21
21.6352
  0
LINE
  8
0
 10
-4.2542
 20
21.6352
 11
-4.19946
 21
21.636
  0
LINE
  8
0
 10
3.41705
 20
21.9379
 11
2.49426
 21
21.9379
  0
LINE
  8
0
 10
2.49426
 20
21.9379
 11
2.49426
 21
23.3795
  0
LINE
  8
0
 10
2.49426
 20
23.3795
 11
2.13417
 21
23.3795
  0
LINE
  8
0
 10
2.13417
 20
23.3795
 11
2.13417
 21
21.6596
  0
LINE
  8
0
 10
2.13417
 20
21.6596
 11
3.41705
 21
21.6596
  0
LINE
  8
0
 10
3.41705
 20
21.6596
 11
3.41705
 21
21.9379
  0
LINE
  8
0
 10
5.02798
 20
21.9379
 11
3.98557
 21
21.9379
  0
LINE
  8
0
 10
3.98557
 20
21.9379
 11
3.98557
 21
22.3908
  0
LINE
  8
0
 10
3.98557
 20
22.3908
 11
4.90347
 21
22.3908
  0
LINE
  8
0
 10
4.90347
 20
22.3908
 11
4.90347
 21
22.6691
  0
LINE
  8
0
 10
4.90347
 20
22.6691
 11
3.98557
 21
22.6691
  0
LINE
  8
0
 10
3.98557
 20
22.6691
 11
3.98557
 21
23.1012
  0
LINE
  8
0
 10
3.98557
 20
23.1012
 11
4.97795
 21
23.1012
  0
LINE
  8
0
 10
4.97795
 20
23.1012
 11
4.97795
 21
23.3795
  0
LINE
  8
0
 10
4.97795
 20
23.3795
 11
3.62547
 21
23.3795
  0
LINE
  8
0
 10
3.62547
 20
23.3795
 11
3.62547
 21
21.6596
  0
LINE
  8
0
 10
3.62547
 20
21.6596
 11
5.02798
 21
21.6596
  0
LINE
  8
0
 10
5.02798
 20
21.6596
 11
5.02798
 21
21.9379
  0
LINE
  8
0
 10
0.86586
 20
22.2651
 11
1.29308
 21
22.2651
  0
LINE
  8
0
 10
1.29308
 20
22.2651
 11
1.32262
 21
22.2655
  0
LINE
  8
0
 10
1.32262
 20
22.2655
 11
1.35153
 21
22.2668
  0
LINE
  8
0
 10
1.35153
 20
22.2668
 11
1.37982
 21
22.2689
  0
LINE
  8
0
 10
1.37982
 20
22.2689
 11
1.40749
 21
22.2718
  0
LINE
  8
0
 10
1.40749
 20
22.2718
 11
1.43451
 21
22.2756
  0
LINE
  8
0
 10
1.43451
 20
22.2756
 11
1.46092
 21
22.2803
  0
LINE
  8
0
 10
1.46092
 20
22.2803
 11
1.48669
 21
22.2858
  0
LINE
  8
0
 10
1.48669
 20
22.2858
 11
1.51184
 21
22.2921
  0
LINE
  8
0
 10
1.51184
 20
22.2921
 11
1.53636
 21
22.2993
  0
LINE
  8
0
 10
1.53636
 20
22.2993
 11
1.56024
 21
22.3073
  0
LINE
  8
0
 10
1.56024
 20
22.3073
 11
1.58351
 21
22.3162
  0
LINE
  8
0
 10
1.58351
 20
22.3162
 11
1.60614
 21
22.3259
  0
LINE
  8
0
 10
1.60614
 20
22.3259
 11
1.62814
 21
22.3365
  0
LINE
  8
0
 10
1.62814
 20
22.3365
 11
1.64944
 21
22.3478
  0
LINE
  8
0
 10
1.64944
 20
22.3478
 11
1.66997
 21
22.3598
  0
LINE
  8
0
 10
1.66997
 20
22.3598
 11
1.68973
 21
22.3726
  0
LINE
  8
0
 10
1.68973
 20
22.3726
 11
1.70871
 21
22.386
  0
LINE
  8
0
 10
1.70871
 20
22.386
 11
1.72693
 21
22.4001
  0
LINE
  8
0
 10
1.72693
 20
22.4001
 11
1.74435
 21
22.415
  0
LINE
  8
0
 10
1.74435
 20
22.415
 11
1.76103
 21
22.4305
  0
LINE
  8
0
 10
1.76103
 20
22.4305
 11
1.77692
 21
22.4468
  0
LINE
  8
0
 10
1.77692
 20
22.4468
 11
1.79204
 21
22.4637
  0
LINE
  8
0
 10
1.79204
 20
22.4637
 11
1.80638
 21
22.4814
  0
LINE
  8
0
 10
1.80638
 20
22.4814
 11
1.81996
 21
22.4997
  0
LINE
  8
0
 10
1.81996
 20
22.4997
 11
1.83276
 21
22.5187
  0
LINE
  8
0
 10
1.83276
 20
22.5187
 11
1.84479
 21
22.5385
  0
LINE
  8
0
 10
1.84479
 20
22.5385
 11
1.85599
 21
22.5588
  0
LINE
  8
0
 10
1.85599
 20
22.5588
 11
1.86629
 21
22.5795
  0
LINE
  8
0
 10
1.86629
 20
22.5795
 11
1.87569
 21
22.6006
  0
LINE
  8
0
 10
1.87569
 20
22.6006
 11
1.8842
 21
22.6222
  0
LINE
  8
0
 10
1.8842
 20
22.6222
 11
1.89182
 21
22.6442
  0
LINE
  8
0
 10
1.89182
 20
22.6442
 11
1.89853
 21
22.6666
  0
LINE
  8
0
 10
1.89853
 20
22.6666
 11
1.90436
 21
22.6894
  0
LINE
  8
0
 10
1.90436
 20
22.6894
 11
1.90929
 21
22.7126
  0
LINE
  8
0
 10
1.90929
 20
22.7126
 11
1.91331
 21
22.7363
  0
LINE
  8
0
 10
1.91331
 20
22.7363
 11
1.91644
 21
22.7603
  0
LINE
  8
0
 10
1.91644
 20
22.7603
 11
1.91869
 21
22.7848
  0
LINE
  8
0
 10
1.91869
 20
22.7848
 11
1.92003
 21
22.8097
  0
LINE
  8
0
 10
1.92003
 20
22.8097
 11
1.92047
 21
22.8351
  0
LINE
  8
0
 10
1.92047
 20
22.8351
 11
1.91949
 21
22.8744
  0
LINE
  8
0
 10
1.91949
 20
22.8744
 11
1.91653
 21
22.9123
  0
LINE
  8
0
 10
1.91653
 20
22.9123
 11
1.91161
 21
22.9488
  0
LINE
  8
0
 10
1.91161
 20
22.9488
 11
1.90471
 21
22.9839
  0
LINE
  8
0
 10
1.90471
 20
22.9839
 11
1.89583
 21
23.0177
  0
LINE
  8
0
 10
1.89583
 20
23.0177
 11
1.88498
 21
23.05
  0
LINE
  8
0
 10
1.88498
 20
23.05
 11
1.87216
 21
23.0809
  0
LINE
  8
0
 10
1.87216
 20
23.0809
 11
1.85738
 21
23.1105
  0
LINE
  8
0
 10
1.85738
 20
23.1105
 11
1.84062
 21
23.1386
  0
LINE
  8
0
 10
1.84062
 20
23.1386
 11
1.82188
 21
23.1654
  0
LINE
  8
0
 10
1.82188
 20
23.1654
 11
1.80118
 21
23.1907
  0
LINE
  8
0
 10
1.80118
 20
23.1907
 11
1.7785
 21
23.2147
  0
LINE
  8
0
 10
1.7785
 20
23.2147
 11
1.75385
 21
23.2373
  0
LINE
  8
0
 10
1.75385
 20
23.2373
 11
1.72737
 21
23.2583
  0
LINE
  8
0
 10
1.72737
 20
23.2583
 11
1.69922
 21
23.2777
  0
LINE
  8
0
 10
1.69922
 20
23.2777
 11
1.66939
 21
23.2953
  0
LINE
  8
0
 10
1.66939
 20
23.2953
 11
1.63786
 21
23.3113
  0
LINE
  8
0
 10
1.63786
 20
23.3113
 11
1.60466
 21
23.3256
  0
LINE
  8
0
 10
1.60466
 20
23.3256
 11
1.56976
 21
23.3383
  0
LINE
  8
0
 10
1.56976
 20
23.3383
 11
1.5332
 21
23.3492
  0
LINE
  8
0
 10
1.5332
 20
23.3492
 11
1.49495
 21
23.3584
  0
LINE
  8
0
 10
1.49495
 20
23.3584
 11
1.455
 21
23.366
  0
LINE
  8
0
 10
1.455
 20
23.366
 11
1.41339
 21
23.3719
  0
LINE
  8
0
 10
1.41339
 20
23.3719
 11
1.37009
 21
23.3761
  0
LINE
  8
0
 10
1.37009
 20
23.3761
 11
1.3251
 21
23.3786
  0
LINE
  8
0
 10
1.3251
 20
23.3786
 11
1.27844
 21
23.3795
  0
LINE
  8
0
 10
1.27844
 20
23.3795
 11
0.505768
 21
23.3795
  0
LINE
  8
0
 10
0.505768
 20
23.3795
 11
0.505768
 21
21.6596
  0
LINE
  8
0
 10
0.505768
 20
21.6596
 11
0.86586
 21
21.6596
  0
LINE
  8
0
 10
0.86586
 20
21.6596
 11
0.86586
 21
22.2651
  0
LINE
  8
0
 10
0.86586
 20
22.5421
 11
0.86586
 21
23.1
  0
LINE
  8
0
 10
0.86586
 20
23.1
 11
1.23814
 21
23.1
  0
LINE
  8
0
 10
1.23814
 20
23.1
 11
1.28546
 21
23.0984
  0
LINE
  8
0
 10
1.28546
 20
23.0984
 11
1.32898
 21
23.0936
  0
LINE
  8
0
 10
1.32898
 20
23.0936
 11
1.36873
 21
23.0855
  0
LINE
  8
0
 10
1.36873
 20
23.0855
 11
1.40468
 21
23.0743
  0
LINE
  8
0
 10
1.40468
 20
23.0743
 11
1.43684
 21
23.0599
  0
LINE
  8
0
 10
1.43684
 20
23.0599
 11
1.46523
 21
23.0422
  0
LINE
  8
0
 10
1.46523
 20
23.0422
 11
1.48984
 21
23.0214
  0
LINE
  8
0
 10
1.48984
 20
23.0214
 11
1.51065
 21
22.9973
  0
LINE
  8
0
 10
1.51065
 20
22.9973
 11
1.52768
 21
22.9701
  0
LINE
  8
0
 10
1.52768
 20
22.9701
 11
1.54092
 21
22.9396
  0
LINE
  8
0
 10
1.54092
 20
22.9396
 11
1.55038
 21
22.9059
  0
LINE
  8
0
 10
1.55038
 20
22.9059
 11
1.55606
 21
22.869
  0
LINE
  8
0
 10
1.55606
 20
22.869
 11
1.55795
 21
22.829
  0
LINE
  8
0
 10
1.55795
 20
22.829
 11
1.55748
 21
22.808
  0
LINE
  8
0
 10
1.55748
 20
22.808
 11
1.55605
 21
22.7877
  0
LINE
  8
0
 10
1.55605
 20
22.7877
 11
1.55367
 21
22.7682
  0
LINE
  8
0
 10
1.55367
 20
22.7682
 11
1.55032
 21
22.7495
  0
LINE
  8
0
 10
1.55032
 20
22.7495
 11
1.54604
 21
22.7316
  0
LINE
  8
0
 10
1.54604
 20
22.7316
 11
1.5408
 21
22.7144
  0
LINE
  8
0
 10
1.5408
 20
22.7144
 11
1.53459
 21
22.6981
  0
LINE
  8
0
 10
1.53459
 20
22.6981
 11
1.52745
 21
22.6824
  0
LINE
  8
0
 10
1.52745
 20
22.6824
 11
1.51935
 21
22.6676
  0
LINE
  8
0
 10
1.51935
 20
22.6676
 11
1.51028
 21
22.6535
  0
LINE
  8
0
 10
1.51028
 20
22.6535
 11
1.50027
 21
22.6402
  0
LINE
  8
0
 10
1.50027
 20
22.6402
 11
1.4893
 21
22.6277
  0
LINE
  8
0
 10
1.4893
 20
22.6277
 11
1.47739
 21
22.616
  0
LINE
  8
0
 10
1.47739
 20
22.616
 11
1.46458
 21
22.6051
  0
LINE
  8
0
 10
1.46458
 20
22.6051
 11
1.45099
 21
22.595
  0
LINE
  8
0
 10
1.45099
 20
22.595
 11
1.43657
 21
22.5858
  0
LINE
  8
0
 10
1.43657
 20
22.5858
 11
1.42134
 21
22.5775
  0
LINE
  8
0
 10
1.42134
 20
22.5775
 11
1.4053
 21
22.5701
  0
LINE
  8
0
 10
1.4053
 20
22.5701
 11
1.38846
 21
22.5635
  0
LINE
  8
0
 10
1.38846
 20
22.5635
 11
1.3708
 21
22.5578
  0
LINE
  8
0
 10
1.3708
 20
22.5578
 11
1.35234
 21
22.553
  0
LINE
  8
0
 10
1.35234
 20
22.553
 11
1.33307
 21
22.5491
  0
LINE
  8
0
 10
1.33307
 20
22.5491
 11
1.313
 21
22.5461
  0
LINE
  8
0
 10
1.313
 20
22.5461
 11
1.29211
 21
22.5439
  0
LINE
  8
0
 10
1.29211
 20
22.5439
 11
1.27042
 21
22.5426
  0
LINE
  8
0
 10
1.27042
 20
22.5426
 11
1.24791
 21
22.5421
  0
LINE
  8
0
 10
1.24791
 20
22.5421
 11
0.86586
 21
22.5421
  0
LINE
  8
0
 10
-1.20813
 20
22.702
 11
-1.20822
 21
22.7173
  0
LINE
  8
0
 10
-1.20822
 20
22.7173
 11
-1.20848
 21
22.7347
  0
LINE
  8
0
 10
-1.20848
 20
22.7347
 11
-1.20891
 21
22.7545
  0
LINE
  8
0
 10
-1.20891
 20
22.7545
 11
-1.20952
 21
22.7765
  0
LINE
  8
0
 10
-1.20952
 20
22.7765
 11
-1.2103
 21
22.8008
  0
LINE
  8
0
 10
-1.2103
 20
22.8008
 11
-1.21126
 21
22.8274
  0
LINE
  8
0
 10
-1.21126
 20
22.8274
 11
-1.21237
 21
22.8562
  0
LINE
  8
0
 10
-1.21237
 20
22.8562
 11
-1.21368
 21
22.8873
  0
LINE
  8
0
 10
-1.21368
 20
22.8873
 11
-1.21515
 21
22.9206
  0
LINE
  8
0
 10
-1.21515
 20
22.9206
 11
-1.2168
 21
22.9563
  0
LINE
  8
0
 10
-1.2168
 20
22.9563
 11
-1.22061
 21
23.0343
  0
LINE
  8
0
 10
-1.22061
 20
23.0343
 11
-1.22278
 21
23.0768
  0
LINE
  8
0
 10
-1.22278
 20
23.0768
 11
-1.09218
 21
22.619
  0
LINE
  8
0
 10
-1.09218
 20
22.619
 11
-0.78212
 21
21.6596
  0
LINE
  8
0
 10
-0.78212
 20
21.6596
 11
-0.525803
 21
21.6596
  0
LINE
  8
0
 10
-0.525803
 20
21.6596
 11
-0.215759
 21
22.619
  0
LINE
  8
0
 10
-0.215759
 20
22.619
 11
-0.209106
 21
22.6401
  0
LINE
  8
0
 10
-0.209106
 20
22.6401
 11
-0.20192
 21
22.6636
  0
LINE
  8
0
 10
-0.20192
 20
22.6636
 11
-0.194199
 21
22.6893
  0
LINE
  8
0
 10
-0.194199
 20
22.6893
 11
-0.185944
 21
22.7175
  0
LINE
  8
0
 10
-0.185944
 20
22.7175
 11
-0.177155
 21
22.748
  0
LINE
  8
0
 10
-0.177155
 20
22.748
 11
-0.167831
 21
22.7809
  0
LINE
  8
0
 10
-0.167831
 20
22.7809
 11
-0.157974
 21
22.8161
  0
LINE
  8
0
 10
-0.157974
 20
22.8161
 11
-0.147583
 21
22.8536
  0
LINE
  8
0
 10
-0.147583
 20
22.8536
 11
-0.136658
 21
22.8935
  0
LINE
  8
0
 10
-0.136658
 20
22.8935
 11
-0.125183
 21
22.9358
  0
LINE
  8
0
 10
-0.125183
 20
22.9358
 11
-0.11319
 21
22.9804
  0
LINE
  8
0
 10
-0.11319
 20
22.9804
 11
-0.100662
 21
23.0274
  0
LINE
  8
0
 10
-0.100662
 20
23.0274
 11
-0.0876007
 21
23.0768
  0
LINE
  8
0
 10
-0.0876007
 20
23.0768
 11
-0.0921173
 21
22.9652
  0
LINE
  8
0
 10
-0.0921173
 20
22.9652
 11
-0.0964203
 21
22.8552
  0
LINE
  8
0
 10
-0.0964203
 20
22.8552
 11
-0.0983582
 21
22.8016
  0
LINE
  8
0
 10
-0.0983582
 20
22.8016
 11
-0.0990295
 21
22.7796
  0
LINE
  8
0
 10
-0.0990295
 20
22.7796
 11
-0.0991821
 21
22.7728
  0
LINE
  8
0
 10
-0.0991821
 20
22.7728
 11
-0.0994415
 21
22.7565
  0
LINE
  8
0
 10
-0.0994415
 20
22.7565
 11
-0.0997467
 21
22.7238
  0
LINE
  8
0
 10
-0.0997467
 20
22.7238
 11
-0.0997925
 21
22.7075
  0
LINE
  8
0
 10
-0.0997925
 20
22.7075
 11
-0.0997925
 21
21.6596
  0
LINE
  8
0
 10
-0.0997925
 20
21.6596
 11
0.219986
 21
21.6596
  0
LINE
  8
0
 10
0.219986
 20
21.6596
 11
0.219986
 21
23.3795
  0
LINE
  8
0
 10
0.219986
 20
23.3795
 11
-0.259689
 21
23.3795
  0
LINE
  8
0
 10
-0.259689
 20
23.3795
 11
-0.575851
 21
22.37
  0
LINE
  8
0
 10
-0.575851
 20
22.37
 11
-0.65274
 21
22.0942
  0
LINE
  8
0
 10
-0.65274
 20
22.0942
 11
-0.711334
 21
22.3249
  0
LINE
  8
0
 10
-0.711334
 20
22.3249
 11
-0.73819
 21
22.4176
  0
LINE
  8
0
 10
-0.73819
 20
22.4176
 11
-1.04579
 21
23.3795
  0
LINE
  8
0
 10
-1.04579
 20
23.3795
 11
-1.52794
 21
23.3795
  0
LINE
  8
0
 10
-1.52794
 20
23.3795
 11
-1.52794
 21
21.6596
  0
LINE
  8
0
 10
-1.52794
 20
21.6596
 11
-1.20813
 21
21.6596
  0
LINE
  8
0
 10
-1.20813
 20
21.6596
 11
-1.20813
 21
22.702
  0
LINE
  8
0
 10
-2.88335
 20
22.0991
 11
-2.22787
 21
22.0991
  0
LINE
  8
0
 10
-2.22787
 20
22.0991
 11
-2.07529
 21
21.6596
  0
LINE
  8
0
 10
-2.07529
 20
21.6596
 11
-1.71887
 21
21.6596
  0
LINE
  8
0
 10
-1.71887
 20
21.6596
 11
-2.34383
 21
23.3795
  0
LINE
  8
0
 10
-2.34383
 20
23.3795
 11
-2.7686
 21
23.3795
  0
LINE
  8
0
 10
-2.7686
 20
23.3795
 11
-3.39601
 21
21.6596
  0
LINE
  8
0
 10
-3.39601
 20
21.6596
 11
-3.03592
 21
21.6596
  0
LINE
  8
0
 10
-3.03592
 20
21.6596
 11
-2.88335
 21
22.0991
  0
LINE
  8
0
 10
-2.8028
 20
22.37
 11
-2.7476
 21
22.5308
  0
LINE
  8
0
 10
-2.7476
 20
22.5308
 11
-2.70074
 21
22.6677
  0
LINE
  8
0
 10
-2.70074
 20
22.6677
 11
-2.6622
 21
22.7807
  0
LINE
  8
0
 10
-2.6622
 20
22.7807
 11
-2.64606
 21
22.8282
  0
LINE
  8
0
 10
-2.64606
 20
22.8282
 11
-2.63199
 21
22.8697
  0
LINE
  8
0
 10
-2.63199
 20
22.8697
 11
-2.62
 21
22.9053
  0
LINE
  8
0
 10
-2.62
 20
22.9053
 11
-2.61008
 21
22.9348
  0
LINE
  8
0
 10
-2.61008
 20
22.9348
 11
-2.60225
 21
22.9584
  0
LINE
  8
0
 10
-2.60225
 20
22.9584
 11
-2.59651
 21
22.976
  0
LINE
  8
0
 10
-2.59651
 20
22.976
 11
-2.59283
 21
22.9877
  0
LINE
  8
0
 10
-2.59283
 20
22.9877
 11
-2.58769
 21
23.0046
  0
LINE
  8
0
 10
-2.58769
 20
23.0046
 11
-2.58041
 21
23.029
  0
LINE
  8
0
 10
-2.58041
 20
23.029
 11
-2.57365
 21
23.0521
  0
LINE
  8
0
 10
-2.57365
 20
23.0521
 11
-2.56943
 21
23.0668
  0
LINE
  8
0
 10
-2.56943
 20
23.0668
 11
-2.56354
 21
23.0878
  0
LINE
  8
0
 10
-2.56354
 20
23.0878
 11
-2.55623
 21
23.1146
  0
LINE
  8
0
 10
-2.55623
 20
23.1146
 11
-2.53058
 21
23.0304
  0
LINE
  8
0
 10
-2.53058
 20
23.0304
 11
-2.4781
 21
22.8644
  0
LINE
  8
0
 10
-2.4781
 20
22.8644
 11
-2.30844
 21
22.37
  0
LINE
  8
0
 10
-2.30844
 20
22.37
 11
-2.8028
 21
22.37
  0
LINE
  8
0
 10
3.95081
 20
-23.4037
 11
3.99561
 21
-23.3996
  0
LINE
  8
0
 10
3.99561
 20
-23.3996
 11
4.03871
 21
-23.3927
  0
LINE
  8
0
 10
4.03871
 20
-23.3927
 11
4.08015
 21
-23.3831
  0
LINE
  8
0
 10
4.08015
 20
-23.3831
 11
4.1199
 21
-23.3707
  0
LINE
  8
0
 10
4.1199
 20
-23.3707
 11
4.15797
 21
-23.3556
  0
LINE
  8
0
 10
4.15797
 20
-23.3556
 11
4.19435
 21
-23.3377
  0
LINE
  8
0
 10
4.19435
 20
-23.3377
 11
4.22905
 21
-23.317
  0
LINE
  8
0
 10
4.22905
 20
-23.317
 11
4.26207
 21
-23.2937
  0
LINE
  8
0
 10
4.26207
 20
-23.2937
 11
4.29341
 21
-23.2675
  0
LINE
  8
0
 10
4.29341
 20
-23.2675
 11
4.32306
 21
-23.2386
  0
LINE
  8
0
 10
4.32306
 20
-23.2386
 11
4.35103
 21
-23.207
  0
LINE
  8
0
 10
4.35103
 20
-23.207
 11
4.37732
 21
-23.1726
  0
LINE
  8
0
 10
4.37732
 20
-23.1726
 11
4.40179
 21
-23.1355
  0
LINE
  8
0
 10
4.40179
 20
-23.1355
 11
4.4243
 21
-23.0956
  0
LINE
  8
0
 10
4.4243
 20
-23.0956
 11
4.44484
 21
-23.0531
  0
LINE
  8
0
 10
4.44484
 20
-23.0531
 11
4.46344
 21
-23.0079
  0
LINE
  8
0
 10
4.46344
 20
-23.0079
 11
4.48007
 21
-22.96
  0
LINE
  8
0
 10
4.48007
 20
-22.96
 11
4.49475
 21
-22.9094
  0
LINE
  8
0
 10
4.49475
 20
-22.9094
 11
4.50748
 21
-22.8562
  0
LINE
  8
0
 10
4.50748
 20
-22.8562
 11
4.51823
 21
-22.8002
  0
LINE
  8
0
 10
4.51823
 20
-22.8002
 11
4.52705
 21
-22.7415
  0
LINE
  8
0
 10
4.52705
 20
-22.7415
 11
4.53391
 21
-22.6801
  0
LINE
  8
0
 10
4.53391
 20
-22.6801
 11
4.53879
 21
-22.6161
  0
LINE
  8
0
 10
4.53879
 20
-22.6161
 11
4.54173
 21
-22.5493
  0
LINE
  8
0
 10
4.54173
 20
-22.5493
 11
4.54271
 21
-22.4799
  0
LINE
  8
0
 10
4.54271
 20
-22.4799
 11
4.54175
 21
-22.4167
  0
LINE
  8
0
 10
4.54175
 20
-22.4167
 11
4.53885
 21
-22.3559
  0
LINE
  8
0
 10
4.53885
 20
-22.3559
 11
4.53403
 21
-22.2976
  0
LINE
  8
0
 10
4.53403
 20
-22.2976
 11
4.52728
 21
-22.2417
  0
LINE
  8
0
 10
4.52728
 20
-22.2417
 11
4.5186
 21
-22.1883
  0
LINE
  8
0
 10
4.5186
 20
-22.1883
 11
4.508
 21
-22.1372
  0
LINE
  8
0
 10
4.508
 20
-22.1372
 11
4.49545
 21
-22.0886
  0
LINE
  8
0
 10
4.49545
 20
-22.0886
 11
4.481
 21
-22.0425
  0
LINE
  8
0
 10
4.481
 20
-22.0425
 11
4.4646
 21
-21.9988
  0
LINE
  8
0
 10
4.4646
 20
-21.9988
 11
4.44629
 21
-21.9575
  0
LINE
  8
0
 10
4.44629
 20
-21.9575
 11
4.42604
 21
-21.9186
  0
LINE
  8
0
 10
4.42604
 20
-21.9186
 11
4.40385
 21
-21.8822
  0
LINE
  8
0
 10
4.40385
 20
-21.8822
 11
4.37975
 21
-21.8482
  0
LINE
  8
0
 10
4.37975
 20
-21.8482
 11
4.35385
 21
-21.8167
  0
LINE
  8
0
 10
4.35385
 20
-21.8167
 11
4.32628
 21
-21.7877
  0
LINE
  8
0
 10
4.32628
 20
-21.7877
 11
4.29703
 21
-21.7613
  0
LINE
  8
0
 10
4.29703
 20
-21.7613
 11
4.26613
 21
-21.7373
  0
LINE
  8
0
 10
4.26613
 20
-21.7373
 11
4.23355
 21
-21.7159
  0
LINE
  8
0
 10
4.23355
 20
-21.7159
 11
4.1993
 21
-21.697
  0
LINE
  8
0
 10
4.1993
 20
-21.697
 11
4.16339
 21
-21.6806
  0
LINE
  8
0
 10
4.16339
 20
-21.6806
 11
4.12581
 21
-21.6667
  0
LINE
  8
0
 10
4.12581
 20
-21.6667
 11
4.08655
 21
-21.6554
  0
LINE
  8
0
 10
4.08655
 20
-21.6554
 11
4.04564
 21
-21.6466
  0
LINE
  8
0
 10
4.04564
 20
-21.6466
 11
4.00305
 21
-21.6403
  0
LINE
  8
0
 10
4.00305
 20
-21.6403
 11
3.95879
 21
-21.6365
  0
LINE
  8
0
 10
3.95879
 20
-21.6365
 11
3.91287
 21
-21.6352
  0
LINE
  8
0
 10
3.91287
 20
-21.6352
 11
3.87187
 21
-21.6362
  0
LINE
  8
0
 10
3.87187
 20
-21.6362
 11
3.83226
 21
-21.6389
  0
LINE
  8
0
 10
3.83226
 20
-21.6389
 11
3.79404
 21
-21.6435
  0
LINE
  8
0
 10
3.79404
 20
-21.6435
 11
3.7572
 21
-21.65
  0
LINE
  8
0
 10
3.7572
 20
-21.65
 11
3.72176
 21
-21.6583
  0
LINE
  8
0
 10
3.72176
 20
-21.6583
 11
3.68768
 21
-21.6685
  0
LINE
  8
0
 10
3.68768
 20
-21.6685
 11
3.65501
 21
-21.6805
  0
LINE
  8
0
 10
3.65501
 20
-21.6805
 11
3.62372
 21
-21.6944
  0
LINE
  8
0
 10
3.62372
 20
-21.6944
 11
3.59383
 21
-21.7101
  0
LINE
  8
0
 10
3.59383
 20
-21.7101
 11
3.56531
 21
-21.7277
  0
LINE
  8
0
 10
3.56531
 20
-21.7277
 11
3.53818
 21
-21.7471
  0
LINE
  8
0
 10
3.53818
 20
-21.7471
 11
3.51244
 21
-21.7684
  0
LINE
  8
0
 10
3.51244
 20
-21.7684
 11
3.48808
 21
-21.7915
  0
LINE
  8
0
 10
3.48808
 20
-21.7915
 11
3.46533
 21
-21.8162
  0
LINE
  8
0
 10
3.46533
 20
-21.8162
 11
3.44441
 21
-21.8423
  0
LINE
  8
0
 10
3.44441
 20
-21.8423
 11
3.42529
 21
-21.8699
  0
LINE
  8
0
 10
3.42529
 20
-21.8699
 11
3.408
 21
-21.8988
  0
LINE
  8
0
 10
3.408
 20
-21.8988
 11
3.39253
 21
-21.9292
  0
LINE
  8
0
 10
3.39253
 20
-21.9292
 11
3.37889
 21
-21.9609
  0
LINE
  8
0
 10
3.37889
 20
-21.9609
 11
3.36705
 21
-21.994
  0
LINE
  8
0
 10
3.36705
 20
-21.994
 11
3.35704
 21
-22.0286
  0
LINE
  8
0
 10
3.35704
 20
-22.0286
 11
3.34886
 21
-22.0645
  0
LINE
  8
0
 10
3.34886
 20
-22.0645
 11
3.34248
 21
-22.1019
  0
LINE
  8
0
 10
3.34248
 20
-22.1019
 11
3.33794
 21
-22.1406
  0
LINE
  8
0
 10
3.33794
 20
-22.1406
 11
3.33521
 21
-22.1808
  0
LINE
  8
0
 10
3.33521
 20
-22.1808
 11
3.33429
 21
-22.2224
  0
LINE
  8
0
 10
3.33429
 20
-22.2224
 11
3.33508
 21
-22.2604
  0
LINE
  8
0
 10
3.33508
 20
-22.2604
 11
3.33748
 21
-22.2972
  0
LINE
  8
0
 10
3.33748
 20
-22.2972
 11
3.34145
 21
-22.3328
  0
LINE
  8
0
 10
3.34145
 20
-22.3328
 11
3.347
 21
-22.3671
  0
LINE
  8
0
 10
3.347
 20
-22.3671
 11
3.35416
 21
-22.4002
  0
LINE
  8
0
 10
3.35416
 20
-22.4002
 11
3.3629
 21
-22.4321
  0
LINE
  8
0
 10
3.3629
 20
-22.4321
 11
3.37321
 21
-22.4627
  0
LINE
  8
0
 10
3.37321
 20
-22.4627
 11
3.38513
 21
-22.4921
  0
LINE
  8
0
 10
3.38513
 20
-22.4921
 11
3.39865
 21
-22.5202
  0
LINE
  8
0
 10
3.39865
 20
-22.5202
 11
3.41374
 21
-22.5471
  0
LINE
  8
0
 10
3.41374
 20
-22.5471
 11
3.43042
 21
-22.5727
  0
LINE
  8
0
 10
3.43042
 20
-22.5727
 11
3.4487
 21
-22.5971
  0
LINE
  8
0
 10
3.4487
 20
-22.5971
 11
3.46855
 21
-22.6202
  0
LINE
  8
0
 10
3.46855
 20
-22.6202
 11
3.48978
 21
-22.6419
  0
LINE
  8
0
 10
3.48978
 20
-22.6419
 11
3.51215
 21
-22.6618
  0
LINE
  8
0
 10
3.51215
 20
-22.6618
 11
3.53566
 21
-22.6801
  0
LINE
  8
0
 10
3.53566
 20
-22.6801
 11
3.5603
 21
-22.6965
  0
LINE
  8
0
 10
3.5603
 20
-22.6965
 11
3.58611
 21
-22.7113
  0
LINE
  8
0
 10
3.58611
 20
-22.7113
 11
3.61304
 21
-22.7243
  0
LINE
  8
0
 10
3.61304
 20
-22.7243
 11
3.64111
 21
-22.7355
  0
LINE
  8
0
 10
3.64111
 20
-22.7355
 11
3.67032
 21
-22.7451
  0
LINE
  8
0
 10
3.67032
 20
-22.7451
 11
3.70068
 21
-22.7529
  0
LINE
  8
0
 10
3.70068
 20
-22.7529
 11
3.73218
 21
-22.7589
  0
LINE
  8
0
 10
3.73218
 20
-22.7589
 11
3.76482
 21
-22.7633
  0
LINE
  8
0
 10
3.76482
 20
-22.7633
 11
3.7986
 21
-22.7659
  0
LINE
  8
0
 10
3.7986
 20
-22.7659
 11
3.83353
 21
-22.7667
  0
LINE
  8
0
 10
3.83353
 20
-22.7667
 11
3.85234
 21
-22.7664
  0
LINE
  8
0
 10
3.85234
 20
-22.7664
 11
3.87085
 21
-22.7656
  0
LINE
  8
0
 10
3.87085
 20
-22.7656
 11
3.88905
 21
-22.7641
  0
LINE
  8
0
 10
3.88905
 20
-22.7641
 11
3.90697
 21
-22.7621
  0
LINE
  8
0
 10
3.90697
 20
-22.7621
 11
3.92456
 21
-22.7595
  0
LINE
  8
0
 10
3.92456
 20
-22.7595
 11
3.94186
 21
-22.7563
  0
LINE
  8
0
 10
3.94186
 20
-22.7563
 11
3.95886
 21
-22.7526
  0
LINE
  8
0
 10
3.95886
 20
-22.7526
 11
3.97556
 21
-22.7482
  0
LINE
  8
0
 10
3.97556
 20
-22.7482
 11
3.99194
 21
-22.7433
  0
LINE
  8
0
 10
3.99194
 20
-22.7433
 11
4.00803
 21
-22.7378
  0
LINE
  8
0
 10
4.00803
 20
-22.7378
 11
4.0238
 21
-22.7318
  0
LINE
  8
0
 10
4.0238
 20
-22.7318
 11
4.03928
 21
-22.7251
  0
LINE
  8
0
 10
4.03928
 20
-22.7251
 11
4.05446
 21
-22.7179
  0
LINE
  8
0
 10
4.05446
 20
-22.7179
 11
4.06923
 21
-22.7101
  0
LINE
  8
0
 10
4.06923
 20
-22.7101
 11
4.0835
 21
-22.7019
  0
LINE
  8
0
 10
4.0835
 20
-22.7019
 11
4.09724
 21
-22.6931
  0
LINE
  8
0
 10
4.09724
 20
-22.6931
 11
4.1105
 21
-22.6838
  0
LINE
  8
0
 10
4.1105
 20
-22.6838
 11
4.12325
 21
-22.674
  0
LINE
  8
0
 10
4.12325
 20
-22.674
 11
4.1355
 21
-22.6637
  0
LINE
  8
0
 10
4.1355
 20
-22.6637
 11
4.14723
 21
-22.6529
  0
LINE
  8
0
 10
4.14723
 20
-22.6529
 11
4.15846
 21
-22.6416
  0
LINE
  8
0
 10
4.15846
 20
-22.6416
 11
4.16919
 21
-22.6298
  0
LINE
  8
0
 10
4.16919
 20
-22.6298
 11
4.17941
 21
-22.6175
  0
LINE
  8
0
 10
4.17941
 20
-22.6175
 11
4.18913
 21
-22.6047
  0
LINE
  8
0
 10
4.18913
 20
-22.6047
 11
4.19833
 21
-22.5914
  0
LINE
  8
0
 10
4.19833
 20
-22.5914
 11
4.20705
 21
-22.5775
  0
LINE
  8
0
 10
4.20705
 20
-22.5775
 11
4.20657
 21
-22.6199
  0
LINE
  8
0
 10
4.20657
 20
-22.6199
 11
4.20518
 21
-22.6605
  0
LINE
  8
0
 10
4.20518
 20
-22.6605
 11
4.20285
 21
-22.6995
  0
LINE
  8
0
 10
4.20285
 20
-22.6995
 11
4.19958
 21
-22.7368
  0
LINE
  8
0
 10
4.19958
 20
-22.7368
 11
4.19539
 21
-22.7724
  0
LINE
  8
0
 10
4.19539
 20
-22.7724
 11
4.19028
 21
-22.8063
  0
LINE
  8
0
 10
4.19028
 20
-22.8063
 11
4.18422
 21
-22.8385
  0
LINE
  8
0
 10
4.18422
 20
-22.8385
 11
4.17723
 21
-22.869
  0
LINE
  8
0
 10
4.17723
 20
-22.869
 11
4.16931
 21
-22.8978
  0
LINE
  8
0
 10
4.16931
 20
-22.8978
 11
4.16046
 21
-22.9249
  0
LINE
  8
0
 10
4.16046
 20
-22.9249
 11
4.15067
 21
-22.9504
  0
LINE
  8
0
 10
4.15067
 20
-22.9504
 11
4.13995
 21
-22.9741
  0
LINE
  8
0
 10
4.13995
 20
-22.9741
 11
4.12831
 21
-22.9962
  0
LINE
  8
0
 10
4.12831
 20
-22.9962
 11
4.11584
 21
-23.0166
  0
LINE
  8
0
 10
4.11584
 20
-23.0166
 11
4.10268
 21
-23.0354
  0
LINE
  8
0
 10
4.10268
 20
-23.0354
 11
4.08882
 21
-23.0525
  0
LINE
  8
0
 10
4.08882
 20
-23.0525
 11
4.07425
 21
-23.068
  0
LINE
  8
0
 10
4.07425
 20
-23.068
 11
4.05899
 21
-23.0819
  0
LINE
  8
0
 10
4.05899
 20
-23.0819
 11
4.04303
 21
-23.0941
  0
LINE
  8
0
 10
4.04303
 20
-23.0941
 11
4.02635
 21
-23.1048
  0
LINE
  8
0
 10
4.02635
 20
-23.1048
 11
4.00899
 21
-23.1137
  0
LINE
  8
0
 10
4.00899
 20
-23.1137
 11
3.99092
 21
-23.1211
  0
LINE
  8
0
 10
3.99092
 20
-23.1211
 11
3.97215
 21
-23.1268
  0
LINE
  8
0
 10
3.97215
 20
-23.1268
 11
3.95268
 21
-23.1309
  0
LINE
  8
0
 10
3.95268
 20
-23.1309
 11
3.93251
 21
-23.1333
  0
LINE
  8
0
 10
3.93251
 20
-23.1333
 11
3.91165
 21
-23.1341
  0
LINE
  8
0
 10
3.91165
 20
-23.1341
 11
3.88754
 21
-23.1331
  0
LINE
  8
0
 10
3.88754
 20
-23.1331
 11
3.86479
 21
-23.1301
  0
LINE
  8
0
 10
3.86479
 20
-23.1301
 11
3.8434
 21
-23.1251
  0
LINE
  8
0
 10
3.8434
 20
-23.1251
 11
3.82336
 21
-23.1181
  0
LINE
  8
0
 10
3.82336
 20
-23.1181
 11
3.80467
 21
-23.109
  0
LINE
  8
0
 10
3.80467
 20
-23.109
 11
3.78735
 21
-23.098
  0
LINE
  8
0
 10
3.78735
 20
-23.098
 11
3.77139
 21
-23.0849
  0
LINE
  8
0
 10
3.77139
 20
-23.0849
 11
3.75679
 21
-23.0699
  0
LINE
  8
0
 10
3.75679
 20
-23.0699
 11
3.74355
 21
-23.0528
  0
LINE
  8
0
 10
3.74355
 20
-23.0528
 11
3.73166
 21
-23.0338
  0
LINE
  8
0
 10
3.73166
 20
-23.0338
 11
3.72113
 21
-23.0127
  0
LINE
  8
0
 10
3.72113
 20
-23.0127
 11
3.71196
 21
-22.9896
  0
LINE
  8
0
 10
3.71196
 20
-22.9896
 11
3.70415
 21
-22.9645
  0
LINE
  8
0
 10
3.70415
 20
-22.9645
 11
3.38068
 21
-23.0096
  0
LINE
  8
0
 10
3.38068
 20
-23.0096
 11
3.38919
 21
-23.0402
  0
LINE
  8
0
 10
3.38919
 20
-23.0402
 11
3.39857
 21
-23.0695
  0
LINE
  8
0
 10
3.39857
 20
-23.0695
 11
3.40883
 21
-23.0975
  0
LINE
  8
0
 10
3.40883
 20
-23.0975
 11
3.41997
 21
-23.1243
  0
LINE
  8
0
 10
3.41997
 20
-23.1243
 11
3.43198
 21
-23.1498
  0
LINE
  8
0
 10
3.43198
 20
-23.1498
 11
3.44485
 21
-23.1741
  0
LINE
  8
0
 10
3.44485
 20
-23.1741
 11
3.4586
 21
-23.1971
  0
LINE
  8
0
 10
3.4586
 20
-23.1971
 11
3.47324
 21
-23.2188
  0
LINE
  8
0
 10
3.47324
 20
-23.2188
 11
3.48874
 21
-23.2393
  0
LINE
  8
0
 10
3.48874
 20
-23.2393
 11
3.50511
 21
-23.2585
  0
LINE
  8
0
 10
3.50511
 20
-23.2585
 11
3.52237
 21
-23.2765
  0
LINE
  8
0
 10
3.52237
 20
-23.2765
 11
3.5405
 21
-23.2932
  0
LINE
  8
0
 10
3.5405
 20
-23.2932
 11
3.55949
 21
-23.3087
  0
LINE
  8
0
 10
3.55949
 20
-23.3087
 11
3.57947
 21
-23.323
  0
LINE
  8
0
 10
3.57947
 20
-23.323
 11
3.60054
 21
-23.3361
  0
LINE
  8
0
 10
3.60054
 20
-23.3361
 11
3.62271
 21
-23.3481
  0
LINE
  8
0
 10
3.62271
 20
-23.3481
 11
3.64597
 21
-23.3589
  0
LINE
  8
0
 10
3.64597
 20
-23.3589
 11
3.6703
 21
-23.3686
  0
LINE
  8
0
 10
3.6703
 20
-23.3686
 11
3.69574
 21
-23.3772
  0
LINE
  8
0
 10
3.69574
 20
-23.3772
 11
3.72227
 21
-23.3846
  0
LINE
  8
0
 10
3.72227
 20
-23.3846
 11
3.74988
 21
-23.3909
  0
LINE
  8
0
 10
3.74988
 20
-23.3909
 11
3.77859
 21
-23.396
  0
LINE
  8
0
 10
3.77859
 20
-23.396
 11
3.80838
 21
-23.4
  0
LINE
  8
0
 10
3.80838
 20
-23.4
 11
3.83928
 21
-23.4028
  0
LINE
  8
0
 10
3.83928
 20
-23.4028
 11
3.87125
 21
-23.4045
  0
LINE
  8
0
 10
3.87125
 20
-23.4045
 11
3.90431
 21
-23.4051
  0
LINE
  8
0
 10
3.90431
 20
-23.4051
 11
3.95081
 21
-23.4037
  0
LINE
  8
0
 10
3.91447
 20
-22.5136
 11
3.89717
 21
-22.5122
  0
LINE
  8
0
 10
3.89717
 20
-22.5122
 11
3.88045
 21
-22.5099
  0
LINE
  8
0
 10
3.88045
 20
-22.5099
 11
3.86433
 21
-22.5067
  0
LINE
  8
0
 10
3.86433
 20
-22.5067
 11
3.84882
 21
-22.5026
  0
LINE
  8
0
 10
3.84882
 20
-22.5026
 11
3.83389
 21
-22.4976
  0
LINE
  8
0
 10
3.83389
 20
-22.4976
 11
3.81958
 21
-22.4916
  0
LINE
  8
0
 10
3.81958
 20
-22.4916
 11
3.80586
 21
-22.4847
  0
LINE
  8
0
 10
3.80586
 20
-22.4847
 11
3.79274
 21
-22.4769
  0
LINE
  8
0
 10
3.79274
 20
-22.4769
 11
3.78023
 21
-22.4682
  0
LINE
  8
0
 10
3.78023
 20
-22.4682
 11
3.7683
 21
-22.4586
  0
LINE
  8
0
 10
3.7683
 20
-22.4586
 11
3.75697
 21
-22.448
  0
LINE
  8
0
 10
3.75697
 20
-22.448
 11
3.74626
 21
-22.4366
  0
LINE
  8
0
 10
3.74626
 20
-22.4366
 11
3.73624
 21
-22.4242
  0
LINE
  8
0
 10
3.73624
 20
-22.4242
 11
3.72702
 21
-22.4111
  0
LINE
  8
0
 10
3.72702
 20
-22.4111
 11
3.7186
 21
-22.3971
  0
LINE
  8
0
 10
3.7186
 20
-22.3971
 11
3.71098
 21
-22.3823
  0
LINE
  8
0
 10
3.71098
 20
-22.3823
 11
3.70416
 21
-22.3667
  0
LINE
  8
0
 10
3.70416
 20
-22.3667
 11
3.69815
 21
-22.3503
  0
LINE
  8
0
 10
3.69815
 20
-22.3503
 11
3.69295
 21
-22.3331
  0
LINE
  8
0
 10
3.69295
 20
-22.3331
 11
3.68854
 21
-22.315
  0
LINE
  8
0
 10
3.68854
 20
-22.315
 11
3.68492
 21
-22.2962
  0
LINE
  8
0
 10
3.68492
 20
-22.2962
 11
3.68211
 21
-22.2765
  0
LINE
  8
0
 10
3.68211
 20
-22.2765
 11
3.68011
 21
-22.256
  0
LINE
  8
0
 10
3.68011
 20
-22.256
 11
3.67891
 21
-22.2347
  0
LINE
  8
0
 10
3.67891
 20
-22.2347
 11
3.67851
 21
-22.2126
  0
LINE
  8
0
 10
3.67851
 20
-22.2126
 11
3.67889
 21
-22.1906
  0
LINE
  8
0
 10
3.67889
 20
-22.1906
 11
3.68004
 21
-22.1694
  0
LINE
  8
0
 10
3.68004
 20
-22.1694
 11
3.68195
 21
-22.1489
  0
LINE
  8
0
 10
3.68195
 20
-22.1489
 11
3.68463
 21
-22.1291
  0
LINE
  8
0
 10
3.68463
 20
-22.1291
 11
3.68808
 21
-22.1101
  0
LINE
  8
0
 10
3.68808
 20
-22.1101
 11
3.69229
 21
-22.0919
  0
LINE
  8
0
 10
3.69229
 20
-22.0919
 11
3.69727
 21
-22.0744
  0
LINE
  8
0
 10
3.69727
 20
-22.0744
 11
3.703
 21
-22.0576
  0
LINE
  8
0
 10
3.703
 20
-22.0576
 11
3.70952
 21
-22.0416
  0
LINE
  8
0
 10
3.70952
 20
-22.0416
 11
3.71678
 21
-22.0263
  0
LINE
  8
0
 10
3.71678
 20
-22.0263
 11
3.72482
 21
-22.0118
  0
LINE
  8
0
 10
3.72482
 20
-22.0118
 11
3.73363
 21
-21.998
  0
LINE
  8
0
 10
3.73363
 20
-21.998
 11
3.74319
 21
-21.9849
  0
LINE
  8
0
 10
3.74319
 20
-21.9849
 11
3.75345
 21
-21.9727
  0
LINE
  8
0
 10
3.75345
 20
-21.9727
 11
3.76431
 21
-21.9615
  0
LINE
  8
0
 10
3.76431
 20
-21.9615
 11
3.77579
 21
-21.9513
  0
LINE
  8
0
 10
3.77579
 20
-21.9513
 11
3.78786
 21
-21.942
  0
LINE
  8
0
 10
3.78786
 20
-21.942
 11
3.80055
 21
-21.9337
  0
LINE
  8
0
 10
3.80055
 20
-21.9337
 11
3.81384
 21
-21.9264
  0
LINE
  8
0
 10
3.81384
 20
-21.9264
 11
3.82773
 21
-21.9201
  0
LINE
  8
0
 10
3.82773
 20
-21.9201
 11
3.84224
 21
-21.9147
  0
LINE
  8
0
 10
3.84224
 20
-21.9147
 11
3.85735
 21
-21.9103
  0
LINE
  8
0
 10
3.85735
 20
-21.9103
 11
3.87306
 21
-21.9069
  0
LINE
  8
0
 10
3.87306
 20
-21.9069
 11
3.88939
 21
-21.9045
  0
LINE
  8
0
 10
3.88939
 20
-21.9045
 11
3.90631
 21
-21.903
  0
LINE
  8
0
 10
3.90631
 20
-21.903
 11
3.92384
 21
-21.9025
  0
LINE
  8
0
 10
3.92384
 20
-21.9025
 11
3.94142
 21
-21.9031
  0
LINE
  8
0
 10
3.94142
 20
-21.9031
 11
3.95847
 21
-21.9049
  0
LINE
  8
0
 10
3.95847
 20
-21.9049
 11
3.97499
 21
-21.9078
  0
LINE
  8
0
 10
3.97499
 20
-21.9078
 11
3.99098
 21
-21.9118
  0
LINE
  8
0
 10
3.99098
 20
-21.9118
 11
4.00645
 21
-21.9171
  0
LINE
  8
0
 10
4.00645
 20
-21.9171
 11
4.02139
 21
-21.9235
  0
LINE
  8
0
 10
4.02139
 20
-21.9235
 11
4.03581
 21
-21.931
  0
LINE
  8
0
 10
4.03581
 20
-21.931
 11
4.0497
 21
-21.9398
  0
LINE
  8
0
 10
4.0497
 20
-21.9398
 11
4.06305
 21
-21.9496
  0
LINE
  8
0
 10
4.06305
 20
-21.9496
 11
4.07588
 21
-21.9607
  0
LINE
  8
0
 10
4.07588
 20
-21.9607
 11
4.08818
 21
-21.9729
  0
LINE
  8
0
 10
4.08818
 20
-21.9729
 11
4.09996
 21
-21.9863
  0
LINE
  8
0
 10
4.09996
 20
-21.9863
 11
4.11121
 21
-22.0008
  0
LINE
  8
0
 10
4.11121
 20
-22.0008
 11
4.12178
 21
-22.0162
  0
LINE
  8
0
 10
4.12178
 20
-22.0162
 11
4.13148
 21
-22.0323
  0
LINE
  8
0
 10
4.13148
 20
-22.0323
 11
4.14037
 21
-22.0489
  0
LINE
  8
0
 10
4.14037
 20
-22.0489
 11
4.14839
 21
-22.0662
  0
LINE
  8
0
 10
4.14839
 20
-22.0662
 11
4.15558
 21
-22.0841
  0
LINE
  8
0
 10
4.15558
 20
-22.0841
 11
4.16191
 21
-22.1026
  0
LINE
  8
0
 10
4.16191
 20
-22.1026
 11
4.1674
 21
-22.1217
  0
LINE
  8
0
 10
4.1674
 20
-22.1217
 11
4.17206
 21
-22.1414
  0
LINE
  8
0
 10
4.17206
 20
-22.1414
 11
4.17586
 21
-22.1617
  0
LINE
  8
0
 10
4.17586
 20
-22.1617
 11
4.17882
 21
-22.1827
  0
LINE
  8
0
 10
4.17882
 20
-22.1827
 11
4.18092
 21
-22.2042
  0
LINE
  8
0
 10
4.18092
 20
-22.2042
 11
4.18219
 21
-22.2264
  0
LINE
  8
0
 10
4.18219
 20
-22.2264
 11
4.18262
 21
-22.2492
  0
LINE
  8
0
 10
4.18262
 20
-22.2492
 11
4.18221
 21
-22.2673
  0
LINE
  8
0
 10
4.18221
 20
-22.2673
 11
4.181
 21
-22.2849
  0
LINE
  8
0
 10
4.181
 20
-22.2849
 11
4.17897
 21
-22.3019
  0
LINE
  8
0
 10
4.17897
 20
-22.3019
 11
4.17615
 21
-22.3184
  0
LINE
  8
0
 10
4.17615
 20
-22.3184
 11
4.1725
 21
-22.3343
  0
LINE
  8
0
 10
4.1725
 20
-22.3343
 11
4.16806
 21
-22.3496
  0
LINE
  8
0
 10
4.16806
 20
-22.3496
 11
4.1628
 21
-22.3644
  0
LINE
  8
0
 10
4.1628
 20
-22.3644
 11
4.15674
 21
-22.3786
  0
LINE
  8
0
 10
4.15674
 20
-22.3786
 11
4.14986
 21
-22.3923
  0
LINE
  8
0
 10
4.14986
 20
-22.3923
 11
4.14218
 21
-22.4054
  0
LINE
  8
0
 10
4.14218
 20
-22.4054
 11
4.13368
 21
-22.418
  0
LINE
  8
0
 10
4.13368
 20
-22.418
 11
4.12437
 21
-22.43
  0
LINE
  8
0
 10
4.12437
 20
-22.43
 11
4.11427
 21
-22.4415
  0
LINE
  8
0
 10
4.11427
 20
-22.4415
 11
4.10349
 21
-22.4522
  0
LINE
  8
0
 10
4.10349
 20
-22.4522
 11
4.09216
 21
-22.4621
  0
LINE
  8
0
 10
4.09216
 20
-22.4621
 11
4.08031
 21
-22.4711
  0
LINE
  8
0
 10
4.08031
 20
-22.4711
 11
4.06793
 21
-22.4793
  0
LINE
  8
0
 10
4.06793
 20
-22.4793
 11
4.05501
 21
-22.4866
  0
LINE
  8
0
 10
4.05501
 20
-22.4866
 11
4.04155
 21
-22.493
  0
LINE
  8
0
 10
4.04155
 20
-22.493
 11
4.02756
 21
-22.4986
  0
LINE
  8
0
 10
4.02756
 20
-22.4986
 11
4.01303
 21
-22.5033
  0
LINE
  8
0
 10
4.01303
 20
-22.5033
 11
3.99797
 21
-22.5072
  0
LINE
  8
0
 10
3.99797
 20
-22.5072
 11
3.98238
 21
-22.5102
  0
LINE
  8
0
 10
3.98238
 20
-22.5102
 11
3.96625
 21
-22.5123
  0
LINE
  8
0
 10
3.96625
 20
-22.5123
 11
3.9496
 21
-22.5136
  0
LINE
  8
0
 10
3.9496
 20
-22.5136
 11
3.9324
 21
-22.5141
  0
LINE
  8
0
 10
3.9324
 20
-22.5141
 11
3.91447
 21
-22.5136
  0
LINE
  8
0
 10
-6.67549
 20
-23.4037
 11
-6.63069
 21
-23.3996
  0
LINE
  8
0
 10
-6.63069
 20
-23.3996
 11
-6.58759
 21
-23.3927
  0
LINE
  8
0
 10
-6.58759
 20
-23.3927
 11
-6.54614
 21
-23.3831
  0
LINE
  8
0
 10
-6.54614
 20
-23.3831
 11
-6.50639
 21
-23.3707
  0
LINE
  8
0
 10
-6.50639
 20
-23.3707
 11
-6.46832
 21
-23.3556
  0
LINE
  8
0
 10
-6.46832
 20
-23.3556
 11
-6.43195
 21
-23.3377
  0
LINE
  8
0
 10
-6.43195
 20
-23.3377
 11
-6.39725
 21
-23.317
  0
LINE
  8
0
 10
-6.39725
 20
-23.317
 11
-6.36423
 21
-23.2937
  0
LINE
  8
0
 10
-6.36423
 20
-23.2937
 11
-6.33289
 21
-23.2675
  0
LINE
  8
0
 10
-6.33289
 20
-23.2675
 11
-6.30324
 21
-23.2386
  0
LINE
  8
0
 10
-6.30324
 20
-23.2386
 11
-6.27527
 21
-23.207
  0
LINE
  8
0
 10
-6.27527
 20
-23.207
 11
-6.24898
 21
-23.1726
  0
LINE
  8
0
 10
-6.24898
 20
-23.1726
 11
-6.2245
 21
-23.1355
  0
LINE
  8
0
 10
-6.2245
 20
-23.1355
 11
-6.202
 21
-23.0956
  0
LINE
  8
0
 10
-6.202
 20
-23.0956
 11
-6.18144
 21
-23.0531
  0
LINE
  8
0
 10
-6.18144
 20
-23.0531
 11
-6.16286
 21
-23.0079
  0
LINE
  8
0
 10
-6.16286
 20
-23.0079
 11
-6.14622
 21
-22.96
  0
LINE
  8
0
 10
-6.14622
 20
-22.96
 11
-6.13155
 21
-22.9094
  0
LINE
  8
0
 10
-6.13155
 20
-22.9094
 11
-6.11882
 21
-22.8562
  0
LINE
  8
0
 10
-6.11882
 20
-22.8562
 11
-6.10805
 21
-22.8002
  0
LINE
  8
0
 10
-6.10805
 20
-22.8002
 11
-6.09924
 21
-22.7415
  0
LINE
  8
0
 10
-6.09924
 20
-22.7415
 11
-6.09239
 21
-22.6801
  0
LINE
  8
0
 10
-6.09239
 20
-22.6801
 11
-6.08751
 21
-22.6161
  0
LINE
  8
0
 10
-6.08751
 20
-22.6161
 11
-6.08456
 21
-22.5493
  0
LINE
  8
0
 10
-6.08456
 20
-22.5493
 11
-6.08359
 21
-22.4799
  0
LINE
  8
0
 10
-6.08359
 20
-22.4799
 11
-6.08455
 21
-22.4167
  0
LINE
  8
0
 10
-6.08455
 20
-22.4167
 11
-6.08745
 21
-22.3559
  0
LINE
  8
0
 10
-6.08745
 20
-22.3559
 11
-6.09227
 21
-22.2976
  0
LINE
  8
0
 10
-6.09227
 20
-22.2976
 11
-6.09901
 21
-22.2417
  0
LINE
  8
0
 10
-6.09901
 20
-22.2417
 11
-6.1077
 21
-22.1883
  0
LINE
  8
0
 10
-6.1077
 20
-22.1883
 11
-6.1183
 21
-22.1372
  0
LINE
  8
0
 10
-6.1183
 20
-22.1372
 11
-6.13083
 21
-22.0886
  0
LINE
  8
0
 10
-6.13083
 20
-22.0886
 11
-6.14529
 21
-22.0425
  0
LINE
  8
0
 10
-6.14529
 20
-22.0425
 11
-6.1617
 21
-21.9988
  0
LINE
  8
0
 10
-6.1617
 20
-21.9988
 11
-6.18001
 21
-21.9575
  0
LINE
  8
0
 10
-6.18001
 20
-21.9575
 11
-6.20026
 21
-21.9186
  0
LINE
  8
0
 10
-6.20026
 20
-21.9186
 11
-6.22244
 21
-21.8822
  0
LINE
  8
0
 10
-6.22244
 20
-21.8822
 11
-6.24654
 21
-21.8482
  0
LINE
  8
0
 10
-6.24654
 20
-21.8482
 11
-6.27245
 21
-21.8167
  0
LINE
  8
0
 10
-6.27245
 20
-21.8167
 11
-6.30002
 21
-21.7877
  0
LINE
  8
0
 10
-6.30002
 20
-21.7877
 11
-6.32925
 21
-21.7613
  0
LINE
  8
0
 10
-6.32925
 20
-21.7613
 11
-6.36017
 21
-21.7373
  0
LINE
  8
0
 10
-6.36017
 20
-21.7373
 11
-6.39275
 21
-21.7159
  0
LINE
  8
0
 10
-6.39275
 20
-21.7159
 11
-6.42699
 21
-21.697
  0
LINE
  8
0
 10
-6.42699
 20
-21.697
 11
-6.46291
 21
-21.6806
  0
LINE
  8
0
 10
-6.46291
 20
-21.6806
 11
-6.50049
 21
-21.6667
  0
LINE
  8
0
 10
-6.50049
 20
-21.6667
 11
-6.53973
 21
-21.6554
  0
LINE
  8
0
 10
-6.53973
 20
-21.6554
 11
-6.58066
 21
-21.6466
  0
LINE
  8
0
 10
-6.58066
 20
-21.6466
 11
-6.62325
 21
-21.6403
  0
LINE
  8
0
 10
-6.62325
 20
-21.6403
 11
-6.6675
 21
-21.6365
  0
LINE
  8
0
 10
-6.6675
 20
-21.6365
 11
-6.71342
 21
-21.6352
  0
LINE
  8
0
 10
-6.71342
 20
-21.6352
 11
-6.75443
 21
-21.6362
  0
LINE
  8
0
 10
-6.75443
 20
-21.6362
 11
-6.79404
 21
-21.6389
  0
LINE
  8
0
 10
-6.79404
 20
-21.6389
 11
-6.83226
 21
-21.6435
  0
LINE
  8
0
 10
-6.83226
 20
-21.6435
 11
-6.86909
 21
-21.65
  0
LINE
  8
0
 10
-6.86909
 20
-21.65
 11
-6.90454
 21
-21.6583
  0
LINE
  8
0
 10
-6.90454
 20
-21.6583
 11
-6.93861
 21
-21.6685
  0
LINE
  8
0
 10
-6.93861
 20
-21.6685
 11
-6.97128
 21
-21.6805
  0
LINE
  8
0
 10
-6.97128
 20
-21.6805
 11
-7.00256
 21
-21.6944
  0
LINE
  8
0
 10
-7.00256
 20
-21.6944
 11
-7.03247
 21
-21.7101
  0
LINE
  8
0
 10
-7.03247
 20
-21.7101
 11
-7.06099
 21
-21.7277
  0
LINE
  8
0
 10
-7.06099
 20
-21.7277
 11
-7.08812
 21
-21.7471
  0
LINE
  8
0
 10
-7.08812
 20
-21.7471
 11
-7.11386
 21
-21.7684
  0
LINE
  8
0
 10
-7.11386
 20
-21.7684
 11
-7.13821
 21
-21.7915
  0
LINE
  8
0
 10
-7.13821
 20
-21.7915
 11
-7.16096
 21
-21.8162
  0
LINE
  8
0
 10
-7.16096
 20
-21.8162
 11
-7.18188
 21
-21.8423
  0
LINE
  8
0
 10
-7.18188
 20
-21.8423
 11
-7.201
 21
-21.8699
  0
LINE
  8
0
 10
-7.201
 20
-21.8699
 11
-7.21829
 21
-21.8988
  0
LINE
  8
0
 10
-7.21829
 20
-21.8988
 11
-7.23376
 21
-21.9292
  0
LINE
  8
0
 10
-7.23376
 20
-21.9292
 11
-7.24741
 21
-21.9609
  0
LINE
  8
0
 10
-7.24741
 20
-21.9609
 11
-7.25925
 21
-21.994
  0
LINE
  8
0
 10
-7.25925
 20
-21.994
 11
-7.26926
 21
-22.0286
  0
LINE
  8
0
 10
-7.26926
 20
-22.0286
 11
-7.27744
 21
-22.0645
  0
LINE
  8
0
 10
-7.27744
 20
-22.0645
 11
-7.28381
 21
-22.1019
  0
LINE
  8
0
 10
-7.28381
 20
-22.1019
 11
-7.28836
 21
-22.1406
  0
LINE
  8
0
 10
-7.28836
 20
-22.1406
 11
-7.29109
 21
-22.1808
  0
LINE
  8
0
 10
-7.29109
 20
-22.1808
 11
-7.29201
 21
-22.2224
  0
LINE
  8
0
 10
-7.29201
 20
-22.2224
 11
-7.29121
 21
-22.2604
  0
LINE
  8
0
 10
-7.29121
 20
-22.2604
 11
-7.28882
 21
-22.2972
  0
LINE
  8
0
 10
-7.28882
 20
-22.2972
 11
-7.28485
 21
-22.3328
  0
LINE
  8
0
 10
-7.28485
 20
-22.3328
 11
-7.2793
 21
-22.3671
  0
LINE
  8
0
 10
-7.2793
 20
-22.3671
 11
-7.27214
 21
-22.4002
  0
LINE
  8
0
 10
-7.27214
 20
-22.4002
 11
-7.2634
 21
-22.4321
  0
LINE
  8
0
 10
-7.2634
 20
-22.4321
 11
-7.25307
 21
-22.4627
  0
LINE
  8
0
 10
-7.25307
 20
-22.4627
 11
-7.24115
 21
-22.4921
  0
LINE
  8
0
 10
-7.24115
 20
-22.4921
 11
-7.22765
 21
-22.5202
  0
LINE
  8
0
 10
-7.22765
 20
-22.5202
 11
-7.21255
 21
-22.5471
  0
LINE
  8
0
 10
-7.21255
 20
-22.5471
 11
-7.19588
 21
-22.5727
  0
LINE
  8
0
 10
-7.19588
 20
-22.5727
 11
-7.1776
 21
-22.5971
  0
LINE
  8
0
 10
-7.1776
 20
-22.5971
 11
-7.15775
 21
-22.6202
  0
LINE
  8
0
 10
-7.15775
 20
-22.6202
 11
-7.13652
 21
-22.6419
  0
LINE
  8
0
 10
-7.13652
 20
-22.6419
 11
-7.11415
 21
-22.6618
  0
LINE
  8
0
 10
-7.11415
 20
-22.6618
 11
-7.09064
 21
-22.6801
  0
LINE
  8
0
 10
-7.09064
 20
-22.6801
 11
-7.06598
 21
-22.6965
  0
LINE
  8
0
 10
-7.06598
 20
-22.6965
 11
-7.04019
 21
-22.7113
  0
LINE
  8
0
 10
-7.04019
 20
-22.7113
 11
-7.01326
 21
-22.7243
  0
LINE
  8
0
 10
-7.01326
 20
-22.7243
 11
-6.98518
 21
-22.7355
  0
LINE
  8
0
 10
-6.98518
 20
-22.7355
 11
-6.95596
 21
-22.7451
  0
LINE
  8
0
 10
-6.95596
 20
-22.7451
 11
-6.92561
 21
-22.7529
  0
LINE
  8
0
 10
-6.92561
 20
-22.7529
 11
-6.89412
 21
-22.7589
  0
LINE
  8
0
 10
-6.89412
 20
-22.7589
 11
-6.86148
 21
-22.7633
  0
LINE
  8
0
 10
-6.86148
 20
-22.7633
 11
-6.8277
 21
-22.7659
  0
LINE
  8
0
 10
-6.8277
 20
-22.7659
 11
-6.79277
 21
-22.7667
  0
LINE
  8
0
 10
-6.79277
 20
-22.7667
 11
-6.77396
 21
-22.7664
  0
LINE
  8
0
 10
-6.77396
 20
-22.7664
 11
-6.75545
 21
-22.7656
  0
LINE
  8
0
 10
-6.75545
 20
-22.7656
 11
-6.73724
 21
-22.7641
  0
LINE
  8
0
 10
-6.73724
 20
-22.7641
 11
-6.71933
 21
-22.7621
  0
LINE
  8
0
 10
-6.71933
 20
-22.7621
 11
-6.70174
 21
-22.7595
  0
LINE
  8
0
 10
-6.70174
 20
-22.7595
 11
-6.68443
 21
-22.7563
  0
LINE
  8
0
 10
-6.68443
 20
-22.7563
 11
-6.66743
 21
-22.7526
  0
LINE
  8
0
 10
-6.66743
 20
-22.7526
 11
-6.65074
 21
-22.7482
  0
LINE
  8
0
 10
-6.65074
 20
-22.7482
 11
-6.63435
 21
-22.7433
  0
LINE
  8
0
 10
-6.63435
 20
-22.7433
 11
-6.61827
 21
-22.7378
  0
LINE
  8
0
 10
-6.61827
 20
-22.7378
 11
-6.60249
 21
-22.7318
  0
LINE
  8
0
 10
-6.60249
 20
-22.7318
 11
-6.58702
 21
-22.7251
  0
LINE
  8
0
 10
-6.58702
 20
-22.7251
 11
-6.57184
 21
-22.7179
  0
LINE
  8
0
 10
-6.57184
 20
-22.7179
 11
-6.55707
 21
-22.7101
  0
LINE
  8
0
 10
-6.55707
 20
-22.7101
 11
-6.5428
 21
-22.7019
  0
LINE
  8
0
 10
-6.5428
 20
-22.7019
 11
-6.52904
 21
-22.6931
  0
LINE
  8
0
 10
-6.52904
 20
-22.6931
 11
-6.51579
 21
-22.6838
  0
LINE
  8
0
 10
-6.51579
 20
-22.6838
 11
-6.50304
 21
-22.674
  0
LINE
  8
0
 10
-6.50304
 20
-22.674
 11
-6.4908
 21
-22.6637
  0
LINE
  8
0
 10
-6.4908
 20
-22.6637
 11
-6.47906
 21
-22.6529
  0
LINE
  8
0
 10
-6.47906
 20
-22.6529
 11
-6.46783
 21
-22.6416
  0
LINE
  8
0
 10
-6.46783
 20
-22.6416
 11
-6.45711
 21
-22.6298
  0
LINE
  8
0
 10
-6.45711
 20
-22.6298
 11
-6.44688
 21
-22.6175
  0
LINE
  8
0
 10
-6.44688
 20
-22.6175
 11
-6.43716
 21
-22.6047
  0
LINE
  8
0
 10
-6.43716
 20
-22.6047
 11
-6.42796
 21
-22.5914
  0
LINE
  8
0
 10
-6.42796
 20
-22.5914
 11
-6.41925
 21
-22.5775
  0
LINE
  8
0
 10
-6.41925
 20
-22.5775
 11
-6.41972
 21
-22.6199
  0
LINE
  8
0
 10
-6.41972
 20
-22.6199
 11
-6.42111
 21
-22.6605
  0
LINE
  8
0
 10
-6.42111
 20
-22.6605
 11
-6.42345
 21
-22.6995
  0
LINE
  8
0
 10
-6.42345
 20
-22.6995
 11
-6.42671
 21
-22.7368
  0
LINE
  8
0
 10
-6.42671
 20
-22.7368
 11
-6.43089
 21
-22.7724
  0
LINE
  8
0
 10
-6.43089
 20
-22.7724
 11
-6.43602
 21
-22.8063
  0
LINE
  8
0
 10
-6.43602
 20
-22.8063
 11
-6.44208
 21
-22.8385
  0
LINE
  8
0
 10
-6.44208
 20
-22.8385
 11
-6.44907
 21
-22.869
  0
LINE
  8
0
 10
-6.44907
 20
-22.869
 11
-6.45699
 21
-22.8978
  0
LINE
  8
0
 10
-6.45699
 20
-22.8978
 11
-6.46584
 21
-22.9249
  0
LINE
  8
0
 10
-6.46584
 20
-22.9249
 11
-6.47562
 21
-22.9504
  0
LINE
  8
0
 10
-6.47562
 20
-22.9504
 11
-6.48634
 21
-22.9741
  0
LINE
  8
0
 10
-6.48634
 20
-22.9741
 11
-6.49799
 21
-22.9962
  0
LINE
  8
0
 10
-6.49799
 20
-22.9962
 11
-6.51045
 21
-23.0166
  0
LINE
  8
0
 10
-6.51045
 20
-23.0166
 11
-6.52361
 21
-23.0354
  0
LINE
  8
0
 10
-6.52361
 20
-23.0354
 11
-6.53748
 21
-23.0525
  0
LINE
  8
0
 10
-6.53748
 20
-23.0525
 11
-6.55205
 21
-23.068
  0
LINE
  8
0
 10
-6.55205
 20
-23.068
 11
-6.56731
 21
-23.0819
  0
LINE
  8
0
 10
-6.56731
 20
-23.0819
 11
-6.58327
 21
-23.0941
  0
LINE
  8
0
 10
-6.58327
 20
-23.0941
 11
-6.59995
 21
-23.1048
  0
LINE
  8
0
 10
-6.59995
 20
-23.1048
 11
-6.61731
 21
-23.1137
  0
LINE
  8
0
 10
-6.61731
 20
-23.1137
 11
-6.63538
 21
-23.1211
  0
LINE
  8
0
 10
-6.63538
 20
-23.1211
 11
-6.65414
 21
-23.1268
  0
LINE
  8
0
 10
-6.65414
 20
-23.1268
 11
-6.67361
 21
-23.1309
  0
LINE
  8
0
 10
-6.67361
 20
-23.1309
 11
-6.69379
 21
-23.1333
  0
LINE
  8
0
 10
-6.69379
 20
-23.1333
 11
-6.71465
 21
-23.1341
  0
LINE
  8
0
 10
-6.71465
 20
-23.1341
 11
-6.73875
 21
-23.1331
  0
LINE
  8
0
 10
-6.73875
 20
-23.1331
 11
-6.76151
 21
-23.1301
  0
LINE
  8
0
 10
-6.76151
 20
-23.1301
 11
-6.7829
 21
-23.1251
  0
LINE
  8
0
 10
-6.7829
 20
-23.1251
 11
-6.80293
 21
-23.1181
  0
LINE
  8
0
 10
-6.80293
 20
-23.1181
 11
-6.82161
 21
-23.109
  0
LINE
  8
0
 10
-6.82161
 20
-23.109
 11
-6.83893
 21
-23.098
  0
LINE
  8
0
 10
-6.83893
 20
-23.098
 11
-6.8549
 21
-23.0849
  0
LINE
  8
0
 10
-6.8549
 20
-23.0849
 11
-6.86951
 21
-23.0699
  0
LINE
  8
0
 10
-6.86951
 20
-23.0699
 11
-6.88275
 21
-23.0528
  0
LINE
  8
0
 10
-6.88275
 20
-23.0528
 11
-6.89464
 21
-23.0338
  0
LINE
  8
0
 10
-6.89464
 20
-23.0338
 11
-6.90517
 21
-23.0127
  0
LINE
  8
0
 10
-6.90517
 20
-23.0127
 11
-6.91434
 21
-22.9896
  0
LINE
  8
0
 10
-6.91434
 20
-22.9896
 11
-6.92215
 21
-22.9645
  0
LINE
  8
0
 10
-6.92215
 20
-22.9645
 11
-7.24562
 21
-23.0096
  0
LINE
  8
0
 10
-7.24562
 20
-23.0096
 11
-7.23711
 21
-23.0402
  0
LINE
  8
0
 10
-7.23711
 20
-23.0402
 11
-7.22772
 21
-23.0695
  0
LINE
  8
0
 10
-7.22772
 20
-23.0695
 11
-7.21747
 21
-23.0975
  0
LINE
  8
0
 10
-7.21747
 20
-23.0975
 11
-7.20633
 21
-23.1243
  0
LINE
  8
0
 10
-7.20633
 20
-23.1243
 11
-7.19432
 21
-23.1498
  0
LINE
  8
0
 10
-7.19432
 20
-23.1498
 11
-7.18144
 21
-23.1741
  0
LINE
  8
0
 10
-7.18144
 20
-23.1741
 11
-7.16769
 21
-23.1971
  0
LINE
  8
0
 10
-7.16769
 20
-23.1971
 11
-7.15306
 21
-23.2188
  0
LINE
  8
0
 10
-7.15306
 20
-23.2188
 11
-7.13756
 21
-23.2393
  0
LINE
  8
0
 10
-7.13756
 20
-23.2393
 11
-7.12119
 21
-23.2585
  0
LINE
  8
0
 10
-7.12119
 20
-23.2585
 11
-7.10393
 21
-23.2765
  0
LINE
  8
0
 10
-7.10393
 20
-23.2765
 11
-7.0858
 21
-23.2932
  0
LINE
  8
0
 10
-7.0858
 20
-23.2932
 11
-7.0668
 21
-23.3087
  0
LINE
  8
0
 10
-7.0668
 20
-23.3087
 11
-7.04681
 21
-23.323
  0
LINE
  8
0
 10
-7.04681
 20
-23.323
 11
-7.02574
 21
-23.3361
  0
LINE
  8
0
 10
-7.02574
 20
-23.3361
 11
-7.00359
 21
-23.3481
  0
LINE
  8
0
 10
-7.00359
 20
-23.3481
 11
-6.98033
 21
-23.3589
  0
LINE
  8
0
 10
-6.98033
 20
-23.3589
 11
-6.95599
 21
-23.3686
  0
LINE
  8
0
 10
-6.95599
 20
-23.3686
 11
-6.93056
 21
-23.3772
  0
LINE
  8
0
 10
-6.93056
 20
-23.3772
 11
-6.90402
 21
-23.3846
  0
LINE
  8
0
 10
-6.90402
 20
-23.3846
 11
-6.8764
 21
-23.3909
  0
LINE
  8
0
 10
-6.8764
 20
-23.3909
 11
-6.8477
 21
-23.396
  0
LINE
  8
0
 10
-6.8477
 20
-23.396
 11
-6.8179
 21
-23.4
  0
LINE
  8
0
 10
-6.8179
 20
-23.4
 11
-6.78702
 21
-23.4028
  0
LINE
  8
0
 10
-6.78702
 20
-23.4028
 11
-6.75505
 21
-23.4045
  0
LINE
  8
0
 10
-6.75505
 20
-23.4045
 11
-6.72197
 21
-23.4051
  0
LINE
  8
0
 10
-6.72197
 20
-23.4051
 11
-6.67549
 21
-23.4037
  0
LINE
  8
0
 10
-6.71181
 20
-22.5136
 11
-6.72913
 21
-22.5122
  0
LINE
  8
0
 10
-6.72913
 20
-22.5122
 11
-6.74585
 21
-22.5099
  0
LINE
  8
0
 10
-6.74585
 20
-22.5099
 11
-6.76196
 21
-22.5067
  0
LINE
  8
0
 10
-6.76196
 20
-22.5067
 11
-6.77748
 21
-22.5026
  0
LINE
  8
0
 10
-6.77748
 20
-22.5026
 11
-6.7924
 21
-22.4976
  0
LINE
  8
0
 10
-6.7924
 20
-22.4976
 11
-6.80672
 21
-22.4916
  0
LINE
  8
0
 10
-6.80672
 20
-22.4916
 11
-6.82043
 21
-22.4847
  0
LINE
  8
0
 10
-6.82043
 20
-22.4847
 11
-6.83356
 21
-22.4769
  0
LINE
  8
0
 10
-6.83356
 20
-22.4769
 11
-6.84607
 21
-22.4682
  0
LINE
  8
0
 10
-6.84607
 20
-22.4682
 11
-6.858
 21
-22.4586
  0
LINE
  8
0
 10
-6.858
 20
-22.4586
 11
-6.86931
 21
-22.448
  0
LINE
  8
0
 10
-6.86931
 20
-22.448
 11
-6.88004
 21
-22.4366
  0
LINE
  8
0
 10
-6.88004
 20
-22.4366
 11
-6.89006
 21
-22.4242
  0
LINE
  8
0
 10
-6.89006
 20
-22.4242
 11
-6.89928
 21
-22.4111
  0
LINE
  8
0
 10
-6.89928
 20
-22.4111
 11
-6.9077
 21
-22.3971
  0
LINE
  8
0
 10
-6.9077
 20
-22.3971
 11
-6.91531
 21
-22.3823
  0
LINE
  8
0
 10
-6.91531
 20
-22.3823
 11
-6.92213
 21
-22.3667
  0
LINE
  8
0
 10
-6.92213
 20
-22.3667
 11
-6.92815
 21
-22.3503
  0
LINE
  8
0
 10
-6.92815
 20
-22.3503
 11
-6.93335
 21
-22.3331
  0
LINE
  8
0
 10
-6.93335
 20
-22.3331
 11
-6.93776
 21
-22.315
  0
LINE
  8
0
 10
-6.93776
 20
-22.315
 11
-6.94138
 21
-22.2962
  0
LINE
  8
0
 10
-6.94138
 20
-22.2962
 11
-6.94418
 21
-22.2765
  0
LINE
  8
0
 10
-6.94418
 20
-22.2765
 11
-6.94618
 21
-22.256
  0
LINE
  8
0
 10
-6.94618
 20
-22.256
 11
-6.94739
 21
-22.2347
  0
LINE
  8
0
 10
-6.94739
 20
-22.2347
 11
-6.94778
 21
-22.2126
  0
LINE
  8
0
 10
-6.94778
 20
-22.2126
 11
-6.9474
 21
-22.1906
  0
LINE
  8
0
 10
-6.9474
 20
-22.1906
 11
-6.94626
 21
-22.1694
  0
LINE
  8
0
 10
-6.94626
 20
-22.1694
 11
-6.94434
 21
-22.1489
  0
LINE
  8
0
 10
-6.94434
 20
-22.1489
 11
-6.94167
 21
-22.1291
  0
LINE
  8
0
 10
-6.94167
 20
-22.1291
 11
-6.93822
 21
-22.1101
  0
LINE
  8
0
 10
-6.93822
 20
-22.1101
 11
-6.93401
 21
-22.0919
  0
LINE
  8
0
 10
-6.93401
 20
-22.0919
 11
-6.92903
 21
-22.0744
  0
LINE
  8
0
 10
-6.92903
 20
-22.0744
 11
-6.92329
 21
-22.0576
  0
LINE
  8
0
 10
-6.92329
 20
-22.0576
 11
-6.91678
 21
-22.0416
  0
LINE
  8
0
 10
-6.91678
 20
-22.0416
 11
-6.90952
 21
-22.0263
  0
LINE
  8
0
 10
-6.90952
 20
-22.0263
 11
-6.90147
 21
-22.0118
  0
LINE
  8
0
 10
-6.90147
 20
-22.0118
 11
-6.89267
 21
-21.998
  0
LINE
  8
0
 10
-6.89267
 20
-21.998
 11
-6.8831
 21
-21.9849
  0
LINE
  8
0
 10
-6.8831
 20
-21.9849
 11
-6.87283
 21
-21.9727
  0
LINE
  8
0
 10
-6.87283
 20
-21.9727
 11
-6.86197
 21
-21.9615
  0
LINE
  8
0
 10
-6.86197
 20
-21.9615
 11
-6.85051
 21
-21.9513
  0
LINE
  8
0
 10
-6.85051
 20
-21.9513
 11
-6.83842
 21
-21.942
  0
LINE
  8
0
 10
-6.83842
 20
-21.942
 11
-6.82574
 21
-21.9337
  0
LINE
  8
0
 10
-6.82574
 20
-21.9337
 11
-6.81245
 21
-21.9264
  0
LINE
  8
0
 10
-6.81245
 20
-21.9264
 11
-6.79857
 21
-21.9201
  0
LINE
  8
0
 10
-6.79857
 20
-21.9201
 11
-6.78406
 21
-21.9147
  0
LINE
  8
0
 10
-6.78406
 20
-21.9147
 11
-6.76895
 21
-21.9103
  0
LINE
  8
0
 10
-6.76895
 20
-21.9103
 11
-6.75323
 21
-21.9069
  0
LINE
  8
0
 10
-6.75323
 20
-21.9069
 11
-6.73691
 21
-21.9045
  0
LINE
  8
0
 10
-6.73691
 20
-21.9045
 11
-6.71999
 21
-21.903
  0
LINE
  8
0
 10
-6.71999
 20
-21.903
 11
-6.70245
 21
-21.9025
  0
LINE
  8
0
 10
-6.70245
 20
-21.9025
 11
-6.68488
 21
-21.9031
  0
LINE
  8
0
 10
-6.68488
 20
-21.9031
 11
-6.66782
 21
-21.9049
  0
LINE
  8
0
 10
-6.66782
 20
-21.9049
 11
-6.65131
 21
-21.9078
  0
LINE
  8
0
 10
-6.65131
 20
-21.9078
 11
-6.63531
 21
-21.9118
  0
LINE
  8
0
 10
-6.63531
 20
-21.9118
 11
-6.61984
 21
-21.9171
  0
LINE
  8
0
 10
-6.61984
 20
-21.9171
 11
-6.6049
 21
-21.9235
  0
LINE
  8
0
 10
-6.6049
 20
-21.9235
 11
-6.59048
 21
-21.931
  0
LINE
  8
0
 10
-6.59048
 20
-21.931
 11
-6.5766
 21
-21.9398
  0
LINE
  8
0
 10
-6.5766
 20
-21.9398
 11
-6.56325
 21
-21.9496
  0
LINE
  8
0
 10
-6.56325
 20
-21.9496
 11
-6.55042
 21
-21.9607
  0
LINE
  8
0
 10
-6.55042
 20
-21.9607
 11
-6.53812
 21
-21.9729
  0
LINE
  8
0
 10
-6.53812
 20
-21.9729
 11
-6.52634
 21
-21.9863
  0
LINE
  8
0
 10
-6.52634
 20
-21.9863
 11
-6.51509
 21
-22.0008
  0
LINE
  8
0
 10
-6.51509
 20
-22.0008
 11
-6.50452
 21
-22.0162
  0
LINE
  8
0
 10
-6.50452
 20
-22.0162
 11
-6.4948
 21
-22.0323
  0
LINE
  8
0
 10
-6.4948
 20
-22.0323
 11
-6.48593
 21
-22.0489
  0
LINE
  8
0
 10
-6.48593
 20
-22.0489
 11
-6.47791
 21
-22.0662
  0
LINE
  8
0
 10
-6.47791
 20
-22.0662
 11
-6.47072
 21
-22.0841
  0
LINE
  8
0
 10
-6.47072
 20
-22.0841
 11
-6.46439
 21
-22.1026
  0
LINE
  8
0
 10
-6.46439
 20
-22.1026
 11
-6.45889
 21
-22.1217
  0
LINE
  8
0
 10
-6.45889
 20
-22.1217
 11
-6.45424
 21
-22.1414
  0
LINE
  8
0
 10
-6.45424
 20
-22.1414
 11
-6.45044
 21
-22.1617
  0
LINE
  8
0
 10
-6.45044
 20
-22.1617
 11
-6.44748
 21
-22.1827
  0
LINE
  8
0
 10
-6.44748
 20
-22.1827
 11
-6.44537
 21
-22.2042
  0
LINE
  8
0
 10
-6.44537
 20
-22.2042
 11
-6.44411
 21
-22.2264
  0
LINE
  8
0
 10
-6.44411
 20
-22.2264
 11
-6.44368
 21
-22.2492
  0
LINE
  8
0
 10
-6.44368
 20
-22.2492
 11
-6.44408
 21
-22.2673
  0
LINE
  8
0
 10
-6.44408
 20
-22.2673
 11
-6.4453
 21
-22.2849
  0
LINE
  8
0
 10
-6.4453
 20
-22.2849
 11
-6.44731
 21
-22.3019
  0
LINE
  8
0
 10
-6.44731
 20
-22.3019
 11
-6.45015
 21
-22.3184
  0
LINE
  8
0
 10
-6.45015
 20
-22.3184
 11
-6.4538
 21
-22.3343
  0
LINE
  8
0
 10
-6.4538
 20
-22.3343
 11
-6.45824
 21
-22.3496
  0
LINE
  8
0
 10
-6.45824
 20
-22.3496
 11
-6.4635
 21
-22.3644
  0
LINE
  8
0
 10
-6.4635
 20
-22.3644
 11
-6.46956
 21
-22.3786
  0
LINE
  8
0
 10
-6.46956
 20
-22.3786
 11
-6.47644
 21
-22.3923
  0
LINE
  8
0
 10
-6.47644
 20
-22.3923
 11
-6.48412
 21
-22.4054
  0
LINE
  8
0
 10
-6.48412
 20
-22.4054
 11
-6.49261
 21
-22.418
  0
LINE
  8
0
 10
-6.49261
 20
-22.418
 11
-6.50191
 21
-22.43
  0
LINE
  8
0
 10
-6.50191
 20
-22.43
 11
-6.51202
 21
-22.4415
  0
LINE
  8
0
 10
-6.51202
 20
-22.4415
 11
-6.52281
 21
-22.4522
  0
LINE
  8
0
 10
-6.52281
 20
-22.4522
 11
-6.53413
 21
-22.4621
  0
LINE
  8
0
 10
-6.53413
 20
-22.4621
 11
-6.54597
 21
-22.4711
  0
LINE
  8
0
 10
-6.54597
 20
-22.4711
 11
-6.55836
 21
-22.4793
  0
LINE
  8
0
 10
-6.55836
 20
-22.4793
 11
-6.57129
 21
-22.4866
  0
LINE
  8
0
 10
-6.57129
 20
-22.4866
 11
-6.58475
 21
-22.493
  0
LINE
  8
0
 10
-6.58475
 20
-22.493
 11
-6.59874
 21
-22.4986
  0
LINE
  8
0
 10
-6.59874
 20
-22.4986
 11
-6.61327
 21
-22.5033
  0
LINE
  8
0
 10
-6.61327
 20
-22.5033
 11
-6.62833
 21
-22.5072
  0
LINE
  8
0
 10
-6.62833
 20
-22.5072
 11
-6.64391
 21
-22.5102
  0
LINE
  8
0
 10
-6.64391
 20
-22.5102
 11
-6.66003
 21
-22.5123
  0
LINE
  8
0
 10
-6.66003
 20
-22.5123
 11
-6.6767
 21
-22.5136
  0
LINE
  8
0
 10
-6.6767
 20
-22.5136
 11
-6.69389
 21
-22.5141
  0
LINE
  8
0
 10
-6.69389
 20
-22.5141
 11
-6.71181
 21
-22.5136
  0
LINE
  8
0
 10
-3.6535
 20
-23.4038
 11
-3.59149
 21
-23.3997
  0
LINE
  8
0
 10
-3.59149
 20
-23.3997
 11
-3.53185
 21
-23.3931
  0
LINE
  8
0
 10
-3.53185
 20
-23.3931
 11
-3.47455
 21
-23.3837
  0
LINE
  8
0
 10
-3.47455
 20
-23.3837
 11
-3.4196
 21
-23.3716
  0
LINE
  8
0
 10
-3.4196
 20
-23.3716
 11
-3.36702
 21
-23.3569
  0
LINE
  8
0
 10
-3.36702
 20
-23.3569
 11
-3.31677
 21
-23.3395
  0
LINE
  8
0
 10
-3.31677
 20
-23.3395
 11
-3.26891
 21
-23.3194
  0
LINE
  8
0
 10
-3.26891
 20
-23.3194
 11
-3.22337
 21
-23.2966
  0
LINE
  8
0
 10
-3.22337
 20
-23.2966
 11
-3.18021
 21
-23.2711
  0
LINE
  8
0
 10
-3.18021
 20
-23.2711
 11
-3.13939
 21
-23.243
  0
LINE
  8
0
 10
-3.13939
 20
-23.243
 11
-3.10092
 21
-23.2122
  0
LINE
  8
0
 10
-3.10092
 20
-23.2122
 11
-3.06482
 21
-23.1787
  0
LINE
  8
0
 10
-3.06482
 20
-23.1787
 11
-3.03123
 21
-23.1427
  0
LINE
  8
0
 10
-3.03123
 20
-23.1427
 11
-3.00034
 21
-23.1043
  0
LINE
  8
0
 10
-3.00034
 20
-23.1043
 11
-2.97212
 21
-23.0636
  0
LINE
  8
0
 10
-2.97212
 20
-23.0636
 11
-2.94659
 21
-23.0206
  0
LINE
  8
0
 10
-2.94659
 20
-23.0206
 11
-2.92377
 21
-22.9752
  0
LINE
  8
0
 10
-2.92377
 20
-22.9752
 11
-2.90361
 21
-22.9274
  0
LINE
  8
0
 10
-2.90361
 20
-22.9274
 11
-2.88614
 21
-22.8773
  0
LINE
  8
0
 10
-2.88614
 20
-22.8773
 11
-2.87137
 21
-22.8249
  0
LINE
  8
0
 10
-2.87137
 20
-22.8249
 11
-2.85928
 21
-22.7701
  0
LINE
  8
0
 10
-2.85928
 20
-22.7701
 11
-2.84987
 21
-22.713
  0
LINE
  8
0
 10
-2.84987
 20
-22.713
 11
-2.84315
 21
-22.6535
  0
LINE
  8
0
 10
-2.84315
 20
-22.6535
 11
-2.83913
 21
-22.5917
  0
LINE
  8
0
 10
-2.83913
 20
-22.5917
 11
-2.83778
 21
-22.5275
  0
LINE
  8
0
 10
-2.83778
 20
-22.5275
 11
-2.83911
 21
-22.4629
  0
LINE
  8
0
 10
-2.83911
 20
-22.4629
 11
-2.84312
 21
-22.4007
  0
LINE
  8
0
 10
-2.84312
 20
-22.4007
 11
-2.84981
 21
-22.3407
  0
LINE
  8
0
 10
-2.84981
 20
-22.3407
 11
-2.85916
 21
-22.283
  0
LINE
  8
0
 10
-2.85916
 20
-22.283
 11
-2.87119
 21
-22.2277
  0
LINE
  8
0
 10
-2.87119
 20
-22.2277
 11
-2.88588
 21
-22.1746
  0
LINE
  8
0
 10
-2.88588
 20
-22.1746
 11
-2.90326
 21
-22.1239
  0
LINE
  8
0
 10
-2.90326
 20
-22.1239
 11
-2.92329
 21
-22.0754
  0
LINE
  8
0
 10
-2.92329
 20
-22.0754
 11
-2.94601
 21
-22.0293
  0
LINE
  8
0
 10
-2.94601
 20
-22.0293
 11
-2.97141
 21
-21.9854
  0
LINE
  8
0
 10
-2.97141
 20
-21.9854
 11
-2.99945
 21
-21.9439
  0
LINE
  8
0
 10
-2.99945
 20
-21.9439
 11
-3.03018
 21
-21.9047
  0
LINE
  8
0
 10
-3.03018
 20
-21.9047
 11
-3.0636
 21
-21.8678
  0
LINE
  8
0
 10
-3.0636
 20
-21.8678
 11
-3.09949
 21
-21.8334
  0
LINE
  8
0
 10
-3.09949
 20
-21.8334
 11
-3.13766
 21
-21.8017
  0
LINE
  8
0
 10
-3.13766
 20
-21.8017
 11
-3.17816
 21
-21.7728
  0
LINE
  8
0
 10
-3.17816
 20
-21.7728
 11
-3.22093
 21
-21.7467
  0
LINE
  8
0
 10
-3.22093
 20
-21.7467
 11
-3.26601
 21
-21.7233
  0
LINE
  8
0
 10
-3.26601
 20
-21.7233
 11
-3.31339
 21
-21.7026
  0
LINE
  8
0
 10
-3.31339
 20
-21.7026
 11
-3.36305
 21
-21.6848
  0
LINE
  8
0
 10
-3.36305
 20
-21.6848
 11
-3.41502
 21
-21.6696
  0
LINE
  8
0
 10
-3.41502
 20
-21.6696
 11
-3.46928
 21
-21.6572
  0
LINE
  8
0
 10
-3.46928
 20
-21.6572
 11
-3.52585
 21
-21.6476
  0
LINE
  8
0
 10
-3.52585
 20
-21.6476
 11
-3.5847
 21
-21.6407
  0
LINE
  8
0
 10
-3.5847
 20
-21.6407
 11
-3.64586
 21
-21.6366
  0
LINE
  8
0
 10
-3.64586
 20
-21.6366
 11
-3.7093
 21
-21.6352
  0
LINE
  8
0
 10
-3.7093
 20
-21.6352
 11
-3.74617
 21
-21.6357
  0
LINE
  8
0
 10
-3.74617
 20
-21.6357
 11
-3.78279
 21
-21.6371
  0
LINE
  8
0
 10
-3.78279
 20
-21.6371
 11
-3.81915
 21
-21.6395
  0
LINE
  8
0
 10
-3.81915
 20
-21.6395
 11
-3.85526
 21
-21.6427
  0
LINE
  8
0
 10
-3.85526
 20
-21.6427
 11
-3.89111
 21
-21.647
  0
LINE
  8
0
 10
-3.89111
 20
-21.647
 11
-3.92673
 21
-21.6521
  0
LINE
  8
0
 10
-3.92673
 20
-21.6521
 11
-3.96207
 21
-21.6582
  0
LINE
  8
0
 10
-3.96207
 20
-21.6582
 11
-3.99716
 21
-21.6653
  0
LINE
  8
0
 10
-3.99716
 20
-21.6653
 11
-4.03201
 21
-21.6732
  0
LINE
  8
0
 10
-4.03201
 20
-21.6732
 11
-4.0666
 21
-21.6822
  0
LINE
  8
0
 10
-4.0666
 20
-21.6822
 11
-4.10094
 21
-21.692
  0
LINE
  8
0
 10
-4.10094
 20
-21.692
 11
-4.13503
 21
-21.7028
  0
LINE
  8
0
 10
-4.13503
 20
-21.7028
 11
-4.16887
 21
-21.7146
  0
LINE
  8
0
 10
-4.16887
 20
-21.7146
 11
-4.20209
 21
-21.7271
  0
LINE
  8
0
 10
-4.20209
 20
-21.7271
 11
-4.23433
 21
-21.7404
  0
LINE
  8
0
 10
-4.23433
 20
-21.7404
 11
-4.26561
 21
-21.7544
  0
LINE
  8
0
 10
-4.26561
 20
-21.7544
 11
-4.2959
 21
-21.7691
  0
LINE
  8
0
 10
-4.2959
 20
-21.7691
 11
-4.32523
 21
-21.7846
  0
LINE
  8
0
 10
-4.32523
 20
-21.7846
 11
-4.35358
 21
-21.8008
  0
LINE
  8
0
 10
-4.35358
 20
-21.8008
 11
-4.38094
 21
-21.8177
  0
LINE
  8
0
 10
-4.38094
 20
-21.8177
 11
-4.40733
 21
-21.8353
  0
LINE
  8
0
 10
-4.40733
 20
-21.8353
 11
-4.43275
 21
-21.8537
  0
LINE
  8
0
 10
-4.43275
 20
-21.8537
 11
-4.4572
 21
-21.8727
  0
LINE
  8
0
 10
-4.4572
 20
-21.8727
 11
-4.48067
 21
-21.8925
  0
LINE
  8
0
 10
-4.48067
 20
-21.8925
 11
-4.50317
 21
-21.913
  0
LINE
  8
0
 10
-4.50317
 20
-21.913
 11
-4.52469
 21
-21.9343
  0
LINE
  8
0
 10
-4.52469
 20
-21.9343
 11
-4.52469
 21
-22.5665
  0
LINE
  8
0
 10
-4.52469
 20
-22.5665
 11
-3.77522
 21
-22.5665
  0
LINE
  8
0
 10
-3.77522
 20
-22.5665
 11
-3.77522
 21
-22.3005
  0
LINE
  8
0
 10
-3.77522
 20
-22.3005
 11
-4.19513
 21
-22.3005
  0
LINE
  8
0
 10
-4.19513
 20
-22.3005
 11
-4.19513
 21
-22.0624
  0
LINE
  8
0
 10
-4.19513
 20
-22.0624
 11
-4.18369
 21
-22.0528
  0
LINE
  8
0
 10
-4.18369
 20
-22.0528
 11
-4.17155
 21
-22.0434
  0
LINE
  8
0
 10
-4.17155
 20
-22.0434
 11
-4.15871
 21
-22.0343
  0
LINE
  8
0
 10
-4.15871
 20
-22.0343
 11
-4.14514
 21
-22.0255
  0
LINE
  8
0
 10
-4.14514
 20
-22.0255
 11
-4.13087
 21
-22.017
  0
LINE
  8
0
 10
-4.13087
 20
-22.017
 11
-4.11591
 21
-22.0087
  0
LINE
  8
0
 10
-4.11591
 20
-22.0087
 11
-4.10022
 21
-22.0006
  0
LINE
  8
0
 10
-4.10022
 20
-22.0006
 11
-4.08383
 21
-21.9929
  0
LINE
  8
0
 10
-4.08383
 20
-21.9929
 11
-4.06674
 21
-21.9854
  0
LINE
  8
0
 10
-4.06674
 20
-21.9854
 11
-4.04893
 21
-21.9781
  0
LINE
  8
0
 10
-4.04893
 20
-21.9781
 11
-4.03043
 21
-21.9712
  0
LINE
  8
0
 10
-4.03043
 20
-21.9712
 11
-4.0112
 21
-21.9645
  0
LINE
  8
0
 10
-4.0112
 20
-21.9645
 11
-3.99127
 21
-21.9581
  0
LINE
  8
0
 10
-3.99127
 20
-21.9581
 11
-3.97095
 21
-21.952
  0
LINE
  8
0
 10
-3.97095
 20
-21.952
 11
-3.95052
 21
-21.9465
  0
LINE
  8
0
 10
-3.95052
 20
-21.9465
 11
-3.92998
 21
-21.9414
  0
LINE
  8
0
 10
-3.92998
 20
-21.9414
 11
-3.90935
 21
-21.9368
  0
LINE
  8
0
 10
-3.90935
 20
-21.9368
 11
-3.88861
 21
-21.9327
  0
LINE
  8
0
 10
-3.88861
 20
-21.9327
 11
-3.86777
 21
-21.929
  0
LINE
  8
0
 10
-3.86777
 20
-21.929
 11
-3.84683
 21
-21.9259
  0
LINE
  8
0
 10
-3.84683
 20
-21.9259
 11
-3.82579
 21
-21.9232
  0
LINE
  8
0
 10
-3.82579
 20
-21.9232
 11
-3.80466
 21
-21.9211
  0
LINE
  8
0
 10
-3.80466
 20
-21.9211
 11
-3.7834
 21
-21.9194
  0
LINE
  8
0
 10
-3.7834
 20
-21.9194
 11
-3.76207
 21
-21.9182
  0
LINE
  8
0
 10
-3.76207
 20
-21.9182
 11
-3.74063
 21
-21.9174
  0
LINE
  8
0
 10
-3.74063
 20
-21.9174
 11
-3.71909
 21
-21.9172
  0
LINE
  8
0
 10
-3.71909
 20
-21.9172
 11
-3.68179
 21
-21.9181
  0
LINE
  8
0
 10
-3.68179
 20
-21.9181
 11
-3.64583
 21
-21.9209
  0
LINE
  8
0
 10
-3.64583
 20
-21.9209
 11
-3.61116
 21
-21.9257
  0
LINE
  8
0
 10
-3.61116
 20
-21.9257
 11
-3.5778
 21
-21.9323
  0
LINE
  8
0
 10
-3.5778
 20
-21.9323
 11
-3.54576
 21
-21.9407
  0
LINE
  8
0
 10
-3.54576
 20
-21.9407
 11
-3.51501
 21
-21.9511
  0
LINE
  8
0
 10
-3.51501
 20
-21.9511
 11
-3.48558
 21
-21.9634
  0
LINE
  8
0
 10
-3.48558
 20
-21.9634
 11
-3.45744
 21
-21.9775
  0
LINE
  8
0
 10
-3.45744
 20
-21.9775
 11
-3.43063
 21
-21.9935
  0
LINE
  8
0
 10
-3.43063
 20
-21.9935
 11
-3.40512
 21
-22.0114
  0
LINE
  8
0
 10
-3.40512
 20
-22.0114
 11
-3.38091
 21
-22.0312
  0
LINE
  8
0
 10
-3.38091
 20
-22.0312
 11
-3.35802
 21
-22.0529
  0
LINE
  8
0
 10
-3.35802
 20
-22.0529
 11
-3.33641
 21
-22.0765
  0
LINE
  8
0
 10
-3.33641
 20
-22.0765
 11
-3.31628
 21
-22.1018
  0
LINE
  8
0
 10
-3.31628
 20
-22.1018
 11
-3.29776
 21
-22.1286
  0
LINE
  8
0
 10
-3.29776
 20
-22.1286
 11
-3.28085
 21
-22.1571
  0
LINE
  8
0
 10
-3.28085
 20
-22.1571
 11
-3.26555
 21
-22.187
  0
LINE
  8
0
 10
-3.26555
 20
-22.187
 11
-3.25186
 21
-22.2186
  0
LINE
  8
0
 10
-3.25186
 20
-22.2186
 11
-3.23978
 21
-22.2517
  0
LINE
  8
0
 10
-3.23978
 20
-22.2517
 11
-3.22931
 21
-22.2864
  0
LINE
  8
0
 10
-3.22931
 20
-22.2864
 11
-3.22046
 21
-22.3227
  0
LINE
  8
0
 10
-3.22046
 20
-22.3227
 11
-3.21321
 21
-22.3605
  0
LINE
  8
0
 10
-3.21321
 20
-22.3605
 11
-3.20757
 21
-22.3999
  0
LINE
  8
0
 10
-3.20757
 20
-22.3999
 11
-3.20354
 21
-22.4409
  0
LINE
  8
0
 10
-3.20354
 20
-22.4409
 11
-3.20113
 21
-22.4834
  0
LINE
  8
0
 10
-3.20113
 20
-22.4834
 11
-3.20032
 21
-22.5275
  0
LINE
  8
0
 10
-3.20032
 20
-22.5275
 11
-3.2011
 21
-22.5708
  0
LINE
  8
0
 10
-3.2011
 20
-22.5708
 11
-3.20345
 21
-22.6126
  0
LINE
  8
0
 10
-3.20345
 20
-22.6126
 11
-3.20734
 21
-22.6528
  0
LINE
  8
0
 10
-3.20734
 20
-22.6528
 11
-3.2128
 21
-22.6914
  0
LINE
  8
0
 10
-3.2128
 20
-22.6914
 11
-3.21982
 21
-22.7285
  0
LINE
  8
0
 10
-3.21982
 20
-22.7285
 11
-3.22839
 21
-22.7639
  0
LINE
  8
0
 10
-3.22839
 20
-22.7639
 11
-3.23854
 21
-22.7978
  0
LINE
  8
0
 10
-3.23854
 20
-22.7978
 11
-3.25024
 21
-22.8301
  0
LINE
  8
0
 10
-3.25024
 20
-22.8301
 11
-3.2635
 21
-22.8609
  0
LINE
  8
0
 10
-3.2635
 20
-22.8609
 11
-3.27832
 21
-22.8901
  0
LINE
  8
0
 10
-3.27832
 20
-22.8901
 11
-3.29469
 21
-22.9177
  0
LINE
  8
0
 10
-3.29469
 20
-22.9177
 11
-3.31264
 21
-22.9437
  0
LINE
  8
0
 10
-3.31264
 20
-22.9437
 11
-3.33214
 21
-22.9681
  0
LINE
  8
0
 10
-3.33214
 20
-22.9681
 11
-3.35313
 21
-22.9909
  0
LINE
  8
0
 10
-3.35313
 20
-22.9909
 11
-3.37558
 21
-23.0118
  0
LINE
  8
0
 10
-3.37558
 20
-23.0118
 11
-3.39948
 21
-23.0309
  0
LINE
  8
0
 10
-3.39948
 20
-23.0309
 11
-3.42482
 21
-23.0482
  0
LINE
  8
0
 10
-3.42482
 20
-23.0482
 11
-3.4516
 21
-23.0637
  0
LINE
  8
0
 10
-3.4516
 20
-23.0637
 11
-3.47983
 21
-23.0773
  0
LINE
  8
0
 10
-3.47983
 20
-23.0773
 11
-3.50949
 21
-23.0892
  0
LINE
  8
0
 10
-3.50949
 20
-23.0892
 11
-3.54062
 21
-23.0992
  0
LINE
  8
0
 10
-3.54062
 20
-23.0992
 11
-3.57317
 21
-23.1074
  0
LINE
  8
0
 10
-3.57317
 20
-23.1074
 11
-3.60718
 21
-23.1137
  0
LINE
  8
0
 10
-3.60718
 20
-23.1137
 11
-3.64262
 21
-23.1183
  0
LINE
  8
0
 10
-3.64262
 20
-23.1183
 11
-3.67952
 21
-23.121
  0
LINE
  8
0
 10
-3.67952
 20
-23.121
 11
-3.71785
 21
-23.1219
  0
LINE
  8
0
 10
-3.71785
 20
-23.1219
 11
-3.74147
 21
-23.1215
  0
LINE
  8
0
 10
-3.74147
 20
-23.1215
 11
-3.7646
 21
-23.1203
  0
LINE
  8
0
 10
-3.7646
 20
-23.1203
 11
-3.78726
 21
-23.1183
  0
LINE
  8
0
 10
-3.78726
 20
-23.1183
 11
-3.80943
 21
-23.1156
  0
LINE
  8
0
 10
-3.80943
 20
-23.1156
 11
-3.83115
 21
-23.112
  0
LINE
  8
0
 10
-3.83115
 20
-23.112
 11
-3.85237
 21
-23.1076
  0
LINE
  8
0
 10
-3.85237
 20
-23.1076
 11
-3.87312
 21
-23.1024
  0
LINE
  8
0
 10
-3.87312
 20
-23.1024
 11
-3.89339
 21
-23.0965
  0
LINE
  8
0
 10
-3.89339
 20
-23.0965
 11
-3.91319
 21
-23.0897
  0
LINE
  8
0
 10
-3.91319
 20
-23.0897
 11
-3.93251
 21
-23.0822
  0
LINE
  8
0
 10
-3.93251
 20
-23.0822
 11
-3.95135
 21
-23.0739
  0
LINE
  8
0
 10
-3.95135
 20
-23.0739
 11
-3.96971
 21
-23.0647
  0
LINE
  8
0
 10
-3.96971
 20
-23.0647
 11
-3.98761
 21
-23.0548
  0
LINE
  8
0
 10
-3.98761
 20
-23.0548
 11
-4.0049
 21
-23.0441
  0
LINE
  8
0
 10
-4.0049
 20
-23.0441
 11
-4.02147
 21
-23.0326
  0
LINE
  8
0
 10
-4.02147
 20
-23.0326
 11
-4.03731
 21
-23.0204
  0
LINE
  8
0
 10
-4.03731
 20
-23.0204
 11
-4.05244
 21
-23.0075
  0
LINE
  8
0
 10
-4.05244
 20
-23.0075
 11
-4.06685
 21
-22.9938
  0
LINE
  8
0
 10
-4.06685
 20
-22.9938
 11
-4.08052
 21
-22.9793
  0
LINE
  8
0
 10
-4.08052
 20
-22.9793
 11
-4.09349
 21
-22.9641
  0
LINE
  8
0
 10
-4.09349
 20
-22.9641
 11
-4.10571
 21
-22.9481
  0
LINE
  8
0
 10
-4.10571
 20
-22.9481
 11
-4.11723
 21
-22.9314
  0
LINE
  8
0
 10
-4.11723
 20
-22.9314
 11
-4.12802
 21
-22.914
  0
LINE
  8
0
 10
-4.12802
 20
-22.914
 11
-4.13809
 21
-22.8957
  0
LINE
  8
0
 10
-4.13809
 20
-22.8957
 11
-4.14745
 21
-22.8768
  0
LINE
  8
0
 10
-4.14745
 20
-22.8768
 11
-4.15607
 21
-22.8571
  0
LINE
  8
0
 10
-4.15607
 20
-22.8571
 11
-4.48808
 21
-22.9572
  0
LINE
  8
0
 10
-4.48808
 20
-22.9572
 11
-4.46011
 21
-23.0234
  0
LINE
  8
0
 10
-4.46011
 20
-23.0234
 11
-4.42694
 21
-23.0844
  0
LINE
  8
0
 10
-4.42694
 20
-23.0844
 11
-4.38855
 21
-23.14
  0
LINE
  8
0
 10
-4.38855
 20
-23.14
 11
-4.34496
 21
-23.1904
  0
LINE
  8
0
 10
-4.34496
 20
-23.1904
 11
-4.29613
 21
-23.2355
  0
LINE
  8
0
 10
-4.29613
 20
-23.2355
 11
-4.2421
 21
-23.2752
  0
LINE
  8
0
 10
-4.2421
 20
-23.2752
 11
-4.18285
 21
-23.3097
  0
LINE
  8
0
 10
-4.18285
 20
-23.3097
 11
-4.11839
 21
-23.3389
  0
LINE
  8
0
 10
-4.11839
 20
-23.3389
 11
-4.04871
 21
-23.3627
  0
LINE
  8
0
 10
-4.04871
 20
-23.3627
 11
-3.97382
 21
-23.3813
  0
LINE
  8
0
 10
-3.97382
 20
-23.3813
 11
-3.89371
 21
-23.3945
  0
LINE
  8
0
 10
-3.89371
 20
-23.3945
 11
-3.8084
 21
-23.4025
  0
LINE
  8
0
 10
-3.8084
 20
-23.4025
 11
-3.71785
 21
-23.4051
  0
LINE
  8
0
 10
-3.71785
 20
-23.4051
 11
-3.6535
 21
-23.4038
  0
LINE
  8
0
 10
5.30859
 20
-23.4037
 11
5.35339
 21
-23.3996
  0
LINE
  8
0
 10
5.35339
 20
-23.3996
 11
5.3965
 21
-23.3927
  0
LINE
  8
0
 10
5.3965
 20
-23.3927
 11
5.43794
 21
-23.3831
  0
LINE
  8
0
 10
5.43794
 20
-23.3831
 11
5.47769
 21
-23.3707
  0
LINE
  8
0
 10
5.47769
 20
-23.3707
 11
5.51575
 21
-23.3556
  0
LINE
  8
0
 10
5.51575
 20
-23.3556
 11
5.55214
 21
-23.3377
  0
LINE
  8
0
 10
5.55214
 20
-23.3377
 11
5.58684
 21
-23.317
  0
LINE
  8
0
 10
5.58684
 20
-23.317
 11
5.61986
 21
-23.2937
  0
LINE
  8
0
 10
5.61986
 20
-23.2937
 11
5.6512
 21
-23.2675
  0
LINE
  8
0
 10
5.6512
 20
-23.2675
 11
5.68085
 21
-23.2386
  0
LINE
  8
0
 10
5.68085
 20
-23.2386
 11
5.70882
 21
-23.207
  0
LINE
  8
0
 10
5.70882
 20
-23.207
 11
5.73511
 21
-23.1726
  0
LINE
  8
0
 10
5.73511
 20
-23.1726
 11
5.75957
 21
-23.1355
  0
LINE
  8
0
 10
5.75957
 20
-23.1355
 11
5.78209
 21
-23.0956
  0
LINE
  8
0
 10
5.78209
 20
-23.0956
 11
5.80263
 21
-23.0531
  0
LINE
  8
0
 10
5.80263
 20
-23.0531
 11
5.82123
 21
-23.0079
  0
LINE
  8
0
 10
5.82123
 20
-23.0079
 11
5.83786
 21
-22.96
  0
LINE
  8
0
 10
5.83786
 20
-22.96
 11
5.85254
 21
-22.9094
  0
LINE
  8
0
 10
5.85254
 20
-22.9094
 11
5.86526
 21
-22.8562
  0
LINE
  8
0
 10
5.86526
 20
-22.8562
 11
5.87602
 21
-22.8002
  0
LINE
  8
0
 10
5.87602
 20
-22.8002
 11
5.88484
 21
-22.7415
  0
LINE
  8
0
 10
5.88484
 20
-22.7415
 11
5.89169
 21
-22.6801
  0
LINE
  8
0
 10
5.89169
 20
-22.6801
 11
5.89658
 21
-22.6161
  0
LINE
  8
0
 10
5.89658
 20
-22.6161
 11
5.89952
 21
-22.5493
  0
LINE
  8
0
 10
5.89952
 20
-22.5493
 11
5.9005
 21
-22.4799
  0
LINE
  8
0
 10
5.9005
 20
-22.4799
 11
5.89954
 21
-22.4167
  0
LINE
  8
0
 10
5.89954
 20
-22.4167
 11
5.89664
 21
-22.3559
  0
LINE
  8
0
 10
5.89664
 20
-22.3559
 11
5.89182
 21
-22.2976
  0
LINE
  8
0
 10
5.89182
 20
-22.2976
 11
5.88507
 21
-22.2417
  0
LINE
  8
0
 10
5.88507
 20
-22.2417
 11
5.87639
 21
-22.1883
  0
LINE
  8
0
 10
5.87639
 20
-22.1883
 11
5.86578
 21
-22.1372
  0
LINE
  8
0
 10
5.86578
 20
-22.1372
 11
5.85324
 21
-22.0886
  0
LINE
  8
0
 10
5.85324
 20
-22.0886
 11
5.83878
 21
-22.0425
  0
LINE
  8
0
 10
5.83878
 20
-22.0425
 11
5.82239
 21
-21.9988
  0
LINE
  8
0
 10
5.82239
 20
-21.9988
 11
5.80408
 21
-21.9575
  0
LINE
  8
0
 10
5.80408
 20
-21.9575
 11
5.78383
 21
-21.9186
  0
LINE
  8
0
 10
5.78383
 20
-21.9186
 11
5.76164
 21
-21.8822
  0
LINE
  8
0
 10
5.76164
 20
-21.8822
 11
5.73753
 21
-21.8482
  0
LINE
  8
0
 10
5.73753
 20
-21.8482
 11
5.71164
 21
-21.8167
  0
LINE
  8
0
 10
5.71164
 20
-21.8167
 11
5.68407
 21
-21.7877
  0
LINE
  8
0
 10
5.68407
 20
-21.7877
 11
5.65482
 21
-21.7613
  0
LINE
  8
0
 10
5.65482
 20
-21.7613
 11
5.62392
 21
-21.7373
  0
LINE
  8
0
 10
5.62392
 20
-21.7373
 11
5.59134
 21
-21.7159
  0
LINE
  8
0
 10
5.59134
 20
-21.7159
 11
5.55708
 21
-21.697
  0
LINE
  8
0
 10
5.55708
 20
-21.697
 11
5.52118
 21
-21.6806
  0
LINE
  8
0
 10
5.52118
 20
-21.6806
 11
5.4836
 21
-21.6667
  0
LINE
  8
0
 10
5.4836
 20
-21.6667
 11
5.44434
 21
-21.6554
  0
LINE
  8
0
 10
5.44434
 20
-21.6554
 11
5.40343
 21
-21.6466
  0
LINE
  8
0
 10
5.40343
 20
-21.6466
 11
5.36084
 21
-21.6403
  0
LINE
  8
0
 10
5.36084
 20
-21.6403
 11
5.31657
 21
-21.6365
  0
LINE
  8
0
 10
5.31657
 20
-21.6365
 11
5.27066
 21
-21.6352
  0
LINE
  8
0
 10
5.27066
 20
-21.6352
 11
5.22966
 21
-21.6362
  0
LINE
  8
0
 10
5.22966
 20
-21.6362
 11
5.19005
 21
-21.6389
  0
LINE
  8
0
 10
5.19005
 20
-21.6389
 11
5.15182
 21
-21.6435
  0
LINE
  8
0
 10
5.15182
 20
-21.6435
 11
5.11499
 21
-21.65
  0
LINE
  8
0
 10
5.11499
 20
-21.65
 11
5.07954
 21
-21.6583
  0
LINE
  8
0
 10
5.07954
 20
-21.6583
 11
5.04547
 21
-21.6685
  0
LINE
  8
0
 10
5.04547
 20
-21.6685
 11
5.0128
 21
-21.6805
  0
LINE
  8
0
 10
5.0128
 20
-21.6805
 11
4.98151
 21
-21.6944
  0
LINE
  8
0
 10
4.98151
 20
-21.6944
 11
4.95161
 21
-21.7101
  0
LINE
  8
0
 10
4.95161
 20
-21.7101
 11
4.9231
 21
-21.7277
  0
LINE
  8
0
 10
4.9231
 20
-21.7277
 11
4.89597
 21
-21.7471
  0
LINE
  8
0
 10
4.89597
 20
-21.7471
 11
4.87022
 21
-21.7684
  0
LINE
  8
0
 10
4.87022
 20
-21.7684
 11
4.84587
 21
-21.7915
  0
LINE
  8
0
 10
4.84587
 20
-21.7915
 11
4.82312
 21
-21.8162
  0
LINE
  8
0
 10
4.82312
 20
-21.8162
 11
4.80219
 21
-21.8423
  0
LINE
  8
0
 10
4.80219
 20
-21.8423
 11
4.78308
 21
-21.8699
  0
LINE
  8
0
 10
4.78308
 20
-21.8699
 11
4.76579
 21
-21.8988
  0
LINE
  8
0
 10
4.76579
 20
-21.8988
 11
4.75032
 21
-21.9292
  0
LINE
  8
0
 10
4.75032
 20
-21.9292
 11
4.73668
 21
-21.9609
  0
LINE
  8
0
 10
4.73668
 20
-21.9609
 11
4.72484
 21
-21.994
  0
LINE
  8
0
 10
4.72484
 20
-21.994
 11
4.71483
 21
-22.0286
  0
LINE
  8
0
 10
4.71483
 20
-22.0286
 11
4.70663
 21
-22.0645
  0
LINE
  8
0
 10
4.70663
 20
-22.0645
 11
4.70027
 21
-22.1019
  0
LINE
  8
0
 10
4.70027
 20
-22.1019
 11
4.69572
 21
-22.1406
  0
LINE
  8
0
 10
4.69572
 20
-22.1406
 11
4.69299
 21
-22.1808
  0
LINE
  8
0
 10
4.69299
 20
-22.1808
 11
4.69208
 21
-22.2224
  0
LINE
  8
0
 10
4.69208
 20
-22.2224
 11
4.69287
 21
-22.2604
  0
LINE
  8
0
 10
4.69287
 20
-22.2604
 11
4.69525
 21
-22.2972
  0
LINE
  8
0
 10
4.69525
 20
-22.2972
 11
4.69923
 21
-22.3328
  0
LINE
  8
0
 10
4.69923
 20
-22.3328
 11
4.70479
 21
-22.3671
  0
LINE
  8
0
 10
4.70479
 20
-22.3671
 11
4.71194
 21
-22.4002
  0
LINE
  8
0
 10
4.71194
 20
-22.4002
 11
4.72069
 21
-22.4321
  0
LINE
  8
0
 10
4.72069
 20
-22.4321
 11
4.731
 21
-22.4627
  0
LINE
  8
0
 10
4.731
 20
-22.4627
 11
4.74292
 21
-22.4921
  0
LINE
  8
0
 10
4.74292
 20
-22.4921
 11
4.75644
 21
-22.5202
  0
LINE
  8
0
 10
4.75644
 20
-22.5202
 11
4.77153
 21
-22.5471
  0
LINE
  8
0
 10
4.77153
 20
-22.5471
 11
4.78821
 21
-22.5727
  0
LINE
  8
0
 10
4.78821
 20
-22.5727
 11
4.80649
 21
-22.5971
  0
LINE
  8
0
 10
4.80649
 20
-22.5971
 11
4.82634
 21
-22.6202
  0
LINE
  8
0
 10
4.82634
 20
-22.6202
 11
4.84756
 21
-22.6419
  0
LINE
  8
0
 10
4.84756
 20
-22.6419
 11
4.86993
 21
-22.6618
  0
LINE
  8
0
 10
4.86993
 20
-22.6618
 11
4.89345
 21
-22.6801
  0
LINE
  8
0
 10
4.89345
 20
-22.6801
 11
4.91809
 21
-22.6965
  0
LINE
  8
0
 10
4.91809
 20
-22.6965
 11
4.94389
 21
-22.7113
  0
LINE
  8
0
 10
4.94389
 20
-22.7113
 11
4.97083
 21
-22.7243
  0
LINE
  8
0
 10
4.97083
 20
-22.7243
 11
4.9989
 21
-22.7355
  0
LINE
  8
0
 10
4.9989
 20
-22.7355
 11
5.02811
 21
-22.7451
  0
LINE
  8
0
 10
5.02811
 20
-22.7451
 11
5.05847
 21
-22.7529
  0
LINE
  8
0
 10
5.05847
 20
-22.7529
 11
5.08997
 21
-22.7589
  0
LINE
  8
0
 10
5.08997
 20
-22.7589
 11
5.1226
 21
-22.7633
  0
LINE
  8
0
 10
5.1226
 20
-22.7633
 11
5.15639
 21
-22.7659
  0
LINE
  8
0
 10
5.15639
 20
-22.7659
 11
5.19131
 21
-22.7667
  0
LINE
  8
0
 10
5.19131
 20
-22.7667
 11
5.21013
 21
-22.7664
  0
LINE
  8
0
 10
5.21013
 20
-22.7664
 11
5.22864
 21
-22.7656
  0
LINE
  8
0
 10
5.22864
 20
-22.7656
 11
5.24684
 21
-22.7641
  0
LINE
  8
0
 10
5.24684
 20
-22.7641
 11
5.26476
 21
-22.7621
  0
LINE
  8
0
 10
5.26476
 20
-22.7621
 11
5.28235
 21
-22.7595
  0
LINE
  8
0
 10
5.28235
 20
-22.7595
 11
5.29965
 21
-22.7563
  0
LINE
  8
0
 10
5.29965
 20
-22.7563
 11
5.31665
 21
-22.7526
  0
LINE
  8
0
 10
5.31665
 20
-22.7526
 11
5.33334
 21
-22.7482
  0
LINE
  8
0
 10
5.33334
 20
-22.7482
 11
5.34973
 21
-22.7433
  0
LINE
  8
0
 10
5.34973
 20
-22.7433
 11
5.36581
 21
-22.7378
  0
LINE
  8
0
 10
5.36581
 20
-22.7378
 11
5.38159
 21
-22.7318
  0
LINE
  8
0
 10
5.38159
 20
-22.7318
 11
5.39706
 21
-22.7251
  0
LINE
  8
0
 10
5.39706
 20
-22.7251
 11
5.41225
 21
-22.7179
  0
LINE
  8
0
 10
5.41225
 20
-22.7179
 11
5.42702
 21
-22.7101
  0
LINE
  8
0
 10
5.42702
 20
-22.7101
 11
5.44128
 21
-22.7019
  0
LINE
  8
0
 10
5.44128
 20
-22.7019
 11
5.45503
 21
-22.6931
  0
LINE
  8
0
 10
5.45503
 20
-22.6931
 11
5.46829
 21
-22.6838
  0
LINE
  8
0
 10
5.46829
 20
-22.6838
 11
5.48103
 21
-22.674
  0
LINE
  8
0
 10
5.48103
 20
-22.674
 11
5.49329
 21
-22.6637
  0
LINE
  8
0
 10
5.49329
 20
-22.6637
 11
5.50502
 21
-22.6529
  0
LINE
  8
0
 10
5.50502
 20
-22.6529
 11
5.51625
 21
-22.6416
  0
LINE
  8
0
 10
5.51625
 20
-22.6416
 11
5.52698
 21
-22.6298
  0
LINE
  8
0
 10
5.52698
 20
-22.6298
 11
5.5372
 21
-22.6175
  0
LINE
  8
0
 10
5.5372
 20
-22.6175
 11
5.54692
 21
-22.6047
  0
LINE
  8
0
 10
5.54692
 20
-22.6047
 11
5.55612
 21
-22.5914
  0
LINE
  8
0
 10
5.55612
 20
-22.5914
 11
5.56483
 21
-22.5775
  0
LINE
  8
0
 10
5.56483
 20
-22.5775
 11
5.56436
 21
-22.6199
  0
LINE
  8
0
 10
5.56436
 20
-22.6199
 11
5.56297
 21
-22.6605
  0
LINE
  8
0
 10
5.56297
 20
-22.6605
 11
5.56064
 21
-22.6995
  0
LINE
  8
0
 10
5.56064
 20
-22.6995
 11
5.55737
 21
-22.7368
  0
LINE
  8
0
 10
5.55737
 20
-22.7368
 11
5.55318
 21
-22.7724
  0
LINE
  8
0
 10
5.55318
 20
-22.7724
 11
5.54807
 21
-22.8063
  0
LINE
  8
0
 10
5.54807
 20
-22.8063
 11
5.54201
 21
-22.8385
  0
LINE
  8
0
 10
5.54201
 20
-22.8385
 11
5.53502
 21
-22.869
  0
LINE
  8
0
 10
5.53502
 20
-22.869
 11
5.5271
 21
-22.8978
  0
LINE
  8
0
 10
5.5271
 20
-22.8978
 11
5.51825
 21
-22.9249
  0
LINE
  8
0
 10
5.51825
 20
-22.9249
 11
5.50845
 21
-22.9504
  0
LINE
  8
0
 10
5.50845
 20
-22.9504
 11
5.49774
 21
-22.9741
  0
LINE
  8
0
 10
5.49774
 20
-22.9741
 11
5.4861
 21
-22.9962
  0
LINE
  8
0
 10
5.4861
 20
-22.9962
 11
5.47363
 21
-23.0166
  0
LINE
  8
0
 10
5.47363
 20
-23.0166
 11
5.46046
 21
-23.0354
  0
LINE
  8
0
 10
5.46046
 20
-23.0354
 11
5.44661
 21
-23.0525
  0
LINE
  8
0
 10
5.44661
 20
-23.0525
 11
5.43204
 21
-23.068
  0
LINE
  8
0
 10
5.43204
 20
-23.068
 11
5.41678
 21
-23.0819
  0
LINE
  8
0
 10
5.41678
 20
-23.0819
 11
5.40082
 21
-23.0941
  0
LINE
  8
0
 10
5.40082
 20
-23.0941
 11
5.38414
 21
-23.1048
  0
LINE
  8
0
 10
5.38414
 20
-23.1048
 11
5.36678
 21
-23.1137
  0
LINE
  8
0
 10
5.36678
 20
-23.1137
 11
5.34871
 21
-23.1211
  0
LINE
  8
0
 10
5.34871
 20
-23.1211
 11
5.32994
 21
-23.1268
  0
LINE
  8
0
 10
5.32994
 20
-23.1268
 11
5.31047
 21
-23.1309
  0
LINE
  8
0
 10
5.31047
 20
-23.1309
 11
5.2903
 21
-23.1333
  0
LINE
  8
0
 10
5.2903
 20
-23.1333
 11
5.26942
 21
-23.1341
  0
LINE
  8
0
 10
5.26942
 20
-23.1341
 11
5.24532
 21
-23.1331
  0
LINE
  8
0
 10
5.24532
 20
-23.1331
 11
5.22256
 21
-23.1301
  0
LINE
  8
0
 10
5.22256
 20
-23.1301
 11
5.20117
 21
-23.1251
  0
LINE
  8
0
 10
5.20117
 20
-23.1251
 11
5.18114
 21
-23.1181
  0
LINE
  8
0
 10
5.18114
 20
-23.1181
 11
5.16246
 21
-23.109
  0
LINE
  8
0
 10
5.16246
 20
-23.109
 11
5.14514
 21
-23.098
  0
LINE
  8
0
 10
5.14514
 20
-23.098
 11
5.12918
 21
-23.0849
  0
LINE
  8
0
 10
5.12918
 20
-23.0849
 11
5.11458
 21
-23.0699
  0
LINE
  8
0
 10
5.11458
 20
-23.0699
 11
5.10133
 21
-23.0528
  0
LINE
  8
0
 10
5.10133
 20
-23.0528
 11
5.08945
 21
-23.0338
  0
LINE
  8
0
 10
5.08945
 20
-23.0338
 11
5.07892
 21
-23.0127
  0
LINE
  8
0
 10
5.07892
 20
-23.0127
 11
5.06975
 21
-22.9896
  0
LINE
  8
0
 10
5.06975
 20
-22.9896
 11
5.06192
 21
-22.9645
  0
LINE
  8
0
 10
5.06192
 20
-22.9645
 11
4.73846
 21
-23.0096
  0
LINE
  8
0
 10
4.73846
 20
-23.0096
 11
4.74698
 21
-23.0402
  0
LINE
  8
0
 10
4.74698
 20
-23.0402
 11
4.75636
 21
-23.0695
  0
LINE
  8
0
 10
4.75636
 20
-23.0695
 11
4.76662
 21
-23.0975
  0
LINE
  8
0
 10
4.76662
 20
-23.0975
 11
4.77776
 21
-23.1243
  0
LINE
  8
0
 10
4.77776
 20
-23.1243
 11
4.78975
 21
-23.1498
  0
LINE
  8
0
 10
4.78975
 20
-23.1498
 11
4.80264
 21
-23.1741
  0
LINE
  8
0
 10
4.80264
 20
-23.1741
 11
4.81639
 21
-23.1971
  0
LINE
  8
0
 10
4.81639
 20
-23.1971
 11
4.83102
 21
-23.2188
  0
LINE
  8
0
 10
4.83102
 20
-23.2188
 11
4.84653
 21
-23.2393
  0
LINE
  8
0
 10
4.84653
 20
-23.2393
 11
4.8629
 21
-23.2585
  0
LINE
  8
0
 10
4.8629
 20
-23.2585
 11
4.88016
 21
-23.2765
  0
LINE
  8
0
 10
4.88016
 20
-23.2765
 11
4.89828
 21
-23.2932
  0
LINE
  8
0
 10
4.89828
 20
-23.2932
 11
4.91728
 21
-23.3087
  0
LINE
  8
0
 10
4.91728
 20
-23.3087
 11
4.93726
 21
-23.323
  0
LINE
  8
0
 10
4.93726
 20
-23.323
 11
4.95833
 21
-23.3361
  0
LINE
  8
0
 10
4.95833
 20
-23.3361
 11
4.9805
 21
-23.3481
  0
LINE
  8
0
 10
4.9805
 20
-23.3481
 11
5.00375
 21
-23.3589
  0
LINE
  8
0
 10
5.00375
 20
-23.3589
 11
5.02809
 21
-23.3686
  0
LINE
  8
0
 10
5.02809
 20
-23.3686
 11
5.05353
 21
-23.3772
  0
LINE
  8
0
 10
5.05353
 20
-23.3772
 11
5.08006
 21
-23.3846
  0
LINE
  8
0
 10
5.08006
 20
-23.3846
 11
5.10767
 21
-23.3909
  0
LINE
  8
0
 10
5.10767
 20
-23.3909
 11
5.13638
 21
-23.396
  0
LINE
  8
0
 10
5.13638
 20
-23.396
 11
5.16617
 21
-23.4
  0
LINE
  8
0
 10
5.16617
 20
-23.4
 11
5.19707
 21
-23.4028
  0
LINE
  8
0
 10
5.19707
 20
-23.4028
 11
5.22903
 21
-23.4045
  0
LINE
  8
0
 10
5.22903
 20
-23.4045
 11
5.2621
 21
-23.4051
  0
LINE
  8
0
 10
5.2621
 20
-23.4051
 11
5.30859
 21
-23.4037
  0
LINE
  8
0
 10
5.27226
 20
-22.5136
 11
5.25496
 21
-22.5122
  0
LINE
  8
0
 10
5.25496
 20
-22.5122
 11
5.23824
 21
-22.5099
  0
LINE
  8
0
 10
5.23824
 20
-22.5099
 11
5.22212
 21
-22.5067
  0
LINE
  8
0
 10
5.22212
 20
-22.5067
 11
5.2066
 21
-22.5026
  0
LINE
  8
0
 10
5.2066
 20
-22.5026
 11
5.19168
 21
-22.4976
  0
LINE
  8
0
 10
5.19168
 20
-22.4976
 11
5.17737
 21
-22.4916
  0
LINE
  8
0
 10
5.17737
 20
-22.4916
 11
5.16365
 21
-22.4847
  0
LINE
  8
0
 10
5.16365
 20
-22.4847
 11
5.15053
 21
-22.4769
  0
LINE
  8
0
 10
5.15053
 20
-22.4769
 11
5.138
 21
-22.4682
  0
LINE
  8
0
 10
5.138
 20
-22.4682
 11
5.12608
 21
-22.4586
  0
LINE
  8
0
 10
5.12608
 20
-22.4586
 11
5.11476
 21
-22.448
  0
LINE
  8
0
 10
5.11476
 20
-22.448
 11
5.10405
 21
-22.4366
  0
LINE
  8
0
 10
5.10405
 20
-22.4366
 11
5.09402
 21
-22.4242
  0
LINE
  8
0
 10
5.09402
 20
-22.4242
 11
5.08481
 21
-22.4111
  0
LINE
  8
0
 10
5.08481
 20
-22.4111
 11
5.07639
 21
-22.3971
  0
LINE
  8
0
 10
5.07639
 20
-22.3971
 11
5.06877
 21
-22.3823
  0
LINE
  8
0
 10
5.06877
 20
-22.3823
 11
5.06195
 21
-22.3667
  0
LINE
  8
0
 10
5.06195
 20
-22.3667
 11
5.05594
 21
-22.3503
  0
LINE
  8
0
 10
5.05594
 20
-22.3503
 11
5.05072
 21
-22.3331
  0
LINE
  8
0
 10
5.05072
 20
-22.3331
 11
5.04631
 21
-22.315
  0
LINE
  8
0
 10
5.04631
 20
-22.315
 11
5.04271
 21
-22.2962
  0
LINE
  8
0
 10
5.04271
 20
-22.2962
 11
5.0399
 21
-22.2765
  0
LINE
  8
0
 10
5.0399
 20
-22.2765
 11
5.0379
 21
-22.256
  0
LINE
  8
0
 10
5.0379
 20
-22.256
 11
5.0367
 21
-22.2347
  0
LINE
  8
0
 10
5.0367
 20
-22.2347
 11
5.0363
 21
-22.2126
  0
LINE
  8
0
 10
5.0363
 20
-22.2126
 11
5.03668
 21
-22.1906
  0
LINE
  8
0
 10
5.03668
 20
-22.1906
 11
5.03783
 21
-22.1694
  0
LINE
  8
0
 10
5.03783
 20
-22.1694
 11
5.03973
 21
-22.1489
  0
LINE
  8
0
 10
5.03973
 20
-22.1489
 11
5.04242
 21
-22.1291
  0
LINE
  8
0
 10
5.04242
 20
-22.1291
 11
5.04587
 21
-22.1101
  0
LINE
  8
0
 10
5.04587
 20
-22.1101
 11
5.05008
 21
-22.0919
  0
LINE
  8
0
 10
5.05008
 20
-22.0919
 11
5.05505
 21
-22.0744
  0
LINE
  8
0
 10
5.05505
 20
-22.0744
 11
5.06079
 21
-22.0576
  0
LINE
  8
0
 10
5.06079
 20
-22.0576
 11
5.06731
 21
-22.0416
  0
LINE
  8
0
 10
5.06731
 20
-22.0416
 11
5.07457
 21
-22.0263
  0
LINE
  8
0
 10
5.07457
 20
-22.0263
 11
5.08261
 21
-22.0118
  0
LINE
  8
0
 10
5.08261
 20
-22.0118
 11
5.09142
 21
-21.998
  0
LINE
  8
0
 10
5.09142
 20
-21.998
 11
5.10098
 21
-21.9849
  0
LINE
  8
0
 10
5.10098
 20
-21.9849
 11
5.11124
 21
-21.9727
  0
LINE
  8
0
 10
5.11124
 20
-21.9727
 11
5.1221
 21
-21.9615
  0
LINE
  8
0
 10
5.1221
 20
-21.9615
 11
5.13358
 21
-21.9513
  0
LINE
  8
0
 10
5.13358
 20
-21.9513
 11
5.14565
 21
-21.942
  0
LINE
  8
0
 10
5.14565
 20
-21.942
 11
5.15834
 21
-21.9337
  0
LINE
  8
0
 10
5.15834
 20
-21.9337
 11
5.17162
 21
-21.9264
  0
LINE
  8
0
 10
5.17162
 20
-21.9264
 11
5.18552
 21
-21.9201
  0
LINE
  8
0
 10
5.18552
 20
-21.9201
 11
5.20003
 21
-21.9147
  0
LINE
  8
0
 10
5.20003
 20
-21.9147
 11
5.21513
 21
-21.9103
  0
LINE
  8
0
 10
5.21513
 20
-21.9103
 11
5.23085
 21
-21.9069
  0
LINE
  8
0
 10
5.23085
 20
-21.9069
 11
5.24718
 21
-21.9045
  0
LINE
  8
0
 10
5.24718
 20
-21.9045
 11
5.2641
 21
-21.903
  0
LINE
  8
0
 10
5.2641
 20
-21.903
 11
5.28163
 21
-21.9025
  0
LINE
  8
0
 10
5.28163
 20
-21.9025
 11
5.29921
 21
-21.9031
  0
LINE
  8
0
 10
5.29921
 20
-21.9031
 11
5.31625
 21
-21.9049
  0
LINE
  8
0
 10
5.31625
 20
-21.9049
 11
5.33278
 21
-21.9078
  0
LINE
  8
0
 10
5.33278
 20
-21.9078
 11
5.34877
 21
-21.9118
  0
LINE
  8
0
 10
5.34877
 20
-21.9118
 11
5.36424
 21
-21.9171
  0
LINE
  8
0
 10
5.36424
 20
-21.9171
 11
5.37918
 21
-21.9235
  0
LINE
  8
0
 10
5.37918
 20
-21.9235
 11
5.3936
 21
-21.931
  0
LINE
  8
0
 10
5.3936
 20
-21.931
 11
5.40749
 21
-21.9398
  0
LINE
  8
0
 10
5.40749
 20
-21.9398
 11
5.42084
 21
-21.9496
  0
LINE
  8
0
 10
5.42084
 20
-21.9496
 11
5.43367
 21
-21.9607
  0
LINE
  8
0
 10
5.43367
 20
-21.9607
 11
5.44597
 21
-21.9729
  0
LINE
  8
0
 10
5.44597
 20
-21.9729
 11
5.45775
 21
-21.9863
  0
LINE
  8
0
 10
5.45775
 20
-21.9863
 11
5.46899
 21
-22.0008
  0
LINE
  8
0
 10
5.46899
 20
-22.0008
 11
5.47955
 21
-22.0162
  0
LINE
  8
0
 10
5.47955
 20
-22.0162
 11
5.48927
 21
-22.0323
  0
LINE
  8
0
 10
5.48927
 20
-22.0323
 11
5.49815
 21
-22.0489
  0
LINE
  8
0
 10
5.49815
 20
-22.0489
 11
5.50618
 21
-22.0662
  0
LINE
  8
0
 10
5.50618
 20
-22.0662
 11
5.51337
 21
-22.0841
  0
LINE
  8
0
 10
5.51337
 20
-22.0841
 11
5.5197
 21
-22.1026
  0
LINE
  8
0
 10
5.5197
 20
-22.1026
 11
5.52519
 21
-22.1217
  0
LINE
  8
0
 10
5.52519
 20
-22.1217
 11
5.52985
 21
-22.1414
  0
LINE
  8
0
 10
5.52985
 20
-22.1414
 11
5.53365
 21
-22.1617
  0
LINE
  8
0
 10
5.53365
 20
-22.1617
 11
5.53661
 21
-22.1827
  0
LINE
  8
0
 10
5.53661
 20
-22.1827
 11
5.53871
 21
-22.2042
  0
LINE
  8
0
 10
5.53871
 20
-22.2042
 11
5.53998
 21
-22.2264
  0
LINE
  8
0
 10
5.53998
 20
-22.2264
 11
5.54041
 21
-22.2492
  0
LINE
  8
0
 10
5.54041
 20
-22.2492
 11
5.53999
 21
-22.2673
  0
LINE
  8
0
 10
5.53999
 20
-22.2673
 11
5.53879
 21
-22.2849
  0
LINE
  8
0
 10
5.53879
 20
-22.2849
 11
5.53676
 21
-22.3019
  0
LINE
  8
0
 10
5.53676
 20
-22.3019
 11
5.53394
 21
-22.3184
  0
LINE
  8
0
 10
5.53394
 20
-22.3184
 11
5.53029
 21
-22.3343
  0
LINE
  8
0
 10
5.53029
 20
-22.3343
 11
5.52585
 21
-22.3496
  0
LINE
  8
0
 10
5.52585
 20
-22.3496
 11
5.52058
 21
-22.3644
  0
LINE
  8
0
 10
5.52058
 20
-22.3644
 11
5.51453
 21
-22.3786
  0
LINE
  8
0
 10
5.51453
 20
-22.3786
 11
5.50764
 21
-22.3923
  0
LINE
  8
0
 10
5.50764
 20
-22.3923
 11
5.49995
 21
-22.4054
  0
LINE
  8
0
 10
5.49995
 20
-22.4054
 11
5.49147
 21
-22.418
  0
LINE
  8
0
 10
5.49147
 20
-22.418
 11
5.48216
 21
-22.43
  0
LINE
  8
0
 10
5.48216
 20
-22.43
 11
5.47206
 21
-22.4415
  0
LINE
  8
0
 10
5.47206
 20
-22.4415
 11
5.46127
 21
-22.4522
  0
LINE
  8
0
 10
5.46127
 20
-22.4522
 11
5.44995
 21
-22.4621
  0
LINE
  8
0
 10
5.44995
 20
-22.4621
 11
5.4381
 21
-22.4711
  0
LINE
  8
0
 10
5.4381
 20
-22.4711
 11
5.42572
 21
-22.4793
  0
LINE
  8
0
 10
5.42572
 20
-22.4793
 11
5.4128
 21
-22.4866
  0
LINE
  8
0
 10
5.4128
 20
-22.4866
 11
5.39934
 21
-22.493
  0
LINE
  8
0
 10
5.39934
 20
-22.493
 11
5.38535
 21
-22.4986
  0
LINE
  8
0
 10
5.38535
 20
-22.4986
 11
5.37082
 21
-22.5033
  0
LINE
  8
0
 10
5.37082
 20
-22.5033
 11
5.35576
 21
-22.5072
  0
LINE
  8
0
 10
5.35576
 20
-22.5072
 11
5.34016
 21
-22.5102
  0
LINE
  8
0
 10
5.34016
 20
-22.5102
 11
5.32404
 21
-22.5123
  0
LINE
  8
0
 10
5.32404
 20
-22.5123
 11
5.30739
 21
-22.5136
  0
LINE
  8
0
 10
5.30739
 20
-22.5136
 11
5.29019
 21
-22.5141
  0
LINE
  8
0
 10
5.29019
 20
-22.5141
 11
5.27226
 21
-22.5136
  0
LINE
  8
0
 10
-2.2155
 20
-22.4225
 11
-2.1508
 21
-22.1418
  0
LINE
  8
0
 10
-2.1508
 20
-22.1418
 11
-2.12029
 21
-22.0002
  0
LINE
  8
0
 10
-2.12029
 20
-22.0002
 11
-2.11111
 21
-22.0542
  0
LINE
  8
0
 10
-2.11111
 20
-22.0542
 11
-2.10236
 21
-22.1052
  0
LINE
  8
0
 10
-2.10236
 20
-22.1052
 11
-2.09401
 21
-22.1532
  0
LINE
  8
0
 10
-2.09401
 20
-22.1532
 11
-2.08607
 21
-22.198
  0
LINE
  8
0
 10
-2.08607
 20
-22.198
 11
-2.07858
 21
-22.2398
  0
LINE
  8
0
 10
-2.07858
 20
-22.2398
 11
-2.07149
 21
-22.2786
  0
LINE
  8
0
 10
-2.07149
 20
-22.2786
 11
-2.06482
 21
-22.3143
  0
LINE
  8
0
 10
-2.06482
 20
-22.3143
 11
-2.05858
 21
-22.3469
  0
LINE
  8
0
 10
-2.05858
 20
-22.3469
 11
-2.05275
 21
-22.3764
  0
LINE
  8
0
 10
-2.05275
 20
-22.3764
 11
-2.04733
 21
-22.4029
  0
LINE
  8
0
 10
-2.04733
 20
-22.4029
 11
-2.04234
 21
-22.4263
  0
LINE
  8
0
 10
-2.04234
 20
-22.4263
 11
-2.03778
 21
-22.4467
  0
LINE
  8
0
 10
-2.03778
 20
-22.4467
 11
-2.03362
 21
-22.464
  0
LINE
  8
0
 10
-2.03362
 20
-22.464
 11
-1.81635
 21
-23.3795
  0
LINE
  8
0
 10
-1.81635
 20
-23.3795
 11
-1.41354
 21
-23.3795
  0
LINE
  8
0
 10
-1.41354
 20
-23.3795
 11
-1.38211
 21
-23.2453
  0
LINE
  8
0
 10
-1.38211
 20
-23.2453
 11
-1.3528
 21
-23.12
  0
LINE
  8
0
 10
-1.3528
 20
-23.12
 11
-1.32561
 21
-23.0035
  0
LINE
  8
0
 10
-1.32561
 20
-23.0035
 11
-1.30052
 21
-22.8958
  0
LINE
  8
0
 10
-1.30052
 20
-22.8958
 11
-1.27756
 21
-22.797
  0
LINE
  8
0
 10
-1.27756
 20
-22.797
 11
-1.25671
 21
-22.707
  0
LINE
  8
0
 10
-1.25671
 20
-22.707
 11
-1.23798
 21
-22.6258
  0
LINE
  8
0
 10
-1.23798
 20
-22.6258
 11
-1.22136
 21
-22.5534
  0
LINE
  8
0
 10
-1.22136
 20
-22.5534
 11
-1.20686
 21
-22.4899
  0
LINE
  8
0
 10
-1.20686
 20
-22.4899
 11
-1.19447
 21
-22.4353
  0
LINE
  8
0
 10
-1.19447
 20
-22.4353
 11
-1.1842
 21
-22.3894
  0
LINE
  8
0
 10
-1.1842
 20
-22.3894
 11
-1.17606
 21
-22.3524
  0
LINE
  8
0
 10
-1.17606
 20
-22.3524
 11
-1.17001
 21
-22.3243
  0
LINE
  8
0
 10
-1.17001
 20
-22.3243
 11
-1.16002
 21
-22.2764
  0
LINE
  8
0
 10
-1.16002
 20
-22.2764
 11
-1.13977
 21
-22.1785
  0
LINE
  8
0
 10
-1.13977
 20
-22.1785
 11
-1.12436
 21
-22.1032
  0
LINE
  8
0
 10
-1.12436
 20
-22.1032
 11
-1.1035
 21
-22.0002
  0
LINE
  8
0
 10
-1.1035
 20
-22.0002
 11
-1.04735
 21
-22.2687
  0
LINE
  8
0
 10
-1.04735
 20
-22.2687
 11
-0.798355
 21
-23.3795
  0
LINE
  8
0
 10
-0.798355
 20
-23.3795
 11
-0.43338
 21
-23.3795
  0
LINE
  8
0
 10
-0.43338
 20
-23.3795
 11
-0.87648
 21
-21.6596
  0
LINE
  8
0
 10
-0.87648
 20
-21.6596
 11
-1.30368
 21
-21.6596
  0
LINE
  8
0
 10
-1.30368
 20
-21.6596
 11
-1.43127
 21
-22.2065
  0
LINE
  8
0
 10
-1.43127
 20
-22.2065
 11
-1.4792
 21
-22.4124
  0
LINE
  8
0
 10
-1.4792
 20
-22.4124
 11
-1.51656
 21
-22.5733
  0
LINE
  8
0
 10
-1.51656
 20
-22.5733
 11
-1.54333
 21
-22.6891
  0
LINE
  8
0
 10
-1.54333
 20
-22.6891
 11
-1.55276
 21
-22.7301
  0
LINE
  8
0
 10
-1.55276
 20
-22.7301
 11
-1.55954
 21
-22.7598
  0
LINE
  8
0
 10
-1.55954
 20
-22.7598
 11
-1.56367
 21
-22.7783
  0
LINE
  8
0
 10
-1.56367
 20
-22.7783
 11
-1.56656
 21
-22.7916
  0
LINE
  8
0
 10
-1.56656
 20
-22.7916
 11
-1.56956
 21
-22.8058
  0
LINE
  8
0
 10
-1.56956
 20
-22.8058
 11
-1.57271
 21
-22.821
  0
LINE
  8
0
 10
-1.57271
 20
-22.821
 11
-1.57599
 21
-22.837
  0
LINE
  8
0
 10
-1.57599
 20
-22.837
 11
-1.57939
 21
-22.8539
  0
LINE
  8
0
 10
-1.57939
 20
-22.8539
 11
-1.58658
 21
-22.8905
  0
LINE
  8
0
 10
-1.58658
 20
-22.8905
 11
-1.59038
 21
-22.9101
  0
LINE
  8
0
 10
-1.59038
 20
-22.9101
 11
-1.5943
 21
-22.9306
  0
LINE
  8
0
 10
-1.5943
 20
-22.9306
 11
-1.60252
 21
-22.9744
  0
LINE
  8
0
 10
-1.60252
 20
-22.9744
 11
-1.61128
 21
-23.0218
  0
LINE
  8
0
 10
-1.61128
 20
-23.0218
 11
-1.61588
 21
-22.9924
  0
LINE
  8
0
 10
-1.61588
 20
-22.9924
 11
-1.62062
 21
-22.9632
  0
LINE
  8
0
 10
-1.62062
 20
-22.9632
 11
-1.62552
 21
-22.9342
  0
LINE
  8
0
 10
-1.62552
 20
-22.9342
 11
-1.63058
 21
-22.9054
  0
LINE
  8
0
 10
-1.63058
 20
-22.9054
 11
-1.6358
 21
-22.8768
  0
LINE
  8
0
 10
-1.6358
 20
-22.8768
 11
-1.64119
 21
-22.8483
  0
LINE
  8
0
 10
-1.64119
 20
-22.8483
 11
-1.64673
 21
-22.8201
  0
LINE
  8
0
 10
-1.64673
 20
-22.8201
 11
-1.65242
 21
-22.792
  0
LINE
  8
0
 10
-1.65242
 20
-22.792
 11
-1.65828
 21
-22.7641
  0
LINE
  8
0
 10
-1.65828
 20
-22.7641
 11
-1.66431
 21
-22.7364
  0
LINE
  8
0
 10
-1.66431
 20
-22.7364
 11
-1.67047
 21
-22.7089
  0
LINE
  8
0
 10
-1.67047
 20
-22.7089
 11
-1.6768
 21
-22.6816
  0
LINE
  8
0
 10
-1.6768
 20
-22.6816
 11
-1.6833
 21
-22.6544
  0
LINE
  8
0
 10
-1.6833
 20
-22.6544
 11
-1.91644
 21
-21.6596
  0
LINE
  8
0
 10
-1.91644
 20
-21.6596
 11
-2.34366
 21
-21.6596
  0
LINE
  8
0
 10
-2.34366
 20
-21.6596
 11
-2.78796
 21
-23.3795
  0
LINE
  8
0
 10
-2.78796
 20
-23.3795
 11
-2.423
 21
-23.3795
  0
LINE
  8
0
 10
-2.423
 20
-23.3795
 11
-2.2155
 21
-22.4225
  0
LINE
  8
0
 10
-5.28247
 20
-23.4044
 11
-5.24477
 21
-23.4021
  0
LINE
  8
0
 10
-5.24477
 20
-23.4021
 11
-5.20834
 21
-23.3984
  0
LINE
  8
0
 10
-5.20834
 20
-23.3984
 11
-5.1732
 21
-23.3932
  0
LINE
  8
0
 10
-5.1732
 20
-23.3932
 11
-5.13933
 21
-23.3865
  0
LINE
  8
0
 10
-5.13933
 20
-23.3865
 11
-5.10674
 21
-23.3783
  0
LINE
  8
0
 10
-5.10674
 20
-23.3783
 11
-5.07542
 21
-23.3687
  0
LINE
  8
0
 10
-5.07542
 20
-23.3687
 11
-5.04538
 21
-23.3575
  0
LINE
  8
0
 10
-5.04538
 20
-23.3575
 11
-5.01663
 21
-23.3448
  0
LINE
  8
0
 10
-5.01663
 20
-23.3448
 11
-4.98915
 21
-23.3307
  0
LINE
  8
0
 10
-4.98915
 20
-23.3307
 11
-4.96295
 21
-23.3151
  0
LINE
  8
0
 10
-4.96295
 20
-23.3151
 11
-4.93803
 21
-23.298
  0
LINE
  8
0
 10
-4.93803
 20
-23.298
 11
-4.91438
 21
-23.2794
  0
LINE
  8
0
 10
-4.91438
 20
-23.2794
 11
-4.89209
 21
-23.2594
  0
LINE
  8
0
 10
-4.89209
 20
-23.2594
 11
-4.87123
 21
-23.238
  0
LINE
  8
0
 10
-4.87123
 20
-23.238
 11
-4.85178
 21
-23.2153
  0
LINE
  8
0
 10
-4.85178
 20
-23.2153
 11
-4.83376
 21
-23.1913
  0
LINE
  8
0
 10
-4.83376
 20
-23.1913
 11
-4.81715
 21
-23.1659
  0
LINE
  8
0
 10
-4.81715
 20
-23.1659
 11
-4.80197
 21
-23.1392
  0
LINE
  8
0
 10
-4.80197
 20
-23.1392
 11
-4.78822
 21
-23.1111
  0
LINE
  8
0
 10
-4.78822
 20
-23.1111
 11
-4.77588
 21
-23.0817
  0
LINE
  8
0
 10
-4.77588
 20
-23.0817
 11
-4.76497
 21
-23.0509
  0
LINE
  8
0
 10
-4.76497
 20
-23.0509
 11
-4.75548
 21
-23.0188
  0
LINE
  8
0
 10
-4.75548
 20
-23.0188
 11
-4.74742
 21
-22.9854
  0
LINE
  8
0
 10
-4.74742
 20
-22.9854
 11
-4.74078
 21
-22.9505
  0
LINE
  8
0
 10
-4.74078
 20
-22.9505
 11
-4.73557
 21
-22.9144
  0
LINE
  8
0
 10
-4.73557
 20
-22.9144
 11
-5.08099
 21
-22.8949
  0
LINE
  8
0
 10
-5.08099
 20
-22.8949
 11
-5.08386
 21
-22.9128
  0
LINE
  8
0
 10
-5.08386
 20
-22.9128
 11
-5.08722
 21
-22.9299
  0
LINE
  8
0
 10
-5.08722
 20
-22.9299
 11
-5.09106
 21
-22.9464
  0
LINE
  8
0
 10
-5.09106
 20
-22.9464
 11
-5.09538
 21
-22.9621
  0
LINE
  8
0
 10
-5.09538
 20
-22.9621
 11
-5.1002
 21
-22.9772
  0
LINE
  8
0
 10
-5.1002
 20
-22.9772
 11
-5.10548
 21
-22.9916
  0
LINE
  8
0
 10
-5.10548
 20
-22.9916
 11
-5.11127
 21
-23.0052
  0
LINE
  8
0
 10
-5.11127
 20
-23.0052
 11
-5.11752
 21
-23.0182
  0
LINE
  8
0
 10
-5.11752
 20
-23.0182
 11
-5.12427
 21
-23.0305
  0
LINE
  8
0
 10
-5.12427
 20
-23.0305
 11
-5.13148
 21
-23.042
  0
LINE
  8
0
 10
-5.13148
 20
-23.042
 11
-5.13921
 21
-23.0529
  0
LINE
  8
0
 10
-5.13921
 20
-23.0529
 11
-5.1474
 21
-23.063
  0
LINE
  8
0
 10
-5.1474
 20
-23.063
 11
-5.15607
 21
-23.0725
  0
LINE
  8
0
 10
-5.15607
 20
-23.0725
 11
-5.1653
 21
-23.0813
  0
LINE
  8
0
 10
-5.1653
 20
-23.0813
 11
-5.17514
 21
-23.0893
  0
LINE
  8
0
 10
-5.17514
 20
-23.0893
 11
-5.18559
 21
-23.0967
  0
LINE
  8
0
 10
-5.18559
 20
-23.0967
 11
-5.19667
 21
-23.1033
  0
LINE
  8
0
 10
-5.19667
 20
-23.1033
 11
-5.20834
 21
-23.1093
  0
LINE
  8
0
 10
-5.20834
 20
-23.1093
 11
-5.22064
 21
-23.1145
  0
LINE
  8
0
 10
-5.22064
 20
-23.1145
 11
-5.23355
 21
-23.1191
  0
LINE
  8
0
 10
-5.23355
 20
-23.1191
 11
-5.24707
 21
-23.1229
  0
LINE
  8
0
 10
-5.24707
 20
-23.1229
 11
-5.26122
 21
-23.1261
  0
LINE
  8
0
 10
-5.26122
 20
-23.1261
 11
-5.27597
 21
-23.1285
  0
LINE
  8
0
 10
-5.27597
 20
-23.1285
 11
-5.29134
 21
-23.1303
  0
LINE
  8
0
 10
-5.29134
 20
-23.1303
 11
-5.30731
 21
-23.1313
  0
LINE
  8
0
 10
-5.30731
 20
-23.1313
 11
-5.32391
 21
-23.1317
  0
LINE
  8
0
 10
-5.32391
 20
-23.1317
 11
-5.35732
 21
-23.1304
  0
LINE
  8
0
 10
-5.35732
 20
-23.1304
 11
-5.38805
 21
-23.1264
  0
LINE
  8
0
 10
-5.38805
 20
-23.1264
 11
-5.41611
 21
-23.1197
  0
LINE
  8
0
 10
-5.41611
 20
-23.1197
 11
-5.44148
 21
-23.1104
  0
LINE
  8
0
 10
-5.44148
 20
-23.1104
 11
-5.4642
 21
-23.0985
  0
LINE
  8
0
 10
-5.4642
 20
-23.0985
 11
-5.48424
 21
-23.0838
  0
LINE
  8
0
 10
-5.48424
 20
-23.0838
 11
-5.50162
 21
-23.0666
  0
LINE
  8
0
 10
-5.50162
 20
-23.0666
 11
-5.51631
 21
-23.0466
  0
LINE
  8
0
 10
-5.51631
 20
-23.0466
 11
-5.52834
 21
-23.024
  0
LINE
  8
0
 10
-5.52834
 20
-23.024
 11
-5.53769
 21
-22.9988
  0
LINE
  8
0
 10
-5.53769
 20
-22.9988
 11
-5.54437
 21
-22.9709
  0
LINE
  8
0
 10
-5.54437
 20
-22.9709
 11
-5.54839
 21
-22.9403
  0
LINE
  8
0
 10
-5.54839
 20
-22.9403
 11
-5.54971
 21
-22.9071
  0
LINE
  8
0
 10
-5.54971
 20
-22.9071
 11
-5.54929
 21
-22.893
  0
LINE
  8
0
 10
-5.54929
 20
-22.893
 11
-5.548
 21
-22.8788
  0
LINE
  8
0
 10
-5.548
 20
-22.8788
 11
-5.54585
 21
-22.8646
  0
LINE
  8
0
 10
-5.54585
 20
-22.8646
 11
-5.54285
 21
-22.8504
  0
LINE
  8
0
 10
-5.54285
 20
-22.8504
 11
-5.53897
 21
-22.8361
  0
LINE
  8
0
 10
-5.53897
 20
-22.8361
 11
-5.53424
 21
-22.8218
  0
LINE
  8
0
 10
-5.53424
 20
-22.8218
 11
-5.52866
 21
-22.8074
  0
LINE
  8
0
 10
-5.52866
 20
-22.8074
 11
-5.52222
 21
-22.793
  0
LINE
  8
0
 10
-5.52222
 20
-22.793
 11
-5.51491
 21
-22.7786
  0
LINE
  8
0
 10
-5.51491
 20
-22.7786
 11
-5.50674
 21
-22.7641
  0
LINE
  8
0
 10
-5.50674
 20
-22.7641
 11
-5.49771
 21
-22.7495
  0
LINE
  8
0
 10
-5.49771
 20
-22.7495
 11
-5.48782
 21
-22.735
  0
LINE
  8
0
 10
-5.48782
 20
-22.735
 11
-5.47708
 21
-22.7203
  0
LINE
  8
0
 10
-5.47708
 20
-22.7203
 11
-5.46527
 21
-22.7054
  0
LINE
  8
0
 10
-5.46527
 20
-22.7054
 11
-5.45218
 21
-22.6898
  0
LINE
  8
0
 10
-5.45218
 20
-22.6898
 11
-5.43782
 21
-22.6737
  0
LINE
  8
0
 10
-5.43782
 20
-22.6737
 11
-5.42216
 21
-22.6569
  0
LINE
  8
0
 10
-5.42216
 20
-22.6569
 11
-5.40524
 21
-22.6395
  0
LINE
  8
0
 10
-5.40524
 20
-22.6395
 11
-5.38704
 21
-22.6215
  0
LINE
  8
0
 10
-5.38704
 20
-22.6215
 11
-5.36755
 21
-22.603
  0
LINE
  8
0
 10
-5.36755
 20
-22.603
 11
-5.3468
 21
-22.5837
  0
LINE
  8
0
 10
-5.3468
 20
-22.5837
 11
-5.32475
 21
-22.5639
  0
LINE
  8
0
 10
-5.32475
 20
-22.5639
 11
-5.30144
 21
-22.5435
  0
LINE
  8
0
 10
-5.30144
 20
-22.5435
 11
-5.27684
 21
-22.5225
  0
LINE
  8
0
 10
-5.27684
 20
-22.5225
 11
-5.25096
 21
-22.5009
  0
LINE
  8
0
 10
-5.25096
 20
-22.5009
 11
-5.2238
 21
-22.4787
  0
LINE
  8
0
 10
-5.2238
 20
-22.4787
 11
-5.19527
 21
-22.4553
  0
LINE
  8
0
 10
-5.19527
 20
-22.4553
 11
-5.16748
 21
-22.432
  0
LINE
  8
0
 10
-5.16748
 20
-22.432
 11
-5.14046
 21
-22.4089
  0
LINE
  8
0
 10
-5.14046
 20
-22.4089
 11
-5.1142
 21
-22.3859
  0
LINE
  8
0
 10
-5.1142
 20
-22.3859
 11
-5.0887
 21
-22.3631
  0
LINE
  8
0
 10
-5.0887
 20
-22.3631
 11
-5.06395
 21
-22.3404
  0
LINE
  8
0
 10
-5.06395
 20
-22.3404
 11
-5.03995
 21
-22.3179
  0
LINE
  8
0
 10
-5.03995
 20
-22.3179
 11
-5.01672
 21
-22.2955
  0
LINE
  8
0
 10
-5.01672
 20
-22.2955
 11
-4.99425
 21
-22.2733
  0
LINE
  8
0
 10
-4.99425
 20
-22.2733
 11
-4.97253
 21
-22.2512
  0
LINE
  8
0
 10
-4.97253
 20
-22.2512
 11
-4.95158
 21
-22.2292
  0
LINE
  8
0
 10
-4.95158
 20
-22.2292
 11
-4.93138
 21
-22.2074
  0
LINE
  8
0
 10
-4.93138
 20
-22.2074
 11
-4.91194
 21
-22.1857
  0
LINE
  8
0
 10
-4.91194
 20
-22.1857
 11
-4.89322
 21
-22.1641
  0
LINE
  8
0
 10
-4.89322
 20
-22.1641
 11
-4.87517
 21
-22.1423
  0
LINE
  8
0
 10
-4.87517
 20
-22.1423
 11
-4.85779
 21
-22.1205
  0
LINE
  8
0
 10
-4.85779
 20
-22.1205
 11
-4.84108
 21
-22.0986
  0
LINE
  8
0
 10
-4.84108
 20
-22.0986
 11
-4.82504
 21
-22.0767
  0
LINE
  8
0
 10
-4.82504
 20
-22.0767
 11
-4.80968
 21
-22.0546
  0
LINE
  8
0
 10
-4.80968
 20
-22.0546
 11
-4.79498
 21
-22.0324
  0
LINE
  8
0
 10
-4.79498
 20
-22.0324
 11
-4.78096
 21
-22.0102
  0
LINE
  8
0
 10
-4.78096
 20
-22.0102
 11
-4.76761
 21
-21.9879
  0
LINE
  8
0
 10
-4.76761
 20
-21.9879
 11
-4.75493
 21
-21.9654
  0
LINE
  8
0
 10
-4.75493
 20
-21.9654
 11
-4.74292
 21
-21.9429
  0
LINE
  8
0
 10
-4.74292
 20
-21.9429
 11
-4.73158
 21
-21.9203
  0
LINE
  8
0
 10
-4.73158
 20
-21.9203
 11
-4.72092
 21
-21.8976
  0
LINE
  8
0
 10
-4.72092
 20
-21.8976
 11
-4.72092
 21
-21.6596
  0
LINE
  8
0
 10
-4.72092
 20
-21.6596
 11
-5.92445
 21
-21.6596
  0
LINE
  8
0
 10
-5.92445
 20
-21.6596
 11
-5.92445
 21
-21.9416
  0
LINE
  8
0
 10
-5.92445
 20
-21.9416
 11
-5.12616
 21
-21.9416
  0
LINE
  8
0
 10
-5.12616
 20
-21.9416
 11
-5.13162
 21
-21.9538
  0
LINE
  8
0
 10
-5.13162
 20
-21.9538
 11
-5.13753
 21
-21.9658
  0
LINE
  8
0
 10
-5.13753
 20
-21.9658
 11
-5.14384
 21
-21.9777
  0
LINE
  8
0
 10
-5.14384
 20
-21.9777
 11
-5.1506
 21
-21.9895
  0
LINE
  8
0
 10
-5.1506
 20
-21.9895
 11
-5.15778
 21
-22.0012
  0
LINE
  8
0
 10
-5.15778
 20
-22.0012
 11
-5.16537
 21
-22.0128
  0
LINE
  8
0
 10
-5.16537
 20
-22.0128
 11
-5.1734
 21
-22.0242
  0
LINE
  8
0
 10
-5.1734
 20
-22.0242
 11
-5.18185
 21
-22.0356
  0
LINE
  8
0
 10
-5.18185
 20
-22.0356
 11
-5.19073
 21
-22.0468
  0
LINE
  8
0
 10
-5.19073
 20
-22.0468
 11
-5.20004
 21
-22.0579
  0
LINE
  8
0
 10
-5.20004
 20
-22.0579
 11
-5.20978
 21
-22.0689
  0
LINE
  8
0
 10
-5.20978
 20
-22.0689
 11
-5.21994
 21
-22.0798
  0
LINE
  8
0
 10
-5.21994
 20
-22.0798
 11
-5.23051
 21
-22.0905
  0
LINE
  8
0
 10
-5.23051
 20
-22.0905
 11
-5.24141
 21
-22.1012
  0
LINE
  8
0
 10
-5.24141
 20
-22.1012
 11
-5.25249
 21
-22.1119
  0
LINE
  8
0
 10
-5.25249
 20
-22.1119
 11
-5.26373
 21
-22.1226
  0
LINE
  8
0
 10
-5.26373
 20
-22.1226
 11
-5.27516
 21
-22.1332
  0
LINE
  8
0
 10
-5.27516
 20
-22.1332
 11
-5.28677
 21
-22.1438
  0
LINE
  8
0
 10
-5.28677
 20
-22.1438
 11
-5.29857
 21
-22.1545
  0
LINE
  8
0
 10
-5.29857
 20
-22.1545
 11
-5.31053
 21
-22.1651
  0
LINE
  8
0
 10
-5.31053
 20
-22.1651
 11
-5.32269
 21
-22.1757
  0
LINE
  8
0
 10
-5.32269
 20
-22.1757
 11
-5.33502
 21
-22.1863
  0
LINE
  8
0
 10
-5.33502
 20
-22.1863
 11
-5.34753
 21
-22.1968
  0
LINE
  8
0
 10
-5.34753
 20
-22.1968
 11
-5.36023
 21
-22.2074
  0
LINE
  8
0
 10
-5.36023
 20
-22.2074
 11
-5.37309
 21
-22.2179
  0
LINE
  8
0
 10
-5.37309
 20
-22.2179
 11
-5.38615
 21
-22.2284
  0
LINE
  8
0
 10
-5.38615
 20
-22.2284
 11
-5.46619
 21
-22.2923
  0
LINE
  8
0
 10
-5.46619
 20
-22.2923
 11
-5.56253
 21
-22.3688
  0
LINE
  8
0
 10
-5.56253
 20
-22.3688
 11
-5.57643
 21
-22.38
  0
LINE
  8
0
 10
-5.57643
 20
-22.38
 11
-5.59012
 21
-22.3912
  0
LINE
  8
0
 10
-5.59012
 20
-22.3912
 11
-5.60362
 21
-22.4026
  0
LINE
  8
0
 10
-5.60362
 20
-22.4026
 11
-5.61693
 21
-22.4141
  0
LINE
  8
0
 10
-5.61693
 20
-22.4141
 11
-5.63005
 21
-22.4258
  0
LINE
  8
0
 10
-5.63005
 20
-22.4258
 11
-5.64296
 21
-22.4375
  0
LINE
  8
0
 10
-5.64296
 20
-22.4375
 11
-5.65569
 21
-22.4494
  0
LINE
  8
0
 10
-5.65569
 20
-22.4494
 11
-5.66821
 21
-22.4614
  0
LINE
  8
0
 10
-5.66821
 20
-22.4614
 11
-5.68054
 21
-22.4735
  0
LINE
  8
0
 10
-5.68054
 20
-22.4735
 11
-5.69269
 21
-22.4857
  0
LINE
  8
0
 10
-5.69269
 20
-22.4857
 11
-5.70464
 21
-22.4981
  0
LINE
  8
0
 10
-5.70464
 20
-22.4981
 11
-5.71638
 21
-22.5106
  0
LINE
  8
0
 10
-5.71638
 20
-22.5106
 11
-5.72794
 21
-22.5232
  0
LINE
  8
0
 10
-5.72794
 20
-22.5232
 11
-5.73923
 21
-22.536
  0
LINE
  8
0
 10
-5.73923
 20
-22.536
 11
-5.75021
 21
-22.5489
  0
LINE
  8
0
 10
-5.75021
 20
-22.5489
 11
-5.76086
 21
-22.562
  0
LINE
  8
0
 10
-5.76086
 20
-22.562
 11
-5.77121
 21
-22.5754
  0
LINE
  8
0
 10
-5.77121
 20
-22.5754
 11
-5.78123
 21
-22.5889
  0
LINE
  8
0
 10
-5.78123
 20
-22.5889
 11
-5.79095
 21
-22.6025
  0
LINE
  8
0
 10
-5.79095
 20
-22.6025
 11
-5.80034
 21
-22.6164
  0
LINE
  8
0
 10
-5.80034
 20
-22.6164
 11
-5.8094
 21
-22.6304
  0
LINE
  8
0
 10
-5.8094
 20
-22.6304
 11
-5.81816
 21
-22.6446
  0
LINE
  8
0
 10
-5.81816
 20
-22.6446
 11
-5.8266
 21
-22.659
  0
LINE
  8
0
 10
-5.8266
 20
-22.659
 11
-5.83472
 21
-22.6736
  0
LINE
  8
0
 10
-5.83472
 20
-22.6736
 11
-5.84251
 21
-22.6883
  0
LINE
  8
0
 10
-5.84251
 20
-22.6883
 11
-5.84999
 21
-22.7033
  0
LINE
  8
0
 10
-5.84999
 20
-22.7033
 11
-5.85704
 21
-22.7184
  0
LINE
  8
0
 10
-5.85704
 20
-22.7184
 11
-5.86351
 21
-22.7339
  0
LINE
  8
0
 10
-5.86351
 20
-22.7339
 11
-5.86943
 21
-22.7496
  0
LINE
  8
0
 10
-5.86943
 20
-22.7496
 11
-5.87479
 21
-22.7655
  0
LINE
  8
0
 10
-5.87479
 20
-22.7655
 11
-5.87958
 21
-22.7818
  0
LINE
  8
0
 10
-5.87958
 20
-22.7818
 11
-5.8838
 21
-22.7983
  0
LINE
  8
0
 10
-5.8838
 20
-22.7983
 11
-5.88747
 21
-22.8151
  0
LINE
  8
0
 10
-5.88747
 20
-22.8151
 11
-5.89056
 21
-22.8322
  0
LINE
  8
0
 10
-5.89056
 20
-22.8322
 11
-5.8931
 21
-22.8496
  0
LINE
  8
0
 10
-5.8931
 20
-22.8496
 11
-5.89507
 21
-22.8672
  0
LINE
  8
0
 10
-5.89507
 20
-22.8672
 11
-5.89647
 21
-22.8851
  0
LINE
  8
0
 10
-5.89647
 20
-22.8851
 11
-5.89732
 21
-22.9033
  0
LINE
  8
0
 10
-5.89732
 20
-22.9033
 11
-5.8976
 21
-22.9217
  0
LINE
  8
0
 10
-5.8976
 20
-22.9217
 11
-5.89673
 21
-22.9564
  0
LINE
  8
0
 10
-5.89673
 20
-22.9564
 11
-5.89407
 21
-22.9899
  0
LINE
  8
0
 10
-5.89407
 20
-22.9899
 11
-5.88968
 21
-23.0222
  0
LINE
  8
0
 10
-5.88968
 20
-23.0222
 11
-5.8835
 21
-23.0533
  0
LINE
  8
0
 10
-5.8835
 20
-23.0533
 11
-5.87558
 21
-23.0831
  0
LINE
  8
0
 10
-5.87558
 20
-23.0831
 11
-5.86588
 21
-23.1117
  0
LINE
  8
0
 10
-5.86588
 20
-23.1117
 11
-5.85443
 21
-23.1391
  0
LINE
  8
0
 10
-5.85443
 20
-23.1391
 11
-5.8412
 21
-23.1653
  0
LINE
  8
0
 10
-5.8412
 20
-23.1653
 11
-5.82623
 21
-23.1903
  0
LINE
  8
0
 10
-5.82623
 20
-23.1903
 11
-5.80949
 21
-23.2141
  0
LINE
  8
0
 10
-5.80949
 20
-23.2141
 11
-5.79099
 21
-23.2367
  0
LINE
  8
0
 10
-5.79099
 20
-23.2367
 11
-5.77072
 21
-23.258
  0
LINE
  8
0
 10
-5.77072
 20
-23.258
 11
-5.74869
 21
-23.2782
  0
LINE
  8
0
 10
-5.74869
 20
-23.2782
 11
-5.72501
 21
-23.2969
  0
LINE
  8
0
 10
-5.72501
 20
-23.2969
 11
-5.6998
 21
-23.3142
  0
LINE
  8
0
 10
-5.6998
 20
-23.3142
 11
-5.67307
 21
-23.33
  0
LINE
  8
0
 10
-5.67307
 20
-23.33
 11
-5.64479
 21
-23.3443
  0
LINE
  8
0
 10
-5.64479
 20
-23.3443
 11
-5.61499
 21
-23.357
  0
LINE
  8
0
 10
-5.61499
 20
-23.357
 11
-5.58366
 21
-23.3683
  0
LINE
  8
0
 10
-5.58366
 20
-23.3683
 11
-5.5508
 21
-23.3781
  0
LINE
  8
0
 10
-5.5508
 20
-23.3781
 11
-5.5164
 21
-23.3863
  0
LINE
  8
0
 10
-5.5164
 20
-23.3863
 11
-5.48048
 21
-23.3931
  0
LINE
  8
0
 10
-5.48048
 20
-23.3931
 11
-5.44302
 21
-23.3983
  0
LINE
  8
0
 10
-5.44302
 20
-23.3983
 11
-5.40404
 21
-23.4021
  0
LINE
  8
0
 10
-5.40404
 20
-23.4021
 11
-5.36351
 21
-23.4044
  0
LINE
  8
0
 10
-5.36351
 20
-23.4044
 11
-5.32146
 21
-23.4051
  0
LINE
  8
0
 10
-5.32146
 20
-23.4051
 11
-5.28247
 21
-23.4044
  0
LINE
  8
0
 10
1.13521
 20
-21.6596
 11
0.775116
 21
-21.6596
  0
LINE
  8
0
 10
0.775116
 20
-21.6596
 11
0.622528
 21
-22.0991
  0
LINE
  8
0
 10
0.622528
 20
-22.0991
 11
-0.0329285
 21
-22.0991
  0
LINE
  8
0
 10
-0.0329285
 20
-22.0991
 11
-0.185516
 21
-21.6596
  0
LINE
  8
0
 10
-0.185516
 20
-21.6596
 11
-0.541931
 21
-21.6596
  0
LINE
  8
0
 10
-0.541931
 20
-21.6596
 11
0.0830078
 21
-23.3795
  0
LINE
  8
0
 10
0.0830078
 20
-23.3795
 11
0.507797
 21
-23.3795
  0
LINE
  8
0
 10
0.507797
 20
-23.3795
 11
1.13521
 21
-21.6596
  0
LINE
  8
0
 10
0.26976
 20
-23.0304
 11
0.2173
 21
-22.8644
  0
LINE
  8
0
 10
0.2173
 20
-22.8644
 11
0.0476227
 21
-22.37
  0
LINE
  8
0
 10
0.0476227
 20
-22.37
 11
0.541977
 21
-22.37
  0
LINE
  8
0
 10
0.541977
 20
-22.37
 11
0.486801
 21
-22.5308
  0
LINE
  8
0
 10
0.486801
 20
-22.5308
 11
0.439926
 21
-22.6677
  0
LINE
  8
0
 10
0.439926
 20
-22.6677
 11
0.401398
 21
-22.7807
  0
LINE
  8
0
 10
0.401398
 20
-22.7807
 11
0.385239
 21
-22.8282
  0
LINE
  8
0
 10
0.385239
 20
-22.8282
 11
0.37117
 21
-22.8697
  0
LINE
  8
0
 10
0.37117
 20
-22.8697
 11
0.359177
 21
-22.9053
  0
LINE
  8
0
 10
0.359177
 20
-22.9053
 11
0.349274
 21
-22.9348
  0
LINE
  8
0
 10
0.349274
 20
-22.9348
 11
0.341446
 21
-22.9584
  0
LINE
  8
0
 10
0.341446
 20
-22.9584
 11
0.335693
 21
-22.976
  0
LINE
  8
0
 10
0.335693
 20
-22.976
 11
0.332031
 21
-22.9877
  0
LINE
  8
0
 10
0.332031
 20
-22.9877
 11
0.321976
 21
-23.0211
  0
LINE
  8
0
 10
0.321976
 20
-23.0211
 11
0.315033
 21
-23.0446
  0
LINE
  8
0
 10
0.315033
 20
-23.0446
 11
0.306595
 21
-23.0739
  0
LINE
  8
0
 10
0.306595
 20
-23.0739
 11
0.302719
 21
-23.0878
  0
LINE
  8
0
 10
0.302719
 20
-23.0878
 11
0.29541
 21
-23.1146
  0
LINE
  8
0
 10
0.29541
 20
-23.1146
 11
0.26976
 21
-23.0304
  0
LINE
  8
0
 10
3.24838
 20
-23.1012
 11
2.69301
 21
-23.1012
  0
LINE
  8
0
 10
2.69301
 20
-23.1012
 11
2.69301
 21
-21.6596
  0
LINE
  8
0
 10
2.69301
 20
-21.6596
 11
2.33293
 21
-21.6596
  0
LINE
  8
0
 10
2.33293
 20
-21.6596
 11
2.33293
 21
-23.1012
  0
LINE
  8
0
 10
2.33293
 20
-23.1012
 11
1.77631
 21
-23.1012
  0
LINE
  8
0
 10
1.77631
 20
-23.1012
 11
1.77631
 21
-23.3795
  0
LINE
  8
0
 10
1.77631
 20
-23.3795
 11
3.24838
 21
-23.3795
  0
LINE
  8
0
 10
3.24838
 20
-23.3795
 11
3.24838
 21
-23.1012
  0
LINE
  8
0
 10
6.70161
 20
-23.4044
 11
6.73932
 21
-23.4021
  0
LINE
  8
0
 10
6.73932
 20
-23.4021
 11
6.77574
 21
-23.3984
  0
LINE
  8
0
 10
6.77574
 20
-23.3984
 11
6.81088
 21
-23.3932
  0
LINE
  8
0
 10
6.81088
 20
-23.3932
 11
6.84476
 21
-23.3865
  0
LINE
  8
0
 10
6.84476
 20
-23.3865
 11
6.87735
 21
-23.3783
  0
LINE
  8
0
 10
6.87735
 20
-23.3783
 11
6.90866
 21
-23.3687
  0
LINE
  8
0
 10
6.90866
 20
-23.3687
 11
6.93869
 21
-23.3575
  0
LINE
  8
0
 10
6.93869
 20
-23.3575
 11
6.96745
 21
-23.3448
  0
LINE
  8
0
 10
6.96745
 20
-23.3448
 11
6.99493
 21
-23.3307
  0
LINE
  8
0
 10
6.99493
 20
-23.3307
 11
7.02113
 21
-23.3151
  0
LINE
  8
0
 10
7.02113
 20
-23.3151
 11
7.04605
 21
-23.298
  0
LINE
  8
0
 10
7.04605
 20
-23.298
 11
7.06969
 21
-23.2794
  0
LINE
  8
0
 10
7.06969
 20
-23.2794
 11
7.09198
 21
-23.2594
  0
LINE
  8
0
 10
7.09198
 20
-23.2594
 11
7.11285
 21
-23.238
  0
LINE
  8
0
 10
7.11285
 20
-23.238
 11
7.13231
 21
-23.2153
  0
LINE
  8
0
 10
7.13231
 20
-23.2153
 11
7.15033
 21
-23.1913
  0
LINE
  8
0
 10
7.15033
 20
-23.1913
 11
7.16693
 21
-23.1659
  0
LINE
  8
0
 10
7.16693
 20
-23.1659
 11
7.18211
 21
-23.1392
  0
LINE
  8
0
 10
7.18211
 20
-23.1392
 11
7.19586
 21
-23.1111
  0
LINE
  8
0
 10
7.19586
 20
-23.1111
 11
7.20819
 21
-23.0817
  0
LINE
  8
0
 10
7.20819
 20
-23.0817
 11
7.21912
 21
-23.0509
  0
LINE
  8
0
 10
7.21912
 20
-23.0509
 11
7.22859
 21
-23.0188
  0
LINE
  8
0
 10
7.22859
 20
-23.0188
 11
7.23666
 21
-22.9854
  0
LINE
  8
0
 10
7.23666
 20
-22.9854
 11
7.2433
 21
-22.9505
  0
LINE
  8
0
 10
7.2433
 20
-22.9505
 11
7.24852
 21
-22.9144
  0
LINE
  8
0
 10
7.24852
 20
-22.9144
 11
6.90309
 21
-22.8949
  0
LINE
  8
0
 10
6.90309
 20
-22.8949
 11
6.90021
 21
-22.9128
  0
LINE
  8
0
 10
6.90021
 20
-22.9128
 11
6.89685
 21
-22.9299
  0
LINE
  8
0
 10
6.89685
 20
-22.9299
 11
6.89302
 21
-22.9464
  0
LINE
  8
0
 10
6.89302
 20
-22.9464
 11
6.88869
 21
-22.9621
  0
LINE
  8
0
 10
6.88869
 20
-22.9621
 11
6.88388
 21
-22.9772
  0
LINE
  8
0
 10
6.88388
 20
-22.9772
 11
6.8786
 21
-22.9916
  0
LINE
  8
0
 10
6.8786
 20
-22.9916
 11
6.87282
 21
-23.0052
  0
LINE
  8
0
 10
6.87282
 20
-23.0052
 11
6.86656
 21
-23.0182
  0
LINE
  8
0
 10
6.86656
 20
-23.0182
 11
6.85982
 21
-23.0305
  0
LINE
  8
0
 10
6.85982
 20
-23.0305
 11
6.85258
 21
-23.042
  0
LINE
  8
0
 10
6.85258
 20
-23.042
 11
6.84488
 21
-23.0529
  0
LINE
  8
0
 10
6.84488
 20
-23.0529
 11
6.83669
 21
-23.063
  0
LINE
  8
0
 10
6.83669
 20
-23.063
 11
6.828
 21
-23.0725
  0
LINE
  8
0
 10
6.828
 20
-23.0725
 11
6.81879
 21
-23.0813
  0
LINE
  8
0
 10
6.81879
 20
-23.0813
 11
6.80894
 21
-23.0893
  0
LINE
  8
0
 10
6.80894
 20
-23.0893
 11
6.79849
 21
-23.0967
  0
LINE
  8
0
 10
6.79849
 20
-23.0967
 11
6.78741
 21
-23.1033
  0
LINE
  8
0
 10
6.78741
 20
-23.1033
 11
6.77574
 21
-23.1093
  0
LINE
  8
0
 10
6.77574
 20
-23.1093
 11
6.76344
 21
-23.1145
  0
LINE
  8
0
 10
6.76344
 20
-23.1145
 11
6.75053
 21
-23.1191
  0
LINE
  8
0
 10
6.75053
 20
-23.1191
 11
6.737
 21
-23.1229
  0
LINE
  8
0
 10
6.737
 20
-23.1229
 11
6.72287
 21
-23.1261
  0
LINE
  8
0
 10
6.72287
 20
-23.1261
 11
6.70811
 21
-23.1285
  0
LINE
  8
0
 10
6.70811
 20
-23.1285
 11
6.69275
 21
-23.1303
  0
LINE
  8
0
 10
6.69275
 20
-23.1303
 11
6.67677
 21
-23.1313
  0
LINE
  8
0
 10
6.67677
 20
-23.1313
 11
6.66017
 21
-23.1317
  0
LINE
  8
0
 10
6.66017
 20
-23.1317
 11
6.62677
 21
-23.1304
  0
LINE
  8
0
 10
6.62677
 20
-23.1304
 11
6.59604
 21
-23.1264
  0
LINE
  8
0
 10
6.59604
 20
-23.1264
 11
6.56798
 21
-23.1197
  0
LINE
  8
0
 10
6.56798
 20
-23.1197
 11
6.54259
 21
-23.1104
  0
LINE
  8
0
 10
6.54259
 20
-23.1104
 11
6.51988
 21
-23.0985
  0
LINE
  8
0
 10
6.51988
 20
-23.0985
 11
6.49983
 21
-23.0838
  0
LINE
  8
0
 10
6.49983
 20
-23.0838
 11
6.48247
 21
-23.0666
  0
LINE
  8
0
 10
6.48247
 20
-23.0666
 11
6.46777
 21
-23.0466
  0
LINE
  8
0
 10
6.46777
 20
-23.0466
 11
6.45575
 21
-23.024
  0
LINE
  8
0
 10
6.45575
 20
-23.024
 11
6.4464
 21
-22.9988
  0
LINE
  8
0
 10
6.4464
 20
-22.9988
 11
6.43971
 21
-22.9709
  0
LINE
  8
0
 10
6.43971
 20
-22.9709
 11
6.4357
 21
-22.9403
  0
LINE
  8
0
 10
6.4357
 20
-22.9403
 11
6.43437
 21
-22.9071
  0
LINE
  8
0
 10
6.43437
 20
-22.9071
 11
6.4348
 21
-22.893
  0
LINE
  8
0
 10
6.4348
 20
-22.893
 11
6.43608
 21
-22.8788
  0
LINE
  8
0
 10
6.43608
 20
-22.8788
 11
6.43823
 21
-22.8646
  0
LINE
  8
0
 10
6.43823
 20
-22.8646
 11
6.44124
 21
-22.8504
  0
LINE
  8
0
 10
6.44124
 20
-22.8504
 11
6.44511
 21
-22.8361
  0
LINE
  8
0
 10
6.44511
 20
-22.8361
 11
6.44984
 21
-22.8218
  0
LINE
  8
0
 10
6.44984
 20
-22.8218
 11
6.45543
 21
-22.8074
  0
LINE
  8
0
 10
6.45543
 20
-22.8074
 11
6.46187
 21
-22.793
  0
LINE
  8
0
 10
6.46187
 20
-22.793
 11
6.46918
 21
-22.7786
  0
LINE
  8
0
 10
6.46918
 20
-22.7786
 11
6.47734
 21
-22.7641
  0
LINE
  8
0
 10
6.47734
 20
-22.7641
 11
6.48637
 21
-22.7495
  0
LINE
  8
0
 10
6.48637
 20
-22.7495
 11
6.49625
 21
-22.735
  0
LINE
  8
0
 10
6.49625
 20
-22.735
 11
6.507
 21
-22.7203
  0
LINE
  8
0
 10
6.507
 20
-22.7203
 11
6.51881
 21
-22.7054
  0
LINE
  8
0
 10
6.51881
 20
-22.7054
 11
6.53189
 21
-22.6898
  0
LINE
  8
0
 10
6.53189
 20
-22.6898
 11
6.54626
 21
-22.6737
  0
LINE
  8
0
 10
6.54626
 20
-22.6737
 11
6.5619
 21
-22.6569
  0
LINE
  8
0
 10
6.5619
 20
-22.6569
 11
6.57884
 21
-22.6395
  0
LINE
  8
0
 10
6.57884
 20
-22.6395
 11
6.59705
 21
-22.6215
  0
LINE
  8
0
 10
6.59705
 20
-22.6215
 11
6.61652
 21
-22.603
  0
LINE
  8
0
 10
6.61652
 20
-22.603
 11
6.63728
 21
-22.5837
  0
LINE
  8
0
 10
6.63728
 20
-22.5837
 11
6.65933
 21
-22.5639
  0
LINE
  8
0
 10
6.65933
 20
-22.5639
 11
6.68265
 21
-22.5435
  0
LINE
  8
0
 10
6.68265
 20
-22.5435
 11
6.70724
 21
-22.5225
  0
LINE
  8
0
 10
6.70724
 20
-22.5225
 11
6.73312
 21
-22.5009
  0
LINE
  8
0
 10
6.73312
 20
-22.5009
 11
6.78882
 21
-22.4553
  0
LINE
  8
0
 10
6.78882
 20
-22.4553
 11
6.81659
 21
-22.432
  0
LINE
  8
0
 10
6.81659
 20
-22.432
 11
6.84361
 21
-22.4089
  0
LINE
  8
0
 10
6.84361
 20
-22.4089
 11
6.86989
 21
-22.3859
  0
LINE
  8
0
 10
6.86989
 20
-22.3859
 11
6.89539
 21
-22.3631
  0
LINE
  8
0
 10
6.89539
 20
-22.3631
 11
6.92014
 21
-22.3404
  0
LINE
  8
0
 10
6.92014
 20
-22.3404
 11
6.94412
 21
-22.3179
  0
LINE
  8
0
 10
6.94412
 20
-22.3179
 11
6.96736
 21
-22.2955
  0
LINE
  8
0
 10
6.96736
 20
-22.2955
 11
6.98984
 21
-22.2733
  0
LINE
  8
0
 10
6.98984
 20
-22.2733
 11
7.01155
 21
-22.2512
  0
LINE
  8
0
 10
7.01155
 20
-22.2512
 11
7.0325
 21
-22.2292
  0
LINE
  8
0
 10
7.0325
 20
-22.2292
 11
7.0527
 21
-22.2074
  0
LINE
  8
0
 10
7.0527
 20
-22.2074
 11
7.07214
 21
-22.1857
  0
LINE
  8
0
 10
7.07214
 20
-22.1857
 11
7.09087
 21
-22.1641
  0
LINE
  8
0
 10
7.09087
 20
-22.1641
 11
7.10892
 21
-22.1423
  0
LINE
  8
0
 10
7.10892
 20
-22.1423
 11
7.1263
 21
-22.1205
  0
LINE
  8
0
 10
7.1263
 20
-22.1205
 11
7.14301
 21
-22.0986
  0
LINE
  8
0
 10
7.14301
 20
-22.0986
 11
7.15904
 21
-22.0767
  0
LINE
  8
0
 10
7.15904
 20
-22.0767
 11
7.17441
 21
-22.0546
  0
LINE
  8
0
 10
7.17441
 20
-22.0546
 11
7.1891
 21
-22.0324
  0
LINE
  8
0
 10
7.1891
 20
-22.0324
 11
7.20312
 21
-22.0102
  0
LINE
  8
0
 10
7.20312
 20
-22.0102
 11
7.21648
 21
-21.9879
  0
LINE
  8
0
 10
7.21648
 20
-21.9879
 11
7.22916
 21
-21.9654
  0
LINE
  8
0
 10
7.22916
 20
-21.9654
 11
7.24117
 21
-21.9429
  0
LINE
  8
0
 10
7.24117
 20
-21.9429
 11
7.2525
 21
-21.9203
  0
LINE
  8
0
 10
7.2525
 20
-21.9203
 11
7.26315
 21
-21.8976
  0
LINE
  8
0
 10
7.26315
 20
-21.8976
 11
7.26315
 21
-21.6596
  0
LINE
  8
0
 10
7.26315
 20
-21.6596
 11
6.05963
 21
-21.6596
  0
LINE
  8
0
 10
6.05963
 20
-21.6596
 11
6.05963
 21
-21.9416
  0
LINE
  8
0
 10
6.05963
 20
-21.9416
 11
6.85793
 21
-21.9416
  0
LINE
  8
0
 10
6.85793
 20
-21.9416
 11
6.85245
 21
-21.9538
  0
LINE
  8
0
 10
6.85245
 20
-21.9538
 11
6.84656
 21
-21.9658
  0
LINE
  8
0
 10
6.84656
 20
-21.9658
 11
6.84023
 21
-21.9777
  0
LINE
  8
0
 10
6.84023
 20
-21.9777
 11
6.83348
 21
-21.9895
  0
LINE
  8
0
 10
6.83348
 20
-21.9895
 11
6.82631
 21
-22.0012
  0
LINE
  8
0
 10
6.82631
 20
-22.0012
 11
6.81871
 21
-22.0128
  0
LINE
  8
0
 10
6.81871
 20
-22.0128
 11
6.81067
 21
-22.0242
  0
LINE
  8
0
 10
6.81067
 20
-22.0242
 11
6.80222
 21
-22.0356
  0
LINE
  8
0
 10
6.80222
 20
-22.0356
 11
6.79333
 21
-22.0468
  0
LINE
  8
0
 10
6.79333
 20
-22.0468
 11
6.78404
 21
-22.0579
  0
LINE
  8
0
 10
6.78404
 20
-22.0579
 11
6.77431
 21
-22.0689
  0
LINE
  8
0
 10
6.77431
 20
-22.0689
 11
6.76414
 21
-22.0798
  0
LINE
  8
0
 10
6.76414
 20
-22.0798
 11
6.75356
 21
-22.0905
  0
LINE
  8
0
 10
6.75356
 20
-22.0905
 11
6.74268
 21
-22.1012
  0
LINE
  8
0
 10
6.74268
 20
-22.1012
 11
6.7316
 21
-22.1119
  0
LINE
  8
0
 10
6.7316
 20
-22.1119
 11
6.72035
 21
-22.1226
  0
LINE
  8
0
 10
6.72035
 20
-22.1226
 11
6.70892
 21
-22.1332
  0
LINE
  8
0
 10
6.70892
 20
-22.1332
 11
6.69731
 21
-22.1438
  0
LINE
  8
0
 10
6.69731
 20
-22.1438
 11
6.68552
 21
-22.1545
  0
LINE
  8
0
 10
6.68552
 20
-22.1545
 11
6.67354
 21
-22.1651
  0
LINE
  8
0
 10
6.67354
 20
-22.1651
 11
6.66139
 21
-22.1757
  0
LINE
  8
0
 10
6.66139
 20
-22.1757
 11
6.64906
 21
-22.1863
  0
LINE
  8
0
 10
6.64906
 20
-22.1863
 11
6.63655
 21
-22.1968
  0
LINE
  8
0
 10
6.63655
 20
-22.1968
 11
6.62386
 21
-22.2074
  0
LINE
  8
0
 10
6.62386
 20
-22.2074
 11
6.61099
 21
-22.2179
  0
LINE
  8
0
 10
6.61099
 20
-22.2179
 11
6.59793
 21
-22.2284
  0
LINE
  8
0
 10
6.59793
 20
-22.2284
 11
6.50432
 21
-22.3031
  0
LINE
  8
0
 10
6.50432
 20
-22.3031
 11
6.42155
 21
-22.3688
  0
LINE
  8
0
 10
6.42155
 20
-22.3688
 11
6.40765
 21
-22.38
  0
LINE
  8
0
 10
6.40765
 20
-22.38
 11
6.39397
 21
-22.3912
  0
LINE
  8
0
 10
6.39397
 20
-22.3912
 11
6.38046
 21
-22.4026
  0
LINE
  8
0
 10
6.38046
 20
-22.4026
 11
6.36714
 21
-22.4141
  0
LINE
  8
0
 10
6.36714
 20
-22.4141
 11
6.35403
 21
-22.4258
  0
LINE
  8
0
 10
6.35403
 20
-22.4258
 11
6.34111
 21
-22.4375
  0
LINE
  8
0
 10
6.34111
 20
-22.4375
 11
6.3284
 21
-22.4494
  0
LINE
  8
0
 10
6.3284
 20
-22.4494
 11
6.31587
 21
-22.4614
  0
LINE
  8
0
 10
6.31587
 20
-22.4614
 11
6.30353
 21
-22.4735
  0
LINE
  8
0
 10
6.30353
 20
-22.4735
 11
6.2914
 21
-22.4857
  0
LINE
  8
0
 10
6.2914
 20
-22.4857
 11
6.27945
 21
-22.4981
  0
LINE
  8
0
 10
6.27945
 20
-22.4981
 11
6.2677
 21
-22.5106
  0
LINE
  8
0
 10
6.2677
 20
-22.5106
 11
6.25615
 21
-22.5232
  0
LINE
  8
0
 10
6.25615
 20
-22.5232
 11
6.24486
 21
-22.536
  0
LINE
  8
0
 10
6.24486
 20
-22.536
 11
6.23387
 21
-22.5489
  0
LINE
  8
0
 10
6.23387
 20
-22.5489
 11
6.22321
 21
-22.562
  0
LINE
  8
0
 10
6.22321
 20
-22.562
 11
6.21286
 21
-22.5754
  0
LINE
  8
0
 10
6.21286
 20
-22.5754
 11
6.20284
 21
-22.5889
  0
LINE
  8
0
 10
6.20284
 20
-22.5889
 11
6.19313
 21
-22.6025
  0
LINE
  8
0
 10
6.19313
 20
-22.6025
 11
6.18375
 21
-22.6164
  0
LINE
  8
0
 10
6.18375
 20
-22.6164
 11
6.17467
 21
-22.6304
  0
LINE
  8
0
 10
6.17467
 20
-22.6304
 11
6.16592
 21
-22.6446
  0
LINE
  8
0
 10
6.16592
 20
-22.6446
 11
6.15749
 21
-22.659
  0
LINE
  8
0
 10
6.15749
 20
-22.659
 11
6.14937
 21
-22.6736
  0
LINE
  8
0
 10
6.14937
 20
-22.6736
 11
6.14157
 21
-22.6883
  0
LINE
  8
0
 10
6.14157
 20
-22.6883
 11
6.13409
 21
-22.7033
  0
LINE
  8
0
 10
6.13409
 20
-22.7033
 11
6.12704
 21
-22.7184
  0
LINE
  8
0
 10
6.12704
 20
-22.7184
 11
6.12057
 21
-22.7339
  0
LINE
  8
0
 10
6.12057
 20
-22.7339
 11
6.11465
 21
-22.7496
  0
LINE
  8
0
 10
6.11465
 20
-22.7496
 11
6.1093
 21
-22.7655
  0
LINE
  8
0
 10
6.1093
 20
-22.7655
 11
6.10451
 21
-22.7818
  0
LINE
  8
0
 10
6.10451
 20
-22.7818
 11
6.10028
 21
-22.7983
  0
LINE
  8
0
 10
6.10028
 20
-22.7983
 11
6.09662
 21
-22.8151
  0
LINE
  8
0
 10
6.09662
 20
-22.8151
 11
6.09352
 21
-22.8322
  0
LINE
  8
0
 10
6.09352
 20
-22.8322
 11
6.09099
 21
-22.8496
  0
LINE
  8
0
 10
6.09099
 20
-22.8496
 11
6.08902
 21
-22.8672
  0
LINE
  8
0
 10
6.08902
 20
-22.8672
 11
6.0876
 21
-22.8851
  0
LINE
  8
0
 10
6.0876
 20
-22.8851
 11
6.08676
 21
-22.9033
  0
LINE
  8
0
 10
6.08676
 20
-22.9033
 11
6.08649
 21
-22.9217
  0
LINE
  8
0
 10
6.08649
 20
-22.9217
 11
6.08736
 21
-22.9564
  0
LINE
  8
0
 10
6.08736
 20
-22.9564
 11
6.09001
 21
-22.9899
  0
LINE
  8
0
 10
6.09001
 20
-22.9899
 11
6.09441
 21
-23.0222
  0
LINE
  8
0
 10
6.09441
 20
-23.0222
 11
6.10059
 21
-23.0533
  0
LINE
  8
0
 10
6.10059
 20
-23.0533
 11
6.10851
 21
-23.0831
  0
LINE
  8
0
 10
6.10851
 20
-23.0831
 11
6.11819
 21
-23.1117
  0
LINE
  8
0
 10
6.11819
 20
-23.1117
 11
6.12965
 21
-23.1391
  0
LINE
  8
0
 10
6.12965
 20
-23.1391
 11
6.14287
 21
-23.1653
  0
LINE
  8
0
 10
6.14287
 20
-23.1653
 11
6.15785
 21
-23.1903
  0
LINE
  8
0
 10
6.15785
 20
-23.1903
 11
6.17459
 21
-23.2141
  0
LINE
  8
0
 10
6.17459
 20
-23.2141
 11
6.1931
 21
-23.2367
  0
LINE
  8
0
 10
6.1931
 20
-23.2367
 11
6.21336
 21
-23.258
  0
LINE
  8
0
 10
6.21336
 20
-23.258
 11
6.2354
 21
-23.2782
  0
LINE
  8
0
 10
6.2354
 20
-23.2782
 11
6.25906
 21
-23.2969
  0
LINE
  8
0
 10
6.25906
 20
-23.2969
 11
6.28427
 21
-23.3142
  0
LINE
  8
0
 10
6.28427
 20
-23.3142
 11
6.31102
 21
-23.33
  0
LINE
  8
0
 10
6.31102
 20
-23.33
 11
6.33928
 21
-23.3443
  0
LINE
  8
0
 10
6.33928
 20
-23.3443
 11
6.36908
 21
-23.357
  0
LINE
  8
0
 10
6.36908
 20
-23.357
 11
6.40042
 21
-23.3683
  0
LINE
  8
0
 10
6.40042
 20
-23.3683
 11
6.43329
 21
-23.3781
  0
LINE
  8
0
 10
6.43329
 20
-23.3781
 11
6.46768
 21
-23.3863
  0
LINE
  8
0
 10
6.46768
 20
-23.3863
 11
6.5036
 21
-23.3931
  0
LINE
  8
0
 10
6.5036
 20
-23.3931
 11
6.54106
 21
-23.3983
  0
LINE
  8
0
 10
6.54106
 20
-23.3983
 11
6.58005
 21
-23.4021
  0
LINE
  8
0
 10
6.58005
 20
-23.4021
 11
6.62057
 21
-23.4044
  0
LINE
  8
0
 10
6.62057
 20
-23.4044
 11
6.66263
 21
-23.4051
  0
LINE
  8
0
 10
6.66263
 20
-23.4051
 11
6.70161
 21
-23.4044
  0
ENDSEC
  0
SECTION
  2
OBJECTS
  0
DICTIONARY
  0
ENDSEC
  0
EOF
