  0
SECTION
  2
BLOCKS
  0
ENDSEC
  0
SECTION
  2
ENTITIES
  0
LINE
  8
0
 10
-77.5
 20
-85.5
 11
-87
 21
-85.5
  0
LINE
  8
0
 10
-87
 20
-85.5
 11
-87
 21
-97
  0
LINE
  8
0
 10
-87
 20
-97
 11
-77.5
 21
-97
  0
LINE
  8
0
 10
-77.5
 20
-97
 11
-77.5
 21
-85.5
  0
LINE
  8
0
 10
-50
 20
-85.5
 11
-59.5
 21
-85.5
  0
LINE
  8
0
 10
-59.5
 20
-85.5
 11
-59.5
 21
-97
  0
LINE
  8
0
 10
-59.5
 20
-97
 11
-50
 21
-97
  0
LINE
  8
0
 10
-50
 20
-97
 11
-50
 21
-85.5
  0
ENDSEC
  0
SECTION
  2
OBJECTS
  0
DICTIONARY
  0
ENDSEC
  0
EOF
