  0
SECTION
  2
BLOCKS
  0
ENDSEC
  0
SECTION
  2
ENTITIES
  0
LINE
  8
0
 10
29.1251
 20
-118.309
 11
28.8866
 21
-118.113
  0
LINE
  8
0
 10
28.8866
 20
-118.113
 11
28.6908
 21
-117.875
  0
LINE
  8
0
 10
28.6908
 20
-117.875
 11
28.5452
 21
-117.603
  0
LINE
  8
0
 10
28.5452
 20
-117.603
 11
28.4556
 21
-117.307
  0
LINE
  8
0
 10
28.4556
 20
-117.307
 11
28.4254
 21
-117
  0
LINE
  8
0
 10
28.4254
 20
-117
 11
28.4556
 21
-116.693
  0
LINE
  8
0
 10
28.4556
 20
-116.693
 11
28.5452
 21
-116.397
  0
LINE
  8
0
 10
28.5452
 20
-116.397
 11
28.6908
 21
-116.125
  0
LINE
  8
0
 10
28.6908
 20
-116.125
 11
28.8866
 21
-115.887
  0
LINE
  8
0
 10
28.8866
 20
-115.887
 11
29.1251
 21
-115.691
  0
LINE
  8
0
 10
29.1251
 20
-115.691
 11
29.3974
 21
-115.545
  0
LINE
  8
0
 10
29.3974
 20
-115.545
 11
29.6928
 21
-115.456
  0
LINE
  8
0
 10
29.6928
 20
-115.456
 11
30
 21
-115.425
  0
LINE
  8
0
 10
30
 20
-115.425
 11
30.3072
 21
-115.456
  0
LINE
  8
0
 10
30.3072
 20
-115.456
 11
30.6026
 21
-115.545
  0
LINE
  8
0
 10
30.6026
 20
-115.545
 11
30.8749
 21
-115.691
  0
LINE
  8
0
 10
30.8749
 20
-115.691
 11
31.1134
 21
-115.887
  0
LINE
  8
0
 10
31.1134
 20
-115.887
 11
31.3092
 21
-116.125
  0
LINE
  8
0
 10
31.3092
 20
-116.125
 11
31.4548
 21
-116.397
  0
LINE
  8
0
 10
31.4548
 20
-116.397
 11
31.5444
 21
-116.693
  0
LINE
  8
0
 10
31.5444
 20
-116.693
 11
31.5746
 21
-117
  0
LINE
  8
0
 10
31.5746
 20
-117
 11
31.5444
 21
-117.307
  0
LINE
  8
0
 10
31.5444
 20
-117.307
 11
31.4548
 21
-117.603
  0
LINE
  8
0
 10
31.4548
 20
-117.603
 11
31.3092
 21
-117.875
  0
LINE
  8
0
 10
31.3092
 20
-117.875
 11
31.1134
 21
-118.113
  0
LINE
  8
0
 10
31.1134
 20
-118.113
 11
30.8749
 21
-118.309
  0
LINE
  8
0
 10
30.8749
 20
-118.309
 11
30.3776
 21
-118.575
  0
LINE
  8
0
 10
30.3776
 20
-118.575
 11
99.6223
 21
-118.575
  0
LINE
  8
0
 10
99.6223
 20
-118.575
 11
99.1251
 21
-118.309
  0
LINE
  8
0
 10
99.1251
 20
-118.309
 11
98.8866
 21
-118.113
  0
LINE
  8
0
 10
98.8866
 20
-118.113
 11
98.6908
 21
-117.875
  0
LINE
  8
0
 10
98.6908
 20
-117.875
 11
98.5452
 21
-117.603
  0
LINE
  8
0
 10
98.5452
 20
-117.603
 11
98.4556
 21
-117.307
  0
LINE
  8
0
 10
98.4556
 20
-117.307
 11
98.4254
 21
-117
  0
LINE
  8
0
 10
98.4254
 20
-117
 11
98.4556
 21
-116.693
  0
LINE
  8
0
 10
98.4556
 20
-116.693
 11
98.5452
 21
-116.397
  0
LINE
  8
0
 10
98.5452
 20
-116.397
 11
98.6908
 21
-116.125
  0
LINE
  8
0
 10
98.6908
 20
-116.125
 11
98.8866
 21
-115.887
  0
LINE
  8
0
 10
98.8866
 20
-115.887
 11
99.1251
 21
-115.691
  0
LINE
  8
0
 10
99.1251
 20
-115.691
 11
99.3974
 21
-115.545
  0
LINE
  8
0
 10
99.3974
 20
-115.545
 11
99.6928
 21
-115.456
  0
LINE
  8
0
 10
99.6928
 20
-115.456
 11
100
 21
-115.425
  0
LINE
  8
0
 10
100
 20
-115.425
 11
100.307
 21
-115.456
  0
LINE
  8
0
 10
100.307
 20
-115.456
 11
100.603
 21
-115.545
  0
LINE
  8
0
 10
100.603
 20
-115.545
 11
100.875
 21
-115.691
  0
LINE
  8
0
 10
100.875
 20
-115.691
 11
101.113
 21
-115.887
  0
LINE
  8
0
 10
101.113
 20
-115.887
 11
101.309
 21
-116.125
  0
LINE
  8
0
 10
101.309
 20
-116.125
 11
101.455
 21
-116.397
  0
LINE
  8
0
 10
101.455
 20
-116.397
 11
101.544
 21
-116.693
  0
LINE
  8
0
 10
101.544
 20
-116.693
 11
101.575
 21
-117
  0
LINE
  8
0
 10
101.575
 20
-117
 11
101.544
 21
-117.307
  0
LINE
  8
0
 10
101.544
 20
-117.307
 11
101.455
 21
-117.603
  0
LINE
  8
0
 10
101.455
 20
-117.603
 11
101.309
 21
-117.875
  0
LINE
  8
0
 10
101.309
 20
-117.875
 11
101.113
 21
-118.113
  0
LINE
  8
0
 10
101.113
 20
-118.113
 11
100.875
 21
-118.309
  0
LINE
  8
0
 10
100.875
 20
-118.309
 11
100.378
 21
-118.575
  0
LINE
  8
0
 10
100.378
 20
-118.575
 11
159.622
 21
-118.575
  0
LINE
  8
0
 10
159.622
 20
-118.575
 11
159.125
 21
-118.309
  0
LINE
  8
0
 10
159.125
 20
-118.309
 11
158.887
 21
-118.113
  0
LINE
  8
0
 10
158.887
 20
-118.113
 11
158.691
 21
-117.875
  0
LINE
  8
0
 10
158.691
 20
-117.875
 11
158.545
 21
-117.603
  0
LINE
  8
0
 10
158.545
 20
-117.603
 11
158.456
 21
-117.307
  0
LINE
  8
0
 10
158.456
 20
-117.307
 11
158.425
 21
-117
  0
LINE
  8
0
 10
158.425
 20
-117
 11
158.456
 21
-116.693
  0
LINE
  8
0
 10
158.456
 20
-116.693
 11
158.545
 21
-116.397
  0
LINE
  8
0
 10
158.545
 20
-116.397
 11
158.691
 21
-116.125
  0
LINE
  8
0
 10
158.691
 20
-116.125
 11
158.887
 21
-115.887
  0
LINE
  8
0
 10
158.887
 20
-115.887
 11
159.125
 21
-115.691
  0
LINE
  8
0
 10
159.125
 20
-115.691
 11
159.397
 21
-115.545
  0
LINE
  8
0
 10
159.397
 20
-115.545
 11
159.693
 21
-115.456
  0
LINE
  8
0
 10
159.693
 20
-115.456
 11
160
 21
-115.425
  0
LINE
  8
0
 10
160
 20
-115.425
 11
160.307
 21
-115.456
  0
LINE
  8
0
 10
160.307
 20
-115.456
 11
160.603
 21
-115.545
  0
LINE
  8
0
 10
160.603
 20
-115.545
 11
160.875
 21
-115.691
  0
LINE
  8
0
 10
160.875
 20
-115.691
 11
161.113
 21
-115.887
  0
LINE
  8
0
 10
161.113
 20
-115.887
 11
161.309
 21
-116.125
  0
LINE
  8
0
 10
161.309
 20
-116.125
 11
161.455
 21
-116.397
  0
LINE
  8
0
 10
161.455
 20
-116.397
 11
161.544
 21
-116.693
  0
LINE
  8
0
 10
161.544
 20
-116.693
 11
161.575
 21
-117
  0
LINE
  8
0
 10
161.575
 20
-117
 11
161.544
 21
-117.307
  0
LINE
  8
0
 10
161.544
 20
-117.307
 11
161.455
 21
-117.603
  0
LINE
  8
0
 10
161.455
 20
-117.603
 11
161.309
 21
-117.875
  0
LINE
  8
0
 10
161.309
 20
-117.875
 11
161.113
 21
-118.113
  0
LINE
  8
0
 10
161.113
 20
-118.113
 11
160.875
 21
-118.309
  0
LINE
  8
0
 10
160.875
 20
-118.309
 11
160.378
 21
-118.575
  0
LINE
  8
0
 10
160.378
 20
-118.575
 11
183.575
 21
-118.575
  0
LINE
  8
0
 10
183.575
 20
-118.575
 11
183.575
 21
-65.3776
  0
LINE
  8
0
 10
183.575
 20
-65.3776
 11
183.309
 21
-65.8749
  0
LINE
  8
0
 10
183.309
 20
-65.8749
 11
183.113
 21
-66.1134
  0
LINE
  8
0
 10
183.113
 20
-66.1134
 11
182.875
 21
-66.3092
  0
LINE
  8
0
 10
182.875
 20
-66.3092
 11
182.603
 21
-66.4548
  0
LINE
  8
0
 10
182.603
 20
-66.4548
 11
182.307
 21
-66.5444
  0
LINE
  8
0
 10
182.307
 20
-66.5444
 11
182
 21
-66.5746
  0
LINE
  8
0
 10
182
 20
-66.5746
 11
181.693
 21
-66.5444
  0
LINE
  8
0
 10
181.693
 20
-66.5444
 11
181.397
 21
-66.4548
  0
LINE
  8
0
 10
181.397
 20
-66.4548
 11
181.125
 21
-66.3092
  0
LINE
  8
0
 10
181.125
 20
-66.3092
 11
180.887
 21
-66.1134
  0
LINE
  8
0
 10
180.887
 20
-66.1134
 11
180.691
 21
-65.8749
  0
LINE
  8
0
 10
180.691
 20
-65.8749
 11
180.545
 21
-65.6026
  0
LINE
  8
0
 10
180.545
 20
-65.6026
 11
180.456
 21
-65.3072
  0
LINE
  8
0
 10
180.456
 20
-65.3072
 11
180.425
 21
-65
  0
LINE
  8
0
 10
180.425
 20
-65
 11
180.456
 21
-64.6928
  0
LINE
  8
0
 10
180.456
 20
-64.6928
 11
180.545
 21
-64.3974
  0
LINE
  8
0
 10
180.545
 20
-64.3974
 11
180.691
 21
-64.1251
  0
LINE
  8
0
 10
180.691
 20
-64.1251
 11
180.887
 21
-63.8866
  0
LINE
  8
0
 10
180.887
 20
-63.8866
 11
181.125
 21
-63.6908
  0
LINE
  8
0
 10
181.125
 20
-63.6908
 11
181.397
 21
-63.5452
  0
LINE
  8
0
 10
181.397
 20
-63.5452
 11
181.693
 21
-63.4556
  0
LINE
  8
0
 10
181.693
 20
-63.4556
 11
182
 21
-63.4254
  0
LINE
  8
0
 10
182
 20
-63.4254
 11
182.307
 21
-63.4556
  0
LINE
  8
0
 10
182.307
 20
-63.4556
 11
182.603
 21
-63.5452
  0
LINE
  8
0
 10
182.603
 20
-63.5452
 11
182.875
 21
-63.6908
  0
LINE
  8
0
 10
182.875
 20
-63.6908
 11
183.113
 21
-63.8866
  0
LINE
  8
0
 10
183.113
 20
-63.8866
 11
183.309
 21
-64.1251
  0
LINE
  8
0
 10
183.309
 20
-64.1251
 11
183.575
 21
-64.6223
  0
LINE
  8
0
 10
183.575
 20
-64.6223
 11
183.575
 21
-11.425
  0
LINE
  8
0
 10
183.575
 20
-11.425
 11
160.378
 21
-11.425
  0
LINE
  8
0
 10
160.378
 20
-11.425
 11
160.875
 21
-11.6908
  0
LINE
  8
0
 10
160.875
 20
-11.6908
 11
161.113
 21
-11.8866
  0
LINE
  8
0
 10
161.113
 20
-11.8866
 11
161.309
 21
-12.1251
  0
LINE
  8
0
 10
161.309
 20
-12.1251
 11
161.455
 21
-12.3974
  0
LINE
  8
0
 10
161.455
 20
-12.3974
 11
161.544
 21
-12.6928
  0
LINE
  8
0
 10
161.544
 20
-12.6928
 11
161.575
 21
-13
  0
LINE
  8
0
 10
161.575
 20
-13
 11
161.544
 21
-13.3072
  0
LINE
  8
0
 10
161.544
 20
-13.3072
 11
161.455
 21
-13.6026
  0
LINE
  8
0
 10
161.455
 20
-13.6026
 11
161.309
 21
-13.8749
  0
LINE
  8
0
 10
161.309
 20
-13.8749
 11
161.113
 21
-14.1134
  0
LINE
  8
0
 10
161.113
 20
-14.1134
 11
160.875
 21
-14.3092
  0
LINE
  8
0
 10
160.875
 20
-14.3092
 11
160.603
 21
-14.4548
  0
LINE
  8
0
 10
160.603
 20
-14.4548
 11
160.307
 21
-14.5444
  0
LINE
  8
0
 10
160.307
 20
-14.5444
 11
160
 21
-14.5746
  0
LINE
  8
0
 10
160
 20
-14.5746
 11
159.693
 21
-14.5444
  0
LINE
  8
0
 10
159.693
 20
-14.5444
 11
159.397
 21
-14.4548
  0
LINE
  8
0
 10
159.397
 20
-14.4548
 11
159.125
 21
-14.3092
  0
LINE
  8
0
 10
159.125
 20
-14.3092
 11
158.887
 21
-14.1134
  0
LINE
  8
0
 10
158.887
 20
-14.1134
 11
158.691
 21
-13.8749
  0
LINE
  8
0
 10
158.691
 20
-13.8749
 11
158.545
 21
-13.6026
  0
LINE
  8
0
 10
158.545
 20
-13.6026
 11
158.456
 21
-13.3072
  0
LINE
  8
0
 10
158.456
 20
-13.3072
 11
158.425
 21
-13
  0
LINE
  8
0
 10
158.425
 20
-13
 11
158.456
 21
-12.6928
  0
LINE
  8
0
 10
158.456
 20
-12.6928
 11
158.545
 21
-12.3974
  0
LINE
  8
0
 10
158.545
 20
-12.3974
 11
158.691
 21
-12.1251
  0
LINE
  8
0
 10
158.691
 20
-12.1251
 11
158.887
 21
-11.8866
  0
LINE
  8
0
 10
158.887
 20
-11.8866
 11
159.125
 21
-11.6908
  0
LINE
  8
0
 10
159.125
 20
-11.6908
 11
159.622
 21
-11.425
  0
LINE
  8
0
 10
159.622
 20
-11.425
 11
70.3777
 21
-11.425
  0
LINE
  8
0
 10
70.3777
 20
-11.425
 11
70.8749
 21
-11.6908
  0
LINE
  8
0
 10
70.8749
 20
-11.6908
 11
71.1134
 21
-11.8866
  0
LINE
  8
0
 10
71.1134
 20
-11.8866
 11
71.3092
 21
-12.1251
  0
LINE
  8
0
 10
71.3092
 20
-12.1251
 11
71.4548
 21
-12.3974
  0
LINE
  8
0
 10
71.4548
 20
-12.3974
 11
71.5444
 21
-12.6928
  0
LINE
  8
0
 10
71.5444
 20
-12.6928
 11
71.5746
 21
-13
  0
LINE
  8
0
 10
71.5746
 20
-13
 11
71.5444
 21
-13.3072
  0
LINE
  8
0
 10
71.5444
 20
-13.3072
 11
71.4548
 21
-13.6026
  0
LINE
  8
0
 10
71.4548
 20
-13.6026
 11
71.3092
 21
-13.8749
  0
LINE
  8
0
 10
71.3092
 20
-13.8749
 11
71.1134
 21
-14.1134
  0
LINE
  8
0
 10
71.1134
 20
-14.1134
 11
70.8749
 21
-14.3092
  0
LINE
  8
0
 10
70.8749
 20
-14.3092
 11
70.6026
 21
-14.4548
  0
LINE
  8
0
 10
70.6026
 20
-14.4548
 11
70.3072
 21
-14.5444
  0
LINE
  8
0
 10
70.3072
 20
-14.5444
 11
70
 21
-14.5746
  0
LINE
  8
0
 10
70
 20
-14.5746
 11
69.6928
 21
-14.5444
  0
LINE
  8
0
 10
69.6928
 20
-14.5444
 11
69.3974
 21
-14.4548
  0
LINE
  8
0
 10
69.3974
 20
-14.4548
 11
69.1251
 21
-14.3092
  0
LINE
  8
0
 10
69.1251
 20
-14.3092
 11
68.8866
 21
-14.1134
  0
LINE
  8
0
 10
68.8866
 20
-14.1134
 11
68.6908
 21
-13.8749
  0
LINE
  8
0
 10
68.6908
 20
-13.8749
 11
68.5452
 21
-13.6026
  0
LINE
  8
0
 10
68.5452
 20
-13.6026
 11
68.4556
 21
-13.3072
  0
LINE
  8
0
 10
68.4556
 20
-13.3072
 11
68.4254
 21
-13
  0
LINE
  8
0
 10
68.4254
 20
-13
 11
68.4556
 21
-12.6928
  0
LINE
  8
0
 10
68.4556
 20
-12.6928
 11
68.5452
 21
-12.3974
  0
LINE
  8
0
 10
68.5452
 20
-12.3974
 11
68.6908
 21
-12.1251
  0
LINE
  8
0
 10
68.6908
 20
-12.1251
 11
68.8866
 21
-11.8866
  0
LINE
  8
0
 10
68.8866
 20
-11.8866
 11
69.1251
 21
-11.6908
  0
LINE
  8
0
 10
69.1251
 20
-11.6908
 11
69.6223
 21
-11.425
  0
LINE
  8
0
 10
69.6223
 20
-11.425
 11
30.3777
 21
-11.425
  0
LINE
  8
0
 10
30.3777
 20
-11.425
 11
30.8749
 21
-11.6908
  0
LINE
  8
0
 10
30.8749
 20
-11.6908
 11
31.1134
 21
-11.8866
  0
LINE
  8
0
 10
31.1134
 20
-11.8866
 11
31.3092
 21
-12.1251
  0
LINE
  8
0
 10
31.3092
 20
-12.1251
 11
31.4548
 21
-12.3974
  0
LINE
  8
0
 10
31.4548
 20
-12.3974
 11
31.5444
 21
-12.6928
  0
LINE
  8
0
 10
31.5444
 20
-12.6928
 11
31.5746
 21
-13
  0
LINE
  8
0
 10
31.5746
 20
-13
 11
31.5444
 21
-13.3072
  0
LINE
  8
0
 10
31.5444
 20
-13.3072
 11
31.4548
 21
-13.6026
  0
LINE
  8
0
 10
31.4548
 20
-13.6026
 11
31.3092
 21
-13.8749
  0
LINE
  8
0
 10
31.3092
 20
-13.8749
 11
31.1134
 21
-14.1134
  0
LINE
  8
0
 10
31.1134
 20
-14.1134
 11
30.8749
 21
-14.3092
  0
LINE
  8
0
 10
30.8749
 20
-14.3092
 11
30.6026
 21
-14.4548
  0
LINE
  8
0
 10
30.6026
 20
-14.4548
 11
30.3072
 21
-14.5444
  0
LINE
  8
0
 10
30.3072
 20
-14.5444
 11
30
 21
-14.5746
  0
LINE
  8
0
 10
30
 20
-14.5746
 11
29.6928
 21
-14.5444
  0
LINE
  8
0
 10
29.6928
 20
-14.5444
 11
29.3974
 21
-14.4548
  0
LINE
  8
0
 10
29.3974
 20
-14.4548
 11
29.1251
 21
-14.3092
  0
LINE
  8
0
 10
29.1251
 20
-14.3092
 11
28.8866
 21
-14.1134
  0
LINE
  8
0
 10
28.8866
 20
-14.1134
 11
28.6908
 21
-13.8749
  0
LINE
  8
0
 10
28.6908
 20
-13.8749
 11
28.5452
 21
-13.6026
  0
LINE
  8
0
 10
28.5452
 20
-13.6026
 11
28.4556
 21
-13.3072
  0
LINE
  8
0
 10
28.4556
 20
-13.3072
 11
28.4254
 21
-13
  0
LINE
  8
0
 10
28.4254
 20
-13
 11
28.4556
 21
-12.6928
  0
LINE
  8
0
 10
28.4556
 20
-12.6928
 11
28.5452
 21
-12.3974
  0
LINE
  8
0
 10
28.5452
 20
-12.3974
 11
28.6908
 21
-12.1251
  0
LINE
  8
0
 10
28.6908
 20
-12.1251
 11
28.8866
 21
-11.8866
  0
LINE
  8
0
 10
28.8866
 20
-11.8866
 11
29.1251
 21
-11.6908
  0
LINE
  8
0
 10
29.1251
 20
-11.6908
 11
29.6223
 21
-11.425
  0
LINE
  8
0
 10
29.6223
 20
-11.425
 11
-3.575
 21
-11.425
  0
LINE
  8
0
 10
-3.575
 20
-11.425
 11
-3.575
 21
-64.6223
  0
LINE
  8
0
 10
-3.575
 20
-64.6223
 11
-3.30923
 21
-64.1251
  0
LINE
  8
0
 10
-3.30923
 20
-64.1251
 11
-3.11343
 21
-63.8866
  0
LINE
  8
0
 10
-3.11343
 20
-63.8866
 11
-2.87486
 21
-63.6908
  0
LINE
  8
0
 10
-2.87486
 20
-63.6908
 11
-2.6026
 21
-63.5452
  0
LINE
  8
0
 10
-2.6026
 20
-63.5452
 11
-2.30717
 21
-63.4556
  0
LINE
  8
0
 10
-2.30717
 20
-63.4556
 11
-2
 21
-63.4254
  0
LINE
  8
0
 10
-2
 20
-63.4254
 11
-1.69281
 21
-63.4556
  0
LINE
  8
0
 10
-1.69281
 20
-63.4556
 11
-1.39738
 21
-63.5452
  0
LINE
  8
0
 10
-1.39738
 20
-63.5452
 11
-1.12512
 21
-63.6908
  0
LINE
  8
0
 10
-1.12512
 20
-63.6908
 11
-0.886551
 21
-63.8866
  0
LINE
  8
0
 10
-0.886551
 20
-63.8866
 11
-0.69075
 21
-64.1251
  0
LINE
  8
0
 10
-0.69075
 20
-64.1251
 11
-0.545227
 21
-64.3974
  0
LINE
  8
0
 10
-0.545227
 20
-64.3974
 11
-0.455627
 21
-64.6928
  0
LINE
  8
0
 10
-0.455627
 20
-64.6928
 11
-0.425354
 21
-65
  0
LINE
  8
0
 10
-0.425354
 20
-65
 11
-0.455627
 21
-65.3072
  0
LINE
  8
0
 10
-0.455627
 20
-65.3072
 11
-0.545227
 21
-65.6026
  0
LINE
  8
0
 10
-0.545227
 20
-65.6026
 11
-0.69075
 21
-65.8749
  0
LINE
  8
0
 10
-0.69075
 20
-65.8749
 11
-0.886551
 21
-66.1134
  0
LINE
  8
0
 10
-0.886551
 20
-66.1134
 11
-1.12512
 21
-66.3092
  0
LINE
  8
0
 10
-1.12512
 20
-66.3092
 11
-1.39738
 21
-66.4548
  0
LINE
  8
0
 10
-1.39738
 20
-66.4548
 11
-1.69281
 21
-66.5444
  0
LINE
  8
0
 10
-1.69281
 20
-66.5444
 11
-2
 21
-66.5746
  0
LINE
  8
0
 10
-2
 20
-66.5746
 11
-2.30717
 21
-66.5444
  0
LINE
  8
0
 10
-2.30717
 20
-66.5444
 11
-2.6026
 21
-66.4548
  0
LINE
  8
0
 10
-2.6026
 20
-66.4548
 11
-2.87486
 21
-66.3092
  0
LINE
  8
0
 10
-2.87486
 20
-66.3092
 11
-3.11343
 21
-66.1134
  0
LINE
  8
0
 10
-3.11343
 20
-66.1134
 11
-3.30923
 21
-65.8749
  0
LINE
  8
0
 10
-3.30923
 20
-65.8749
 11
-3.575
 21
-65.3776
  0
LINE
  8
0
 10
-3.575
 20
-65.3776
 11
-3.575
 21
-118.575
  0
LINE
  8
0
 10
-3.575
 20
-118.575
 11
29.6223
 21
-118.575
  0
LINE
  8
0
 10
29.6223
 20
-118.575
 11
29.1251
 21
-118.309
  0
LINE
  8
0
 10
94.627
 20
-22.078
 11
94.1721
 21
-21.94
  0
LINE
  8
0
 10
94.1721
 20
-21.94
 11
93.7529
 21
-21.716
  0
LINE
  8
0
 10
93.7529
 20
-21.716
 11
93.3855
 21
-21.4145
  0
LINE
  8
0
 10
93.3855
 20
-21.4145
 11
93.084
 21
-21.0471
  0
LINE
  8
0
 10
93.084
 20
-21.0471
 11
92.8599
 21
-20.6279
  0
LINE
  8
0
 10
92.8599
 20
-20.6279
 11
92.722
 21
-20.173
  0
LINE
  8
0
 10
92.722
 20
-20.173
 11
92.6754
 21
-19.7
  0
LINE
  8
0
 10
92.6754
 20
-19.7
 11
92.722
 21
-19.227
  0
LINE
  8
0
 10
92.722
 20
-19.227
 11
92.8599
 21
-18.7721
  0
LINE
  8
0
 10
92.8599
 20
-18.7721
 11
93.084
 21
-18.3529
  0
LINE
  8
0
 10
93.084
 20
-18.3529
 11
93.3855
 21
-17.9855
  0
LINE
  8
0
 10
93.3855
 20
-17.9855
 11
93.7529
 21
-17.684
  0
LINE
  8
0
 10
93.7529
 20
-17.684
 11
94.1721
 21
-17.4599
  0
LINE
  8
0
 10
94.1721
 20
-17.4599
 11
94.627
 21
-17.322
  0
LINE
  8
0
 10
94.627
 20
-17.322
 11
95.1
 21
-17.2754
  0
LINE
  8
0
 10
95.1
 20
-17.2754
 11
95.573
 21
-17.322
  0
LINE
  8
0
 10
95.573
 20
-17.322
 11
96.0279
 21
-17.4599
  0
LINE
  8
0
 10
96.0279
 20
-17.4599
 11
96.447
 21
-17.684
  0
LINE
  8
0
 10
96.447
 20
-17.684
 11
96.8145
 21
-17.9855
  0
LINE
  8
0
 10
96.8145
 20
-17.9855
 11
97.116
 21
-18.3529
  0
LINE
  8
0
 10
97.116
 20
-18.3529
 11
97.3401
 21
-18.7721
  0
LINE
  8
0
 10
97.3401
 20
-18.7721
 11
97.478
 21
-19.227
  0
LINE
  8
0
 10
97.478
 20
-19.227
 11
97.5246
 21
-19.7
  0
LINE
  8
0
 10
97.5246
 20
-19.7
 11
97.478
 21
-20.173
  0
LINE
  8
0
 10
97.478
 20
-20.173
 11
97.3401
 21
-20.6279
  0
LINE
  8
0
 10
97.3401
 20
-20.6279
 11
97.116
 21
-21.0471
  0
LINE
  8
0
 10
97.116
 20
-21.0471
 11
96.8145
 21
-21.4145
  0
LINE
  8
0
 10
96.8145
 20
-21.4145
 11
96.4471
 21
-21.716
  0
LINE
  8
0
 10
96.4471
 20
-21.716
 11
96.0279
 21
-21.94
  0
LINE
  8
0
 10
96.0279
 20
-21.94
 11
95.573
 21
-22.078
  0
LINE
  8
0
 10
95.573
 20
-22.078
 11
95.1
 21
-22.1246
  0
LINE
  8
0
 10
95.1
 20
-22.1246
 11
94.627
 21
-22.078
  0
LINE
  8
0
 10
99.627
 20
-22.078
 11
99.1721
 21
-21.94
  0
LINE
  8
0
 10
99.1721
 20
-21.94
 11
98.7529
 21
-21.716
  0
LINE
  8
0
 10
98.7529
 20
-21.716
 11
98.3855
 21
-21.4145
  0
LINE
  8
0
 10
98.3855
 20
-21.4145
 11
98.084
 21
-21.0471
  0
LINE
  8
0
 10
98.084
 20
-21.0471
 11
97.8599
 21
-20.6279
  0
LINE
  8
0
 10
97.8599
 20
-20.6279
 11
97.722
 21
-20.173
  0
LINE
  8
0
 10
97.722
 20
-20.173
 11
97.6754
 21
-19.7
  0
LINE
  8
0
 10
97.6754
 20
-19.7
 11
97.722
 21
-19.227
  0
LINE
  8
0
 10
97.722
 20
-19.227
 11
97.8599
 21
-18.7721
  0
LINE
  8
0
 10
97.8599
 20
-18.7721
 11
98.084
 21
-18.3529
  0
LINE
  8
0
 10
98.084
 20
-18.3529
 11
98.3855
 21
-17.9855
  0
LINE
  8
0
 10
98.3855
 20
-17.9855
 11
98.7529
 21
-17.684
  0
LINE
  8
0
 10
98.7529
 20
-17.684
 11
99.1721
 21
-17.4599
  0
LINE
  8
0
 10
99.1721
 20
-17.4599
 11
99.627
 21
-17.322
  0
LINE
  8
0
 10
99.627
 20
-17.322
 11
100.1
 21
-17.2754
  0
LINE
  8
0
 10
100.1
 20
-17.2754
 11
100.573
 21
-17.322
  0
LINE
  8
0
 10
100.573
 20
-17.322
 11
101.028
 21
-17.4599
  0
LINE
  8
0
 10
101.028
 20
-17.4599
 11
101.447
 21
-17.684
  0
LINE
  8
0
 10
101.447
 20
-17.684
 11
101.814
 21
-17.9855
  0
LINE
  8
0
 10
101.814
 20
-17.9855
 11
102.116
 21
-18.3529
  0
LINE
  8
0
 10
102.116
 20
-18.3529
 11
102.34
 21
-18.7721
  0
LINE
  8
0
 10
102.34
 20
-18.7721
 11
102.478
 21
-19.227
  0
LINE
  8
0
 10
102.478
 20
-19.227
 11
102.525
 21
-19.7
  0
LINE
  8
0
 10
102.525
 20
-19.7
 11
102.478
 21
-20.173
  0
LINE
  8
0
 10
102.478
 20
-20.173
 11
102.34
 21
-20.6279
  0
LINE
  8
0
 10
102.34
 20
-20.6279
 11
102.116
 21
-21.0471
  0
LINE
  8
0
 10
102.116
 20
-21.0471
 11
101.814
 21
-21.4145
  0
LINE
  8
0
 10
101.814
 20
-21.4145
 11
101.447
 21
-21.716
  0
LINE
  8
0
 10
101.447
 20
-21.716
 11
101.028
 21
-21.94
  0
LINE
  8
0
 10
101.028
 20
-21.94
 11
100.573
 21
-22.078
  0
LINE
  8
0
 10
100.573
 20
-22.078
 11
100.1
 21
-22.1246
  0
LINE
  8
0
 10
100.1
 20
-22.1246
 11
99.627
 21
-22.078
  0
LINE
  8
0
 10
104.627
 20
-22.078
 11
104.172
 21
-21.94
  0
LINE
  8
0
 10
104.172
 20
-21.94
 11
103.753
 21
-21.716
  0
LINE
  8
0
 10
103.753
 20
-21.716
 11
103.386
 21
-21.4145
  0
LINE
  8
0
 10
103.386
 20
-21.4145
 11
103.084
 21
-21.0471
  0
LINE
  8
0
 10
103.084
 20
-21.0471
 11
102.86
 21
-20.6279
  0
LINE
  8
0
 10
102.86
 20
-20.6279
 11
102.722
 21
-20.173
  0
LINE
  8
0
 10
102.722
 20
-20.173
 11
102.675
 21
-19.7
  0
LINE
  8
0
 10
102.675
 20
-19.7
 11
102.722
 21
-19.227
  0
LINE
  8
0
 10
102.722
 20
-19.227
 11
102.86
 21
-18.7721
  0
LINE
  8
0
 10
102.86
 20
-18.7721
 11
103.084
 21
-18.3529
  0
LINE
  8
0
 10
103.084
 20
-18.3529
 11
103.385
 21
-17.9855
  0
LINE
  8
0
 10
103.385
 20
-17.9855
 11
103.753
 21
-17.684
  0
LINE
  8
0
 10
103.753
 20
-17.684
 11
104.172
 21
-17.4599
  0
LINE
  8
0
 10
104.172
 20
-17.4599
 11
104.627
 21
-17.322
  0
LINE
  8
0
 10
104.627
 20
-17.322
 11
105.1
 21
-17.2754
  0
LINE
  8
0
 10
105.1
 20
-17.2754
 11
105.573
 21
-17.322
  0
LINE
  8
0
 10
105.573
 20
-17.322
 11
106.028
 21
-17.4599
  0
LINE
  8
0
 10
106.028
 20
-17.4599
 11
106.447
 21
-17.684
  0
LINE
  8
0
 10
106.447
 20
-17.684
 11
106.814
 21
-17.9855
  0
LINE
  8
0
 10
106.814
 20
-17.9855
 11
107.116
 21
-18.3529
  0
LINE
  8
0
 10
107.116
 20
-18.3529
 11
107.34
 21
-18.7721
  0
LINE
  8
0
 10
107.34
 20
-18.7721
 11
107.478
 21
-19.227
  0
LINE
  8
0
 10
107.478
 20
-19.227
 11
107.525
 21
-19.7
  0
LINE
  8
0
 10
107.525
 20
-19.7
 11
107.478
 21
-20.173
  0
LINE
  8
0
 10
107.478
 20
-20.173
 11
107.34
 21
-20.6279
  0
LINE
  8
0
 10
107.34
 20
-20.6279
 11
107.116
 21
-21.0471
  0
LINE
  8
0
 10
107.116
 20
-21.0471
 11
106.814
 21
-21.4145
  0
LINE
  8
0
 10
106.814
 20
-21.4145
 11
106.447
 21
-21.716
  0
LINE
  8
0
 10
106.447
 20
-21.716
 11
106.028
 21
-21.94
  0
LINE
  8
0
 10
106.028
 20
-21.94
 11
105.573
 21
-22.078
  0
LINE
  8
0
 10
105.573
 20
-22.078
 11
105.1
 21
-22.1246
  0
LINE
  8
0
 10
105.1
 20
-22.1246
 11
104.627
 21
-22.078
  0
LINE
  8
0
 10
112.752
 20
-22.078
 11
112.297
 21
-21.94
  0
LINE
  8
0
 10
112.297
 20
-21.94
 11
111.878
 21
-21.716
  0
LINE
  8
0
 10
111.878
 20
-21.716
 11
111.511
 21
-21.4145
  0
LINE
  8
0
 10
111.511
 20
-21.4145
 11
111.209
 21
-21.0471
  0
LINE
  8
0
 10
111.209
 20
-21.0471
 11
110.985
 21
-20.6279
  0
LINE
  8
0
 10
110.985
 20
-20.6279
 11
110.847
 21
-20.173
  0
LINE
  8
0
 10
110.847
 20
-20.173
 11
110.8
 21
-19.7
  0
LINE
  8
0
 10
110.8
 20
-19.7
 11
110.847
 21
-19.227
  0
LINE
  8
0
 10
110.847
 20
-19.227
 11
110.985
 21
-18.7721
  0
LINE
  8
0
 10
110.985
 20
-18.7721
 11
111.209
 21
-18.3529
  0
LINE
  8
0
 10
111.209
 20
-18.3529
 11
111.51
 21
-17.9855
  0
LINE
  8
0
 10
111.51
 20
-17.9855
 11
111.878
 21
-17.684
  0
LINE
  8
0
 10
111.878
 20
-17.684
 11
112.297
 21
-17.4599
  0
LINE
  8
0
 10
112.297
 20
-17.4599
 11
112.752
 21
-17.322
  0
LINE
  8
0
 10
112.752
 20
-17.322
 11
113.225
 21
-17.2754
  0
LINE
  8
0
 10
113.225
 20
-17.2754
 11
113.698
 21
-17.322
  0
LINE
  8
0
 10
113.698
 20
-17.322
 11
114.153
 21
-17.4599
  0
LINE
  8
0
 10
114.153
 20
-17.4599
 11
114.572
 21
-17.684
  0
LINE
  8
0
 10
114.572
 20
-17.684
 11
114.939
 21
-17.9855
  0
LINE
  8
0
 10
114.939
 20
-17.9855
 11
115.241
 21
-18.3529
  0
LINE
  8
0
 10
115.241
 20
-18.3529
 11
115.465
 21
-18.7721
  0
LINE
  8
0
 10
115.465
 20
-18.7721
 11
115.603
 21
-19.227
  0
LINE
  8
0
 10
115.603
 20
-19.227
 11
115.65
 21
-19.7
  0
LINE
  8
0
 10
115.65
 20
-19.7
 11
115.603
 21
-20.173
  0
LINE
  8
0
 10
115.603
 20
-20.173
 11
115.465
 21
-20.6279
  0
LINE
  8
0
 10
115.465
 20
-20.6279
 11
115.241
 21
-21.0471
  0
LINE
  8
0
 10
115.241
 20
-21.0471
 11
114.939
 21
-21.4145
  0
LINE
  8
0
 10
114.939
 20
-21.4145
 11
114.572
 21
-21.716
  0
LINE
  8
0
 10
114.572
 20
-21.716
 11
114.153
 21
-21.94
  0
LINE
  8
0
 10
114.153
 20
-21.94
 11
113.698
 21
-22.078
  0
LINE
  8
0
 10
113.698
 20
-22.078
 11
113.225
 21
-22.1246
  0
LINE
  8
0
 10
113.225
 20
-22.1246
 11
112.752
 21
-22.078
  0
LINE
  8
0
 10
117.752
 20
-22.078
 11
117.297
 21
-21.94
  0
LINE
  8
0
 10
117.297
 20
-21.94
 11
116.878
 21
-21.716
  0
LINE
  8
0
 10
116.878
 20
-21.716
 11
116.511
 21
-21.4145
  0
LINE
  8
0
 10
116.511
 20
-21.4145
 11
116.209
 21
-21.0471
  0
LINE
  8
0
 10
116.209
 20
-21.0471
 11
115.985
 21
-20.6279
  0
LINE
  8
0
 10
115.985
 20
-20.6279
 11
115.847
 21
-20.173
  0
LINE
  8
0
 10
115.847
 20
-20.173
 11
115.8
 21
-19.7
  0
LINE
  8
0
 10
115.8
 20
-19.7
 11
115.847
 21
-19.227
  0
LINE
  8
0
 10
115.847
 20
-19.227
 11
115.985
 21
-18.7721
  0
LINE
  8
0
 10
115.985
 20
-18.7721
 11
116.209
 21
-18.3529
  0
LINE
  8
0
 10
116.209
 20
-18.3529
 11
116.51
 21
-17.9855
  0
LINE
  8
0
 10
116.51
 20
-17.9855
 11
116.878
 21
-17.684
  0
LINE
  8
0
 10
116.878
 20
-17.684
 11
117.297
 21
-17.4599
  0
LINE
  8
0
 10
117.297
 20
-17.4599
 11
117.752
 21
-17.322
  0
LINE
  8
0
 10
117.752
 20
-17.322
 11
118.225
 21
-17.2754
  0
LINE
  8
0
 10
118.225
 20
-17.2754
 11
118.698
 21
-17.322
  0
LINE
  8
0
 10
118.698
 20
-17.322
 11
119.153
 21
-17.4599
  0
LINE
  8
0
 10
119.153
 20
-17.4599
 11
119.572
 21
-17.684
  0
LINE
  8
0
 10
119.572
 20
-17.684
 11
119.939
 21
-17.9855
  0
LINE
  8
0
 10
119.939
 20
-17.9855
 11
120.241
 21
-18.3529
  0
LINE
  8
0
 10
120.241
 20
-18.3529
 11
120.465
 21
-18.7721
  0
LINE
  8
0
 10
120.465
 20
-18.7721
 11
120.603
 21
-19.227
  0
LINE
  8
0
 10
120.603
 20
-19.227
 11
120.65
 21
-19.7
  0
LINE
  8
0
 10
120.65
 20
-19.7
 11
120.603
 21
-20.173
  0
LINE
  8
0
 10
120.603
 20
-20.173
 11
120.465
 21
-20.6279
  0
LINE
  8
0
 10
120.465
 20
-20.6279
 11
120.241
 21
-21.0471
  0
LINE
  8
0
 10
120.241
 20
-21.0471
 11
119.939
 21
-21.4145
  0
LINE
  8
0
 10
119.939
 20
-21.4145
 11
119.572
 21
-21.716
  0
LINE
  8
0
 10
119.572
 20
-21.716
 11
119.153
 21
-21.94
  0
LINE
  8
0
 10
119.153
 20
-21.94
 11
118.698
 21
-22.078
  0
LINE
  8
0
 10
118.698
 20
-22.078
 11
118.225
 21
-22.1246
  0
LINE
  8
0
 10
118.225
 20
-22.1246
 11
117.752
 21
-22.078
  0
LINE
  8
0
 10
127.152
 20
-22.078
 11
126.697
 21
-21.94
  0
LINE
  8
0
 10
126.697
 20
-21.94
 11
126.278
 21
-21.716
  0
LINE
  8
0
 10
126.278
 20
-21.716
 11
125.911
 21
-21.4145
  0
LINE
  8
0
 10
125.911
 20
-21.4145
 11
125.609
 21
-21.047
  0
LINE
  8
0
 10
125.609
 20
-21.047
 11
125.385
 21
-20.6279
  0
LINE
  8
0
 10
125.385
 20
-20.6279
 11
125.247
 21
-20.173
  0
LINE
  8
0
 10
125.247
 20
-20.173
 11
125.2
 21
-19.7
  0
LINE
  8
0
 10
125.2
 20
-19.7
 11
125.247
 21
-19.227
  0
LINE
  8
0
 10
125.247
 20
-19.227
 11
125.385
 21
-18.7721
  0
LINE
  8
0
 10
125.385
 20
-18.7721
 11
125.609
 21
-18.353
  0
LINE
  8
0
 10
125.609
 20
-18.353
 11
125.911
 21
-17.9855
  0
LINE
  8
0
 10
125.911
 20
-17.9855
 11
126.278
 21
-17.684
  0
LINE
  8
0
 10
126.278
 20
-17.684
 11
126.697
 21
-17.4599
  0
LINE
  8
0
 10
126.697
 20
-17.4599
 11
127.152
 21
-17.322
  0
LINE
  8
0
 10
127.152
 20
-17.322
 11
127.625
 21
-17.2754
  0
LINE
  8
0
 10
127.625
 20
-17.2754
 11
128.098
 21
-17.322
  0
LINE
  8
0
 10
128.098
 20
-17.322
 11
128.553
 21
-17.4599
  0
LINE
  8
0
 10
128.553
 20
-17.4599
 11
128.972
 21
-17.684
  0
LINE
  8
0
 10
128.972
 20
-17.684
 11
129.339
 21
-17.9855
  0
LINE
  8
0
 10
129.339
 20
-17.9855
 11
129.641
 21
-18.353
  0
LINE
  8
0
 10
129.641
 20
-18.353
 11
129.865
 21
-18.7721
  0
LINE
  8
0
 10
129.865
 20
-18.7721
 11
130.003
 21
-19.227
  0
LINE
  8
0
 10
130.003
 20
-19.227
 11
130.05
 21
-19.7
  0
LINE
  8
0
 10
130.05
 20
-19.7
 11
130.003
 21
-20.173
  0
LINE
  8
0
 10
130.003
 20
-20.173
 11
129.865
 21
-20.6279
  0
LINE
  8
0
 10
129.865
 20
-20.6279
 11
129.641
 21
-21.047
  0
LINE
  8
0
 10
129.641
 20
-21.047
 11
129.339
 21
-21.4145
  0
LINE
  8
0
 10
129.339
 20
-21.4145
 11
128.972
 21
-21.716
  0
LINE
  8
0
 10
128.972
 20
-21.716
 11
128.553
 21
-21.94
  0
LINE
  8
0
 10
128.553
 20
-21.94
 11
128.098
 21
-22.078
  0
LINE
  8
0
 10
128.098
 20
-22.078
 11
127.625
 21
-22.1246
  0
LINE
  8
0
 10
127.625
 20
-22.1246
 11
127.152
 21
-22.078
  0
LINE
  8
0
 10
132.152
 20
-22.078
 11
131.697
 21
-21.94
  0
LINE
  8
0
 10
131.697
 20
-21.94
 11
131.278
 21
-21.716
  0
LINE
  8
0
 10
131.278
 20
-21.716
 11
130.911
 21
-21.4145
  0
LINE
  8
0
 10
130.911
 20
-21.4145
 11
130.609
 21
-21.047
  0
LINE
  8
0
 10
130.609
 20
-21.047
 11
130.385
 21
-20.6279
  0
LINE
  8
0
 10
130.385
 20
-20.6279
 11
130.247
 21
-20.173
  0
LINE
  8
0
 10
130.247
 20
-20.173
 11
130.2
 21
-19.7
  0
LINE
  8
0
 10
130.2
 20
-19.7
 11
130.247
 21
-19.227
  0
LINE
  8
0
 10
130.247
 20
-19.227
 11
130.385
 21
-18.7721
  0
LINE
  8
0
 10
130.385
 20
-18.7721
 11
130.609
 21
-18.353
  0
LINE
  8
0
 10
130.609
 20
-18.353
 11
130.911
 21
-17.9855
  0
LINE
  8
0
 10
130.911
 20
-17.9855
 11
131.278
 21
-17.684
  0
LINE
  8
0
 10
131.278
 20
-17.684
 11
131.697
 21
-17.4599
  0
LINE
  8
0
 10
131.697
 20
-17.4599
 11
132.152
 21
-17.322
  0
LINE
  8
0
 10
132.152
 20
-17.322
 11
132.625
 21
-17.2754
  0
LINE
  8
0
 10
132.625
 20
-17.2754
 11
133.098
 21
-17.322
  0
LINE
  8
0
 10
133.098
 20
-17.322
 11
133.553
 21
-17.4599
  0
LINE
  8
0
 10
133.553
 20
-17.4599
 11
133.972
 21
-17.684
  0
LINE
  8
0
 10
133.972
 20
-17.684
 11
134.339
 21
-17.9855
  0
LINE
  8
0
 10
134.339
 20
-17.9855
 11
134.641
 21
-18.353
  0
LINE
  8
0
 10
134.641
 20
-18.353
 11
134.865
 21
-18.7721
  0
LINE
  8
0
 10
134.865
 20
-18.7721
 11
135.003
 21
-19.227
  0
LINE
  8
0
 10
135.003
 20
-19.227
 11
135.05
 21
-19.7
  0
LINE
  8
0
 10
135.05
 20
-19.7
 11
135.003
 21
-20.173
  0
LINE
  8
0
 10
135.003
 20
-20.173
 11
134.865
 21
-20.6279
  0
LINE
  8
0
 10
134.865
 20
-20.6279
 11
134.641
 21
-21.047
  0
LINE
  8
0
 10
134.641
 20
-21.047
 11
134.339
 21
-21.4145
  0
LINE
  8
0
 10
134.339
 20
-21.4145
 11
133.972
 21
-21.716
  0
LINE
  8
0
 10
133.972
 20
-21.716
 11
133.553
 21
-21.94
  0
LINE
  8
0
 10
133.553
 20
-21.94
 11
133.098
 21
-22.078
  0
LINE
  8
0
 10
133.098
 20
-22.078
 11
132.625
 21
-22.1246
  0
LINE
  8
0
 10
132.625
 20
-22.1246
 11
132.152
 21
-22.078
  0
ENDSEC
  0
SECTION
  2
OBJECTS
  0
DICTIONARY
  0
ENDSEC
  0
EOF
