  0
SECTION
  2
BLOCKS
  0
ENDSEC
  0
SECTION
  2
ENTITIES
  0
LINE
  8
0
 10
-129.004
 20
-2.30772
 11
-128.915
 21
-2.29823
  0
LINE
  8
0
 10
-128.915
 20
-2.29823
 11
-128.832
 21
-2.28223
  0
LINE
  8
0
 10
-128.832
 20
-2.28223
 11
-128.755
 21
-2.2596
  0
LINE
  8
0
 10
-128.755
 20
-2.2596
 11
-128.683
 21
-2.23022
  0
LINE
  8
0
 10
-128.683
 20
-2.23022
 11
-128.618
 21
-2.19395
  0
LINE
  8
0
 10
-128.618
 20
-2.19395
 11
-128.559
 21
-2.15079
  0
LINE
  8
0
 10
-128.559
 20
-2.15079
 11
-128.507
 21
-2.10135
  0
LINE
  8
0
 10
-128.507
 20
-2.10135
 11
-128.463
 21
-2.04626
  0
LINE
  8
0
 10
-128.463
 20
-2.04626
 11
-128.427
 21
-1.98572
  0
LINE
  8
0
 10
-128.427
 20
-1.98572
 11
-128.399
 21
-1.92006
  0
LINE
  8
0
 10
-128.399
 20
-1.92006
 11
-128.379
 21
-1.84962
  0
LINE
  8
0
 10
-128.379
 20
-1.84962
 11
-128.367
 21
-1.77467
  0
LINE
  8
0
 10
-128.367
 20
-1.77467
 11
-128.363
 21
-1.69551
  0
LINE
  8
0
 10
-128.363
 20
-1.69551
 11
-128.366
 21
-1.63789
  0
LINE
  8
0
 10
-128.366
 20
-1.63789
 11
-128.373
 21
-1.58302
  0
LINE
  8
0
 10
-128.373
 20
-1.58302
 11
-128.385
 21
-1.5307
  0
LINE
  8
0
 10
-128.385
 20
-1.5307
 11
-128.401
 21
-1.48105
  0
LINE
  8
0
 10
-128.401
 20
-1.48105
 11
-128.423
 21
-1.43423
  0
LINE
  8
0
 10
-128.423
 20
-1.43423
 11
-128.449
 21
-1.39047
  0
LINE
  8
0
 10
-128.449
 20
-1.39047
 11
-128.481
 21
-1.34996
  0
LINE
  8
0
 10
-128.481
 20
-1.34996
 11
-128.516
 21
-1.3132
  0
LINE
  8
0
 10
-128.516
 20
-1.3132
 11
-128.555
 21
-1.28065
  0
LINE
  8
0
 10
-128.555
 20
-1.28065
 11
-128.598
 21
-1.25237
  0
LINE
  8
0
 10
-128.598
 20
-1.25237
 11
-128.644
 21
-1.22838
  0
LINE
  8
0
 10
-128.644
 20
-1.22838
 11
-128.655
 21
-1.22406
  0
LINE
  8
0
 10
-128.655
 20
-1.22406
 11
-128.62
 21
-1.2038
  0
LINE
  8
0
 10
-128.62
 20
-1.2038
 11
-128.582
 21
-1.1758
  0
LINE
  8
0
 10
-128.582
 20
-1.1758
 11
-128.548
 21
-1.14386
  0
LINE
  8
0
 10
-128.548
 20
-1.14386
 11
-128.516
 21
-1.10817
  0
LINE
  8
0
 10
-128.516
 20
-1.10817
 11
-128.488
 21
-1.06978
  0
LINE
  8
0
 10
-128.488
 20
-1.06978
 11
-128.465
 21
-1.02951
  0
LINE
  8
0
 10
-128.465
 20
-1.02951
 11
-128.445
 21
-0.987396
  0
LINE
  8
0
 10
-128.445
 20
-0.987396
 11
-128.43
 21
-0.943527
  0
LINE
  8
0
 10
-128.43
 20
-0.943527
 11
-128.419
 21
-0.898087
  0
LINE
  8
0
 10
-128.419
 20
-0.898087
 11
-128.413
 21
-0.851196
  0
LINE
  8
0
 10
-128.413
 20
-0.851196
 11
-128.411
 21
-0.80275
  0
LINE
  8
0
 10
-128.411
 20
-0.80275
 11
-128.415
 21
-0.730179
  0
LINE
  8
0
 10
-128.415
 20
-0.730179
 11
-128.426
 21
-0.661545
  0
LINE
  8
0
 10
-128.426
 20
-0.661545
 11
-128.444
 21
-0.597061
  0
LINE
  8
0
 10
-128.444
 20
-0.597061
 11
-128.471
 21
-0.537048
  0
LINE
  8
0
 10
-128.471
 20
-0.537048
 11
-128.505
 21
-0.481888
  0
LINE
  8
0
 10
-128.505
 20
-0.481888
 11
-128.547
 21
-0.431915
  0
LINE
  8
0
 10
-128.547
 20
-0.431915
 11
-128.596
 21
-0.38736
  0
LINE
  8
0
 10
-128.596
 20
-0.38736
 11
-128.652
 21
-0.348663
  0
LINE
  8
0
 10
-128.652
 20
-0.348663
 11
-128.713
 21
-0.316223
  0
LINE
  8
0
 10
-128.713
 20
-0.316223
 11
-128.78
 21
-0.289978
  0
LINE
  8
0
 10
-128.78
 20
-0.289978
 11
-128.853
 21
-0.269806
  0
LINE
  8
0
 10
-128.853
 20
-0.269806
 11
-128.931
 21
-0.255554
  0
LINE
  8
0
 10
-128.931
 20
-0.255554
 11
-129.015
 21
-0.24707
  0
LINE
  8
0
 10
-129.015
 20
-0.24707
 11
-129.104
 21
-0.244293
  0
LINE
  8
0
 10
-129.104
 20
-0.244293
 11
-129.191
 21
-0.247162
  0
LINE
  8
0
 10
-129.191
 20
-0.247162
 11
-129.274
 21
-0.255875
  0
LINE
  8
0
 10
-129.274
 20
-0.255875
 11
-129.351
 21
-0.270523
  0
LINE
  8
0
 10
-129.351
 20
-0.270523
 11
-129.422
 21
-0.291275
  0
LINE
  8
0
 10
-129.422
 20
-0.291275
 11
-129.489
 21
-0.318237
  0
LINE
  8
0
 10
-129.489
 20
-0.318237
 11
-129.55
 21
-0.351532
  0
LINE
  8
0
 10
-129.55
 20
-0.351532
 11
-129.605
 21
-0.391113
  0
LINE
  8
0
 10
-129.605
 20
-0.391113
 11
-129.654
 21
-0.436218
  0
LINE
  8
0
 10
-129.654
 20
-0.436218
 11
-129.696
 21
-0.486145
  0
LINE
  8
0
 10
-129.696
 20
-0.486145
 11
-129.73
 21
-0.540787
  0
LINE
  8
0
 10
-129.73
 20
-0.540787
 11
-129.756
 21
-0.599823
  0
LINE
  8
0
 10
-129.756
 20
-0.599823
 11
-129.775
 21
-0.662903
  0
LINE
  8
0
 10
-129.775
 20
-0.662903
 11
-129.786
 21
-0.729736
  0
LINE
  8
0
 10
-129.786
 20
-0.729736
 11
-129.79
 21
-0.799988
  0
LINE
  8
0
 10
-129.79
 20
-0.799988
 11
-129.788
 21
-0.848526
  0
LINE
  8
0
 10
-129.788
 20
-0.848526
 11
-129.781
 21
-0.895523
  0
LINE
  8
0
 10
-129.781
 20
-0.895523
 11
-129.771
 21
-0.941101
  0
LINE
  8
0
 10
-129.771
 20
-0.941101
 11
-129.755
 21
-0.985138
  0
LINE
  8
0
 10
-129.755
 20
-0.985138
 11
-129.736
 21
-1.0275
  0
LINE
  8
0
 10
-129.736
 20
-1.0275
 11
-129.712
 21
-1.06802
  0
LINE
  8
0
 10
-129.712
 20
-1.06802
 11
-129.684
 21
-1.10672
  0
LINE
  8
0
 10
-129.684
 20
-1.10672
 11
-129.653
 21
-1.14267
  0
LINE
  8
0
 10
-129.653
 20
-1.14267
 11
-129.618
 21
-1.17494
  0
LINE
  8
0
 10
-129.618
 20
-1.17494
 11
-129.581
 21
-1.2034
  0
LINE
  8
0
 10
-129.581
 20
-1.2034
 11
-129.543
 21
-1.22668
  0
LINE
  8
0
 10
-129.543
 20
-1.22668
 11
-129.556
 21
-1.23224
  0
LINE
  8
0
 10
-129.556
 20
-1.23224
 11
-129.601
 21
-1.25694
  0
LINE
  8
0
 10
-129.601
 20
-1.25694
 11
-129.643
 21
-1.28604
  0
LINE
  8
0
 10
-129.643
 20
-1.28604
 11
-129.682
 21
-1.3195
  0
LINE
  8
0
 10
-129.682
 20
-1.3195
 11
-129.717
 21
-1.35721
  0
LINE
  8
0
 10
-129.717
 20
-1.35721
 11
-129.748
 21
-1.39839
  0
LINE
  8
0
 10
-129.748
 20
-1.39839
 11
-129.775
 21
-1.44232
  0
LINE
  8
0
 10
-129.775
 20
-1.44232
 11
-129.797
 21
-1.48888
  0
LINE
  8
0
 10
-129.797
 20
-1.48888
 11
-129.813
 21
-1.53784
  0
LINE
  8
0
 10
-129.813
 20
-1.53784
 11
-129.825
 21
-1.58911
  0
LINE
  8
0
 10
-129.825
 20
-1.58911
 11
-129.832
 21
-1.64252
  0
LINE
  8
0
 10
-129.832
 20
-1.64252
 11
-129.835
 21
-1.6982
  0
LINE
  8
0
 10
-129.835
 20
-1.6982
 11
-129.831
 21
-1.7771
  0
LINE
  8
0
 10
-129.831
 20
-1.7771
 11
-129.819
 21
-1.85179
  0
LINE
  8
0
 10
-129.819
 20
-1.85179
 11
-129.799
 21
-1.92198
  0
LINE
  8
0
 10
-129.799
 20
-1.92198
 11
-129.771
 21
-1.98738
  0
LINE
  8
0
 10
-129.771
 20
-1.98738
 11
-129.734
 21
-2.0477
  0
LINE
  8
0
 10
-129.734
 20
-2.0477
 11
-129.689
 21
-2.10254
  0
LINE
  8
0
 10
-129.689
 20
-2.10254
 11
-129.637
 21
-2.1517
  0
LINE
  8
0
 10
-129.637
 20
-2.1517
 11
-129.577
 21
-2.1946
  0
LINE
  8
0
 10
-129.577
 20
-2.1946
 11
-129.512
 21
-2.23062
  0
LINE
  8
0
 10
-129.512
 20
-2.23062
 11
-129.44
 21
-2.25986
  0
LINE
  8
0
 10
-129.44
 20
-2.25986
 11
-129.363
 21
-2.28236
  0
LINE
  8
0
 10
-129.363
 20
-2.28236
 11
-129.281
 21
-2.29828
  0
LINE
  8
0
 10
-129.281
 20
-2.29828
 11
-129.192
 21
-2.30774
  0
LINE
  8
0
 10
-129.192
 20
-2.30774
 11
-129.098
 21
-2.31088
  0
LINE
  8
0
 10
-129.098
 20
-2.31088
 11
-129.004
 21
-2.30772
  0
LINE
  8
0
 10
-129.158
 20
-1.04224
 11
-129.203
 21
-1.02881
  0
LINE
  8
0
 10
-129.203
 20
-1.02881
 11
-129.237
 21
-1.00792
  0
LINE
  8
0
 10
-129.237
 20
-1.00792
 11
-129.263
 21
-0.979126
  0
LINE
  8
0
 10
-129.263
 20
-0.979126
 11
-129.283
 21
-0.93985
  0
LINE
  8
0
 10
-129.283
 20
-0.93985
 11
-129.296
 21
-0.888138
  0
LINE
  8
0
 10
-129.296
 20
-0.888138
 11
-129.301
 21
-0.823257
  0
LINE
  8
0
 10
-129.301
 20
-0.823257
 11
-129.296
 21
-0.761902
  0
LINE
  8
0
 10
-129.296
 20
-0.761902
 11
-129.284
 21
-0.71312
  0
LINE
  8
0
 10
-129.284
 20
-0.71312
 11
-129.264
 21
-0.676239
  0
LINE
  8
0
 10
-129.264
 20
-0.676239
 11
-129.239
 21
-0.649048
  0
LINE
  8
0
 10
-129.239
 20
-0.649048
 11
-129.205
 21
-0.629135
  0
LINE
  8
0
 10
-129.205
 20
-0.629135
 11
-129.16
 21
-0.616257
  0
LINE
  8
0
 10
-129.16
 20
-0.616257
 11
-129.103
 21
-0.611572
  0
LINE
  8
0
 10
-129.103
 20
-0.611572
 11
-129.073
 21
-0.612671
  0
LINE
  8
0
 10
-129.073
 20
-0.612671
 11
-129.045
 21
-0.615967
  0
LINE
  8
0
 10
-129.045
 20
-0.615967
 11
-129.021
 21
-0.621353
  0
LINE
  8
0
 10
-129.021
 20
-0.621353
 11
-128.999
 21
-0.62854
  0
LINE
  8
0
 10
-128.999
 20
-0.62854
 11
-128.981
 21
-0.637375
  0
LINE
  8
0
 10
-128.981
 20
-0.637375
 11
-128.965
 21
-0.647797
  0
LINE
  8
0
 10
-128.965
 20
-0.647797
 11
-128.951
 21
-0.659775
  0
LINE
  8
0
 10
-128.951
 20
-0.659775
 11
-128.939
 21
-0.67366
  0
LINE
  8
0
 10
-128.939
 20
-0.67366
 11
-128.929
 21
-0.690109
  0
LINE
  8
0
 10
-128.929
 20
-0.690109
 11
-128.92
 21
-0.709793
  0
LINE
  8
0
 10
-128.92
 20
-0.709793
 11
-128.913
 21
-0.732834
  0
LINE
  8
0
 10
-128.913
 20
-0.732834
 11
-128.908
 21
-0.759308
  0
LINE
  8
0
 10
-128.908
 20
-0.759308
 11
-128.904
 21
-0.789688
  0
LINE
  8
0
 10
-128.904
 20
-0.789688
 11
-128.903
 21
-0.82338
  0
LINE
  8
0
 10
-128.903
 20
-0.82338
 11
-128.904
 21
-0.85994
  0
LINE
  8
0
 10
-128.904
 20
-0.85994
 11
-128.908
 21
-0.893066
  0
LINE
  8
0
 10
-128.908
 20
-0.893066
 11
-128.913
 21
-0.921906
  0
LINE
  8
0
 10
-128.913
 20
-0.921906
 11
-128.92
 21
-0.946808
  0
LINE
  8
0
 10
-128.92
 20
-0.946808
 11
-128.929
 21
-0.967545
  0
LINE
  8
0
 10
-128.929
 20
-0.967545
 11
-128.939
 21
-0.984772
  0
LINE
  8
0
 10
-128.939
 20
-0.984772
 11
-128.951
 21
-0.998718
  0
LINE
  8
0
 10
-128.951
 20
-0.998718
 11
-128.964
 21
-1.0107
  0
LINE
  8
0
 10
-128.964
 20
-1.0107
 11
-128.98
 21
-1.02121
  0
LINE
  8
0
 10
-128.98
 20
-1.02121
 11
-128.998
 21
-1.03006
  0
LINE
  8
0
 10
-128.998
 20
-1.03006
 11
-129.019
 21
-1.03728
  0
LINE
  8
0
 10
-129.019
 20
-1.03728
 11
-129.044
 21
-1.04268
  0
LINE
  8
0
 10
-129.044
 20
-1.04268
 11
-129.071
 21
-1.04602
  0
LINE
  8
0
 10
-129.071
 20
-1.04602
 11
-129.1
 21
-1.04712
  0
LINE
  8
0
 10
-129.1
 20
-1.04712
 11
-129.158
 21
-1.04224
  0
LINE
  8
0
 10
-129.133
 20
-1.94087
 11
-129.167
 21
-1.93666
  0
LINE
  8
0
 10
-129.167
 20
-1.93666
 11
-129.197
 21
-1.92996
  0
LINE
  8
0
 10
-129.197
 20
-1.92996
 11
-129.223
 21
-1.92085
  0
LINE
  8
0
 10
-129.223
 20
-1.92085
 11
-129.246
 21
-1.90955
  0
LINE
  8
0
 10
-129.246
 20
-1.90955
 11
-129.266
 21
-1.8961
  0
LINE
  8
0
 10
-129.266
 20
-1.8961
 11
-129.283
 21
-1.88065
  0
LINE
  8
0
 10
-129.283
 20
-1.88065
 11
-129.298
 21
-1.8623
  0
LINE
  8
0
 10
-129.298
 20
-1.8623
 11
-129.311
 21
-1.84074
  0
LINE
  8
0
 10
-129.311
 20
-1.84074
 11
-129.322
 21
-1.81497
  0
LINE
  8
0
 10
-129.322
 20
-1.81497
 11
-129.331
 21
-1.78513
  0
LINE
  8
0
 10
-129.331
 20
-1.78513
 11
-129.337
 21
-1.75087
  0
LINE
  8
0
 10
-129.337
 20
-1.75087
 11
-129.341
 21
-1.7122
  0
LINE
  8
0
 10
-129.341
 20
-1.7122
 11
-129.343
 21
-1.66975
  0
LINE
  8
0
 10
-129.343
 20
-1.66975
 11
-129.341
 21
-1.63254
  0
LINE
  8
0
 10
-129.341
 20
-1.63254
 11
-129.337
 21
-1.59892
  0
LINE
  8
0
 10
-129.337
 20
-1.59892
 11
-129.331
 21
-1.56842
  0
LINE
  8
0
 10
-129.331
 20
-1.56842
 11
-129.322
 21
-1.5415
  0
LINE
  8
0
 10
-129.322
 20
-1.5415
 11
-129.311
 21
-1.51741
  0
LINE
  8
0
 10
-129.311
 20
-1.51741
 11
-129.298
 21
-1.49608
  0
LINE
  8
0
 10
-129.298
 20
-1.49608
 11
-129.282
 21
-1.47734
  0
LINE
  8
0
 10
-129.282
 20
-1.47734
 11
-129.265
 21
-1.46107
  0
LINE
  8
0
 10
-129.265
 20
-1.46107
 11
-129.245
 21
-1.44733
  0
LINE
  8
0
 10
-129.245
 20
-1.44733
 11
-129.223
 21
-1.43582
  0
LINE
  8
0
 10
-129.223
 20
-1.43582
 11
-129.199
 21
-1.42671
  0
LINE
  8
0
 10
-129.199
 20
-1.42671
 11
-129.171
 21
-1.41998
  0
LINE
  8
0
 10
-129.171
 20
-1.41998
 11
-129.14
 21
-1.41585
  0
LINE
  8
0
 10
-129.14
 20
-1.41585
 11
-129.107
 21
-1.41444
  0
LINE
  8
0
 10
-129.107
 20
-1.41444
 11
-129.036
 21
-1.41997
  0
LINE
  8
0
 10
-129.036
 20
-1.41997
 11
-128.979
 21
-1.43546
  0
LINE
  8
0
 10
-128.979
 20
-1.43546
 11
-128.936
 21
-1.45966
  0
LINE
  8
0
 10
-128.936
 20
-1.45966
 11
-128.903
 21
-1.49254
  0
LINE
  8
0
 10
-128.903
 20
-1.49254
 11
-128.879
 21
-1.53629
  0
LINE
  8
0
 10
-128.879
 20
-1.53629
 11
-128.864
 21
-1.59311
  0
LINE
  8
0
 10
-128.864
 20
-1.59311
 11
-128.858
 21
-1.66528
  0
LINE
  8
0
 10
-128.858
 20
-1.66528
 11
-128.86
 21
-1.70854
  0
LINE
  8
0
 10
-128.86
 20
-1.70854
 11
-128.863
 21
-1.74863
  0
LINE
  8
0
 10
-128.863
 20
-1.74863
 11
-128.87
 21
-1.78407
  0
LINE
  8
0
 10
-128.87
 20
-1.78407
 11
-128.878
 21
-1.81491
  0
LINE
  8
0
 10
-128.878
 20
-1.81491
 11
-128.889
 21
-1.84142
  0
LINE
  8
0
 10
-128.889
 20
-1.84142
 11
-128.901
 21
-1.86328
  0
LINE
  8
0
 10
-128.901
 20
-1.86328
 11
-128.915
 21
-1.88148
  0
LINE
  8
0
 10
-128.915
 20
-1.88148
 11
-128.931
 21
-1.89667
  0
LINE
  8
0
 10
-128.931
 20
-1.89667
 11
-128.95
 21
-1.90996
  0
LINE
  8
0
 10
-128.95
 20
-1.90996
 11
-128.972
 21
-1.92101
  0
LINE
  8
0
 10
-128.972
 20
-1.92101
 11
-128.997
 21
-1.93002
  0
LINE
  8
0
 10
-128.997
 20
-1.93002
 11
-129.026
 21
-1.93671
  0
LINE
  8
0
 10
-129.026
 20
-1.93671
 11
-129.059
 21
-1.94087
  0
LINE
  8
0
 10
-129.059
 20
-1.94087
 11
-129.096
 21
-1.94228
  0
LINE
  8
0
 10
-129.096
 20
-1.94228
 11
-129.133
 21
-1.94087
  0
LINE
  8
0
 10
-125.705
 20
-0.272781
 11
-126.227
 21
-0.272781
  0
LINE
  8
0
 10
-126.227
 20
-0.272781
 11
-126.63
 21
-1.53575
  0
LINE
  8
0
 10
-126.63
 20
-1.53575
 11
-126.681
 21
-1.71486
  0
LINE
  8
0
 10
-126.681
 20
-1.71486
 11
-126.696
 21
-1.66136
  0
LINE
  8
0
 10
-126.696
 20
-1.66136
 11
-126.709
 21
-1.61452
  0
LINE
  8
0
 10
-126.709
 20
-1.61452
 11
-126.722
 21
-1.57256
  0
LINE
  8
0
 10
-126.722
 20
-1.57256
 11
-126.733
 21
-1.53534
  0
LINE
  8
0
 10
-126.733
 20
-1.53534
 11
-127.137
 21
-0.272781
  0
LINE
  8
0
 10
-127.137
 20
-0.272781
 11
-127.663
 21
-0.272781
  0
LINE
  8
0
 10
-127.663
 20
-0.272781
 11
-126.92
 21
-2.28374
  0
LINE
  8
0
 10
-126.92
 20
-2.28374
 11
-126.445
 21
-2.28374
  0
LINE
  8
0
 10
-126.445
 20
-2.28374
 11
-125.705
 21
-0.272781
  0
LINE
  8
0
 10
-129.864
 20
-1.90027
 11
-130.302
 21
-1.90027
  0
LINE
  8
0
 10
-130.302
 20
-1.90027
 11
-130.302
 21
-0.272781
  0
LINE
  8
0
 10
-130.302
 20
-0.272781
 11
-130.728
 21
-0.272781
  0
LINE
  8
0
 10
-130.728
 20
-0.272781
 11
-131.242
 21
-0.606201
  0
LINE
  8
0
 10
-131.242
 20
-0.606201
 11
-131.242
 21
-1.02327
  0
LINE
  8
0
 10
-131.242
 20
-1.02327
 11
-130.783
 21
-0.737091
  0
LINE
  8
0
 10
-130.783
 20
-0.737091
 11
-130.783
 21
-1.90027
  0
LINE
  8
0
 10
-130.783
 20
-1.90027
 11
-131.257
 21
-1.90027
  0
LINE
  8
0
 10
-131.257
 20
-1.90027
 11
-131.257
 21
-2.28374
  0
LINE
  8
0
 10
-131.257
 20
-2.28374
 11
-129.864
 21
-2.28374
  0
LINE
  8
0
 10
-129.864
 20
-2.28374
 11
-129.864
 21
-1.90027
  0
LINE
  8
0
 10
-133.553
 20
-2.17084
 11
-133.55
 21
-2.1086
  0
LINE
  8
0
 10
-133.55
 20
-2.1086
 11
-133.545
 21
-2.04796
  0
LINE
  8
0
 10
-133.545
 20
-2.04796
 11
-133.538
 21
-1.98753
  0
LINE
  8
0
 10
-133.538
 20
-1.98753
 11
-133.529
 21
-1.92833
  0
LINE
  8
0
 10
-133.529
 20
-1.92833
 11
-133.519
 21
-1.87073
  0
LINE
  8
0
 10
-133.519
 20
-1.87073
 11
-133.506
 21
-1.81329
  0
LINE
  8
0
 10
-133.506
 20
-1.81329
 11
-133.492
 21
-1.75731
  0
LINE
  8
0
 10
-133.492
 20
-1.75731
 11
-133.475
 21
-1.70015
  0
LINE
  8
0
 10
-133.475
 20
-1.70015
 11
-133.458
 21
-1.64429
  0
LINE
  8
0
 10
-133.458
 20
-1.64429
 11
-133.439
 21
-1.5885
  0
LINE
  8
0
 10
-133.439
 20
-1.5885
 11
-133.419
 21
-1.53351
  0
LINE
  8
0
 10
-133.419
 20
-1.53351
 11
-133.397
 21
-1.47874
  0
LINE
  8
0
 10
-133.397
 20
-1.47874
 11
-133.374
 21
-1.42503
  0
LINE
  8
0
 10
-133.374
 20
-1.42503
 11
-133.349
 21
-1.36986
  0
LINE
  8
0
 10
-133.349
 20
-1.36986
 11
-133.324
 21
-1.31642
  0
LINE
  8
0
 10
-133.324
 20
-1.31642
 11
-133.296
 21
-1.26178
  0
LINE
  8
0
 10
-133.296
 20
-1.26178
 11
-133.268
 21
-1.20804
  0
LINE
  8
0
 10
-133.268
 20
-1.20804
 11
-133.239
 21
-1.15396
  0
LINE
  8
0
 10
-133.239
 20
-1.15396
 11
-133.208
 21
-1.09935
  0
LINE
  8
0
 10
-133.208
 20
-1.09935
 11
-133.176
 21
-1.04526
  0
LINE
  8
0
 10
-133.176
 20
-1.04526
 11
-133.144
 21
-0.990952
  0
LINE
  8
0
 10
-133.144
 20
-0.990952
 11
-133.11
 21
-0.935715
  0
LINE
  8
0
 10
-133.11
 20
-0.935715
 11
-133.076
 21
-0.87999
  0
LINE
  8
0
 10
-133.076
 20
-0.87999
 11
-133.041
 21
-0.823761
  0
LINE
  8
0
 10
-133.041
 20
-0.823761
 11
-133.006
 21
-0.767014
  0
LINE
  8
0
 10
-133.006
 20
-0.767014
 11
-132.97
 21
-0.709793
  0
LINE
  8
0
 10
-132.97
 20
-0.709793
 11
-132.926
 21
-0.639694
  0
LINE
  8
0
 10
-132.926
 20
-0.639694
 11
-132.926
 21
-0.272781
  0
LINE
  8
0
 10
-132.926
 20
-0.272781
 11
-134.329
 21
-0.272781
  0
LINE
  8
0
 10
-134.329
 20
-0.272781
 11
-134.329
 21
-0.686081
  0
LINE
  8
0
 10
-134.329
 20
-0.686081
 11
-133.425
 21
-0.686081
  0
LINE
  8
0
 10
-133.425
 20
-0.686081
 11
-133.456
 21
-0.732285
  0
LINE
  8
0
 10
-133.456
 20
-0.732285
 11
-133.534
 21
-0.847992
  0
LINE
  8
0
 10
-133.534
 20
-0.847992
 11
-133.603
 21
-0.95488
  0
LINE
  8
0
 10
-133.603
 20
-0.95488
 11
-133.665
 21
-1.05293
  0
LINE
  8
0
 10
-133.665
 20
-1.05293
 11
-133.719
 21
-1.14224
  0
LINE
  8
0
 10
-133.719
 20
-1.14224
 11
-133.765
 21
-1.22287
  0
LINE
  8
0
 10
-133.765
 20
-1.22287
 11
-133.803
 21
-1.29474
  0
LINE
  8
0
 10
-133.803
 20
-1.29474
 11
-133.836
 21
-1.36192
  0
LINE
  8
0
 10
-133.836
 20
-1.36192
 11
-133.867
 21
-1.42871
  0
LINE
  8
0
 10
-133.867
 20
-1.42871
 11
-133.896
 21
-1.49519
  0
LINE
  8
0
 10
-133.896
 20
-1.49519
 11
-133.922
 21
-1.56143
  0
LINE
  8
0
 10
-133.922
 20
-1.56143
 11
-133.946
 21
-1.62738
  0
LINE
  8
0
 10
-133.946
 20
-1.62738
 11
-133.968
 21
-1.69307
  0
LINE
  8
0
 10
-133.968
 20
-1.69307
 11
-133.987
 21
-1.75856
  0
LINE
  8
0
 10
-133.987
 20
-1.75856
 11
-134.004
 21
-1.82445
  0
LINE
  8
0
 10
-134.004
 20
-1.82445
 11
-134.019
 21
-1.89108
  0
LINE
  8
0
 10
-134.019
 20
-1.89108
 11
-134.03
 21
-1.95834
  0
LINE
  8
0
 10
-134.03
 20
-1.95834
 11
-134.04
 21
-2.02628
  0
LINE
  8
0
 10
-134.04
 20
-2.02628
 11
-134.046
 21
-2.0948
  0
LINE
  8
0
 10
-134.046
 20
-2.0948
 11
-134.05
 21
-2.16396
  0
LINE
  8
0
 10
-134.05
 20
-2.16396
 11
-134.052
 21
-2.28374
  0
LINE
  8
0
 10
-134.052
 20
-2.28374
 11
-133.555
 21
-2.28374
  0
LINE
  8
0
 10
-133.555
 20
-2.28374
 11
-133.553
 21
-2.17084
  0
LINE
  8
0
 10
-131.381
 20
-1.30081
 11
-132.856
 21
-1.30081
  0
LINE
  8
0
 10
-132.856
 20
-1.30081
 11
-132.856
 21
-1.67613
  0
LINE
  8
0
 10
-132.856
 20
-1.67613
 11
-131.381
 21
-1.67613
  0
LINE
  8
0
 10
-131.381
 20
-1.67613
 11
-131.381
 21
-1.30081
  0
LINE
  8
0
 10
-157.623
 20
-5.64754
 11
-157.517
 21
-5.63687
  0
LINE
  8
0
 10
-157.517
 20
-5.63687
 11
-157.416
 21
-5.619
  0
LINE
  8
0
 10
-157.416
 20
-5.619
 11
-157.319
 21
-5.59387
  0
LINE
  8
0
 10
-157.319
 20
-5.59387
 11
-157.226
 21
-5.56151
  0
LINE
  8
0
 10
-157.226
 20
-5.56151
 11
-157.138
 21
-5.52185
  0
LINE
  8
0
 10
-157.138
 20
-5.52185
 11
-157.054
 21
-5.47488
  0
LINE
  8
0
 10
-157.054
 20
-5.47488
 11
-156.975
 21
-5.42033
  0
LINE
  8
0
 10
-156.975
 20
-5.42033
 11
-156.902
 21
-5.35812
  0
LINE
  8
0
 10
-156.902
 20
-5.35812
 11
-156.834
 21
-5.28841
  0
LINE
  8
0
 10
-156.834
 20
-5.28841
 11
-156.772
 21
-5.21132
  0
LINE
  8
0
 10
-156.772
 20
-5.21132
 11
-156.716
 21
-5.12694
  0
LINE
  8
0
 10
-156.716
 20
-5.12694
 11
-156.666
 21
-5.0354
  0
LINE
  8
0
 10
-156.666
 20
-5.0354
 11
-156.6
 21
-4.88989
  0
LINE
  8
0
 10
-156.6
 20
-4.88989
 11
-157.129
 21
-4.69025
  0
LINE
  8
0
 10
-157.129
 20
-4.69025
 11
-157.203
 21
-4.84959
  0
LINE
  8
0
 10
-157.203
 20
-4.84959
 11
-157.266
 21
-4.94481
  0
LINE
  8
0
 10
-157.266
 20
-4.94481
 11
-157.339
 21
-5.02168
  0
LINE
  8
0
 10
-157.339
 20
-5.02168
 11
-157.421
 21
-5.08092
  0
LINE
  8
0
 10
-157.421
 20
-5.08092
 11
-157.513
 21
-5.12328
  0
LINE
  8
0
 10
-157.513
 20
-5.12328
 11
-157.617
 21
-5.14894
  0
LINE
  8
0
 10
-157.617
 20
-5.14894
 11
-157.733
 21
-5.15768
  0
LINE
  8
0
 10
-157.733
 20
-5.15768
 11
-157.822
 21
-5.15352
  0
LINE
  8
0
 10
-157.822
 20
-5.15352
 11
-157.904
 21
-5.14107
  0
LINE
  8
0
 10
-157.904
 20
-5.14107
 11
-157.979
 21
-5.12053
  0
LINE
  8
0
 10
-157.979
 20
-5.12053
 11
-158.047
 21
-5.09204
  0
LINE
  8
0
 10
-158.047
 20
-5.09204
 11
-158.109
 21
-5.05574
  0
LINE
  8
0
 10
-158.109
 20
-5.05574
 11
-158.165
 21
-5.01128
  0
LINE
  8
0
 10
-158.165
 20
-5.01128
 11
-158.215
 21
-4.95876
  0
LINE
  8
0
 10
-158.215
 20
-4.95876
 11
-158.259
 21
-4.89792
  0
LINE
  8
0
 10
-158.259
 20
-4.89792
 11
-158.297
 21
-4.82942
  0
LINE
  8
0
 10
-158.297
 20
-4.82942
 11
-158.328
 21
-4.75272
  0
LINE
  8
0
 10
-158.328
 20
-4.75272
 11
-158.352
 21
-4.66745
  0
LINE
  8
0
 10
-158.352
 20
-4.66745
 11
-158.37
 21
-4.57411
  0
LINE
  8
0
 10
-158.37
 20
-4.57411
 11
-158.381
 21
-4.47209
  0
LINE
  8
0
 10
-158.381
 20
-4.47209
 11
-158.384
 21
-4.36185
  0
LINE
  8
0
 10
-158.384
 20
-4.36185
 11
-158.381
 21
-4.25334
  0
LINE
  8
0
 10
-158.381
 20
-4.25334
 11
-158.37
 21
-4.1535
  0
LINE
  8
0
 10
-158.37
 20
-4.1535
 11
-158.353
 21
-4.06175
  0
LINE
  8
0
 10
-158.353
 20
-4.06175
 11
-158.33
 21
-3.97868
  0
LINE
  8
0
 10
-158.33
 20
-3.97868
 11
-158.3
 21
-3.90396
  0
LINE
  8
0
 10
-158.3
 20
-3.90396
 11
-158.263
 21
-3.8373
  0
LINE
  8
0
 10
-158.263
 20
-3.8373
 11
-158.22
 21
-3.77855
  0
LINE
  8
0
 10
-158.22
 20
-3.77855
 11
-158.172
 21
-3.72778
  0
LINE
  8
0
 10
-158.172
 20
-3.72778
 11
-158.117
 21
-3.68503
  0
LINE
  8
0
 10
-158.117
 20
-3.68503
 11
-158.056
 21
-3.64983
  0
LINE
  8
0
 10
-158.056
 20
-3.64983
 11
-157.989
 21
-3.62231
  0
LINE
  8
0
 10
-157.989
 20
-3.62231
 11
-157.915
 21
-3.60242
  0
LINE
  8
0
 10
-157.915
 20
-3.60242
 11
-157.833
 21
-3.59032
  0
LINE
  8
0
 10
-157.833
 20
-3.59032
 11
-157.744
 21
-3.58624
  0
LINE
  8
0
 10
-157.744
 20
-3.58624
 11
-157.686
 21
-3.58829
  0
LINE
  8
0
 10
-157.686
 20
-3.58829
 11
-157.629
 21
-3.59438
  0
LINE
  8
0
 10
-157.629
 20
-3.59438
 11
-157.576
 21
-3.60442
  0
LINE
  8
0
 10
-157.576
 20
-3.60442
 11
-157.525
 21
-3.6185
  0
LINE
  8
0
 10
-157.525
 20
-3.6185
 11
-157.476
 21
-3.63643
  0
LINE
  8
0
 10
-157.476
 20
-3.63643
 11
-157.43
 21
-3.65822
  0
LINE
  8
0
 10
-157.43
 20
-3.65822
 11
-157.386
 21
-3.68425
  0
LINE
  8
0
 10
-157.386
 20
-3.68425
 11
-157.345
 21
-3.71327
  0
LINE
  8
0
 10
-157.345
 20
-3.71327
 11
-157.309
 21
-3.74481
  0
LINE
  8
0
 10
-157.309
 20
-3.74481
 11
-157.276
 21
-3.77905
  0
LINE
  8
0
 10
-157.276
 20
-3.77905
 11
-157.248
 21
-3.81581
  0
LINE
  8
0
 10
-157.248
 20
-3.81581
 11
-157.224
 21
-3.8551
  0
LINE
  8
0
 10
-157.224
 20
-3.8551
 11
-157.203
 21
-3.89752
  0
LINE
  8
0
 10
-157.203
 20
-3.89752
 11
-157.17
 21
-3.98816
  0
LINE
  8
0
 10
-157.17
 20
-3.98816
 11
-156.632
 21
-3.84128
  0
LINE
  8
0
 10
-156.632
 20
-3.84128
 11
-156.686
 21
-3.6976
  0
LINE
  8
0
 10
-156.686
 20
-3.6976
 11
-156.728
 21
-3.60966
  0
LINE
  8
0
 10
-156.728
 20
-3.60966
 11
-156.777
 21
-3.52817
  0
LINE
  8
0
 10
-156.777
 20
-3.52817
 11
-156.833
 21
-3.45326
  0
LINE
  8
0
 10
-156.833
 20
-3.45326
 11
-156.896
 21
-3.38507
  0
LINE
  8
0
 10
-156.896
 20
-3.38507
 11
-156.966
 21
-3.32376
  0
LINE
  8
0
 10
-156.966
 20
-3.32376
 11
-157.043
 21
-3.26936
  0
LINE
  8
0
 10
-157.043
 20
-3.26936
 11
-157.126
 21
-3.22215
  0
LINE
  8
0
 10
-157.126
 20
-3.22215
 11
-157.215
 21
-3.18234
  0
LINE
  8
0
 10
-157.215
 20
-3.18234
 11
-157.311
 21
-3.14993
  0
LINE
  8
0
 10
-157.311
 20
-3.14993
 11
-157.413
 21
-3.12486
  0
LINE
  8
0
 10
-157.413
 20
-3.12486
 11
-157.521
 21
-3.10704
  0
LINE
  8
0
 10
-157.521
 20
-3.10704
 11
-157.634
 21
-3.09641
  0
LINE
  8
0
 10
-157.634
 20
-3.09641
 11
-157.755
 21
-3.09285
  0
LINE
  8
0
 10
-157.755
 20
-3.09285
 11
-157.918
 21
-3.09946
  0
LINE
  8
0
 10
-157.918
 20
-3.09946
 11
-158.071
 21
-3.11937
  0
LINE
  8
0
 10
-158.071
 20
-3.11937
 11
-158.213
 21
-3.15279
  0
LINE
  8
0
 10
-158.213
 20
-3.15279
 11
-158.344
 21
-3.19983
  0
LINE
  8
0
 10
-158.344
 20
-3.19983
 11
-158.464
 21
-3.26065
  0
LINE
  8
0
 10
-158.464
 20
-3.26065
 11
-158.573
 21
-3.33522
  0
LINE
  8
0
 10
-158.573
 20
-3.33522
 11
-158.67
 21
-3.42345
  0
LINE
  8
0
 10
-158.67
 20
-3.42345
 11
-158.755
 21
-3.5242
  0
LINE
  8
0
 10
-158.755
 20
-3.5242
 11
-158.827
 21
-3.63646
  0
LINE
  8
0
 10
-158.827
 20
-3.63646
 11
-158.885
 21
-3.75992
  0
LINE
  8
0
 10
-158.885
 20
-3.75992
 11
-158.93
 21
-3.89433
  0
LINE
  8
0
 10
-158.93
 20
-3.89433
 11
-158.962
 21
-4.03949
  0
LINE
  8
0
 10
-158.962
 20
-4.03949
 11
-158.981
 21
-4.19531
  0
LINE
  8
0
 10
-158.981
 20
-4.19531
 11
-158.988
 21
-4.36185
  0
LINE
  8
0
 10
-158.988
 20
-4.36185
 11
-158.981
 21
-4.52823
  0
LINE
  8
0
 10
-158.981
 20
-4.52823
 11
-158.961
 21
-4.68445
  0
LINE
  8
0
 10
-158.961
 20
-4.68445
 11
-158.928
 21
-4.83052
  0
LINE
  8
0
 10
-158.928
 20
-4.83052
 11
-158.881
 21
-4.96628
  0
LINE
  8
0
 10
-158.881
 20
-4.96628
 11
-158.821
 21
-5.09154
  0
LINE
  8
0
 10
-158.821
 20
-5.09154
 11
-158.747
 21
-5.20601
  0
LINE
  8
0
 10
-158.747
 20
-5.20601
 11
-158.659
 21
-5.30951
  0
LINE
  8
0
 10
-158.659
 20
-5.30951
 11
-158.559
 21
-5.40054
  0
LINE
  8
0
 10
-158.559
 20
-5.40054
 11
-158.448
 21
-5.47754
  0
LINE
  8
0
 10
-158.448
 20
-5.47754
 11
-158.326
 21
-5.54039
  0
LINE
  8
0
 10
-158.326
 20
-5.54039
 11
-158.193
 21
-5.58907
  0
LINE
  8
0
 10
-158.193
 20
-5.58907
 11
-158.05
 21
-5.62364
  0
LINE
  8
0
 10
-158.05
 20
-5.62364
 11
-157.896
 21
-5.64427
  0
LINE
  8
0
 10
-157.896
 20
-5.64427
 11
-157.733
 21
-5.65111
  0
LINE
  8
0
 10
-157.733
 20
-5.65111
 11
-157.623
 21
-5.64754
  0
LINE
  8
0
 10
-143.227
 20
-5.64754
 11
-143.121
 21
-5.63687
  0
LINE
  8
0
 10
-143.121
 20
-5.63687
 11
-143.02
 21
-5.619
  0
LINE
  8
0
 10
-143.02
 20
-5.619
 11
-142.923
 21
-5.59387
  0
LINE
  8
0
 10
-142.923
 20
-5.59387
 11
-142.83
 21
-5.56151
  0
LINE
  8
0
 10
-142.83
 20
-5.56151
 11
-142.742
 21
-5.52185
  0
LINE
  8
0
 10
-142.742
 20
-5.52185
 11
-142.658
 21
-5.47488
  0
LINE
  8
0
 10
-142.658
 20
-5.47488
 11
-142.579
 21
-5.42033
  0
LINE
  8
0
 10
-142.579
 20
-5.42033
 11
-142.506
 21
-5.35812
  0
LINE
  8
0
 10
-142.506
 20
-5.35812
 11
-142.438
 21
-5.28841
  0
LINE
  8
0
 10
-142.438
 20
-5.28841
 11
-142.376
 21
-5.21132
  0
LINE
  8
0
 10
-142.376
 20
-5.21132
 11
-142.32
 21
-5.12694
  0
LINE
  8
0
 10
-142.32
 20
-5.12694
 11
-142.27
 21
-5.0354
  0
LINE
  8
0
 10
-142.27
 20
-5.0354
 11
-142.204
 21
-4.88989
  0
LINE
  8
0
 10
-142.204
 20
-4.88989
 11
-142.733
 21
-4.69025
  0
LINE
  8
0
 10
-142.733
 20
-4.69025
 11
-142.807
 21
-4.84959
  0
LINE
  8
0
 10
-142.807
 20
-4.84959
 11
-142.87
 21
-4.94481
  0
LINE
  8
0
 10
-142.87
 20
-4.94481
 11
-142.942
 21
-5.02168
  0
LINE
  8
0
 10
-142.942
 20
-5.02168
 11
-143.024
 21
-5.0809
  0
LINE
  8
0
 10
-143.024
 20
-5.0809
 11
-143.117
 21
-5.12328
  0
LINE
  8
0
 10
-143.117
 20
-5.12328
 11
-143.221
 21
-5.14894
  0
LINE
  8
0
 10
-143.221
 20
-5.14894
 11
-143.337
 21
-5.15768
  0
LINE
  8
0
 10
-143.337
 20
-5.15768
 11
-143.425
 21
-5.15352
  0
LINE
  8
0
 10
-143.425
 20
-5.15352
 11
-143.508
 21
-5.14107
  0
LINE
  8
0
 10
-143.508
 20
-5.14107
 11
-143.583
 21
-5.12051
  0
LINE
  8
0
 10
-143.583
 20
-5.12051
 11
-143.651
 21
-5.09207
  0
LINE
  8
0
 10
-143.651
 20
-5.09207
 11
-143.713
 21
-5.05576
  0
LINE
  8
0
 10
-143.713
 20
-5.05576
 11
-143.769
 21
-5.01128
  0
LINE
  8
0
 10
-143.769
 20
-5.01128
 11
-143.819
 21
-4.95876
  0
LINE
  8
0
 10
-143.819
 20
-4.95876
 11
-143.863
 21
-4.89796
  0
LINE
  8
0
 10
-143.863
 20
-4.89796
 11
-143.901
 21
-4.82936
  0
LINE
  8
0
 10
-143.901
 20
-4.82936
 11
-143.932
 21
-4.75272
  0
LINE
  8
0
 10
-143.932
 20
-4.75272
 11
-143.956
 21
-4.66748
  0
LINE
  8
0
 10
-143.956
 20
-4.66748
 11
-143.974
 21
-4.57405
  0
LINE
  8
0
 10
-143.974
 20
-4.57405
 11
-143.985
 21
-4.47212
  0
LINE
  8
0
 10
-143.985
 20
-4.47212
 11
-143.988
 21
-4.36182
  0
LINE
  8
0
 10
-143.988
 20
-4.36182
 11
-143.985
 21
-4.25334
  0
LINE
  8
0
 10
-143.985
 20
-4.25334
 11
-143.974
 21
-4.15341
  0
LINE
  8
0
 10
-143.974
 20
-4.15341
 11
-143.957
 21
-4.06183
  0
LINE
  8
0
 10
-143.957
 20
-4.06183
 11
-143.934
 21
-3.97865
  0
LINE
  8
0
 10
-143.934
 20
-3.97865
 11
-143.903
 21
-3.9039
  0
LINE
  8
0
 10
-143.903
 20
-3.9039
 11
-143.867
 21
-3.83727
  0
LINE
  8
0
 10
-143.867
 20
-3.83727
 11
-143.824
 21
-3.77861
  0
LINE
  8
0
 10
-143.824
 20
-3.77861
 11
-143.776
 21
-3.72778
  0
LINE
  8
0
 10
-143.776
 20
-3.72778
 11
-143.721
 21
-3.685
  0
LINE
  8
0
 10
-143.721
 20
-3.685
 11
-143.66
 21
-3.64984
  0
LINE
  8
0
 10
-143.66
 20
-3.64984
 11
-143.593
 21
-3.62231
  0
LINE
  8
0
 10
-143.593
 20
-3.62231
 11
-143.519
 21
-3.60242
  0
LINE
  8
0
 10
-143.519
 20
-3.60242
 11
-143.437
 21
-3.59032
  0
LINE
  8
0
 10
-143.437
 20
-3.59032
 11
-143.348
 21
-3.58624
  0
LINE
  8
0
 10
-143.348
 20
-3.58624
 11
-143.29
 21
-3.58829
  0
LINE
  8
0
 10
-143.29
 20
-3.58829
 11
-143.233
 21
-3.59438
  0
LINE
  8
0
 10
-143.233
 20
-3.59438
 11
-143.18
 21
-3.60442
  0
LINE
  8
0
 10
-143.18
 20
-3.60442
 11
-143.129
 21
-3.61847
  0
LINE
  8
0
 10
-143.129
 20
-3.61847
 11
-143.08
 21
-3.63646
  0
LINE
  8
0
 10
-143.08
 20
-3.63646
 11
-143.034
 21
-3.65826
  0
LINE
  8
0
 10
-143.034
 20
-3.65826
 11
-142.99
 21
-3.68414
  0
LINE
  8
0
 10
-142.99
 20
-3.68414
 11
-142.949
 21
-3.71326
  0
LINE
  8
0
 10
-142.949
 20
-3.71326
 11
-142.912
 21
-3.7449
  0
LINE
  8
0
 10
-142.912
 20
-3.7449
 11
-142.88
 21
-3.77905
  0
LINE
  8
0
 10
-142.88
 20
-3.77905
 11
-142.852
 21
-3.8157
  0
LINE
  8
0
 10
-142.852
 20
-3.8157
 11
-142.828
 21
-3.85521
  0
LINE
  8
0
 10
-142.828
 20
-3.85521
 11
-142.807
 21
-3.89754
  0
LINE
  8
0
 10
-142.807
 20
-3.89754
 11
-142.774
 21
-3.98816
  0
LINE
  8
0
 10
-142.774
 20
-3.98816
 11
-142.236
 21
-3.84128
  0
LINE
  8
0
 10
-142.236
 20
-3.84128
 11
-142.29
 21
-3.6976
  0
LINE
  8
0
 10
-142.29
 20
-3.6976
 11
-142.332
 21
-3.60966
  0
LINE
  8
0
 10
-142.332
 20
-3.60966
 11
-142.381
 21
-3.52815
  0
LINE
  8
0
 10
-142.381
 20
-3.52815
 11
-142.437
 21
-3.45325
  0
LINE
  8
0
 10
-142.437
 20
-3.45325
 11
-142.5
 21
-3.38507
  0
LINE
  8
0
 10
-142.5
 20
-3.38507
 11
-142.57
 21
-3.32376
  0
LINE
  8
0
 10
-142.57
 20
-3.32376
 11
-142.647
 21
-3.26936
  0
LINE
  8
0
 10
-142.647
 20
-3.26936
 11
-142.73
 21
-3.22215
  0
LINE
  8
0
 10
-142.73
 20
-3.22215
 11
-142.819
 21
-3.18234
  0
LINE
  8
0
 10
-142.819
 20
-3.18234
 11
-142.915
 21
-3.14993
  0
LINE
  8
0
 10
-142.915
 20
-3.14993
 11
-143.017
 21
-3.12486
  0
LINE
  8
0
 10
-143.017
 20
-3.12486
 11
-143.125
 21
-3.10704
  0
LINE
  8
0
 10
-143.125
 20
-3.10704
 11
-143.238
 21
-3.09641
  0
LINE
  8
0
 10
-143.238
 20
-3.09641
 11
-143.359
 21
-3.09285
  0
LINE
  8
0
 10
-143.359
 20
-3.09285
 11
-143.522
 21
-3.09946
  0
LINE
  8
0
 10
-143.522
 20
-3.09946
 11
-143.675
 21
-3.11937
  0
LINE
  8
0
 10
-143.675
 20
-3.11937
 11
-143.817
 21
-3.15279
  0
LINE
  8
0
 10
-143.817
 20
-3.15279
 11
-143.948
 21
-3.19983
  0
LINE
  8
0
 10
-143.948
 20
-3.19983
 11
-144.068
 21
-3.26065
  0
LINE
  8
0
 10
-144.068
 20
-3.26065
 11
-144.177
 21
-3.33522
  0
LINE
  8
0
 10
-144.177
 20
-3.33522
 11
-144.274
 21
-3.42345
  0
LINE
  8
0
 10
-144.274
 20
-3.42345
 11
-144.359
 21
-3.52422
  0
LINE
  8
0
 10
-144.359
 20
-3.52422
 11
-144.431
 21
-3.63646
  0
LINE
  8
0
 10
-144.431
 20
-3.63646
 11
-144.489
 21
-3.75992
  0
LINE
  8
0
 10
-144.489
 20
-3.75992
 11
-144.534
 21
-3.89433
  0
LINE
  8
0
 10
-144.534
 20
-3.89433
 11
-144.566
 21
-4.03949
  0
LINE
  8
0
 10
-144.566
 20
-4.03949
 11
-144.585
 21
-4.1953
  0
LINE
  8
0
 10
-144.585
 20
-4.1953
 11
-144.592
 21
-4.36185
  0
LINE
  8
0
 10
-144.592
 20
-4.36185
 11
-144.585
 21
-4.52823
  0
LINE
  8
0
 10
-144.585
 20
-4.52823
 11
-144.565
 21
-4.68445
  0
LINE
  8
0
 10
-144.565
 20
-4.68445
 11
-144.532
 21
-4.83052
  0
LINE
  8
0
 10
-144.532
 20
-4.83052
 11
-144.485
 21
-4.96626
  0
LINE
  8
0
 10
-144.485
 20
-4.96626
 11
-144.425
 21
-5.09154
  0
LINE
  8
0
 10
-144.425
 20
-5.09154
 11
-144.351
 21
-5.20601
  0
LINE
  8
0
 10
-144.351
 20
-5.20601
 11
-144.263
 21
-5.30951
  0
LINE
  8
0
 10
-144.263
 20
-5.30951
 11
-144.163
 21
-5.40054
  0
LINE
  8
0
 10
-144.163
 20
-5.40054
 11
-144.052
 21
-5.47754
  0
LINE
  8
0
 10
-144.052
 20
-5.47754
 11
-143.93
 21
-5.54039
  0
LINE
  8
0
 10
-143.93
 20
-5.54039
 11
-143.797
 21
-5.58907
  0
LINE
  8
0
 10
-143.797
 20
-5.58907
 11
-143.654
 21
-5.62364
  0
LINE
  8
0
 10
-143.654
 20
-5.62364
 11
-143.5
 21
-5.64427
  0
LINE
  8
0
 10
-143.5
 20
-5.64427
 11
-143.337
 21
-5.65111
  0
LINE
  8
0
 10
-143.337
 20
-5.65111
 11
-143.227
 21
-5.64754
  0
LINE
  8
0
 10
-163.622
 20
-5.64723
 11
-163.49
 21
-5.63557
  0
LINE
  8
0
 10
-163.49
 20
-5.63557
 11
-163.367
 21
-5.61604
  0
LINE
  8
0
 10
-163.367
 20
-5.61604
 11
-163.254
 21
-5.5885
  0
LINE
  8
0
 10
-163.254
 20
-5.5885
 11
-163.15
 21
-5.55278
  0
LINE
  8
0
 10
-163.15
 20
-5.55278
 11
-163.055
 21
-5.50874
  0
LINE
  8
0
 10
-163.055
 20
-5.50874
 11
-162.971
 21
-5.45622
  0
LINE
  8
0
 10
-162.971
 20
-5.45622
 11
-162.896
 21
-5.39555
  0
LINE
  8
0
 10
-162.896
 20
-5.39555
 11
-162.833
 21
-5.32712
  0
LINE
  8
0
 10
-162.833
 20
-5.32712
 11
-162.781
 21
-5.25113
  0
LINE
  8
0
 10
-162.781
 20
-5.25113
 11
-162.741
 21
-5.16789
  0
LINE
  8
0
 10
-162.741
 20
-5.16789
 11
-162.712
 21
-5.07791
  0
LINE
  8
0
 10
-162.712
 20
-5.07791
 11
-162.695
 21
-4.98151
  0
LINE
  8
0
 10
-162.695
 20
-4.98151
 11
-162.69
 21
-4.87968
  0
LINE
  8
0
 10
-162.69
 20
-4.87968
 11
-162.691
 21
-4.83469
  0
LINE
  8
0
 10
-162.691
 20
-4.83469
 11
-162.694
 21
-4.79176
  0
LINE
  8
0
 10
-162.694
 20
-4.79176
 11
-162.699
 21
-4.75014
  0
LINE
  8
0
 10
-162.699
 20
-4.75014
 11
-162.706
 21
-4.70981
  0
LINE
  8
0
 10
-162.706
 20
-4.70981
 11
-162.715
 21
-4.67076
  0
LINE
  8
0
 10
-162.715
 20
-4.67076
 11
-162.726
 21
-4.63306
  0
LINE
  8
0
 10
-162.726
 20
-4.63306
 11
-162.739
 21
-4.59677
  0
LINE
  8
0
 10
-162.739
 20
-4.59677
 11
-162.754
 21
-4.56197
  0
LINE
  8
0
 10
-162.754
 20
-4.56197
 11
-162.771
 21
-4.52855
  0
LINE
  8
0
 10
-162.771
 20
-4.52855
 11
-162.79
 21
-4.49648
  0
LINE
  8
0
 10
-162.79
 20
-4.49648
 11
-162.81
 21
-4.46579
  0
LINE
  8
0
 10
-162.81
 20
-4.46579
 11
-162.833
 21
-4.43652
  0
LINE
  8
0
 10
-162.833
 20
-4.43652
 11
-162.857
 21
-4.40871
  0
LINE
  8
0
 10
-162.857
 20
-4.40871
 11
-162.883
 21
-4.38229
  0
LINE
  8
0
 10
-162.883
 20
-4.38229
 11
-162.912
 21
-4.3571
  0
LINE
  8
0
 10
-162.912
 20
-4.3571
 11
-162.942
 21
-4.33298
  0
LINE
  8
0
 10
-162.942
 20
-4.33298
 11
-162.976
 21
-4.30995
  0
LINE
  8
0
 10
-162.976
 20
-4.30995
 11
-163.012
 21
-4.28802
  0
LINE
  8
0
 10
-163.012
 20
-4.28802
 11
-163.05
 21
-4.26715
  0
LINE
  8
0
 10
-163.05
 20
-4.26715
 11
-163.09
 21
-4.24725
  0
LINE
  8
0
 10
-163.09
 20
-4.24725
 11
-163.133
 21
-4.22829
  0
LINE
  8
0
 10
-163.133
 20
-4.22829
 11
-163.182
 21
-4.20958
  0
LINE
  8
0
 10
-163.182
 20
-4.20958
 11
-163.238
 21
-4.19061
  0
LINE
  8
0
 10
-163.238
 20
-4.19061
 11
-163.302
 21
-4.1714
  0
LINE
  8
0
 10
-163.302
 20
-4.1714
 11
-163.373
 21
-4.15182
  0
LINE
  8
0
 10
-163.373
 20
-4.15182
 11
-163.452
 21
-4.1319
  0
LINE
  8
0
 10
-163.452
 20
-4.1319
 11
-163.54
 21
-4.11157
  0
LINE
  8
0
 10
-163.54
 20
-4.11157
 11
-163.634
 21
-4.09093
  0
LINE
  8
0
 10
-163.634
 20
-4.09093
 11
-163.713
 21
-4.07349
  0
LINE
  8
0
 10
-163.713
 20
-4.07349
 11
-163.783
 21
-4.05711
  0
LINE
  8
0
 10
-163.783
 20
-4.05711
 11
-163.845
 21
-4.04152
  0
LINE
  8
0
 10
-163.845
 20
-4.04152
 11
-163.899
 21
-4.02686
  0
LINE
  8
0
 10
-163.899
 20
-4.02686
 11
-163.945
 21
-4.01323
  0
LINE
  8
0
 10
-163.945
 20
-4.01323
 11
-163.981
 21
-4.00084
  0
LINE
  8
0
 10
-163.981
 20
-4.00084
 11
-164.01
 21
-3.98955
  0
LINE
  8
0
 10
-164.01
 20
-3.98955
 11
-164.033
 21
-3.97859
  0
LINE
  8
0
 10
-164.033
 20
-3.97859
 11
-164.055
 21
-3.96683
  0
LINE
  8
0
 10
-164.055
 20
-3.96683
 11
-164.075
 21
-3.95491
  0
LINE
  8
0
 10
-164.075
 20
-3.95491
 11
-164.093
 21
-3.94223
  0
LINE
  8
0
 10
-164.093
 20
-3.94223
 11
-164.108
 21
-3.92957
  0
LINE
  8
0
 10
-164.108
 20
-3.92957
 11
-164.122
 21
-3.91637
  0
LINE
  8
0
 10
-164.122
 20
-3.91637
 11
-164.134
 21
-3.90327
  0
LINE
  8
0
 10
-164.134
 20
-3.90327
 11
-164.144
 21
-3.88982
  0
LINE
  8
0
 10
-164.144
 20
-3.88982
 11
-164.152
 21
-3.87552
  0
LINE
  8
0
 10
-164.152
 20
-3.87552
 11
-164.159
 21
-3.85991
  0
LINE
  8
0
 10
-164.159
 20
-3.85991
 11
-164.164
 21
-3.84299
  0
LINE
  8
0
 10
-164.164
 20
-3.84299
 11
-164.168
 21
-3.8243
  0
LINE
  8
0
 10
-164.168
 20
-3.8243
 11
-164.17
 21
-3.80399
  0
LINE
  8
0
 10
-164.17
 20
-3.80399
 11
-164.171
 21
-3.78413
  0
LINE
  8
0
 10
-164.171
 20
-3.78413
 11
-164.163
 21
-3.71977
  0
LINE
  8
0
 10
-164.163
 20
-3.71977
 11
-164.142
 21
-3.66975
  0
LINE
  8
0
 10
-164.142
 20
-3.66975
 11
-164.105
 21
-3.62877
  0
LINE
  8
0
 10
-164.105
 20
-3.62877
 11
-164.051
 21
-3.59488
  0
LINE
  8
0
 10
-164.051
 20
-3.59488
 11
-163.977
 21
-3.56905
  0
LINE
  8
0
 10
-163.977
 20
-3.56905
 11
-163.882
 21
-3.55281
  0
LINE
  8
0
 10
-163.882
 20
-3.55281
 11
-163.767
 21
-3.54724
  0
LINE
  8
0
 10
-163.767
 20
-3.54724
 11
-163.711
 21
-3.54877
  0
LINE
  8
0
 10
-163.711
 20
-3.54877
 11
-163.659
 21
-3.55322
  0
LINE
  8
0
 10
-163.659
 20
-3.55322
 11
-163.612
 21
-3.56064
  0
LINE
  8
0
 10
-163.612
 20
-3.56064
 11
-163.569
 21
-3.57082
  0
LINE
  8
0
 10
-163.569
 20
-3.57082
 11
-163.531
 21
-3.58362
  0
LINE
  8
0
 10
-163.531
 20
-3.58362
 11
-163.497
 21
-3.59891
  0
LINE
  8
0
 10
-163.497
 20
-3.59891
 11
-163.467
 21
-3.6167
  0
LINE
  8
0
 10
-163.467
 20
-3.6167
 11
-163.441
 21
-3.63699
  0
LINE
  8
0
 10
-163.441
 20
-3.63699
 11
-163.417
 21
-3.66003
  0
LINE
  8
0
 10
-163.417
 20
-3.66003
 11
-163.395
 21
-3.68585
  0
LINE
  8
0
 10
-163.395
 20
-3.68585
 11
-163.377
 21
-3.71429
  0
LINE
  8
0
 10
-163.377
 20
-3.71429
 11
-163.36
 21
-3.74609
  0
LINE
  8
0
 10
-163.36
 20
-3.74609
 11
-163.347
 21
-3.78098
  0
LINE
  8
0
 10
-163.347
 20
-3.78098
 11
-163.323
 21
-3.86285
  0
LINE
  8
0
 10
-163.323
 20
-3.86285
 11
-162.74
 21
-3.78336
  0
LINE
  8
0
 10
-162.74
 20
-3.78336
 11
-162.776
 21
-3.63922
  0
LINE
  8
0
 10
-162.776
 20
-3.63922
 11
-162.806
 21
-3.55405
  0
LINE
  8
0
 10
-162.806
 20
-3.55405
 11
-162.843
 21
-3.47597
  0
LINE
  8
0
 10
-162.843
 20
-3.47597
 11
-162.887
 21
-3.4052
  0
LINE
  8
0
 10
-162.887
 20
-3.4052
 11
-162.939
 21
-3.342
  0
LINE
  8
0
 10
-162.939
 20
-3.342
 11
-162.997
 21
-3.28665
  0
LINE
  8
0
 10
-162.997
 20
-3.28665
 11
-163.063
 21
-3.23946
  0
LINE
  8
0
 10
-163.063
 20
-3.23946
 11
-163.137
 21
-3.19972
  0
LINE
  8
0
 10
-163.137
 20
-3.19972
 11
-163.219
 21
-3.16656
  0
LINE
  8
0
 10
-163.219
 20
-3.16656
 11
-163.309
 21
-3.13976
  0
LINE
  8
0
 10
-163.309
 20
-3.13976
 11
-163.408
 21
-3.11913
  0
LINE
  8
0
 10
-163.408
 20
-3.11913
 11
-163.516
 21
-3.10449
  0
LINE
  8
0
 10
-163.516
 20
-3.10449
 11
-163.632
 21
-3.09576
  0
LINE
  8
0
 10
-163.632
 20
-3.09576
 11
-163.757
 21
-3.09286
  0
LINE
  8
0
 10
-163.757
 20
-3.09286
 11
-163.888
 21
-3.09647
  0
LINE
  8
0
 10
-163.888
 20
-3.09647
 11
-164.01
 21
-3.10728
  0
LINE
  8
0
 10
-164.01
 20
-3.10728
 11
-164.124
 21
-3.12544
  0
LINE
  8
0
 10
-164.124
 20
-3.12544
 11
-164.229
 21
-3.15105
  0
LINE
  8
0
 10
-164.229
 20
-3.15105
 11
-164.326
 21
-3.18423
  0
LINE
  8
0
 10
-164.326
 20
-3.18423
 11
-164.414
 21
-3.22522
  0
LINE
  8
0
 10
-164.414
 20
-3.22522
 11
-164.494
 21
-3.27408
  0
LINE
  8
0
 10
-164.494
 20
-3.27408
 11
-164.563
 21
-3.33055
  0
LINE
  8
0
 10
-164.563
 20
-3.33055
 11
-164.623
 21
-3.39423
  0
LINE
  8
0
 10
-164.623
 20
-3.39423
 11
-164.672
 21
-3.46497
  0
LINE
  8
0
 10
-164.672
 20
-3.46497
 11
-164.71
 21
-3.54239
  0
LINE
  8
0
 10
-164.71
 20
-3.54239
 11
-164.737
 21
-3.62607
  0
LINE
  8
0
 10
-164.737
 20
-3.62607
 11
-164.753
 21
-3.71561
  0
LINE
  8
0
 10
-164.753
 20
-3.71561
 11
-164.758
 21
-3.80992
  0
LINE
  8
0
 10
-164.758
 20
-3.80992
 11
-164.757
 21
-3.84851
  0
LINE
  8
0
 10
-164.757
 20
-3.84851
 11
-164.755
 21
-3.88513
  0
LINE
  8
0
 10
-164.755
 20
-3.88513
 11
-164.751
 21
-3.92067
  0
LINE
  8
0
 10
-164.751
 20
-3.92067
 11
-164.746
 21
-3.95517
  0
LINE
  8
0
 10
-164.746
 20
-3.95517
 11
-164.74
 21
-3.98862
  0
LINE
  8
0
 10
-164.74
 20
-3.98862
 11
-164.732
 21
-4.02098
  0
LINE
  8
0
 10
-164.732
 20
-4.02098
 11
-164.722
 21
-4.05214
  0
LINE
  8
0
 10
-164.722
 20
-4.05214
 11
-164.711
 21
-4.08202
  0
LINE
  8
0
 10
-164.711
 20
-4.08202
 11
-164.699
 21
-4.11078
  0
LINE
  8
0
 10
-164.699
 20
-4.11078
 11
-164.686
 21
-4.13855
  0
LINE
  8
0
 10
-164.686
 20
-4.13855
 11
-164.672
 21
-4.16527
  0
LINE
  8
0
 10
-164.672
 20
-4.16527
 11
-164.656
 21
-4.19096
  0
LINE
  8
0
 10
-164.656
 20
-4.19096
 11
-164.639
 21
-4.21558
  0
LINE
  8
0
 10
-164.639
 20
-4.21558
 11
-164.621
 21
-4.23906
  0
LINE
  8
0
 10
-164.621
 20
-4.23906
 11
-164.602
 21
-4.26143
  0
LINE
  8
0
 10
-164.602
 20
-4.26143
 11
-164.582
 21
-4.28278
  0
LINE
  8
0
 10
-164.582
 20
-4.28278
 11
-164.561
 21
-4.30315
  0
LINE
  8
0
 10
-164.561
 20
-4.30315
 11
-164.538
 21
-4.32254
  0
LINE
  8
0
 10
-164.538
 20
-4.32254
 11
-164.515
 21
-4.34096
  0
LINE
  8
0
 10
-164.515
 20
-4.34096
 11
-164.49
 21
-4.3584
  0
LINE
  8
0
 10
-164.49
 20
-4.3584
 11
-164.465
 21
-4.37477
  0
LINE
  8
0
 10
-164.465
 20
-4.37477
 11
-164.438
 21
-4.39015
  0
LINE
  8
0
 10
-164.438
 20
-4.39015
 11
-164.412
 21
-4.40482
  0
LINE
  8
0
 10
-164.412
 20
-4.40482
 11
-164.384
 21
-4.41888
  0
LINE
  8
0
 10
-164.384
 20
-4.41888
 11
-164.356
 21
-4.43231
  0
LINE
  8
0
 10
-164.356
 20
-4.43231
 11
-164.326
 21
-4.44516
  0
LINE
  8
0
 10
-164.326
 20
-4.44516
 11
-164.296
 21
-4.45738
  0
LINE
  8
0
 10
-164.296
 20
-4.45738
 11
-164.265
 21
-4.46906
  0
LINE
  8
0
 10
-164.265
 20
-4.46906
 11
-164.231
 21
-4.48094
  0
LINE
  8
0
 10
-164.231
 20
-4.48094
 11
-164.189
 21
-4.4937
  0
LINE
  8
0
 10
-164.189
 20
-4.4937
 11
-164.142
 21
-4.50735
  0
LINE
  8
0
 10
-164.142
 20
-4.50735
 11
-164.088
 21
-4.52196
  0
LINE
  8
0
 10
-164.088
 20
-4.52196
 11
-164.027
 21
-4.53751
  0
LINE
  8
0
 10
-164.027
 20
-4.53751
 11
-163.96
 21
-4.55403
  0
LINE
  8
0
 10
-163.96
 20
-4.55403
 11
-163.886
 21
-4.57166
  0
LINE
  8
0
 10
-163.886
 20
-4.57166
 11
-163.802
 21
-4.58925
  0
LINE
  8
0
 10
-163.802
 20
-4.58925
 11
-163.726
 21
-4.60585
  0
LINE
  8
0
 10
-163.726
 20
-4.60585
 11
-163.658
 21
-4.6218
  0
LINE
  8
0
 10
-163.658
 20
-4.6218
 11
-163.599
 21
-4.63689
  0
LINE
  8
0
 10
-163.599
 20
-4.63689
 11
-163.549
 21
-4.65085
  0
LINE
  8
0
 10
-163.549
 20
-4.65085
 11
-163.507
 21
-4.66406
  0
LINE
  8
0
 10
-163.507
 20
-4.66406
 11
-163.475
 21
-4.67609
  0
LINE
  8
0
 10
-163.475
 20
-4.67609
 11
-163.447
 21
-4.68814
  0
LINE
  8
0
 10
-163.447
 20
-4.68814
 11
-163.421
 21
-4.70088
  0
LINE
  8
0
 10
-163.421
 20
-4.70088
 11
-163.397
 21
-4.71423
  0
LINE
  8
0
 10
-163.397
 20
-4.71423
 11
-163.376
 21
-4.72829
  0
LINE
  8
0
 10
-163.376
 20
-4.72829
 11
-163.356
 21
-4.74277
  0
LINE
  8
0
 10
-163.356
 20
-4.74277
 11
-163.339
 21
-4.75797
  0
LINE
  8
0
 10
-163.339
 20
-4.75797
 11
-163.324
 21
-4.77327
  0
LINE
  8
0
 10
-163.324
 20
-4.77327
 11
-163.311
 21
-4.78894
  0
LINE
  8
0
 10
-163.311
 20
-4.78894
 11
-163.301
 21
-4.80508
  0
LINE
  8
0
 10
-163.301
 20
-4.80508
 11
-163.292
 21
-4.82257
  0
LINE
  8
0
 10
-163.292
 20
-4.82257
 11
-163.285
 21
-4.84143
  0
LINE
  8
0
 10
-163.285
 20
-4.84143
 11
-163.28
 21
-4.86169
  0
LINE
  8
0
 10
-163.28
 20
-4.86169
 11
-163.277
 21
-4.88387
  0
LINE
  8
0
 10
-163.277
 20
-4.88387
 11
-163.276
 21
-4.90565
  0
LINE
  8
0
 10
-163.276
 20
-4.90565
 11
-163.286
 21
-4.97862
  0
LINE
  8
0
 10
-163.286
 20
-4.97862
 11
-163.311
 21
-5.036
  0
LINE
  8
0
 10
-163.311
 20
-5.036
 11
-163.355
 21
-5.08339
  0
LINE
  8
0
 10
-163.355
 20
-5.08339
 11
-163.418
 21
-5.12228
  0
LINE
  8
0
 10
-163.418
 20
-5.12228
 11
-163.506
 21
-5.15173
  0
LINE
  8
0
 10
-163.506
 20
-5.15173
 11
-163.616
 21
-5.17012
  0
LINE
  8
0
 10
-163.616
 20
-5.17012
 11
-163.75
 21
-5.17639
  0
LINE
  8
0
 10
-163.75
 20
-5.17639
 11
-163.817
 21
-5.17471
  0
LINE
  8
0
 10
-163.817
 20
-5.17471
 11
-163.88
 21
-5.16974
  0
LINE
  8
0
 10
-163.88
 20
-5.16974
 11
-163.938
 21
-5.16144
  0
LINE
  8
0
 10
-163.938
 20
-5.16144
 11
-163.99
 21
-5.15004
  0
LINE
  8
0
 10
-163.99
 20
-5.15004
 11
-164.038
 21
-5.13559
  0
LINE
  8
0
 10
-164.038
 20
-5.13559
 11
-164.081
 21
-5.11815
  0
LINE
  8
0
 10
-164.081
 20
-5.11815
 11
-164.119
 21
-5.09796
  0
LINE
  8
0
 10
-164.119
 20
-5.09796
 11
-164.153
 21
-5.07468
  0
LINE
  8
0
 10
-164.153
 20
-5.07468
 11
-164.183
 21
-5.0479
  0
LINE
  8
0
 10
-164.183
 20
-5.0479
 11
-164.211
 21
-5.01724
  0
LINE
  8
0
 10
-164.211
 20
-5.01724
 11
-164.235
 21
-4.98274
  0
LINE
  8
0
 10
-164.235
 20
-4.98274
 11
-164.256
 21
-4.94386
  0
LINE
  8
0
 10
-164.256
 20
-4.94386
 11
-164.274
 21
-4.90051
  0
LINE
  8
0
 10
-164.274
 20
-4.90051
 11
-164.302
 21
-4.80888
  0
LINE
  8
0
 10
-164.302
 20
-4.80888
 11
-164.883
 21
-4.90471
  0
LINE
  8
0
 10
-164.883
 20
-4.90471
 11
-164.842
 21
-5.05177
  0
LINE
  8
0
 10
-164.842
 20
-5.05177
 11
-164.808
 21
-5.14088
  0
LINE
  8
0
 10
-164.808
 20
-5.14088
 11
-164.765
 21
-5.22324
  0
LINE
  8
0
 10
-164.765
 20
-5.22324
 11
-164.713
 21
-5.29863
  0
LINE
  8
0
 10
-164.713
 20
-5.29863
 11
-164.654
 21
-5.36679
  0
LINE
  8
0
 10
-164.654
 20
-5.36679
 11
-164.586
 21
-5.42755
  0
LINE
  8
0
 10
-164.586
 20
-5.42755
 11
-164.511
 21
-5.4808
  0
LINE
  8
0
 10
-164.511
 20
-5.4808
 11
-164.427
 21
-5.52658
  0
LINE
  8
0
 10
-164.427
 20
-5.52658
 11
-164.336
 21
-5.56502
  0
LINE
  8
0
 10
-164.336
 20
-5.56502
 11
-164.237
 21
-5.59624
  0
LINE
  8
0
 10
-164.237
 20
-5.59624
 11
-164.13
 21
-5.62036
  0
LINE
  8
0
 10
-164.13
 20
-5.62036
 11
-164.016
 21
-5.63748
  0
LINE
  8
0
 10
-164.016
 20
-5.63748
 11
-163.894
 21
-5.64769
  0
LINE
  8
0
 10
-163.894
 20
-5.64769
 11
-163.764
 21
-5.65109
  0
LINE
  8
0
 10
-163.764
 20
-5.65109
 11
-163.622
 21
-5.64723
  0
LINE
  8
0
 10
-147.973
 20
-3.12848
 11
-148.598
 21
-3.12848
  0
LINE
  8
0
 10
-148.598
 20
-3.12848
 11
-149.1
 21
-4.6983
  0
LINE
  8
0
 10
-149.1
 20
-4.6983
 11
-149.175
 21
-4.96523
  0
LINE
  8
0
 10
-149.175
 20
-4.96523
 11
-149.188
 21
-4.91977
  0
LINE
  8
0
 10
-149.188
 20
-4.91977
 11
-149.206
 21
-4.8551
  0
LINE
  8
0
 10
-149.206
 20
-4.8551
 11
-149.222
 21
-4.7966
  0
LINE
  8
0
 10
-149.222
 20
-4.7966
 11
-149.237
 21
-4.74426
  0
LINE
  8
0
 10
-149.237
 20
-4.74426
 11
-149.251
 21
-4.69788
  0
LINE
  8
0
 10
-149.251
 20
-4.69788
 11
-149.754
 21
-3.12848
  0
LINE
  8
0
 10
-149.754
 20
-3.12848
 11
-150.385
 21
-3.12848
  0
LINE
  8
0
 10
-150.385
 20
-3.12848
 11
-149.464
 21
-5.61717
  0
LINE
  8
0
 10
-149.464
 20
-5.61717
 11
-148.888
 21
-5.61717
  0
LINE
  8
0
 10
-148.888
 20
-5.61717
 11
-147.973
 21
-3.12848
  0
LINE
  8
0
 10
-145.835
 20
-5.61412
 11
-145.738
 21
-5.60487
  0
LINE
  8
0
 10
-145.738
 20
-5.60487
 11
-145.645
 21
-5.58943
  0
LINE
  8
0
 10
-145.645
 20
-5.58943
 11
-145.555
 21
-5.56775
  0
LINE
  8
0
 10
-145.555
 20
-5.56775
 11
-145.467
 21
-5.53983
  0
LINE
  8
0
 10
-145.467
 20
-5.53983
 11
-145.383
 21
-5.50565
  0
LINE
  8
0
 10
-145.383
 20
-5.50565
 11
-145.302
 21
-5.46521
  0
LINE
  8
0
 10
-145.302
 20
-5.46521
 11
-145.226
 21
-5.41879
  0
LINE
  8
0
 10
-145.226
 20
-5.41879
 11
-145.154
 21
-5.3667
  0
LINE
  8
0
 10
-145.154
 20
-5.3667
 11
-145.087
 21
-5.30901
  0
LINE
  8
0
 10
-145.087
 20
-5.30901
 11
-145.025
 21
-5.24576
  0
LINE
  8
0
 10
-145.025
 20
-5.24576
 11
-144.969
 21
-5.17702
  0
LINE
  8
0
 10
-144.969
 20
-5.17702
 11
-144.918
 21
-5.10287
  0
LINE
  8
0
 10
-144.918
 20
-5.10287
 11
-144.872
 21
-5.02338
  0
LINE
  8
0
 10
-144.872
 20
-5.02338
 11
-144.832
 21
-4.93924
  0
LINE
  8
0
 10
-144.832
 20
-4.93924
 11
-144.798
 21
-4.85121
  0
LINE
  8
0
 10
-144.798
 20
-4.85121
 11
-144.77
 21
-4.75938
  0
LINE
  8
0
 10
-144.77
 20
-4.75938
 11
-144.749
 21
-4.66382
  0
LINE
  8
0
 10
-144.749
 20
-4.66382
 11
-144.734
 21
-4.56456
  0
LINE
  8
0
 10
-144.734
 20
-4.56456
 11
-144.724
 21
-4.46162
  0
LINE
  8
0
 10
-144.724
 20
-4.46162
 11
-144.721
 21
-4.35468
  0
LINE
  8
0
 10
-144.721
 20
-4.35468
 11
-144.728
 21
-4.19363
  0
LINE
  8
0
 10
-144.728
 20
-4.19363
 11
-144.749
 21
-4.04253
  0
LINE
  8
0
 10
-144.749
 20
-4.04253
 11
-144.784
 21
-3.90172
  0
LINE
  8
0
 10
-144.784
 20
-3.90172
 11
-144.834
 21
-3.77136
  0
LINE
  8
0
 10
-144.834
 20
-3.77136
 11
-144.897
 21
-3.65173
  0
LINE
  8
0
 10
-144.897
 20
-3.65173
 11
-144.976
 21
-3.54317
  0
LINE
  8
0
 10
-144.976
 20
-3.54317
 11
-145.068
 21
-3.44598
  0
LINE
  8
0
 10
-145.068
 20
-3.44598
 11
-145.173
 21
-3.36115
  0
LINE
  8
0
 10
-145.173
 20
-3.36115
 11
-145.29
 21
-3.28955
  0
LINE
  8
0
 10
-145.29
 20
-3.28955
 11
-145.417
 21
-3.2312
  0
LINE
  8
0
 10
-145.417
 20
-3.2312
 11
-145.556
 21
-3.18605
  0
LINE
  8
0
 10
-145.556
 20
-3.18605
 11
-145.705
 21
-3.15396
  0
LINE
  8
0
 10
-145.705
 20
-3.15396
 11
-145.865
 21
-3.1348
  0
LINE
  8
0
 10
-145.865
 20
-3.1348
 11
-146.035
 21
-3.12848
  0
LINE
  8
0
 10
-146.035
 20
-3.12848
 11
-146.951
 21
-3.12848
  0
LINE
  8
0
 10
-146.951
 20
-3.12848
 11
-146.951
 21
-5.61717
  0
LINE
  8
0
 10
-146.951
 20
-5.61717
 11
-145.934
 21
-5.61717
  0
LINE
  8
0
 10
-145.934
 20
-5.61717
 11
-145.835
 21
-5.61412
  0
LINE
  8
0
 10
-146.351
 20
-5.13065
 11
-146.351
 21
-3.61502
  0
LINE
  8
0
 10
-146.351
 20
-3.61502
 11
-146.047
 21
-3.61502
  0
LINE
  8
0
 10
-146.047
 20
-3.61502
 11
-145.948
 21
-3.61902
  0
LINE
  8
0
 10
-145.948
 20
-3.61902
 11
-145.857
 21
-3.63083
  0
LINE
  8
0
 10
-145.857
 20
-3.63083
 11
-145.774
 21
-3.65027
  0
LINE
  8
0
 10
-145.774
 20
-3.65027
 11
-145.697
 21
-3.67732
  0
LINE
  8
0
 10
-145.697
 20
-3.67732
 11
-145.628
 21
-3.71164
  0
LINE
  8
0
 10
-145.628
 20
-3.71164
 11
-145.566
 21
-3.75349
  0
LINE
  8
0
 10
-145.566
 20
-3.75349
 11
-145.511
 21
-3.80283
  0
LINE
  8
0
 10
-145.511
 20
-3.80283
 11
-145.462
 21
-3.85927
  0
LINE
  8
0
 10
-145.462
 20
-3.85927
 11
-145.421
 21
-3.92281
  0
LINE
  8
0
 10
-145.421
 20
-3.92281
 11
-145.387
 21
-3.99374
  0
LINE
  8
0
 10
-145.387
 20
-3.99374
 11
-145.36
 21
-4.07219
  0
LINE
  8
0
 10
-145.36
 20
-4.07219
 11
-145.34
 21
-4.15857
  0
LINE
  8
0
 10
-145.34
 20
-4.15857
 11
-145.329
 21
-4.25293
  0
LINE
  8
0
 10
-145.329
 20
-4.25293
 11
-145.325
 21
-4.35504
  0
LINE
  8
0
 10
-145.325
 20
-4.35504
 11
-145.329
 21
-4.45692
  0
LINE
  8
0
 10
-145.329
 20
-4.45692
 11
-145.34
 21
-4.55194
  0
LINE
  8
0
 10
-145.34
 20
-4.55194
 11
-145.358
 21
-4.64011
  0
LINE
  8
0
 10
-145.358
 20
-4.64011
 11
-145.384
 21
-4.72141
  0
LINE
  8
0
 10
-145.384
 20
-4.72141
 11
-145.416
 21
-4.79591
  0
LINE
  8
0
 10
-145.416
 20
-4.79591
 11
-145.456
 21
-4.8642
  0
LINE
  8
0
 10
-145.456
 20
-4.8642
 11
-145.503
 21
-4.92593
  0
LINE
  8
0
 10
-145.503
 20
-4.92593
 11
-145.555
 21
-4.98045
  0
LINE
  8
0
 10
-145.555
 20
-4.98045
 11
-145.613
 21
-5.02626
  0
LINE
  8
0
 10
-145.613
 20
-5.02626
 11
-145.675
 21
-5.06358
  0
LINE
  8
0
 10
-145.675
 20
-5.06358
 11
-145.742
 21
-5.09273
  0
LINE
  8
0
 10
-145.742
 20
-5.09273
 11
-145.814
 21
-5.11362
  0
LINE
  8
0
 10
-145.814
 20
-5.11362
 11
-145.893
 21
-5.12631
  0
LINE
  8
0
 10
-145.893
 20
-5.12631
 11
-145.978
 21
-5.13065
  0
LINE
  8
0
 10
-145.978
 20
-5.13065
 11
-146.351
 21
-5.13065
  0
LINE
  8
0
 10
-152.097
 20
-5.64636
 11
-151.985
 21
-5.63202
  0
LINE
  8
0
 10
-151.985
 20
-5.63202
 11
-151.881
 21
-5.60794
  0
LINE
  8
0
 10
-151.881
 20
-5.60794
 11
-151.783
 21
-5.57402
  0
LINE
  8
0
 10
-151.783
 20
-5.57402
 11
-151.692
 21
-5.53017
  0
LINE
  8
0
 10
-151.692
 20
-5.53017
 11
-151.608
 21
-5.47639
  0
LINE
  8
0
 10
-151.608
 20
-5.47639
 11
-151.532
 21
-5.4128
  0
LINE
  8
0
 10
-151.532
 20
-5.4128
 11
-151.465
 21
-5.34088
  0
LINE
  8
0
 10
-151.465
 20
-5.34088
 11
-151.408
 21
-5.26208
  0
LINE
  8
0
 10
-151.408
 20
-5.26208
 11
-151.362
 21
-5.17654
  0
LINE
  8
0
 10
-151.362
 20
-5.17654
 11
-151.326
 21
-5.08453
  0
LINE
  8
0
 10
-151.326
 20
-5.08453
 11
-151.3
 21
-4.98636
  0
LINE
  8
0
 10
-151.3
 20
-4.98636
 11
-151.285
 21
-4.88219
  0
LINE
  8
0
 10
-151.285
 20
-4.88219
 11
-151.28
 21
-4.77219
  0
LINE
  8
0
 10
-151.28
 20
-4.77219
 11
-151.285
 21
-4.66675
  0
LINE
  8
0
 10
-151.285
 20
-4.66675
 11
-151.298
 21
-4.56723
  0
LINE
  8
0
 10
-151.298
 20
-4.56723
 11
-151.32
 21
-4.47354
  0
LINE
  8
0
 10
-151.32
 20
-4.47354
 11
-151.351
 21
-4.38586
  0
LINE
  8
0
 10
-151.351
 20
-4.38586
 11
-151.391
 21
-4.30437
  0
LINE
  8
0
 10
-151.391
 20
-4.30437
 11
-151.44
 21
-4.22931
  0
LINE
  8
0
 10
-151.44
 20
-4.22931
 11
-151.498
 21
-4.16095
  0
LINE
  8
0
 10
-151.498
 20
-4.16095
 11
-151.564
 21
-4.10056
  0
LINE
  8
0
 10
-151.564
 20
-4.10056
 11
-151.636
 21
-4.04936
  0
LINE
  8
0
 10
-151.636
 20
-4.04936
 11
-151.714
 21
-4.00748
  0
LINE
  8
0
 10
-151.714
 20
-4.00748
 11
-151.797
 21
-3.97502
  0
LINE
  8
0
 10
-151.797
 20
-3.97502
 11
-151.886
 21
-3.95198
  0
LINE
  8
0
 10
-151.886
 20
-3.95198
 11
-151.98
 21
-3.93825
  0
LINE
  8
0
 10
-151.98
 20
-3.93825
 11
-152.08
 21
-3.93372
  0
LINE
  8
0
 10
-152.08
 20
-3.93372
 11
-152.156
 21
-3.93703
  0
LINE
  8
0
 10
-152.156
 20
-3.93703
 11
-152.23
 21
-3.94701
  0
LINE
  8
0
 10
-152.23
 20
-3.94701
 11
-152.3
 21
-3.96378
  0
LINE
  8
0
 10
-152.3
 20
-3.96378
 11
-152.367
 21
-3.98735
  0
LINE
  8
0
 10
-152.367
 20
-3.98735
 11
-152.43
 21
-4.01776
  0
LINE
  8
0
 10
-152.43
 20
-4.01776
 11
-152.455
 21
-4.03336
  0
LINE
  8
0
 10
-152.455
 20
-4.03336
 11
-152.426
 21
-3.58281
  0
LINE
  8
0
 10
-152.426
 20
-3.58281
 11
-151.419
 21
-3.58281
  0
LINE
  8
0
 10
-151.419
 20
-3.58281
 11
-151.419
 21
-3.12848
  0
LINE
  8
0
 10
-151.419
 20
-3.12848
 11
-152.952
 21
-3.12848
  0
LINE
  8
0
 10
-152.952
 20
-3.12848
 11
-153.041
 21
-4.57285
  0
LINE
  8
0
 10
-153.041
 20
-4.57285
 11
-152.502
 21
-4.57285
  0
LINE
  8
0
 10
-152.502
 20
-4.57285
 11
-152.451
 21
-4.51776
  0
LINE
  8
0
 10
-152.451
 20
-4.51776
 11
-152.416
 21
-4.48743
  0
LINE
  8
0
 10
-152.416
 20
-4.48743
 11
-152.378
 21
-4.46266
  0
LINE
  8
0
 10
-152.378
 20
-4.46266
 11
-152.338
 21
-4.4435
  0
LINE
  8
0
 10
-152.338
 20
-4.4435
 11
-152.295
 21
-4.42982
  0
LINE
  8
0
 10
-152.295
 20
-4.42982
 11
-152.249
 21
-4.42151
  0
LINE
  8
0
 10
-152.249
 20
-4.42151
 11
-152.2
 21
-4.41867
  0
LINE
  8
0
 10
-152.2
 20
-4.41867
 11
-152.155
 21
-4.42073
  0
LINE
  8
0
 10
-152.155
 20
-4.42073
 11
-152.114
 21
-4.42686
  0
LINE
  8
0
 10
-152.114
 20
-4.42686
 11
-152.076
 21
-4.43683
  0
LINE
  8
0
 10
-152.076
 20
-4.43683
 11
-152.042
 21
-4.45058
  0
LINE
  8
0
 10
-152.042
 20
-4.45058
 11
-152.011
 21
-4.46803
  0
LINE
  8
0
 10
-152.011
 20
-4.46803
 11
-151.983
 21
-4.48929
  0
LINE
  8
0
 10
-151.983
 20
-4.48929
 11
-151.958
 21
-4.51465
  0
LINE
  8
0
 10
-151.958
 20
-4.51465
 11
-151.935
 21
-4.54369
  0
LINE
  8
0
 10
-151.935
 20
-4.54369
 11
-151.915
 21
-4.57558
  0
LINE
  8
0
 10
-151.915
 20
-4.57558
 11
-151.899
 21
-4.61011
  0
LINE
  8
0
 10
-151.899
 20
-4.61011
 11
-151.887
 21
-4.64821
  0
LINE
  8
0
 10
-151.887
 20
-4.64821
 11
-151.878
 21
-4.68932
  0
LINE
  8
0
 10
-151.878
 20
-4.68932
 11
-151.872
 21
-4.73421
  0
LINE
  8
0
 10
-151.872
 20
-4.73421
 11
-151.87
 21
-4.78224
  0
LINE
  8
0
 10
-151.87
 20
-4.78224
 11
-151.872
 21
-4.83746
  0
LINE
  8
0
 10
-151.872
 20
-4.83746
 11
-151.878
 21
-4.88802
  0
LINE
  8
0
 10
-151.878
 20
-4.88802
 11
-151.888
 21
-4.93407
  0
LINE
  8
0
 10
-151.888
 20
-4.93407
 11
-151.901
 21
-4.97554
  0
LINE
  8
0
 10
-151.901
 20
-4.97554
 11
-151.918
 21
-5.01277
  0
LINE
  8
0
 10
-151.918
 20
-5.01277
 11
-151.939
 21
-5.04591
  0
LINE
  8
0
 10
-151.939
 20
-5.04591
 11
-151.963
 21
-5.07535
  0
LINE
  8
0
 10
-151.963
 20
-5.07535
 11
-151.99
 21
-5.1012
  0
LINE
  8
0
 10
-151.99
 20
-5.1012
 11
-152.02
 21
-5.12289
  0
LINE
  8
0
 10
-152.02
 20
-5.12289
 11
-152.052
 21
-5.14069
  0
LINE
  8
0
 10
-152.052
 20
-5.14069
 11
-152.087
 21
-5.1546
  0
LINE
  8
0
 10
-152.087
 20
-5.1546
 11
-152.124
 21
-5.1647
  0
LINE
  8
0
 10
-152.124
 20
-5.1647
 11
-152.166
 21
-5.17088
  0
LINE
  8
0
 10
-152.166
 20
-5.17088
 11
-152.21
 21
-5.17297
  0
LINE
  8
0
 10
-152.21
 20
-5.17297
 11
-152.247
 21
-5.17169
  0
LINE
  8
0
 10
-152.247
 20
-5.17169
 11
-152.281
 21
-5.16786
  0
LINE
  8
0
 10
-152.281
 20
-5.16786
 11
-152.313
 21
-5.16165
  0
LINE
  8
0
 10
-152.313
 20
-5.16165
 11
-152.343
 21
-5.15295
  0
LINE
  8
0
 10
-152.343
 20
-5.15295
 11
-152.37
 21
-5.14201
  0
LINE
  8
0
 10
-152.37
 20
-5.14201
 11
-152.396
 21
-5.12875
  0
LINE
  8
0
 10
-152.396
 20
-5.12875
 11
-152.419
 21
-5.1133
  0
LINE
  8
0
 10
-152.419
 20
-5.1133
 11
-152.441
 21
-5.09537
  0
LINE
  8
0
 10
-152.441
 20
-5.09537
 11
-152.46
 21
-5.07474
  0
LINE
  8
0
 10
-152.46
 20
-5.07474
 11
-152.478
 21
-5.05087
  0
LINE
  8
0
 10
-152.478
 20
-5.05087
 11
-152.495
 21
-5.02348
  0
LINE
  8
0
 10
-152.495
 20
-5.02348
 11
-152.509
 21
-4.99243
  0
LINE
  8
0
 10
-152.509
 20
-4.99243
 11
-152.522
 21
-4.95795
  0
LINE
  8
0
 10
-152.522
 20
-4.95795
 11
-152.544
 21
-4.87823
  0
LINE
  8
0
 10
-152.544
 20
-4.87823
 11
-153.118
 21
-4.92523
  0
LINE
  8
0
 10
-153.118
 20
-4.92523
 11
-153.088
 21
-5.06779
  0
LINE
  8
0
 10
-153.088
 20
-5.06779
 11
-153.062
 21
-5.15134
  0
LINE
  8
0
 10
-153.062
 20
-5.15134
 11
-153.029
 21
-5.22916
  0
LINE
  8
0
 10
-153.029
 20
-5.22916
 11
-152.988
 21
-5.30106
  0
LINE
  8
0
 10
-152.988
 20
-5.30106
 11
-152.939
 21
-5.36684
  0
LINE
  8
0
 10
-152.939
 20
-5.36684
 11
-152.884
 21
-5.42628
  0
LINE
  8
0
 10
-152.884
 20
-5.42628
 11
-152.821
 21
-5.47925
  0
LINE
  8
0
 10
-152.821
 20
-5.47925
 11
-152.751
 21
-5.52531
  0
LINE
  8
0
 10
-152.751
 20
-5.52531
 11
-152.676
 21
-5.56412
  0
LINE
  8
0
 10
-152.676
 20
-5.56412
 11
-152.595
 21
-5.59567
  0
LINE
  8
0
 10
-152.595
 20
-5.59567
 11
-152.508
 21
-5.62007
  0
LINE
  8
0
 10
-152.508
 20
-5.62007
 11
-152.416
 21
-5.63737
  0
LINE
  8
0
 10
-152.416
 20
-5.63737
 11
-152.318
 21
-5.64767
  0
LINE
  8
0
 10
-152.318
 20
-5.64767
 11
-152.215
 21
-5.65111
  0
LINE
  8
0
 10
-152.215
 20
-5.65111
 11
-152.097
 21
-5.64636
  0
LINE
  8
0
 10
-161.107
 20
-5.61346
 11
-160.991
 21
-5.60223
  0
LINE
  8
0
 10
-160.991
 20
-5.60223
 11
-160.883
 21
-5.58339
  0
LINE
  8
0
 10
-160.883
 20
-5.58339
 11
-160.782
 21
-5.55681
  0
LINE
  8
0
 10
-160.782
 20
-5.55681
 11
-160.688
 21
-5.5224
  0
LINE
  8
0
 10
-160.688
 20
-5.5224
 11
-160.602
 21
-5.48003
  0
LINE
  8
0
 10
-160.602
 20
-5.48003
 11
-160.523
 21
-5.4296
  0
LINE
  8
0
 10
-160.523
 20
-5.4296
 11
-160.453
 21
-5.37157
  0
LINE
  8
0
 10
-160.453
 20
-5.37157
 11
-160.394
 21
-5.3065
  0
LINE
  8
0
 10
-160.394
 20
-5.3065
 11
-160.345
 21
-5.23459
  0
LINE
  8
0
 10
-160.345
 20
-5.23459
 11
-160.307
 21
-5.15617
  0
LINE
  8
0
 10
-160.307
 20
-5.15617
 11
-160.28
 21
-5.07166
  0
LINE
  8
0
 10
-160.28
 20
-5.07166
 11
-160.264
 21
-4.98141
  0
LINE
  8
0
 10
-160.264
 20
-4.98141
 11
-160.258
 21
-4.88589
  0
LINE
  8
0
 10
-160.258
 20
-4.88589
 11
-160.262
 21
-4.81311
  0
LINE
  8
0
 10
-160.262
 20
-4.81311
 11
-160.272
 21
-4.74409
  0
LINE
  8
0
 10
-160.272
 20
-4.74409
 11
-160.289
 21
-4.67868
  0
LINE
  8
0
 10
-160.289
 20
-4.67868
 11
-160.312
 21
-4.61705
  0
LINE
  8
0
 10
-160.312
 20
-4.61705
 11
-160.343
 21
-4.55946
  0
LINE
  8
0
 10
-160.343
 20
-4.55946
 11
-160.381
 21
-4.5062
  0
LINE
  8
0
 10
-160.381
 20
-4.5062
 11
-160.425
 21
-4.45738
  0
LINE
  8
0
 10
-160.425
 20
-4.45738
 11
-160.476
 21
-4.4135
  0
LINE
  8
0
 10
-160.476
 20
-4.4135
 11
-160.532
 21
-4.37495
  0
LINE
  8
0
 10
-160.532
 20
-4.37495
 11
-160.594
 21
-4.34181
  0
LINE
  8
0
 10
-160.594
 20
-4.34181
 11
-160.662
 21
-4.31396
  0
LINE
  8
0
 10
-160.662
 20
-4.31396
 11
-160.709
 21
-4.2993
  0
LINE
  8
0
 10
-160.709
 20
-4.2993
 11
-160.704
 21
-4.2971
  0
LINE
  8
0
 10
-160.704
 20
-4.2971
 11
-160.65
 21
-4.26772
  0
LINE
  8
0
 10
-160.65
 20
-4.26772
 11
-160.602
 21
-4.23395
  0
LINE
  8
0
 10
-160.602
 20
-4.23395
 11
-160.558
 21
-4.1958
  0
LINE
  8
0
 10
-160.558
 20
-4.1958
 11
-160.52
 21
-4.1535
  0
LINE
  8
0
 10
-160.52
 20
-4.1535
 11
-160.487
 21
-4.10793
  0
LINE
  8
0
 10
-160.487
 20
-4.10793
 11
-160.459
 21
-4.05956
  0
LINE
  8
0
 10
-160.459
 20
-4.05956
 11
-160.436
 21
-4.00839
  0
LINE
  8
0
 10
-160.436
 20
-4.00839
 11
-160.418
 21
-3.95459
  0
LINE
  8
0
 10
-160.418
 20
-3.95459
 11
-160.406
 21
-3.89832
  0
LINE
  8
0
 10
-160.406
 20
-3.89832
 11
-160.398
 21
-3.83965
  0
LINE
  8
0
 10
-160.398
 20
-3.83965
 11
-160.396
 21
-3.77824
  0
LINE
  8
0
 10
-160.396
 20
-3.77824
 11
-160.401
 21
-3.69096
  0
LINE
  8
0
 10
-160.401
 20
-3.69096
 11
-160.416
 21
-3.60864
  0
LINE
  8
0
 10
-160.416
 20
-3.60864
 11
-160.441
 21
-3.53188
  0
LINE
  8
0
 10
-160.441
 20
-3.53188
 11
-160.476
 21
-3.46109
  0
LINE
  8
0
 10
-160.476
 20
-3.46109
 11
-160.522
 21
-3.39676
  0
LINE
  8
0
 10
-160.522
 20
-3.39676
 11
-160.577
 21
-3.33925
  0
LINE
  8
0
 10
-160.577
 20
-3.33925
 11
-160.642
 21
-3.28877
  0
LINE
  8
0
 10
-160.642
 20
-3.28877
 11
-160.716
 21
-3.24541
  0
LINE
  8
0
 10
-160.716
 20
-3.24541
 11
-160.798
 21
-3.20914
  0
LINE
  8
0
 10
-160.798
 20
-3.20914
 11
-160.889
 21
-3.17979
  0
LINE
  8
0
 10
-160.889
 20
-3.17979
 11
-160.987
 21
-3.1572
  0
LINE
  8
0
 10
-160.987
 20
-3.1572
 11
-161.094
 21
-3.14117
  0
LINE
  8
0
 10
-161.094
 20
-3.14117
 11
-161.209
 21
-3.13164
  0
LINE
  8
0
 10
-161.209
 20
-3.13164
 11
-161.332
 21
-3.12848
  0
LINE
  8
0
 10
-161.332
 20
-3.12848
 11
-162.476
 21
-3.12848
  0
LINE
  8
0
 10
-162.476
 20
-3.12848
 11
-162.476
 21
-5.61717
  0
LINE
  8
0
 10
-162.476
 20
-5.61717
 11
-161.23
 21
-5.61717
  0
LINE
  8
0
 10
-161.23
 20
-5.61717
 11
-161.107
 21
-5.61346
  0
LINE
  8
0
 10
-161.876
 20
-4.09143
 11
-161.876
 21
-3.59976
  0
LINE
  8
0
 10
-161.876
 20
-3.59976
 11
-161.357
 21
-3.59976
  0
LINE
  8
0
 10
-161.357
 20
-3.59976
 11
-161.303
 21
-3.6011
  0
LINE
  8
0
 10
-161.303
 20
-3.6011
 11
-161.255
 21
-3.605
  0
LINE
  8
0
 10
-161.255
 20
-3.605
 11
-161.21
 21
-3.61147
  0
LINE
  8
0
 10
-161.21
 20
-3.61147
 11
-161.171
 21
-3.62022
  0
LINE
  8
0
 10
-161.171
 20
-3.62022
 11
-161.136
 21
-3.63129
  0
LINE
  8
0
 10
-161.136
 20
-3.63129
 11
-161.106
 21
-3.64438
  0
LINE
  8
0
 10
-161.106
 20
-3.64438
 11
-161.08
 21
-3.65919
  0
LINE
  8
0
 10
-161.08
 20
-3.65919
 11
-161.059
 21
-3.67572
  0
LINE
  8
0
 10
-161.059
 20
-3.67572
 11
-161.041
 21
-3.69476
  0
LINE
  8
0
 10
-161.041
 20
-3.69476
 11
-161.027
 21
-3.71683
  0
LINE
  8
0
 10
-161.027
 20
-3.71683
 11
-161.015
 21
-3.74269
  0
LINE
  8
0
 10
-161.015
 20
-3.74269
 11
-161.007
 21
-3.77278
  0
LINE
  8
0
 10
-161.007
 20
-3.77278
 11
-161.001
 21
-3.80743
  0
LINE
  8
0
 10
-161.001
 20
-3.80743
 11
-160.999
 21
-3.84641
  0
LINE
  8
0
 10
-160.999
 20
-3.84641
 11
-161.001
 21
-3.88197
  0
LINE
  8
0
 10
-161.001
 20
-3.88197
 11
-161.006
 21
-3.91408
  0
LINE
  8
0
 10
-161.006
 20
-3.91408
 11
-161.014
 21
-3.94249
  0
LINE
  8
0
 10
-161.014
 20
-3.94249
 11
-161.025
 21
-3.96777
  0
LINE
  8
0
 10
-161.025
 20
-3.96777
 11
-161.039
 21
-3.9902
  0
LINE
  8
0
 10
-161.039
 20
-3.9902
 11
-161.056
 21
-4.01015
  0
LINE
  8
0
 10
-161.056
 20
-4.01015
 11
-161.076
 21
-4.02788
  0
LINE
  8
0
 10
-161.076
 20
-4.02788
 11
-161.099
 21
-4.04362
  0
LINE
  8
0
 10
-161.099
 20
-4.04362
 11
-161.128
 21
-4.05751
  0
LINE
  8
0
 10
-161.128
 20
-4.05751
 11
-161.163
 21
-4.06932
  0
LINE
  8
0
 10
-161.163
 20
-4.06932
 11
-161.202
 21
-4.0788
  0
LINE
  8
0
 10
-161.202
 20
-4.0788
 11
-161.247
 21
-4.08574
  0
LINE
  8
0
 10
-161.247
 20
-4.08574
 11
-161.297
 21
-4.08998
  0
LINE
  8
0
 10
-161.297
 20
-4.08998
 11
-161.353
 21
-4.09143
  0
LINE
  8
0
 10
-161.353
 20
-4.09143
 11
-161.876
 21
-4.09143
  0
LINE
  8
0
 10
-161.876
 20
-5.14589
 11
-161.876
 21
-4.561
  0
LINE
  8
0
 10
-161.876
 20
-4.561
 11
-161.293
 21
-4.561
  0
LINE
  8
0
 10
-161.293
 20
-4.561
 11
-161.17
 21
-4.5676
  0
LINE
  8
0
 10
-161.17
 20
-4.5676
 11
-161.07
 21
-4.58667
  0
LINE
  8
0
 10
-161.07
 20
-4.58667
 11
-160.991
 21
-4.61711
  0
LINE
  8
0
 10
-160.991
 20
-4.61711
 11
-160.933
 21
-4.65746
  0
LINE
  8
0
 10
-160.933
 20
-4.65746
 11
-160.893
 21
-4.7075
  0
LINE
  8
0
 10
-160.893
 20
-4.7075
 11
-160.869
 21
-4.7697
  0
LINE
  8
0
 10
-160.869
 20
-4.7697
 11
-160.86
 21
-4.84827
  0
LINE
  8
0
 10
-160.86
 20
-4.84827
 11
-160.862
 21
-4.88982
  0
LINE
  8
0
 10
-160.862
 20
-4.88982
 11
-160.868
 21
-4.92886
  0
LINE
  8
0
 10
-160.868
 20
-4.92886
 11
-160.878
 21
-4.96371
  0
LINE
  8
0
 10
-160.878
 20
-4.96371
 11
-160.891
 21
-4.99496
  0
LINE
  8
0
 10
-160.891
 20
-4.99496
 11
-160.908
 21
-5.02261
  0
LINE
  8
0
 10
-160.908
 20
-5.02261
 11
-160.928
 21
-5.04735
  0
LINE
  8
0
 10
-160.928
 20
-5.04735
 11
-160.952
 21
-5.06909
  0
LINE
  8
0
 10
-160.952
 20
-5.06909
 11
-160.981
 21
-5.08844
  0
LINE
  8
0
 10
-160.981
 20
-5.08844
 11
-161.015
 21
-5.10526
  0
LINE
  8
0
 10
-161.015
 20
-5.10526
 11
-161.055
 21
-5.11946
  0
LINE
  8
0
 10
-161.055
 20
-5.11946
 11
-161.1
 21
-5.13081
  0
LINE
  8
0
 10
-161.1
 20
-5.13081
 11
-161.152
 21
-5.13913
  0
LINE
  8
0
 10
-161.152
 20
-5.13913
 11
-161.21
 21
-5.14417
  0
LINE
  8
0
 10
-161.21
 20
-5.14417
 11
-161.274
 21
-5.14589
  0
LINE
  8
0
 10
-161.274
 20
-5.14589
 11
-161.876
 21
-5.14589
  0
LINE
  8
0
 10
-165.998
 20
-5.64587
 11
-165.863
 21
-5.63007
  0
LINE
  8
0
 10
-165.863
 20
-5.63007
 11
-165.736
 21
-5.60358
  0
LINE
  8
0
 10
-165.736
 20
-5.60358
 11
-165.618
 21
-5.56625
  0
LINE
  8
0
 10
-165.618
 20
-5.56625
 11
-165.51
 21
-5.51797
  0
LINE
  8
0
 10
-165.51
 20
-5.51797
 11
-165.41
 21
-5.45868
  0
LINE
  8
0
 10
-165.41
 20
-5.45868
 11
-165.32
 21
-5.38841
  0
LINE
  8
0
 10
-165.32
 20
-5.38841
 11
-165.241
 21
-5.30809
  0
LINE
  8
0
 10
-165.241
 20
-5.30809
 11
-165.174
 21
-5.21878
  0
LINE
  8
0
 10
-165.174
 20
-5.21878
 11
-165.119
 21
-5.1207
  0
LINE
  8
0
 10
-165.119
 20
-5.1207
 11
-165.077
 21
-5.01419
  0
LINE
  8
0
 10
-165.077
 20
-5.01419
 11
-165.047
 21
-4.89958
  0
LINE
  8
0
 10
-165.047
 20
-4.89958
 11
-165.029
 21
-4.77704
  0
LINE
  8
0
 10
-165.029
 20
-4.77704
 11
-165.023
 21
-4.64777
  0
LINE
  8
0
 10
-165.023
 20
-4.64777
 11
-165.023
 21
-3.12848
  0
LINE
  8
0
 10
-165.023
 20
-3.12848
 11
-165.623
 21
-3.12848
  0
LINE
  8
0
 10
-165.623
 20
-3.12848
 11
-165.623
 21
-4.61508
  0
LINE
  8
0
 10
-165.623
 20
-4.61508
 11
-165.626
 21
-4.69131
  0
LINE
  8
0
 10
-165.626
 20
-4.69131
 11
-165.634
 21
-4.76086
  0
LINE
  8
0
 10
-165.634
 20
-4.76086
 11
-165.648
 21
-4.82408
  0
LINE
  8
0
 10
-165.648
 20
-4.82408
 11
-165.667
 21
-4.88174
  0
LINE
  8
0
 10
-165.667
 20
-4.88174
 11
-165.691
 21
-4.93379
  0
LINE
  8
0
 10
-165.691
 20
-4.93379
 11
-165.72
 21
-4.9803
  0
LINE
  8
0
 10
-165.72
 20
-4.9803
 11
-165.754
 21
-5.0217
  0
LINE
  8
0
 10
-165.754
 20
-5.0217
 11
-165.793
 21
-5.05791
  0
LINE
  8
0
 10
-165.793
 20
-5.05791
 11
-165.836
 21
-5.08844
  0
LINE
  8
0
 10
-165.836
 20
-5.08844
 11
-165.884
 21
-5.1136
  0
LINE
  8
0
 10
-165.884
 20
-5.1136
 11
-165.937
 21
-5.13341
  0
LINE
  8
0
 10
-165.937
 20
-5.13341
 11
-165.996
 21
-5.14775
  0
LINE
  8
0
 10
-165.996
 20
-5.14775
 11
-166.06
 21
-5.15649
  0
LINE
  8
0
 10
-166.06
 20
-5.15649
 11
-166.129
 21
-5.15942
  0
LINE
  8
0
 10
-166.129
 20
-5.15942
 11
-166.197
 21
-5.15662
  0
LINE
  8
0
 10
-166.197
 20
-5.15662
 11
-166.259
 21
-5.14828
  0
LINE
  8
0
 10
-166.259
 20
-5.14828
 11
-166.315
 21
-5.13467
  0
LINE
  8
0
 10
-166.315
 20
-5.13467
 11
-166.366
 21
-5.11583
  0
LINE
  8
0
 10
-166.366
 20
-5.11583
 11
-166.412
 21
-5.09192
  0
LINE
  8
0
 10
-166.412
 20
-5.09192
 11
-166.452
 21
-5.06302
  0
LINE
  8
0
 10
-166.452
 20
-5.06302
 11
-166.488
 21
-5.02892
  0
LINE
  8
0
 10
-166.488
 20
-5.02892
 11
-166.52
 21
-4.98947
  0
LINE
  8
0
 10
-166.52
 20
-4.98947
 11
-166.547
 21
-4.94484
  0
LINE
  8
0
 10
-166.547
 20
-4.94484
 11
-166.569
 21
-4.89441
  0
LINE
  8
0
 10
-166.569
 20
-4.89441
 11
-166.587
 21
-4.83807
  0
LINE
  8
0
 10
-166.587
 20
-4.83807
 11
-166.599
 21
-4.77585
  0
LINE
  8
0
 10
-166.599
 20
-4.77585
 11
-166.607
 21
-4.70743
  0
LINE
  8
0
 10
-166.607
 20
-4.70743
 11
-166.61
 21
-4.63216
  0
LINE
  8
0
 10
-166.61
 20
-4.63216
 11
-166.61
 21
-3.12848
  0
LINE
  8
0
 10
-166.61
 20
-3.12848
 11
-167.21
 21
-3.12848
  0
LINE
  8
0
 10
-167.21
 20
-3.12848
 11
-167.21
 21
-4.67313
  0
LINE
  8
0
 10
-167.21
 20
-4.67313
 11
-167.205
 21
-4.80023
  0
LINE
  8
0
 10
-167.205
 20
-4.80023
 11
-167.188
 21
-4.92046
  0
LINE
  8
0
 10
-167.188
 20
-4.92046
 11
-167.16
 21
-5.0327
  0
LINE
  8
0
 10
-167.16
 20
-5.0327
 11
-167.12
 21
-5.13678
  0
LINE
  8
0
 10
-167.12
 20
-5.13678
 11
-167.069
 21
-5.23245
  0
LINE
  8
0
 10
-167.069
 20
-5.23245
 11
-167.006
 21
-5.31935
  0
LINE
  8
0
 10
-167.006
 20
-5.31935
 11
-166.932
 21
-5.39725
  0
LINE
  8
0
 10
-166.932
 20
-5.39725
 11
-166.847
 21
-5.46526
  0
LINE
  8
0
 10
-166.847
 20
-5.46526
 11
-166.753
 21
-5.5226
  0
LINE
  8
0
 10
-166.753
 20
-5.5226
 11
-166.649
 21
-5.56926
  0
LINE
  8
0
 10
-166.649
 20
-5.56926
 11
-166.536
 21
-5.60527
  0
LINE
  8
0
 10
-166.536
 20
-5.60527
 11
-166.414
 21
-5.63083
  0
LINE
  8
0
 10
-166.414
 20
-5.63083
 11
-166.283
 21
-5.64606
  0
LINE
  8
0
 10
-166.283
 20
-5.64606
 11
-166.143
 21
-5.65111
  0
LINE
  8
0
 10
-166.143
 20
-5.65111
 11
-165.998
 21
-5.64587
  0
LINE
  8
0
 10
-128.996
 20
-4.68317
 11
-128.495
 21
-5.47643
  0
LINE
  8
0
 10
-128.495
 20
-5.47643
 11
-127.914
 21
-5.47643
  0
LINE
  8
0
 10
-127.914
 20
-5.47643
 11
-128.646
 21
-4.32114
  0
LINE
  8
0
 10
-128.646
 20
-4.32114
 11
-128.042
 21
-3.37851
  0
LINE
  8
0
 10
-128.042
 20
-3.37851
 11
-128.042
 21
-3.71452
  0
LINE
  8
0
 10
-128.042
 20
-3.71452
 11
-127.363
 21
-3.71452
  0
LINE
  8
0
 10
-127.363
 20
-3.71452
 11
-127.363
 21
-5.47643
  0
LINE
  8
0
 10
-127.363
 20
-5.47643
 11
-126.823
 21
-5.47643
  0
LINE
  8
0
 10
-126.823
 20
-5.47643
 11
-126.823
 21
-3.71452
  0
LINE
  8
0
 10
-126.823
 20
-3.71452
 11
-126.142
 21
-3.71452
  0
LINE
  8
0
 10
-126.142
 20
-3.71452
 11
-126.142
 21
-3.27438
  0
LINE
  8
0
 10
-126.142
 20
-3.27438
 11
-128.556
 21
-3.27438
  0
LINE
  8
0
 10
-128.556
 20
-3.27438
 11
-128.996
 21
-3.97339
  0
LINE
  8
0
 10
-128.996
 20
-3.97339
 11
-129.435
 21
-3.27438
  0
LINE
  8
0
 10
-129.435
 20
-3.27438
 11
-130.022
 21
-3.27438
  0
LINE
  8
0
 10
-130.022
 20
-3.27438
 11
-129.321
 21
-4.32118
  0
LINE
  8
0
 10
-129.321
 20
-4.32118
 11
-130.038
 21
-5.40926
  0
LINE
  8
0
 10
-130.038
 20
-5.40926
 11
-130.038
 21
-5.03629
  0
LINE
  8
0
 10
-130.038
 20
-5.03629
 11
-131.312
 21
-5.03629
  0
LINE
  8
0
 10
-131.312
 20
-5.03629
 11
-131.312
 21
-4.58279
  0
LINE
  8
0
 10
-131.312
 20
-4.58279
 11
-130.19
 21
-4.58279
  0
LINE
  8
0
 10
-130.19
 20
-4.58279
 11
-130.19
 21
-4.14265
  0
LINE
  8
0
 10
-130.19
 20
-4.14265
 11
-131.312
 21
-4.14265
  0
LINE
  8
0
 10
-131.312
 20
-4.14265
 11
-131.312
 21
-3.71452
  0
LINE
  8
0
 10
-131.312
 20
-3.71452
 11
-130.099
 21
-3.71452
  0
LINE
  8
0
 10
-130.099
 20
-3.71452
 11
-130.099
 21
-3.27438
  0
LINE
  8
0
 10
-130.099
 20
-3.27438
 11
-131.852
 21
-3.27438
  0
LINE
  8
0
 10
-131.852
 20
-3.27438
 11
-131.852
 21
-5.47643
  0
LINE
  8
0
 10
-131.852
 20
-5.47643
 11
-129.496
 21
-5.47643
  0
LINE
  8
0
 10
-129.496
 20
-5.47643
 11
-128.996
 21
-4.68317
  0
LINE
  8
0
 10
-131.908
 20
-3.27438
 11
-132.471
 21
-3.27438
  0
LINE
  8
0
 10
-132.471
 20
-3.27438
 11
-132.914
 21
-4.6601
  0
LINE
  8
0
 10
-132.914
 20
-4.6601
 11
-132.974
 21
-4.87431
  0
LINE
  8
0
 10
-132.974
 20
-4.87431
 11
-132.98
 21
-4.85512
  0
LINE
  8
0
 10
-132.98
 20
-4.85512
 11
-132.996
 21
-4.79817
  0
LINE
  8
0
 10
-132.996
 20
-4.79817
 11
-133.01
 21
-4.74666
  0
LINE
  8
0
 10
-133.01
 20
-4.74666
 11
-133.024
 21
-4.70056
  0
LINE
  8
0
 10
-133.024
 20
-4.70056
 11
-133.036
 21
-4.65968
  0
LINE
  8
0
 10
-133.036
 20
-4.65968
 11
-133.48
 21
-3.27438
  0
LINE
  8
0
 10
-133.48
 20
-3.27438
 11
-134.048
 21
-3.27438
  0
LINE
  8
0
 10
-134.048
 20
-3.27438
 11
-133.233
 21
-5.47643
  0
LINE
  8
0
 10
-133.233
 20
-5.47643
 11
-132.718
 21
-5.47643
  0
LINE
  8
0
 10
-132.718
 20
-5.47643
 11
-131.908
 21
-3.27438
  0
LINE
  8
0
 10
-112.553
 20
-5.40901
 11
-112.475
 21
-5.40346
  0
LINE
  8
0
 10
-112.475
 20
-5.40346
 11
-112.399
 21
-5.39415
  0
LINE
  8
0
 10
-112.399
 20
-5.39415
 11
-112.324
 21
-5.38113
  0
LINE
  8
0
 10
-112.324
 20
-5.38113
 11
-112.249
 21
-5.3644
  0
LINE
  8
0
 10
-112.249
 20
-5.3644
 11
-112.176
 21
-5.34392
  0
LINE
  8
0
 10
-112.176
 20
-5.34392
 11
-112.103
 21
-5.31973
  0
LINE
  8
0
 10
-112.103
 20
-5.31973
 11
-112.033
 21
-5.29218
  0
LINE
  8
0
 10
-112.033
 20
-5.29218
 11
-111.966
 21
-5.26161
  0
LINE
  8
0
 10
-111.966
 20
-5.26161
 11
-111.903
 21
-5.22807
  0
LINE
  8
0
 10
-111.903
 20
-5.22807
 11
-111.844
 21
-5.19148
  0
LINE
  8
0
 10
-111.844
 20
-5.19148
 11
-111.789
 21
-5.15186
  0
LINE
  8
0
 10
-111.789
 20
-5.15186
 11
-111.737
 21
-5.10919
  0
LINE
  8
0
 10
-111.737
 20
-5.10919
 11
-111.675
 21
-5.04999
  0
LINE
  8
0
 10
-111.675
 20
-5.04999
 11
-111.675
 21
-4.27605
  0
LINE
  8
0
 10
-111.675
 20
-4.27605
 11
-112.608
 21
-4.27605
  0
LINE
  8
0
 10
-112.608
 20
-4.27605
 11
-112.608
 21
-4.67169
  0
LINE
  8
0
 10
-112.608
 20
-4.67169
 11
-112.141
 21
-4.67169
  0
LINE
  8
0
 10
-112.141
 20
-4.67169
 11
-112.141
 21
-4.86235
  0
LINE
  8
0
 10
-112.141
 20
-4.86235
 11
-112.145
 21
-4.86572
  0
LINE
  8
0
 10
-112.145
 20
-4.86572
 11
-112.169
 21
-4.88235
  0
LINE
  8
0
 10
-112.169
 20
-4.88235
 11
-112.196
 21
-4.89819
  0
LINE
  8
0
 10
-112.196
 20
-4.89819
 11
-112.226
 21
-4.91345
  0
LINE
  8
0
 10
-112.226
 20
-4.91345
 11
-112.258
 21
-4.92784
  0
LINE
  8
0
 10
-112.258
 20
-4.92784
 11
-112.294
 21
-4.94159
  0
LINE
  8
0
 10
-112.294
 20
-4.94159
 11
-112.332
 21
-4.95438
  0
LINE
  8
0
 10
-112.332
 20
-4.95438
 11
-112.372
 21
-4.96582
  0
LINE
  8
0
 10
-112.372
 20
-4.96582
 11
-112.413
 21
-4.97557
  0
LINE
  8
0
 10
-112.413
 20
-4.97557
 11
-112.453
 21
-4.98341
  0
LINE
  8
0
 10
-112.453
 20
-4.98341
 11
-112.495
 21
-4.98965
  0
LINE
  8
0
 10
-112.495
 20
-4.98965
 11
-112.536
 21
-4.99403
  0
LINE
  8
0
 10
-112.536
 20
-4.99403
 11
-112.578
 21
-4.99667
  0
LINE
  8
0
 10
-112.578
 20
-4.99667
 11
-112.619
 21
-4.99756
  0
LINE
  8
0
 10
-112.619
 20
-4.99756
 11
-112.691
 21
-4.99414
  0
LINE
  8
0
 10
-112.691
 20
-4.99414
 11
-112.756
 21
-4.98415
  0
LINE
  8
0
 10
-112.756
 20
-4.98415
 11
-112.816
 21
-4.96767
  0
LINE
  8
0
 10
-112.816
 20
-4.96767
 11
-112.871
 21
-4.94493
  0
LINE
  8
0
 10
-112.871
 20
-4.94493
 11
-112.921
 21
-4.9158
  0
LINE
  8
0
 10
-112.921
 20
-4.9158
 11
-112.966
 21
-4.88019
  0
LINE
  8
0
 10
-112.966
 20
-4.88019
 11
-113.007
 21
-4.83812
  0
LINE
  8
0
 10
-113.007
 20
-4.83812
 11
-113.043
 21
-4.78946
  0
LINE
  8
0
 10
-113.043
 20
-4.78946
 11
-113.074
 21
-4.7352
  0
LINE
  8
0
 10
-113.074
 20
-4.7352
 11
-113.1
 21
-4.67482
  0
LINE
  8
0
 10
-113.1
 20
-4.67482
 11
-113.12
 21
-4.6082
  0
LINE
  8
0
 10
-113.12
 20
-4.6082
 11
-113.135
 21
-4.53496
  0
LINE
  8
0
 10
-113.135
 20
-4.53496
 11
-113.143
 21
-4.45544
  0
LINE
  8
0
 10
-113.143
 20
-4.45544
 11
-113.146
 21
-4.36945
  0
LINE
  8
0
 10
-113.146
 20
-4.36945
 11
-113.144
 21
-4.28488
  0
LINE
  8
0
 10
-113.144
 20
-4.28488
 11
-113.135
 21
-4.20699
  0
LINE
  8
0
 10
-113.135
 20
-4.20699
 11
-113.121
 21
-4.13541
  0
LINE
  8
0
 10
-113.121
 20
-4.13541
 11
-113.101
 21
-4.07039
  0
LINE
  8
0
 10
-113.101
 20
-4.07039
 11
-113.077
 21
-4.01173
  0
LINE
  8
0
 10
-113.077
 20
-4.01173
 11
-113.047
 21
-3.95918
  0
LINE
  8
0
 10
-113.047
 20
-3.95918
 11
-113.012
 21
-3.91251
  0
LINE
  8
0
 10
-113.012
 20
-3.91251
 11
-112.972
 21
-3.87212
  0
LINE
  8
0
 10
-112.972
 20
-3.87212
 11
-112.928
 21
-3.83801
  0
LINE
  8
0
 10
-112.928
 20
-3.83801
 11
-112.878
 21
-3.80998
  0
LINE
  8
0
 10
-112.878
 20
-3.80998
 11
-112.823
 21
-3.78792
  0
LINE
  8
0
 10
-112.823
 20
-3.78792
 11
-112.762
 21
-3.772
  0
LINE
  8
0
 10
-112.762
 20
-3.772
 11
-112.695
 21
-3.76231
  0
LINE
  8
0
 10
-112.695
 20
-3.76231
 11
-112.621
 21
-3.759
  0
LINE
  8
0
 10
-112.621
 20
-3.759
 11
-112.576
 21
-3.76042
  0
LINE
  8
0
 10
-112.576
 20
-3.76042
 11
-112.533
 21
-3.76465
  0
LINE
  8
0
 10
-112.533
 20
-3.76465
 11
-112.492
 21
-3.77162
  0
LINE
  8
0
 10
-112.492
 20
-3.77162
 11
-112.453
 21
-3.78139
  0
LINE
  8
0
 10
-112.453
 20
-3.78139
 11
-112.416
 21
-3.79384
  0
LINE
  8
0
 10
-112.416
 20
-3.79384
 11
-112.381
 21
-3.80893
  0
LINE
  8
0
 10
-112.381
 20
-3.80893
 11
-112.347
 21
-3.82671
  0
LINE
  8
0
 10
-112.347
 20
-3.82671
 11
-112.316
 21
-3.84695
  0
LINE
  8
0
 10
-112.316
 20
-3.84695
 11
-112.287
 21
-3.8696
  0
LINE
  8
0
 10
-112.287
 20
-3.8696
 11
-112.261
 21
-3.89481
  0
LINE
  8
0
 10
-112.261
 20
-3.89481
 11
-112.238
 21
-3.92238
  0
LINE
  8
0
 10
-112.238
 20
-3.92238
 11
-112.216
 21
-3.95294
  0
LINE
  8
0
 10
-112.216
 20
-3.95294
 11
-112.197
 21
-3.9861
  0
LINE
  8
0
 10
-112.197
 20
-3.9861
 11
-112.162
 21
-4.06369
  0
LINE
  8
0
 10
-112.162
 20
-4.06369
 11
-111.696
 21
-3.92317
  0
LINE
  8
0
 10
-111.696
 20
-3.92317
 11
-111.785
 21
-3.73427
  0
LINE
  8
0
 10
-111.785
 20
-3.73427
 11
-111.873
 21
-3.61443
  0
LINE
  8
0
 10
-111.873
 20
-3.61443
 11
-111.983
 21
-3.51617
  0
LINE
  8
0
 10
-111.983
 20
-3.51617
 11
-112.114
 21
-3.4402
  0
LINE
  8
0
 10
-112.114
 20
-3.4402
 11
-112.264
 21
-3.38652
  0
LINE
  8
0
 10
-112.264
 20
-3.38652
 11
-112.433
 21
-3.35472
  0
LINE
  8
0
 10
-112.433
 20
-3.35472
 11
-112.621
 21
-3.34427
  0
LINE
  8
0
 10
-112.621
 20
-3.34427
 11
-112.756
 21
-3.34956
  0
LINE
  8
0
 10
-112.756
 20
-3.34956
 11
-112.883
 21
-3.36555
  0
LINE
  8
0
 10
-112.883
 20
-3.36555
 11
-113
 21
-3.39238
  0
LINE
  8
0
 10
-113
 20
-3.39238
 11
-113.109
 21
-3.43022
  0
LINE
  8
0
 10
-113.109
 20
-3.43022
 11
-113.21
 21
-3.47916
  0
LINE
  8
0
 10
-113.21
 20
-3.47916
 11
-113.301
 21
-3.53928
  0
LINE
  8
0
 10
-113.301
 20
-3.53928
 11
-113.382
 21
-3.61043
  0
LINE
  8
0
 10
-113.382
 20
-3.61043
 11
-113.454
 21
-3.69186
  0
LINE
  8
0
 10
-113.454
 20
-3.69186
 11
-113.514
 21
-3.78271
  0
LINE
  8
0
 10
-113.514
 20
-3.78271
 11
-113.563
 21
-3.88271
  0
LINE
  8
0
 10
-113.563
 20
-3.88271
 11
-113.601
 21
-3.99153
  0
LINE
  8
0
 10
-113.601
 20
-3.99153
 11
-113.628
 21
-4.10899
  0
LINE
  8
0
 10
-113.628
 20
-4.10899
 11
-113.644
 21
-4.23495
  0
LINE
  8
0
 10
-113.644
 20
-4.23495
 11
-113.649
 21
-4.36943
  0
LINE
  8
0
 10
-113.649
 20
-4.36943
 11
-113.644
 21
-4.50475
  0
LINE
  8
0
 10
-113.644
 20
-4.50475
 11
-113.628
 21
-4.63167
  0
LINE
  8
0
 10
-113.628
 20
-4.63167
 11
-113.601
 21
-4.75023
  0
LINE
  8
0
 10
-113.601
 20
-4.75023
 11
-113.564
 21
-4.86031
  0
LINE
  8
0
 10
-113.564
 20
-4.86031
 11
-113.515
 21
-4.9617
  0
LINE
  8
0
 10
-113.515
 20
-4.9617
 11
-113.455
 21
-5.05417
  0
LINE
  8
0
 10
-113.455
 20
-5.05417
 11
-113.384
 21
-5.13742
  0
LINE
  8
0
 10
-113.384
 20
-5.13742
 11
-113.303
 21
-5.21043
  0
LINE
  8
0
 10
-113.303
 20
-5.21043
 11
-113.213
 21
-5.27216
  0
LINE
  8
0
 10
-113.213
 20
-5.27216
 11
-113.113
 21
-5.32249
  0
LINE
  8
0
 10
-113.113
 20
-5.32249
 11
-113.005
 21
-5.3614
  0
LINE
  8
0
 10
-113.005
 20
-5.3614
 11
-112.889
 21
-5.38901
  0
LINE
  8
0
 10
-112.889
 20
-5.38901
 11
-112.764
 21
-5.40546
  0
LINE
  8
0
 10
-112.764
 20
-5.40546
 11
-112.631
 21
-5.41087
  0
LINE
  8
0
 10
-112.631
 20
-5.41087
 11
-112.553
 21
-5.40901
  0
LINE
  8
0
 10
-104.967
 20
-5.40834
 11
-104.884
 21
-5.4007
  0
LINE
  8
0
 10
-104.884
 20
-5.4007
 11
-104.805
 21
-5.38789
  0
LINE
  8
0
 10
-104.805
 20
-5.38789
 11
-104.728
 21
-5.36993
  0
LINE
  8
0
 10
-104.728
 20
-5.36993
 11
-104.654
 21
-5.34676
  0
LINE
  8
0
 10
-104.654
 20
-5.34676
 11
-104.583
 21
-5.31836
  0
LINE
  8
0
 10
-104.583
 20
-5.31836
 11
-104.515
 21
-5.28473
  0
LINE
  8
0
 10
-104.515
 20
-5.28473
 11
-104.451
 21
-5.24614
  0
LINE
  8
0
 10
-104.451
 20
-5.24614
 11
-104.391
 21
-5.20284
  0
LINE
  8
0
 10
-104.391
 20
-5.20284
 11
-104.335
 21
-5.15485
  0
LINE
  8
0
 10
-104.335
 20
-5.15485
 11
-104.284
 21
-5.10225
  0
LINE
  8
0
 10
-104.284
 20
-5.10225
 11
-104.237
 21
-5.04509
  0
LINE
  8
0
 10
-104.237
 20
-5.04509
 11
-104.195
 21
-4.98346
  0
LINE
  8
0
 10
-104.195
 20
-4.98346
 11
-104.157
 21
-4.91747
  0
LINE
  8
0
 10
-104.157
 20
-4.91747
 11
-104.124
 21
-4.84781
  0
LINE
  8
0
 10
-104.124
 20
-4.84781
 11
-104.096
 21
-4.77519
  0
LINE
  8
0
 10
-104.096
 20
-4.77519
 11
-104.074
 21
-4.69966
  0
LINE
  8
0
 10
-104.074
 20
-4.69966
 11
-104.056
 21
-4.62129
  0
LINE
  8
0
 10
-104.056
 20
-4.62129
 11
-104.043
 21
-4.54012
  0
LINE
  8
0
 10
-104.043
 20
-4.54012
 11
-104.036
 21
-4.45616
  0
LINE
  8
0
 10
-104.036
 20
-4.45616
 11
-104.033
 21
-4.36913
  0
LINE
  8
0
 10
-104.033
 20
-4.36913
 11
-104.039
 21
-4.23926
  0
LINE
  8
0
 10
-104.039
 20
-4.23926
 11
-104.055
 21
-4.11658
  0
LINE
  8
0
 10
-104.055
 20
-4.11658
 11
-104.082
 21
-4.0014
  0
LINE
  8
0
 10
-104.082
 20
-4.0014
 11
-104.121
 21
-3.89389
  0
LINE
  8
0
 10
-104.121
 20
-3.89389
 11
-104.171
 21
-3.79424
  0
LINE
  8
0
 10
-104.171
 20
-3.79424
 11
-104.231
 21
-3.70273
  0
LINE
  8
0
 10
-104.231
 20
-3.70273
 11
-104.303
 21
-3.61958
  0
LINE
  8
0
 10
-104.303
 20
-3.61958
 11
-104.385
 21
-3.54623
  0
LINE
  8
0
 10
-104.385
 20
-3.54623
 11
-104.476
 21
-3.48415
  0
LINE
  8
0
 10
-104.476
 20
-3.48415
 11
-104.575
 21
-3.43346
  0
LINE
  8
0
 10
-104.575
 20
-3.43346
 11
-104.682
 21
-3.39421
  0
LINE
  8
0
 10
-104.682
 20
-3.39421
 11
-104.796
 21
-3.36638
  0
LINE
  8
0
 10
-104.796
 20
-3.36638
 11
-104.919
 21
-3.34978
  0
LINE
  8
0
 10
-104.919
 20
-3.34978
 11
-105.049
 21
-3.34427
  0
LINE
  8
0
 10
-105.049
 20
-3.34427
 11
-105.179
 21
-3.3497
  0
LINE
  8
0
 10
-105.179
 20
-3.3497
 11
-105.302
 21
-3.36613
  0
LINE
  8
0
 10
-105.302
 20
-3.36613
 11
-105.416
 21
-3.39369
  0
LINE
  8
0
 10
-105.416
 20
-3.39369
 11
-105.523
 21
-3.4325
  0
LINE
  8
0
 10
-105.523
 20
-3.4325
 11
-105.622
 21
-3.48265
  0
LINE
  8
0
 10
-105.622
 20
-3.48265
 11
-105.712
 21
-3.54413
  0
LINE
  8
0
 10
-105.712
 20
-3.54413
 11
-105.794
 21
-3.61676
  0
LINE
  8
0
 10
-105.794
 20
-3.61676
 11
-105.866
 21
-3.69936
  0
LINE
  8
0
 10
-105.866
 20
-3.69936
 11
-105.927
 21
-3.79068
  0
LINE
  8
0
 10
-105.927
 20
-3.79068
 11
-105.976
 21
-3.89044
  0
LINE
  8
0
 10
-105.976
 20
-3.89044
 11
-106.015
 21
-3.99835
  0
LINE
  8
0
 10
-106.015
 20
-3.99835
 11
-106.042
 21
-4.11424
  0
LINE
  8
0
 10
-106.042
 20
-4.11424
 11
-106.058
 21
-4.23793
  0
LINE
  8
0
 10
-106.058
 20
-4.23793
 11
-106.063
 21
-4.36945
  0
LINE
  8
0
 10
-106.063
 20
-4.36945
 11
-106.058
 21
-4.50146
  0
LINE
  8
0
 10
-106.058
 20
-4.50146
 11
-106.042
 21
-4.62589
  0
LINE
  8
0
 10
-106.042
 20
-4.62589
 11
-106.015
 21
-4.74272
  0
LINE
  8
0
 10
-106.015
 20
-4.74272
 11
-105.976
 21
-4.85184
  0
LINE
  8
0
 10
-105.976
 20
-4.85184
 11
-105.927
 21
-4.95299
  0
LINE
  8
0
 10
-105.927
 20
-4.95299
 11
-105.866
 21
-5.04596
  0
LINE
  8
0
 10
-105.866
 20
-5.04596
 11
-105.794
 21
-5.13051
  0
LINE
  8
0
 10
-105.794
 20
-5.13051
 11
-105.712
 21
-5.20515
  0
LINE
  8
0
 10
-105.712
 20
-5.20515
 11
-105.622
 21
-5.26839
  0
LINE
  8
0
 10
-105.622
 20
-5.26839
 11
-105.523
 21
-5.31999
  0
LINE
  8
0
 10
-105.523
 20
-5.31999
 11
-105.417
 21
-5.35999
  0
LINE
  8
0
 10
-105.417
 20
-5.35999
 11
-105.303
 21
-5.38838
  0
LINE
  8
0
 10
-105.303
 20
-5.38838
 11
-105.181
 21
-5.40529
  0
LINE
  8
0
 10
-105.181
 20
-5.40529
 11
-105.052
 21
-5.41089
  0
LINE
  8
0
 10
-105.052
 20
-5.41089
 11
-104.967
 21
-5.40834
  0
LINE
  8
0
 10
-105.118
 20
-4.99275
 11
-105.18
 21
-4.9826
  0
LINE
  8
0
 10
-105.18
 20
-4.9826
 11
-105.237
 21
-4.9659
  0
LINE
  8
0
 10
-105.237
 20
-4.9659
 11
-105.289
 21
-4.94276
  0
LINE
  8
0
 10
-105.289
 20
-4.94276
 11
-105.337
 21
-4.91302
  0
LINE
  8
0
 10
-105.337
 20
-4.91302
 11
-105.382
 21
-4.87659
  0
LINE
  8
0
 10
-105.382
 20
-4.87659
 11
-105.422
 21
-4.83327
  0
LINE
  8
0
 10
-105.422
 20
-4.83327
 11
-105.458
 21
-4.78362
  0
LINE
  8
0
 10
-105.458
 20
-4.78362
 11
-105.489
 21
-4.72878
  0
LINE
  8
0
 10
-105.489
 20
-4.72878
 11
-105.515
 21
-4.66846
  0
LINE
  8
0
 10
-105.515
 20
-4.66846
 11
-105.535
 21
-4.6024
  0
LINE
  8
0
 10
-105.535
 20
-4.6024
 11
-105.549
 21
-4.53053
  0
LINE
  8
0
 10
-105.549
 20
-4.53053
 11
-105.558
 21
-4.45305
  0
LINE
  8
0
 10
-105.558
 20
-4.45305
 11
-105.561
 21
-4.36945
  0
LINE
  8
0
 10
-105.561
 20
-4.36945
 11
-105.558
 21
-4.28677
  0
LINE
  8
0
 10
-105.558
 20
-4.28677
 11
-105.549
 21
-4.21013
  0
LINE
  8
0
 10
-105.549
 20
-4.21013
 11
-105.535
 21
-4.13951
  0
LINE
  8
0
 10
-105.535
 20
-4.13951
 11
-105.516
 21
-4.07484
  0
LINE
  8
0
 10
-105.516
 20
-4.07484
 11
-105.491
 21
-4.01614
  0
LINE
  8
0
 10
-105.491
 20
-4.01614
 11
-105.461
 21
-3.96312
  0
LINE
  8
0
 10
-105.461
 20
-3.96312
 11
-105.426
 21
-3.91551
  0
LINE
  8
0
 10
-105.426
 20
-3.91551
 11
-105.386
 21
-3.87405
  0
LINE
  8
0
 10
-105.386
 20
-3.87405
 11
-105.342
 21
-3.83925
  0
LINE
  8
0
 10
-105.342
 20
-3.83925
 11
-105.294
 21
-3.81067
  0
LINE
  8
0
 10
-105.294
 20
-3.81067
 11
-105.24
 21
-3.78831
  0
LINE
  8
0
 10
-105.24
 20
-3.78831
 11
-105.182
 21
-3.77219
  0
LINE
  8
0
 10
-105.182
 20
-3.77219
 11
-105.118
 21
-3.76234
  0
LINE
  8
0
 10
-105.118
 20
-3.76234
 11
-105.049
 21
-3.75903
  0
LINE
  8
0
 10
-105.049
 20
-3.75903
 11
-104.981
 21
-3.76236
  0
LINE
  8
0
 10
-104.981
 20
-3.76236
 11
-104.918
 21
-3.77223
  0
LINE
  8
0
 10
-104.918
 20
-3.77223
 11
-104.861
 21
-3.78848
  0
LINE
  8
0
 10
-104.861
 20
-3.78848
 11
-104.808
 21
-3.81094
  0
LINE
  8
0
 10
-104.808
 20
-3.81094
 11
-104.76
 21
-3.83978
  0
LINE
  8
0
 10
-104.76
 20
-3.83978
 11
-104.716
 21
-3.87486
  0
LINE
  8
0
 10
-104.716
 20
-3.87486
 11
-104.677
 21
-3.9167
  0
LINE
  8
0
 10
-104.677
 20
-3.9167
 11
-104.641
 21
-3.96466
  0
LINE
  8
0
 10
-104.641
 20
-3.96466
 11
-104.611
 21
-4.01797
  0
LINE
  8
0
 10
-104.611
 20
-4.01797
 11
-104.587
 21
-4.07666
  0
LINE
  8
0
 10
-104.587
 20
-4.07666
 11
-104.567
 21
-4.14113
  0
LINE
  8
0
 10
-104.567
 20
-4.14113
 11
-104.553
 21
-4.21126
  0
LINE
  8
0
 10
-104.553
 20
-4.21126
 11
-104.545
 21
-4.28754
  0
LINE
  8
0
 10
-104.545
 20
-4.28754
 11
-104.542
 21
-4.36952
  0
LINE
  8
0
 10
-104.542
 20
-4.36952
 11
-104.545
 21
-4.4556
  0
LINE
  8
0
 10
-104.545
 20
-4.4556
 11
-104.553
 21
-4.53516
  0
LINE
  8
0
 10
-104.553
 20
-4.53516
 11
-104.567
 21
-4.60841
  0
LINE
  8
0
 10
-104.567
 20
-4.60841
 11
-104.587
 21
-4.67506
  0
LINE
  8
0
 10
-104.587
 20
-4.67506
 11
-104.611
 21
-4.73553
  0
LINE
  8
0
 10
-104.611
 20
-4.73553
 11
-104.641
 21
-4.78964
  0
LINE
  8
0
 10
-104.641
 20
-4.78964
 11
-104.676
 21
-4.83789
  0
LINE
  8
0
 10
-104.676
 20
-4.83789
 11
-104.716
 21
-4.87985
  0
LINE
  8
0
 10
-104.716
 20
-4.87985
 11
-104.76
 21
-4.91521
  0
LINE
  8
0
 10
-104.76
 20
-4.91521
 11
-104.808
 21
-4.94395
  0
LINE
  8
0
 10
-104.808
 20
-4.94395
 11
-104.861
 21
-4.96655
  0
LINE
  8
0
 10
-104.861
 20
-4.96655
 11
-104.919
 21
-4.98286
  0
LINE
  8
0
 10
-104.919
 20
-4.98286
 11
-104.983
 21
-4.99281
  0
LINE
  8
0
 10
-104.983
 20
-4.99281
 11
-105.052
 21
-4.99615
  0
LINE
  8
0
 10
-105.052
 20
-4.99615
 11
-105.118
 21
-4.99275
  0
LINE
  8
0
 10
-109.809
 20
-4.97452
 11
-110.967
 21
-4.97452
  0
LINE
  8
0
 10
-110.967
 20
-4.97452
 11
-110.967
 21
-4.57133
  0
LINE
  8
0
 10
-110.967
 20
-4.57133
 11
-109.947
 21
-4.57133
  0
LINE
  8
0
 10
-109.947
 20
-4.57133
 11
-109.947
 21
-4.16212
  0
LINE
  8
0
 10
-109.947
 20
-4.16212
 11
-110.967
 21
-4.16212
  0
LINE
  8
0
 10
-110.967
 20
-4.16212
 11
-110.967
 21
-3.78201
  0
LINE
  8
0
 10
-110.967
 20
-3.78201
 11
-109.865
 21
-3.78201
  0
LINE
  8
0
 10
-109.865
 20
-3.78201
 11
-109.865
 21
-3.37279
  0
LINE
  8
0
 10
-109.865
 20
-3.37279
 11
-111.467
 21
-3.37279
  0
LINE
  8
0
 10
-111.467
 20
-3.37279
 11
-111.467
 21
-5.38374
  0
LINE
  8
0
 10
-111.467
 20
-5.38374
 11
-109.809
 21
-5.38374
  0
LINE
  8
0
 10
-109.809
 20
-5.38374
 11
-109.809
 21
-4.97452
  0
LINE
  8
0
 10
-119.103
 20
-5.38075
 11
-119.009
 21
-5.3717
  0
LINE
  8
0
 10
-119.009
 20
-5.3717
 11
-118.922
 21
-5.35649
  0
LINE
  8
0
 10
-118.922
 20
-5.35649
 11
-118.84
 21
-5.33499
  0
LINE
  8
0
 10
-118.84
 20
-5.33499
 11
-118.764
 21
-5.30711
  0
LINE
  8
0
 10
-118.764
 20
-5.30711
 11
-118.694
 21
-5.27274
  0
LINE
  8
0
 10
-118.694
 20
-5.27274
 11
-118.63
 21
-5.23175
  0
LINE
  8
0
 10
-118.63
 20
-5.23175
 11
-118.573
 21
-5.18451
  0
LINE
  8
0
 10
-118.573
 20
-5.18451
 11
-118.524
 21
-5.13142
  0
LINE
  8
0
 10
-118.524
 20
-5.13142
 11
-118.484
 21
-5.07269
  0
LINE
  8
0
 10
-118.484
 20
-5.07269
 11
-118.453
 21
-5.00867
  0
LINE
  8
0
 10
-118.453
 20
-5.00867
 11
-118.431
 21
-4.93973
  0
LINE
  8
0
 10
-118.431
 20
-4.93973
 11
-118.418
 21
-4.86629
  0
LINE
  8
0
 10
-118.418
 20
-4.86629
 11
-118.414
 21
-4.78876
  0
LINE
  8
0
 10
-118.414
 20
-4.78876
 11
-118.417
 21
-4.72952
  0
LINE
  8
0
 10
-118.417
 20
-4.72952
 11
-118.425
 21
-4.67329
  0
LINE
  8
0
 10
-118.425
 20
-4.67329
 11
-118.439
 21
-4.61987
  0
LINE
  8
0
 10
-118.439
 20
-4.61987
 11
-118.458
 21
-4.56947
  0
LINE
  8
0
 10
-118.458
 20
-4.56947
 11
-118.483
 21
-4.52231
  0
LINE
  8
0
 10
-118.483
 20
-4.52231
 11
-118.514
 21
-4.47868
  0
LINE
  8
0
 10
-118.514
 20
-4.47868
 11
-118.55
 21
-4.43875
  0
LINE
  8
0
 10
-118.55
 20
-4.43875
 11
-118.592
 21
-4.40286
  0
LINE
  8
0
 10
-118.592
 20
-4.40286
 11
-118.638
 21
-4.3714
  0
LINE
  8
0
 10
-118.638
 20
-4.3714
 11
-118.688
 21
-4.34439
  0
LINE
  8
0
 10
-118.688
 20
-4.34439
 11
-118.743
 21
-4.32176
  0
LINE
  8
0
 10
-118.743
 20
-4.32176
 11
-118.758
 21
-4.31705
  0
LINE
  8
0
 10
-118.758
 20
-4.31705
 11
-118.732
 21
-4.30269
  0
LINE
  8
0
 10
-118.732
 20
-4.30269
 11
-118.693
 21
-4.27505
  0
LINE
  8
0
 10
-118.693
 20
-4.27505
 11
-118.657
 21
-4.2438
  0
LINE
  8
0
 10
-118.657
 20
-4.2438
 11
-118.625
 21
-4.20914
  0
LINE
  8
0
 10
-118.625
 20
-4.20914
 11
-118.598
 21
-4.17178
  0
LINE
  8
0
 10
-118.598
 20
-4.17178
 11
-118.575
 21
-4.13219
  0
LINE
  8
0
 10
-118.575
 20
-4.13219
 11
-118.557
 21
-4.09032
  0
LINE
  8
0
 10
-118.557
 20
-4.09032
 11
-118.542
 21
-4.04633
  0
LINE
  8
0
 10
-118.542
 20
-4.04633
 11
-118.532
 21
-4.00037
  0
LINE
  8
0
 10
-118.532
 20
-4.00037
 11
-118.526
 21
-3.95255
  0
LINE
  8
0
 10
-118.526
 20
-3.95255
 11
-118.524
 21
-3.90253
  0
LINE
  8
0
 10
-118.524
 20
-3.90253
 11
-118.528
 21
-3.83159
  0
LINE
  8
0
 10
-118.528
 20
-3.83159
 11
-118.54
 21
-3.76445
  0
LINE
  8
0
 10
-118.54
 20
-3.76445
 11
-118.561
 21
-3.70169
  0
LINE
  8
0
 10
-118.561
 20
-3.70169
 11
-118.59
 21
-3.64371
  0
LINE
  8
0
 10
-118.59
 20
-3.64371
 11
-118.627
 21
-3.591
  0
LINE
  8
0
 10
-118.627
 20
-3.591
 11
-118.672
 21
-3.54395
  0
LINE
  8
0
 10
-118.672
 20
-3.54395
 11
-118.726
 21
-3.50272
  0
LINE
  8
0
 10
-118.726
 20
-3.50272
 11
-118.786
 21
-3.46741
  0
LINE
  8
0
 10
-118.786
 20
-3.46741
 11
-118.852
 21
-3.43796
  0
LINE
  8
0
 10
-118.852
 20
-3.43796
 11
-118.926
 21
-3.41418
  0
LINE
  8
0
 10
-118.926
 20
-3.41418
 11
-119.005
 21
-3.39592
  0
LINE
  8
0
 10
-119.005
 20
-3.39592
 11
-119.091
 21
-3.38301
  0
LINE
  8
0
 10
-119.091
 20
-3.38301
 11
-119.184
 21
-3.37532
  0
LINE
  8
0
 10
-119.184
 20
-3.37532
 11
-119.283
 21
-3.37279
  0
LINE
  8
0
 10
-119.283
 20
-3.37279
 11
-120.208
 21
-3.37279
  0
LINE
  8
0
 10
-120.208
 20
-3.37279
 11
-120.208
 21
-5.38374
  0
LINE
  8
0
 10
-120.208
 20
-5.38374
 11
-119.201
 21
-5.38374
  0
LINE
  8
0
 10
-119.201
 20
-5.38374
 11
-119.103
 21
-5.38075
  0
LINE
  8
0
 10
-119.708
 20
-4.14314
 11
-119.708
 21
-3.76982
  0
LINE
  8
0
 10
-119.708
 20
-3.76982
 11
-119.303
 21
-3.76982
  0
LINE
  8
0
 10
-119.303
 20
-3.76982
 11
-119.26
 21
-3.77087
  0
LINE
  8
0
 10
-119.26
 20
-3.77087
 11
-119.222
 21
-3.77394
  0
LINE
  8
0
 10
-119.222
 20
-3.77394
 11
-119.187
 21
-3.77902
  0
LINE
  8
0
 10
-119.187
 20
-3.77902
 11
-119.157
 21
-3.78584
  0
LINE
  8
0
 10
-119.157
 20
-3.78584
 11
-119.13
 21
-3.79445
  0
LINE
  8
0
 10
-119.13
 20
-3.79445
 11
-119.106
 21
-3.80446
  0
LINE
  8
0
 10
-119.106
 20
-3.80446
 11
-119.087
 21
-3.81566
  0
LINE
  8
0
 10
-119.087
 20
-3.81566
 11
-119.071
 21
-3.82796
  0
LINE
  8
0
 10
-119.071
 20
-3.82796
 11
-119.058
 21
-3.84195
  0
LINE
  8
0
 10
-119.058
 20
-3.84195
 11
-119.048
 21
-3.85831
  0
LINE
  8
0
 10
-119.048
 20
-3.85831
 11
-119.039
 21
-3.87758
  0
LINE
  8
0
 10
-119.039
 20
-3.87758
 11
-119.032
 21
-3.90039
  0
LINE
  8
0
 10
-119.032
 20
-3.90039
 11
-119.028
 21
-3.92694
  0
LINE
  8
0
 10
-119.028
 20
-3.92694
 11
-119.027
 21
-3.95714
  0
LINE
  8
0
 10
-119.027
 20
-3.95714
 11
-119.028
 21
-3.98453
  0
LINE
  8
0
 10
-119.028
 20
-3.98453
 11
-119.032
 21
-4.00916
  0
LINE
  8
0
 10
-119.032
 20
-4.00916
 11
-119.038
 21
-4.03067
  0
LINE
  8
0
 10
-119.038
 20
-4.03067
 11
-119.046
 21
-4.04955
  0
LINE
  8
0
 10
-119.046
 20
-4.04955
 11
-119.056
 21
-4.06627
  0
LINE
  8
0
 10
-119.056
 20
-4.06627
 11
-119.069
 21
-4.08115
  0
LINE
  8
0
 10
-119.069
 20
-4.08115
 11
-119.084
 21
-4.09441
  0
LINE
  8
0
 10
-119.084
 20
-4.09441
 11
-119.102
 21
-4.10616
  0
LINE
  8
0
 10
-119.102
 20
-4.10616
 11
-119.124
 21
-4.11676
  0
LINE
  8
0
 10
-119.124
 20
-4.11676
 11
-119.15
 21
-4.12581
  0
LINE
  8
0
 10
-119.15
 20
-4.12581
 11
-119.181
 21
-4.13322
  0
LINE
  8
0
 10
-119.181
 20
-4.13322
 11
-119.216
 21
-4.13867
  0
LINE
  8
0
 10
-119.216
 20
-4.13867
 11
-119.256
 21
-4.14198
  0
LINE
  8
0
 10
-119.256
 20
-4.14198
 11
-119.3
 21
-4.14314
  0
LINE
  8
0
 10
-119.3
 20
-4.14314
 11
-119.708
 21
-4.14314
  0
LINE
  8
0
 10
-119.708
 20
-4.98671
 11
-119.708
 21
-4.5388
  0
LINE
  8
0
 10
-119.708
 20
-4.5388
 11
-119.252
 21
-4.5388
  0
LINE
  8
0
 10
-119.252
 20
-4.5388
 11
-119.155
 21
-4.54402
  0
LINE
  8
0
 10
-119.155
 20
-4.54402
 11
-119.076
 21
-4.55898
  0
LINE
  8
0
 10
-119.076
 20
-4.55898
 11
-119.015
 21
-4.5826
  0
LINE
  8
0
 10
-119.015
 20
-4.5826
 11
-118.971
 21
-4.61333
  0
LINE
  8
0
 10
-118.971
 20
-4.61333
 11
-118.941
 21
-4.65105
  0
LINE
  8
0
 10
-118.941
 20
-4.65105
 11
-118.922
 21
-4.69818
  0
LINE
  8
0
 10
-118.922
 20
-4.69818
 11
-118.916
 21
-4.75893
  0
LINE
  8
0
 10
-118.916
 20
-4.75893
 11
-118.917
 21
-4.79089
  0
LINE
  8
0
 10
-118.917
 20
-4.79089
 11
-118.922
 21
-4.82098
  0
LINE
  8
0
 10
-118.922
 20
-4.82098
 11
-118.929
 21
-4.84766
  0
LINE
  8
0
 10
-118.929
 20
-4.84766
 11
-118.939
 21
-4.87144
  0
LINE
  8
0
 10
-118.939
 20
-4.87144
 11
-118.952
 21
-4.89226
  0
LINE
  8
0
 10
-118.952
 20
-4.89226
 11
-118.967
 21
-4.91093
  0
LINE
  8
0
 10
-118.967
 20
-4.91093
 11
-118.985
 21
-4.92747
  0
LINE
  8
0
 10
-118.985
 20
-4.92747
 11
-119.007
 21
-4.94205
  0
LINE
  8
0
 10
-119.007
 20
-4.94205
 11
-119.033
 21
-4.95499
  0
LINE
  8
0
 10
-119.033
 20
-4.95499
 11
-119.064
 21
-4.96599
  0
LINE
  8
0
 10
-119.064
 20
-4.96599
 11
-119.1
 21
-4.97487
  0
LINE
  8
0
 10
-119.1
 20
-4.97487
 11
-119.14
 21
-4.98137
  0
LINE
  8
0
 10
-119.14
 20
-4.98137
 11
-119.186
 21
-4.98534
  0
LINE
  8
0
 10
-119.186
 20
-4.98534
 11
-119.237
 21
-4.98671
  0
LINE
  8
0
 10
-119.237
 20
-4.98671
 11
-119.708
 21
-4.98671
  0
LINE
  8
0
 10
-122.57
 20
-4.56456
 11
-121.838
 21
-4.56456
  0
LINE
  8
0
 10
-121.838
 20
-4.56456
 11
-121.838
 21
-5.38374
  0
LINE
  8
0
 10
-121.838
 20
-5.38374
 11
-121.337
 21
-5.38374
  0
LINE
  8
0
 10
-121.337
 20
-5.38374
 11
-121.337
 21
-3.37279
  0
LINE
  8
0
 10
-121.337
 20
-3.37279
 11
-121.838
 21
-3.37279
  0
LINE
  8
0
 10
-121.838
 20
-3.37279
 11
-121.838
 21
-4.13365
  0
LINE
  8
0
 10
-121.838
 20
-4.13365
 11
-122.57
 21
-4.13365
  0
LINE
  8
0
 10
-122.57
 20
-4.13365
 11
-122.57
 21
-3.37279
  0
LINE
  8
0
 10
-122.57
 20
-3.37279
 11
-123.07
 21
-3.37279
  0
LINE
  8
0
 10
-123.07
 20
-3.37279
 11
-123.07
 21
-5.38374
  0
LINE
  8
0
 10
-123.07
 20
-5.38374
 11
-122.57
 21
-5.38374
  0
LINE
  8
0
 10
-122.57
 20
-5.38374
 11
-122.57
 21
-4.56456
  0
LINE
  8
0
 10
-115.79
 20
-3.37279
 11
-116.29
 21
-3.37279
  0
LINE
  8
0
 10
-116.29
 20
-3.37279
 11
-116.29
 21
-5.38374
  0
LINE
  8
0
 10
-116.29
 20
-5.38374
 11
-115.79
 21
-5.38374
  0
LINE
  8
0
 10
-115.79
 20
-5.38374
 11
-115.79
 21
-3.37279
  0
LINE
  8
0
 10
-114.633
 20
-5.38129
 11
-114.555
 21
-5.37383
  0
LINE
  8
0
 10
-114.555
 20
-5.37383
 11
-114.48
 21
-5.36136
  0
LINE
  8
0
 10
-114.48
 20
-5.36136
 11
-114.407
 21
-5.34384
  0
LINE
  8
0
 10
-114.407
 20
-5.34384
 11
-114.336
 21
-5.32127
  0
LINE
  8
0
 10
-114.336
 20
-5.32127
 11
-114.268
 21
-5.29364
  0
LINE
  8
0
 10
-114.268
 20
-5.29364
 11
-114.203
 21
-5.26093
  0
LINE
  8
0
 10
-114.203
 20
-5.26093
 11
-114.141
 21
-5.22337
  0
LINE
  8
0
 10
-114.141
 20
-5.22337
 11
-114.083
 21
-5.18121
  0
LINE
  8
0
 10
-114.083
 20
-5.18121
 11
-114.029
 21
-5.13449
  0
LINE
  8
0
 10
-114.029
 20
-5.13449
 11
-113.979
 21
-5.08327
  0
LINE
  8
0
 10
-113.979
 20
-5.08327
 11
-113.933
 21
-5.02763
  0
LINE
  8
0
 10
-113.933
 20
-5.02763
 11
-113.892
 21
-4.96764
  0
LINE
  8
0
 10
-113.892
 20
-4.96764
 11
-113.855
 21
-4.90337
  0
LINE
  8
0
 10
-113.855
 20
-4.90337
 11
-113.822
 21
-4.83534
  0
LINE
  8
0
 10
-113.822
 20
-4.83534
 11
-113.795
 21
-4.76421
  0
LINE
  8
0
 10
-113.795
 20
-4.76421
 11
-113.772
 21
-4.69005
  0
LINE
  8
0
 10
-113.772
 20
-4.69005
 11
-113.755
 21
-4.61292
  0
LINE
  8
0
 10
-113.755
 20
-4.61292
 11
-113.743
 21
-4.53285
  0
LINE
  8
0
 10
-113.743
 20
-4.53285
 11
-113.735
 21
-4.44989
  0
LINE
  8
0
 10
-113.735
 20
-4.44989
 11
-113.733
 21
-4.36366
  0
LINE
  8
0
 10
-113.733
 20
-4.36366
 11
-113.738
 21
-4.23401
  0
LINE
  8
0
 10
-113.738
 20
-4.23401
 11
-113.755
 21
-4.11212
  0
LINE
  8
0
 10
-113.755
 20
-4.11212
 11
-113.784
 21
-3.99838
  0
LINE
  8
0
 10
-113.784
 20
-3.99838
 11
-113.824
 21
-3.89294
  0
LINE
  8
0
 10
-113.824
 20
-3.89294
 11
-113.875
 21
-3.79608
  0
LINE
  8
0
 10
-113.875
 20
-3.79608
 11
-113.939
 21
-3.70815
  0
LINE
  8
0
 10
-113.939
 20
-3.70815
 11
-114.013
 21
-3.62941
  0
LINE
  8
0
 10
-114.013
 20
-3.62941
 11
-114.098
 21
-3.56073
  0
LINE
  8
0
 10
-114.098
 20
-3.56073
 11
-114.193
 21
-3.50281
  0
LINE
  8
0
 10
-114.193
 20
-3.50281
 11
-114.296
 21
-3.45563
  0
LINE
  8
0
 10
-114.296
 20
-3.45563
 11
-114.408
 21
-3.41917
  0
LINE
  8
0
 10
-114.408
 20
-3.41917
 11
-114.528
 21
-3.3933
  0
LINE
  8
0
 10
-114.528
 20
-3.3933
 11
-114.657
 21
-3.37787
  0
LINE
  8
0
 10
-114.657
 20
-3.37787
 11
-114.794
 21
-3.37279
  0
LINE
  8
0
 10
-114.794
 20
-3.37279
 11
-115.536
 21
-3.37279
  0
LINE
  8
0
 10
-115.536
 20
-3.37279
 11
-115.536
 21
-5.38374
  0
LINE
  8
0
 10
-115.536
 20
-5.38374
 11
-114.713
 21
-5.38374
  0
LINE
  8
0
 10
-114.713
 20
-5.38374
 11
-114.633
 21
-5.38129
  0
LINE
  8
0
 10
-115.036
 20
-4.97452
 11
-115.036
 21
-3.78201
  0
LINE
  8
0
 10
-115.036
 20
-3.78201
 11
-114.804
 21
-3.78201
  0
LINE
  8
0
 10
-114.804
 20
-3.78201
 11
-114.725
 21
-3.78519
  0
LINE
  8
0
 10
-114.725
 20
-3.78519
 11
-114.653
 21
-3.79451
  0
LINE
  8
0
 10
-114.653
 20
-3.79451
 11
-114.587
 21
-3.80984
  0
LINE
  8
0
 10
-114.587
 20
-3.80984
 11
-114.528
 21
-3.83102
  0
LINE
  8
0
 10
-114.528
 20
-3.83102
 11
-114.474
 21
-3.85806
  0
LINE
  8
0
 10
-114.474
 20
-3.85806
 11
-114.425
 21
-3.89072
  0
LINE
  8
0
 10
-114.425
 20
-3.89072
 11
-114.381
 21
-3.92926
  0
LINE
  8
0
 10
-114.381
 20
-3.92926
 11
-114.343
 21
-3.97345
  0
LINE
  8
0
 10
-114.343
 20
-3.97345
 11
-114.311
 21
-4.02319
  0
LINE
  8
0
 10
-114.311
 20
-4.02319
 11
-114.284
 21
-4.07869
  0
LINE
  8
0
 10
-114.284
 20
-4.07869
 11
-114.263
 21
-4.14049
  0
LINE
  8
0
 10
-114.263
 20
-4.14049
 11
-114.248
 21
-4.20853
  0
LINE
  8
0
 10
-114.248
 20
-4.20853
 11
-114.239
 21
-4.2832
  0
LINE
  8
0
 10
-114.239
 20
-4.2832
 11
-114.236
 21
-4.36403
  0
LINE
  8
0
 10
-114.236
 20
-4.36403
 11
-114.239
 21
-4.44478
  0
LINE
  8
0
 10
-114.239
 20
-4.44478
 11
-114.248
 21
-4.51994
  0
LINE
  8
0
 10
-114.248
 20
-4.51994
 11
-114.262
 21
-4.58957
  0
LINE
  8
0
 10
-114.262
 20
-4.58957
 11
-114.282
 21
-4.65361
  0
LINE
  8
0
 10
-114.282
 20
-4.65361
 11
-114.308
 21
-4.71219
  0
LINE
  8
0
 10
-114.308
 20
-4.71219
 11
-114.339
 21
-4.76582
  0
LINE
  8
0
 10
-114.339
 20
-4.76582
 11
-114.376
 21
-4.8143
  0
LINE
  8
0
 10
-114.376
 20
-4.8143
 11
-114.417
 21
-4.85689
  0
LINE
  8
0
 10
-114.417
 20
-4.85689
 11
-114.462
 21
-4.89279
  0
LINE
  8
0
 10
-114.462
 20
-4.89279
 11
-114.51
 21
-4.92195
  0
LINE
  8
0
 10
-114.51
 20
-4.92195
 11
-114.563
 21
-4.94475
  0
LINE
  8
0
 10
-114.563
 20
-4.94475
 11
-114.619
 21
-4.96111
  0
LINE
  8
0
 10
-114.619
 20
-4.96111
 11
-114.681
 21
-4.97108
  0
LINE
  8
0
 10
-114.681
 20
-4.97108
 11
-114.749
 21
-4.97452
  0
LINE
  8
0
 10
-114.749
 20
-4.97452
 11
-115.036
 21
-4.97452
  0
LINE
  8
0
 10
-117.749
 20
-4.65814
 11
-117.358
 21
-4.65814
  0
LINE
  8
0
 10
-117.358
 20
-4.65814
 11
-116.914
 21
-5.38374
  0
LINE
  8
0
 10
-116.914
 20
-5.38374
 11
-116.344
 21
-5.38374
  0
LINE
  8
0
 10
-116.344
 20
-5.38374
 11
-116.874
 21
-4.55984
  0
LINE
  8
0
 10
-116.874
 20
-4.55984
 11
-116.828
 21
-4.54222
  0
LINE
  8
0
 10
-116.828
 20
-4.54222
 11
-116.777
 21
-4.51674
  0
LINE
  8
0
 10
-116.777
 20
-4.51674
 11
-116.729
 21
-4.48668
  0
LINE
  8
0
 10
-116.729
 20
-4.48668
 11
-116.684
 21
-4.45212
  0
LINE
  8
0
 10
-116.684
 20
-4.45212
 11
-116.643
 21
-4.41313
  0
LINE
  8
0
 10
-116.643
 20
-4.41313
 11
-116.605
 21
-4.3698
  0
LINE
  8
0
 10
-116.605
 20
-4.3698
 11
-116.572
 21
-4.32301
  0
LINE
  8
0
 10
-116.572
 20
-4.32301
 11
-116.544
 21
-4.27368
  0
LINE
  8
0
 10
-116.544
 20
-4.27368
 11
-116.521
 21
-4.22186
  0
LINE
  8
0
 10
-116.521
 20
-4.22186
 11
-116.504
 21
-4.16771
  0
LINE
  8
0
 10
-116.504
 20
-4.16771
 11
-116.491
 21
-4.11133
  0
LINE
  8
0
 10
-116.491
 20
-4.11133
 11
-116.483
 21
-4.05289
  0
LINE
  8
0
 10
-116.483
 20
-4.05289
 11
-116.481
 21
-3.9922
  0
LINE
  8
0
 10
-116.481
 20
-3.9922
 11
-116.485
 21
-3.91115
  0
LINE
  8
0
 10
-116.485
 20
-3.91115
 11
-116.497
 21
-3.83459
  0
LINE
  8
0
 10
-116.497
 20
-3.83459
 11
-116.518
 21
-3.76288
  0
LINE
  8
0
 10
-116.518
 20
-3.76288
 11
-116.547
 21
-3.69629
  0
LINE
  8
0
 10
-116.547
 20
-3.69629
 11
-116.585
 21
-3.63515
  0
LINE
  8
0
 10
-116.585
 20
-3.63515
 11
-116.631
 21
-3.57988
  0
LINE
  8
0
 10
-116.631
 20
-3.57988
 11
-116.685
 21
-3.53072
  0
LINE
  8
0
 10
-116.685
 20
-3.53072
 11
-116.747
 21
-3.4881
  0
LINE
  8
0
 10
-116.747
 20
-3.4881
 11
-116.815
 21
-3.45235
  0
LINE
  8
0
 10
-116.815
 20
-3.45235
 11
-116.889
 21
-3.42336
  0
LINE
  8
0
 10
-116.889
 20
-3.42336
 11
-116.969
 21
-3.40105
  0
LINE
  8
0
 10
-116.969
 20
-3.40105
 11
-117.055
 21
-3.38525
  0
LINE
  8
0
 10
-117.055
 20
-3.38525
 11
-117.146
 21
-3.37589
  0
LINE
  8
0
 10
-117.146
 20
-3.37589
 11
-117.243
 21
-3.37279
  0
LINE
  8
0
 10
-117.243
 20
-3.37279
 11
-118.249
 21
-3.37279
  0
LINE
  8
0
 10
-118.249
 20
-3.37279
 11
-118.249
 21
-5.38374
  0
LINE
  8
0
 10
-118.249
 20
-5.38374
 11
-117.749
 21
-5.38374
  0
LINE
  8
0
 10
-117.749
 20
-5.38374
 11
-117.749
 21
-4.65814
  0
LINE
  8
0
 10
-117.749
 20
-4.24757
 11
-117.749
 21
-3.78337
  0
LINE
  8
0
 10
-117.749
 20
-3.78337
 11
-117.288
 21
-3.78337
  0
LINE
  8
0
 10
-117.288
 20
-3.78337
 11
-117.199
 21
-3.78867
  0
LINE
  8
0
 10
-117.199
 20
-3.78867
 11
-117.129
 21
-3.80371
  0
LINE
  8
0
 10
-117.129
 20
-3.80371
 11
-117.075
 21
-3.82726
  0
LINE
  8
0
 10
-117.075
 20
-3.82726
 11
-117.035
 21
-3.8582
  0
LINE
  8
0
 10
-117.035
 20
-3.8582
 11
-117.007
 21
-3.89702
  0
LINE
  8
0
 10
-117.007
 20
-3.89702
 11
-116.99
 21
-3.94653
  0
LINE
  8
0
 10
-116.99
 20
-3.94653
 11
-116.984
 21
-4.01001
  0
LINE
  8
0
 10
-116.984
 20
-4.01001
 11
-116.985
 21
-4.0416
  0
LINE
  8
0
 10
-116.985
 20
-4.0416
 11
-116.99
 21
-4.07185
  0
LINE
  8
0
 10
-116.99
 20
-4.07185
 11
-116.997
 21
-4.09886
  0
LINE
  8
0
 10
-116.997
 20
-4.09886
 11
-117.007
 21
-4.12341
  0
LINE
  8
0
 10
-117.007
 20
-4.12341
 11
-117.02
 21
-4.14552
  0
LINE
  8
0
 10
-117.02
 20
-4.14552
 11
-117.035
 21
-4.16563
  0
LINE
  8
0
 10
-117.035
 20
-4.16563
 11
-117.053
 21
-4.18387
  0
LINE
  8
0
 10
-117.053
 20
-4.18387
 11
-117.075
 21
-4.20003
  0
LINE
  8
0
 10
-117.075
 20
-4.20003
 11
-117.099
 21
-4.21391
  0
LINE
  8
0
 10
-117.099
 20
-4.21391
 11
-117.127
 21
-4.22568
  0
LINE
  8
0
 10
-117.127
 20
-4.22568
 11
-117.158
 21
-4.23502
  0
LINE
  8
0
 10
-117.158
 20
-4.23502
 11
-117.193
 21
-4.24187
  0
LINE
  8
0
 10
-117.193
 20
-4.24187
 11
-117.233
 21
-4.24611
  0
LINE
  8
0
 10
-117.233
 20
-4.24611
 11
-117.276
 21
-4.24757
  0
LINE
  8
0
 10
-117.276
 20
-4.24757
 11
-117.749
 21
-4.24757
  0
LINE
  8
0
 10
-96.022
 20
-4.97043
 11
-97.0584
 21
-4.97043
  0
LINE
  8
0
 10
-97.0584
 20
-4.97043
 11
-96.0776
 21
-3.71808
  0
LINE
  8
0
 10
-96.0776
 20
-3.71808
 11
-96.0776
 21
-3.37279
  0
LINE
  8
0
 10
-96.0776
 20
-3.37279
 11
-97.5529
 21
-3.37279
  0
LINE
  8
0
 10
-97.5529
 20
-3.37279
 11
-97.5529
 21
-3.78609
  0
LINE
  8
0
 10
-97.5529
 20
-3.78609
 11
-96.6754
 21
-3.78609
  0
LINE
  8
0
 10
-96.6754
 20
-3.78609
 11
-97.6559
 21
-5.03297
  0
LINE
  8
0
 10
-97.6559
 20
-5.03297
 11
-97.6559
 21
-5.38374
  0
LINE
  8
0
 10
-97.6559
 20
-5.38374
 11
-96.022
 21
-5.38374
  0
LINE
  8
0
 10
-96.022
 20
-5.38374
 11
-96.022
 21
-4.97043
  0
LINE
  8
0
 10
-97.8064
 20
-3.37279
 11
-98.3065
 21
-3.37279
  0
LINE
  8
0
 10
-98.3065
 20
-3.37279
 11
-98.3065
 21
-5.38374
  0
LINE
  8
0
 10
-98.3065
 20
-5.38374
 11
-97.8064
 21
-5.38374
  0
LINE
  8
0
 10
-97.8064
 20
-5.38374
 11
-97.8064
 21
-3.37279
  0
LINE
  8
0
 10
-94.2375
 20
-4.97452
 11
-95.3958
 21
-4.97452
  0
LINE
  8
0
 10
-95.3958
 20
-4.97452
 11
-95.3958
 21
-4.57133
  0
LINE
  8
0
 10
-95.3958
 20
-4.57133
 11
-94.3758
 21
-4.57133
  0
LINE
  8
0
 10
-94.3758
 20
-4.57133
 11
-94.3758
 21
-4.16212
  0
LINE
  8
0
 10
-94.3758
 20
-4.16212
 11
-95.3958
 21
-4.16212
  0
LINE
  8
0
 10
-95.3958
 20
-4.16212
 11
-95.3958
 21
-3.78201
  0
LINE
  8
0
 10
-95.3958
 20
-3.78201
 11
-94.2931
 21
-3.78201
  0
LINE
  8
0
 10
-94.2931
 20
-3.78201
 11
-94.2931
 21
-3.37279
  0
LINE
  8
0
 10
-94.2931
 20
-3.37279
 11
-95.8959
 21
-3.37279
  0
LINE
  8
0
 10
-95.8959
 20
-3.37279
 11
-95.8959
 21
-5.38374
  0
LINE
  8
0
 10
-95.8959
 20
-5.38374
 11
-94.2375
 21
-5.38374
  0
LINE
  8
0
 10
-94.2375
 20
-5.38374
 11
-94.2375
 21
-4.97452
  0
LINE
  8
0
 10
-99.7654
 20
-4.65814
 11
-99.3742
 21
-4.65814
  0
LINE
  8
0
 10
-99.3742
 20
-4.65814
 11
-98.9307
 21
-5.38374
  0
LINE
  8
0
 10
-98.9307
 20
-5.38374
 11
-98.3607
 21
-5.38374
  0
LINE
  8
0
 10
-98.3607
 20
-5.38374
 11
-98.891
 21
-4.55984
  0
LINE
  8
0
 10
-98.891
 20
-4.55984
 11
-98.8448
 21
-4.54222
  0
LINE
  8
0
 10
-98.8448
 20
-4.54222
 11
-98.7932
 21
-4.51674
  0
LINE
  8
0
 10
-98.7932
 20
-4.51674
 11
-98.745
 21
-4.48668
  0
LINE
  8
0
 10
-98.745
 20
-4.48668
 11
-98.7003
 21
-4.45212
  0
LINE
  8
0
 10
-98.7003
 20
-4.45212
 11
-98.6592
 21
-4.41313
  0
LINE
  8
0
 10
-98.6592
 20
-4.41313
 11
-98.6218
 21
-4.3698
  0
LINE
  8
0
 10
-98.6218
 20
-4.3698
 11
-98.5888
 21
-4.32301
  0
LINE
  8
0
 10
-98.5888
 20
-4.32301
 11
-98.5608
 21
-4.27368
  0
LINE
  8
0
 10
-98.5608
 20
-4.27368
 11
-98.5378
 21
-4.22186
  0
LINE
  8
0
 10
-98.5378
 20
-4.22186
 11
-98.52
 21
-4.16771
  0
LINE
  8
0
 10
-98.52
 20
-4.16771
 11
-98.5074
 21
-4.11133
  0
LINE
  8
0
 10
-98.5074
 20
-4.11133
 11
-98.4998
 21
-4.05289
  0
LINE
  8
0
 10
-98.4998
 20
-4.05289
 11
-98.4973
 21
-3.9922
  0
LINE
  8
0
 10
-98.4973
 20
-3.9922
 11
-98.5013
 21
-3.91115
  0
LINE
  8
0
 10
-98.5013
 20
-3.91115
 11
-98.5136
 21
-3.83459
  0
LINE
  8
0
 10
-98.5136
 20
-3.83459
 11
-98.5344
 21
-3.76288
  0
LINE
  8
0
 10
-98.5344
 20
-3.76288
 11
-98.5637
 21
-3.69629
  0
LINE
  8
0
 10
-98.5637
 20
-3.69629
 11
-98.6015
 21
-3.63515
  0
LINE
  8
0
 10
-98.6015
 20
-3.63515
 11
-98.6477
 21
-3.57988
  0
LINE
  8
0
 10
-98.6477
 20
-3.57988
 11
-98.702
 21
-3.53072
  0
LINE
  8
0
 10
-98.702
 20
-3.53072
 11
-98.7634
 21
-3.4881
  0
LINE
  8
0
 10
-98.7634
 20
-3.4881
 11
-98.8312
 21
-3.45235
  0
LINE
  8
0
 10
-98.8312
 20
-3.45235
 11
-98.9052
 21
-3.42336
  0
LINE
  8
0
 10
-98.9052
 20
-3.42336
 11
-98.9852
 21
-3.40105
  0
LINE
  8
0
 10
-98.9852
 20
-3.40105
 11
-99.0711
 21
-3.38525
  0
LINE
  8
0
 10
-99.0711
 20
-3.38525
 11
-99.1629
 21
-3.37589
  0
LINE
  8
0
 10
-99.1629
 20
-3.37589
 11
-99.2599
 21
-3.37279
  0
LINE
  8
0
 10
-99.2599
 20
-3.37279
 11
-100.266
 21
-3.37279
  0
LINE
  8
0
 10
-100.266
 20
-3.37279
 11
-100.266
 21
-5.38374
  0
LINE
  8
0
 10
-100.266
 20
-5.38374
 11
-99.7654
 21
-5.38374
  0
LINE
  8
0
 10
-99.7654
 20
-5.38374
 11
-99.7654
 21
-4.65814
  0
LINE
  8
0
 10
-99.7654
 20
-4.24757
 11
-99.7654
 21
-3.78337
  0
LINE
  8
0
 10
-99.7654
 20
-3.78337
 11
-99.3042
 21
-3.78337
  0
LINE
  8
0
 10
-99.3042
 20
-3.78337
 11
-99.216
 21
-3.78867
  0
LINE
  8
0
 10
-99.216
 20
-3.78867
 11
-99.1454
 21
-3.80371
  0
LINE
  8
0
 10
-99.1454
 20
-3.80371
 11
-99.0911
 21
-3.82726
  0
LINE
  8
0
 10
-99.0911
 20
-3.82726
 11
-99.0514
 21
-3.8582
  0
LINE
  8
0
 10
-99.0514
 20
-3.8582
 11
-99.0238
 21
-3.89702
  0
LINE
  8
0
 10
-99.0238
 20
-3.89702
 11
-99.0065
 21
-3.94653
  0
LINE
  8
0
 10
-99.0065
 20
-3.94653
 11
-99.0003
 21
-4.01001
  0
LINE
  8
0
 10
-99.0003
 20
-4.01001
 11
-99.0018
 21
-4.0416
  0
LINE
  8
0
 10
-99.0018
 20
-4.0416
 11
-99.0063
 21
-4.07185
  0
LINE
  8
0
 10
-99.0063
 20
-4.07185
 11
-99.0135
 21
-4.09886
  0
LINE
  8
0
 10
-99.0135
 20
-4.09886
 11
-99.0236
 21
-4.1234
  0
LINE
  8
0
 10
-99.0236
 20
-4.1234
 11
-99.0362
 21
-4.14552
  0
LINE
  8
0
 10
-99.0362
 20
-4.14552
 11
-99.0516
 21
-4.16563
  0
LINE
  8
0
 10
-99.0516
 20
-4.16563
 11
-99.0699
 21
-4.18387
  0
LINE
  8
0
 10
-99.0699
 20
-4.18387
 11
-99.0911
 21
-4.20003
  0
LINE
  8
0
 10
-99.0911
 20
-4.20003
 11
-99.1154
 21
-4.21391
  0
LINE
  8
0
 10
-99.1154
 20
-4.21391
 11
-99.1433
 21
-4.22568
  0
LINE
  8
0
 10
-99.1433
 20
-4.22568
 11
-99.1746
 21
-4.23502
  0
LINE
  8
0
 10
-99.1746
 20
-4.23502
 11
-99.2098
 21
-4.24187
  0
LINE
  8
0
 10
-99.2098
 20
-4.24187
 11
-99.2491
 21
-4.24611
  0
LINE
  8
0
 10
-99.2491
 20
-4.24611
 11
-99.2927
 21
-4.24757
  0
LINE
  8
0
 10
-99.2927
 20
-4.24757
 11
-99.7654
 21
-4.24757
  0
LINE
  8
0
 10
-107.301
 20
-4.71104
 11
-106.875
 21
-4.71104
  0
LINE
  8
0
 10
-106.875
 20
-4.71104
 11
-106.813
 21
-4.70937
  0
LINE
  8
0
 10
-106.813
 20
-4.70937
 11
-106.752
 21
-4.70425
  0
LINE
  8
0
 10
-106.752
 20
-4.70425
 11
-106.693
 21
-4.69571
  0
LINE
  8
0
 10
-106.693
 20
-4.69571
 11
-106.637
 21
-4.68367
  0
LINE
  8
0
 10
-106.637
 20
-4.68367
 11
-106.583
 21
-4.66812
  0
LINE
  8
0
 10
-106.583
 20
-4.66812
 11
-106.531
 21
-4.649
  0
LINE
  8
0
 10
-106.531
 20
-4.649
 11
-106.481
 21
-4.62634
  0
LINE
  8
0
 10
-106.481
 20
-4.62634
 11
-106.435
 21
-4.60045
  0
LINE
  8
0
 10
-106.435
 20
-4.60045
 11
-106.391
 21
-4.57155
  0
LINE
  8
0
 10
-106.391
 20
-4.57155
 11
-106.35
 21
-4.5396
  0
LINE
  8
0
 10
-106.35
 20
-4.5396
 11
-106.313
 21
-4.50467
  0
LINE
  8
0
 10
-106.313
 20
-4.50467
 11
-106.279
 21
-4.46677
  0
LINE
  8
0
 10
-106.279
 20
-4.46677
 11
-106.248
 21
-4.42596
  0
LINE
  8
0
 10
-106.248
 20
-4.42596
 11
-106.22
 21
-4.38239
  0
LINE
  8
0
 10
-106.22
 20
-4.38239
 11
-106.196
 21
-4.33658
  0
LINE
  8
0
 10
-106.196
 20
-4.33658
 11
-106.175
 21
-4.28906
  0
LINE
  8
0
 10
-106.175
 20
-4.28906
 11
-106.158
 21
-4.2399
  0
LINE
  8
0
 10
-106.158
 20
-4.2399
 11
-106.145
 21
-4.1891
  0
LINE
  8
0
 10
-106.145
 20
-4.1891
 11
-106.136
 21
-4.13678
  0
LINE
  8
0
 10
-106.136
 20
-4.13678
 11
-106.131
 21
-4.08296
  0
LINE
  8
0
 10
-106.131
 20
-4.08296
 11
-106.129
 21
-4.02734
  0
LINE
  8
0
 10
-106.129
 20
-4.02734
 11
-106.133
 21
-3.94286
  0
LINE
  8
0
 10
-106.133
 20
-3.94286
 11
-106.145
 21
-3.86292
  0
LINE
  8
0
 10
-106.145
 20
-3.86292
 11
-106.166
 21
-3.78789
  0
LINE
  8
0
 10
-106.166
 20
-3.78789
 11
-106.195
 21
-3.71803
  0
LINE
  8
0
 10
-106.195
 20
-3.71803
 11
-106.232
 21
-3.65367
  0
LINE
  8
0
 10
-106.232
 20
-3.65367
 11
-106.278
 21
-3.59514
  0
LINE
  8
0
 10
-106.278
 20
-3.59514
 11
-106.332
 21
-3.54269
  0
LINE
  8
0
 10
-106.332
 20
-3.54269
 11
-106.393
 21
-3.49693
  0
LINE
  8
0
 10
-106.393
 20
-3.49693
 11
-106.461
 21
-3.45845
  0
LINE
  8
0
 10
-106.461
 20
-3.45845
 11
-106.535
 21
-3.42725
  0
LINE
  8
0
 10
-106.535
 20
-3.42725
 11
-106.615
 21
-3.40321
  0
LINE
  8
0
 10
-106.615
 20
-3.40321
 11
-106.702
 21
-3.38622
  0
LINE
  8
0
 10
-106.702
 20
-3.38622
 11
-106.794
 21
-3.3761
  0
LINE
  8
0
 10
-106.794
 20
-3.3761
 11
-106.891
 21
-3.37279
  0
LINE
  8
0
 10
-106.891
 20
-3.37279
 11
-107.801
 21
-3.37279
  0
LINE
  8
0
 10
-107.801
 20
-3.37279
 11
-107.801
 21
-5.38374
  0
LINE
  8
0
 10
-107.801
 20
-5.38374
 11
-107.301
 21
-5.38374
  0
LINE
  8
0
 10
-107.301
 20
-5.38374
 11
-107.301
 21
-4.71104
  0
LINE
  8
0
 10
-107.301
 20
-4.30319
 11
-107.301
 21
-3.78337
  0
LINE
  8
0
 10
-107.301
 20
-3.78337
 11
-106.939
 21
-3.78337
  0
LINE
  8
0
 10
-106.939
 20
-3.78337
 11
-106.85
 21
-3.78915
  0
LINE
  8
0
 10
-106.85
 20
-3.78915
 11
-106.78
 21
-3.80547
  0
LINE
  8
0
 10
-106.78
 20
-3.80547
 11
-106.725
 21
-3.83112
  0
LINE
  8
0
 10
-106.725
 20
-3.83112
 11
-106.685
 21
-3.86516
  0
LINE
  8
0
 10
-106.685
 20
-3.86516
 11
-106.656
 21
-3.90875
  0
LINE
  8
0
 10
-106.656
 20
-3.90875
 11
-106.638
 21
-3.96465
  0
LINE
  8
0
 10
-106.638
 20
-3.96465
 11
-106.632
 21
-4.0356
  0
LINE
  8
0
 10
-106.632
 20
-4.0356
 11
-106.633
 21
-4.07271
  0
LINE
  8
0
 10
-106.633
 20
-4.07271
 11
-106.638
 21
-4.10741
  0
LINE
  8
0
 10
-106.638
 20
-4.10741
 11
-106.646
 21
-4.13876
  0
LINE
  8
0
 10
-106.646
 20
-4.13876
 11
-106.657
 21
-4.16682
  0
LINE
  8
0
 10
-106.657
 20
-4.16682
 11
-106.67
 21
-4.19182
  0
LINE
  8
0
 10
-106.67
 20
-4.19182
 11
-106.686
 21
-4.21422
  0
LINE
  8
0
 10
-106.686
 20
-4.21422
 11
-106.705
 21
-4.23416
  0
LINE
  8
0
 10
-106.705
 20
-4.23416
 11
-106.727
 21
-4.25194
  0
LINE
  8
0
 10
-106.727
 20
-4.25194
 11
-106.752
 21
-4.26698
  0
LINE
  8
0
 10
-106.752
 20
-4.26698
 11
-106.78
 21
-4.27971
  0
LINE
  8
0
 10
-106.78
 20
-4.27971
 11
-106.811
 21
-4.28972
  0
LINE
  8
0
 10
-106.811
 20
-4.28972
 11
-106.846
 21
-4.29712
  0
LINE
  8
0
 10
-106.846
 20
-4.29712
 11
-106.884
 21
-4.30162
  0
LINE
  8
0
 10
-106.884
 20
-4.30162
 11
-106.927
 21
-4.30319
  0
LINE
  8
0
 10
-106.927
 20
-4.30319
 11
-107.301
 21
-4.30319
  0
LINE
  8
0
 10
-93.5864
 20
-4.65814
 11
-93.1952
 21
-4.65814
  0
LINE
  8
0
 10
-93.1952
 20
-4.65814
 11
-92.7517
 21
-5.38374
  0
LINE
  8
0
 10
-92.7517
 20
-5.38374
 11
-92.1817
 21
-5.38374
  0
LINE
  8
0
 10
-92.1817
 20
-5.38374
 11
-92.712
 21
-4.55984
  0
LINE
  8
0
 10
-92.712
 20
-4.55984
 11
-92.6658
 21
-4.54222
  0
LINE
  8
0
 10
-92.6658
 20
-4.54222
 11
-92.6142
 21
-4.51674
  0
LINE
  8
0
 10
-92.6142
 20
-4.51674
 11
-92.566
 21
-4.48668
  0
LINE
  8
0
 10
-92.566
 20
-4.48668
 11
-92.5213
 21
-4.45212
  0
LINE
  8
0
 10
-92.5213
 20
-4.45212
 11
-92.4802
 21
-4.41312
  0
LINE
  8
0
 10
-92.4802
 20
-4.41312
 11
-92.4428
 21
-4.36978
  0
LINE
  8
0
 10
-92.4428
 20
-4.36978
 11
-92.4098
 21
-4.32301
  0
LINE
  8
0
 10
-92.4098
 20
-4.32301
 11
-92.3817
 21
-4.27368
  0
LINE
  8
0
 10
-92.3817
 20
-4.27368
 11
-92.3588
 21
-4.22186
  0
LINE
  8
0
 10
-92.3588
 20
-4.22186
 11
-92.341
 21
-4.16771
  0
LINE
  8
0
 10
-92.341
 20
-4.16771
 11
-92.3283
 21
-4.11133
  0
LINE
  8
0
 10
-92.3283
 20
-4.11133
 11
-92.3208
 21
-4.05289
  0
LINE
  8
0
 10
-92.3208
 20
-4.05289
 11
-92.3183
 21
-3.9922
  0
LINE
  8
0
 10
-92.3183
 20
-3.9922
 11
-92.3223
 21
-3.91115
  0
LINE
  8
0
 10
-92.3223
 20
-3.91115
 11
-92.3346
 21
-3.83459
  0
LINE
  8
0
 10
-92.3346
 20
-3.83459
 11
-92.3553
 21
-3.76288
  0
LINE
  8
0
 10
-92.3553
 20
-3.76288
 11
-92.3846
 21
-3.69629
  0
LINE
  8
0
 10
-92.3846
 20
-3.69629
 11
-92.4225
 21
-3.63515
  0
LINE
  8
0
 10
-92.4225
 20
-3.63515
 11
-92.4687
 21
-3.57988
  0
LINE
  8
0
 10
-92.4687
 20
-3.57988
 11
-92.523
 21
-3.53072
  0
LINE
  8
0
 10
-92.523
 20
-3.53072
 11
-92.5844
 21
-3.4881
  0
LINE
  8
0
 10
-92.5844
 20
-3.4881
 11
-92.6522
 21
-3.45235
  0
LINE
  8
0
 10
-92.6522
 20
-3.45235
 11
-92.7262
 21
-3.42336
  0
LINE
  8
0
 10
-92.7262
 20
-3.42336
 11
-92.8062
 21
-3.40105
  0
LINE
  8
0
 10
-92.8062
 20
-3.40105
 11
-92.8921
 21
-3.38525
  0
LINE
  8
0
 10
-92.8921
 20
-3.38525
 11
-92.9839
 21
-3.37589
  0
LINE
  8
0
 10
-92.9839
 20
-3.37589
 11
-93.0809
 21
-3.37279
  0
LINE
  8
0
 10
-93.0809
 20
-3.37279
 11
-94.0865
 21
-3.37279
  0
LINE
  8
0
 10
-94.0865
 20
-3.37279
 11
-94.0865
 21
-5.38374
  0
LINE
  8
0
 10
-94.0865
 20
-5.38374
 11
-93.5864
 21
-5.38374
  0
LINE
  8
0
 10
-93.5864
 20
-5.38374
 11
-93.5864
 21
-4.65814
  0
LINE
  8
0
 10
-93.5864
 20
-4.24757
 11
-93.5864
 21
-3.78337
  0
LINE
  8
0
 10
-93.5864
 20
-3.78337
 11
-93.1252
 21
-3.78337
  0
LINE
  8
0
 10
-93.1252
 20
-3.78337
 11
-93.037
 21
-3.78867
  0
LINE
  8
0
 10
-93.037
 20
-3.78867
 11
-92.9663
 21
-3.80371
  0
LINE
  8
0
 10
-92.9663
 20
-3.80371
 11
-92.912
 21
-3.82726
  0
LINE
  8
0
 10
-92.912
 20
-3.82726
 11
-92.8724
 21
-3.85822
  0
LINE
  8
0
 10
-92.8724
 20
-3.85822
 11
-92.8448
 21
-3.89703
  0
LINE
  8
0
 10
-92.8448
 20
-3.89703
 11
-92.8275
 21
-3.94652
  0
LINE
  8
0
 10
-92.8275
 20
-3.94652
 11
-92.8212
 21
-4.01003
  0
LINE
  8
0
 10
-92.8212
 20
-4.01003
 11
-92.8227
 21
-4.0416
  0
LINE
  8
0
 10
-92.8227
 20
-4.0416
 11
-92.8273
 21
-4.07181
  0
LINE
  8
0
 10
-92.8273
 20
-4.07181
 11
-92.8345
 21
-4.09886
  0
LINE
  8
0
 10
-92.8345
 20
-4.09886
 11
-92.8445
 21
-4.12341
  0
LINE
  8
0
 10
-92.8445
 20
-4.12341
 11
-92.8572
 21
-4.14552
  0
LINE
  8
0
 10
-92.8572
 20
-4.14552
 11
-92.8726
 21
-4.16563
  0
LINE
  8
0
 10
-92.8726
 20
-4.16563
 11
-92.8908
 21
-4.18385
  0
LINE
  8
0
 10
-92.8908
 20
-4.18385
 11
-92.9121
 21
-4.2
  0
LINE
  8
0
 10
-92.9121
 20
-4.2
 11
-92.9364
 21
-4.21396
  0
LINE
  8
0
 10
-92.9364
 20
-4.21396
 11
-92.9642
 21
-4.22566
  0
LINE
  8
0
 10
-92.9642
 20
-4.22566
 11
-92.9956
 21
-4.23502
  0
LINE
  8
0
 10
-92.9956
 20
-4.23502
 11
-93.0308
 21
-4.24187
  0
LINE
  8
0
 10
-93.0308
 20
-4.24187
 11
-93.0701
 21
-4.24611
  0
LINE
  8
0
 10
-93.0701
 20
-4.24611
 11
-93.1137
 21
-4.24757
  0
LINE
  8
0
 10
-93.1137
 20
-4.24757
 11
-93.5864
 21
-4.24757
  0
LINE
  8
0
 10
-101.686
 20
-4.89548
 11
-101.029
 21
-4.89548
  0
LINE
  8
0
 10
-101.029
 20
-4.89548
 11
-100.859
 21
-5.38374
  0
LINE
  8
0
 10
-100.859
 20
-5.38374
 11
-100.356
 21
-5.38374
  0
LINE
  8
0
 10
-100.356
 20
-5.38374
 11
-101.087
 21
-3.37279
  0
LINE
  8
0
 10
-101.087
 20
-3.37279
 11
-101.629
 21
-3.37279
  0
LINE
  8
0
 10
-101.629
 20
-3.37279
 11
-102.356
 21
-5.36588
  0
LINE
  8
0
 10
-102.356
 20
-5.36588
 11
-102.356
 21
-4.97452
  0
LINE
  8
0
 10
-102.356
 20
-4.97452
 11
-103.381
 21
-4.97452
  0
LINE
  8
0
 10
-103.381
 20
-4.97452
 11
-103.381
 21
-3.37279
  0
LINE
  8
0
 10
-103.381
 20
-3.37279
 11
-103.882
 21
-3.37279
  0
LINE
  8
0
 10
-103.882
 20
-3.37279
 11
-103.882
 21
-5.38374
  0
LINE
  8
0
 10
-103.882
 20
-5.38374
 11
-101.855
 21
-5.38374
  0
LINE
  8
0
 10
-101.855
 20
-5.38374
 11
-101.686
 21
-4.89548
  0
LINE
  8
0
 10
-101.562
 20
-4.4944
 11
-101.527
 21
-4.39384
  0
LINE
  8
0
 10
-101.527
 20
-4.39384
 11
-101.478
 21
-4.24992
  0
LINE
  8
0
 10
-101.478
 20
-4.24992
 11
-101.437
 21
-4.12892
  0
LINE
  8
0
 10
-101.437
 20
-4.12892
 11
-101.404
 21
-4.03079
  0
LINE
  8
0
 10
-101.404
 20
-4.03079
 11
-101.378
 21
-3.95552
  0
LINE
  8
0
 10
-101.378
 20
-3.95552
 11
-101.361
 21
-3.90298
  0
LINE
  8
0
 10
-101.361
 20
-3.90298
 11
-101.357
 21
-3.89073
  0
LINE
  8
0
 10
-101.357
 20
-3.89073
 11
-101.319
 21
-4.01079
  0
LINE
  8
0
 10
-101.319
 20
-4.01079
 11
-101.153
 21
-4.4944
  0
LINE
  8
0
 10
-101.153
 20
-4.4944
 11
-101.562
 21
-4.4944
  0
LINE
  8
0
 10
-120.383
 20
-4.39809
 11
-121.189
 21
-4.39809
  0
LINE
  8
0
 10
-121.189
 20
-4.39809
 11
-121.189
 21
-4.82904
  0
LINE
  8
0
 10
-121.189
 20
-4.82904
 11
-120.383
 21
-4.82904
  0
LINE
  8
0
 10
-120.383
 20
-4.82904
 11
-120.383
 21
-4.39809
  0
LINE
  8
0
 10
-159.142
 20
-4.41013
 11
-160.124
 21
-4.41013
  0
LINE
  8
0
 10
-160.124
 20
-4.41013
 11
-160.124
 21
-4.9238
  0
LINE
  8
0
 10
-160.124
 20
-4.9238
 11
-159.142
 21
-4.9238
  0
LINE
  8
0
 10
-159.142
 20
-4.9238
 11
-159.142
 21
-4.41013
  0
LINE
  8
0
 10
-117.428
 20
-9.04761
 11
-118.37
 21
-9.04761
  0
LINE
  8
0
 10
-118.37
 20
-9.04761
 11
-118.368
 21
-9.04431
  0
LINE
  8
0
 10
-118.368
 20
-9.04431
 11
-118.351
 21
-9.02049
  0
LINE
  8
0
 10
-118.351
 20
-9.02049
 11
-118.333
 21
-8.99712
  0
LINE
  8
0
 10
-118.333
 20
-8.99712
 11
-118.313
 21
-8.97377
  0
LINE
  8
0
 10
-118.313
 20
-8.97377
 11
-118.291
 21
-8.95097
  0
LINE
  8
0
 10
-118.291
 20
-8.95097
 11
-118.266
 21
-8.92722
  0
LINE
  8
0
 10
-118.266
 20
-8.92722
 11
-118.242
 21
-8.90404
  0
LINE
  8
0
 10
-118.242
 20
-8.90404
 11
-118.215
 21
-8.88
  0
LINE
  8
0
 10
-118.215
 20
-8.88
 11
-118.189
 21
-8.85641
  0
LINE
  8
0
 10
-118.189
 20
-8.85641
 11
-118.162
 21
-8.83328
  0
LINE
  8
0
 10
-118.162
 20
-8.83328
 11
-118.134
 21
-8.80977
  0
LINE
  8
0
 10
-118.134
 20
-8.80977
 11
-118.104
 21
-8.78587
  0
LINE
  8
0
 10
-118.104
 20
-8.78587
 11
-118.075
 21
-8.76216
  0
LINE
  8
0
 10
-118.075
 20
-8.76216
 11
-118.014
 21
-8.71373
  0
LINE
  8
0
 10
-118.014
 20
-8.71373
 11
-117.921
 21
-8.63969
  0
LINE
  8
0
 10
-117.921
 20
-8.63969
 11
-117.889
 21
-8.61447
  0
LINE
  8
0
 10
-117.889
 20
-8.61447
 11
-117.857
 21
-8.58853
  0
LINE
  8
0
 10
-117.857
 20
-8.58853
 11
-117.826
 21
-8.56186
  0
LINE
  8
0
 10
-117.826
 20
-8.56186
 11
-117.795
 21
-8.53464
  0
LINE
  8
0
 10
-117.795
 20
-8.53464
 11
-117.765
 21
-8.50687
  0
LINE
  8
0
 10
-117.765
 20
-8.50687
 11
-117.736
 21
-8.47856
  0
LINE
  8
0
 10
-117.736
 20
-8.47856
 11
-117.708
 21
-8.44969
  0
LINE
  8
0
 10
-117.708
 20
-8.44969
 11
-117.681
 21
-8.42017
  0
LINE
  8
0
 10
-117.681
 20
-8.42017
 11
-117.654
 21
-8.38965
  0
LINE
  8
0
 10
-117.654
 20
-8.38965
 11
-117.629
 21
-8.35818
  0
LINE
  8
0
 10
-117.629
 20
-8.35818
 11
-117.605
 21
-8.32591
  0
LINE
  8
0
 10
-117.605
 20
-8.32591
 11
-117.583
 21
-8.29277
  0
LINE
  8
0
 10
-117.583
 20
-8.29277
 11
-117.562
 21
-8.25885
  0
LINE
  8
0
 10
-117.562
 20
-8.25885
 11
-117.542
 21
-8.22414
  0
LINE
  8
0
 10
-117.542
 20
-8.22414
 11
-117.524
 21
-8.18828
  0
LINE
  8
0
 10
-117.524
 20
-8.18828
 11
-117.507
 21
-8.15077
  0
LINE
  8
0
 10
-117.507
 20
-8.15077
 11
-117.493
 21
-8.11169
  0
LINE
  8
0
 10
-117.493
 20
-8.11169
 11
-117.481
 21
-8.07147
  0
LINE
  8
0
 10
-117.481
 20
-8.07147
 11
-117.472
 21
-8.03011
  0
LINE
  8
0
 10
-117.472
 20
-8.03011
 11
-117.466
 21
-7.98766
  0
LINE
  8
0
 10
-117.466
 20
-7.98766
 11
-117.462
 21
-7.94417
  0
LINE
  8
0
 10
-117.462
 20
-7.94417
 11
-117.461
 21
-7.89919
  0
LINE
  8
0
 10
-117.461
 20
-7.89919
 11
-117.465
 21
-7.81708
  0
LINE
  8
0
 10
-117.465
 20
-7.81708
 11
-117.477
 21
-7.73914
  0
LINE
  8
0
 10
-117.477
 20
-7.73914
 11
-117.497
 21
-7.66592
  0
LINE
  8
0
 10
-117.497
 20
-7.66592
 11
-117.525
 21
-7.59767
  0
LINE
  8
0
 10
-117.525
 20
-7.59767
 11
-117.562
 21
-7.53471
  0
LINE
  8
0
 10
-117.562
 20
-7.53471
 11
-117.607
 21
-7.47739
  0
LINE
  8
0
 10
-117.607
 20
-7.47739
 11
-117.66
 21
-7.42589
  0
LINE
  8
0
 10
-117.66
 20
-7.42589
 11
-117.721
 21
-7.38089
  0
LINE
  8
0
 10
-117.721
 20
-7.38089
 11
-117.788
 21
-7.34305
  0
LINE
  8
0
 10
-117.788
 20
-7.34305
 11
-117.861
 21
-7.31236
  0
LINE
  8
0
 10
-117.861
 20
-7.31236
 11
-117.94
 21
-7.28876
  0
LINE
  8
0
 10
-117.94
 20
-7.28876
 11
-118.026
 21
-7.27205
  0
LINE
  8
0
 10
-118.026
 20
-7.27205
 11
-118.117
 21
-7.26212
  0
LINE
  8
0
 10
-118.117
 20
-7.26212
 11
-118.215
 21
-7.25883
  0
LINE
  8
0
 10
-118.215
 20
-7.25883
 11
-118.306
 21
-7.2621
  0
LINE
  8
0
 10
-118.306
 20
-7.2621
 11
-118.392
 21
-7.27199
  0
LINE
  8
0
 10
-118.392
 20
-7.27199
 11
-118.473
 21
-7.2886
  0
LINE
  8
0
 10
-118.473
 20
-7.2886
 11
-118.549
 21
-7.31204
  0
LINE
  8
0
 10
-118.549
 20
-7.31204
 11
-118.62
 21
-7.34245
  0
LINE
  8
0
 10
-118.62
 20
-7.34245
 11
-118.685
 21
-7.37985
  0
LINE
  8
0
 10
-118.685
 20
-7.37985
 11
-118.745
 21
-7.42419
  0
LINE
  8
0
 10
-118.745
 20
-7.42419
 11
-118.798
 21
-7.4751
  0
LINE
  8
0
 10
-118.798
 20
-7.4751
 11
-118.845
 21
-7.53215
  0
LINE
  8
0
 10
-118.845
 20
-7.53215
 11
-118.886
 21
-7.59515
  0
LINE
  8
0
 10
-118.886
 20
-7.59515
 11
-118.919
 21
-7.66386
  0
LINE
  8
0
 10
-118.919
 20
-7.66386
 11
-118.946
 21
-7.73805
  0
LINE
  8
0
 10
-118.946
 20
-7.73805
 11
-118.967
 21
-7.81763
  0
LINE
  8
0
 10
-118.967
 20
-7.81763
 11
-118.989
 21
-7.9554
  0
LINE
  8
0
 10
-118.989
 20
-7.9554
 11
-118.467
 21
-7.98491
  0
LINE
  8
0
 10
-118.467
 20
-7.98491
 11
-118.453
 21
-7.90282
  0
LINE
  8
0
 10
-118.453
 20
-7.90282
 11
-118.445
 21
-7.86932
  0
LINE
  8
0
 10
-118.445
 20
-7.86932
 11
-118.435
 21
-7.8392
  0
LINE
  8
0
 10
-118.435
 20
-7.8392
 11
-118.423
 21
-7.81248
  0
LINE
  8
0
 10
-118.423
 20
-7.81248
 11
-118.411
 21
-7.78874
  0
LINE
  8
0
 10
-118.411
 20
-7.78874
 11
-118.396
 21
-7.76808
  0
LINE
  8
0
 10
-118.396
 20
-7.76808
 11
-118.381
 21
-7.75069
  0
LINE
  8
0
 10
-118.381
 20
-7.75069
 11
-118.365
 21
-7.73579
  0
LINE
  8
0
 10
-118.365
 20
-7.73579
 11
-118.346
 21
-7.72324
  0
LINE
  8
0
 10
-118.346
 20
-7.72324
 11
-118.325
 21
-7.7128
  0
LINE
  8
0
 10
-118.325
 20
-7.7128
 11
-118.301
 21
-7.70441
  0
LINE
  8
0
 10
-118.301
 20
-7.70441
 11
-118.275
 21
-7.69823
  0
LINE
  8
0
 10
-118.275
 20
-7.69823
 11
-118.245
 21
-7.6944
  0
LINE
  8
0
 10
-118.245
 20
-7.6944
 11
-118.213
 21
-7.69313
  0
LINE
  8
0
 10
-118.213
 20
-7.69313
 11
-118.147
 21
-7.69814
  0
LINE
  8
0
 10
-118.147
 20
-7.69814
 11
-118.096
 21
-7.71214
  0
LINE
  8
0
 10
-118.096
 20
-7.71214
 11
-118.056
 21
-7.73386
  0
LINE
  8
0
 10
-118.056
 20
-7.73386
 11
-118.027
 21
-7.76317
  0
LINE
  8
0
 10
-118.027
 20
-7.76317
 11
-118.005
 21
-7.80222
  0
LINE
  8
0
 10
-118.005
 20
-7.80222
 11
-117.991
 21
-7.85332
  0
LINE
  8
0
 10
-117.991
 20
-7.85332
 11
-117.986
 21
-7.91803
  0
LINE
  8
0
 10
-117.986
 20
-7.91803
 11
-117.987
 21
-7.94417
  0
LINE
  8
0
 10
-117.987
 20
-7.94417
 11
-117.992
 21
-7.9709
  0
LINE
  8
0
 10
-117.992
 20
-7.9709
 11
-118
 21
-7.99847
  0
LINE
  8
0
 10
-118
 20
-7.99847
 11
-118.011
 21
-8.02663
  0
LINE
  8
0
 10
-118.011
 20
-8.02663
 11
-118.025
 21
-8.05568
  0
LINE
  8
0
 10
-118.025
 20
-8.05568
 11
-118.043
 21
-8.08514
  0
LINE
  8
0
 10
-118.043
 20
-8.08514
 11
-118.064
 21
-8.11551
  0
LINE
  8
0
 10
-118.064
 20
-8.11551
 11
-118.091
 21
-8.14786
  0
LINE
  8
0
 10
-118.091
 20
-8.14786
 11
-118.123
 21
-8.18317
  0
LINE
  8
0
 10
-118.123
 20
-8.18317
 11
-118.16
 21
-8.22147
  0
LINE
  8
0
 10
-118.16
 20
-8.22147
 11
-118.203
 21
-8.26263
  0
LINE
  8
0
 10
-118.203
 20
-8.26263
 11
-118.252
 21
-8.30653
  0
LINE
  8
0
 10
-118.252
 20
-8.30653
 11
-118.306
 21
-8.35309
  0
LINE
  8
0
 10
-118.306
 20
-8.35309
 11
-118.366
 21
-8.40265
  0
LINE
  8
0
 10
-118.366
 20
-8.40265
 11
-118.43
 21
-8.45596
  0
LINE
  8
0
 10
-118.43
 20
-8.45596
 11
-118.492
 21
-8.50899
  0
LINE
  8
0
 10
-118.492
 20
-8.50899
 11
-118.551
 21
-8.56146
  0
LINE
  8
0
 10
-118.551
 20
-8.56146
 11
-118.606
 21
-8.61342
  0
LINE
  8
0
 10
-118.606
 20
-8.61342
 11
-118.658
 21
-8.66484
  0
LINE
  8
0
 10
-118.658
 20
-8.66484
 11
-118.707
 21
-8.71574
  0
LINE
  8
0
 10
-118.707
 20
-8.71574
 11
-118.753
 21
-8.7662
  0
LINE
  8
0
 10
-118.753
 20
-8.7662
 11
-118.796
 21
-8.81676
  0
LINE
  8
0
 10
-118.796
 20
-8.81676
 11
-118.836
 21
-8.86787
  0
LINE
  8
0
 10
-118.836
 20
-8.86787
 11
-118.873
 21
-8.91943
  0
LINE
  8
0
 10
-118.873
 20
-8.91943
 11
-118.908
 21
-8.9715
  0
LINE
  8
0
 10
-118.908
 20
-8.9715
 11
-118.94
 21
-9.02408
  0
LINE
  8
0
 10
-118.94
 20
-9.02408
 11
-118.968
 21
-9.07712
  0
LINE
  8
0
 10
-118.968
 20
-9.07712
 11
-118.999
 21
-9.13988
  0
LINE
  8
0
 10
-118.999
 20
-9.13988
 11
-118.999
 21
-9.49223
  0
LINE
  8
0
 10
-118.999
 20
-9.49223
 11
-117.428
 21
-9.49223
  0
LINE
  8
0
 10
-117.428
 20
-9.49223
 11
-117.428
 21
-9.04761
  0
LINE
  8
0
 10
-112.391
 20
-9.06462
 11
-112.872
 21
-9.06462
  0
LINE
  8
0
 10
-112.872
 20
-9.06462
 11
-112.872
 21
-7.27438
  0
LINE
  8
0
 10
-112.872
 20
-7.27438
 11
-113.334
 21
-7.27438
  0
LINE
  8
0
 10
-113.334
 20
-7.27438
 11
-113.896
 21
-7.63885
  0
LINE
  8
0
 10
-113.896
 20
-7.63885
 11
-113.896
 21
-8.08589
  0
LINE
  8
0
 10
-113.896
 20
-8.08589
 11
-113.392
 21
-7.7711
  0
LINE
  8
0
 10
-113.392
 20
-7.7711
 11
-113.392
 21
-9.06462
  0
LINE
  8
0
 10
-113.392
 20
-9.06462
 11
-113.912
 21
-9.06462
  0
LINE
  8
0
 10
-113.912
 20
-9.06462
 11
-113.912
 21
-9.47643
  0
LINE
  8
0
 10
-113.912
 20
-9.47643
 11
-112.391
 21
-9.47643
  0
LINE
  8
0
 10
-112.391
 20
-9.47643
 11
-112.391
 21
-9.06462
  0
LINE
  8
0
 10
-101.246
 20
-9.40776
 11
-101.139
 21
-9.39839
  0
LINE
  8
0
 10
-101.139
 20
-9.39839
 11
-101.04
 21
-9.38264
  0
LINE
  8
0
 10
-101.04
 20
-9.38264
 11
-100.949
 21
-9.3604
  0
LINE
  8
0
 10
-100.949
 20
-9.3604
 11
-100.865
 21
-9.33151
  0
LINE
  8
0
 10
-100.865
 20
-9.33151
 11
-100.788
 21
-9.29581
  0
LINE
  8
0
 10
-100.788
 20
-9.29581
 11
-100.72
 21
-9.25313
  0
LINE
  8
0
 10
-100.72
 20
-9.25313
 11
-100.659
 21
-9.20374
  0
LINE
  8
0
 10
-100.659
 20
-9.20374
 11
-100.608
 21
-9.14795
  0
LINE
  8
0
 10
-100.608
 20
-9.14795
 11
-100.565
 21
-9.08592
  0
LINE
  8
0
 10
-100.565
 20
-9.08592
 11
-100.532
 21
-9.01805
  0
LINE
  8
0
 10
-100.532
 20
-9.01805
 11
-100.509
 21
-8.94472
  0
LINE
  8
0
 10
-100.509
 20
-8.94472
 11
-100.495
 21
-8.86635
  0
LINE
  8
0
 10
-100.495
 20
-8.86635
 11
-100.491
 21
-8.78391
  0
LINE
  8
0
 10
-100.491
 20
-8.78391
 11
-100.491
 21
-8.74728
  0
LINE
  8
0
 10
-100.491
 20
-8.74728
 11
-100.494
 21
-8.71248
  0
LINE
  8
0
 10
-100.494
 20
-8.71248
 11
-100.498
 21
-8.67867
  0
LINE
  8
0
 10
-100.498
 20
-8.67867
 11
-100.504
 21
-8.64586
  0
LINE
  8
0
 10
-100.504
 20
-8.64586
 11
-100.511
 21
-8.61406
  0
LINE
  8
0
 10
-100.511
 20
-8.61406
 11
-100.52
 21
-8.58331
  0
LINE
  8
0
 10
-100.52
 20
-8.58331
 11
-100.531
 21
-8.55371
  0
LINE
  8
0
 10
-100.531
 20
-8.55371
 11
-100.543
 21
-8.52531
  0
LINE
  8
0
 10
-100.543
 20
-8.52531
 11
-100.557
 21
-8.49805
  0
LINE
  8
0
 10
-100.557
 20
-8.49805
 11
-100.572
 21
-8.47186
  0
LINE
  8
0
 10
-100.572
 20
-8.47186
 11
-100.589
 21
-8.44679
  0
LINE
  8
0
 10
-100.589
 20
-8.44679
 11
-100.608
 21
-8.42288
  0
LINE
  8
0
 10
-100.608
 20
-8.42288
 11
-100.627
 21
-8.40016
  0
LINE
  8
0
 10
-100.627
 20
-8.40016
 11
-100.649
 21
-8.37857
  0
LINE
  8
0
 10
-100.649
 20
-8.37857
 11
-100.672
 21
-8.35799
  0
LINE
  8
0
 10
-100.672
 20
-8.35799
 11
-100.697
 21
-8.33832
  0
LINE
  8
0
 10
-100.697
 20
-8.33832
 11
-100.724
 21
-8.31958
  0
LINE
  8
0
 10
-100.724
 20
-8.31958
 11
-100.753
 21
-8.30177
  0
LINE
  8
0
 10
-100.753
 20
-8.30177
 11
-100.784
 21
-8.28484
  0
LINE
  8
0
 10
-100.784
 20
-8.28484
 11
-100.817
 21
-8.26874
  0
LINE
  8
0
 10
-100.817
 20
-8.26874
 11
-100.852
 21
-8.25337
  0
LINE
  8
0
 10
-100.852
 20
-8.25337
 11
-100.891
 21
-8.23827
  0
LINE
  8
0
 10
-100.891
 20
-8.23827
 11
-100.936
 21
-8.22296
  0
LINE
  8
0
 10
-100.936
 20
-8.22296
 11
-100.988
 21
-8.20752
  0
LINE
  8
0
 10
-100.988
 20
-8.20752
 11
-101.045
 21
-8.1918
  0
LINE
  8
0
 10
-101.045
 20
-8.1918
 11
-101.109
 21
-8.1758
  0
LINE
  8
0
 10
-101.109
 20
-8.1758
 11
-101.178
 21
-8.1595
  0
LINE
  8
0
 10
-101.178
 20
-8.1595
 11
-101.254
 21
-8.14297
  0
LINE
  8
0
 10
-101.254
 20
-8.14297
 11
-101.317
 21
-8.12898
  0
LINE
  8
0
 10
-101.317
 20
-8.12898
 11
-101.373
 21
-8.116
  0
LINE
  8
0
 10
-101.373
 20
-8.116
 11
-101.423
 21
-8.10349
  0
LINE
  8
0
 10
-101.423
 20
-8.10349
 11
-101.465
 21
-8.09186
  0
LINE
  8
0
 10
-101.465
 20
-8.09186
 11
-101.502
 21
-8.08104
  0
LINE
  8
0
 10
-101.502
 20
-8.08104
 11
-101.531
 21
-8.07132
  0
LINE
  8
0
 10
-101.531
 20
-8.07132
 11
-101.553
 21
-8.06239
  0
LINE
  8
0
 10
-101.553
 20
-8.06239
 11
-101.571
 21
-8.05394
  0
LINE
  8
0
 10
-101.571
 20
-8.05394
 11
-101.588
 21
-8.04485
  0
LINE
  8
0
 10
-101.588
 20
-8.04485
 11
-101.604
 21
-8.03545
  0
LINE
  8
0
 10
-101.604
 20
-8.03545
 11
-101.617
 21
-8.02588
  0
LINE
  8
0
 10
-101.617
 20
-8.02588
 11
-101.629
 21
-8.01616
  0
LINE
  8
0
 10
-101.629
 20
-8.01616
 11
-101.64
 21
-8.00612
  0
LINE
  8
0
 10
-101.64
 20
-8.00612
 11
-101.648
 21
-7.99635
  0
LINE
  8
0
 10
-101.648
 20
-7.99635
 11
-101.656
 21
-7.98637
  0
LINE
  8
0
 10
-101.656
 20
-7.98637
 11
-101.662
 21
-7.97601
  0
LINE
  8
0
 10
-101.662
 20
-7.97601
 11
-101.667
 21
-7.96443
  0
LINE
  8
0
 10
-101.667
 20
-7.96443
 11
-101.671
 21
-7.95175
  0
LINE
  8
0
 10
-101.671
 20
-7.95175
 11
-101.674
 21
-7.93785
  0
LINE
  8
0
 10
-101.674
 20
-7.93785
 11
-101.675
 21
-7.92253
  0
LINE
  8
0
 10
-101.675
 20
-7.92253
 11
-101.676
 21
-7.90764
  0
LINE
  8
0
 10
-101.676
 20
-7.90764
 11
-101.67
 21
-7.85849
  0
LINE
  8
0
 10
-101.67
 20
-7.85849
 11
-101.654
 21
-7.82121
  0
LINE
  8
0
 10
-101.654
 20
-7.82121
 11
-101.627
 21
-7.79071
  0
LINE
  8
0
 10
-101.627
 20
-7.79071
 11
-101.586
 21
-7.76498
  0
LINE
  8
0
 10
-101.586
 20
-7.76498
 11
-101.528
 21
-7.74496
  0
LINE
  8
0
 10
-101.528
 20
-7.74496
 11
-101.454
 21
-7.73221
  0
LINE
  8
0
 10
-101.454
 20
-7.73221
 11
-101.362
 21
-7.7278
  0
LINE
  8
0
 10
-101.362
 20
-7.7278
 11
-101.318
 21
-7.72899
  0
LINE
  8
0
 10
-101.318
 20
-7.72899
 11
-101.277
 21
-7.73254
  0
LINE
  8
0
 10
-101.277
 20
-7.73254
 11
-101.24
 21
-7.73831
  0
LINE
  8
0
 10
-101.24
 20
-7.73831
 11
-101.207
 21
-7.74629
  0
LINE
  8
0
 10
-101.207
 20
-7.74629
 11
-101.177
 21
-7.75621
  0
LINE
  8
0
 10
-101.177
 20
-7.75621
 11
-101.151
 21
-7.76799
  0
LINE
  8
0
 10
-101.151
 20
-7.76799
 11
-101.128
 21
-7.78166
  0
LINE
  8
0
 10
-101.128
 20
-7.78166
 11
-101.108
 21
-7.79723
  0
LINE
  8
0
 10
-101.108
 20
-7.79723
 11
-101.09
 21
-7.81483
  0
LINE
  8
0
 10
-101.09
 20
-7.81483
 11
-101.073
 21
-7.83455
  0
LINE
  8
0
 10
-101.073
 20
-7.83455
 11
-101.059
 21
-7.85645
  0
LINE
  8
0
 10
-101.059
 20
-7.85645
 11
-101.046
 21
-7.88098
  0
LINE
  8
0
 10
-101.046
 20
-7.88098
 11
-101.036
 21
-7.90796
  0
LINE
  8
0
 10
-101.036
 20
-7.90796
 11
-101.015
 21
-7.98135
  0
LINE
  8
0
 10
-101.015
 20
-7.98135
 11
-100.529
 21
-7.9151
  0
LINE
  8
0
 10
-100.529
 20
-7.9151
 11
-100.56
 21
-7.78853
  0
LINE
  8
0
 10
-100.56
 20
-7.78853
 11
-100.584
 21
-7.71944
  0
LINE
  8
0
 10
-100.584
 20
-7.71944
 11
-100.614
 21
-7.65598
  0
LINE
  8
0
 10
-100.614
 20
-7.65598
 11
-100.65
 21
-7.59833
  0
LINE
  8
0
 10
-100.65
 20
-7.59833
 11
-100.693
 21
-7.54675
  0
LINE
  8
0
 10
-100.693
 20
-7.54675
 11
-100.741
 21
-7.50159
  0
LINE
  8
0
 10
-100.741
 20
-7.50159
 11
-100.794
 21
-7.46307
  0
LINE
  8
0
 10
-100.794
 20
-7.46307
 11
-100.854
 21
-7.43073
  0
LINE
  8
0
 10
-100.854
 20
-7.43073
 11
-100.921
 21
-7.40379
  0
LINE
  8
0
 10
-100.921
 20
-7.40379
 11
-100.994
 21
-7.38211
  0
LINE
  8
0
 10
-100.994
 20
-7.38211
 11
-101.074
 21
-7.36543
  0
LINE
  8
0
 10
-101.074
 20
-7.36543
 11
-101.161
 21
-7.35365
  0
LINE
  8
0
 10
-101.161
 20
-7.35365
 11
-101.254
 21
-7.34662
  0
LINE
  8
0
 10
-101.254
 20
-7.34662
 11
-101.355
 21
-7.3443
  0
LINE
  8
0
 10
-101.355
 20
-7.3443
 11
-101.46
 21
-7.34718
  0
LINE
  8
0
 10
-101.46
 20
-7.34718
 11
-101.558
 21
-7.3559
  0
LINE
  8
0
 10
-101.558
 20
-7.3559
 11
-101.65
 21
-7.37054
  0
LINE
  8
0
 10
-101.65
 20
-7.37054
 11
-101.735
 21
-7.39122
  0
LINE
  8
0
 10
-101.735
 20
-7.39122
 11
-101.814
 21
-7.41812
  0
LINE
  8
0
 10
-101.814
 20
-7.41812
 11
-101.885
 21
-7.45135
  0
LINE
  8
0
 10
-101.885
 20
-7.45135
 11
-101.95
 21
-7.49109
  0
LINE
  8
0
 10
-101.95
 20
-7.49109
 11
-102.006
 21
-7.53711
  0
LINE
  8
0
 10
-102.006
 20
-7.53711
 11
-102.055
 21
-7.5891
  0
LINE
  8
0
 10
-102.055
 20
-7.5891
 11
-102.095
 21
-7.64688
  0
LINE
  8
0
 10
-102.095
 20
-7.64688
 11
-102.126
 21
-7.71016
  0
LINE
  8
0
 10
-102.126
 20
-7.71016
 11
-102.148
 21
-7.77843
  0
LINE
  8
0
 10
-102.148
 20
-7.77843
 11
-102.161
 21
-7.85132
  0
LINE
  8
0
 10
-102.161
 20
-7.85132
 11
-102.165
 21
-7.92775
  0
LINE
  8
0
 10
-102.165
 20
-7.92775
 11
-102.165
 21
-7.95918
  0
LINE
  8
0
 10
-102.165
 20
-7.95918
 11
-102.163
 21
-7.98889
  0
LINE
  8
0
 10
-102.163
 20
-7.98889
 11
-102.16
 21
-8.01776
  0
LINE
  8
0
 10
-102.16
 20
-8.01776
 11
-102.156
 21
-8.04584
  0
LINE
  8
0
 10
-102.156
 20
-8.04584
 11
-102.151
 21
-8.07307
  0
LINE
  8
0
 10
-102.151
 20
-8.07307
 11
-102.144
 21
-8.09944
  0
LINE
  8
0
 10
-102.144
 20
-8.09944
 11
-102.136
 21
-8.12488
  0
LINE
  8
0
 10
-102.136
 20
-8.12488
 11
-102.127
 21
-8.14923
  0
LINE
  8
0
 10
-102.127
 20
-8.14923
 11
-102.118
 21
-8.1727
  0
LINE
  8
0
 10
-102.118
 20
-8.1727
 11
-102.107
 21
-8.19536
  0
LINE
  8
0
 10
-102.107
 20
-8.19536
 11
-102.095
 21
-8.21721
  0
LINE
  8
0
 10
-102.095
 20
-8.21721
 11
-102.082
 21
-8.2382
  0
LINE
  8
0
 10
-102.082
 20
-8.2382
 11
-102.069
 21
-8.25835
  0
LINE
  8
0
 10
-102.069
 20
-8.25835
 11
-102.054
 21
-8.27757
  0
LINE
  8
0
 10
-102.054
 20
-8.27757
 11
-102.038
 21
-8.29584
  0
LINE
  8
0
 10
-102.038
 20
-8.29584
 11
-102.022
 21
-8.31326
  0
LINE
  8
0
 10
-102.022
 20
-8.31326
 11
-102.004
 21
-8.32993
  0
LINE
  8
0
 10
-102.004
 20
-8.32993
 11
-101.986
 21
-8.34575
  0
LINE
  8
0
 10
-101.986
 20
-8.34575
 11
-101.967
 21
-8.36081
  0
LINE
  8
0
 10
-101.967
 20
-8.36081
 11
-101.947
 21
-8.37502
  0
LINE
  8
0
 10
-101.947
 20
-8.37502
 11
-101.926
 21
-8.38834
  0
LINE
  8
0
 10
-101.926
 20
-8.38834
 11
-101.905
 21
-8.40082
  0
LINE
  8
0
 10
-101.905
 20
-8.40082
 11
-101.883
 21
-8.4127
  0
LINE
  8
0
 10
-101.883
 20
-8.4127
 11
-101.861
 21
-8.42409
  0
LINE
  8
0
 10
-101.861
 20
-8.42409
 11
-101.838
 21
-8.43497
  0
LINE
  8
0
 10
-101.838
 20
-8.43497
 11
-101.814
 21
-8.44534
  0
LINE
  8
0
 10
-101.814
 20
-8.44534
 11
-101.79
 21
-8.45522
  0
LINE
  8
0
 10
-101.79
 20
-8.45522
 11
-101.765
 21
-8.46466
  0
LINE
  8
0
 10
-101.765
 20
-8.46466
 11
-101.737
 21
-8.47426
  0
LINE
  8
0
 10
-101.737
 20
-8.47426
 11
-101.703
 21
-8.48454
  0
LINE
  8
0
 10
-101.703
 20
-8.48454
 11
-101.665
 21
-8.49553
  0
LINE
  8
0
 10
-101.665
 20
-8.49553
 11
-101.622
 21
-8.50723
  0
LINE
  8
0
 10
-101.622
 20
-8.50723
 11
-101.573
 21
-8.5197
  0
LINE
  8
0
 10
-101.573
 20
-8.5197
 11
-101.52
 21
-8.53294
  0
LINE
  8
0
 10
-101.52
 20
-8.53294
 11
-101.46
 21
-8.54709
  0
LINE
  8
0
 10
-101.46
 20
-8.54709
 11
-101.392
 21
-8.56117
  0
LINE
  8
0
 10
-101.392
 20
-8.56117
 11
-101.332
 21
-8.57442
  0
LINE
  8
0
 10
-101.332
 20
-8.57442
 11
-101.278
 21
-8.5871
  0
LINE
  8
0
 10
-101.278
 20
-8.5871
 11
-101.231
 21
-8.59918
  0
LINE
  8
0
 10
-101.231
 20
-8.59918
 11
-101.191
 21
-8.6102
  0
LINE
  8
0
 10
-101.191
 20
-8.6102
 11
-101.158
 21
-8.62076
  0
LINE
  8
0
 10
-101.158
 20
-8.62076
 11
-101.132
 21
-8.63016
  0
LINE
  8
0
 10
-101.132
 20
-8.63016
 11
-101.11
 21
-8.63962
  0
LINE
  8
0
 10
-101.11
 20
-8.63962
 11
-101.09
 21
-8.64951
  0
LINE
  8
0
 10
-101.09
 20
-8.64951
 11
-101.072
 21
-8.66002
  0
LINE
  8
0
 10
-101.072
 20
-8.66002
 11
-101.055
 21
-8.67079
  0
LINE
  8
0
 10
-101.055
 20
-8.67079
 11
-101.04
 21
-8.68198
  0
LINE
  8
0
 10
-101.04
 20
-8.68198
 11
-101.027
 21
-8.69368
  0
LINE
  8
0
 10
-101.027
 20
-8.69368
 11
-101.015
 21
-8.70529
  0
LINE
  8
0
 10
-101.015
 20
-8.70529
 11
-101.006
 21
-8.71698
  0
LINE
  8
0
 10
-101.006
 20
-8.71698
 11
-100.998
 21
-8.7291
  0
LINE
  8
0
 10
-100.998
 20
-8.7291
 11
-100.992
 21
-8.74194
  0
LINE
  8
0
 10
-100.992
 20
-8.74194
 11
-100.987
 21
-8.75601
  0
LINE
  8
0
 10
-100.987
 20
-8.75601
 11
-100.983
 21
-8.77116
  0
LINE
  8
0
 10
-100.983
 20
-8.77116
 11
-100.981
 21
-8.78799
  0
LINE
  8
0
 10
-100.981
 20
-8.78799
 11
-100.98
 21
-8.80409
  0
LINE
  8
0
 10
-100.98
 20
-8.80409
 11
-100.987
 21
-8.86015
  0
LINE
  8
0
 10
-100.987
 20
-8.86015
 11
-101.006
 21
-8.90327
  0
LINE
  8
0
 10
-101.006
 20
-8.90327
 11
-101.039
 21
-8.93886
  0
LINE
  8
0
 10
-101.039
 20
-8.93886
 11
-101.088
 21
-8.96872
  0
LINE
  8
0
 10
-101.088
 20
-8.96872
 11
-101.156
 21
-8.99165
  0
LINE
  8
0
 10
-101.156
 20
-8.99165
 11
-101.243
 21
-9.00613
  0
LINE
  8
0
 10
-101.243
 20
-9.00613
 11
-101.349
 21
-9.01111
  0
LINE
  8
0
 10
-101.349
 20
-9.01111
 11
-101.402
 21
-9.00978
  0
LINE
  8
0
 10
-101.402
 20
-9.00978
 11
-101.452
 21
-9.00584
  0
LINE
  8
0
 10
-101.452
 20
-9.00584
 11
-101.497
 21
-8.99931
  0
LINE
  8
0
 10
-101.497
 20
-8.99931
 11
-101.539
 21
-8.9903
  0
LINE
  8
0
 10
-101.539
 20
-8.9903
 11
-101.576
 21
-8.97903
  0
LINE
  8
0
 10
-101.576
 20
-8.97903
 11
-101.61
 21
-8.96541
  0
LINE
  8
0
 10
-101.61
 20
-8.96541
 11
-101.639
 21
-8.9498
  0
LINE
  8
0
 10
-101.639
 20
-8.9498
 11
-101.665
 21
-8.93188
  0
LINE
  8
0
 10
-101.665
 20
-8.93188
 11
-101.689
 21
-8.91122
  0
LINE
  8
0
 10
-101.689
 20
-8.91122
 11
-101.71
 21
-8.88766
  0
LINE
  8
0
 10
-101.71
 20
-8.88766
 11
-101.728
 21
-8.86092
  0
LINE
  8
0
 10
-101.728
 20
-8.86092
 11
-101.744
 21
-8.83073
  0
LINE
  8
0
 10
-101.744
 20
-8.83073
 11
-101.758
 21
-8.79701
  0
LINE
  8
0
 10
-101.758
 20
-8.79701
 11
-101.783
 21
-8.71582
  0
LINE
  8
0
 10
-101.783
 20
-8.71582
 11
-102.268
 21
-8.79572
  0
LINE
  8
0
 10
-102.268
 20
-8.79572
 11
-102.232
 21
-8.92456
  0
LINE
  8
0
 10
-102.232
 20
-8.92456
 11
-102.204
 21
-8.99684
  0
LINE
  8
0
 10
-102.204
 20
-8.99684
 11
-102.169
 21
-9.06372
  0
LINE
  8
0
 10
-102.169
 20
-9.06372
 11
-102.128
 21
-9.12502
  0
LINE
  8
0
 10
-102.128
 20
-9.12502
 11
-102.079
 21
-9.18047
  0
LINE
  8
0
 10
-102.079
 20
-9.18047
 11
-102.024
 21
-9.22989
  0
LINE
  8
0
 10
-102.024
 20
-9.22989
 11
-101.963
 21
-9.27313
  0
LINE
  8
0
 10
-101.963
 20
-9.27313
 11
-101.895
 21
-9.31027
  0
LINE
  8
0
 10
-101.895
 20
-9.31027
 11
-101.821
 21
-9.34142
  0
LINE
  8
0
 10
-101.821
 20
-9.34142
 11
-101.741
 21
-9.36665
  0
LINE
  8
0
 10
-101.741
 20
-9.36665
 11
-101.655
 21
-9.38612
  0
LINE
  8
0
 10
-101.655
 20
-9.38612
 11
-101.563
 21
-9.39993
  0
LINE
  8
0
 10
-101.563
 20
-9.39993
 11
-101.464
 21
-9.40814
  0
LINE
  8
0
 10
-101.464
 20
-9.40814
 11
-101.36
 21
-9.41087
  0
LINE
  8
0
 10
-101.36
 20
-9.41087
 11
-101.246
 21
-9.40776
  0
LINE
  8
0
 10
-99.3854
 20
-9.03809
 11
-99.3239
 21
-8.77419
  0
LINE
  8
0
 10
-99.3239
 20
-8.77419
 11
-99.2725
 21
-8.55345
  0
LINE
  8
0
 10
-99.2725
 20
-8.55345
 11
-99.2312
 21
-8.37587
  0
LINE
  8
0
 10
-99.2312
 20
-8.37587
 11
-99.2001
 21
-8.24138
  0
LINE
  8
0
 10
-99.2001
 20
-8.24138
 11
-99.179
 21
-8.14999
  0
LINE
  8
0
 10
-99.179
 20
-8.14999
 11
-99.1681
 21
-8.1015
  0
LINE
  8
0
 10
-99.1681
 20
-8.1015
 11
-99.166
 21
-8.09158
  0
LINE
  8
0
 10
-99.166
 20
-8.09158
 11
-99.1588
 21
-8.12592
  0
LINE
  8
0
 10
-99.1588
 20
-8.12592
 11
-99.146
 21
-8.18343
  0
LINE
  8
0
 10
-99.146
 20
-8.18343
 11
-99.1326
 21
-8.2399
  0
LINE
  8
0
 10
-99.1326
 20
-8.2399
 11
-98.8646
 21
-9.38374
  0
LINE
  8
0
 10
-98.8646
 20
-9.38374
 11
-98.3115
 21
-9.38374
  0
LINE
  8
0
 10
-98.3115
 20
-9.38374
 11
-97.792
 21
-7.37279
  0
LINE
  8
0
 10
-97.792
 20
-7.37279
 11
-98.3024
 21
-7.37279
  0
LINE
  8
0
 10
-98.3024
 20
-7.37279
 11
-98.5414
 21
-8.47484
  0
LINE
  8
0
 10
-98.5414
 20
-8.47484
 11
-98.5926
 21
-8.69713
  0
LINE
  8
0
 10
-98.5926
 20
-8.69713
 11
-98.6002
 21
-8.65503
  0
LINE
  8
0
 10
-98.6002
 20
-8.65503
 11
-98.614
 21
-8.58102
  0
LINE
  8
0
 10
-98.614
 20
-8.58102
 11
-98.6263
 21
-8.51859
  0
LINE
  8
0
 10
-98.6263
 20
-8.51859
 11
-98.637
 21
-8.46758
  0
LINE
  8
0
 10
-98.637
 20
-8.46758
 11
-98.6461
 21
-8.42853
  0
LINE
  8
0
 10
-98.6461
 20
-8.42853
 11
-98.8967
 21
-7.37279
  0
LINE
  8
0
 10
-98.8967
 20
-7.37279
 11
-99.4234
 21
-7.37279
  0
LINE
  8
0
 10
-99.4234
 20
-7.37279
 11
-99.4954
 21
-7.68047
  0
LINE
  8
0
 10
-99.4954
 20
-7.68047
 11
-99.5503
 21
-7.91571
  0
LINE
  8
0
 10
-99.5503
 20
-7.91571
 11
-99.597
 21
-8.11711
  0
LINE
  8
0
 10
-99.597
 20
-8.11711
 11
-99.6357
 21
-8.2847
  0
LINE
  8
0
 10
-99.6357
 20
-8.2847
 11
-99.6663
 21
-8.41846
  0
LINE
  8
0
 10
-99.6663
 20
-8.41846
 11
-99.6888
 21
-8.51852
  0
LINE
  8
0
 10
-99.6888
 20
-8.51852
 11
-99.7032
 21
-8.58484
  0
LINE
  8
0
 10
-99.7032
 20
-8.58484
 11
-99.7136
 21
-8.63443
  0
LINE
  8
0
 10
-99.7136
 20
-8.63443
 11
-99.7288
 21
-8.7081
  0
LINE
  8
0
 10
-99.7288
 20
-8.7081
 11
-99.7417
 21
-8.64639
  0
LINE
  8
0
 10
-99.7417
 20
-8.64639
 11
-100.027
 21
-7.37279
  0
LINE
  8
0
 10
-100.027
 20
-7.37279
 11
-100.537
 21
-7.37279
  0
LINE
  8
0
 10
-100.537
 20
-7.37279
 11
-100.019
 21
-9.38374
  0
LINE
  8
0
 10
-100.019
 20
-9.38374
 11
-99.4661
 21
-9.38374
  0
LINE
  8
0
 10
-99.4661
 20
-9.38374
 11
-99.3854
 21
-9.03809
  0
LINE
  8
0
 10
-94.8
 20
-8.69998
 11
-94.1
 21
-8.69998
  0
LINE
  8
0
 10
-94.1
 20
-8.69998
 11
-94.1
 21
-8.10001
  0
LINE
  8
0
 10
-94.1
 20
-8.10001
 11
-94.8
 21
-8.10001
  0
LINE
  8
0
 10
-94.8
 20
-8.10001
 11
-94.8
 21
-7.39999
  0
LINE
  8
0
 10
-94.8
 20
-7.39999
 11
-95.4
 21
-7.39999
  0
LINE
  8
0
 10
-95.4
 20
-7.39999
 11
-95.4
 21
-8.10001
  0
LINE
  8
0
 10
-95.4
 20
-8.10001
 11
-96.1
 21
-8.10001
  0
LINE
  8
0
 10
-96.1
 20
-8.10001
 11
-96.1
 21
-8.69998
  0
LINE
  8
0
 10
-96.1
 20
-8.69998
 11
-95.4
 21
-8.69998
  0
LINE
  8
0
 10
-95.4
 20
-8.69998
 11
-95.4
 21
-9.39999
  0
LINE
  8
0
 10
-95.4
 20
-9.39999
 11
-94.8
 21
-9.39999
  0
LINE
  8
0
 10
-94.8
 20
-9.39999
 11
-94.8
 21
-8.69998
  0
LINE
  8
0
 10
-127.325
 20
-8.69998
 11
-126.625
 21
-8.69998
  0
LINE
  8
0
 10
-126.625
 20
-8.69998
 11
-126.625
 21
-8.10001
  0
LINE
  8
0
 10
-126.625
 20
-8.10001
 11
-127.325
 21
-8.10001
  0
LINE
  8
0
 10
-127.325
 20
-8.10001
 11
-127.325
 21
-7.39999
  0
LINE
  8
0
 10
-127.325
 20
-7.39999
 11
-127.925
 21
-7.39999
  0
LINE
  8
0
 10
-127.925
 20
-7.39999
 11
-127.925
 21
-8.10001
  0
LINE
  8
0
 10
-127.925
 20
-8.10001
 11
-128.625
 21
-8.10001
  0
LINE
  8
0
 10
-128.625
 20
-8.10001
 11
-128.625
 21
-8.69998
  0
LINE
  8
0
 10
-128.625
 20
-8.69998
 11
-127.925
 21
-8.69998
  0
LINE
  8
0
 10
-127.925
 20
-8.69998
 11
-127.925
 21
-9.39999
  0
LINE
  8
0
 10
-127.925
 20
-9.39999
 11
-127.325
 21
-9.39999
  0
LINE
  8
0
 10
-127.325
 20
-9.39999
 11
-127.325
 21
-8.69998
  0
LINE
  8
0
 10
-131.625
 20
-8.09999
 11
-133.625
 21
-8.09999
  0
LINE
  8
0
 10
-133.625
 20
-8.09999
 11
-133.625
 21
-8.7
  0
LINE
  8
0
 10
-133.625
 20
-8.7
 11
-131.625
 21
-8.7
  0
LINE
  8
0
 10
-131.625
 20
-8.7
 11
-131.625
 21
-8.09999
  0
LINE
  8
0
 10
-104.1
 20
-8.09999
 11
-106.1
 21
-8.09999
  0
LINE
  8
0
 10
-106.1
 20
-8.09999
 11
-106.1
 21
-8.7
  0
LINE
  8
0
 10
-106.1
 20
-8.7
 11
-104.1
 21
-8.7
  0
LINE
  8
0
 10
-104.1
 20
-8.7
 11
-104.1
 21
-8.09999
  0
ENDSEC
  0
SECTION
  2
OBJECTS
  0
DICTIONARY
  0
ENDSEC
  0
EOF
