  0
SECTION
  2
BLOCKS
  0
ENDSEC
  0
SECTION
  2
ENTITIES
  0
LINE
  8
0
 10
7.57144
 20
-216.818
 11
15.1337
 21
-216.422
  0
LINE
  8
0
 10
15.1337
 20
-216.422
 11
22.6774
 21
-215.762
  0
LINE
  8
0
 10
22.6774
 20
-215.762
 11
30.1936
 21
-214.839
  0
LINE
  8
0
 10
30.1936
 20
-214.839
 11
37.673
 21
-213.654
  0
LINE
  8
0
 10
37.673
 20
-213.654
 11
45.1065
 21
-212.209
  0
LINE
  8
0
 10
45.1065
 20
-212.209
 11
52.485
 21
-210.506
  0
LINE
  8
0
 10
52.485
 20
-210.506
 11
59.7995
 21
-208.546
  0
LINE
  8
0
 10
59.7995
 20
-208.546
 11
67.0413
 21
-206.332
  0
LINE
  8
0
 10
67.0413
 20
-206.332
 11
74.2013
 21
-203.866
  0
LINE
  8
0
 10
74.2013
 20
-203.866
 11
81.2709
 21
-201.153
  0
LINE
  8
0
 10
81.2709
 20
-201.153
 11
88.2415
 21
-198.194
  0
LINE
  8
0
 10
88.2415
 20
-198.194
 11
95.1046
 21
-194.993
  0
LINE
  8
0
 10
95.1046
 20
-194.993
 11
101.852
 21
-191.556
  0
LINE
  8
0
 10
101.852
 20
-191.556
 11
108.475
 21
-187.884
  0
LINE
  8
0
 10
108.475
 20
-187.884
 11
114.966
 21
-183.984
  0
LINE
  8
0
 10
114.966
 20
-183.984
 11
121.317
 21
-179.86
  0
LINE
  8
0
 10
121.317
 20
-179.86
 11
127.52
 21
-175.516
  0
LINE
  8
0
 10
127.52
 20
-175.516
 11
133.568
 21
-170.959
  0
LINE
  8
0
 10
133.568
 20
-170.959
 11
139.453
 21
-166.193
  0
LINE
  8
0
 10
139.453
 20
-166.193
 11
145.168
 21
-161.225
  0
LINE
  8
0
 10
145.168
 20
-161.225
 11
150.706
 21
-156.061
  0
LINE
  8
0
 10
150.706
 20
-156.061
 11
156.061
 21
-150.706
  0
LINE
  8
0
 10
156.061
 20
-150.706
 11
161.225
 21
-145.168
  0
LINE
  8
0
 10
161.225
 20
-145.168
 11
166.193
 21
-139.453
  0
LINE
  8
0
 10
166.193
 20
-139.453
 11
170.959
 21
-133.568
  0
LINE
  8
0
 10
170.959
 20
-133.568
 11
175.516
 21
-127.52
  0
LINE
  8
0
 10
175.516
 20
-127.52
 11
179.86
 21
-121.317
  0
LINE
  8
0
 10
179.86
 20
-121.317
 11
183.984
 21
-114.966
  0
LINE
  8
0
 10
183.984
 20
-114.966
 11
187.884
 21
-108.475
  0
LINE
  8
0
 10
187.884
 20
-108.475
 11
191.556
 21
-101.852
  0
LINE
  8
0
 10
191.556
 20
-101.852
 11
194.993
 21
-95.1046
  0
LINE
  8
0
 10
194.993
 20
-95.1046
 11
198.194
 21
-88.2415
  0
LINE
  8
0
 10
198.194
 20
-88.2415
 11
201.153
 21
-81.2709
  0
LINE
  8
0
 10
201.153
 20
-81.2709
 11
203.866
 21
-74.2013
  0
LINE
  8
0
 10
203.866
 20
-74.2013
 11
206.332
 21
-67.0413
  0
LINE
  8
0
 10
206.332
 20
-67.0413
 11
208.546
 21
-59.7995
  0
LINE
  8
0
 10
208.546
 20
-59.7995
 11
210.506
 21
-52.485
  0
LINE
  8
0
 10
210.506
 20
-52.485
 11
212.209
 21
-45.1065
  0
LINE
  8
0
 10
212.209
 20
-45.1065
 11
213.654
 21
-37.673
  0
LINE
  8
0
 10
213.654
 20
-37.673
 11
214.839
 21
-30.1936
  0
LINE
  8
0
 10
214.839
 20
-30.1936
 11
215.762
 21
-22.6774
  0
LINE
  8
0
 10
215.762
 20
-22.6774
 11
216.422
 21
-15.1337
  0
LINE
  8
0
 10
216.422
 20
-15.1337
 11
216.818
 21
-7.57144
  0
LINE
  8
0
 10
216.818
 20
-7.57144
 11
216.95
 21
0
  0
LINE
  8
0
 10
216.95
 20
0
 11
216.818
 21
7.57144
  0
LINE
  8
0
 10
216.818
 20
7.57144
 11
216.422
 21
15.1337
  0
LINE
  8
0
 10
216.422
 20
15.1337
 11
215.762
 21
22.6774
  0
LINE
  8
0
 10
215.762
 20
22.6774
 11
214.839
 21
30.1936
  0
LINE
  8
0
 10
214.839
 20
30.1936
 11
213.654
 21
37.673
  0
LINE
  8
0
 10
213.654
 20
37.673
 11
212.209
 21
45.1065
  0
LINE
  8
0
 10
212.209
 20
45.1065
 11
210.506
 21
52.485
  0
LINE
  8
0
 10
210.506
 20
52.485
 11
208.546
 21
59.7995
  0
LINE
  8
0
 10
208.546
 20
59.7995
 11
206.332
 21
67.0413
  0
LINE
  8
0
 10
206.332
 20
67.0413
 11
203.866
 21
74.2013
  0
LINE
  8
0
 10
203.866
 20
74.2013
 11
201.153
 21
81.2709
  0
LINE
  8
0
 10
201.153
 20
81.2709
 11
198.194
 21
88.2415
  0
LINE
  8
0
 10
198.194
 20
88.2415
 11
194.993
 21
95.1046
  0
LINE
  8
0
 10
194.993
 20
95.1046
 11
191.556
 21
101.852
  0
LINE
  8
0
 10
191.556
 20
101.852
 11
187.884
 21
108.475
  0
LINE
  8
0
 10
187.884
 20
108.475
 11
183.984
 21
114.966
  0
LINE
  8
0
 10
183.984
 20
114.966
 11
179.86
 21
121.317
  0
LINE
  8
0
 10
179.86
 20
121.317
 11
175.516
 21
127.52
  0
LINE
  8
0
 10
175.516
 20
127.52
 11
170.959
 21
133.568
  0
LINE
  8
0
 10
170.959
 20
133.568
 11
166.193
 21
139.453
  0
LINE
  8
0
 10
166.193
 20
139.453
 11
161.225
 21
145.168
  0
LINE
  8
0
 10
161.225
 20
145.168
 11
156.061
 21
150.706
  0
LINE
  8
0
 10
156.061
 20
150.706
 11
150.706
 21
156.061
  0
LINE
  8
0
 10
150.706
 20
156.061
 11
145.168
 21
161.225
  0
LINE
  8
0
 10
145.168
 20
161.225
 11
139.453
 21
166.193
  0
LINE
  8
0
 10
139.453
 20
166.193
 11
133.568
 21
170.959
  0
LINE
  8
0
 10
133.568
 20
170.959
 11
127.52
 21
175.516
  0
LINE
  8
0
 10
127.52
 20
175.516
 11
121.317
 21
179.86
  0
LINE
  8
0
 10
121.317
 20
179.86
 11
114.966
 21
183.984
  0
LINE
  8
0
 10
114.966
 20
183.984
 11
108.475
 21
187.884
  0
LINE
  8
0
 10
108.475
 20
187.884
 11
101.852
 21
191.556
  0
LINE
  8
0
 10
101.852
 20
191.556
 11
95.1046
 21
194.993
  0
LINE
  8
0
 10
95.1046
 20
194.993
 11
88.2415
 21
198.194
  0
LINE
  8
0
 10
88.2415
 20
198.194
 11
81.2709
 21
201.153
  0
LINE
  8
0
 10
81.2709
 20
201.153
 11
74.2013
 21
203.866
  0
LINE
  8
0
 10
74.2013
 20
203.866
 11
67.0413
 21
206.332
  0
LINE
  8
0
 10
67.0413
 20
206.332
 11
59.7995
 21
208.546
  0
LINE
  8
0
 10
59.7995
 20
208.546
 11
52.485
 21
210.506
  0
LINE
  8
0
 10
52.485
 20
210.506
 11
45.1065
 21
212.209
  0
LINE
  8
0
 10
45.1065
 20
212.209
 11
37.673
 21
213.654
  0
LINE
  8
0
 10
37.673
 20
213.654
 11
30.1936
 21
214.839
  0
LINE
  8
0
 10
30.1936
 20
214.839
 11
22.6774
 21
215.762
  0
LINE
  8
0
 10
22.6774
 20
215.762
 11
15.1337
 21
216.422
  0
LINE
  8
0
 10
15.1337
 20
216.422
 11
7.57144
 21
216.818
  0
LINE
  8
0
 10
7.57144
 20
216.818
 11
0
 21
216.95
  0
LINE
  8
0
 10
0
 20
216.95
 11
-7.57144
 21
216.818
  0
LINE
  8
0
 10
-7.57144
 20
216.818
 11
-15.1337
 21
216.422
  0
LINE
  8
0
 10
-15.1337
 20
216.422
 11
-22.6774
 21
215.762
  0
LINE
  8
0
 10
-22.6774
 20
215.762
 11
-30.1936
 21
214.839
  0
LINE
  8
0
 10
-30.1936
 20
214.839
 11
-37.673
 21
213.654
  0
LINE
  8
0
 10
-37.673
 20
213.654
 11
-45.1065
 21
212.209
  0
LINE
  8
0
 10
-45.1065
 20
212.209
 11
-52.485
 21
210.506
  0
LINE
  8
0
 10
-52.485
 20
210.506
 11
-59.7995
 21
208.546
  0
LINE
  8
0
 10
-59.7995
 20
208.546
 11
-67.0413
 21
206.332
  0
LINE
  8
0
 10
-67.0413
 20
206.332
 11
-74.2013
 21
203.866
  0
LINE
  8
0
 10
-74.2013
 20
203.866
 11
-81.2709
 21
201.153
  0
LINE
  8
0
 10
-81.2709
 20
201.153
 11
-88.2415
 21
198.194
  0
LINE
  8
0
 10
-88.2415
 20
198.194
 11
-95.1046
 21
194.993
  0
LINE
  8
0
 10
-95.1046
 20
194.993
 11
-101.852
 21
191.556
  0
LINE
  8
0
 10
-101.852
 20
191.556
 11
-108.475
 21
187.884
  0
LINE
  8
0
 10
-108.475
 20
187.884
 11
-114.966
 21
183.984
  0
LINE
  8
0
 10
-114.966
 20
183.984
 11
-121.317
 21
179.86
  0
LINE
  8
0
 10
-121.317
 20
179.86
 11
-127.52
 21
175.516
  0
LINE
  8
0
 10
-127.52
 20
175.516
 11
-133.568
 21
170.959
  0
LINE
  8
0
 10
-133.568
 20
170.959
 11
-139.453
 21
166.193
  0
LINE
  8
0
 10
-139.453
 20
166.193
 11
-145.168
 21
161.225
  0
LINE
  8
0
 10
-145.168
 20
161.225
 11
-150.706
 21
156.061
  0
LINE
  8
0
 10
-150.706
 20
156.061
 11
-156.061
 21
150.706
  0
LINE
  8
0
 10
-156.061
 20
150.706
 11
-161.225
 21
145.168
  0
LINE
  8
0
 10
-161.225
 20
145.168
 11
-166.193
 21
139.453
  0
LINE
  8
0
 10
-166.193
 20
139.453
 11
-170.959
 21
133.568
  0
LINE
  8
0
 10
-170.959
 20
133.568
 11
-175.516
 21
127.52
  0
LINE
  8
0
 10
-175.516
 20
127.52
 11
-179.86
 21
121.317
  0
LINE
  8
0
 10
-179.86
 20
121.317
 11
-183.984
 21
114.966
  0
LINE
  8
0
 10
-183.984
 20
114.966
 11
-187.884
 21
108.475
  0
LINE
  8
0
 10
-187.884
 20
108.475
 11
-191.556
 21
101.852
  0
LINE
  8
0
 10
-191.556
 20
101.852
 11
-194.993
 21
95.1046
  0
LINE
  8
0
 10
-194.993
 20
95.1046
 11
-198.194
 21
88.2415
  0
LINE
  8
0
 10
-198.194
 20
88.2415
 11
-201.153
 21
81.2709
  0
LINE
  8
0
 10
-201.153
 20
81.2709
 11
-203.866
 21
74.2013
  0
LINE
  8
0
 10
-203.866
 20
74.2013
 11
-206.332
 21
67.0413
  0
LINE
  8
0
 10
-206.332
 20
67.0413
 11
-208.546
 21
59.7995
  0
LINE
  8
0
 10
-208.546
 20
59.7995
 11
-210.506
 21
52.485
  0
LINE
  8
0
 10
-210.506
 20
52.485
 11
-212.209
 21
45.1065
  0
LINE
  8
0
 10
-212.209
 20
45.1065
 11
-213.654
 21
37.673
  0
LINE
  8
0
 10
-213.654
 20
37.673
 11
-214.839
 21
30.1936
  0
LINE
  8
0
 10
-214.839
 20
30.1936
 11
-215.762
 21
22.6774
  0
LINE
  8
0
 10
-215.762
 20
22.6774
 11
-216.422
 21
15.1337
  0
LINE
  8
0
 10
-216.422
 20
15.1337
 11
-216.818
 21
7.57144
  0
LINE
  8
0
 10
-216.818
 20
7.57144
 11
-216.95
 21
0
  0
LINE
  8
0
 10
-216.95
 20
0
 11
-216.818
 21
-7.57144
  0
LINE
  8
0
 10
-216.818
 20
-7.57144
 11
-216.422
 21
-15.1337
  0
LINE
  8
0
 10
-216.422
 20
-15.1337
 11
-215.762
 21
-22.6774
  0
LINE
  8
0
 10
-215.762
 20
-22.6774
 11
-214.839
 21
-30.1936
  0
LINE
  8
0
 10
-214.839
 20
-30.1936
 11
-213.654
 21
-37.673
  0
LINE
  8
0
 10
-213.654
 20
-37.673
 11
-212.209
 21
-45.1065
  0
LINE
  8
0
 10
-212.209
 20
-45.1065
 11
-210.506
 21
-52.485
  0
LINE
  8
0
 10
-210.506
 20
-52.485
 11
-208.546
 21
-59.7995
  0
LINE
  8
0
 10
-208.546
 20
-59.7995
 11
-206.332
 21
-67.0413
  0
LINE
  8
0
 10
-206.332
 20
-67.0413
 11
-203.866
 21
-74.2013
  0
LINE
  8
0
 10
-203.866
 20
-74.2013
 11
-201.153
 21
-81.2709
  0
LINE
  8
0
 10
-201.153
 20
-81.2709
 11
-198.194
 21
-88.2415
  0
LINE
  8
0
 10
-198.194
 20
-88.2415
 11
-194.993
 21
-95.1046
  0
LINE
  8
0
 10
-194.993
 20
-95.1046
 11
-191.556
 21
-101.852
  0
LINE
  8
0
 10
-191.556
 20
-101.852
 11
-187.884
 21
-108.475
  0
LINE
  8
0
 10
-187.884
 20
-108.475
 11
-183.984
 21
-114.966
  0
LINE
  8
0
 10
-183.984
 20
-114.966
 11
-179.86
 21
-121.317
  0
LINE
  8
0
 10
-179.86
 20
-121.317
 11
-175.516
 21
-127.52
  0
LINE
  8
0
 10
-175.516
 20
-127.52
 11
-170.959
 21
-133.568
  0
LINE
  8
0
 10
-170.959
 20
-133.568
 11
-166.193
 21
-139.453
  0
LINE
  8
0
 10
-166.193
 20
-139.453
 11
-161.225
 21
-145.168
  0
LINE
  8
0
 10
-161.225
 20
-145.168
 11
-156.061
 21
-150.706
  0
LINE
  8
0
 10
-156.061
 20
-150.706
 11
-150.706
 21
-156.061
  0
LINE
  8
0
 10
-150.706
 20
-156.061
 11
-145.168
 21
-161.225
  0
LINE
  8
0
 10
-145.168
 20
-161.225
 11
-139.453
 21
-166.193
  0
LINE
  8
0
 10
-139.453
 20
-166.193
 11
-133.568
 21
-170.959
  0
LINE
  8
0
 10
-133.568
 20
-170.959
 11
-127.52
 21
-175.516
  0
LINE
  8
0
 10
-127.52
 20
-175.516
 11
-121.317
 21
-179.86
  0
LINE
  8
0
 10
-121.317
 20
-179.86
 11
-114.966
 21
-183.984
  0
LINE
  8
0
 10
-114.966
 20
-183.984
 11
-108.475
 21
-187.884
  0
LINE
  8
0
 10
-108.475
 20
-187.884
 11
-101.852
 21
-191.556
  0
LINE
  8
0
 10
-101.852
 20
-191.556
 11
-95.1046
 21
-194.993
  0
LINE
  8
0
 10
-95.1046
 20
-194.993
 11
-88.2415
 21
-198.194
  0
LINE
  8
0
 10
-88.2415
 20
-198.194
 11
-81.2709
 21
-201.153
  0
LINE
  8
0
 10
-81.2709
 20
-201.153
 11
-74.2013
 21
-203.866
  0
LINE
  8
0
 10
-74.2013
 20
-203.866
 11
-67.0413
 21
-206.332
  0
LINE
  8
0
 10
-67.0413
 20
-206.332
 11
-59.7995
 21
-208.546
  0
LINE
  8
0
 10
-59.7995
 20
-208.546
 11
-52.485
 21
-210.506
  0
LINE
  8
0
 10
-52.485
 20
-210.506
 11
-45.1065
 21
-212.209
  0
LINE
  8
0
 10
-45.1065
 20
-212.209
 11
-37.673
 21
-213.654
  0
LINE
  8
0
 10
-37.673
 20
-213.654
 11
-30.1936
 21
-214.839
  0
LINE
  8
0
 10
-30.1936
 20
-214.839
 11
-22.6774
 21
-215.762
  0
LINE
  8
0
 10
-22.6774
 20
-215.762
 11
-15.1337
 21
-216.422
  0
LINE
  8
0
 10
-15.1337
 20
-216.422
 11
-7.57144
 21
-216.818
  0
LINE
  8
0
 10
-7.57144
 20
-216.818
 11
0
 21
-216.95
  0
LINE
  8
0
 10
0
 20
-216.95
 11
7.57144
 21
-216.818
  0
LINE
  8
0
 10
-5.9696
 20
-170.946
 11
-11.9319
 21
-170.633
  0
LINE
  8
0
 10
-11.9319
 20
-170.633
 11
-17.8797
 21
-170.113
  0
LINE
  8
0
 10
-17.8797
 20
-170.113
 11
-23.8055
 21
-169.385
  0
LINE
  8
0
 10
-23.8055
 20
-169.385
 11
-29.7026
 21
-168.451
  0
LINE
  8
0
 10
-29.7026
 20
-168.451
 11
-35.5632
 21
-167.312
  0
LINE
  8
0
 10
-35.5632
 20
-167.312
 11
-41.3807
 21
-165.969
  0
LINE
  8
0
 10
-41.3807
 20
-165.969
 11
-47.1475
 21
-164.424
  0
LINE
  8
0
 10
-47.1475
 20
-164.424
 11
-52.8577
 21
-162.678
  0
LINE
  8
0
 10
-52.8577
 20
-162.678
 11
-58.5024
 21
-160.734
  0
LINE
  8
0
 10
-58.5024
 20
-160.734
 11
-64.0763
 21
-158.595
  0
LINE
  8
0
 10
-64.0763
 20
-158.595
 11
-69.5724
 21
-156.262
  0
LINE
  8
0
 10
-69.5724
 20
-156.262
 11
-74.9831
 21
-153.739
  0
LINE
  8
0
 10
-74.9831
 20
-153.739
 11
-80.3029
 21
-151.028
  0
LINE
  8
0
 10
-80.3029
 20
-151.028
 11
-85.5252
 21
-148.133
  0
LINE
  8
0
 10
-85.5252
 20
-148.133
 11
-90.6428
 21
-145.058
  0
LINE
  8
0
 10
-90.6428
 20
-145.058
 11
-95.6498
 21
-141.807
  0
LINE
  8
0
 10
-95.6498
 20
-141.807
 11
-100.541
 21
-138.382
  0
LINE
  8
0
 10
-100.541
 20
-138.382
 11
-105.309
 21
-134.789
  0
LINE
  8
0
 10
-105.309
 20
-134.789
 11
-109.949
 21
-131.032
  0
LINE
  8
0
 10
-109.949
 20
-131.032
 11
-114.455
 21
-127.115
  0
LINE
  8
0
 10
-114.455
 20
-127.115
 11
-118.822
 21
-123.043
  0
LINE
  8
0
 10
-118.822
 20
-123.043
 11
-123.043
 21
-118.822
  0
LINE
  8
0
 10
-123.043
 20
-118.822
 11
-127.115
 21
-114.455
  0
LINE
  8
0
 10
-127.115
 20
-114.455
 11
-131.032
 21
-109.949
  0
LINE
  8
0
 10
-131.032
 20
-109.949
 11
-134.789
 21
-105.309
  0
LINE
  8
0
 10
-134.789
 20
-105.309
 11
-138.382
 21
-100.541
  0
LINE
  8
0
 10
-138.382
 20
-100.541
 11
-141.807
 21
-95.6498
  0
LINE
  8
0
 10
-141.807
 20
-95.6498
 11
-145.058
 21
-90.6428
  0
LINE
  8
0
 10
-145.058
 20
-90.6428
 11
-148.133
 21
-85.5252
  0
LINE
  8
0
 10
-148.133
 20
-85.5252
 11
-151.028
 21
-80.3029
  0
LINE
  8
0
 10
-151.028
 20
-80.3029
 11
-153.739
 21
-74.9831
  0
LINE
  8
0
 10
-153.739
 20
-74.9831
 11
-156.262
 21
-69.5724
  0
LINE
  8
0
 10
-156.262
 20
-69.5724
 11
-158.595
 21
-64.0763
  0
LINE
  8
0
 10
-158.595
 20
-64.0763
 11
-160.734
 21
-58.5024
  0
LINE
  8
0
 10
-160.734
 20
-58.5024
 11
-162.678
 21
-52.8577
  0
LINE
  8
0
 10
-162.678
 20
-52.8577
 11
-164.424
 21
-47.1475
  0
LINE
  8
0
 10
-164.424
 20
-47.1475
 11
-165.969
 21
-41.3807
  0
LINE
  8
0
 10
-165.969
 20
-41.3807
 11
-167.312
 21
-35.5632
  0
LINE
  8
0
 10
-167.312
 20
-35.5632
 11
-168.451
 21
-29.7026
  0
LINE
  8
0
 10
-168.451
 20
-29.7026
 11
-169.385
 21
-23.8055
  0
LINE
  8
0
 10
-169.385
 20
-23.8055
 11
-170.113
 21
-17.8797
  0
LINE
  8
0
 10
-170.113
 20
-17.8797
 11
-170.633
 21
-11.9319
  0
LINE
  8
0
 10
-170.633
 20
-11.9319
 11
-170.946
 21
-5.9696
  0
LINE
  8
0
 10
-170.946
 20
-5.9696
 11
-171.05
 21
0
  0
LINE
  8
0
 10
-171.05
 20
0
 11
-170.946
 21
5.9696
  0
LINE
  8
0
 10
-170.946
 20
5.9696
 11
-170.633
 21
11.9319
  0
LINE
  8
0
 10
-170.633
 20
11.9319
 11
-170.113
 21
17.8797
  0
LINE
  8
0
 10
-170.113
 20
17.8797
 11
-169.385
 21
23.8055
  0
LINE
  8
0
 10
-169.385
 20
23.8055
 11
-168.451
 21
29.7026
  0
LINE
  8
0
 10
-168.451
 20
29.7026
 11
-167.312
 21
35.5632
  0
LINE
  8
0
 10
-167.312
 20
35.5632
 11
-165.969
 21
41.3807
  0
LINE
  8
0
 10
-165.969
 20
41.3807
 11
-164.424
 21
47.1475
  0
LINE
  8
0
 10
-164.424
 20
47.1475
 11
-162.678
 21
52.8577
  0
LINE
  8
0
 10
-162.678
 20
52.8577
 11
-160.734
 21
58.5024
  0
LINE
  8
0
 10
-160.734
 20
58.5024
 11
-158.595
 21
64.0763
  0
LINE
  8
0
 10
-158.595
 20
64.0763
 11
-156.262
 21
69.5724
  0
LINE
  8
0
 10
-156.262
 20
69.5724
 11
-153.739
 21
74.9831
  0
LINE
  8
0
 10
-153.739
 20
74.9831
 11
-151.028
 21
80.3029
  0
LINE
  8
0
 10
-151.028
 20
80.3029
 11
-148.133
 21
85.5252
  0
LINE
  8
0
 10
-148.133
 20
85.5252
 11
-145.058
 21
90.6428
  0
LINE
  8
0
 10
-145.058
 20
90.6428
 11
-141.807
 21
95.6498
  0
LINE
  8
0
 10
-141.807
 20
95.6498
 11
-138.382
 21
100.541
  0
LINE
  8
0
 10
-138.382
 20
100.541
 11
-134.789
 21
105.309
  0
LINE
  8
0
 10
-134.789
 20
105.309
 11
-131.032
 21
109.949
  0
LINE
  8
0
 10
-131.032
 20
109.949
 11
-127.115
 21
114.455
  0
LINE
  8
0
 10
-127.115
 20
114.455
 11
-123.043
 21
118.822
  0
LINE
  8
0
 10
-123.043
 20
118.822
 11
-118.822
 21
123.043
  0
LINE
  8
0
 10
-118.822
 20
123.043
 11
-114.455
 21
127.115
  0
LINE
  8
0
 10
-114.455
 20
127.115
 11
-109.949
 21
131.032
  0
LINE
  8
0
 10
-109.949
 20
131.032
 11
-105.309
 21
134.789
  0
LINE
  8
0
 10
-105.309
 20
134.789
 11
-100.541
 21
138.382
  0
LINE
  8
0
 10
-100.541
 20
138.382
 11
-95.6498
 21
141.807
  0
LINE
  8
0
 10
-95.6498
 20
141.807
 11
-90.6428
 21
145.058
  0
LINE
  8
0
 10
-90.6428
 20
145.058
 11
-85.5252
 21
148.133
  0
LINE
  8
0
 10
-85.5252
 20
148.133
 11
-80.3029
 21
151.028
  0
LINE
  8
0
 10
-80.3029
 20
151.028
 11
-74.9831
 21
153.739
  0
LINE
  8
0
 10
-74.9831
 20
153.739
 11
-69.5724
 21
156.262
  0
LINE
  8
0
 10
-69.5724
 20
156.262
 11
-64.0763
 21
158.595
  0
LINE
  8
0
 10
-64.0763
 20
158.595
 11
-58.5024
 21
160.734
  0
LINE
  8
0
 10
-58.5024
 20
160.734
 11
-52.8577
 21
162.678
  0
LINE
  8
0
 10
-52.8577
 20
162.678
 11
-47.1475
 21
164.424
  0
LINE
  8
0
 10
-47.1475
 20
164.424
 11
-41.3807
 21
165.969
  0
LINE
  8
0
 10
-41.3807
 20
165.969
 11
-35.5632
 21
167.312
  0
LINE
  8
0
 10
-35.5632
 20
167.312
 11
-29.7026
 21
168.451
  0
LINE
  8
0
 10
-29.7026
 20
168.451
 11
-23.8055
 21
169.385
  0
LINE
  8
0
 10
-23.8055
 20
169.385
 11
-17.8797
 21
170.113
  0
LINE
  8
0
 10
-17.8797
 20
170.113
 11
-11.9319
 21
170.633
  0
LINE
  8
0
 10
-11.9319
 20
170.633
 11
-5.9696
 21
170.946
  0
LINE
  8
0
 10
-5.9696
 20
170.946
 11
0
 21
171.05
  0
LINE
  8
0
 10
0
 20
171.05
 11
5.9696
 21
170.946
  0
LINE
  8
0
 10
5.9696
 20
170.946
 11
11.9319
 21
170.633
  0
LINE
  8
0
 10
11.9319
 20
170.633
 11
17.8797
 21
170.113
  0
LINE
  8
0
 10
17.8797
 20
170.113
 11
23.8055
 21
169.385
  0
LINE
  8
0
 10
23.8055
 20
169.385
 11
29.7026
 21
168.451
  0
LINE
  8
0
 10
29.7026
 20
168.451
 11
35.5632
 21
167.312
  0
LINE
  8
0
 10
35.5632
 20
167.312
 11
41.3807
 21
165.969
  0
LINE
  8
0
 10
41.3807
 20
165.969
 11
47.1475
 21
164.424
  0
LINE
  8
0
 10
47.1475
 20
164.424
 11
52.8577
 21
162.678
  0
LINE
  8
0
 10
52.8577
 20
162.678
 11
58.5024
 21
160.734
  0
LINE
  8
0
 10
58.5024
 20
160.734
 11
64.0763
 21
158.595
  0
LINE
  8
0
 10
64.0763
 20
158.595
 11
69.5724
 21
156.262
  0
LINE
  8
0
 10
69.5724
 20
156.262
 11
74.9831
 21
153.739
  0
LINE
  8
0
 10
74.9831
 20
153.739
 11
80.3029
 21
151.028
  0
LINE
  8
0
 10
80.3029
 20
151.028
 11
85.5252
 21
148.133
  0
LINE
  8
0
 10
85.5252
 20
148.133
 11
90.6428
 21
145.058
  0
LINE
  8
0
 10
90.6428
 20
145.058
 11
95.6498
 21
141.807
  0
LINE
  8
0
 10
95.6498
 20
141.807
 11
100.541
 21
138.382
  0
LINE
  8
0
 10
100.541
 20
138.382
 11
105.309
 21
134.789
  0
LINE
  8
0
 10
105.309
 20
134.789
 11
109.949
 21
131.032
  0
LINE
  8
0
 10
109.949
 20
131.032
 11
114.455
 21
127.115
  0
LINE
  8
0
 10
114.455
 20
127.115
 11
118.822
 21
123.043
  0
LINE
  8
0
 10
118.822
 20
123.043
 11
123.043
 21
118.822
  0
LINE
  8
0
 10
123.043
 20
118.822
 11
127.115
 21
114.455
  0
LINE
  8
0
 10
127.115
 20
114.455
 11
131.032
 21
109.949
  0
LINE
  8
0
 10
131.032
 20
109.949
 11
134.789
 21
105.309
  0
LINE
  8
0
 10
134.789
 20
105.309
 11
138.382
 21
100.541
  0
LINE
  8
0
 10
138.382
 20
100.541
 11
141.807
 21
95.6498
  0
LINE
  8
0
 10
141.807
 20
95.6498
 11
145.058
 21
90.6428
  0
LINE
  8
0
 10
145.058
 20
90.6428
 11
148.133
 21
85.5252
  0
LINE
  8
0
 10
148.133
 20
85.5252
 11
151.028
 21
80.3029
  0
LINE
  8
0
 10
151.028
 20
80.3029
 11
153.739
 21
74.9831
  0
LINE
  8
0
 10
153.739
 20
74.9831
 11
156.262
 21
69.5724
  0
LINE
  8
0
 10
156.262
 20
69.5724
 11
158.595
 21
64.0763
  0
LINE
  8
0
 10
158.595
 20
64.0763
 11
160.734
 21
58.5024
  0
LINE
  8
0
 10
160.734
 20
58.5024
 11
162.678
 21
52.8577
  0
LINE
  8
0
 10
162.678
 20
52.8577
 11
164.424
 21
47.1475
  0
LINE
  8
0
 10
164.424
 20
47.1475
 11
165.969
 21
41.3807
  0
LINE
  8
0
 10
165.969
 20
41.3807
 11
167.312
 21
35.5632
  0
LINE
  8
0
 10
167.312
 20
35.5632
 11
168.451
 21
29.7026
  0
LINE
  8
0
 10
168.451
 20
29.7026
 11
169.385
 21
23.8055
  0
LINE
  8
0
 10
169.385
 20
23.8055
 11
170.113
 21
17.8797
  0
LINE
  8
0
 10
170.113
 20
17.8797
 11
170.633
 21
11.9319
  0
LINE
  8
0
 10
170.633
 20
11.9319
 11
170.946
 21
5.9696
  0
LINE
  8
0
 10
170.946
 20
5.9696
 11
171.05
 21
0
  0
LINE
  8
0
 10
171.05
 20
0
 11
170.946
 21
-5.9696
  0
LINE
  8
0
 10
170.946
 20
-5.9696
 11
170.633
 21
-11.9319
  0
LINE
  8
0
 10
170.633
 20
-11.9319
 11
170.113
 21
-17.8797
  0
LINE
  8
0
 10
170.113
 20
-17.8797
 11
169.385
 21
-23.8055
  0
LINE
  8
0
 10
169.385
 20
-23.8055
 11
168.451
 21
-29.7026
  0
LINE
  8
0
 10
168.451
 20
-29.7026
 11
167.312
 21
-35.5632
  0
LINE
  8
0
 10
167.312
 20
-35.5632
 11
165.969
 21
-41.3807
  0
LINE
  8
0
 10
165.969
 20
-41.3807
 11
164.424
 21
-47.1475
  0
LINE
  8
0
 10
164.424
 20
-47.1475
 11
162.678
 21
-52.8577
  0
LINE
  8
0
 10
162.678
 20
-52.8577
 11
160.734
 21
-58.5024
  0
LINE
  8
0
 10
160.734
 20
-58.5024
 11
158.595
 21
-64.0763
  0
LINE
  8
0
 10
158.595
 20
-64.0763
 11
156.262
 21
-69.5724
  0
LINE
  8
0
 10
156.262
 20
-69.5724
 11
153.739
 21
-74.9831
  0
LINE
  8
0
 10
153.739
 20
-74.9831
 11
151.028
 21
-80.3029
  0
LINE
  8
0
 10
151.028
 20
-80.3029
 11
148.133
 21
-85.5252
  0
LINE
  8
0
 10
148.133
 20
-85.5252
 11
145.058
 21
-90.6428
  0
LINE
  8
0
 10
145.058
 20
-90.6428
 11
141.807
 21
-95.6498
  0
LINE
  8
0
 10
141.807
 20
-95.6498
 11
138.382
 21
-100.541
  0
LINE
  8
0
 10
138.382
 20
-100.541
 11
134.789
 21
-105.309
  0
LINE
  8
0
 10
134.789
 20
-105.309
 11
131.032
 21
-109.949
  0
LINE
  8
0
 10
131.032
 20
-109.949
 11
127.115
 21
-114.455
  0
LINE
  8
0
 10
127.115
 20
-114.455
 11
123.043
 21
-118.822
  0
LINE
  8
0
 10
123.043
 20
-118.822
 11
118.822
 21
-123.043
  0
LINE
  8
0
 10
118.822
 20
-123.043
 11
114.455
 21
-127.115
  0
LINE
  8
0
 10
114.455
 20
-127.115
 11
109.949
 21
-131.032
  0
LINE
  8
0
 10
109.949
 20
-131.032
 11
105.309
 21
-134.789
  0
LINE
  8
0
 10
105.309
 20
-134.789
 11
100.541
 21
-138.382
  0
LINE
  8
0
 10
100.541
 20
-138.382
 11
95.6498
 21
-141.807
  0
LINE
  8
0
 10
95.6498
 20
-141.807
 11
90.6428
 21
-145.058
  0
LINE
  8
0
 10
90.6428
 20
-145.058
 11
85.5252
 21
-148.133
  0
LINE
  8
0
 10
85.5252
 20
-148.133
 11
80.3029
 21
-151.028
  0
LINE
  8
0
 10
80.3029
 20
-151.028
 11
74.9831
 21
-153.739
  0
LINE
  8
0
 10
74.9831
 20
-153.739
 11
69.5724
 21
-156.262
  0
LINE
  8
0
 10
69.5724
 20
-156.262
 11
64.0763
 21
-158.595
  0
LINE
  8
0
 10
64.0763
 20
-158.595
 11
58.5024
 21
-160.734
  0
LINE
  8
0
 10
58.5024
 20
-160.734
 11
52.8577
 21
-162.678
  0
LINE
  8
0
 10
52.8577
 20
-162.678
 11
47.1475
 21
-164.424
  0
LINE
  8
0
 10
47.1475
 20
-164.424
 11
41.3807
 21
-165.969
  0
LINE
  8
0
 10
41.3807
 20
-165.969
 11
35.5632
 21
-167.312
  0
LINE
  8
0
 10
35.5632
 20
-167.312
 11
29.7026
 21
-168.451
  0
LINE
  8
0
 10
29.7026
 20
-168.451
 11
23.8055
 21
-169.385
  0
LINE
  8
0
 10
23.8055
 20
-169.385
 11
17.8797
 21
-170.113
  0
LINE
  8
0
 10
17.8797
 20
-170.113
 11
11.9319
 21
-170.633
  0
LINE
  8
0
 10
11.9319
 20
-170.633
 11
5.9696
 21
-170.946
  0
LINE
  8
0
 10
5.9696
 20
-170.946
 11
0
 21
-171.05
  0
LINE
  8
0
 10
0
 20
-171.05
 11
-5.9696
 21
-170.946
  0
LINE
  8
0
 10
-69.0364
 20
162.679
 11
-69.5518
 21
162.836
  0
LINE
  8
0
 10
-69.5518
 20
162.836
 11
-70.0269
 21
163.09
  0
LINE
  8
0
 10
-70.0269
 20
163.09
 11
-70.4433
 21
163.431
  0
LINE
  8
0
 10
-70.4433
 20
163.431
 11
-70.785
 21
163.848
  0
LINE
  8
0
 10
-70.785
 20
163.848
 11
-71.039
 21
164.323
  0
LINE
  8
0
 10
-71.039
 20
164.323
 11
-71.1954
 21
164.838
  0
LINE
  8
0
 10
-71.1954
 20
164.838
 11
-71.2482
 21
165.374
  0
LINE
  8
0
 10
-71.2482
 20
165.374
 11
-71.1954
 21
165.911
  0
LINE
  8
0
 10
-71.1954
 20
165.911
 11
-71.039
 21
166.426
  0
LINE
  8
0
 10
-71.039
 20
166.426
 11
-70.785
 21
166.901
  0
LINE
  8
0
 10
-70.785
 20
166.901
 11
-70.4433
 21
167.317
  0
LINE
  8
0
 10
-70.4433
 20
167.317
 11
-70.0269
 21
167.659
  0
LINE
  8
0
 10
-70.0269
 20
167.659
 11
-69.5518
 21
167.913
  0
LINE
  8
0
 10
-69.5518
 20
167.913
 11
-69.0364
 21
168.069
  0
LINE
  8
0
 10
-69.0364
 20
168.069
 11
-68.5003
 21
168.122
  0
LINE
  8
0
 10
-68.5003
 20
168.122
 11
-67.9642
 21
168.069
  0
LINE
  8
0
 10
-67.9642
 20
168.069
 11
-67.4488
 21
167.913
  0
LINE
  8
0
 10
-67.4488
 20
167.913
 11
-66.9737
 21
167.659
  0
LINE
  8
0
 10
-66.9737
 20
167.659
 11
-66.5573
 21
167.317
  0
LINE
  8
0
 10
-66.5573
 20
167.317
 11
-66.2156
 21
166.901
  0
LINE
  8
0
 10
-66.2156
 20
166.901
 11
-65.9617
 21
166.426
  0
LINE
  8
0
 10
-65.9617
 20
166.426
 11
-65.8053
 21
165.911
  0
LINE
  8
0
 10
-65.8053
 20
165.911
 11
-65.7525
 21
165.374
  0
LINE
  8
0
 10
-65.7525
 20
165.374
 11
-65.8053
 21
164.838
  0
LINE
  8
0
 10
-65.8053
 20
164.838
 11
-65.9617
 21
164.323
  0
LINE
  8
0
 10
-65.9617
 20
164.323
 11
-66.2156
 21
163.848
  0
LINE
  8
0
 10
-66.2156
 20
163.848
 11
-66.5573
 21
163.431
  0
LINE
  8
0
 10
-66.5573
 20
163.431
 11
-66.9737
 21
163.09
  0
LINE
  8
0
 10
-66.9737
 20
163.09
 11
-67.4488
 21
162.836
  0
LINE
  8
0
 10
-67.4488
 20
162.836
 11
-67.9642
 21
162.679
  0
LINE
  8
0
 10
-67.9642
 20
162.679
 11
-68.5003
 21
162.627
  0
LINE
  8
0
 10
-68.5003
 20
162.627
 11
-69.0364
 21
162.679
  0
LINE
  8
0
 10
67.9642
 20
162.679
 11
67.4488
 21
162.836
  0
LINE
  8
0
 10
67.4488
 20
162.836
 11
66.9737
 21
163.09
  0
LINE
  8
0
 10
66.9737
 20
163.09
 11
66.5573
 21
163.431
  0
LINE
  8
0
 10
66.5573
 20
163.431
 11
66.2156
 21
163.848
  0
LINE
  8
0
 10
66.2156
 20
163.848
 11
65.9617
 21
164.323
  0
LINE
  8
0
 10
65.9617
 20
164.323
 11
65.8053
 21
164.838
  0
LINE
  8
0
 10
65.8053
 20
164.838
 11
65.7525
 21
165.374
  0
LINE
  8
0
 10
65.7525
 20
165.374
 11
65.8053
 21
165.911
  0
LINE
  8
0
 10
65.8053
 20
165.911
 11
65.9617
 21
166.426
  0
LINE
  8
0
 10
65.9617
 20
166.426
 11
66.2156
 21
166.901
  0
LINE
  8
0
 10
66.2156
 20
166.901
 11
66.5573
 21
167.317
  0
LINE
  8
0
 10
66.5573
 20
167.317
 11
66.9737
 21
167.659
  0
LINE
  8
0
 10
66.9737
 20
167.659
 11
67.4488
 21
167.913
  0
LINE
  8
0
 10
67.4488
 20
167.913
 11
67.9642
 21
168.069
  0
LINE
  8
0
 10
67.9642
 20
168.069
 11
68.5003
 21
168.122
  0
LINE
  8
0
 10
68.5003
 20
168.122
 11
69.0364
 21
168.069
  0
LINE
  8
0
 10
69.0364
 20
168.069
 11
69.5518
 21
167.913
  0
LINE
  8
0
 10
69.5518
 20
167.913
 11
70.0269
 21
167.659
  0
LINE
  8
0
 10
70.0269
 20
167.659
 11
70.4433
 21
167.317
  0
LINE
  8
0
 10
70.4433
 20
167.317
 11
70.785
 21
166.901
  0
LINE
  8
0
 10
70.785
 20
166.901
 11
71.039
 21
166.426
  0
LINE
  8
0
 10
71.039
 20
166.426
 11
71.1954
 21
165.911
  0
LINE
  8
0
 10
71.1954
 20
165.911
 11
71.2482
 21
165.374
  0
LINE
  8
0
 10
71.2482
 20
165.374
 11
71.1954
 21
164.838
  0
LINE
  8
0
 10
71.1954
 20
164.838
 11
71.039
 21
164.323
  0
LINE
  8
0
 10
71.039
 20
164.323
 11
70.785
 21
163.848
  0
LINE
  8
0
 10
70.785
 20
163.848
 11
70.4433
 21
163.431
  0
LINE
  8
0
 10
70.4433
 20
163.431
 11
70.0269
 21
163.09
  0
LINE
  8
0
 10
70.0269
 20
163.09
 11
69.5518
 21
162.836
  0
LINE
  8
0
 10
69.5518
 20
162.836
 11
69.0364
 21
162.679
  0
LINE
  8
0
 10
69.0364
 20
162.679
 11
68.5003
 21
162.627
  0
LINE
  8
0
 10
68.5003
 20
162.627
 11
67.9642
 21
162.679
  0
LINE
  8
0
 10
-165.911
 20
65.8053
 11
-166.426
 21
65.9617
  0
LINE
  8
0
 10
-166.426
 20
65.9617
 11
-166.901
 21
66.2156
  0
LINE
  8
0
 10
-166.901
 20
66.2156
 11
-167.317
 21
66.5573
  0
LINE
  8
0
 10
-167.317
 20
66.5573
 11
-167.659
 21
66.9737
  0
LINE
  8
0
 10
-167.659
 20
66.9737
 11
-167.913
 21
67.4488
  0
LINE
  8
0
 10
-167.913
 20
67.4488
 11
-168.069
 21
67.9642
  0
LINE
  8
0
 10
-168.069
 20
67.9642
 11
-168.122
 21
68.5003
  0
LINE
  8
0
 10
-168.122
 20
68.5003
 11
-168.069
 21
69.0364
  0
LINE
  8
0
 10
-168.069
 20
69.0364
 11
-167.913
 21
69.5518
  0
LINE
  8
0
 10
-167.913
 20
69.5518
 11
-167.659
 21
70.0269
  0
LINE
  8
0
 10
-167.659
 20
70.0269
 11
-167.317
 21
70.4433
  0
LINE
  8
0
 10
-167.317
 20
70.4433
 11
-166.901
 21
70.785
  0
LINE
  8
0
 10
-166.901
 20
70.785
 11
-166.426
 21
71.039
  0
LINE
  8
0
 10
-166.426
 20
71.039
 11
-165.911
 21
71.1954
  0
LINE
  8
0
 10
-165.911
 20
71.1954
 11
-165.374
 21
71.2482
  0
LINE
  8
0
 10
-165.374
 20
71.2482
 11
-164.838
 21
71.1954
  0
LINE
  8
0
 10
-164.838
 20
71.1954
 11
-164.323
 21
71.039
  0
LINE
  8
0
 10
-164.323
 20
71.039
 11
-163.848
 21
70.785
  0
LINE
  8
0
 10
-163.848
 20
70.785
 11
-163.431
 21
70.4433
  0
LINE
  8
0
 10
-163.431
 20
70.4433
 11
-163.09
 21
70.0269
  0
LINE
  8
0
 10
-163.09
 20
70.0269
 11
-162.836
 21
69.5518
  0
LINE
  8
0
 10
-162.836
 20
69.5518
 11
-162.679
 21
69.0364
  0
LINE
  8
0
 10
-162.679
 20
69.0364
 11
-162.627
 21
68.5003
  0
LINE
  8
0
 10
-162.627
 20
68.5003
 11
-162.679
 21
67.9642
  0
LINE
  8
0
 10
-162.679
 20
67.9642
 11
-162.836
 21
67.4488
  0
LINE
  8
0
 10
-162.836
 20
67.4488
 11
-163.09
 21
66.9737
  0
LINE
  8
0
 10
-163.09
 20
66.9737
 11
-163.431
 21
66.5573
  0
LINE
  8
0
 10
-163.431
 20
66.5573
 11
-163.848
 21
66.2156
  0
LINE
  8
0
 10
-163.848
 20
66.2156
 11
-164.323
 21
65.9617
  0
LINE
  8
0
 10
-164.323
 20
65.9617
 11
-164.838
 21
65.8053
  0
LINE
  8
0
 10
-164.838
 20
65.8053
 11
-165.374
 21
65.7525
  0
LINE
  8
0
 10
-165.374
 20
65.7525
 11
-165.911
 21
65.8053
  0
LINE
  8
0
 10
164.838
 20
65.8053
 11
164.323
 21
65.9617
  0
LINE
  8
0
 10
164.323
 20
65.9617
 11
163.848
 21
66.2156
  0
LINE
  8
0
 10
163.848
 20
66.2156
 11
163.431
 21
66.5573
  0
LINE
  8
0
 10
163.431
 20
66.5573
 11
163.09
 21
66.9737
  0
LINE
  8
0
 10
163.09
 20
66.9737
 11
162.836
 21
67.4488
  0
LINE
  8
0
 10
162.836
 20
67.4488
 11
162.679
 21
67.9642
  0
LINE
  8
0
 10
162.679
 20
67.9642
 11
162.627
 21
68.5003
  0
LINE
  8
0
 10
162.627
 20
68.5003
 11
162.679
 21
69.0364
  0
LINE
  8
0
 10
162.679
 20
69.0364
 11
162.836
 21
69.5518
  0
LINE
  8
0
 10
162.836
 20
69.5518
 11
163.09
 21
70.0269
  0
LINE
  8
0
 10
163.09
 20
70.0269
 11
163.431
 21
70.4433
  0
LINE
  8
0
 10
163.431
 20
70.4433
 11
163.848
 21
70.785
  0
LINE
  8
0
 10
163.848
 20
70.785
 11
164.323
 21
71.039
  0
LINE
  8
0
 10
164.323
 20
71.039
 11
164.838
 21
71.1954
  0
LINE
  8
0
 10
164.838
 20
71.1954
 11
165.374
 21
71.2482
  0
LINE
  8
0
 10
165.374
 20
71.2482
 11
165.911
 21
71.1954
  0
LINE
  8
0
 10
165.911
 20
71.1954
 11
166.426
 21
71.039
  0
LINE
  8
0
 10
166.426
 20
71.039
 11
166.901
 21
70.785
  0
LINE
  8
0
 10
166.901
 20
70.785
 11
167.317
 21
70.4433
  0
LINE
  8
0
 10
167.317
 20
70.4433
 11
167.659
 21
70.0269
  0
LINE
  8
0
 10
167.659
 20
70.0269
 11
167.913
 21
69.5518
  0
LINE
  8
0
 10
167.913
 20
69.5518
 11
168.069
 21
69.0364
  0
LINE
  8
0
 10
168.069
 20
69.0364
 11
168.122
 21
68.5003
  0
LINE
  8
0
 10
168.122
 20
68.5003
 11
168.069
 21
67.9642
  0
LINE
  8
0
 10
168.069
 20
67.9642
 11
167.913
 21
67.4488
  0
LINE
  8
0
 10
167.913
 20
67.4488
 11
167.659
 21
66.9737
  0
LINE
  8
0
 10
167.659
 20
66.9737
 11
167.317
 21
66.5573
  0
LINE
  8
0
 10
167.317
 20
66.5573
 11
166.901
 21
66.2156
  0
LINE
  8
0
 10
166.901
 20
66.2156
 11
166.426
 21
65.9617
  0
LINE
  8
0
 10
166.426
 20
65.9617
 11
165.911
 21
65.8053
  0
LINE
  8
0
 10
165.911
 20
65.8053
 11
165.374
 21
65.7525
  0
LINE
  8
0
 10
165.374
 20
65.7525
 11
164.838
 21
65.8053
  0
LINE
  8
0
 10
-165.911
 20
-71.1954
 11
-166.426
 21
-71.039
  0
LINE
  8
0
 10
-166.426
 20
-71.039
 11
-166.901
 21
-70.785
  0
LINE
  8
0
 10
-166.901
 20
-70.785
 11
-167.317
 21
-70.4433
  0
LINE
  8
0
 10
-167.317
 20
-70.4433
 11
-167.659
 21
-70.0269
  0
LINE
  8
0
 10
-167.659
 20
-70.0269
 11
-167.913
 21
-69.5518
  0
LINE
  8
0
 10
-167.913
 20
-69.5518
 11
-168.069
 21
-69.0364
  0
LINE
  8
0
 10
-168.069
 20
-69.0364
 11
-168.122
 21
-68.5003
  0
LINE
  8
0
 10
-168.122
 20
-68.5003
 11
-168.069
 21
-67.9642
  0
LINE
  8
0
 10
-168.069
 20
-67.9642
 11
-167.913
 21
-67.4488
  0
LINE
  8
0
 10
-167.913
 20
-67.4488
 11
-167.659
 21
-66.9737
  0
LINE
  8
0
 10
-167.659
 20
-66.9737
 11
-167.317
 21
-66.5573
  0
LINE
  8
0
 10
-167.317
 20
-66.5573
 11
-166.901
 21
-66.2156
  0
LINE
  8
0
 10
-166.901
 20
-66.2156
 11
-166.426
 21
-65.9617
  0
LINE
  8
0
 10
-166.426
 20
-65.9617
 11
-165.911
 21
-65.8053
  0
LINE
  8
0
 10
-165.911
 20
-65.8053
 11
-165.374
 21
-65.7525
  0
LINE
  8
0
 10
-165.374
 20
-65.7525
 11
-164.838
 21
-65.8053
  0
LINE
  8
0
 10
-164.838
 20
-65.8053
 11
-164.323
 21
-65.9617
  0
LINE
  8
0
 10
-164.323
 20
-65.9617
 11
-163.848
 21
-66.2156
  0
LINE
  8
0
 10
-163.848
 20
-66.2156
 11
-163.431
 21
-66.5573
  0
LINE
  8
0
 10
-163.431
 20
-66.5573
 11
-163.09
 21
-66.9737
  0
LINE
  8
0
 10
-163.09
 20
-66.9737
 11
-162.836
 21
-67.4488
  0
LINE
  8
0
 10
-162.836
 20
-67.4488
 11
-162.679
 21
-67.9642
  0
LINE
  8
0
 10
-162.679
 20
-67.9642
 11
-162.627
 21
-68.5003
  0
LINE
  8
0
 10
-162.627
 20
-68.5003
 11
-162.679
 21
-69.0364
  0
LINE
  8
0
 10
-162.679
 20
-69.0364
 11
-162.836
 21
-69.5518
  0
LINE
  8
0
 10
-162.836
 20
-69.5518
 11
-163.09
 21
-70.0269
  0
LINE
  8
0
 10
-163.09
 20
-70.0269
 11
-163.431
 21
-70.4433
  0
LINE
  8
0
 10
-163.431
 20
-70.4433
 11
-163.848
 21
-70.785
  0
LINE
  8
0
 10
-163.848
 20
-70.785
 11
-164.323
 21
-71.039
  0
LINE
  8
0
 10
-164.323
 20
-71.039
 11
-164.838
 21
-71.1954
  0
LINE
  8
0
 10
-164.838
 20
-71.1954
 11
-165.374
 21
-71.2482
  0
LINE
  8
0
 10
-165.374
 20
-71.2482
 11
-165.911
 21
-71.1954
  0
LINE
  8
0
 10
164.838
 20
-71.1954
 11
164.323
 21
-71.039
  0
LINE
  8
0
 10
164.323
 20
-71.039
 11
163.848
 21
-70.785
  0
LINE
  8
0
 10
163.848
 20
-70.785
 11
163.431
 21
-70.4433
  0
LINE
  8
0
 10
163.431
 20
-70.4433
 11
163.09
 21
-70.0269
  0
LINE
  8
0
 10
163.09
 20
-70.0269
 11
162.836
 21
-69.5518
  0
LINE
  8
0
 10
162.836
 20
-69.5518
 11
162.679
 21
-69.0364
  0
LINE
  8
0
 10
162.679
 20
-69.0364
 11
162.627
 21
-68.5003
  0
LINE
  8
0
 10
162.627
 20
-68.5003
 11
162.679
 21
-67.9642
  0
LINE
  8
0
 10
162.679
 20
-67.9642
 11
162.836
 21
-67.4488
  0
LINE
  8
0
 10
162.836
 20
-67.4488
 11
163.09
 21
-66.9737
  0
LINE
  8
0
 10
163.09
 20
-66.9737
 11
163.431
 21
-66.5573
  0
LINE
  8
0
 10
163.431
 20
-66.5573
 11
163.848
 21
-66.2156
  0
LINE
  8
0
 10
163.848
 20
-66.2156
 11
164.323
 21
-65.9617
  0
LINE
  8
0
 10
164.323
 20
-65.9617
 11
164.838
 21
-65.8053
  0
LINE
  8
0
 10
164.838
 20
-65.8053
 11
165.374
 21
-65.7525
  0
LINE
  8
0
 10
165.374
 20
-65.7525
 11
165.911
 21
-65.8053
  0
LINE
  8
0
 10
165.911
 20
-65.8053
 11
166.426
 21
-65.9617
  0
LINE
  8
0
 10
166.426
 20
-65.9617
 11
166.901
 21
-66.2156
  0
LINE
  8
0
 10
166.901
 20
-66.2156
 11
167.317
 21
-66.5573
  0
LINE
  8
0
 10
167.317
 20
-66.5573
 11
167.659
 21
-66.9737
  0
LINE
  8
0
 10
167.659
 20
-66.9737
 11
167.913
 21
-67.4488
  0
LINE
  8
0
 10
167.913
 20
-67.4488
 11
168.069
 21
-67.9642
  0
LINE
  8
0
 10
168.069
 20
-67.9642
 11
168.122
 21
-68.5003
  0
LINE
  8
0
 10
168.122
 20
-68.5003
 11
168.069
 21
-69.0364
  0
LINE
  8
0
 10
168.069
 20
-69.0364
 11
167.913
 21
-69.5518
  0
LINE
  8
0
 10
167.913
 20
-69.5518
 11
167.659
 21
-70.0269
  0
LINE
  8
0
 10
167.659
 20
-70.0269
 11
167.317
 21
-70.4433
  0
LINE
  8
0
 10
167.317
 20
-70.4433
 11
166.901
 21
-70.785
  0
LINE
  8
0
 10
166.901
 20
-70.785
 11
166.426
 21
-71.039
  0
LINE
  8
0
 10
166.426
 20
-71.039
 11
165.911
 21
-71.1954
  0
LINE
  8
0
 10
165.911
 20
-71.1954
 11
165.374
 21
-71.2482
  0
LINE
  8
0
 10
165.374
 20
-71.2482
 11
164.838
 21
-71.1954
  0
LINE
  8
0
 10
-69.0364
 20
-168.069
 11
-69.5518
 21
-167.913
  0
LINE
  8
0
 10
-69.5518
 20
-167.913
 11
-70.0269
 21
-167.659
  0
LINE
  8
0
 10
-70.0269
 20
-167.659
 11
-70.4433
 21
-167.317
  0
LINE
  8
0
 10
-70.4433
 20
-167.317
 11
-70.785
 21
-166.901
  0
LINE
  8
0
 10
-70.785
 20
-166.901
 11
-71.039
 21
-166.426
  0
LINE
  8
0
 10
-71.039
 20
-166.426
 11
-71.1954
 21
-165.911
  0
LINE
  8
0
 10
-71.1954
 20
-165.911
 11
-71.2482
 21
-165.374
  0
LINE
  8
0
 10
-71.2482
 20
-165.374
 11
-71.1954
 21
-164.838
  0
LINE
  8
0
 10
-71.1954
 20
-164.838
 11
-71.039
 21
-164.323
  0
LINE
  8
0
 10
-71.039
 20
-164.323
 11
-70.785
 21
-163.848
  0
LINE
  8
0
 10
-70.785
 20
-163.848
 11
-70.4433
 21
-163.431
  0
LINE
  8
0
 10
-70.4433
 20
-163.431
 11
-70.0269
 21
-163.09
  0
LINE
  8
0
 10
-70.0269
 20
-163.09
 11
-69.5518
 21
-162.836
  0
LINE
  8
0
 10
-69.5518
 20
-162.836
 11
-69.0364
 21
-162.679
  0
LINE
  8
0
 10
-69.0364
 20
-162.679
 11
-68.5003
 21
-162.627
  0
LINE
  8
0
 10
-68.5003
 20
-162.627
 11
-67.9642
 21
-162.679
  0
LINE
  8
0
 10
-67.9642
 20
-162.679
 11
-67.4488
 21
-162.836
  0
LINE
  8
0
 10
-67.4488
 20
-162.836
 11
-66.9737
 21
-163.09
  0
LINE
  8
0
 10
-66.9737
 20
-163.09
 11
-66.5573
 21
-163.431
  0
LINE
  8
0
 10
-66.5573
 20
-163.431
 11
-66.2156
 21
-163.848
  0
LINE
  8
0
 10
-66.2156
 20
-163.848
 11
-65.9617
 21
-164.323
  0
LINE
  8
0
 10
-65.9617
 20
-164.323
 11
-65.8053
 21
-164.838
  0
LINE
  8
0
 10
-65.8053
 20
-164.838
 11
-65.7525
 21
-165.374
  0
LINE
  8
0
 10
-65.7525
 20
-165.374
 11
-65.8053
 21
-165.911
  0
LINE
  8
0
 10
-65.8053
 20
-165.911
 11
-65.9617
 21
-166.426
  0
LINE
  8
0
 10
-65.9617
 20
-166.426
 11
-66.2156
 21
-166.901
  0
LINE
  8
0
 10
-66.2156
 20
-166.901
 11
-66.5573
 21
-167.317
  0
LINE
  8
0
 10
-66.5573
 20
-167.317
 11
-66.9737
 21
-167.659
  0
LINE
  8
0
 10
-66.9737
 20
-167.659
 11
-67.4488
 21
-167.913
  0
LINE
  8
0
 10
-67.4488
 20
-167.913
 11
-67.9642
 21
-168.069
  0
LINE
  8
0
 10
-67.9642
 20
-168.069
 11
-68.5003
 21
-168.122
  0
LINE
  8
0
 10
-68.5003
 20
-168.122
 11
-69.0364
 21
-168.069
  0
LINE
  8
0
 10
67.9642
 20
-168.069
 11
67.4488
 21
-167.913
  0
LINE
  8
0
 10
67.4488
 20
-167.913
 11
66.9737
 21
-167.659
  0
LINE
  8
0
 10
66.9737
 20
-167.659
 11
66.5573
 21
-167.317
  0
LINE
  8
0
 10
66.5573
 20
-167.317
 11
66.2156
 21
-166.901
  0
LINE
  8
0
 10
66.2156
 20
-166.901
 11
65.9617
 21
-166.426
  0
LINE
  8
0
 10
65.9617
 20
-166.426
 11
65.8053
 21
-165.911
  0
LINE
  8
0
 10
65.8053
 20
-165.911
 11
65.7525
 21
-165.374
  0
LINE
  8
0
 10
65.7525
 20
-165.374
 11
65.8053
 21
-164.838
  0
LINE
  8
0
 10
65.8053
 20
-164.838
 11
65.9617
 21
-164.323
  0
LINE
  8
0
 10
65.9617
 20
-164.323
 11
66.2156
 21
-163.848
  0
LINE
  8
0
 10
66.2156
 20
-163.848
 11
66.5573
 21
-163.431
  0
LINE
  8
0
 10
66.5573
 20
-163.431
 11
66.9737
 21
-163.09
  0
LINE
  8
0
 10
66.9737
 20
-163.09
 11
67.4488
 21
-162.836
  0
LINE
  8
0
 10
67.4488
 20
-162.836
 11
67.9642
 21
-162.679
  0
LINE
  8
0
 10
67.9642
 20
-162.679
 11
68.5003
 21
-162.627
  0
LINE
  8
0
 10
68.5003
 20
-162.627
 11
69.0364
 21
-162.679
  0
LINE
  8
0
 10
69.0364
 20
-162.679
 11
69.5518
 21
-162.836
  0
LINE
  8
0
 10
69.5518
 20
-162.836
 11
70.0269
 21
-163.09
  0
LINE
  8
0
 10
70.0269
 20
-163.09
 11
70.4433
 21
-163.431
  0
LINE
  8
0
 10
70.4433
 20
-163.431
 11
70.785
 21
-163.848
  0
LINE
  8
0
 10
70.785
 20
-163.848
 11
71.039
 21
-164.323
  0
LINE
  8
0
 10
71.039
 20
-164.323
 11
71.1954
 21
-164.838
  0
LINE
  8
0
 10
71.1954
 20
-164.838
 11
71.2482
 21
-165.374
  0
LINE
  8
0
 10
71.2482
 20
-165.374
 11
71.1954
 21
-165.911
  0
LINE
  8
0
 10
71.1954
 20
-165.911
 11
71.039
 21
-166.426
  0
LINE
  8
0
 10
71.039
 20
-166.426
 11
70.785
 21
-166.901
  0
LINE
  8
0
 10
70.785
 20
-166.901
 11
70.4433
 21
-167.317
  0
LINE
  8
0
 10
70.4433
 20
-167.317
 11
70.0269
 21
-167.659
  0
LINE
  8
0
 10
70.0269
 20
-167.659
 11
69.5518
 21
-167.913
  0
LINE
  8
0
 10
69.5518
 20
-167.913
 11
69.0364
 21
-168.069
  0
LINE
  8
0
 10
69.0364
 20
-168.069
 11
68.5003
 21
-168.122
  0
LINE
  8
0
 10
68.5003
 20
-168.122
 11
67.9642
 21
-168.069
  0
ENDSEC
  0
SECTION
  2
OBJECTS
  0
DICTIONARY
  0
ENDSEC
  0
EOF
